<?xml version="1.0" encoding="UTF-8"?>
<!-- Created with Inkscape (http://www.inkscape.org/) -->
<svg width="120.42mm" height="28.073mm" version="1.1" viewBox="0 0 120.41701 28.073481" xmlns="http://www.w3.org/2000/svg" xmlns:cc="http://creativecommons.org/ns#" xmlns:dc="http://purl.org/dc/elements/1.1/" xmlns:rdf="http://www.w3.org/1999/02/22-rdf-syntax-ns#" xmlns:xlink="http://www.w3.org/1999/xlink">
 <defs>
  <clipPath id="clipEmfPath2-244">
   <path d="m7.5142 89.531h85.854v20.464h-85.854z"/>
  </clipPath>
  <clipPath id="clipEmfPath3-314">
   <path d="m128.38 90.491h85.854v20.464h-85.854z"/>
  </clipPath>
  <clipPath id="clipEmfPath4-48">
   <path d="m249.25 91.61h86.014v20.304h-86.014z"/>
  </clipPath>
  <clipPath id="clipEmfPath5-056">
   <path d="m370.12 92.569h86.014v20.304h-86.014z"/>
  </clipPath>
 </defs>
 <metadata>
  <rdf:RDF>
   <cc:Work rdf:about="">
    <dc:format>image/svg+xml</dc:format>
    <dc:type rdf:resource="http://purl.org/dc/dcmitype/StillImage"/>
    <dc:title/>
   </cc:Work>
  </rdf:RDF>
 </metadata>
 <g transform="translate(-854.53 -167.81)">
  <g>
   <text x="862.90228" y="203.56628" fill="#000000" font-family="Calibri" font-size="3.8861px" font-weight="400" letter-spacing="0px" stroke-width=".26458" word-spacing="0px" style="line-height:125%" xml:space="preserve"><tspan x="0" y="0" stroke-width=".26458"><tspan dx="0" dy="0" fill="#000000" font-family="Calibri" font-size="3.8861px" font-weight="400" stroke-width=".26458"/></tspan></text>
   <text x="1003.91" y="198.06627" fill="#000000" font-family="'Times New Roman'" font-size="4.2333px" font-weight="400" letter-spacing="0px" stroke-width=".26458" word-spacing="0px" style="line-height:125%" xml:space="preserve"><tspan x="0" y="0" stroke-width=".26458"><tspan dx="0" dy="0" fill="#000000" font-family="'Times New Roman'" font-size="4.2333px" font-weight="400" stroke-width=".26458"/></tspan></text>
   <path d="m867.47 168.22-12.69 19.035h25.381z" fill-rule="evenodd"/>
  </g>
  <path d="m867.47 168.22-12.69 19.035h25.381z" fill="none" stroke="#000" stroke-linecap="round" stroke-miterlimit="8" stroke-width=".26438px"/>
  <path d="m899.19 168.22-12.69 19.035h25.381z" fill-rule="evenodd"/>
  <path d="m899.19 168.22-12.69 19.035h25.381z" fill="none" stroke="#000" stroke-linecap="round" stroke-miterlimit="8" stroke-width=".26438px"/>
  <path d="m899.19 187.26-6.3451-9.5177h12.69z" fill="#fff" fill-rule="evenodd"/>
  <path d="m899.19 187.26-6.3451-9.5177h12.69z" fill="none" stroke="#000" stroke-linecap="round" stroke-miterlimit="8" stroke-width=".26438px"/>
  <path d="m924.84 177.74-6.3451 9.5177h12.69z" fill-rule="evenodd"/>
  <path d="m924.84 177.74-6.3451 9.5177h12.69z" fill="none" stroke="#000" stroke-linecap="round" stroke-miterlimit="8" stroke-width=".26438px"/>
  <path d="m924.84 187.26-3.1726-4.7588h6.3451z" fill="#fff" fill-rule="evenodd"/>
  <path d="m924.84 187.26-3.1726-4.7588h6.3451z" fill="none" stroke="#000" stroke-linecap="round" stroke-miterlimit="8" stroke-width=".26438px"/>
  <path d="m937.67 177.76-6.3451 9.5177h12.69z" fill-rule="evenodd"/>
  <path d="m937.67 177.76-6.3451 9.5177h12.69z" fill="none" stroke="#000" stroke-linecap="round" stroke-miterlimit="8" stroke-width=".26438px"/>
  <path d="m937.67 187.28-3.1726-4.7588h6.3451z" fill="#fff" fill-rule="evenodd"/>
  <path d="m937.67 187.28-3.1726-4.7588h6.3451z" fill="none" stroke="#000" stroke-linecap="round" stroke-miterlimit="8" stroke-width=".26438px"/>
  <path d="m931.31 168.05-6.3451 9.5177h12.69z" fill-rule="evenodd"/>
  <path d="m931.31 168.05-6.3451 9.5177h12.69z" fill="none" stroke="#000" stroke-linecap="round" stroke-miterlimit="8" stroke-width=".26438px"/>
  <path d="m931.31 177.57-3.1726-4.7588h6.3451z" fill="#fff" fill-rule="evenodd"/>
  <path d="m931.31 177.57-3.1726-4.7588h6.3451z" fill="none" stroke="#000" stroke-linecap="round" stroke-miterlimit="8" stroke-width=".26438px"/>
  <path d="m952.25 182.55-3.1726 4.7588h6.3451z" fill-rule="evenodd"/>
  <path d="m952.25 182.55-3.1726 4.7588h6.3451z" fill="none" stroke="#000" stroke-linecap="round" stroke-miterlimit="8" stroke-width=".26438px"/>
  <path d="m952.25 187.31-1.5863-2.3794h3.1726z" fill="#fff" fill-rule="evenodd"/>
  <path d="m952.25 187.31-1.5863-2.3794h3.1726z" fill="none" stroke="#000" stroke-linecap="round" stroke-miterlimit="8" stroke-width=".26438px"/>
  <path d="m958.65 182.55-3.1726 4.7588h6.3451z" fill-rule="evenodd"/>
  <path d="m958.65 182.55-3.1726 4.7588h6.3451z" fill="none" stroke="#000" stroke-linecap="round" stroke-miterlimit="8" stroke-width=".26438px"/>
  <path d="m958.65 187.31-1.5863-2.3794h3.1726z" fill="#fff" fill-rule="evenodd"/>
  <path d="m958.65 187.31-1.5863-2.3794h3.1726z" fill="none" stroke="#000" stroke-linecap="round" stroke-miterlimit="8" stroke-width=".26438px"/>
  <path d="m955.48 177.71-3.1726 4.7588h6.3451z" fill-rule="evenodd"/>
  <path d="m955.48 177.71-3.1726 4.7588h6.3451z" fill="none" stroke="#000" stroke-linecap="round" stroke-miterlimit="8" stroke-width=".26438px"/>
  <path d="m955.48 182.47-1.5863-2.3794h3.1726z" fill="#fff" fill-rule="evenodd"/>
  <path d="m955.48 182.47-1.5863-2.3794h3.1726z" fill="none" stroke="#000" stroke-linecap="round" stroke-miterlimit="8" stroke-width=".26438px"/>
  <path d="m965.13 182.61-3.1726 4.7588h6.3451z" fill-rule="evenodd"/>
  <path d="m965.13 182.61-3.1726 4.7588h6.3451z" fill="none" stroke="#000" stroke-linecap="round" stroke-miterlimit="8" stroke-width=".26438px"/>
  <path d="m965.13 187.36-1.5863-2.3794h3.1726z" fill="#fff" fill-rule="evenodd"/>
  <path d="m965.13 187.36-1.5863-2.3794h3.1726z" fill="none" stroke="#000" stroke-linecap="round" stroke-miterlimit="8" stroke-width=".26438px"/>
  <path d="m971.53 182.61-3.1726 4.7588h6.3451z" fill-rule="evenodd"/>
  <path d="m971.53 182.61-3.1726 4.7588h6.3451z" fill="none" stroke="#000" stroke-linecap="round" stroke-miterlimit="8" stroke-width=".26438px"/>
  <path d="m971.53 187.36-1.5863-2.3794h3.1726z" fill="#fff" fill-rule="evenodd"/>
  <path d="m971.53 187.36-1.5863-2.3794h3.1726z" fill="none" stroke="#000" stroke-linecap="round" stroke-miterlimit="8" stroke-width=".26438px"/>
  <path d="m968.36 177.76-3.1726 4.7588h6.3451z" fill-rule="evenodd"/>
  <path d="m968.36 177.76-3.1726 4.7588h6.3451z" fill="none" stroke="#000" stroke-linecap="round" stroke-miterlimit="8" stroke-width=".26438px"/>
  <path d="m968.36 182.52-1.5863-2.3794h3.1726z" fill="#fff" fill-rule="evenodd"/>
  <path d="m968.36 182.52-1.5863-2.3794h3.1726z" fill="none" stroke="#000" stroke-linecap="round" stroke-miterlimit="8" stroke-width=".26438px"/>
  <path d="m958.61 172.9-3.1726 4.7588h6.3451z" fill-rule="evenodd"/>
  <path d="m958.61 172.9-3.1726 4.7588h6.3451z" fill="none" stroke="#000" stroke-linecap="round" stroke-miterlimit="8" stroke-width=".26438px"/>
  <path d="m958.61 177.66-1.5863-2.3794h3.1726z" fill="#fff" fill-rule="evenodd"/>
  <path d="m958.61 177.66-1.5863-2.3794h3.1726z" fill="none" stroke="#000" stroke-linecap="round" stroke-miterlimit="8" stroke-width=".26438px"/>
  <path d="m965.01 172.9-3.1726 4.7588h6.3451z" fill-rule="evenodd"/>
  <path d="m965.01 172.9-3.1726 4.7588h6.3451z" fill="none" stroke="#000" stroke-linecap="round" stroke-miterlimit="8" stroke-width=".26438px"/>
  <path d="m965.01 177.66-1.5863-2.3794h3.1726z" fill="#fff" fill-rule="evenodd"/>
  <path d="m965.01 177.66-1.5863-2.3794h3.1726z" fill="none" stroke="#000" stroke-linecap="round" stroke-miterlimit="8" stroke-width=".26438px"/>
  <path d="m961.84 168.05-3.1726 4.7588h6.3451z" fill-rule="evenodd"/>
  <path d="m961.84 168.05-3.1726 4.7588h6.3451z" fill="none" stroke="#000" stroke-linecap="round" stroke-miterlimit="8" stroke-width=".26438px"/>
  <path d="m961.84 172.81-1.5863-2.3794h3.1726z" fill="#fff" fill-rule="evenodd"/>
  <path d="m961.84 172.81-1.5863-2.3794h3.1726z" fill="none" stroke="#000" stroke-linecap="round" stroke-miterlimit="8" stroke-width=".26438px"/>
  <g transform="matrix(.26458 0 0 .26458 853.36 166.64)" clip-path="url(#clipEmfPath2-244)">
   <text transform="translate(31.176 104.56)" fill="#000000" font-family="'Times New Roman'" font-size="16px" font-weight="400" letter-spacing="0px" word-spacing="0px" style="line-height:125%" xml:space="preserve"><tspan x="0" y="0" fill="#000000" font-family="'Times New Roman'" font-size="16px" font-weight="400"><tspan dx="0" dy="0">Initial</tspan><tspan dx="0" dy="0"/></tspan></text>
  </g>
  <g transform="matrix(.26458 0 0 .26458 853.36 166.64)" clip-path="url(#clipEmfPath3-314)">
   <text transform="translate(151.08 105.52)" fill="#000000" font-family="'Times New Roman'" font-size="16px" font-weight="400" letter-spacing="0px" word-spacing="0px" style="line-height:125%" xml:space="preserve"><tspan x="0" y="0" fill="#000000" font-family="'Times New Roman'" font-size="16px" font-weight="400"><tspan dx="0" dy="0">Step 1</tspan><tspan dx="0" dy="0"/></tspan></text>
  </g>
  <g transform="matrix(.26458 0 0 .26458 853.36 166.64)" clip-path="url(#clipEmfPath4-48)" fill="#000000" font-family="'Times New Roman'" font-size="16px" font-weight="400" letter-spacing="0px" word-spacing="0px">
   <text transform="translate(271.95 106.16)" style="line-height:125%" xml:space="preserve"><tspan x="0" y="0" fill="#000000" font-family="'Times New Roman'" font-size="16px" font-weight="400"><tspan dx="0" dy="0">Step 2</tspan><tspan dx="0" dy="0"/></tspan></text>
   <text transform="translate(271.95 106.16)" x="-13.109944" y="18.385897" style="line-height:125%" xml:space="preserve"><tspan x="0" y="0"><tspan dx="0" dy="0" fill="#000000" font-family="'Times New Roman'" font-size="16px" font-weight="400"/></tspan></text>
  </g>
  <g transform="matrix(.26458 0 0 .26458 853.36 166.64)" clip-path="url(#clipEmfPath5-056)" fill="#000000" font-family="'Times New Roman'" font-size="16px" font-weight="400" letter-spacing="0px" word-spacing="0px">
   <text transform="translate(392.82 107.12)" style="line-height:125%" xml:space="preserve"><tspan x="0" y="0" fill="#000000" font-family="'Times New Roman'" font-size="16px" font-weight="400"><tspan dx="0" dy="0">Step 3</tspan><tspan dx="0" dy="0"/></tspan></text>
   <text transform="translate(392.82 107.12)" x="-13.109944" y="18.385897" style="line-height:125%" xml:space="preserve"><tspan x="0" y="0"><tspan dx="0" dy="0" fill="#000000" font-family="'Times New Roman'" font-size="16px" font-weight="400"/></tspan></text>
  </g>
 </g>
</svg>
