<?xml version="1.0" encoding="UTF-8"?>
<!-- Created with Inkscape (http://www.inkscape.org/) -->
<svg width="51.583mm" height="25.052mm" version="1.1" viewBox="0 0 51.582962 25.052017" xmlns="http://www.w3.org/2000/svg" xmlns:cc="http://creativecommons.org/ns#" xmlns:dc="http://purl.org/dc/elements/1.1/" xmlns:rdf="http://www.w3.org/1999/02/22-rdf-syntax-ns#" xmlns:xlink="http://www.w3.org/1999/xlink">
 <defs>
  <clipPath id="clipEmfPath2-120">
   <path d="m-0.79939 83.936h85.854v20.304h-85.854z"/>
  </clipPath>
  <clipPath id="clipEmfPath3-649">
   <path d="m120.23 83.296h85.854v20.304h-85.854z"/>
  </clipPath>
 </defs>
 <metadata>
  <rdf:RDF>
   <cc:Work rdf:about="">
    <dc:format>image/svg+xml</dc:format>
    <dc:type rdf:resource="http://purl.org/dc/dcmitype/StillImage"/>
    <dc:title/>
   </cc:Work>
  </rdf:RDF>
 </metadata>
 <g transform="translate(-893.69 -184.2)">
  <text x="956.14221" y="211.86249" fill="#000000" font-family="'Times New Roman'" font-size="4.2333px" font-weight="400" letter-spacing="0px" stroke-width=".26458" word-spacing="0px" style="line-height:5.29166639px" xml:space="preserve"><tspan x="0" y="0" stroke-width=".26458" style="line-height:5.29166639px"><tspan dx="0" dy="0" fill="#000000" font-family="'Times New Roman'" font-size="4.2333px" font-weight="400" stroke-width=".26458" style="line-height:5.29166639px"/></tspan></text>
  <g transform="matrix(.26458 0 0 .26458 892.44 182.97)" clip-path="url(#clipEmfPath2-120)" style="">
   <text transform="translate(16.307 99.124)" fill="#000000" font-family="'Times New Roman'" font-size="16px" font-weight="400" letter-spacing="0px" word-spacing="0px" style="line-height:125%" xml:space="preserve"><tspan x="0" y="0" fill="#000000" font-family="'Times New Roman'" font-size="16px" font-weight="400"><tspan dx="0" dy="0">Initiator</tspan><tspan dx="0" dy="0"/></tspan></text>
  </g>
  <g transform="matrix(.26458 0 0 .26458 892.44 182.97)" clip-path="url(#clipEmfPath3-649)" style="">
   <text transform="translate(131.26 98.484)" fill="#000000" font-family="'Times New Roman'" font-size="16px" font-weight="400" letter-spacing="0px" word-spacing="0px" style="line-height:125%" xml:space="preserve"><tspan x="0" y="0" fill="#000000" font-family="'Times New Roman'" font-size="16px" font-weight="400"><tspan dx="0" dy="0">Generator</tspan><tspan dx="0" dy="0"/></tspan></text>
  </g>
  <path d="m903.39 184.6-9.5521 6.9426 3.7146 11.212h11.678l3.7145-11.212z" fill="#d8d8d8" fill-rule="evenodd"/>
  <path d="m903.39 184.6-9.5521 6.9426 3.7146 11.212h11.678l3.7145-11.212z" fill="none" stroke="#000" stroke-linecap="round" stroke-miterlimit="8" stroke-width=".26438px"/>
  <path d="m931.87 195.72-3.6749 2.6676 1.4303 4.312h4.4918l1.4276-4.312z" fill="#d8d8d8" fill-rule="evenodd"/>
  <path d="m931.87 195.72-3.6749 2.6676 1.4303 4.312h4.4918l1.4276-4.312z" fill="none" stroke="#000" stroke-linecap="round" stroke-miterlimit="8" stroke-width=".26438px"/>
  <path d="m939.23 195.79-3.667 2.6702 1.425 4.3094h4.4812l1.425-4.3094z" fill="#d8d8d8" fill-rule="evenodd"/>
  <path d="m939.23 195.79-3.667 2.6702 1.425 4.3094h4.4812l1.425-4.3094z" fill="none" stroke="#000" stroke-linecap="round" stroke-miterlimit="8" stroke-width=".26438px"/>
  <path d="m929.59 188.67-3.667 2.6623 1.4276 4.2988h4.4813l1.425-4.2988z" fill="#d8d8d8" fill-rule="evenodd"/>
  <path d="m929.59 188.67-3.667 2.6623 1.4276 4.2988h4.4813l1.425-4.2988z" fill="none" stroke="#000" stroke-linecap="round" stroke-miterlimit="8" stroke-width=".26438px"/>
  <path d="m941.45 188.76-3.667 2.6702 1.425 4.3094h4.4812l1.425-4.3094z" fill="#d8d8d8" fill-rule="evenodd"/>
  <path d="m941.45 188.76-3.667 2.6702 1.425 4.3094h4.4812l1.425-4.3094z" fill="none" stroke="#000" stroke-linecap="round" stroke-miterlimit="8" stroke-width=".26438px"/>
  <path d="m935.56 184.37-3.667 2.6702 1.4277 4.3094h4.4812l1.425-4.3094z" fill="#d8d8d8" fill-rule="evenodd"/>
  <path d="m935.56 184.37-3.667 2.6702 1.4277 4.3094h4.4812l1.425-4.3094z" fill="none" stroke="#000" stroke-linecap="round" stroke-miterlimit="8" stroke-width=".26438px"/>
 </g>
</svg>
