<?xml version="1.0" encoding="UTF-8"?>
<!-- Created with Inkscape (http://www.inkscape.org/) -->
<svg width="145.94mm" height="32.021mm" version="1.1" viewBox="0 0 145.93802 32.021482" xmlns="http://www.w3.org/2000/svg" xmlns:cc="http://creativecommons.org/ns#" xmlns:dc="http://purl.org/dc/elements/1.1/" xmlns:rdf="http://www.w3.org/1999/02/22-rdf-syntax-ns#" xmlns:xlink="http://www.w3.org/1999/xlink">
 <defs>
  <clipPath id="clipEmfPath2-364">
   <path d="m23.502 83.776h106.64v24.781h-106.64z"/>
  </clipPath>
  <clipPath id="clipEmfPath3-947">
   <path d="m219.03 91.45h106.48v24.781h-106.48z"/>
  </clipPath>
  <clipPath id="clipEmfPath4-17">
   <path d="m408.65 88.092h106.64v36.932h-106.64z"/>
  </clipPath>
 </defs>
 <metadata>
  <rdf:RDF>
   <cc:Work rdf:about="">
    <dc:format>image/svg+xml</dc:format>
    <dc:type rdf:resource="http://purl.org/dc/dcmitype/StillImage"/>
    <dc:title/>
   </cc:Work>
  </rdf:RDF>
 </metadata>
 <g transform="translate(-874.15 -151.77)">
  <text x="1025.0386" y="186.0175" fill="#000000" font-family="'Times New Roman'" font-size="4.2333px" font-weight="400" letter-spacing="0px" stroke-width=".26458" word-spacing="0px" style="line-height:125%" xml:space="preserve"><tspan x="0" y="0" stroke-width=".26458"><tspan dx="0" dy="0" fill="#000000" font-family="'Times New Roman'" font-size="4.2333px" font-weight="400" stroke-width=".26458"/></tspan></text>
  <g transform="matrix(.26458 0 0 .26458 874.02 151.67)" clip-path="url(#clipEmfPath2-364)">
   <text transform="translate(56.597 98.804)" fill="#000000" font-family="'Times New Roman'" font-size="16px" font-weight="400" letter-spacing="0px" word-spacing="0px" style="line-height:125%" xml:space="preserve"><tspan x="0" y="0" fill="#000000" font-family="'Times New Roman'" font-size="16px" font-weight="400"><tspan dx="0" dy="0">Step 0</tspan><tspan dx="0" dy="0"/></tspan></text>
  </g>
  <g transform="matrix(.26458 0 0 .26458 874.02 151.67)" clip-path="url(#clipEmfPath3-947)">
   <text transform="translate(251.97 106.48)" fill="#000000" font-family="'Times New Roman'" font-size="16px" font-weight="400" letter-spacing="0px" word-spacing="0px" style="line-height:125%" xml:space="preserve"><tspan x="0" y="0" fill="#000000" font-family="'Times New Roman'" font-size="16px" font-weight="400"><tspan dx="0" dy="0">Step 1</tspan><tspan dx="0" dy="0"/></tspan></text>
  </g>
  <path d="m919.1 170.88h-44.82l13.729-18.983z" fill="#fff" fill-rule="evenodd"/>
  <path d="m919.1 170.88h-44.82l13.729-18.983z" fill="none" stroke="#000" stroke-linecap="round" stroke-linejoin="round" stroke-width=".26438px"/>
  <path d="m968.6 171.24h-44.823l13.732-18.983z" fill="#fff" fill-rule="evenodd"/>
  <path d="m968.6 171.24h-44.823l13.732-18.983z" fill="none" stroke="#000" stroke-linecap="round" stroke-linejoin="round" stroke-width=".26438px"/>
  <path d="m930.54 161.76 15.104 9.5891 6.398-10.046z" fill="#fff" fill-rule="evenodd"/>
  <path d="m930.54 161.76 15.104 9.5891 6.398-10.046z" fill="none" stroke="#000" stroke-linecap="round" stroke-linejoin="round" stroke-width=".26438px"/>
  <path d="m979.95 158.9 20.341 2.0622-7.4713 9.8138z" fill="#fff" fill-rule="evenodd"/>
  <path d="m979.95 158.9 20.341 2.0622-7.4713 9.8138z" fill="none" stroke="#000" stroke-linecap="round" stroke-linejoin="round" stroke-width=".26438px"/>
  <path d="m975.37 171.01 4.7906-12.109 8.9202-6.6307 11.897 9.1476 18.983 9.5917-25.608-0.23266z" fill="none" stroke="#000" stroke-linecap="round" stroke-linejoin="round" stroke-width=".26438px"/>
  <g transform="matrix(.26458 0 0 .26458 874.02 151.67)" clip-path="url(#clipEmfPath4-17)">
   <text transform="translate(425.43 102.64)" x="38.47266" fill="#000000" font-family="'Times New Roman'" font-size="16px" font-weight="400" letter-spacing="0px" text-align="center" text-anchor="middle" word-spacing="0px" style="line-height:115.91109037%" xml:space="preserve"><tspan x="40.47266" y="0"><tspan dx="0" dy="0">S</tspan><tspan dx="0" dy="0">tep 1 with </tspan></tspan><tspan x="38.47266" y="18.545774"><tspan dx="0" dy="0">randomnes</tspan><tspan dx="0" dy="0">s</tspan><tspan dx="0" dy="0"/></tspan></text>
  </g>
 </g>
</svg>
