<?xml version="1.0" encoding="UTF-8"?>
<!-- Created with Inkscape (http://www.inkscape.org/) -->
<svg width="144.33mm" height="40.931mm" version="1.1" viewBox="0 0 144.33053 40.931386" xmlns="http://www.w3.org/2000/svg" xmlns:cc="http://creativecommons.org/ns#" xmlns:dc="http://purl.org/dc/elements/1.1/" xmlns:rdf="http://www.w3.org/1999/02/22-rdf-syntax-ns#" xmlns:xlink="http://www.w3.org/1999/xlink">
 <defs>
  <clipPath id="clipEmfPath2-80">
   <path d="m0.15988 4.9562h545.5v17.587h-545.5z"/>
  </clipPath>
 </defs>
 <metadata>
  <rdf:RDF>
   <cc:Work rdf:about="">
    <dc:format>image/svg+xml</dc:format>
    <dc:type rdf:resource="http://purl.org/dc/dcmitype/StillImage"/>
    <dc:title/>
   </cc:Work>
  </rdf:RDF>
 </metadata>
 <g transform="translate(-945.77 -167.96)">
  <text x="1098.808" y="209.5076" fill="#000000" font-family="'Times New Roman'" font-size="4.2333px" font-weight="400" letter-spacing="0px" stroke-width=".26458" word-spacing="0px" style="line-height:5.29166639px" xml:space="preserve"><tspan x="0" y="0" stroke-width=".26458" style="line-height:5.29166639px"><tspan dx="0" dy="0" fill="#000000" font-family="'Times New Roman'" font-size="4.2333px" font-weight="400" stroke-width=".26458" style="line-height:5.29166639px"/></tspan></text>
  <path d="m945.77 167.96v7.1912h144.33v-7.1912z" fill="#fff" fill-rule="evenodd"/>
  <g transform="matrix(.26458 0 0 .26458 945.76 167.93)" clip-path="url(#clipEmfPath2-80)" fill="#000000" font-family="'Times New Roman'" font-size="16px" font-weight="400" letter-spacing="0px" word-spacing="0px" style="">
   <text transform="translate(9.7525 19.505)" style="line-height:125%" xml:space="preserve"><tspan x="0" y="0" fill="#000000" font-family="'Times New Roman'" font-size="16px" font-weight="400"><tspan dx="0" dy="0">1</tspan><tspan dx="0" dy="0">-</tspan><tspan dx="0" dy="0">dimensional</tspan><tspan dx="0" dy="0"/><tspan dx="0.47656599" dy="0"/></tspan></text>
   <text transform="translate(9.7525 19.505)" x="143.88962" style="line-height:125%" xml:space="preserve"><tspan x="0" y="0"><tspan dx="0" dy="0" fill="#000000" font-family="'Times New Roman'" font-size="16px" font-weight="400"/></tspan></text>
   <text transform="translate(9.7525 19.505)" x="191.85283" style="line-height:125%" xml:space="preserve"><tspan x="191.85283" y="0" fill="#000000" font-family="'Times New Roman'" font-size="16px" font-weight="400"><tspan dx="0" dy="0">2</tspan><tspan dx="0" dy="0">-</tspan><tspan dx="0" dy="0">dimensional</tspan><tspan dx="0" dy="0"/><tspan dx="0.47656599" dy="0"/></tspan></text>
   <text transform="translate(9.7525 19.505)" x="335.74246" style="line-height:125%" xml:space="preserve"><tspan x="0" y="0"><tspan dx="0" dy="0" fill="#000000" font-family="'Times New Roman'" font-size="16px" font-weight="400"/></tspan></text>
   <text transform="translate(9.7525 19.505)" x="383.70566" style="line-height:125%" xml:space="preserve"><tspan x="383.70566" y="0" fill="#000000" font-family="'Times New Roman'" font-size="16px" font-weight="400"><tspan dx="0" dy="0">3</tspan><tspan dx="0" dy="0">-</tspan><tspan dx="0" dy="0">dimensional</tspan><tspan dx="0" dy="0"/></tspan></text>
  </g>
  <path d="m948.26 181.99h24.87" fill="none" stroke="#000" stroke-linejoin="round" stroke-width=".26438px"/>
  <path d="m950.48 201.16c-1.1104-3.0324-2.2023-6.0622-1.499-7.474 0.70589-1.4092 4.8117-1.8507 5.7291-0.98614s-1.1633 4.3358-0.24587 6.205c0.91476 1.8665 5.0232 5.8164 5.7265 4.9862 0.7059-0.82751-2.3266-8.09-1.4964-9.9566 0.82751-1.8692 5.1819-2.0622 6.4668-1.2347 1.2875 0.82751-0.0873 5.7106 1.2346 6.205 1.3219 0.49175 4.9889-3.3153 6.7338-3.2254" fill="none" stroke="#000" stroke-linejoin="round" stroke-width=".26438px"/>
  <path d="m995.03 179.46v10.205h12.199v-10.205z" fill="#d8d8d8" fill-rule="evenodd"/>
  <path d="m995.03 179.46v10.205h12.199v-10.205z" fill="none" stroke="#000" stroke-linecap="round" stroke-miterlimit="8" stroke-width=".26438px"/>
  <path d="m1004 194.57c-3.9816 0-7.2096 3.1752-7.2096 7.0933s3.228 7.0933 7.2096 7.0933 7.2097-3.1752 7.2097-7.0933-3.2281-7.0933-7.2097-7.0933z" fill="#d8d8d8" fill-rule="evenodd"/>
  <path d="m1004 194.57c-3.9816 0-7.2096 3.1752-7.2096 7.0933s3.228 7.0933 7.2096 7.0933 7.2097-3.1752 7.2097-7.0933-3.2281-7.0933-7.2097-7.0933" fill="none" stroke="#000" stroke-linecap="round" stroke-linejoin="round" stroke-width=".26438px"/>
  <path d="m1022.3 178.48-7.0748 17.164h14.15z" fill="#d8d8d8" fill-rule="evenodd"/>
  <path d="m1022.3 178.48-7.0748 17.164h14.15z" fill="none" stroke="#000" stroke-linecap="round" stroke-miterlimit="8" stroke-width=".26438px"/>
  <g fill-rule="evenodd">
   <path d="m1050.2 179.38-3.6749 3.6696v11.009h11.278l3.6696-3.6696v-11.009z" fill="#f2f2f2"/>
   <path d="m1046.5 183.05h11.278l3.6696-3.6696h-11.273z" fill="#f5f5f5"/>
   <path d="m1057.8 183.05 3.6696-3.6696v11.009l-3.6696 3.6696z" fill="#c3c3c3"/>
  </g>
  <g fill="none" stroke="#000" stroke-miterlimit="8" stroke-width=".26438px">
   <path d="m1050.2 179.38-3.6749 3.6696v11.009h11.278l3.6696-3.6696v-11.009z"/>
   <path d="m1046.5 183.05h11.278l3.6696-3.6696"/>
   <path d="m1057.8 183.05v11.009"/>
  </g>
  <path d="m1074.7 183.73c-3.8547 0-6.9797 0.98878-6.9797 2.2049v13.235c0 1.2162 3.125 2.2049 6.9797 2.2049 3.8599 0 6.9796-0.98878 6.9796-2.2049v-13.235c0-1.2162-3.1197-2.2049-6.9796-2.2049z" fill="#d8d8d8" fill-rule="evenodd"/>
  <path d="m1067.7 185.94c0 1.2214 3.125 2.2049 6.9797 2.2049 3.8599 0 6.9796-0.9835 6.9796-2.2049 0-1.2162-3.1197-2.2049-6.9796-2.2049-3.8547 0-6.9797 0.98878-6.9797 2.2049z" fill="#e0e0e0" fill-rule="evenodd"/>
  <path d="m1074.7 183.73c-3.8547 0-6.9797 0.98878-6.9797 2.2049v13.235c0 1.2162 3.125 2.2049 6.9797 2.2049 3.8599 0 6.9796-0.98878 6.9796-2.2049v-13.235c0-1.2162-3.1197-2.2049-6.9796-2.2049z" fill="none" stroke="#000" stroke-linejoin="round" stroke-width=".26438px"/>
  <path d="m1067.7 185.94c0 1.2214 3.125 2.2049 6.9797 2.2049 3.8599 0 6.9796-0.9835 6.9796-2.2049" fill="none" stroke="#000" stroke-linejoin="round" stroke-width=".26438px"/>
 </g>
</svg>
