<?xml version="1.0" encoding="UTF-8"?>
<!-- Created with Inkscape (http://www.inkscape.org/) -->
<svg width="120.56mm" height="6.9863mm" version="1.1" viewBox="0 0 120.55776 6.9862642" xmlns="http://www.w3.org/2000/svg" xmlns:cc="http://creativecommons.org/ns#" xmlns:dc="http://purl.org/dc/elements/1.1/" xmlns:rdf="http://www.w3.org/1999/02/22-rdf-syntax-ns#" xmlns:xlink="http://www.w3.org/1999/xlink">
 <defs>
  <clipPath id="clipEmfPath2-109">
   <path d="m25.58 1.5988h19.185v21.104h-19.185z"/>
  </clipPath>
  <clipPath id="clipEmfPath3-742">
   <path d="m165.63-0.15988h19.185v21.104h-19.185z"/>
  </clipPath>
  <clipPath id="clipEmfPath4-065">
   <path d="m361.8-0.63951h19.345v21.104h-19.345z"/>
  </clipPath>
 </defs>
 <metadata>
  <rdf:RDF>
   <cc:Work rdf:about="">
    <dc:format>image/svg+xml</dc:format>
    <dc:type rdf:resource="http://purl.org/dc/dcmitype/StillImage"/>
    <dc:title/>
   </cc:Work>
  </rdf:RDF>
 </metadata>
 <g transform="translate(-871.84 -156.78)">
  <text x="1024.1449" y="165.13542" fill="#000000" font-family="'Times New Roman'" font-size="4.2333px" font-weight="400" letter-spacing="0px" stroke-width=".26458" word-spacing="0px" style="line-height:5.29166639px" xml:space="preserve"><tspan x="0" y="0" stroke-width=".26458" style="line-height:5.29166639px"><tspan dx="0" dy="0" fill="#000000" font-family="'Times New Roman'" font-size="4.2333px" font-weight="400" stroke-width=".26458" style="line-height:5.29166639px"/></tspan></text>
  <g transform="matrix(.26458 0 0 .26458 871.61 155.83)" clip-path="url(#clipEmfPath2-109)" style="">
   <text transform="translate(25.58 16.627)" fill="#000000" font-family="'Times New Roman'" font-size="16px" font-weight="400" letter-spacing="0px" word-spacing="0px" style="line-height:125%" xml:space="preserve"><tspan x="0" y="0" fill="#000000" font-family="'Times New Roman'" font-size="16px" font-weight="400"><tspan dx="0" dy="0">1</tspan><tspan dx="0" dy="0"/></tspan></text>
  </g>
  <g fill="none" stroke="#000" stroke-linejoin="round" stroke-width=".26438px">
   <path d="m916.26 161.11 0.0185 2.4852"/>
   <path d="m871.84 162.38 15.863 0.0185"/>
   <path d="m900.39 162.38 15.863 0.0185"/>
   <path d="m916.26 162.38 15.863 0.0185"/>
   <path d="m960.67 161.28 0.021 2.4852"/>
   <path d="m944.81 162.39 15.863 0.0159"/>
   <path d="m960.67 162.39 15.863 0.0159"/>
   <path d="m976.54 161.28 0.021 2.4852"/>
   <path d="m960.67 162.39 15.863 0.0159"/>
   <path d="m976.54 162.39 15.863 0.0159"/>
  </g>
  <g transform="matrix(.26458 0 0 .26458 871.61 155.83)" clip-path="url(#clipEmfPath3-742)" style="">
   <text transform="translate(165.63 14.869)" fill="#000000" font-family="'Times New Roman'" font-size="16px" font-weight="400" letter-spacing="0px" word-spacing="0px" style="line-height:125%" xml:space="preserve"><tspan x="0" y="0" fill="#000000" font-family="'Times New Roman'" font-size="16px" font-weight="400"><tspan dx="0" dy="0">2</tspan><tspan dx="0" dy="0"/></tspan></text>
  </g>
  <g transform="matrix(.26458 0 0 .26458 871.61 155.83)" clip-path="url(#clipEmfPath4-065)" style="">
   <text transform="translate(361.8 14.389)" fill="#000000" font-family="'Times New Roman'" font-size="16px" font-weight="400" letter-spacing="0px" word-spacing="0px" style="line-height:125%" xml:space="preserve"><tspan x="0" y="0" fill="#000000" font-family="'Times New Roman'" font-size="16px" font-weight="400"><tspan dx="0" dy="0">3</tspan><tspan dx="0" dy="0"/></tspan></text>
  </g>
 </g>
</svg>
