<?xml version="1.0" encoding="UTF-8"?>
<!-- Created with Inkscape (http://www.inkscape.org/) -->
<svg width="113.83mm" height="24.117mm" version="1.1" viewBox="0 0 113.82733 24.116997" xmlns="http://www.w3.org/2000/svg" xmlns:cc="http://creativecommons.org/ns#" xmlns:dc="http://purl.org/dc/elements/1.1/" xmlns:rdf="http://www.w3.org/1999/02/22-rdf-syntax-ns#" xmlns:xlink="http://www.w3.org/1999/xlink">
 <defs>
  <clipPath id="clipEmfPath2-699">
   <path d="m0 22.383h19.185v21.104h-19.185z"/>
  </clipPath>
  <clipPath id="clipEmfPath3-40">
   <path d="m164.67-0.63951h19.185v21.104h-19.185z"/>
  </clipPath>
  <clipPath id="clipEmfPath4-84">
   <path d="m356.21-0.31975h19.345v21.264h-19.345z"/>
  </clipPath>
  <clipPath id="clipEmfPath5-847">
   <path d="m32.295 2.0784h19.185v21.104h-19.185z"/>
  </clipPath>
  <clipPath id="clipEmfPath6-964">
   <path d="m102.32 35.653h19.185v21.104h-19.185z"/>
  </clipPath>
  <clipPath id="clipEmfPath7-111">
   <path d="m273.71 48.922h19.185v21.104h-19.185z"/>
  </clipPath>
 </defs>
 <metadata>
  <rdf:RDF>
   <cc:Work rdf:about="">
    <dc:format>image/svg+xml</dc:format>
    <dc:type rdf:resource="http://purl.org/dc/dcmitype/StillImage"/>
    <dc:title/>
   </cc:Work>
  </rdf:RDF>
 </metadata>
 <g transform="translate(-875.21 -148.21)">
  <text x="1030.1653" y="173.0251" fill="#000000" font-family="'Times New Roman'" font-size="4.2333px" font-weight="400" letter-spacing="0px" stroke-width=".26458" word-spacing="0px" style="line-height:5.29166639px" xml:space="preserve"><tspan x="0" y="0" stroke-width=".26458" style="line-height:5.29166639px"><tspan dx="0" dy="0" fill="#000000" font-family="'Times New Roman'" font-size="4.2333px" font-weight="400" stroke-width=".26458" style="line-height:5.29166639px"/></tspan></text>
  <g transform="matrix(.26458 0 0 .26458 874.71 147.26)" clip-path="url(#clipEmfPath2-699)" style="">
   <text transform="translate(0 37.411)" fill="#000000" font-family="'Times New Roman'" font-size="16px" font-weight="400" letter-spacing="0px" word-spacing="0px" style="line-height:125%" xml:space="preserve"><tspan x="0" y="0" fill="#000000" font-family="'Times New Roman'" font-size="16px" font-weight="400"><tspan dx="0" dy="0">1</tspan><tspan dx="0" dy="0"/></tspan></text>
  </g>
  <g transform="matrix(.26458 0 0 .26458 874.71 147.26)" clip-path="url(#clipEmfPath3-40)" style="">
   <text transform="translate(164.67 14.389)" fill="#000000" font-family="'Times New Roman'" font-size="16px" font-weight="400" letter-spacing="0px" word-spacing="0px" style="line-height:125%" xml:space="preserve"><tspan x="0" y="0" fill="#000000" font-family="'Times New Roman'" font-size="16px" font-weight="400"><tspan dx="0" dy="0">4</tspan><tspan dx="0" dy="0"/></tspan></text>
  </g>
  <g transform="matrix(.26458 0 0 .26458 874.71 147.26)" clip-path="url(#clipEmfPath4-84)" style="">
   <text transform="translate(356.21 14.549)" fill="#000000" font-family="'Times New Roman'" font-size="16px" font-weight="400" letter-spacing="0px" word-spacing="0px" style="line-height:125%" xml:space="preserve"><tspan x="0" y="0" fill="#000000" font-family="'Times New Roman'" font-size="16px" font-weight="400"><tspan dx="0" dy="0">6</tspan><tspan dx="0" dy="0"/></tspan></text>
  </g>
  <path d="m877.86 153.16v6.3451h12.69v-6.3451z" fill="#d8d8d8" fill-rule="evenodd"/>
  <path d="m877.86 153.16v6.3451h12.69v-6.3451z" fill="none" stroke="#000" stroke-linecap="round" stroke-miterlimit="8" stroke-width=".26438px"/>
  <g transform="matrix(.26458 0 0 .26458 874.71 147.26)" clip-path="url(#clipEmfPath5-847)" style="">
   <text transform="translate(32.295 17.107)" fill="#000000" font-family="'Times New Roman'" font-size="16px" font-weight="400" letter-spacing="0px" word-spacing="0px" style="line-height:125%" xml:space="preserve"><tspan x="0" y="0" fill="#000000" font-family="'Times New Roman'" font-size="16px" font-weight="400"><tspan dx="0" dy="0">2</tspan><tspan dx="0" dy="0"/></tspan></text>
  </g>
  <path d="m906.41 153.16v6.3451h12.69v-6.3451z" fill="#d8d8d8" fill-rule="evenodd"/>
  <path d="m906.41 153.16v6.3451h12.69v-6.3451z" fill="none" stroke="#000" stroke-linecap="round" stroke-miterlimit="8" stroke-width=".26438px"/>
  <path d="m919.1 153.16v6.3451h12.69v-6.3451z" fill="#d8d8d8" fill-rule="evenodd"/>
  <path d="m919.1 153.16v6.3451h12.69v-6.3451z" fill="none" stroke="#000" stroke-linecap="round" stroke-miterlimit="8" stroke-width=".26438px"/>
  <path d="m906.41 159.5v6.3451h12.69v-6.3451z" fill="#d8d8d8" fill-rule="evenodd"/>
  <path d="m906.41 159.5v6.3451h12.69v-6.3451z" fill="none" stroke="#000" stroke-linecap="round" stroke-miterlimit="8" stroke-width=".26438px"/>
  <path d="m919.1 159.5v6.3451h12.69v-6.3451z" fill="#d8d8d8" fill-rule="evenodd"/>
  <path d="m919.1 159.5v6.3451h12.69v-6.3451z" fill="none" stroke="#000" stroke-linecap="round" stroke-miterlimit="8" stroke-width=".26438px"/>
  <path d="m950.83 153.16v6.3451h12.69v-6.3451z" fill="#d8d8d8" fill-rule="evenodd"/>
  <path d="m950.83 153.16v6.3451h12.69v-6.3451z" fill="none" stroke="#000" stroke-linecap="round" stroke-miterlimit="8" stroke-width=".26438px"/>
  <path d="m963.52 153.16v6.3451h12.69v-6.3451z" fill="#d8d8d8" fill-rule="evenodd"/>
  <path d="m963.52 153.16v6.3451h12.69v-6.3451z" fill="none" stroke="#000" stroke-linecap="round" stroke-miterlimit="8" stroke-width=".26438px"/>
  <path d="m950.83 159.5v6.3451h12.69v-6.3451z" fill="#d8d8d8" fill-rule="evenodd"/>
  <path d="m950.83 159.5v6.3451h12.69v-6.3451z" fill="none" stroke="#000" stroke-linecap="round" stroke-miterlimit="8" stroke-width=".26438px"/>
  <path d="m963.52 159.5v6.3451h12.69v-6.3451z" fill="#d8d8d8" fill-rule="evenodd"/>
  <path d="m963.52 159.5v6.3451h12.69v-6.3451z" fill="none" stroke="#000" stroke-linecap="round" stroke-miterlimit="8" stroke-width=".26438px"/>
  <path d="m976.21 153.16v6.3451h12.69v-6.3451z" fill="#d8d8d8" fill-rule="evenodd"/>
  <path d="m976.21 153.16v6.3451h12.69v-6.3451z" fill="none" stroke="#000" stroke-linecap="round" stroke-miterlimit="8" stroke-width=".26438px"/>
  <path d="m976.21 159.5v6.3451h12.69v-6.3451z" fill="#d8d8d8" fill-rule="evenodd"/>
  <path d="m976.21 159.5v6.3451h12.69v-6.3451z" fill="none" stroke="#000" stroke-linecap="round" stroke-miterlimit="8" stroke-width=".26438px"/>
  <path d="m950.83 165.85v6.3451h12.69v-6.3451z" fill="#d8d8d8" fill-rule="evenodd"/>
  <path d="m950.83 165.85v6.3451h12.69v-6.3451z" fill="none" stroke="#000" stroke-linecap="round" stroke-miterlimit="8" stroke-width=".26438px"/>
  <path d="m963.52 165.85v6.3451h12.69v-6.3451z" fill="#d8d8d8" fill-rule="evenodd"/>
  <path d="m963.52 165.85v6.3451h12.69v-6.3451z" fill="none" stroke="#000" stroke-linecap="round" stroke-miterlimit="8" stroke-width=".26438px"/>
  <path d="m976.21 165.85v6.3451h12.69v-6.3451z" fill="#d8d8d8" fill-rule="evenodd"/>
  <path d="m976.21 165.85v6.3451h12.69v-6.3451z" fill="none" stroke="#000" stroke-linecap="round" stroke-miterlimit="8" stroke-width=".26438px"/>
  <g transform="matrix(.26458 0 0 .26458 874.71 147.26)" clip-path="url(#clipEmfPath6-964)" style="">
   <text transform="translate(102.32 50.681)" fill="#000000" font-family="'Times New Roman'" font-size="16px" font-weight="400" letter-spacing="0px" word-spacing="0px" style="line-height:125%" xml:space="preserve"><tspan x="0" y="0" fill="#000000" font-family="'Times New Roman'" font-size="16px" font-weight="400"><tspan dx="0" dy="0">2</tspan><tspan dx="0" dy="0"/></tspan></text>
  </g>
  <g transform="matrix(.26458 0 0 .26458 874.71 147.26)" clip-path="url(#clipEmfPath7-111)" style="">
   <text transform="translate(273.71 63.951)" fill="#000000" font-family="'Times New Roman'" font-size="16px" font-weight="400" letter-spacing="0px" word-spacing="0px" style="line-height:125%" xml:space="preserve"><tspan x="0" y="0" fill="#000000" font-family="'Times New Roman'" font-size="16px" font-weight="400"><tspan dx="0" dy="0">3</tspan><tspan dx="0" dy="0"/></tspan></text>
  </g>
 </g>
</svg>
