<?xml version="1.0" encoding="UTF-8"?>
<!-- Created with Inkscape (http://www.inkscape.org/) -->
<svg width="47.214mm" height="20.902mm" version="1.1" viewBox="0 0 47.214413 20.901639" xmlns="http://www.w3.org/2000/svg" xmlns:cc="http://creativecommons.org/ns#" xmlns:dc="http://purl.org/dc/elements/1.1/" xmlns:rdf="http://www.w3.org/1999/02/22-rdf-syntax-ns#" xmlns:xlink="http://www.w3.org/1999/xlink">
 <defs>
  <clipPath id="clipEmfPath2-09">
   <path d="m-17.267 68.587h85.854v20.464h-85.854z"/>
  </clipPath>
  <clipPath id="clipEmfPath3-321">
   <path d="m103.76 67.948h85.854v20.464h-85.854z"/>
  </clipPath>
 </defs>
 <metadata>
  <rdf:RDF>
   <cc:Work rdf:about="">
    <dc:format>image/svg+xml</dc:format>
    <dc:type rdf:resource="http://purl.org/dc/dcmitype/StillImage"/>
    <dc:title/>
   </cc:Work>
  </rdf:RDF>
 </metadata>
 <g transform="translate(-1005.9 -147.56)">
  <text x="1056.5116" y="171.10861" fill="#000000" font-family="'Times New Roman'" font-size="4.2333px" font-weight="400" letter-spacing="0px" stroke-width=".26458" word-spacing="0px" style="line-height:5.29166639px" xml:space="preserve"><tspan x="0" y="0" stroke-width=".26458" style="line-height:5.29166639px"><tspan dx="0" dy="0" fill="#000000" font-family="'Times New Roman'" font-size="4.2333px" font-weight="400" stroke-width=".26458" style="line-height:5.29166639px"/></tspan></text>
  <g transform="matrix(.26458 0 0 .26458 1005.8 146.28)" clip-path="url(#clipEmfPath2-09)" style="">
   <text transform="translate(0 83.616)" fill="#000000" font-family="'Times New Roman'" font-size="16px" font-weight="400" letter-spacing="0px" word-spacing="0px" style="line-height:125%" xml:space="preserve"><tspan x="0" y="0" fill="#000000" font-family="'Times New Roman'" font-size="16px" font-weight="400"><tspan dx="0" dy="0">Initia</tspan><tspan dx="0" dy="0">tor</tspan><tspan dx="0" dy="0"/></tspan></text>
  </g>
  <g transform="matrix(.26458 0 0 .26458 1005.8 146.28)" clip-path="url(#clipEmfPath3-321)" style="">
   <text transform="translate(114.79 82.976)" fill="#000000" font-family="'Times New Roman'" font-size="16px" font-weight="400" letter-spacing="0px" word-spacing="0px" style="line-height:125%" xml:space="preserve"><tspan x="0" y="0" fill="#000000" font-family="'Times New Roman'" font-size="16px" font-weight="400"><tspan dx="0" dy="0">Generator</tspan><tspan dx="0" dy="0"/></tspan></text>
  </g>
  <path d="m1009 153.68v7.0167h7.014v-7.0167z" fill="#bfbfbf" fill-rule="evenodd"/>
  <path d="m1009 153.68v7.0167h7.014v-7.0167z" fill="none" stroke="#000" stroke-linecap="round" stroke-miterlimit="8" stroke-width=".26438px"/>
  <path d="m1035.1 157.93v5.0047h5.0074v-5.0047z" fill="#bfbfbf" fill-rule="evenodd"/>
  <path d="m1035.1 157.93v5.0047h5.0074v-5.0047z" fill="none" stroke="#000" stroke-linecap="round" stroke-miterlimit="8" stroke-width=".26438px"/>
  <path d="m1040.1 152.8v5.0047h5.0047v-5.0047z" fill="#bfbfbf" fill-rule="evenodd"/>
  <path d="m1040.1 152.8v5.0047h5.0047v-5.0047z" fill="none" stroke="#000" stroke-linecap="round" stroke-miterlimit="8" stroke-width=".26438px"/>
  <path d="m1045.2 157.82v5.0047h5.0074v-5.0047z" fill="#bfbfbf" fill-rule="evenodd"/>
  <path d="m1045.2 157.82v5.0047h5.0074v-5.0047z" fill="none" stroke="#000" stroke-linecap="round" stroke-miterlimit="8" stroke-width=".26438px"/>
  <path d="m1045.1 147.74v5.0047h5.0048v-5.0047z" fill="#bfbfbf" fill-rule="evenodd"/>
  <path d="m1045.1 147.74v5.0047h5.0048v-5.0047z" fill="none" stroke="#000" stroke-linecap="round" stroke-miterlimit="8" stroke-width=".26438px"/>
  <path d="m1035.1 147.69v5.0047h5.0074v-5.0047z" fill="#bfbfbf" fill-rule="evenodd"/>
  <path d="m1035.1 147.69v5.0047h5.0074v-5.0047z" fill="none" stroke="#000" stroke-linecap="round" stroke-miterlimit="8" stroke-width=".26438px"/>
 </g>
</svg>
