<?xml version="1.0" encoding="UTF-8"?>
<!-- Created with Inkscape (http://www.inkscape.org/) -->
<svg width="53.188mm" height="28.564mm" version="1.1" viewBox="0 0 53.188152 28.564145" xmlns="http://www.w3.org/2000/svg" xmlns:cc="http://creativecommons.org/ns#" xmlns:dc="http://purl.org/dc/elements/1.1/" xmlns:rdf="http://www.w3.org/1999/02/22-rdf-syntax-ns#" xmlns:xlink="http://www.w3.org/1999/xlink">
 <defs>
  <clipPath id="clipEmfPath2-81">
   <path d="m-1.9185 94.168h86.014v20.464h-86.014z"/>
  </clipPath>
  <clipPath id="clipEmfPath3-577">
   <path d="m120.55 93.528h85.854v20.464h-85.854z"/>
  </clipPath>
 </defs>
 <metadata>
  <rdf:RDF>
   <cc:Work rdf:about="">
    <dc:format>image/svg+xml</dc:format>
    <dc:type rdf:resource="http://purl.org/dc/dcmitype/StillImage"/>
    <dc:title/>
   </cc:Work>
  </rdf:RDF>
 </metadata>
 <g transform="translate(-937.64 -115.79)">
  <text x="1019.2583" y="146.15469" fill="#000000" font-family="'Times New Roman'" font-size="4.2333px" font-weight="400" letter-spacing="0px" stroke-width=".26458" word-spacing="0px" style="line-height:125%" xml:space="preserve"><tspan x="0" y="0" stroke-width=".26458"><tspan dx="0" dy="0" fill="#000000" font-family="'Times New Roman'" font-size="4.2333px" font-weight="400" stroke-width=".26458"/></tspan></text>
  <g transform="matrix(.26458 0 0 .26458 936.39 114.56)" clip-path="url(#clipEmfPath2-81)">
   <text transform="translate(20.784 109.2)" fill="#000000" font-family="'Times New Roman'" font-size="16px" font-weight="400" letter-spacing="0px" word-spacing="0px" style="line-height:125%" xml:space="preserve"><tspan x="0" y="0" fill="#000000" font-family="'Times New Roman'" font-size="16px" font-weight="400"><tspan dx="0" dy="0">Step 2</tspan><tspan dx="0" dy="0"/></tspan></text>
  </g>
  <g transform="matrix(.26458 0 0 .26458 936.39 114.56)" clip-path="url(#clipEmfPath3-577)">
   <text transform="translate(143.25 108.56)" fill="#000000" font-family="'Times New Roman'" font-size="16px" font-weight="400" letter-spacing="0px" word-spacing="0px" style="line-height:125%" xml:space="preserve"><tspan x="0" y="0" fill="#000000" font-family="'Times New Roman'" font-size="16px" font-weight="400"><tspan dx="0" dy="0">Step 3</tspan><tspan dx="0" dy="0"/></tspan></text>
  </g>
  <path d="m940.06 124.68-1.4012 1.0179 0.5473 1.6444h1.7105l0.5446-1.6444z" fill="#d8d8d8" fill-rule="evenodd"/>
  <path d="m940.06 124.68-1.4012 1.0179 0.5473 1.6444h1.7105l0.5446-1.6444z" fill="none" stroke="#000" stroke-linecap="round" stroke-miterlimit="8" stroke-width=".26438px"/>
  <path d="m942.88 124.71-1.4013 1.0179 0.5447 1.6418h1.7131l0.5447-1.6418z" fill="#d8d8d8" fill-rule="evenodd"/>
  <path d="m942.88 124.71-1.4013 1.0179 0.5447 1.6418h1.7131l0.5447-1.6418z" fill="none" stroke="#000" stroke-linecap="round" stroke-miterlimit="8" stroke-width=".26438px"/>
  <path d="m939.19 121.98-1.4012 1.0179 0.5446 1.6444h1.7132l0.5447-1.6444z" fill="#d8d8d8" fill-rule="evenodd"/>
  <path d="m939.19 121.98-1.4012 1.0179 0.5446 1.6444h1.7132l0.5447-1.6444z" fill="none" stroke="#000" stroke-linecap="round" stroke-miterlimit="8" stroke-width=".26438px"/>
  <path d="m943.72 122.02-1.4012 1.0179 0.5446 1.6418h1.7132l0.5446-1.6418z" fill="#d8d8d8" fill-rule="evenodd"/>
  <path d="m943.72 122.02-1.4012 1.0179 0.5446 1.6418h1.7132l0.5446-1.6418z" fill="none" stroke="#000" stroke-linecap="round" stroke-miterlimit="8" stroke-width=".26438px"/>
  <path d="m941.47 120.34-1.4091 1.0179 0.5473 1.6444h1.7237l0.5473-1.6444z" fill="#d8d8d8" fill-rule="evenodd"/>
  <path d="m941.47 120.34-1.4091 1.0179 0.5473 1.6444h1.7237l0.5473-1.6444z" fill="none" stroke="#000" stroke-linecap="round" stroke-miterlimit="8" stroke-width=".26438px"/>
  <path d="m942.35 131.75-1.4012 1.0179 0.5446 1.6418h1.7132l0.5446-1.6418z" fill="#d8d8d8" fill-rule="evenodd"/>
  <path d="m942.35 131.75-1.4012 1.0179 0.5446 1.6418h1.7132l0.5446-1.6418z" fill="none" stroke="#000" stroke-linecap="round" stroke-miterlimit="8" stroke-width=".26438px"/>
  <path d="m945.17 131.78-1.4012 1.0179 0.5446 1.6444h1.7132l0.5447-1.6444z" fill="#d8d8d8" fill-rule="evenodd"/>
  <path d="m945.17 131.78-1.4012 1.0179 0.5446 1.6444h1.7132l0.5447-1.6444z" fill="none" stroke="#000" stroke-linecap="round" stroke-miterlimit="8" stroke-width=".26438px"/>
  <path d="m941.48 129.07-1.4012 1.0179 0.5472 1.6444h1.7106l0.5446-1.6444z" fill="#d8d8d8" fill-rule="evenodd"/>
  <path d="m941.48 129.07-1.4012 1.0179 0.5472 1.6444h1.7106l0.5446-1.6444z" fill="none" stroke="#000" stroke-linecap="round" stroke-miterlimit="8" stroke-width=".26438px"/>
  <path d="m946.01 129.1-1.4013 1.0179 0.5447 1.6418h1.7131l0.5447-1.6418z" fill="#d8d8d8" fill-rule="evenodd"/>
  <path d="m946.01 129.1-1.4013 1.0179 0.5447 1.6418h1.7131l0.5447-1.6418z" fill="none" stroke="#000" stroke-linecap="round" stroke-miterlimit="8" stroke-width=".26438px"/>
  <path d="m943.77 127.43-1.4118 1.0179 0.5499 1.6444h1.7238l0.5473-1.6444z" fill="#d8d8d8" fill-rule="evenodd"/>
  <path d="m943.77 127.43-1.4118 1.0179 0.5499 1.6444h1.7238l0.5473-1.6444z" fill="none" stroke="#000" stroke-linecap="round" stroke-miterlimit="8" stroke-width=".26438px"/>
  <path d="m949.63 131.8-1.4012 1.0179 0.5472 1.6418h1.7106l0.5446-1.6418z" fill="#d8d8d8" fill-rule="evenodd"/>
  <path d="m949.63 131.8-1.4012 1.0179 0.5472 1.6418h1.7106l0.5446-1.6418z" fill="none" stroke="#000" stroke-linecap="round" stroke-miterlimit="8" stroke-width=".26438px"/>
  <path d="m952.45 131.83-1.4012 1.0179 0.5446 1.6444h1.7132l0.5446-1.6444z" fill="#d8d8d8" fill-rule="evenodd"/>
  <path d="m952.45 131.83-1.4012 1.0179 0.5446 1.6444h1.7132l0.5446-1.6444z" fill="none" stroke="#000" stroke-linecap="round" stroke-miterlimit="8" stroke-width=".26438px"/>
  <path d="m948.76 129.12-1.4012 1.0179 0.5446 1.6444h1.7132l0.5446-1.6444z" fill="#d8d8d8" fill-rule="evenodd"/>
  <path d="m948.76 129.12-1.4012 1.0179 0.5446 1.6444h1.7132l0.5446-1.6444z" fill="none" stroke="#000" stroke-linecap="round" stroke-miterlimit="8" stroke-width=".26438px"/>
  <path d="m953.29 129.16-1.4012 1.0179 0.5447 1.6418h1.7131l0.5447-1.6418z" fill="#d8d8d8" fill-rule="evenodd"/>
  <path d="m953.29 129.16-1.4012 1.0179 0.5447 1.6418h1.7131l0.5447-1.6418z" fill="none" stroke="#000" stroke-linecap="round" stroke-miterlimit="8" stroke-width=".26438px"/>
  <path d="m951.05 127.48-1.4091 1.0179 0.5472 1.6444h1.7238l0.5473-1.6444z" fill="#d8d8d8" fill-rule="evenodd"/>
  <path d="m951.05 127.48-1.4091 1.0179 0.5472 1.6444h1.7238l0.5473-1.6444z" fill="none" stroke="#000" stroke-linecap="round" stroke-miterlimit="8" stroke-width=".26438px"/>
  <path d="m951.9 124.78-1.4013 1.0179 0.5473 1.6444h1.7106l0.5446-1.6444z" fill="#d8d8d8" fill-rule="evenodd"/>
  <path d="m951.9 124.78-1.4013 1.0179 0.5473 1.6444h1.7106l0.5446-1.6444z" fill="none" stroke="#000" stroke-linecap="round" stroke-miterlimit="8" stroke-width=".26438px"/>
  <path d="m954.72 124.82-1.4012 1.0179 0.5446 1.6418h1.7132l0.5446-1.6418z" fill="#d8d8d8" fill-rule="evenodd"/>
  <path d="m954.72 124.82-1.4012 1.0179 0.5446 1.6418h1.7132l0.5446-1.6418z" fill="none" stroke="#000" stroke-linecap="round" stroke-miterlimit="8" stroke-width=".26438px"/>
  <path d="m951.04 122.1-1.4012 1.0179 0.5446 1.6444h1.7132l0.5446-1.6444z" fill="#d8d8d8" fill-rule="evenodd"/>
  <path d="m951.04 122.1-1.4012 1.0179 0.5446 1.6444h1.7132l0.5446-1.6444z" fill="none" stroke="#000" stroke-linecap="round" stroke-miterlimit="8" stroke-width=".26438px"/>
  <path d="m955.57 122.14-1.4012 1.0179 0.5446 1.6444h1.7132l0.5446-1.6444z" fill="#d8d8d8" fill-rule="evenodd"/>
  <path d="m955.57 122.14-1.4012 1.0179 0.5446 1.6444h1.7132l0.5446-1.6444z" fill="none" stroke="#000" stroke-linecap="round" stroke-miterlimit="8" stroke-width=".26438px"/>
  <path d="m953.32 120.46-1.4092 1.0179 0.5473 1.6444h1.7238l0.5472-1.6444z" fill="#d8d8d8" fill-rule="evenodd"/>
  <path d="m953.32 120.46-1.4092 1.0179 0.5473 1.6444h1.7238l0.5472-1.6444z" fill="none" stroke="#000" stroke-linecap="round" stroke-miterlimit="8" stroke-width=".26438px"/>
  <path d="m946.01 120.39-1.4013 1.0179 0.5447 1.6444h1.7131l0.5447-1.6444z" fill="#d8d8d8" fill-rule="evenodd"/>
  <path d="m946.01 120.39-1.4013 1.0179 0.5447 1.6444h1.7131l0.5447-1.6444z" fill="none" stroke="#000" stroke-linecap="round" stroke-miterlimit="8" stroke-width=".26438px"/>
  <path d="m948.83 120.43-1.4012 1.0179 0.5473 1.6418h1.7105l0.5447-1.6418z" fill="#d8d8d8" fill-rule="evenodd"/>
  <path d="m948.83 120.43-1.4012 1.0179 0.5473 1.6418h1.7105l0.5447-1.6418z" fill="none" stroke="#000" stroke-linecap="round" stroke-miterlimit="8" stroke-width=".26438px"/>
  <path d="m945.15 117.72-1.4012 1.0179 0.5446 1.6444h1.7132l0.5446-1.6444z" fill="#d8d8d8" fill-rule="evenodd"/>
  <path d="m945.15 117.72-1.4012 1.0179 0.5446 1.6444h1.7132l0.5446-1.6444z" fill="none" stroke="#000" stroke-linecap="round" stroke-miterlimit="8" stroke-width=".26438px"/>
  <path d="m949.68 117.75-1.4013 1.0179 0.5473 1.6444h1.7106l0.5446-1.6444z" fill="#d8d8d8" fill-rule="evenodd"/>
  <path d="m949.68 117.75-1.4013 1.0179 0.5473 1.6444h1.7106l0.5446-1.6444z" fill="none" stroke="#000" stroke-linecap="round" stroke-miterlimit="8" stroke-width=".26438px"/>
  <path d="m947.43 116.08-1.4091 1.0179 0.5499 1.6444h1.7211l0.5499-1.6444z" fill="#d8d8d8" fill-rule="evenodd"/>
  <path d="m947.43 116.08-1.4091 1.0179 0.5499 1.6444h1.7211l0.5499-1.6444z" fill="none" stroke="#000" stroke-linecap="round" stroke-miterlimit="8" stroke-width=".26438px"/>
  <path d="m972.71 132.38-0.5975 0.43094 0.2327 0.69532h0.7323l0.2327-0.69532z" fill="#d8d8d8" fill-rule="evenodd"/>
  <path d="m972.71 132.38-0.5975 0.43094 0.2327 0.69532h0.7323l0.2327-0.69532z" fill="none" stroke="#000" stroke-linecap="round" stroke-miterlimit="8" stroke-width=".26438px"/>
  <path d="m973.91 132.4-0.6001 0.43358 0.2326 0.69532h0.7323l0.2327-0.69532z" fill="#d8d8d8" fill-rule="evenodd"/>
  <path d="m973.91 132.4-0.6001 0.43358 0.2326 0.69532h0.7323l0.2327-0.69532z" fill="none" stroke="#000" stroke-linecap="round" stroke-miterlimit="8" stroke-width=".26438px"/>
  <path d="m972.34 131.23-0.5975 0.43359 0.2326 0.69532h0.7324l0.2326-0.69532z" fill="#d8d8d8" fill-rule="evenodd"/>
  <path d="m972.34 131.23-0.5975 0.43359 0.2326 0.69532h0.7324l0.2326-0.69532z" fill="none" stroke="#000" stroke-linecap="round" stroke-miterlimit="8" stroke-width=".26438px"/>
  <path d="m974.28 131.25-0.6001 0.43094 0.2326 0.69797h0.7324l0.2326-0.69797z" fill="#d8d8d8" fill-rule="evenodd"/>
  <path d="m974.28 131.25-0.6001 0.43094 0.2326 0.69797h0.7324l0.2326-0.69797z" fill="none" stroke="#000" stroke-linecap="round" stroke-miterlimit="8" stroke-width=".26438px"/>
  <path d="m973.31 130.53-0.6002 0.43094 0.2353 0.69532h0.7323l0.2327-0.69532z" fill="#d8d8d8" fill-rule="evenodd"/>
  <path d="m973.31 130.53-0.6002 0.43094 0.2353 0.69532h0.7323l0.2327-0.69532z" fill="none" stroke="#000" stroke-linecap="round" stroke-miterlimit="8" stroke-width=".26438px"/>
  <path d="m973.69 135.41-0.6002 0.43358 0.2327 0.69532h0.7323l0.2327-0.69532z" fill="#d8d8d8" fill-rule="evenodd"/>
  <path d="m973.69 135.41-0.6002 0.43358 0.2327 0.69532h0.7323l0.2327-0.69532z" fill="none" stroke="#000" stroke-linecap="round" stroke-miterlimit="8" stroke-width=".26438px"/>
  <path d="m974.89 135.43-0.6001 0.43094 0.2353 0.69797h0.7323l0.2327-0.69797z" fill="#d8d8d8" fill-rule="evenodd"/>
  <path d="m974.89 135.43-0.6001 0.43094 0.2353 0.69797h0.7323l0.2327-0.69797z" fill="none" stroke="#000" stroke-linecap="round" stroke-miterlimit="8" stroke-width=".26438px"/>
  <path d="m973.32 134.27-0.6002 0.43094 0.2327 0.69796h0.7323l0.2327-0.69796z" fill="#d8d8d8" fill-rule="evenodd"/>
  <path d="m973.32 134.27-0.6002 0.43094 0.2327 0.69796h0.7323l0.2327-0.69796z" fill="none" stroke="#000" stroke-linecap="round" stroke-miterlimit="8" stroke-width=".26438px"/>
  <path d="m975.24 134.28-0.5975 0.43094 0.2326 0.69532h0.7324l0.2326-0.69532z" fill="#d8d8d8" fill-rule="evenodd"/>
  <path d="m975.24 134.28-0.5975 0.43094 0.2326 0.69532h0.7324l0.2326-0.69532z" fill="none" stroke="#000" stroke-linecap="round" stroke-miterlimit="8" stroke-width=".26438px"/>
  <path d="m974.29 133.56-0.5975 0.43359 0.2326 0.69532h0.7324l0.2326-0.69532z" fill="#d8d8d8" fill-rule="evenodd"/>
  <path d="m974.29 133.56-0.5975 0.43359 0.2326 0.69532h0.7324l0.2326-0.69532z" fill="none" stroke="#000" stroke-linecap="round" stroke-miterlimit="8" stroke-width=".26438px"/>
  <path d="m976.8 135.43-0.6002 0.43094 0.2353 0.69797h0.7324l0.2326-0.69797z" fill="#d8d8d8" fill-rule="evenodd"/>
  <path d="m976.8 135.43-0.6002 0.43094 0.2353 0.69797h0.7324l0.2326-0.69797z" fill="none" stroke="#000" stroke-linecap="round" stroke-miterlimit="8" stroke-width=".26438px"/>
  <path d="m977.99 135.45-0.5975 0.43094 0.2327 0.69532h0.7323l0.2327-0.69532z" fill="#d8d8d8" fill-rule="evenodd"/>
  <path d="m977.99 135.45-0.5975 0.43094 0.2327 0.69532h0.7323l0.2327-0.69532z" fill="none" stroke="#000" stroke-linecap="round" stroke-miterlimit="8" stroke-width=".26438px"/>
  <path d="m976.43 134.28-0.6001 0.43094 0.2353 0.69532h0.7323l0.2327-0.69532z" fill="#d8d8d8" fill-rule="evenodd"/>
  <path d="m976.43 134.28-0.6001 0.43094 0.2353 0.69532h0.7323l0.2327-0.69532z" fill="none" stroke="#000" stroke-linecap="round" stroke-miterlimit="8" stroke-width=".26438px"/>
  <path d="m978.36 134.3-0.5975 0.43358 0.2326 0.69532h0.7323l0.2327-0.69532z" fill="#d8d8d8" fill-rule="evenodd"/>
  <path d="m978.36 134.3-0.5975 0.43358 0.2326 0.69532h0.7323l0.2327-0.69532z" fill="none" stroke="#000" stroke-linecap="round" stroke-miterlimit="8" stroke-width=".26438px"/>
  <path d="m977.4 133.58-0.6001 0.43094 0.2326 0.69796h0.7324l0.2326-0.69796z" fill="#d8d8d8" fill-rule="evenodd"/>
  <path d="m977.4 133.58-0.6001 0.43094 0.2326 0.69796h0.7324l0.2326-0.69796z" fill="none" stroke="#000" stroke-linecap="round" stroke-miterlimit="8" stroke-width=".26438px"/>
  <path d="m977.77 132.43-0.6002 0.43094 0.2327 0.69532h0.7323l0.2327-0.69532z" fill="#d8d8d8" fill-rule="evenodd"/>
  <path d="m977.77 132.43-0.6002 0.43094 0.2327 0.69532h0.7323l0.2327-0.69532z" fill="none" stroke="#000" stroke-linecap="round" stroke-miterlimit="8" stroke-width=".26438px"/>
  <path d="m978.96 132.45-0.6001 0.43359 0.2353 0.69532h0.7323l0.2326-0.69532z" fill="#d8d8d8" fill-rule="evenodd"/>
  <path d="m978.96 132.45-0.6001 0.43359 0.2353 0.69532h0.7323l0.2326-0.69532z" fill="none" stroke="#000" stroke-linecap="round" stroke-miterlimit="8" stroke-width=".26438px"/>
  <path d="m977.4 131.29-0.6001 0.43358 0.2326 0.69532h0.7324l0.2326-0.69532z" fill="#d8d8d8" fill-rule="evenodd"/>
  <path d="m977.4 131.29-0.6001 0.43358 0.2326 0.69532h0.7324l0.2326-0.69532z" fill="none" stroke="#000" stroke-linecap="round" stroke-miterlimit="8" stroke-width=".26438px"/>
  <path d="m979.33 131.3-0.6001 0.43094 0.2353 0.69796h0.7323l0.2327-0.69796z" fill="#d8d8d8" fill-rule="evenodd"/>
  <path d="m979.33 131.3-0.6001 0.43094 0.2353 0.69796h0.7323l0.2327-0.69796z" fill="none" stroke="#000" stroke-linecap="round" stroke-miterlimit="8" stroke-width=".26438px"/>
  <path d="m978.36 130.58-0.5975 0.43094 0.2326 0.69532h0.7323l0.2327-0.69532z" fill="#d8d8d8" fill-rule="evenodd"/>
  <path d="m978.36 130.58-0.5975 0.43094 0.2326 0.69532h0.7323l0.2327-0.69532z" fill="none" stroke="#000" stroke-linecap="round" stroke-miterlimit="8" stroke-width=".26438px"/>
  <path d="m975.24 130.56-0.5975 0.43094 0.2326 0.69797h0.7324l0.2326-0.69797z" fill="#d8d8d8" fill-rule="evenodd"/>
  <path d="m975.24 130.56-0.5975 0.43094 0.2326 0.69797h0.7324l0.2326-0.69797z" fill="none" stroke="#000" stroke-linecap="round" stroke-miterlimit="8" stroke-width=".26438px"/>
  <path d="m976.44 130.58-0.6002 0.43094 0.2327 0.69532h0.7323l0.2326-0.69532z" fill="#d8d8d8" fill-rule="evenodd"/>
  <path d="m976.44 130.58-0.6002 0.43094 0.2327 0.69532h0.7323l0.2326-0.69532z" fill="none" stroke="#000" stroke-linecap="round" stroke-miterlimit="8" stroke-width=".26438px"/>
  <path d="m974.87 129.42-0.5975 0.43094 0.2327 0.69532h0.7323l0.2327-0.69532z" fill="#d8d8d8" fill-rule="evenodd"/>
  <path d="m974.87 129.42-0.5975 0.43094 0.2327 0.69532h0.7323l0.2327-0.69532z" fill="none" stroke="#000" stroke-linecap="round" stroke-miterlimit="8" stroke-width=".26438px"/>
  <path d="m976.81 129.44-0.6002 0.43358 0.2327 0.69532h0.7323l0.2327-0.69532z" fill="#d8d8d8" fill-rule="evenodd"/>
  <path d="m976.81 129.44-0.6002 0.43358 0.2327 0.69532h0.7323l0.2327-0.69532z" fill="none" stroke="#000" stroke-linecap="round" stroke-miterlimit="8" stroke-width=".26438px"/>
  <path d="m975.84 128.71-0.6001 0.43094 0.2353 0.69796h0.7323l0.2327-0.69796z" fill="#d8d8d8" fill-rule="evenodd"/>
  <path d="m975.84 128.71-0.6001 0.43094 0.2353 0.69796h0.7323l0.2327-0.69796z" fill="none" stroke="#000" stroke-linecap="round" stroke-miterlimit="8" stroke-width=".26438px"/>
  <path d="m980.92 132.36-0.6001 0.43094 0.2353 0.69796h0.7323l0.2327-0.69796z" fill="#d8d8d8" fill-rule="evenodd"/>
  <path d="m980.92 132.36-0.6001 0.43094 0.2353 0.69796h0.7323l0.2327-0.69796z" fill="none" stroke="#000" stroke-linecap="round" stroke-miterlimit="8" stroke-width=".26438px"/>
  <path d="m982.12 132.38-0.5975 0.43094 0.2326 0.69532h0.7323l0.2327-0.69532z" fill="#d8d8d8" fill-rule="evenodd"/>
  <path d="m982.12 132.38-0.5975 0.43094 0.2326 0.69532h0.7323l0.2327-0.69532z" fill="none" stroke="#000" stroke-linecap="round" stroke-miterlimit="8" stroke-width=".26438px"/>
  <path d="m980.55 131.22-0.6002 0.43094 0.2353 0.69532h0.7324l0.2326-0.69532z" fill="#d8d8d8" fill-rule="evenodd"/>
  <path d="m980.55 131.22-0.6002 0.43094 0.2353 0.69532h0.7324l0.2326-0.69532z" fill="none" stroke="#000" stroke-linecap="round" stroke-miterlimit="8" stroke-width=".26438px"/>
  <path d="m982.47 131.23-0.6001 0.43359 0.2326 0.69532h0.7324l0.2326-0.69532z" fill="#d8d8d8" fill-rule="evenodd"/>
  <path d="m982.47 131.23-0.6001 0.43359 0.2326 0.69532h0.7324l0.2326-0.69532z" fill="none" stroke="#000" stroke-linecap="round" stroke-miterlimit="8" stroke-width=".26438px"/>
  <path d="m981.52 130.51-0.6002 0.43094 0.2327 0.69796h0.7323l0.2327-0.69796z" fill="#d8d8d8" fill-rule="evenodd"/>
  <path d="m981.52 130.51-0.6002 0.43094 0.2327 0.69796h0.7323l0.2327-0.69796z" fill="none" stroke="#000" stroke-linecap="round" stroke-miterlimit="8" stroke-width=".26438px"/>
  <path d="m981.91 135.39-0.5975 0.43094 0.2326 0.69532h0.7323l0.2327-0.69532z" fill="#d8d8d8" fill-rule="evenodd"/>
  <path d="m981.91 135.39-0.5975 0.43094 0.2326 0.69532h0.7323l0.2327-0.69532z" fill="none" stroke="#000" stroke-linecap="round" stroke-miterlimit="8" stroke-width=".26438px"/>
  <path d="m983.11 135.41-0.6001 0.43358 0.2327 0.69532h0.7323l0.2326-0.69532z" fill="#d8d8d8" fill-rule="evenodd"/>
  <path d="m983.11 135.41-0.6001 0.43358 0.2327 0.69532h0.7323l0.2326-0.69532z" fill="none" stroke="#000" stroke-linecap="round" stroke-miterlimit="8" stroke-width=".26438px"/>
  <path d="m981.54 134.25-0.5975 0.43359 0.2327 0.69532h0.7323l0.2327-0.69532z" fill="#d8d8d8" fill-rule="evenodd"/>
  <path d="m981.54 134.25-0.5975 0.43359 0.2327 0.69532h0.7323l0.2327-0.69532z" fill="none" stroke="#000" stroke-linecap="round" stroke-miterlimit="8" stroke-width=".26438px"/>
  <path d="m983.46 134.27-0.6002 0.43094 0.2353 0.69796h0.7324l0.2326-0.69796z" fill="#d8d8d8" fill-rule="evenodd"/>
  <path d="m983.46 134.27-0.6002 0.43094 0.2353 0.69796h0.7324l0.2326-0.69796z" fill="none" stroke="#000" stroke-linecap="round" stroke-miterlimit="8" stroke-width=".26438px"/>
  <path d="m982.51 133.54-0.6001 0.43094 0.2353 0.69532h0.7323l0.2326-0.69532z" fill="#d8d8d8" fill-rule="evenodd"/>
  <path d="m982.51 133.54-0.6001 0.43094 0.2353 0.69532h0.7323l0.2326-0.69532z" fill="none" stroke="#000" stroke-linecap="round" stroke-miterlimit="8" stroke-width=".26438px"/>
  <path d="m985.01 135.41-0.6002 0.43358 0.2327 0.69532h0.7323l0.2327-0.69532z" fill="#d8d8d8" fill-rule="evenodd"/>
  <path d="m985.01 135.41-0.6002 0.43358 0.2327 0.69532h0.7323l0.2327-0.69532z" fill="none" stroke="#000" stroke-linecap="round" stroke-miterlimit="8" stroke-width=".26438px"/>
  <path d="m986.21 135.43-0.6001 0.43094 0.2353 0.69797h0.7323l0.2327-0.69797z" fill="#d8d8d8" fill-rule="evenodd"/>
  <path d="m986.21 135.43-0.6001 0.43094 0.2353 0.69797h0.7323l0.2327-0.69797z" fill="none" stroke="#000" stroke-linecap="round" stroke-miterlimit="8" stroke-width=".26438px"/>
  <path d="m984.64 134.27-0.6001 0.43094 0.2327 0.69796h0.7323l0.2326-0.69796z" fill="#d8d8d8" fill-rule="evenodd"/>
  <path d="m984.64 134.27-0.6001 0.43094 0.2327 0.69796h0.7323l0.2326-0.69796z" fill="none" stroke="#000" stroke-linecap="round" stroke-miterlimit="8" stroke-width=".26438px"/>
  <path d="m986.56 134.28-0.5975 0.43094 0.2327 0.69532h0.7323l0.2327-0.69532z" fill="#d8d8d8" fill-rule="evenodd"/>
  <path d="m986.56 134.28-0.5975 0.43094 0.2327 0.69532h0.7323l0.2327-0.69532z" fill="none" stroke="#000" stroke-linecap="round" stroke-miterlimit="8" stroke-width=".26438px"/>
  <path d="m985.61 133.56-0.5975 0.43359 0.2326 0.69532h0.7324l0.2326-0.69532z" fill="#d8d8d8" fill-rule="evenodd"/>
  <path d="m985.61 133.56-0.5975 0.43359 0.2326 0.69532h0.7324l0.2326-0.69532z" fill="none" stroke="#000" stroke-linecap="round" stroke-miterlimit="8" stroke-width=".26438px"/>
  <path d="m985.98 132.41-0.5975 0.43095 0.2327 0.69796h0.7323l0.2327-0.69796z" fill="#d8d8d8" fill-rule="evenodd"/>
  <path d="m985.98 132.41-0.5975 0.43095 0.2327 0.69796h0.7323l0.2327-0.69796z" fill="none" stroke="#000" stroke-linecap="round" stroke-miterlimit="8" stroke-width=".26438px"/>
  <path d="m987.18 132.43-0.6001 0.43094 0.2326 0.69532h0.7323l0.2327-0.69532z" fill="#d8d8d8" fill-rule="evenodd"/>
  <path d="m987.18 132.43-0.6001 0.43094 0.2326 0.69532h0.7323l0.2327-0.69532z" fill="none" stroke="#000" stroke-linecap="round" stroke-miterlimit="8" stroke-width=".26438px"/>
  <path d="m985.61 131.27-0.5975 0.43094 0.2326 0.69532h0.7324l0.2326-0.69532z" fill="#d8d8d8" fill-rule="evenodd"/>
  <path d="m985.61 131.27-0.5975 0.43094 0.2326 0.69532h0.7324l0.2326-0.69532z" fill="none" stroke="#000" stroke-linecap="round" stroke-miterlimit="8" stroke-width=".26438px"/>
  <path d="m987.53 131.29-0.6001 0.43358 0.2353 0.69532h0.7323l0.2327-0.69532z" fill="#d8d8d8" fill-rule="evenodd"/>
  <path d="m987.53 131.29-0.6001 0.43358 0.2353 0.69532h0.7323l0.2327-0.69532z" fill="none" stroke="#000" stroke-linecap="round" stroke-miterlimit="8" stroke-width=".26438px"/>
  <path d="m986.58 130.56-0.6002 0.43094 0.2353 0.69797h0.7323l0.2327-0.69797z" fill="#d8d8d8" fill-rule="evenodd"/>
  <path d="m986.58 130.56-0.6002 0.43094 0.2353 0.69797h0.7323l0.2327-0.69797z" fill="none" stroke="#000" stroke-linecap="round" stroke-miterlimit="8" stroke-width=".26438px"/>
  <path d="m983.46 130.55-0.6002 0.43359 0.2353 0.69532h0.7324l0.2326-0.69532z" fill="#d8d8d8" fill-rule="evenodd"/>
  <path d="m983.46 130.55-0.6002 0.43359 0.2353 0.69532h0.7324l0.2326-0.69532z" fill="none" stroke="#000" stroke-linecap="round" stroke-miterlimit="8" stroke-width=".26438px"/>
  <path d="m984.66 130.56-0.5975 0.43094 0.2327 0.69797h0.7323l0.2327-0.69797z" fill="#d8d8d8" fill-rule="evenodd"/>
  <path d="m984.66 130.56-0.5975 0.43094 0.2327 0.69797h0.7323l0.2327-0.69797z" fill="none" stroke="#000" stroke-linecap="round" stroke-miterlimit="8" stroke-width=".26438px"/>
  <path d="m983.09 129.4-0.6001 0.43094 0.2353 0.69796h0.7323l0.2327-0.69796z" fill="#d8d8d8" fill-rule="evenodd"/>
  <path d="m983.09 129.4-0.6001 0.43094 0.2353 0.69796h0.7323l0.2327-0.69796z" fill="none" stroke="#000" stroke-linecap="round" stroke-miterlimit="8" stroke-width=".26438px"/>
  <path d="m985.01 129.42-0.6002 0.43094 0.2327 0.69532h0.7323l0.2327-0.69532z" fill="#d8d8d8" fill-rule="evenodd"/>
  <path d="m985.01 129.42-0.6002 0.43094 0.2327 0.69532h0.7323l0.2327-0.69532z" fill="none" stroke="#000" stroke-linecap="round" stroke-miterlimit="8" stroke-width=".26438px"/>
  <path d="m984.06 128.7-0.6001 0.43358 0.2326 0.69533h0.7324l0.2326-0.69533z" fill="#d8d8d8" fill-rule="evenodd"/>
  <path d="m984.06 128.7-0.6001 0.43358 0.2326 0.69533h0.7324l0.2326-0.69533z" fill="none" stroke="#000" stroke-linecap="round" stroke-miterlimit="8" stroke-width=".26438px"/>
  <path d="m970.21 124.48-0.6002 0.43094 0.2327 0.69796h0.7323l0.2327-0.69796z" fill="#d8d8d8" fill-rule="evenodd"/>
  <path d="m970.21 124.48-0.6002 0.43094 0.2327 0.69796h0.7323l0.2327-0.69796z" fill="none" stroke="#000" stroke-linecap="round" stroke-miterlimit="8" stroke-width=".26438px"/>
  <path d="m971.4 124.5-0.6001 0.43094 0.2353 0.69532h0.7323l0.2327-0.69532z" fill="#d8d8d8" fill-rule="evenodd"/>
  <path d="m971.4 124.5-0.6001 0.43094 0.2353 0.69532h0.7323l0.2327-0.69532z" fill="none" stroke="#000" stroke-linecap="round" stroke-miterlimit="8" stroke-width=".26438px"/>
  <path d="m969.83 123.34-0.6001 0.43094 0.2326 0.69532h0.7324l0.2326-0.69532z" fill="#d8d8d8" fill-rule="evenodd"/>
  <path d="m969.83 123.34-0.6001 0.43094 0.2326 0.69532h0.7324l0.2326-0.69532z" fill="none" stroke="#000" stroke-linecap="round" stroke-miterlimit="8" stroke-width=".26438px"/>
  <path d="m971.75 123.35-0.5975 0.43359 0.2327 0.69532h0.7323l0.2327-0.69532z" fill="#d8d8d8" fill-rule="evenodd"/>
  <path d="m971.75 123.35-0.5975 0.43359 0.2327 0.69532h0.7323l0.2327-0.69532z" fill="none" stroke="#000" stroke-linecap="round" stroke-miterlimit="8" stroke-width=".26438px"/>
  <path d="m970.8 122.63-0.5975 0.43094 0.2326 0.69796h0.7324l0.2326-0.69796z" fill="#d8d8d8" fill-rule="evenodd"/>
  <path d="m970.8 122.63-0.5975 0.43094 0.2326 0.69796h0.7324l0.2326-0.69796z" fill="none" stroke="#000" stroke-linecap="round" stroke-miterlimit="8" stroke-width=".26438px"/>
  <path d="m971.19 127.52-0.6001 0.43094 0.2353 0.69532h0.7323l0.2327-0.69532z" fill="#d8d8d8" fill-rule="evenodd"/>
  <path d="m971.19 127.52-0.6001 0.43094 0.2353 0.69532h0.7323l0.2327-0.69532z" fill="none" stroke="#000" stroke-linecap="round" stroke-miterlimit="8" stroke-width=".26438px"/>
  <path d="m972.39 127.53-0.5975 0.43358 0.2326 0.69532h0.7323l0.2327-0.69532z" fill="#d8d8d8" fill-rule="evenodd"/>
  <path d="m972.39 127.53-0.5975 0.43358 0.2326 0.69532h0.7323l0.2327-0.69532z" fill="none" stroke="#000" stroke-linecap="round" stroke-miterlimit="8" stroke-width=".26438px"/>
  <path d="m970.82 126.37-0.6002 0.43359 0.2353 0.69532h0.7324l0.2326-0.69532z" fill="#d8d8d8" fill-rule="evenodd"/>
  <path d="m970.82 126.37-0.6002 0.43359 0.2353 0.69532h0.7324l0.2326-0.69532z" fill="none" stroke="#000" stroke-linecap="round" stroke-miterlimit="8" stroke-width=".26438px"/>
  <path d="m972.74 126.39-0.6001 0.43094 0.2326 0.69796h0.7324l0.2326-0.69796z" fill="#d8d8d8" fill-rule="evenodd"/>
  <path d="m972.74 126.39-0.6001 0.43094 0.2326 0.69796h0.7324l0.2326-0.69796z" fill="none" stroke="#000" stroke-linecap="round" stroke-miterlimit="8" stroke-width=".26438px"/>
  <path d="m971.79 125.67-0.6002 0.43094 0.2327 0.69532h0.7323l0.2327-0.69532z" fill="#d8d8d8" fill-rule="evenodd"/>
  <path d="m971.79 125.67-0.6002 0.43094 0.2327 0.69532h0.7323l0.2327-0.69532z" fill="none" stroke="#000" stroke-linecap="round" stroke-miterlimit="8" stroke-width=".26438px"/>
  <path d="m974.29 127.53-0.5975 0.43358 0.2326 0.69532h0.7324l0.2326-0.69532z" fill="#d8d8d8" fill-rule="evenodd"/>
  <path d="m974.29 127.53-0.5975 0.43358 0.2326 0.69532h0.7324l0.2326-0.69532z" fill="none" stroke="#000" stroke-linecap="round" stroke-miterlimit="8" stroke-width=".26438px"/>
  <path d="m975.49 127.55-0.6002 0.43094 0.2327 0.69797h0.7323l0.2327-0.69797z" fill="#d8d8d8" fill-rule="evenodd"/>
  <path d="m975.49 127.55-0.6002 0.43094 0.2327 0.69797h0.7323l0.2327-0.69797z" fill="none" stroke="#000" stroke-linecap="round" stroke-miterlimit="8" stroke-width=".26438px"/>
  <path d="m973.92 126.39-0.5975 0.43094 0.2326 0.69796h0.7323l0.2327-0.69796z" fill="#d8d8d8" fill-rule="evenodd"/>
  <path d="m973.92 126.39-0.5975 0.43094 0.2326 0.69796h0.7323l0.2327-0.69796z" fill="none" stroke="#000" stroke-linecap="round" stroke-miterlimit="8" stroke-width=".26438px"/>
  <path d="m975.84 126.41-0.6001 0.43094 0.2353 0.69532h0.7323l0.2327-0.69532z" fill="#d8d8d8" fill-rule="evenodd"/>
  <path d="m975.84 126.41-0.6001 0.43094 0.2353 0.69532h0.7323l0.2327-0.69532z" fill="none" stroke="#000" stroke-linecap="round" stroke-miterlimit="8" stroke-width=".26438px"/>
  <path d="m974.89 125.68-0.6001 0.43359 0.2353 0.69532h0.7323l0.2327-0.69532z" fill="#d8d8d8" fill-rule="evenodd"/>
  <path d="m974.89 125.68-0.6001 0.43359 0.2353 0.69532h0.7323l0.2327-0.69532z" fill="none" stroke="#000" stroke-linecap="round" stroke-miterlimit="8" stroke-width=".26438px"/>
  <path d="m975.26 124.54-0.6002 0.43094 0.2353 0.69796h0.7324l0.2326-0.69796z" fill="#d8d8d8" fill-rule="evenodd"/>
  <path d="m975.26 124.54-0.6002 0.43094 0.2353 0.69796h0.7324l0.2326-0.69796z" fill="none" stroke="#000" stroke-linecap="round" stroke-miterlimit="8" stroke-width=".26438px"/>
  <path d="m976.46 124.55-0.5975 0.43094 0.2327 0.69532h0.7323l0.2327-0.69532z" fill="#d8d8d8" fill-rule="evenodd"/>
  <path d="m976.46 124.55-0.5975 0.43094 0.2327 0.69532h0.7323l0.2327-0.69532z" fill="none" stroke="#000" stroke-linecap="round" stroke-miterlimit="8" stroke-width=".26438px"/>
  <path d="m974.89 123.39-0.6001 0.43094 0.2353 0.69532h0.7323l0.2327-0.69532z" fill="#d8d8d8" fill-rule="evenodd"/>
  <path d="m974.89 123.39-0.6001 0.43094 0.2353 0.69532h0.7323l0.2327-0.69532z" fill="none" stroke="#000" stroke-linecap="round" stroke-miterlimit="8" stroke-width=".26438px"/>
  <path d="m976.81 123.41-0.6002 0.43358 0.2327 0.69533h0.7323l0.2327-0.69533z" fill="#d8d8d8" fill-rule="evenodd"/>
  <path d="m976.81 123.41-0.6002 0.43358 0.2327 0.69533h0.7323l0.2327-0.69533z" fill="none" stroke="#000" stroke-linecap="round" stroke-miterlimit="8" stroke-width=".26438px"/>
  <path d="m975.86 122.69-0.6001 0.43094 0.2326 0.69797h0.7324l0.2326-0.69797z" fill="#d8d8d8" fill-rule="evenodd"/>
  <path d="m975.86 122.69-0.6001 0.43094 0.2326 0.69797h0.7324l0.2326-0.69797z" fill="none" stroke="#000" stroke-linecap="round" stroke-miterlimit="8" stroke-width=".26438px"/>
  <path d="m972.74 122.67-0.6001 0.43359 0.2326 0.69532h0.7324l0.2326-0.69532z" fill="#d8d8d8" fill-rule="evenodd"/>
  <path d="m972.74 122.67-0.6001 0.43359 0.2326 0.69532h0.7324l0.2326-0.69532z" fill="none" stroke="#000" stroke-linecap="round" stroke-miterlimit="8" stroke-width=".26438px"/>
  <path d="m973.94 122.69-0.6002 0.43094 0.2353 0.69797h0.7324l0.2326-0.69797z" fill="#d8d8d8" fill-rule="evenodd"/>
  <path d="m973.94 122.69-0.6002 0.43094 0.2353 0.69797h0.7324l0.2326-0.69797z" fill="none" stroke="#000" stroke-linecap="round" stroke-miterlimit="8" stroke-width=".26438px"/>
  <path d="m972.37 121.52-0.6002 0.43094 0.2327 0.69796h0.7323l0.2327-0.69796z" fill="#d8d8d8" fill-rule="evenodd"/>
  <path d="m972.37 121.52-0.6002 0.43094 0.2327 0.69796h0.7323l0.2327-0.69796z" fill="none" stroke="#000" stroke-linecap="round" stroke-miterlimit="8" stroke-width=".26438px"/>
  <path d="m974.29 121.54-0.5975 0.43094 0.2326 0.69532h0.7324l0.2326-0.69532z" fill="#d8d8d8" fill-rule="evenodd"/>
  <path d="m974.29 121.54-0.5975 0.43094 0.2326 0.69532h0.7324l0.2326-0.69532z" fill="none" stroke="#000" stroke-linecap="round" stroke-miterlimit="8" stroke-width=".26438px"/>
  <path d="m973.34 120.82-0.5975 0.43358 0.2327 0.69533h0.7323l0.2327-0.69533z" fill="#d8d8d8" fill-rule="evenodd"/>
  <path d="m973.34 120.82-0.5975 0.43358 0.2327 0.69533h0.7323l0.2327-0.69533z" fill="none" stroke="#000" stroke-linecap="round" stroke-miterlimit="8" stroke-width=".26438px"/>
  <path d="m983.46 124.45-0.6002 0.43094 0.2353 0.69532h0.7324l0.2326-0.69532z" fill="#d8d8d8" fill-rule="evenodd"/>
  <path d="m983.46 124.45-0.6002 0.43094 0.2353 0.69532h0.7324l0.2326-0.69532z" fill="none" stroke="#000" stroke-linecap="round" stroke-miterlimit="8" stroke-width=".26438px"/>
  <path d="m984.66 124.46-0.5975 0.43359 0.2327 0.69532h0.7323l0.2327-0.69532z" fill="#d8d8d8" fill-rule="evenodd"/>
  <path d="m984.66 124.46-0.5975 0.43359 0.2327 0.69532h0.7323l0.2327-0.69532z" fill="none" stroke="#000" stroke-linecap="round" stroke-miterlimit="8" stroke-width=".26438px"/>
  <path d="m983.09 123.3-0.6001 0.43358 0.2353 0.69532h0.7323l0.2327-0.69532z" fill="#d8d8d8" fill-rule="evenodd"/>
  <path d="m983.09 123.3-0.6001 0.43358 0.2353 0.69532h0.7323l0.2327-0.69532z" fill="none" stroke="#000" stroke-linecap="round" stroke-miterlimit="8" stroke-width=".26438px"/>
  <path d="m985.01 123.32-0.6002 0.43094 0.2327 0.69797h0.7323l0.2327-0.69797z" fill="#d8d8d8" fill-rule="evenodd"/>
  <path d="m985.01 123.32-0.6002 0.43094 0.2327 0.69797h0.7323l0.2327-0.69797z" fill="none" stroke="#000" stroke-linecap="round" stroke-miterlimit="8" stroke-width=".26438px"/>
  <path d="m984.06 122.6-0.6001 0.43094 0.2326 0.69532h0.7324l0.2326-0.69532z" fill="#d8d8d8" fill-rule="evenodd"/>
  <path d="m984.06 122.6-0.6001 0.43094 0.2326 0.69532h0.7324l0.2326-0.69532z" fill="none" stroke="#000" stroke-linecap="round" stroke-miterlimit="8" stroke-width=".26438px"/>
  <path d="m984.44 127.48-0.5975 0.43358 0.2327 0.69533h0.7323l0.2326-0.69533z" fill="#d8d8d8" fill-rule="evenodd"/>
  <path d="m984.44 127.48-0.5975 0.43358 0.2327 0.69533h0.7323l0.2326-0.69533z" fill="none" stroke="#000" stroke-linecap="round" stroke-miterlimit="8" stroke-width=".26438px"/>
  <path d="m985.64 127.5-0.6002 0.43094 0.2327 0.69796h0.7323l0.2327-0.69796z" fill="#d8d8d8" fill-rule="evenodd"/>
  <path d="m985.64 127.5-0.6002 0.43094 0.2327 0.69796h0.7323l0.2327-0.69796z" fill="none" stroke="#000" stroke-linecap="round" stroke-miterlimit="8" stroke-width=".26438px"/>
  <path d="m984.07 126.33-0.5975 0.43094 0.2326 0.69797h0.7324l0.2326-0.69797z" fill="#d8d8d8" fill-rule="evenodd"/>
  <path d="m984.07 126.33-0.5975 0.43094 0.2326 0.69797h0.7324l0.2326-0.69797z" fill="none" stroke="#000" stroke-linecap="round" stroke-miterlimit="8" stroke-width=".26438px"/>
  <path d="m986 126.35-0.6001 0.43094 0.2353 0.69532h0.7323l0.2327-0.69532z" fill="#d8d8d8" fill-rule="evenodd"/>
  <path d="m986 126.35-0.6001 0.43094 0.2353 0.69532h0.7323l0.2327-0.69532z" fill="none" stroke="#000" stroke-linecap="round" stroke-miterlimit="8" stroke-width=".26438px"/>
  <path d="m985.04 125.63-0.6001 0.43358 0.2353 0.69532h0.7323l0.2327-0.69532z" fill="#d8d8d8" fill-rule="evenodd"/>
  <path d="m985.04 125.63-0.6001 0.43358 0.2353 0.69532h0.7323l0.2327-0.69532z" fill="none" stroke="#000" stroke-linecap="round" stroke-miterlimit="8" stroke-width=".26438px"/>
  <path d="m987.55 127.5-0.6001 0.43094 0.2326 0.69796h0.7324l0.2326-0.69796z" fill="#d8d8d8" fill-rule="evenodd"/>
  <path d="m987.55 127.5-0.6001 0.43094 0.2326 0.69796h0.7324l0.2326-0.69796z" fill="none" stroke="#000" stroke-linecap="round" stroke-miterlimit="8" stroke-width=".26438px"/>
  <path d="m988.75 127.52-0.6002 0.43094 0.2353 0.69532h0.7324l0.2326-0.69532z" fill="#d8d8d8" fill-rule="evenodd"/>
  <path d="m988.75 127.52-0.6002 0.43094 0.2353 0.69532h0.7324l0.2326-0.69532z" fill="none" stroke="#000" stroke-linecap="round" stroke-miterlimit="8" stroke-width=".26438px"/>
  <path d="m987.18 126.35-0.6001 0.43094 0.2326 0.69532h0.7323l0.2327-0.69532z" fill="#d8d8d8" fill-rule="evenodd"/>
  <path d="m987.18 126.35-0.6001 0.43094 0.2326 0.69532h0.7323l0.2327-0.69532z" fill="none" stroke="#000" stroke-linecap="round" stroke-miterlimit="8" stroke-width=".26438px"/>
  <path d="m989.1 126.37-0.5975 0.43359 0.2327 0.69532h0.7323l0.2326-0.69532z" fill="#d8d8d8" fill-rule="evenodd"/>
  <path d="m989.1 126.37-0.5975 0.43359 0.2327 0.69532h0.7323l0.2326-0.69532z" fill="none" stroke="#000" stroke-linecap="round" stroke-miterlimit="8" stroke-width=".26438px"/>
  <path d="m988.15 125.65-0.5975 0.43094 0.2327 0.69797h0.7323l0.2327-0.69797z" fill="#d8d8d8" fill-rule="evenodd"/>
  <path d="m988.15 125.65-0.5975 0.43094 0.2327 0.69797h0.7323l0.2327-0.69797z" fill="none" stroke="#000" stroke-linecap="round" stroke-miterlimit="8" stroke-width=".26438px"/>
  <path d="m988.52 124.5-0.5975 0.43094 0.2326 0.69532h0.7324l0.2326-0.69532z" fill="#d8d8d8" fill-rule="evenodd"/>
  <path d="m988.52 124.5-0.5975 0.43094 0.2326 0.69532h0.7324l0.2326-0.69532z" fill="none" stroke="#000" stroke-linecap="round" stroke-miterlimit="8" stroke-width=".26438px"/>
  <path d="m989.72 124.52-0.6002 0.43358 0.2327 0.69532h0.7323l0.2327-0.69532z" fill="#d8d8d8" fill-rule="evenodd"/>
  <path d="m989.72 124.52-0.6002 0.43358 0.2327 0.69532h0.7323l0.2327-0.69532z" fill="none" stroke="#000" stroke-linecap="round" stroke-miterlimit="8" stroke-width=".26438px"/>
  <path d="m988.15 123.35-0.5975 0.43359 0.2327 0.69532h0.7323l0.2327-0.69532z" fill="#d8d8d8" fill-rule="evenodd"/>
  <path d="m988.15 123.35-0.5975 0.43359 0.2327 0.69532h0.7323l0.2327-0.69532z" fill="none" stroke="#000" stroke-linecap="round" stroke-miterlimit="8" stroke-width=".26438px"/>
  <path d="m990.07 123.37-0.6002 0.43094 0.2353 0.69797h0.7324l0.2326-0.69797z" fill="#d8d8d8" fill-rule="evenodd"/>
  <path d="m990.07 123.37-0.6002 0.43094 0.2353 0.69797h0.7324l0.2326-0.69797z" fill="none" stroke="#000" stroke-linecap="round" stroke-miterlimit="8" stroke-width=".26438px"/>
  <path d="m989.12 122.65-0.6001 0.43094 0.2353 0.69532h0.7323l0.2327-0.69532z" fill="#d8d8d8" fill-rule="evenodd"/>
  <path d="m989.12 122.65-0.6001 0.43094 0.2353 0.69532h0.7323l0.2327-0.69532z" fill="none" stroke="#000" stroke-linecap="round" stroke-miterlimit="8" stroke-width=".26438px"/>
  <path d="m986 122.63-0.6001 0.43094 0.2353 0.69796h0.7323l0.2327-0.69796z" fill="#d8d8d8" fill-rule="evenodd"/>
  <path d="m986 122.63-0.6001 0.43094 0.2353 0.69796h0.7323l0.2327-0.69796z" fill="none" stroke="#000" stroke-linecap="round" stroke-miterlimit="8" stroke-width=".26438px"/>
  <path d="m987.19 122.65-0.5975 0.43094 0.2326 0.69532h0.7324l0.2326-0.69532z" fill="#d8d8d8" fill-rule="evenodd"/>
  <path d="m987.19 122.65-0.5975 0.43094 0.2326 0.69532h0.7324l0.2326-0.69532z" fill="none" stroke="#000" stroke-linecap="round" stroke-miterlimit="8" stroke-width=".26438px"/>
  <path d="m985.63 121.49-0.6002 0.43094 0.2353 0.69532h0.7324l0.2326-0.69532z" fill="#d8d8d8" fill-rule="evenodd"/>
  <path d="m985.63 121.49-0.6002 0.43094 0.2353 0.69532h0.7324l0.2326-0.69532z" fill="none" stroke="#000" stroke-linecap="round" stroke-miterlimit="8" stroke-width=".26438px"/>
  <path d="m987.55 121.5-0.6001 0.43358 0.2326 0.69533h0.7324l0.2326-0.69533z" fill="#d8d8d8" fill-rule="evenodd"/>
  <path d="m987.55 121.5-0.6001 0.43358 0.2326 0.69533h0.7324l0.2326-0.69533z" fill="none" stroke="#000" stroke-linecap="round" stroke-miterlimit="8" stroke-width=".26438px"/>
  <path d="m986.6 120.78-0.6002 0.43094 0.2327 0.69797h0.7323l0.2327-0.69797z" fill="#d8d8d8" fill-rule="evenodd"/>
  <path d="m986.6 120.78-0.6002 0.43094 0.2327 0.69797h0.7323l0.2327-0.69797z" fill="none" stroke="#000" stroke-linecap="round" stroke-miterlimit="8" stroke-width=".26438px"/>
  <path d="m976.8 119.62-0.6002 0.43094 0.2353 0.69796h0.7324l0.2326-0.69796z" fill="#d8d8d8" fill-rule="evenodd"/>
  <path d="m976.8 119.62-0.6002 0.43094 0.2353 0.69796h0.7324l0.2326-0.69796z" fill="none" stroke="#000" stroke-linecap="round" stroke-miterlimit="8" stroke-width=".26438px"/>
  <path d="m977.99 119.64-0.5975 0.43094 0.2327 0.69532h0.7323l0.2327-0.69532z" fill="#d8d8d8" fill-rule="evenodd"/>
  <path d="m977.99 119.64-0.5975 0.43094 0.2327 0.69532h0.7323l0.2327-0.69532z" fill="none" stroke="#000" stroke-linecap="round" stroke-miterlimit="8" stroke-width=".26438px"/>
  <path d="m976.43 118.47-0.6001 0.43094 0.2353 0.69532h0.7323l0.2327-0.69532z" fill="#d8d8d8" fill-rule="evenodd"/>
  <path d="m976.43 118.47-0.6001 0.43094 0.2353 0.69532h0.7323l0.2327-0.69532z" fill="none" stroke="#000" stroke-linecap="round" stroke-miterlimit="8" stroke-width=".26438px"/>
  <path d="m978.35 118.49-0.6002 0.43359 0.2327 0.69532h0.7323l0.2327-0.69532z" fill="#d8d8d8" fill-rule="evenodd"/>
  <path d="m978.35 118.49-0.6002 0.43359 0.2327 0.69532h0.7323l0.2327-0.69532z" fill="none" stroke="#000" stroke-linecap="round" stroke-miterlimit="8" stroke-width=".26438px"/>
  <path d="m977.4 117.77-0.6001 0.43094 0.2326 0.69797h0.7324l0.2326-0.69797z" fill="#d8d8d8" fill-rule="evenodd"/>
  <path d="m977.4 117.77-0.6001 0.43094 0.2326 0.69797h0.7324l0.2326-0.69797z" fill="none" stroke="#000" stroke-linecap="round" stroke-miterlimit="8" stroke-width=".26438px"/>
  <path d="m977.78 122.65-0.5975 0.43094 0.2327 0.69532h0.7323l0.2327-0.69532z" fill="#d8d8d8" fill-rule="evenodd"/>
  <path d="m977.78 122.65-0.5975 0.43094 0.2327 0.69532h0.7323l0.2327-0.69532z" fill="none" stroke="#000" stroke-linecap="round" stroke-miterlimit="8" stroke-width=".26438px"/>
  <path d="m978.98 122.67-0.6001 0.43359 0.2326 0.69532h0.7323l0.2327-0.69532z" fill="#d8d8d8" fill-rule="evenodd"/>
  <path d="m978.98 122.67-0.6001 0.43359 0.2326 0.69532h0.7323l0.2327-0.69532z" fill="none" stroke="#000" stroke-linecap="round" stroke-miterlimit="8" stroke-width=".26438px"/>
  <path d="m977.41 121.5-0.5975 0.43358 0.2326 0.69533h0.7324l0.2326-0.69533z" fill="#d8d8d8" fill-rule="evenodd"/>
  <path d="m977.41 121.5-0.5975 0.43358 0.2326 0.69533h0.7324l0.2326-0.69533z" fill="none" stroke="#000" stroke-linecap="round" stroke-miterlimit="8" stroke-width=".26438px"/>
  <path d="m979.33 121.52-0.6001 0.43094 0.2353 0.69796h0.7323l0.2327-0.69796z" fill="#d8d8d8" fill-rule="evenodd"/>
  <path d="m979.33 121.52-0.6001 0.43094 0.2353 0.69796h0.7323l0.2327-0.69796z" fill="none" stroke="#000" stroke-linecap="round" stroke-miterlimit="8" stroke-width=".26438px"/>
  <path d="m978.38 120.8-0.6002 0.43094 0.2353 0.69532h0.7323l0.2327-0.69532z" fill="#d8d8d8" fill-rule="evenodd"/>
  <path d="m978.38 120.8-0.6002 0.43094 0.2353 0.69532h0.7323l0.2327-0.69532z" fill="none" stroke="#000" stroke-linecap="round" stroke-miterlimit="8" stroke-width=".26438px"/>
  <path d="m980.89 122.67-0.6001 0.43359 0.2327 0.69532h0.7323l0.2326-0.69532z" fill="#d8d8d8" fill-rule="evenodd"/>
  <path d="m980.89 122.67-0.6001 0.43359 0.2327 0.69532h0.7323l0.2326-0.69532z" fill="none" stroke="#000" stroke-linecap="round" stroke-miterlimit="8" stroke-width=".26438px"/>
  <path d="m982.08 122.69-0.6002 0.43094 0.2353 0.69797h0.7324l0.2326-0.69797z" fill="#d8d8d8" fill-rule="evenodd"/>
  <path d="m982.08 122.69-0.6002 0.43094 0.2353 0.69797h0.7324l0.2326-0.69797z" fill="none" stroke="#000" stroke-linecap="round" stroke-miterlimit="8" stroke-width=".26438px"/>
  <path d="m980.52 121.52-0.6001 0.43094 0.2326 0.69796h0.7324l0.2326-0.69796z" fill="#d8d8d8" fill-rule="evenodd"/>
  <path d="m980.52 121.52-0.6001 0.43094 0.2326 0.69796h0.7324l0.2326-0.69796z" fill="none" stroke="#000" stroke-linecap="round" stroke-miterlimit="8" stroke-width=".26438px"/>
  <path d="m982.44 121.54-0.5975 0.43094 0.2327 0.69532h0.7323l0.2327-0.69532z" fill="#d8d8d8" fill-rule="evenodd"/>
  <path d="m982.44 121.54-0.5975 0.43094 0.2327 0.69532h0.7323l0.2327-0.69532z" fill="none" stroke="#000" stroke-linecap="round" stroke-miterlimit="8" stroke-width=".26438px"/>
  <path d="m981.48 120.82-0.5975 0.43358 0.2327 0.69533h0.7323l0.2327-0.69533z" fill="#d8d8d8" fill-rule="evenodd"/>
  <path d="m981.48 120.82-0.5975 0.43358 0.2327 0.69533h0.7323l0.2327-0.69533z" fill="none" stroke="#000" stroke-linecap="round" stroke-miterlimit="8" stroke-width=".26438px"/>
  <path d="m981.85 119.67-0.5975 0.43094 0.2326 0.69797h0.7324l0.2326-0.69797z" fill="#d8d8d8" fill-rule="evenodd"/>
  <path d="m981.85 119.67-0.5975 0.43094 0.2326 0.69797h0.7324l0.2326-0.69797z" fill="none" stroke="#000" stroke-linecap="round" stroke-miterlimit="8" stroke-width=".26438px"/>
  <path d="m983.05 119.69-0.6002 0.43094 0.2327 0.69532h0.7323l0.2327-0.69532z" fill="#d8d8d8" fill-rule="evenodd"/>
  <path d="m983.05 119.69-0.6002 0.43094 0.2327 0.69532h0.7323l0.2327-0.69532z" fill="none" stroke="#000" stroke-linecap="round" stroke-miterlimit="8" stroke-width=".26438px"/>
  <path d="m981.48 118.53-0.5975 0.43094 0.2327 0.69532h0.7323l0.2327-0.69532z" fill="#d8d8d8" fill-rule="evenodd"/>
  <path d="m981.48 118.53-0.5975 0.43094 0.2327 0.69532h0.7323l0.2327-0.69532z" fill="none" stroke="#000" stroke-linecap="round" stroke-miterlimit="8" stroke-width=".26438px"/>
  <path d="m983.41 118.54-0.6002 0.43358 0.2353 0.69532h0.7324l0.2326-0.69532z" fill="#d8d8d8" fill-rule="evenodd"/>
  <path d="m983.41 118.54-0.6002 0.43358 0.2353 0.69532h0.7324l0.2326-0.69532z" fill="none" stroke="#000" stroke-linecap="round" stroke-miterlimit="8" stroke-width=".26438px"/>
  <path d="m982.45 117.82-0.6001 0.43094 0.2353 0.69796h0.7323l0.2327-0.69796z" fill="#d8d8d8" fill-rule="evenodd"/>
  <path d="m982.45 117.82-0.6001 0.43094 0.2353 0.69796h0.7323l0.2327-0.69796z" fill="none" stroke="#000" stroke-linecap="round" stroke-miterlimit="8" stroke-width=".26438px"/>
  <path d="m979.33 117.8-0.6001 0.43359 0.2353 0.69532h0.7323l0.2327-0.69532z" fill="#d8d8d8" fill-rule="evenodd"/>
  <path d="m979.33 117.8-0.6001 0.43359 0.2353 0.69532h0.7323l0.2327-0.69532z" fill="none" stroke="#000" stroke-linecap="round" stroke-miterlimit="8" stroke-width=".26438px"/>
  <path d="m980.53 117.82-0.5975 0.43094 0.2326 0.69796h0.7324l0.2326-0.69796z" fill="#d8d8d8" fill-rule="evenodd"/>
  <path d="m980.53 117.82-0.5975 0.43094 0.2326 0.69796h0.7324l0.2326-0.69796z" fill="none" stroke="#000" stroke-linecap="round" stroke-miterlimit="8" stroke-width=".26438px"/>
  <path d="m978.96 116.66-0.6001 0.43094 0.2353 0.69796h0.7323l0.2326-0.69796z" fill="#d8d8d8" fill-rule="evenodd"/>
  <path d="m978.96 116.66-0.6001 0.43094 0.2353 0.69796h0.7323l0.2326-0.69796z" fill="none" stroke="#000" stroke-linecap="round" stroke-miterlimit="8" stroke-width=".26438px"/>
  <path d="m980.89 116.68-0.6001 0.43094 0.2327 0.69532h0.7323l0.2326-0.69532z" fill="#d8d8d8" fill-rule="evenodd"/>
  <path d="m980.89 116.68-0.6001 0.43094 0.2327 0.69532h0.7323l0.2326-0.69532z" fill="none" stroke="#000" stroke-linecap="round" stroke-miterlimit="8" stroke-width=".26438px"/>
  <path d="m979.93 115.95-0.6002 0.43358 0.2327 0.69532h0.7323l0.2327-0.69532z" fill="#d8d8d8" fill-rule="evenodd"/>
  <path d="m979.93 115.95-0.6002 0.43358 0.2327 0.69532h0.7323l0.2327-0.69532z" fill="none" stroke="#000" stroke-linecap="round" stroke-miterlimit="8" stroke-width=".26438px"/>
 </g>
</svg>
