<?xml version="1.0" encoding="UTF-8"?>
<!-- Created with Inkscape (http://www.inkscape.org/) -->
<svg width="55.65mm" height="25.601mm" version="1.1" viewBox="0 0 55.649684 25.60149" xmlns="http://www.w3.org/2000/svg" xmlns:cc="http://creativecommons.org/ns#" xmlns:dc="http://purl.org/dc/elements/1.1/" xmlns:rdf="http://www.w3.org/1999/02/22-rdf-syntax-ns#" xmlns:xlink="http://www.w3.org/1999/xlink">
 <defs>
  <clipPath id="clipEmfPath2-145">
   <path d="m-27.979 84.895h106.64v24.781h-106.64z"/>
  </clipPath>
  <clipPath id="clipEmfPath3-52">
   <path d="m114.79 83.136h106.48v24.781h-106.48z"/>
  </clipPath>
 </defs>
 <metadata>
  <rdf:RDF>
   <cc:Work rdf:about="">
    <dc:format>image/svg+xml</dc:format>
    <dc:type rdf:resource="http://purl.org/dc/dcmitype/StillImage"/>
    <dc:title/>
   </cc:Work>
  </rdf:RDF>
 </metadata>
 <g transform="translate(-904.29 -147.26)">
  <text x="962.75708" y="176.26744" fill="#000000" font-family="'Times New Roman'" font-size="4.2333px" font-weight="400" letter-spacing="0px" stroke-width=".26458" word-spacing="0px" style="line-height:5.29166639px" xml:space="preserve"><tspan x="0" y="0" stroke-width=".26458" style="line-height:5.29166639px"><tspan dx="0" dy="0" fill="#000000" font-family="'Times New Roman'" font-size="4.2333px" font-weight="400" stroke-width=".26458" style="line-height:5.29166639px"/></tspan></text>
  <g transform="matrix(.26458 0 0 .26458 904.17 145.98)" clip-path="url(#clipEmfPath2-145)" style="">
   <text transform="translate(0 99.923)" fill="#000000" font-family="'Times New Roman'" font-size="16px" font-weight="400" letter-spacing="0px" word-spacing="0px" style="line-height:125%" xml:space="preserve"><tspan x="0" y="0" fill="#000000" font-family="'Times New Roman'" font-size="16px" font-weight="400"><tspan dx="0" dy="0">initiator</tspan><tspan dx="0" dy="0"/></tspan></text>
  </g>
  <g transform="matrix(.26458 0 0 .26458 904.17 145.98)" clip-path="url(#clipEmfPath3-52)" style="">
   <text transform="translate(137.81 98.165)" fill="#000000" font-family="'Times New Roman'" font-size="16px" font-weight="400" letter-spacing="0px" word-spacing="0px" style="line-height:125%" xml:space="preserve"><tspan x="0" y="0" fill="#000000" font-family="'Times New Roman'" font-size="16px" font-weight="400"><tspan dx="0" dy="0">generator</tspan><tspan dx="0" dy="0"/></tspan></text>
  </g>
  <path d="m905.88 153.74v12.69h12.69v-12.69z" fill="#7f7f7f" fill-rule="evenodd"/>
  <path d="m905.88 153.74v12.69h12.69v-12.69z" fill="none" stroke="#000" stroke-linecap="round" stroke-miterlimit="8" stroke-width=".26438px"/>
  <path d="m940.78 160.09v6.3451h6.3451v-6.3451z" fill="#7f7f7f" fill-rule="evenodd"/>
  <path d="m940.78 160.09v6.3451h6.3451v-6.3451z" fill="none" stroke="#000" stroke-linecap="round" stroke-miterlimit="8" stroke-width=".26438px"/>
  <path d="m940.78 153.74v6.3451h6.3451v-6.3451z" fill="#7f7f7f" fill-rule="evenodd"/>
  <path d="m940.78 153.74v6.3451h6.3451v-6.3451z" fill="none" stroke="#000" stroke-linecap="round" stroke-miterlimit="8" stroke-width=".26438px"/>
  <path d="m940.78 147.4v6.3451h6.3451v-6.3451z" fill="#7f7f7f" fill-rule="evenodd"/>
  <path d="m940.78 147.4v6.3451h6.3451v-6.3451z" fill="none" stroke="#000" stroke-linecap="round" stroke-miterlimit="8" stroke-width=".26438px"/>
  <path d="m947.12 160.09v6.3451h6.3452v-6.3451z" fill="#7f7f7f" fill-rule="evenodd"/>
  <path d="m947.12 160.09v6.3451h6.3452v-6.3451z" fill="none" stroke="#000" stroke-linecap="round" stroke-miterlimit="8" stroke-width=".26438px"/>
  <path d="m947.12 147.4v6.3451h6.3452v-6.3451z" fill="#7f7f7f" fill-rule="evenodd"/>
  <path d="m947.12 147.4v6.3451h6.3452v-6.3451z" fill="none" stroke="#000" stroke-linecap="round" stroke-miterlimit="8" stroke-width=".26438px"/>
  <path d="m953.47 160.09v6.3451h6.3451v-6.3451z" fill="#7f7f7f" fill-rule="evenodd"/>
  <path d="m953.47 160.09v6.3451h6.3451v-6.3451z" fill="none" stroke="#000" stroke-linecap="round" stroke-miterlimit="8" stroke-width=".26438px"/>
  <path d="m953.47 153.74v6.3451h6.3451v-6.3451z" fill="#7f7f7f" fill-rule="evenodd"/>
  <path d="m953.47 153.74v6.3451h6.3451v-6.3451z" fill="none" stroke="#000" stroke-linecap="round" stroke-miterlimit="8" stroke-width=".26438px"/>
  <path d="m953.47 147.4v6.3451h6.3451v-6.3451z" fill="#7f7f7f" fill-rule="evenodd"/>
  <path d="m953.47 147.4v6.3451h6.3451v-6.3451z" fill="none" stroke="#000" stroke-linecap="round" stroke-miterlimit="8" stroke-width=".26438px"/>
 </g>
</svg>
