<?xml version="1.0" encoding="UTF-8"?>
<!-- Created with Inkscape (http://www.inkscape.org/) -->
<svg width="31.657mm" height="16.444mm" version="1.1" viewBox="0 0 31.656919 16.443873" xmlns="http://www.w3.org/2000/svg" xmlns:cc="http://creativecommons.org/ns#" xmlns:dc="http://purl.org/dc/elements/1.1/" xmlns:rdf="http://www.w3.org/1999/02/22-rdf-syntax-ns#" xmlns:xlink="http://www.w3.org/1999/xlink">
 <defs>
  <clipPath id="clipEmfPath1-329">
   <path d="m27.499 48.922h106.64v24.781h-106.64z"/>
  </clipPath>
 </defs>
 <metadata>
  <rdf:RDF>
   <cc:Work rdf:about="">
    <dc:format>image/svg+xml</dc:format>
    <dc:type rdf:resource="http://purl.org/dc/dcmitype/StillImage"/>
    <dc:title/>
   </cc:Work>
  </rdf:RDF>
 </metadata>
 <g transform="translate(-850.44 -152.05)">
  <text x="850.16571" y="158.6852" fill="#000000" font-family="Calibri" font-size="3.8861px" font-weight="400" letter-spacing="0px" stroke-width=".26458" word-spacing="0px" style="line-height:125%" xml:space="preserve"><tspan x="0" y="0" stroke-width=".26458"><tspan dx="0" dy="0" fill="#000000" font-family="Calibri" font-size="3.8861px" font-weight="400" stroke-width=".26458"/></tspan></text>
  <text x="845.65405" y="176.32249" fill="#000000" font-family="Calibri" font-size="3.8861px" font-weight="400" letter-spacing="0px" stroke-width=".26458" word-spacing="0px" style="line-height:4.85758453px" xml:space="preserve"><tspan x="0" y="0" stroke-width=".26458" style="line-height:4.85758453px"><tspan dx="0" dy="0" fill="#000000" font-family="Calibri" font-size="3.8861px" font-weight="400" stroke-width=".26458" style="line-height:4.85758453px"/></tspan></text>
  <g transform="matrix(.26458 0 0 .26458 845.65 151.87)" clip-path="url(#clipEmfPath1-329)" style="">
   <text transform="translate(47.963 62.672)" fill="#000000" font-family="Calibri" font-size="14.688px" font-weight="400" letter-spacing="0px" word-spacing="0px" style="line-height:125%" xml:space="preserve"><tspan x="0" y="0" fill="#000000" font-family="Calibri" font-size="14.688px" font-weight="400"><tspan dx="0" dy="0">Koch curve</tspan><tspan dx="0" dy="0"/></tspan></text>
  </g>
  <g fill="none" stroke="#000" stroke-linejoin="round" stroke-width=".26438px">
   <path d="m850.44 161.76h0.40714l0.18771-0.37013 0.20622 0.37013h0.39921"/>
   <path d="m852.79 161.74h0.4045l0.19036-0.37014 0.20357 0.37014h0.39921"/>
   <path d="m851.64 161.76 0.18242-0.36748-0.24587-0.33577 0.42301-0.0238 0.17978-0.3622"/>
   <path d="m852.19 160.67 0.19564 0.35427 0.43094-0.0212-0.24059 0.36749 0.193 0.34898"/>
   <path d="m857.64 161.67h0.40714l0.18771-0.37013 0.20622 0.37013h0.39921"/>
   <path d="m859.98 161.65h0.4045l0.19036-0.37013 0.20357 0.37013h0.39921"/>
   <path d="m858.83 161.67 0.18242-0.37013-0.24587-0.33312 0.42301-0.0238 0.17978-0.3622"/>
   <path d="m859.38 160.58 0.19564 0.35427 0.43094-0.0238-0.24059 0.36749 0.193 0.35163"/>
   <path d="m860.76 155.39h0.40714l0.18771-0.37013 0.20622 0.37013h0.39921"/>
   <path d="m863.1 155.37h0.4045l0.19036-0.37013 0.20357 0.37013h0.39922"/>
   <path d="m861.95 155.39 0.18242-0.37013-0.24587-0.33312 0.42301-0.0238 0.17978-0.36484"/>
   <path d="m862.5 154.31 0.19564 0.35427 0.43094-0.0238-0.24059 0.36749 0.193 0.34899"/>
   <path d="m867.82 155.25h0.4045l0.18771-0.37013 0.20622 0.37013h0.39922"/>
   <path d="m870.17 155.23h0.40715l0.18771-0.37014 0.20622 0.37014h0.39921"/>
   <path d="m869.02 155.25 0.18242-0.36749-0.24852-0.33576 0.42565-0.0238 0.17714-0.3622"/>
   <path d="m869.57 154.17 0.19828 0.35427 0.4283-0.0212-0.24059 0.36749 0.19565 0.34898"/>
   <path d="m871.4 161.7h0.4045l0.19036-0.37013 0.20357 0.37013h0.39921"/>
   <path d="m873.75 161.68h0.40451l0.18771-0.37013 0.20622 0.37013h0.39921"/>
   <path d="m872.59 161.7 0.18242-0.36749-0.24852-0.33576 0.42565-0.0238 0.17978-0.3622"/>
   <path d="m873.15 160.62 0.19564 0.35427 0.43094-0.0212-0.24058 0.36749 0.19299 0.34898"/>
   <path d="m878.56 161.67h0.4045l0.18771-0.37013 0.20622 0.37013h0.39921"/>
   <path d="m880.9 161.65h0.40715l0.18771-0.37013 0.20622 0.37013h0.39921"/>
   <path d="m879.75 161.67 0.18242-0.37013-0.24852-0.33312 0.42565-0.0238 0.17714-0.3622"/>
   <path d="m880.3 160.58 0.19829 0.35427 0.42829-0.0238-0.24059 0.36749 0.19564 0.35163"/>
   <path d="m854.1 161.62 0.18506-0.3622-0.24587-0.33576 0.42565-0.0132 0.17978-0.35691"/>
   <path d="m855.16 159.52 0.18507-0.35956-0.24588-0.33576 0.42566-0.0159 0.17977-0.35427"/>
   <path d="m854.65 160.54-0.24323-0.33048-0.41244 0.0687 0.17449-0.38864-0.24323-0.32518"/>
   <path d="m853.94 159.55 0.4045-0.0132 0.17714-0.39393 0.21679 0.38071 0.39921-0.0106"/>
   <path d="m855.83 158.45 0.18771 0.35956 0.41507-5e-3 -0.23265 0.35427 0.18507 0.35427"/>
   <path d="m856.94 160.52 0.18772 0.35956 0.41507-5e-3 -0.23265 0.35427 0.18506 0.35427"/>
   <path d="m856.39 159.51 0.40979-0.0106 0.18243-0.37277 0.21679 0.36484 0.40714-0.0106"/>
   <path d="m857.61 159.49-0.22472 0.3384 0.22208 0.37014-0.43887-0.0423-0.21944 0.33312"/>
   <path d="m862.87 158.32-0.24852-0.3199-0.40714 0.0793 0.16656-0.38864-0.24588-0.31461"/>
   <path d="m861.42 156.49-0.25116-0.3199-0.40714 0.0793 0.16656-0.38864-0.24588-0.31725"/>
   <path d="m862.14 157.37-0.4045 0.0819-0.11104 0.40186-0.28024-0.32254-0.39657 0.082"/>
   <path d="m860.95 157.62 0.15863-0.37278-0.28289-0.32519 0.43887-0.037 0.15599-0.36749"/>
   <path d="m871.42 155.33-0.20886 0.34634 0.21679 0.35162-0.42301-0.0159-0.20886 0.34105"/>
   <path d="m870.23 157.34-0.21151 0.34634 0.21944 0.35162-0.42301-0.0159-0.20886 0.34105"/>
   <path d="m870.81 156.34 0.21944 0.34634 0.41508-0.037-0.20093 0.37542 0.21679 0.3437"/>
   <path d="m871.46 157.39-0.4045-0.0185-0.20358 0.37806-0.19035-0.39392-0.39922-0.0185"/>
   <path d="m861.35 161.67 0.18507-0.3622-0.24587-0.33577 0.42565-0.0132 0.17978-0.35692"/>
   <path d="m862.4 159.57 0.18506-0.35956-0.24587-0.33576 0.42565-0.0159 0.17978-0.35427"/>
   <path d="m861.89 160.59-0.24323-0.33048-0.41243 0.0687 0.17449-0.38864-0.24323-0.32519"/>
   <path d="m861.19 159.61 0.4045-0.0132 0.17713-0.39393 0.2168 0.38071 0.39921-0.0106"/>
   <path d="m864.41 155.32 0.18506-0.36221-0.24587-0.33576 0.42565-0.0132 0.17978-0.35691"/>
   <path d="m865.47 153.22 0.18507-0.35955-0.24588-0.33577 0.42566-0.0159 0.17977-0.35427"/>
   <path d="m864.96 154.24-0.24323-0.33047-0.41244 0.0687 0.17449-0.38864-0.24323-0.32519"/>
   <path d="m864.25 153.26 0.4045-0.0132 0.17714-0.39393 0.21679 0.38071 0.39921-0.0106"/>
   <path d="m866.09 152.11 0.18771 0.35956 0.41508-5e-3 -0.23266 0.35427 0.18507 0.35427"/>
   <path d="m867.2 154.17 0.18771 0.35955 0.41508-5e-3 -0.23266 0.35427 0.18507 0.35427"/>
   <path d="m866.65 153.17 0.40979-0.0106 0.18242-0.37278 0.21679 0.36485 0.40715-0.0106"/>
   <path d="m867.87 153.15-0.22473 0.33841 0.22208 0.37013-0.43887-0.0423-0.21944 0.33312"/>
   <path d="m869.63 158.45 0.18771 0.35956 0.41508-5e-3 -0.23266 0.35427 0.18507 0.35427"/>
   <path d="m870.74 160.52 0.18771 0.35956 0.41508-5e-3 -0.23266 0.35427 0.18507 0.35427"/>
   <path d="m870.19 159.51 0.40979-0.0106 0.18242-0.37277 0.21679 0.36484 0.40715-0.0106"/>
   <path d="m871.41 159.49-0.22473 0.3384 0.22208 0.37014-0.43887-0.0423-0.21944 0.33312"/>
   <path d="m876.82 158.51 0.18771 0.35956 0.41508-5e-3 -0.23266 0.35427 0.18507 0.35427"/>
   <path d="m877.93 160.57 0.18771 0.35955 0.41508-5e-3 -0.23266 0.35427 0.18507 0.35427"/>
   <path d="m877.38 159.57 0.40979-0.0106 0.18242-0.37278 0.21679 0.36485 0.40715-0.0106"/>
   <path d="m878.6 159.54-0.22473 0.33841 0.22208 0.37013-0.43887-0.0423-0.21944 0.33312"/>
   <path d="m875.15 161.67 0.18506-0.3622-0.24587-0.33577 0.42565-0.0132 0.17978-0.35692"/>
   <path d="m876.2 159.57 0.18507-0.35956-0.24588-0.33576 0.42565-0.0159 0.17978-0.35427"/>
   <path d="m875.69 160.59-0.24323-0.33048-0.41244 0.0687 0.17449-0.38864-0.24323-0.32519"/>
   <path d="m874.99 159.61 0.4045-0.0132 0.17714-0.39393 0.21679 0.38071 0.39921-0.0106"/>
  </g>
 </g>
</svg>
