<?xml version="1.0" encoding="UTF-8"?>
<!-- Created with Inkscape (http://www.inkscape.org/) -->
<svg width="59.188mm" height="56.308mm" version="1.1" viewBox="0 0 59.188381 56.308118" xmlns="http://www.w3.org/2000/svg" xmlns:cc="http://creativecommons.org/ns#" xmlns:dc="http://purl.org/dc/elements/1.1/" xmlns:rdf="http://www.w3.org/1999/02/22-rdf-syntax-ns#">
 <defs>
  <clipPath id="clipEmfPath1-789">
   <path d="m0 0h263.8v255.8h-263.8z"/>
  </clipPath>
  <clipPath id="clipEmfPath3-13">
   <path d="m66.186 53.804h177.76v141.59h-177.76z"/>
  </clipPath>
  <clipPath id="clipEmfPath4-1">
   <path d="m78.477 10.383h107.79v23.598h-107.79z"/>
  </clipPath>
  <clipPath id="clipEmfPath5-63">
   <path d="m138.99 217.1h32.147v19.822h-32.147z"/>
  </clipPath>
  <clipPath id="clipEmfPath6-09">
   <path d="m17.019 95.336h18.91v58.523h-18.91z"/>
  </clipPath>
 </defs>
 <metadata>
  <rdf:RDF>
   <cc:Work rdf:about="">
    <dc:format>image/svg+xml</dc:format>
    <dc:type rdf:resource="http://purl.org/dc/dcmitype/StillImage"/>
    <dc:title/>
   </cc:Work>
  </rdf:RDF>
 </metadata>
 <g transform="translate(-531.28 -93.184)">
  <text x="525.50995" y="92.422173" fill="#000000" font-family="Calibri" font-size="3.8861px" font-weight="400" letter-spacing="0px" stroke-width=".26458" word-spacing="0px" style="line-height:125%" xml:space="preserve"><tspan x="0" y="0" stroke-width=".26458"><tspan dx="0" dy="0" fill="#000000" font-family="Calibri" font-size="3.8861px" font-weight="400" stroke-width=".26458"/></tspan></text>
  <g fill="none">
   <path transform="matrix(.26458 0 0 .26458 525.51 88.784)" d="m69.968 57.579h170.19v134.04h-170.19z" clip-path="url(#clipEmfPath1-789)"/>
   <g stroke-linecap="round" stroke-linejoin="round" stroke-width=".94551px">
    <path transform="matrix(.26458 0 0 .26458 525.51 88.784)" d="m69.968 57.579h170.19v134.04h-170.19v-134.04" clip-path="url(#clipEmfPath1-789)" stroke="#808080"/>
    <path transform="matrix(.26458 0 0 .26458 525.51 88.784)" d="m69.968 124.6 17.019-49.084 17.019 61.355 17.019-57.579 17.019 47.196 17.019-50.972 17.019 61.355 17.019-57.579 17.019 48.14 17.019-51.916 17.019 61.355m-170.19-12.271" clip-path="url(#clipEmfPath3-13)" stroke="#000080"/>
   </g>
  </g>
  <g fill="#000080" fill-rule="evenodd" stroke="#000080" stroke-linecap="round" stroke-linejoin="round" stroke-width=".94551px">
   <path transform="matrix(.26458 0 0 .26458 525.51 88.784)" d="m69.968 121.77 2.8365 2.8318-2.8365 3.7757-3.782-3.7757z" clip-path="url(#clipEmfPath3-13)"/>
   <path transform="matrix(.26458 0 0 .26458 525.51 88.784)" d="m86.987 75.514m0-3.7757 2.8365 3.7757-2.8365 2.8318-3.782-2.8318z" clip-path="url(#clipEmfPath3-13)"/>
   <path transform="matrix(.26458 0 0 .26458 525.51 88.784)" d="m104.01 136.87m0-2.8318 2.8365 2.8318-2.8365 3.7757-3.782-3.7757z" clip-path="url(#clipEmfPath3-13)"/>
   <path transform="matrix(.26458 0 0 .26458 525.51 88.784)" d="m121.03 79.29m0-2.8318 2.8365 2.8318-2.8365 3.7757-3.782-3.7757z" clip-path="url(#clipEmfPath3-13)"/>
   <path transform="matrix(.26458 0 0 .26458 525.51 88.784)" d="m138.04 126.49m0-2.8318 2.8365 2.8318-2.8365 3.7757-3.782-3.7757z" clip-path="url(#clipEmfPath3-13)"/>
   <path transform="matrix(.26458 0 0 .26458 525.51 88.784)" d="m155.06 75.514m0-3.7757 2.8365 3.7757-2.8365 3.7757-3.782-3.7757z" clip-path="url(#clipEmfPath3-13)"/>
   <path transform="matrix(.26458 0 0 .26458 525.51 88.784)" d="m172.08 136.87m0-3.7757 2.8365 3.7757-2.8365 3.7757-3.782-3.7757z" clip-path="url(#clipEmfPath3-13)"/>
   <path transform="matrix(.26458 0 0 .26458 525.51 88.784)" d="m189.1 79.29m0-3.7757 3.782 3.7757-3.782 3.7757-3.782-3.7757z" clip-path="url(#clipEmfPath3-13)"/>
   <path transform="matrix(.26458 0 0 .26458 525.51 88.784)" d="m206.12 127.43m0-2.8318 2.8365 2.8318-2.8365 3.7757-3.782-3.7757z" clip-path="url(#clipEmfPath3-13)"/>
   <path transform="matrix(.26458 0 0 .26458 525.51 88.784)" d="m223.14 75.514m0-3.7757 3.782 3.7757-3.782 3.7757-3.782-3.7757z" clip-path="url(#clipEmfPath3-13)"/>
   <path transform="matrix(.26458 0 0 .26458 525.51 88.784)" d="m240.16 136.87m0-3.7757 2.8365 3.7757-2.8365 2.8318-3.782-2.8318z" clip-path="url(#clipEmfPath3-13)"/>
  </g>
  <g transform="matrix(.26458 0 0 .26458 525.51 88.784)" clip-path="url(#clipEmfPath4-1)">
   <text transform="translate(80.368 14.159)" y="11.994873" fill="#000000" font-family="Arial" font-size="13.25px" font-weight="700" letter-spacing="0px" word-spacing="0px" style="line-height:125%" xml:space="preserve"><tspan x="0" y="11.994873"><tspan dx="0" dy="0" fill="#000000" font-family="Arial" font-size="13.25px" font-weight="700">r=2.46  A 4-cycle</tspan></tspan></text>
  </g>
  <g transform="matrix(.26458 0 0 .26458 525.51 88.784)" clip-path="url(#clipEmfPath1-789)" fill="#000000" font-family="Arial" font-size="10.375px" font-weight="700" letter-spacing="0px" word-spacing="0px">
   <text transform="translate(55.785 185.01)" y="9.3922119" style="line-height:125%" xml:space="preserve"><tspan x="0" y="9.3922119"><tspan dx="0" dy="0" fill="#000000" font-family="Arial" font-size="10.375px" font-weight="700">0</tspan></tspan></text>
   <text transform="translate(55.785 185.01)" x="-12.291647" y="-10.430221" style="line-height:125%" xml:space="preserve"><tspan x="-12.291647" y="-10.430221"><tspan dx="0" dy="0" fill="#000000" font-family="Arial" font-size="10.375px" font-weight="700">200</tspan></tspan></text>
   <text transform="translate(55.785 185.01)" x="-12.291647" y="-29.308727" style="line-height:125%" xml:space="preserve"><tspan x="-12.291647" y="-29.308727"><tspan dx="0" dy="0" fill="#000000" font-family="Arial" font-size="10.375px" font-weight="700">400</tspan></tspan></text>
   <text transform="translate(55.785 185.01)" x="-12.291647" y="-48.187237" style="line-height:125%" xml:space="preserve"><tspan x="-12.291647" y="-48.187237"><tspan dx="0" dy="0" fill="#000000" font-family="Arial" font-size="10.375px" font-weight="700">600</tspan></tspan></text>
   <text transform="translate(55.785 185.01)" x="-12.291647" y="-67.065742" style="line-height:125%" xml:space="preserve"><tspan x="-12.291647" y="-67.065742"><tspan dx="0" dy="0" fill="#000000" font-family="Arial" font-size="10.375px" font-weight="700">800</tspan></tspan></text>
   <text transform="translate(55.785 185.01)" x="-17.964714" y="-85.944252" style="line-height:125%" xml:space="preserve"><tspan x="-17.964714" y="-85.944252"><tspan dx="0" dy="0" fill="#000000" font-family="Arial" font-size="10.375px" font-weight="700">1000</tspan></tspan></text>
   <text transform="translate(55.785 185.01)" x="-17.964714" y="-105.76669" style="line-height:125%" xml:space="preserve"><tspan x="-17.964714" y="-105.76669"><tspan dx="0" dy="0" fill="#000000" font-family="Arial" font-size="10.375px" font-weight="700">1200</tspan></tspan></text>
   <text transform="translate(55.785 185.01)" x="-17.964714" y="-124.64519" style="line-height:125%" xml:space="preserve"><tspan x="-17.964714" y="-124.64519"><tspan dx="0" dy="0" fill="#000000" font-family="Arial" font-size="10.375px" font-weight="700">1400</tspan></tspan></text>
  </g>
  <g transform="matrix(.26458 0 0 .26458 525.51 88.784)" clip-path="url(#clipEmfPath1-789)" fill="#000000" font-family="Arial" font-size="10.375px" font-weight="700" letter-spacing="0px" word-spacing="0px">
   <text transform="translate(67.131 201.06)" y="9.3922119" style="line-height:125%" xml:space="preserve"><tspan x="0" y="9.3922119"><tspan dx="0" dy="0" fill="#000000" font-family="Arial" font-size="10.375px" font-weight="700">0</tspan></tspan></text>
   <text transform="translate(67.131 201.06)" x="17.019203" y="9.3922119" style="line-height:125%" xml:space="preserve"><tspan x="17.019203" y="9.3922119"><tspan dx="0" dy="0" fill="#000000" font-family="Arial" font-size="10.375px" font-weight="700">1</tspan></tspan></text>
   <text transform="translate(67.131 201.06)" x="34.038406" y="9.3922119" style="line-height:125%" xml:space="preserve"><tspan x="34.038406" y="9.3922119"><tspan dx="0" dy="0" fill="#000000" font-family="Arial" font-size="10.375px" font-weight="700">2</tspan></tspan></text>
   <text transform="translate(67.131 201.06)" x="51.05761" y="9.3922119" style="line-height:125%" xml:space="preserve"><tspan x="51.05761" y="9.3922119"><tspan dx="0" dy="0" fill="#000000" font-family="Arial" font-size="10.375px" font-weight="700">3</tspan></tspan></text>
   <text transform="translate(67.131 201.06)" x="68.076813" y="9.3922119" style="line-height:125%" xml:space="preserve"><tspan x="68.076813" y="9.3922119"><tspan dx="0" dy="0" fill="#000000" font-family="Arial" font-size="10.375px" font-weight="700">4</tspan></tspan></text>
   <text transform="translate(67.131 201.06)" x="85.096016" y="9.3922119" style="line-height:125%" xml:space="preserve"><tspan x="85.096016" y="9.3922119"><tspan dx="0" dy="0" fill="#000000" font-family="Arial" font-size="10.375px" font-weight="700">5</tspan></tspan></text>
   <text transform="translate(67.131 201.06)" x="102.11522" y="9.3922119" style="line-height:125%" xml:space="preserve"><tspan x="102.11522" y="9.3922119"><tspan dx="0" dy="0" fill="#000000" font-family="Arial" font-size="10.375px" font-weight="700">6</tspan></tspan></text>
   <text transform="translate(67.131 201.06)" x="119.13442" y="9.3922119" style="line-height:125%" xml:space="preserve"><tspan x="119.13442" y="9.3922119"><tspan dx="0" dy="0" fill="#000000" font-family="Arial" font-size="10.375px" font-weight="700">7</tspan></tspan></text>
   <text transform="translate(67.131 201.06)" x="136.15363" y="9.3922119" style="line-height:125%" xml:space="preserve"><tspan x="136.15363" y="9.3922119"><tspan dx="0" dy="0" fill="#000000" font-family="Arial" font-size="10.375px" font-weight="700">8</tspan></tspan></text>
   <text transform="translate(67.131 201.06)" x="153.17282" y="9.3922119" style="line-height:125%" xml:space="preserve"><tspan x="153.17282" y="9.3922119" fill="#000000" font-family="Arial" font-size="10.375px" font-weight="700"><tspan dx="0" dy="0">9</tspan><tspan dx="8.4125891" dy="0">10</tspan></tspan></text>
  </g>
  <g transform="matrix(.26458 0 0 .26458 525.51 88.784)" clip-path="url(#clipEmfPath5-63)">
   <text transform="translate(140.88 219.93)" y="9.3922119" fill="#000000" font-family="Arial" font-size="10.375px" font-weight="700" letter-spacing="0px" word-spacing="0px" style="line-height:125%" xml:space="preserve"><tspan x="0" y="9.3922119"><tspan dx="0" dy="0" fill="#000000" font-family="Arial" font-size="10.375px" font-weight="700">Years</tspan></tspan></text>
  </g>
  <g transform="matrix(.26458 0 0 .26458 525.51 88.784)" clip-path="url(#clipEmfPath6-09)">
   <text transform="rotate(-90 85.914 66.058)" y="9.3922119" fill="#000000" font-family="Arial" font-size="10.375px" font-weight="700" letter-spacing="0px" word-spacing="0px" style="line-height:125%" xml:space="preserve"><tspan x="0" y="9.3922119"><tspan dx="0" dy="0" fill="#000000" font-family="Arial" font-size="10.375px" font-weight="700">Population</tspan></tspan></text>
  </g>
 </g>
</svg>
