<?xml version="1.0" encoding="UTF-8"?>
<!-- Created with Inkscape (http://www.inkscape.org/) -->
<svg width="59.187mm" height="56.341mm" version="1.1" viewBox="0 0 59.187042 56.340642" xmlns="http://www.w3.org/2000/svg" xmlns:cc="http://creativecommons.org/ns#" xmlns:dc="http://purl.org/dc/elements/1.1/" xmlns:rdf="http://www.w3.org/1999/02/22-rdf-syntax-ns#">
 <defs>
  <clipPath id="clipEmfPath1-75">
   <path d="m0 0.15988h263.8v255.8h-263.8z"/>
  </clipPath>
  <clipPath id="clipEmfPath3-67">
   <path d="m66.186 53.964h177.76v141.59h-177.76z"/>
  </clipPath>
  <clipPath id="clipEmfPath4-971">
   <path d="m87.933 10.543h87.933v23.598h-87.933z"/>
  </clipPath>
  <clipPath id="clipEmfPath5-3">
   <path d="m138.99 217.26h32.147v19.822h-32.147z"/>
  </clipPath>
  <clipPath id="clipEmfPath6-43">
   <path d="m17.019 95.496h18.91v58.523h-18.91z"/>
  </clipPath>
 </defs>
 <metadata>
  <rdf:RDF>
   <cc:Work rdf:about="">
    <dc:format>image/svg+xml</dc:format>
    <dc:type rdf:resource="http://purl.org/dc/dcmitype/StillImage"/>
    <dc:title/>
   </cc:Work>
  </rdf:RDF>
 </metadata>
 <g transform="translate(-531.28 -93.168)">
  <text x="525.51068" y="92.396126" fill="#000000" font-family="Calibri" font-size="3.8861px" font-weight="400" letter-spacing="0px" stroke-width=".26458" word-spacing="0px" style="line-height:125%" xml:space="preserve"><tspan x="0" y="0" stroke-width=".26458"><tspan dx="0" dy="0" fill="#000000" font-family="Calibri" font-size="3.8861px" font-weight="400" stroke-width=".26458"/></tspan></text>
  <g fill="none">
   <path transform="matrix(.26458 0 0 .26458 525.51 88.758)" d="m69.968 57.739h170.19v134.04h-170.19z" clip-path="url(#clipEmfPath1-75)"/>
   <g stroke-linecap="round" stroke-linejoin="round" stroke-width=".94551px">
    <path transform="matrix(.26458 0 0 .26458 525.51 88.758)" d="m69.968 57.739h170.19v134.04h-170.19v-134.04" clip-path="url(#clipEmfPath1-75)" stroke="#808080"/>
    <path transform="matrix(.26458 0 0 .26458 525.51 88.758)" d="m69.968 115.32 5.6731-44.364 5.6731 92.505 5.6731-57.579 5.6731-24.542 5.6731 50.972 5.6731-65.131 5.6731 109.5 5.6731-35.869 5.6731-68.907 5.6731 88.729 5.6731-61.355 5.6731-9.4393 5.6731 19.822 5.6731-33.037 5.6731 68.907 5.6731-68.907 5.6731 68.907 5.6731-68.907 5.6731 67.019 5.6731-68.907 5.6731 75.514 5.6731-67.963 5.6731 45.308 5.6731-61.355 5.6731 113.27 5.6731-31.15 5.6731-67.963 5.6731 54.748 5.6731-67.019 5.6731 105.72m-170.19-58.523" clip-path="url(#clipEmfPath3-67)" stroke="#000080"/>
   </g>
  </g>
  <g fill="#000080" fill-rule="evenodd" stroke="#000080" stroke-linecap="round" stroke-linejoin="round" stroke-width=".94551px">
   <path transform="matrix(.26458 0 0 .26458 525.51 88.758)" d="m69.968 111.54 2.8365 3.7757-2.8365 3.7757-3.782-3.7757z" clip-path="url(#clipEmfPath3-67)"/>
   <path transform="matrix(.26458 0 0 .26458 525.51 88.758)" d="m75.641 70.954m0-3.7757 2.8365 3.7757-2.8365 2.8318-3.782-2.8318z" clip-path="url(#clipEmfPath3-67)"/>
   <path transform="matrix(.26458 0 0 .26458 525.51 88.758)" d="m81.314 163.46m0-3.7757 2.8365 3.7757-2.8365 2.8318-3.782-2.8318z" clip-path="url(#clipEmfPath3-67)"/>
   <path transform="matrix(.26458 0 0 .26458 525.51 88.758)" d="m86.987 105.88m0-3.7757 2.8365 3.7757-2.8365 2.8318-3.782-2.8318z" clip-path="url(#clipEmfPath3-67)"/>
   <path transform="matrix(.26458 0 0 .26458 525.51 88.758)" d="m92.66 81.337m0-3.7757 2.8365 3.7757-2.8365 2.8318-3.782-2.8318z" clip-path="url(#clipEmfPath3-67)"/>
   <path transform="matrix(.26458 0 0 .26458 525.51 88.758)" d="m98.333 132.31m0-3.7757 2.8365 3.7757-2.8365 2.8318-3.782-2.8318z" clip-path="url(#clipEmfPath3-67)"/>
   <path transform="matrix(.26458 0 0 .26458 525.51 88.758)" d="m104.01 67.179m0-3.7757 2.8365 3.7757-2.8365 2.8318-3.782-2.8318z" clip-path="url(#clipEmfPath3-67)"/>
   <path transform="matrix(.26458 0 0 .26458 525.51 88.758)" d="m109.68 176.67m0-2.8318 2.8365 2.8318-2.8365 3.7757-3.782-3.7757z" clip-path="url(#clipEmfPath3-67)"/>
   <path transform="matrix(.26458 0 0 .26458 525.51 88.758)" d="m115.35 140.8m0-3.7757 2.8365 3.7757-2.8365 2.8318-3.782-2.8318z" clip-path="url(#clipEmfPath3-67)"/>
   <path transform="matrix(.26458 0 0 .26458 525.51 88.758)" d="m121.03 71.898m0-3.7757 2.8365 3.7757-2.8365 2.8318-3.782-2.8318z" clip-path="url(#clipEmfPath3-67)"/>
   <path transform="matrix(.26458 0 0 .26458 525.51 88.758)" d="m126.7 160.63m0-3.7757 2.8365 3.7757-2.8365 2.8318-3.782-2.8318z" clip-path="url(#clipEmfPath3-67)"/>
   <path transform="matrix(.26458 0 0 .26458 525.51 88.758)" d="m132.37 99.272m0-2.8318 2.8365 2.8318-2.8365 3.7757-3.782-3.7757z" clip-path="url(#clipEmfPath3-67)"/>
   <path transform="matrix(.26458 0 0 .26458 525.51 88.758)" d="m138.04 89.833m0-3.7757 2.8365 3.7757-2.8365 3.7757-3.782-3.7757z" clip-path="url(#clipEmfPath3-67)"/>
   <path transform="matrix(.26458 0 0 .26458 525.51 88.758)" d="m143.72 109.66m0-3.7757 2.8365 3.7757-2.8365 2.8318-3.782-2.8318z" clip-path="url(#clipEmfPath3-67)"/>
   <path transform="matrix(.26458 0 0 .26458 525.51 88.758)" d="m149.39 76.618m0-3.7757 2.8365 3.7757-2.8365 2.8318-3.782-2.8318z" clip-path="url(#clipEmfPath3-67)"/>
   <path transform="matrix(.26458 0 0 .26458 525.51 88.758)" d="m155.06 145.52m0-3.7757 2.8365 3.7757-2.8365 3.7757-3.782-3.7757z" clip-path="url(#clipEmfPath3-67)"/>
   <path transform="matrix(.26458 0 0 .26458 525.51 88.758)" d="m160.74 76.618m0-3.7757 2.8365 3.7757-2.8365 2.8318-3.782-2.8318z" clip-path="url(#clipEmfPath3-67)"/>
   <path transform="matrix(.26458 0 0 .26458 525.51 88.758)" d="m166.41 145.52m0-2.8318 2.8365 2.8318-2.8365 3.7757-3.782-3.7757z" clip-path="url(#clipEmfPath3-67)"/>
   <path transform="matrix(.26458 0 0 .26458 525.51 88.758)" d="m172.08 76.618m0-2.8318 2.8365 2.8318-2.8365 3.7757-3.782-3.7757z" clip-path="url(#clipEmfPath3-67)"/>
   <path transform="matrix(.26458 0 0 .26458 525.51 88.758)" d="m177.76 143.64m0-2.8318 2.8365 2.8318-2.8365 3.7757-3.782-3.7757z" clip-path="url(#clipEmfPath3-67)"/>
   <path transform="matrix(.26458 0 0 .26458 525.51 88.758)" d="m183.43 74.73m0-2.8318 2.8365 2.8318-2.8365 3.7757-3.782-3.7757z" clip-path="url(#clipEmfPath3-67)"/>
   <path transform="matrix(.26458 0 0 .26458 525.51 88.758)" d="m189.1 150.24m0-2.8318 3.782 2.8318-3.782 3.7757-3.782-3.7757z" clip-path="url(#clipEmfPath3-67)"/>
   <path transform="matrix(.26458 0 0 .26458 525.51 88.758)" d="m194.78 82.281m0-2.8318 2.8365 2.8318-2.8365 3.7757-3.782-3.7757z" clip-path="url(#clipEmfPath3-67)"/>
   <path transform="matrix(.26458 0 0 .26458 525.51 88.758)" d="m200.45 127.59m0-3.7757 3.782 3.7757-3.782 2.8318-3.782-2.8318z" clip-path="url(#clipEmfPath3-67)"/>
   <path transform="matrix(.26458 0 0 .26458 525.51 88.758)" d="m206.12 66.235m0-2.8318 2.8365 2.8318-2.8365 3.7757-3.782-3.7757z" clip-path="url(#clipEmfPath3-67)"/>
   <path transform="matrix(.26458 0 0 .26458 525.51 88.758)" d="m211.79 179.51m0-3.7757 3.782 3.7757-3.782 3.7757-3.782-3.7757z" clip-path="url(#clipEmfPath3-67)"/>
   <path transform="matrix(.26458 0 0 .26458 525.51 88.758)" d="m217.47 148.36m0-2.8318 2.8365 2.8318-2.8365 3.7757-3.782-3.7757z" clip-path="url(#clipEmfPath3-67)"/>
   <path transform="matrix(.26458 0 0 .26458 525.51 88.758)" d="m223.14 80.394m0-3.7757 3.782 3.7757-3.782 2.8318-3.782-2.8318z" clip-path="url(#clipEmfPath3-67)"/>
   <path transform="matrix(.26458 0 0 .26458 525.51 88.758)" d="m228.81 135.14m0-3.7757 2.8365 3.7757-2.8365 2.8318-3.782-2.8318z" clip-path="url(#clipEmfPath3-67)"/>
   <path transform="matrix(.26458 0 0 .26458 525.51 88.758)" d="m234.49 68.123m0-3.7757 3.782 3.7757-3.782 2.8318-3.782-2.8318z" clip-path="url(#clipEmfPath3-67)"/>
   <path transform="matrix(.26458 0 0 .26458 525.51 88.758)" d="m240.16 173.84m0-3.7757 2.8365 3.7757-2.8365 2.8318-3.782-2.8318z" clip-path="url(#clipEmfPath3-67)"/>
  </g>
  <g transform="matrix(.26458 0 0 .26458 525.51 88.758)" clip-path="url(#clipEmfPath4-971)">
   <text transform="translate(90.769 14.319)" y="11.994873" fill="#000000" font-family="Arial" font-size="13.25px" font-weight="700" letter-spacing="0px" word-spacing="0px" style="line-height:125%" xml:space="preserve"><tspan x="0" y="11.994873"><tspan dx="0" dy="0" fill="#000000" font-family="Arial" font-size="13.25px" font-weight="700">r=2.9  Chaos!</tspan></tspan></text>
  </g>
  <g transform="matrix(.26458 0 0 .26458 525.51 88.758)" clip-path="url(#clipEmfPath1-75)" fill="#000000" font-family="Arial" font-size="10.375px" font-weight="700" letter-spacing="0px" word-spacing="0px">
   <text transform="translate(55.785 185.17)" y="9.3922119" style="line-height:125%" xml:space="preserve"><tspan x="0" y="9.3922119"><tspan dx="0" dy="0" fill="#000000" font-family="Arial" font-size="10.375px" font-weight="700">0</tspan></tspan></text>
   <text transform="translate(55.785 185.17)" x="-12.291647" y="-10.430221" style="line-height:125%" xml:space="preserve"><tspan x="-12.291647" y="-10.430221"><tspan dx="0" dy="0" fill="#000000" font-family="Arial" font-size="10.375px" font-weight="700">200</tspan></tspan></text>
   <text transform="translate(55.785 185.17)" x="-12.291647" y="-29.308727" style="line-height:125%" xml:space="preserve"><tspan x="-12.291647" y="-29.308727"><tspan dx="0" dy="0" fill="#000000" font-family="Arial" font-size="10.375px" font-weight="700">400</tspan></tspan></text>
   <text transform="translate(55.785 185.17)" x="-12.291647" y="-48.187237" style="line-height:125%" xml:space="preserve"><tspan x="-12.291647" y="-48.187237"><tspan dx="0" dy="0" fill="#000000" font-family="Arial" font-size="10.375px" font-weight="700">600</tspan></tspan></text>
   <text transform="translate(55.785 185.17)" x="-12.291647" y="-67.065742" style="line-height:125%" xml:space="preserve"><tspan x="-12.291647" y="-67.065742"><tspan dx="0" dy="0" fill="#000000" font-family="Arial" font-size="10.375px" font-weight="700">800</tspan></tspan></text>
   <text transform="translate(55.785 185.17)" x="-17.964714" y="-85.944252" style="line-height:125%" xml:space="preserve"><tspan x="-17.964714" y="-85.944252"><tspan dx="0" dy="0" fill="#000000" font-family="Arial" font-size="10.375px" font-weight="700">1000</tspan></tspan></text>
   <text transform="translate(55.785 185.17)" x="-17.964714" y="-105.76669" style="line-height:125%" xml:space="preserve"><tspan x="-17.964714" y="-105.76669"><tspan dx="0" dy="0" fill="#000000" font-family="Arial" font-size="10.375px" font-weight="700">1200</tspan></tspan></text>
   <text transform="translate(55.785 185.17)" x="-17.964714" y="-124.64519" style="line-height:125%" xml:space="preserve"><tspan x="-17.964714" y="-124.64519"><tspan dx="0" dy="0" fill="#000000" font-family="Arial" font-size="10.375px" font-weight="700">1400</tspan></tspan></text>
  </g>
  <g transform="matrix(.26458 0 0 .26458 525.51 88.758)" clip-path="url(#clipEmfPath1-75)" fill="#000000" font-family="Arial" font-size="10.375px" font-weight="700" letter-spacing="0px" word-spacing="0px">
   <text transform="translate(67.131 201.22)" y="9.3922119" style="line-height:125%" xml:space="preserve"><tspan x="0" y="9.3922119"><tspan dx="0" dy="0" fill="#000000" font-family="Arial" font-size="10.375px" font-weight="700">0</tspan></tspan></text>
   <text transform="translate(67.131 201.22)" x="28.365337" y="9.3922119" style="line-height:125%" xml:space="preserve"><tspan x="28.365337" y="9.3922119"><tspan dx="0" dy="0" fill="#000000" font-family="Arial" font-size="10.375px" font-weight="700">5</tspan></tspan></text>
   <text transform="translate(67.131 201.22)" x="53.894142" y="9.3922119" style="line-height:125%" xml:space="preserve"><tspan x="53.894142" y="9.3922119"><tspan dx="0" dy="0" fill="#000000" font-family="Arial" font-size="10.375px" font-weight="700">10</tspan></tspan></text>
   <text transform="translate(67.131 201.22)" x="82.259483" y="9.3922119" style="line-height:125%" xml:space="preserve"><tspan x="82.259483" y="9.3922119"><tspan dx="0" dy="0" fill="#000000" font-family="Arial" font-size="10.375px" font-weight="700">15</tspan></tspan></text>
   <text transform="translate(67.131 201.22)" x="110.62482" y="9.3922119" style="line-height:125%" xml:space="preserve"><tspan x="110.62482" y="9.3922119"><tspan dx="0" dy="0" fill="#000000" font-family="Arial" font-size="10.375px" font-weight="700">20</tspan></tspan></text>
   <text transform="translate(67.131 201.22)" x="138.99016" y="9.3922119" style="line-height:125%" xml:space="preserve"><tspan x="138.99016" y="9.3922119"><tspan dx="0" dy="0" fill="#000000" font-family="Arial" font-size="10.375px" font-weight="700">25</tspan></tspan></text>
   <text transform="translate(67.131 201.22)" x="167.3555" y="9.3922119" style="line-height:125%" xml:space="preserve"><tspan x="167.3555" y="9.3922119"><tspan dx="0" dy="0" fill="#000000" font-family="Arial" font-size="10.375px" font-weight="700">30</tspan></tspan></text>
  </g>
  <g transform="matrix(.26458 0 0 .26458 525.51 88.758)" clip-path="url(#clipEmfPath5-3)">
   <text transform="translate(140.88 220.09)" y="9.3922119" fill="#000000" font-family="Arial" font-size="10.375px" font-weight="700" letter-spacing="0px" word-spacing="0px" style="line-height:125%" xml:space="preserve"><tspan x="0" y="9.3922119"><tspan dx="0" dy="0" fill="#000000" font-family="Arial" font-size="10.375px" font-weight="700">Years</tspan></tspan></text>
  </g>
  <g transform="matrix(.26458 0 0 .26458 525.51 88.758)" clip-path="url(#clipEmfPath6-43)">
   <text transform="rotate(-90 85.994 66.138)" y="9.3922119" fill="#000000" font-family="Arial" font-size="10.375px" font-weight="700" letter-spacing="0px" word-spacing="0px" style="line-height:125%" xml:space="preserve"><tspan x="0" y="9.3922119"><tspan dx="0" dy="0" fill="#000000" font-family="Arial" font-size="10.375px" font-weight="700">Population</tspan></tspan></text>
  </g>
 </g>
</svg>
