<?xml version="1.0" encoding="UTF-8"?>
<!-- Created with Inkscape (http://www.inkscape.org/) -->
<svg width="61.34mm" height="48.902mm" version="1.1" viewBox="0 0 61.340236 48.902166" xmlns="http://www.w3.org/2000/svg" xmlns:cc="http://creativecommons.org/ns#" xmlns:dc="http://purl.org/dc/elements/1.1/" xmlns:rdf="http://www.w3.org/1999/02/22-rdf-syntax-ns#">
 <defs>
  <clipPath id="clipEmfPath1-334">
   <path d="m0 0h263.8v212.96h-263.8z"/>
  </clipPath>
  <clipPath id="clipEmfPath3-506">
   <path d="m65.283 18.634h179.86v147.74h-179.86z"/>
  </clipPath>
  <clipPath id="clipEmfPath4-00">
   <path d="m113.25 187.67h83.936v19.965h-83.936z"/>
  </clipPath>
  <clipPath id="clipEmfPath5-89">
   <path d="m9.3262 79.859h19.985v25.289h-19.985z"/>
  </clipPath>
 </defs>
 <metadata>
  <rdf:RDF>
   <cc:Work rdf:about="">
    <dc:format>image/svg+xml</dc:format>
    <dc:type rdf:resource="http://purl.org/dc/dcmitype/StillImage"/>
    <dc:title/>
   </cc:Work>
  </rdf:RDF>
 </metadata>
 <g transform="translate(-413.99 -151.58)">
  <text x="410.28131" y="150.82068" fill="#000000" font-family="Calibri" font-size="3.8861px" font-weight="400" letter-spacing="0px" stroke-width=".26458" word-spacing="0px" style="line-height:125%" xml:space="preserve"><tspan x="0" y="0" stroke-width=".26458"><tspan dx="0" dy="0" fill="#000000" font-family="Calibri" font-size="3.8861px" font-weight="400" stroke-width=".26458"/></tspan></text>
  <g fill="none">
   <path transform="matrix(.26458 0 0 .26458 410.28 147.18)" d="m69.28 21.296h171.87v141.08h-171.87z" clip-path="url(#clipEmfPath1-334)"/>
   <g stroke-linecap="round" stroke-linejoin="round" stroke-width="1.3323px">
    <path transform="matrix(.26458 0 0 .26458 410.28 147.18)" d="m69.28 21.296h171.87v141.08h-171.87v-141.08" clip-path="url(#clipEmfPath1-334)" stroke="#808080"/>
    <path transform="matrix(.26458 0 0 .26458 410.28 147.18)" d="m65.283 162.38h3.9969m-3.9969-22.627h3.9969m-3.9969-23.958h3.9969m-3.9969-23.958h3.9969m-3.9969-22.627h3.9969m-3.9969-23.958h3.9969m-3.9969-23.958h3.9969m0 141.08h171.87m-171.87 3.9929v-3.9929m27.979 3.9929v-3.9929m29.311 3.9929v-3.9929m27.979 3.9929v-3.9929m29.311 3.9929v-3.9929m27.979 3.9929v-3.9929m29.311 3.9929v-3.9929" clip-path="url(#clipEmfPath1-334)" stroke="#000"/>
   </g>
   <g stroke="#000080" stroke-linecap="round" stroke-linejoin="round" stroke-width="1.3323px">
    <path transform="matrix(.26458 0 0 .26458 410.28 147.18)" d="m69.28 154.39h5.3292" clip-path="url(#clipEmfPath3-506)"/>
    <path transform="matrix(.26458 0 0 .26458 410.28 147.18)" d="m74.609 154.39 5.3292-1.331" clip-path="url(#clipEmfPath3-506)"/>
    <path transform="matrix(.26458 0 0 .26458 410.28 147.18)" d="m79.939 153.06 5.3292-1.331" clip-path="url(#clipEmfPath3-506)"/>
    <path transform="matrix(.26458 0 0 .26458 410.28 147.18)" d="m85.268 151.73h6.6616" clip-path="url(#clipEmfPath3-506)"/>
    <path transform="matrix(.26458 0 0 .26458 410.28 147.18)" d="m91.929 151.73 1.3323-1.331h3.9969" clip-path="url(#clipEmfPath3-506)"/>
   </g>
  </g>
  <g fill="#000080" fill-rule="evenodd" stroke="#000080" stroke-linecap="round" stroke-linejoin="round" stroke-width="1.3323px">
   <path transform="matrix(.26458 0 0 .26458 410.28 147.18)" d="m69.28 151.73 2.6646 2.662-2.6646 3.9929-3.9969-3.9929z" clip-path="url(#clipEmfPath3-506)"/>
   <path transform="matrix(.26458 0 0 .26458 410.28 147.18)" d="m74.609 154.39m0-3.9929 2.6646 3.9929-2.6646 2.662-3.9969-2.662z" clip-path="url(#clipEmfPath3-506)"/>
   <path transform="matrix(.26458 0 0 .26458 410.28 147.18)" d="m79.939 153.06m0-2.662 3.9969 2.662-3.9969 3.9929-2.6646-3.9929z" clip-path="url(#clipEmfPath3-506)"/>
   <path transform="matrix(.26458 0 0 .26458 410.28 147.18)" d="m85.268 151.73m0-2.662 3.9969 2.662-3.9969 3.9929-2.6646-3.9929z" clip-path="url(#clipEmfPath3-506)"/>
   <path transform="matrix(.26458 0 0 .26458 410.28 147.18)" d="m91.929 151.73m0-3.9929 2.6646 3.9929-2.6646 2.662-3.9969-2.662z" clip-path="url(#clipEmfPath3-506)"/>
   <path transform="matrix(.26458 0 0 .26458 410.28 147.18)" d="m97.259 150.4m0-3.9929 3.9969 3.9929-3.9969 2.662-2.6646-2.662z" clip-path="url(#clipEmfPath3-506)"/>
   <path transform="matrix(.26458 0 0 .26458 410.28 147.18)" d="m126.57 142.41m0-3.9929 2.6646 3.9929-2.6646 2.662-3.9969-2.662z" clip-path="url(#clipEmfPath3-506)"/>
   <path transform="matrix(.26458 0 0 .26458 410.28 147.18)" d="m183.86 110.47m0-3.9929 2.6646 3.9929-2.6646 2.662-3.9969-2.662z" clip-path="url(#clipEmfPath3-506)"/>
   <path transform="matrix(.26458 0 0 .26458 410.28 147.18)" d="m241.15 26.62m0-3.9929 2.6646 3.9929-2.6646 2.662-3.9969-2.662z" clip-path="url(#clipEmfPath3-506)"/>
  </g>
  <g transform="matrix(.26458 0 0 .26458 410.28 147.18)" clip-path="url(#clipEmfPath1-334)" fill="#000000" font-family="Arial" font-size="10.688px" font-weight="700" letter-spacing="0px" word-spacing="0px">
   <text transform="translate(54.625 155.72)" y="9.6751099" style="line-height:125%" xml:space="preserve"><tspan x="0" y="9.6751099"><tspan dx="0" dy="0" fill="#000000" font-family="Arial" font-size="10.688px" font-weight="700">0</tspan></tspan></text>
   <text transform="translate(54.625 155.72)" x="-17.320047" y="-14.282513" style="line-height:125%" xml:space="preserve"><tspan x="-17.320047" y="-14.282513"><tspan dx="0" dy="0" fill="#000000" font-family="Arial" font-size="10.688px" font-weight="700">3000</tspan></tspan></text>
   <text transform="translate(54.625 155.72)" x="-17.320047" y="-36.909157" style="line-height:125%" xml:space="preserve"><tspan x="-17.320047" y="-36.909157"><tspan dx="0" dy="0" fill="#000000" font-family="Arial" font-size="10.688px" font-weight="700">6000</tspan></tspan></text>
   <text transform="translate(54.625 155.72)" x="-17.320047" y="-60.866779" style="line-height:125%" xml:space="preserve"><tspan x="-17.320047" y="-60.866779"><tspan dx="0" dy="0" fill="#000000" font-family="Arial" font-size="10.688px" font-weight="700">9000</tspan></tspan></text>
   <text transform="translate(54.625 155.72)" x="-23.981604" y="-83.493423" style="line-height:125%" xml:space="preserve"><tspan x="-23.981604" y="-83.493423"><tspan dx="0" dy="0" fill="#000000" font-family="Arial" font-size="10.688px" font-weight="700">12000</tspan></tspan></text>
   <text transform="translate(54.625 155.72)" x="-23.981604" y="-107.45104" style="line-height:125%" xml:space="preserve"><tspan x="-23.981604" y="-107.45104"><tspan dx="0" dy="0" fill="#000000" font-family="Arial" font-size="10.688px" font-weight="700">15000</tspan></tspan></text>
   <text transform="translate(54.625 155.72)" x="-23.981604" y="-131.40866" style="line-height:125%" xml:space="preserve"><tspan x="-23.981604" y="-131.40866"><tspan dx="0" dy="0" fill="#000000" font-family="Arial" font-size="10.688px" font-weight="700">18000</tspan></tspan></text>
  </g>
  <g transform="matrix(.26458 0 0 .26458 410.28 147.18)" clip-path="url(#clipEmfPath1-334)" fill="#000000" font-family="Arial" font-size="10.688px" font-weight="700" letter-spacing="0px" word-spacing="0px">
   <text transform="translate(65.283 171.7)" y="9.6751099" style="line-height:125%" xml:space="preserve"><tspan x="0" y="9.6751099"><tspan dx="0" dy="0" fill="#000000" font-family="Arial" font-size="10.688px" font-weight="700">0</tspan></tspan></text>
   <text transform="translate(65.283 171.7)" x="29.310848" y="9.6751099" style="line-height:125%" xml:space="preserve"><tspan x="29.310848" y="9.6751099"><tspan dx="0" dy="0" fill="#000000" font-family="Arial" font-size="10.688px" font-weight="700">5</tspan></tspan></text>
   <text transform="translate(65.283 171.7)" x="54.624763" y="9.6751099" style="line-height:125%" xml:space="preserve"><tspan x="54.624763" y="9.6751099"><tspan dx="0" dy="0" fill="#000000" font-family="Arial" font-size="10.688px" font-weight="700">10</tspan></tspan></text>
   <text transform="translate(65.283 171.7)" x="83.935616" y="9.6751099" style="line-height:125%" xml:space="preserve"><tspan x="83.935616" y="9.6751099"><tspan dx="0" dy="0" fill="#000000" font-family="Arial" font-size="10.688px" font-weight="700">15</tspan></tspan></text>
   <text transform="translate(65.283 171.7)" x="111.91415" y="9.6751099" style="line-height:125%" xml:space="preserve"><tspan x="111.91415" y="9.6751099"><tspan dx="0" dy="0" fill="#000000" font-family="Arial" font-size="10.688px" font-weight="700">20</tspan></tspan></text>
   <text transform="translate(65.283 171.7)" x="141.22501" y="9.6751099" style="line-height:125%" xml:space="preserve"><tspan x="141.22501" y="9.6751099"><tspan dx="0" dy="0" fill="#000000" font-family="Arial" font-size="10.688px" font-weight="700">25</tspan></tspan></text>
   <text transform="translate(65.283 171.7)" x="169.20354" y="9.6751099" style="line-height:125%" xml:space="preserve"><tspan x="169.20354" y="9.6751099"><tspan dx="0" dy="0" fill="#000000" font-family="Arial" font-size="10.688px" font-weight="700">30</tspan></tspan></text>
  </g>
  <g transform="matrix(.26458 0 0 .26458 410.28 147.18)" clip-path="url(#clipEmfPath4-00)">
   <text transform="translate(114.58 191.66)" y="9.6751099" fill="#000000" font-family="Arial" font-size="10.688px" font-weight="700" letter-spacing="0px" word-spacing="0px" style="line-height:125%" xml:space="preserve"><tspan x="0" y="9.6751099"><tspan dx="0" dy="0" fill="#000000" font-family="Arial" font-size="10.688px" font-weight="700">Years from now</tspan></tspan></text>
  </g>
  <g transform="matrix(.26458 0 0 .26458 410.28 147.18)" clip-path="url(#clipEmfPath5-89)">
   <text transform="rotate(-90 57.904 45.913)" y="9.6751099" fill="#000000" font-family="Arial" font-size="10.688px" font-weight="700" letter-spacing="0px" word-spacing="0px" style="line-height:125%" xml:space="preserve"><tspan x="0" y="9.6751099"><tspan dx="0" dy="0" fill="#000000" font-family="Arial" font-size="10.688px" font-weight="700">Fish</tspan></tspan></text>
  </g>
  <path d="m428.61 188.03c15.876-0.88942 27.801-8.2883 35.82-17.604 5.015-5.8261 8.5019-12.402 10.472-18.604" fill="none" stroke="#000080" stroke-width=".52917"/>
 </g>
</svg>
