<?xml version="1.0" encoding="utf-8"?><!DOCTYPE svg PUBLIC "-//W3C//DTD SVG 1.1//EN" "http://www.w3.org/Graphics/SVG/1.1/DTD/svg11.dtd"><svg xmlns="http://www.w3.org/2000/svg" xmlns:xlink="http://www.w3.org/1999/xlink" id="preview" width="650" height="400" viewBox="0 0 650 400" xunitlength="28" yunitlength="0.7" xmin="0" xmax="20" ymin="0" ymax="450" ox="40" oy="35"><defs><style type="text/css">@import url("http://cdnjs.cloudflare.com/ajax/libs/KaTeX/0.2.0/katex.min.css")</style><style type="text/css"><![CDATA[text {font-family="KaTeX_Main,serif"}]]></style></defs><path d=" M40,50 40,365 M68,50 68,365 M96,50 96,365 M124,50 124,365 M152,50 152,365 M180,50 180,365 M208,50 208,365 M236,50 236,365 M264,50 264,365 M292,50 292,365 M320,50 320,365 M348,50 348,365 M376,50 376,365 M404,50 404,365 M432,50 432,365 M460,50 460,365 M488,50 488,365 M516,50 516,365 M544,50 544,365 M572,50 572,365 M600,50 600,365 M40,365 600,365 M40,330 600,330 M40,295 600,295 M40,260 600,260 M40,225 600,225 M40,190 600,190 M40,155 600,155 M40,120 600,120 M40,85 600,85 M40,50 600,50" stroke-width="1" stroke="grey" fill="none"></path><path d="M 609.6 360.2 L 624 365 L 609.6 369.8 L 612 365 z" stroke-width="1" stroke="black" fill="black"></path><path d="M 35.2 40.4 L 40 26 L 44.8 40.4 L 40 38 z" stroke-width="1" stroke="black" fill="black"></path><path d="M28,365 612,365 M40,38 40,377 M40,369.25 40,360.75 M68,369.25 68,360.75 M96,369.25 96,360.75 M124,369.25 124,360.75 M152,369.25 152,360.75 M180,369.25 180,360.75 M208,369.25 208,360.75 M236,369.25 236,360.75 M264,369.25 264,360.75 M292,369.25 292,360.75 M320,369.25 320,360.75 M348,369.25 348,360.75 M376,369.25 376,360.75 M404,369.25 404,360.75 M432,369.25 432,360.75 M460,369.25 460,360.75 M488,369.25 488,360.75 M516,369.25 516,360.75 M544,369.25 544,360.75 M572,369.25 572,360.75 M600,369.25 600,360.75 M44.25,365 35.75,365 M44.25,330 35.75,330 M44.25,295 35.75,295 M44.25,260 35.75,260 M44.25,225 35.75,225 M44.25,190 35.75,190 M44.25,155 35.75,155 M44.25,120 35.75,120 M44.25,85 35.75,85 M44.25,50 35.75,50" stroke-width="2" stroke="black" fill="none"></path><text id="null" x="68" y="384" font-style=""  font-size="17" font-weight="normal" text-anchor="middle" fill="black" stroke-width="0px">1</text><text id="null" x="96" y="384" font-style=""  font-size="17" font-weight="normal" text-anchor="middle" fill="black" stroke-width="0px">2</text><text id="null" x="124" y="384" font-style=""  font-size="17" font-weight="normal" text-anchor="middle" fill="black" stroke-width="0px">3</text><text id="null" x="152" y="384" font-style=""  font-size="17" font-weight="normal" text-anchor="middle" fill="black" stroke-width="0px">4</text><text id="null" x="180" y="384" font-style=""  font-size="17" font-weight="normal" text-anchor="middle" fill="black" stroke-width="0px">5</text><text id="null" x="208" y="384" font-style=""  font-size="17" font-weight="normal" text-anchor="middle" fill="black" stroke-width="0px">6</text><text id="null" x="236" y="384" font-style=""  font-size="17" font-weight="normal" text-anchor="middle" fill="black" stroke-width="0px">7</text><text id="null" x="264" y="384" font-style=""  font-size="17" font-weight="normal" text-anchor="middle" fill="black" stroke-width="0px">8</text><text id="null" x="292" y="384" font-style=""  font-size="17" font-weight="normal" text-anchor="middle" fill="black" stroke-width="0px">9</text><text id="null" x="320" y="384" font-style=""  font-size="17" font-weight="normal" text-anchor="middle" fill="black" stroke-width="0px">10</text><text id="null" x="348" y="384" font-style=""  font-size="17" font-weight="normal" text-anchor="middle" fill="black" stroke-width="0px">11</text><text id="null" x="376" y="384" font-style=""  font-size="17" font-weight="normal" text-anchor="middle" fill="black" stroke-width="0px">12</text><text id="null" x="404" y="384" font-style=""  font-size="17" font-weight="normal" text-anchor="middle" fill="black" stroke-width="0px">13</text><text id="null" x="432" y="384" font-style=""  font-size="17" font-weight="normal" text-anchor="middle" fill="black" stroke-width="0px">14</text><text id="null" x="460" y="384" font-style=""  font-size="17" font-weight="normal" text-anchor="middle" fill="black" stroke-width="0px">15</text><text id="null" x="488" y="384" font-style=""  font-size="17" font-weight="normal" text-anchor="middle" fill="black" stroke-width="0px">16</text><text id="null" x="516" y="384" font-style=""  font-size="17" font-weight="normal" text-anchor="middle" fill="black" stroke-width="0px">17</text><text id="null" x="544" y="384" font-style=""  font-size="17" font-weight="normal" text-anchor="middle" fill="black" stroke-width="0px">18</text><text id="null" x="572" y="384" font-style=""  font-size="17" font-weight="normal" text-anchor="middle" fill="black" stroke-width="0px">19</text><text id="null" x="600" y="384" font-style=""  font-size="17" font-weight="normal" text-anchor="middle" fill="black" stroke-width="0px">20</text><text id="null" x="32.333" y="335.666" font-style=""  font-size="17" font-weight="normal" text-anchor="end" fill="black" stroke-width="0px">50</text><text id="null" x="32.333" y="300.666" font-style=""  font-size="17" font-weight="normal" text-anchor="end" fill="black" stroke-width="0px">100</text><text id="null" x="32.333" y="265.666" font-style=""  font-size="17" font-weight="normal" text-anchor="end" fill="black" stroke-width="0px">150</text><text id="null" x="32.333" y="230.666" font-style=""  font-size="17" font-weight="normal" text-anchor="end" fill="black" stroke-width="0px">200</text><text id="null" x="32.333" y="195.666" font-style=""  font-size="17" font-weight="normal" text-anchor="end" fill="black" stroke-width="0px">250</text><text id="null" x="32.333" y="160.666" font-style=""  font-size="17" font-weight="normal" text-anchor="end" fill="black" stroke-width="0px">300</text><text id="null" x="32.333" y="125.666" font-style=""  font-size="17" font-weight="normal" text-anchor="end" fill="black" stroke-width="0px">350</text><text id="null" x="32.333" y="90.666" font-style=""  font-size="17" font-weight="normal" text-anchor="end" fill="black" stroke-width="0px">400</text><text id="null" x="32.333" y="55.666" font-style=""  font-size="17" font-weight="normal" text-anchor="end" fill="black" stroke-width="0px">450</text><text id="null" x="40" y="18.333" font-style="italic"  font-size="17" font-weight="normal" text-anchor="middle" fill="black" stroke-width="0px">y</text><text id="null" x="631.666" y="370.666" font-style="italic"  font-size="17" font-weight="normal" text-anchor="start" fill="black" stroke-width="0px">x</text><path id="null" d="M40,193.5 40.861,193.343 41.723,193.187 42.584,193.031 43.446,192.874 44.307,192.718 45.169,192.561 46.030,192.404 46.892,192.247 47.753,192.090 48.615,191.933 49.476,191.775 50.338,191.617 51.199,191.460 52.061,191.302 52.923,191.144 53.784,190.986 54.646,190.827 55.507,190.669 56.369,190.510 57.230,190.351 58.092,190.192 58.953,190.033 59.815,189.874 60.676,189.715 61.538,189.555 62.399,189.396 63.261,189.236 64.123,189.076 64.984,188.916 65.846,188.756 66.707,188.595 67.569,188.435 68.430,188.274 69.292,188.113 70.153,187.952 71.015,187.791 71.876,187.630 72.738,187.469 73.599,187.307 74.461,187.145 75.323,186.984 76.184,186.822 77.046,186.660 77.907,186.497 78.769,186.335 79.630,186.172 80.492,186.010 81.353,185.847 82.215,185.684 83.076,185.520 83.938,185.357 84.799,185.194 85.661,185.030 86.523,184.866 87.384,184.702 88.246,184.538 89.107,184.374 89.969,184.210 90.830,184.045 91.692,183.881 92.553,183.716 93.415,183.551 94.276,183.386 95.138,183.221 95.999,183.055 96.861,182.890 97.723,182.724 98.584,182.558 99.446,182.392 100.307,182.226 101.169,182.060 102.030,181.893 102.892,181.727 103.753,181.560 104.615,181.393 105.476,181.226 106.338,181.059 107.199,180.891 108.061,180.724 108.923,180.556 109.784,180.388 110.646,180.220 111.507,180.052 112.369,179.884 113.230,179.715 114.092,179.547 114.953,179.378 115.815,179.209 116.676,179.040 117.538,178.871 118.399,178.701 119.261,178.532 120.122,178.362 120.984,178.192 121.846,178.022 122.707,177.852 123.569,177.682 124.430,177.512 125.292,177.341 126.153,177.170 127.015,176.999 127.876,176.828 128.738,176.657 129.599,176.486 130.461,176.314 131.322,176.142 132.184,175.971 133.046,175.799 133.907,175.626 134.769,175.454 135.630,175.282 136.492,175.109 137.353,174.936 138.215,174.763 139.076,174.590 139.938,174.417 140.799,174.244 141.661,174.070 142.522,173.896 143.384,173.722 144.246,173.548 145.107,173.374 145.969,173.200 146.830,173.025 147.692,172.851 148.553,172.676 149.415,172.501 150.276,172.326 151.138,172.150 151.999,171.975 152.861,171.799 153.722,171.623 154.584,171.447 155.446,171.271 156.307,171.095 157.169,170.919 158.030,170.742 158.892,170.565 159.753,170.388 160.615,170.211 161.476,170.034 162.338,169.857 163.199,169.679 164.061,169.501 164.922,169.323 165.784,169.145 166.646,168.967 167.507,168.789 168.369,168.610 169.230,168.432 170.092,168.253 170.953,168.074 171.815,167.894 172.676,167.715 173.538,167.536 174.399,167.356 175.261,167.176 176.122,166.996 176.984,166.816 177.846,166.636 178.707,166.455 179.569,166.274 180.430,166.094 181.292,165.913 182.153,165.731 183.015,165.550 183.876,165.369 184.738,165.187 185.599,165.005 186.461,164.823 187.322,164.641 188.184,164.459 189.046,164.276 189.907,164.094 190.769,163.911 191.630,163.728 192.492,163.545 193.353,163.361 194.215,163.178 195.076,162.994 195.938,162.811 196.799,162.627 197.661,162.442 198.522,162.258 199.384,162.074 200.245,161.889 201.107,161.704 201.969,161.519 202.830,161.334 203.692,161.149 204.553,160.963 205.415,160.778 206.276,160.592 207.138,160.406 207.999,160.220 208.861,160.033 209.722,159.847 210.584,159.660 211.445,159.473 212.307,159.286 213.169,159.099 214.030,158.912 214.892,158.724 215.753,158.536 216.615,158.349 217.476,158.161 218.338,157.972 219.199,157.784 220.061,157.595 220.922,157.407 221.784,157.218 222.645,157.029 223.507,156.840 224.369,156.650 225.230,156.461 226.092,156.271 226.953,156.081 227.815,155.891 228.676,155.700 229.538,155.510 230.399,155.319 231.261,155.129 232.122,154.938 232.984,154.747 233.845,154.555 234.707,154.364 235.569,154.172 236.430,153.980 237.292,153.788 238.153,153.596 239.015,153.404 239.876,153.211 240.738,153.018 241.599,152.826 242.461,152.632 243.322,152.439 244.184,152.246 245.045,152.052 245.907,151.858 246.769,151.665 247.630,151.470 248.492,151.276 249.353,151.082 250.215,150.887 251.076,150.692 251.938,150.497 252.799,150.302 253.661,150.107 254.522,149.911 255.384,149.715 256.245,149.520 257.107,149.323 257.969,149.127 258.830,148.931 259.692,148.734 260.553,148.537 261.415,148.340 262.276,148.143 263.138,147.946 263.999,147.748 264.861,147.551 265.722,147.353 266.584,147.155 267.445,146.957 268.307,146.758 269.169,146.560 270.030,146.361 270.892,146.162 271.753,145.963 272.615,145.764 273.476,145.564 274.338,145.364 275.199,145.165 276.061,144.965 276.922,144.764 277.784,144.564 278.645,144.363 279.507,144.163 280.368,143.962 281.230,143.761 282.092,143.559 282.953,143.358 283.815,143.156 284.676,142.954 285.538,142.752 286.399,142.550 287.261,142.348 288.122,142.145 288.984,141.942 289.845,141.739 290.707,141.536 291.568,141.333 292.430,141.129 293.292,140.925 294.153,140.722 295.015,140.518 295.876,140.313 296.738,140.109 297.599,139.904 298.461,139.699 299.322,139.494 300.184,139.289 301.045,139.084 301.907,138.878 302.768,138.672 303.630,138.467 304.492,138.260 305.353,138.054 306.215,137.848 307.076,137.641 307.938,137.434 308.799,137.227 309.661,137.020 310.522,136.812 311.384,136.605 312.245,136.397 313.107,136.189 313.968,135.981 314.830,135.772 315.692,135.564 316.553,135.355 317.415,135.146 318.276,134.937 319.138,134.727 319.999,134.518 320.861,134.308 321.722,134.098 322.584,133.888 323.445,133.678 324.307,133.467 325.168,133.257 326.030,133.046 326.892,132.835 327.753,132.624 328.615,132.412 329.476,132.200 330.338,131.989 331.199,131.777 332.061,131.564 332.922,131.352 333.784,131.139 334.645,130.927 335.507,130.714 336.368,130.500 337.230,130.287 338.092,130.074 338.953,129.860 339.815,129.646 340.676,129.432 341.538,129.217 342.399,129.003 343.261,128.788 344.122,128.573 344.984,128.358 345.845,128.143 346.707,127.927 347.568,127.711 348.430,127.495 349.291,127.279 350.153,127.063 351.015,126.847 351.876,126.630 352.738,126.413 353.599,126.196 354.461,125.979 355.322,125.761 356.184,125.543 357.045,125.326 357.907,125.107 358.768,124.889 359.630,124.671 360.491,124.452 361.353,124.233 362.215,124.014 363.076,123.795 363.938,123.575 364.799,123.356 365.661,123.136 366.522,122.916 367.384,122.695 368.245,122.475 369.107,122.254 369.968,122.033 370.830,121.812 371.691,121.591 372.553,121.370 373.415,121.148 374.276,120.926 375.138,120.704 375.999,120.482 376.861,120.259 377.722,120.036 378.584,119.814 379.445,119.590 380.307,119.367 381.168,119.144 382.030,118.920 382.891,118.696 383.753,118.472 384.615,118.248 385.476,118.023 386.338,117.798 387.199,117.573 388.061,117.348 388.922,117.123 389.784,116.897 390.645,116.672 391.507,116.446 392.368,116.219 393.230,115.993 394.091,115.767 394.953,115.540 395.815,115.313 396.676,115.086 397.538,114.858 398.399,114.631 399.261,114.403 400.122,114.175 400.984,113.947 401.845,113.718 402.707,113.489 403.568,113.261 404.430,113.032 405.291,112.802 406.153,112.573 407.015,112.343 407.876,112.113 408.738,111.883 409.599,111.653 410.461,111.422 411.322,111.192 412.184,110.961 413.045,110.729 413.907,110.498 414.768,110.266 415.630,110.035 416.491,109.803 417.353,109.570 418.215,109.338 419.076,109.105 419.938,108.873 420.799,108.640 421.661,108.406 422.522,108.173 423.384,107.939 424.245,107.705 425.107,107.471 425.968,107.237 426.830,107.002 427.691,106.767 428.553,106.532 429.414,106.297 430.276,106.062 431.138,105.826 431.999,105.590 432.861,105.354 433.722,105.118 434.584,104.882 435.445,104.645 436.307,104.408 437.168,104.171 438.030,103.934 438.891,103.696 439.753,103.458 440.614,103.220 441.476,102.982 442.338,102.744 443.199,102.505 444.061,102.266 444.922,102.027 445.784,101.788 446.645,101.548 447.507,101.309 448.368,101.069 449.230,100.829 450.091,100.588 450.953,100.348 451.814,100.107 452.676,99.866 453.538,99.625 454.399,99.383 455.261,99.141 456.122,98.900 456.984,98.657 457.845,98.415 458.707,98.172 459.568,97.930 460.430,97.687 461.291,97.443 462.153,97.200 463.014,96.956 463.876,96.712 464.738,96.468 465.599,96.224 466.461,95.979 467.322,95.735 468.184,95.490 469.045,95.244 469.907,94.999 470.768,94.753 471.630,94.507 472.491,94.261 473.353,94.015 474.214,93.768 475.076,93.521 475.938,93.274 476.799,93.027 477.661,92.780 478.522,92.532 479.384,92.284 480.245,92.036 481.107,91.788 481.968,91.539 482.830,91.290 483.691,91.041 484.553,90.792 485.414,90.542 486.276,90.293 487.138,90.043 487.999,89.792 488.861,89.542 489.722,89.291 490.584,89.041 491.445,88.789 492.307,88.538 493.168,88.287 494.030,88.035 494.891,87.783 495.753,87.531 496.614,87.278 497.476,87.025 498.338,86.772 499.199,86.519 500.061,86.266 500.922,86.012 501.784,85.758 502.645,85.504 503.507,85.250 504.368,84.995 505.230,84.741 506.091,84.486 506.953,84.230 507.814,83.975 508.676,83.719 509.537,83.463 510.399,83.207 511.261,82.951 512.122,82.694 512.984,82.437 513.845,82.180 514.707,81.923 515.568,81.665 516.430,81.407 517.291,81.149 518.153,80.891 519.014,80.633 519.876,80.374 520.737,80.115 521.599,79.856 522.461,79.596 523.322,79.336 524.184,79.076 525.045,78.816 525.907,78.556 526.768,78.295 527.630,78.034 528.491,77.773 529.353,77.512 530.214,77.250 531.076,76.989 531.937,76.726 532.799,76.464 533.661,76.202 534.522,75.939 535.384,75.676 536.245,75.413 537.107,75.149 537.968,74.885 538.830,74.621 539.691,74.357 540.553,74.093 541.414,73.828 542.276,73.563 543.137,73.298 543.999,73.032 544.861,72.767 545.722,72.501 546.584,72.235 547.445,71.968 548.307,71.702 549.168,71.435 550.030,71.168 550.891,70.900 551.753,70.633 552.614,70.365 553.476,70.097 554.337,69.828 555.199,69.560 556.061,69.291 556.922,69.022 557.784,68.753 558.645,68.483 559.507,68.213 560.368,67.943 561.230,67.673 562.091,67.402 562.953,67.132 563.814,66.861 564.676,66.589 565.537,66.318 566.399,66.046 567.261,65.774 568.122,65.502 568.984,65.229 569.845,64.956 570.707,64.683 571.568,64.410 572.430,64.137 573.291,63.863 574.153,63.589 575.014,63.315 575.876,63.040 576.737,62.765 577.599,62.490 578.461,62.215 579.322,61.940 580.184,61.664 581.045,61.388 581.907,61.112 582.768,60.835 583.630,60.558 584.491,60.281 585.353,60.004 586.214,59.726 587.076,59.449 587.937,59.171 588.799,58.892 589.660,58.614 590.522,58.335 591.384,58.056 592.245,57.777 593.107,57.497 593.968,57.217 594.830,56.937 595.691,56.657 596.553,56.376 597.414,56.096 598.276,55.815 599.137,55.533 599.999,55.252 " stroke-width="5" stroke="blue" fill="none"></path><path d="M 43.217 197.795 L 28.192 195.638 L 41.506 188.349 L 40 193.5 z" stroke-width="1" stroke="blue" fill="blue"></path><path d="M 596.226 51.435 L 611.405 51.524 L 599.209 60.560 L 599.999 55.252 z" stroke-width="1" stroke="blue" fill="blue"></path></svg>