<?xml version="1.0" encoding="UTF-8"?>
<!-- Created with Inkscape (http://www.inkscape.org/) -->
<svg width="59.752mm" height="41.992mm" version="1.1" viewBox="0 0 59.75172 41.991544" xmlns="http://www.w3.org/2000/svg" xmlns:cc="http://creativecommons.org/ns#" xmlns:dc="http://purl.org/dc/elements/1.1/" xmlns:rdf="http://www.w3.org/1999/02/22-rdf-syntax-ns#">
 <defs>
  <clipPath id="clipEmfPath1-40">
   <path d="m0 0h263.8v184.82h-263.8z"/>
  </clipPath>
  <clipPath id="clipEmfPath3-30">
   <path d="m58.622 13.296h175.87v138.28h-175.87z"/>
  </clipPath>
  <clipPath id="clipEmfPath4-67">
   <path d="m117.24 156.9h58.622v19.944h-58.622z"/>
  </clipPath>
  <clipPath id="clipEmfPath5-95">
   <path d="m14.655 49.196h19.985v66.481h-19.985z"/>
  </clipPath>
 </defs>
 <metadata>
  <rdf:RDF>
   <cc:Work rdf:about="">
    <dc:format>image/svg+xml</dc:format>
    <dc:type rdf:resource="http://purl.org/dc/dcmitype/StillImage"/>
    <dc:title/>
   </cc:Work>
  </rdf:RDF>
 </metadata>
 <g transform="translate(-523.78 -123.58)">
  <text x="518.69403" y="123.87141" fill="#000000" font-family="Calibri" font-size="3.8861px" font-weight="400" letter-spacing="0px" stroke-width=".26458" word-spacing="0px" style="line-height:125%" xml:space="preserve"><tspan x="0" y="0" stroke-width=".26458"><tspan dx="0" dy="0" fill="#000000" font-family="Calibri" font-size="3.8861px" font-weight="400" stroke-width=".26458"/></tspan></text>
  <g fill="none">
   <path d="m535.46 141.92h44.19" stroke="#000" stroke-width=".26458"/>
   <path transform="matrix(.26458 0 0 .26458 518.69 120.23)" d="m62.619 17.285h167.87v130.3h-167.87z" clip-path="url(#clipEmfPath1-40)"/>
   <g stroke-linecap="round" stroke-linejoin="round" stroke-width="1.3323px">
    <path transform="matrix(.26458 0 0 .26458 518.69 120.23)" d="m62.619 17.285h167.87v130.3h-167.87v-130.3" clip-path="url(#clipEmfPath1-40)" stroke="#808080"/>
    <path transform="matrix(.26458 0 0 .26458 518.69 120.23)" d="m62.619 17.285 83.936 65.152 83.936 65.152m-167.87-130.3" clip-path="url(#clipEmfPath3-30)" stroke="#000080"/>
   </g>
  </g>
  <g fill="#000080" fill-rule="evenodd" stroke="#000080" stroke-linecap="round" stroke-linejoin="round" stroke-width="1.3323px">
   <path transform="matrix(.26458 0 0 .26458 518.69 120.23)" d="m62.619 13.296 2.6646 3.9889-2.6646 2.6593-3.9969-2.6593z" clip-path="url(#clipEmfPath3-30)"/>
   <path transform="matrix(.26458 0 0 .26458 518.69 120.23)" d="m146.55 82.437m0-3.9889 3.9969 3.9889-3.9969 2.6593-2.6646-2.6593z" clip-path="url(#clipEmfPath3-30)"/>
   <path transform="matrix(.26458 0 0 .26458 518.69 120.23)" d="m230.49 147.59m0-2.6593 3.9969 2.6593-3.9969 3.9889-2.6646-3.9889z" clip-path="url(#clipEmfPath3-30)"/>
  </g>
  <g transform="matrix(.26458 0 0 .26458 518.69 120.23)" clip-path="url(#clipEmfPath1-40)" fill="#000000" font-family="Arial" font-size="10.688px" font-weight="700" letter-spacing="0px" word-spacing="0px">
   <text transform="translate(35.972 140.94)" y="9.6751099" style="line-height:125%" xml:space="preserve"><tspan x="0" y="9.6751099"><tspan dx="0" dy="0" fill="#000000" font-family="Arial" font-size="10.688px" font-weight="700">-0.1</tspan></tspan></text>
   <text transform="translate(35.972 140.94)" x="11.990802" y="-55.476639" style="line-height:125%" xml:space="preserve"><tspan x="11.990802" y="-55.476639"><tspan dx="0" dy="0" fill="#000000" font-family="Arial" font-size="10.688px" font-weight="700">0</tspan></tspan></text>
   <text transform="translate(35.972 140.94)" x="2.664623" y="-120.62839" style="line-height:125%" xml:space="preserve"><tspan x="2.664623" y="-120.62839"><tspan dx="0" dy="0" fill="#000000" font-family="Arial" font-size="10.688px" font-weight="700">0.1</tspan></tspan></text>
  </g>
  <g transform="matrix(.26458 0 0 .26458 518.69 120.23)" clip-path="url(#clipEmfPath1-40)" fill="#000000" font-family="Arial" font-size="10.688px" font-weight="700" letter-spacing="0px" word-spacing="0px">
   <text transform="translate(59.954 91.744)" y="9.6751099" style="line-height:125%" xml:space="preserve"><tspan x="0" y="9.6751099"><tspan dx="0" dy="0" fill="#000000" font-family="Arial" font-size="10.688px" font-weight="700">0</tspan></tspan></text>
   <text transform="translate(59.954 91.744)" x="74.609436" y="9.6751099" style="line-height:125%" xml:space="preserve"><tspan x="74.609436" y="9.6751099"><tspan dx="0" dy="0" fill="#000000" font-family="Arial" font-size="10.688px" font-weight="700">5000</tspan></tspan></text>
   <text transform="translate(59.954 91.744)" x="155.88043" y="9.6751099" style="line-height:125%" xml:space="preserve"><tspan x="155.88043" y="9.6751099"><tspan dx="0" dy="0" fill="#000000" font-family="Arial" font-size="10.688px" font-weight="700">10000</tspan></tspan></text>
  </g>
  <g transform="matrix(.26458 0 0 .26458 518.69 120.23)" clip-path="url(#clipEmfPath4-67)">
   <text transform="translate(118.58 159.56)" y="9.6751099" fill="#000000" font-family="Arial" font-size="10.688px" font-weight="700" letter-spacing="0px" word-spacing="0px" style="line-height:125%" xml:space="preserve"><tspan x="0" y="9.6751099"><tspan dx="0" dy="0" fill="#000000" font-family="Arial" font-size="10.688px" font-weight="700">Population</tspan></tspan></text>
  </g>
  <g transform="matrix(.26458 0 0 .26458 518.69 120.23)" clip-path="url(#clipEmfPath5-95)">
   <text transform="rotate(-90 65.834 48.514)" y="9.6751099" fill="#000000" font-family="Arial" font-size="10.688px" font-weight="700" letter-spacing="0px" word-spacing="0px" style="line-height:125%" xml:space="preserve"><tspan x="0" y="9.6751099"><tspan dx="0" dy="0" fill="#000000" font-family="Arial" font-size="10.688px" font-weight="700">Growth Rate</tspan></tspan></text>
  </g>
 </g>
</svg>
