<?xml version="1.0" encoding="UTF-8"?>
<!-- Created with Inkscape (http://www.inkscape.org/) -->
<svg width="49.111mm" height="32.671mm" version="1.1" viewBox="0 0 49.111316 32.67101" xmlns="http://www.w3.org/2000/svg" xmlns:cc="http://creativecommons.org/ns#" xmlns:dc="http://purl.org/dc/elements/1.1/" xmlns:rdf="http://www.w3.org/1999/02/22-rdf-syntax-ns#">
 <metadata>
  <rdf:RDF>
   <cc:Work rdf:about="">
    <dc:format>image/svg+xml</dc:format>
    <dc:type rdf:resource="http://purl.org/dc/dcmitype/StillImage"/>
    <dc:title/>
   </cc:Work>
  </rdf:RDF>
 </metadata>
 <g transform="translate(-244.69 -149.2)">
  <g fill="#000000" font-weight="400" letter-spacing="0px" stroke-width=".26458" word-spacing="0px">
   <g font-family="'Times New Roman'" font-size="4.2333px">
    <text x="201.60533" y="173.24791" style="line-height:125%" xml:space="preserve"><tspan x="0" y="0" stroke-width=".26458"><tspan dx="0" dy="0" fill="#000000" font-family="'Times New Roman'" font-size="4.2333px" font-weight="400" stroke-width=".26458"/></tspan></text>
    <text x="240.44316" y="225.95308" style="line-height:125%" xml:space="preserve"><tspan x="0" y="0" stroke-width=".26458"><tspan dx="0" dy="0" fill="#000000" font-family="'Times New Roman'" font-size="4.2333px" font-weight="400" stroke-width=".26458"/></tspan></text>
    <text x="156.06284" y="131.59941" style="line-height:125%" xml:space="preserve"><tspan x="0" y="0" stroke-width=".26458"><tspan dx="0" dy="0" fill="#000000" font-family="'Times New Roman'" font-size="4.2333px" font-weight="400" stroke-width=".26458"/></tspan></text>
    <text x="322.26288" y="182.31813" style="line-height:125%" xml:space="preserve"><tspan x="0" y="0" stroke-width=".26458"><tspan dx="0" dy="0" fill="#000000" font-family="'Times New Roman'" font-size="4.2333px" font-weight="400" stroke-width=".26458"/></tspan></text>
    <text x="358.10312" y="179.79556" style="line-height:125%" xml:space="preserve"><tspan x="0" y="0" stroke-width=".26458"><tspan dx="0" dy="0" fill="#000000" font-family="'Times New Roman'" font-size="4.2333px" font-weight="400" stroke-width=".26458"/></tspan></text>
    <text x="303.08627" y="152.10945" style="line-height:125%" xml:space="preserve"><tspan x="0" y="0" stroke-width=".26458"><tspan dx="0" dy="0" fill="#000000" font-family="'Times New Roman'" font-size="4.2333px" font-weight="400" stroke-width=".26458"/></tspan></text>
   </g>
   <text x="196.96326" y="127.19174" font-family="Calibri" font-size="3.8861px" style="line-height:125%" xml:space="preserve"><tspan x="0" y="0" stroke-width=".26458"><tspan dx="0" dy="0" fill="#000000" font-family="Calibri" font-size="3.8861px" font-weight="400" stroke-width=".26458"/></tspan></text>
   <text x="244.73849" y="152.26619" font-family="'Times New Roman'" font-size="2.282px" style="line-height:125%" xml:space="preserve"><tspan x="0" y="0" stroke-width=".26458"><tspan dx="0" dy="0" fill="#000000" font-family="'Times New Roman'" font-size="2.282px" font-weight="400" stroke-width=".26458"/></tspan></text>
   <text x="244.69067" y="152.99083" font-family="Calibri" font-size="3.8861px" style="line-height:125%" xml:space="preserve"><tspan x="0" y="0" stroke-width=".26458"><tspan dx="0" dy="0" fill="#000000" font-family="Calibri" font-size="3.8861px" font-weight="400" stroke-width=".26458"/></tspan></text>
   <text x="293.64658" y="178.75716" font-family="'Times New Roman'" font-size="2.3316px" style="line-height:125%" xml:space="preserve"><tspan x="0" y="0" stroke-width=".26458"><tspan dx="0" dy="0" fill="#000000" font-family="'Times New Roman'" font-size="2.3316px" font-weight="400" stroke-width=".26458"/></tspan></text>
  </g>
  <path d="m258.37 156.04 1.3987 2.0225h1.0879v1.7114h-0.77708l-1.3987 3.1116 0.9325 2.6448 3.8854 1.2446 3.2637-7.6233-4.1962-5.1341z" fill="#ff0" fill-rule="evenodd"/>
  <path d="m258.37 156.04 1.3987 2.0225h1.0879v1.7114h-0.77708l-1.3987 3.1116 0.9325 2.6448 3.8854 1.2446 3.2637-7.6233-4.1962-5.1341z" fill="none" stroke="#008000" stroke-linecap="round" stroke-linejoin="round" stroke-width=".15542px"/>
  <path d="m259.77 158.07 2.4866-1.089 2.6421 2.6448-1.7096 2.8004-3.8854-0.77789 0.62166-1.8669h0.77708v-1.5558z" fill="#f0f" fill-rule="evenodd"/>
  <path d="m259.77 158.07 2.4866-1.089 2.6421 2.6448-1.7096 2.8004-3.8854-0.77789 0.62166-1.8669h0.77708v-1.5558z" fill="none" stroke="#008000" stroke-linecap="round" stroke-linejoin="round" stroke-width=".15542px"/>
  <path d="m256.81 149.35v2.1781l1.5542 0.93347v3.5783l1.3987 2.1781h0.9325v1.7114h-0.77708l-1.2433 3.1116 1.0879 2.4892-3.8854 1.7114 2.1758-2.6448v-3.8894l-2.3312 2.3337 0.46624 1.7114-1.3987-1.4002 2.4866-4.3562-1.0879-1.5558h-5.7504l-5.595-2.6448v2.3337l2.4866 5.7564v5.4452l1.0879-0.93346 2.1758 0.93346-2.1758 0.93347-0.77708 1.5558h2.1758l-1.7096 3.1116 0.77708 0.77789h3.2637l0.31083 0.77789h2.3312l1.5542 5.4452 3.1083 0.77789 2.6421-1.7114h3.1083l0.93249 1.089 3.8854-1.089 0.9325 1.089 7.9262-2.956 0.62166-1.7114h12.9l1.2433-1.4002-1.865-2.956v-22.714z" fill="none" stroke="#008000" stroke-linecap="round" stroke-linejoin="round" stroke-width=".31083px"/>
 </g>
</svg>
