<?xml version="1.0" encoding="UTF-8"?>
<!-- Created with Inkscape (http://www.inkscape.org/) -->
<svg width="48.435mm" height="32.201mm" version="1.1" viewBox="0 0 48.434512 32.201417" xmlns="http://www.w3.org/2000/svg" xmlns:cc="http://creativecommons.org/ns#" xmlns:dc="http://purl.org/dc/elements/1.1/" xmlns:rdf="http://www.w3.org/1999/02/22-rdf-syntax-ns#">
 <metadata>
  <rdf:RDF>
   <cc:Work rdf:about="">
    <dc:format>image/svg+xml</dc:format>
    <dc:type rdf:resource="http://purl.org/dc/dcmitype/StillImage"/>
    <dc:title/>
   </cc:Work>
  </rdf:RDF>
 </metadata>
 <g transform="translate(-277.07 -175.59)">
  <g fill="#000000" font-weight="400" letter-spacing="0px" stroke-width=".26458" word-spacing="0px">
   <g font-family="'Times New Roman'" font-size="4.2333px">
    <text x="201.60533" y="173.24791" style="line-height:125%" xml:space="preserve"><tspan x="0" y="0" stroke-width=".26458"><tspan dx="0" dy="0" fill="#000000" font-family="'Times New Roman'" font-size="4.2333px" font-weight="400" stroke-width=".26458"/></tspan></text>
    <text x="240.44316" y="225.95308" style="line-height:125%" xml:space="preserve"><tspan x="0" y="0" stroke-width=".26458"><tspan dx="0" dy="0" fill="#000000" font-family="'Times New Roman'" font-size="4.2333px" font-weight="400" stroke-width=".26458"/></tspan></text>
    <text x="156.06284" y="131.59941" style="line-height:125%" xml:space="preserve"><tspan x="0" y="0" stroke-width=".26458"><tspan dx="0" dy="0" fill="#000000" font-family="'Times New Roman'" font-size="4.2333px" font-weight="400" stroke-width=".26458"/></tspan></text>
    <text x="322.26288" y="182.31813" style="line-height:125%" xml:space="preserve"><tspan x="0" y="0" stroke-width=".26458"><tspan dx="0" dy="0" fill="#000000" font-family="'Times New Roman'" font-size="4.2333px" font-weight="400" stroke-width=".26458"/></tspan></text>
    <text x="358.10312" y="179.79556" style="line-height:125%" xml:space="preserve"><tspan x="0" y="0" stroke-width=".26458"><tspan dx="0" dy="0" fill="#000000" font-family="'Times New Roman'" font-size="4.2333px" font-weight="400" stroke-width=".26458"/></tspan></text>
    <text x="303.08627" y="152.10945" style="line-height:125%" xml:space="preserve"><tspan x="0" y="0" stroke-width=".26458"><tspan dx="0" dy="0" fill="#000000" font-family="'Times New Roman'" font-size="4.2333px" font-weight="400" stroke-width=".26458"/></tspan></text>
   </g>
   <text x="196.96326" y="127.19174" font-family="Calibri" font-size="3.8861px" style="line-height:125%" xml:space="preserve"><tspan x="0" y="0" stroke-width=".26458"><tspan dx="0" dy="0" fill="#000000" font-family="Calibri" font-size="3.8861px" font-weight="400" stroke-width=".26458"/></tspan></text>
   <text x="244.73849" y="152.26619" font-family="'Times New Roman'" font-size="2.282px" style="line-height:125%" xml:space="preserve"><tspan x="0" y="0" stroke-width=".26458"><tspan dx="0" dy="0" fill="#000000" font-family="'Times New Roman'" font-size="2.282px" font-weight="400" stroke-width=".26458"/></tspan></text>
   <text x="244.69067" y="152.99083" font-family="Calibri" font-size="3.8861px" style="line-height:125%" xml:space="preserve"><tspan x="0" y="0" stroke-width=".26458"><tspan dx="0" dy="0" fill="#000000" font-family="Calibri" font-size="3.8861px" font-weight="400" stroke-width=".26458"/></tspan></text>
   <text x="293.64658" y="178.75716" font-family="'Times New Roman'" font-size="2.3316px" style="line-height:125%" xml:space="preserve"><tspan x="0" y="0" stroke-width=".26458"><tspan dx="0" dy="0" fill="#000000" font-family="'Times New Roman'" font-size="2.3316px" font-weight="400" stroke-width=".26458"/></tspan></text>
   <text x="277.07242" y="211.31573" font-family="Calibri" font-size="3.8861px" style="line-height:125%" xml:space="preserve"><tspan x="0" y="0" stroke-width=".26458"><tspan dx="0" dy="0" fill="#000000" font-family="Calibri" font-size="3.8861px" font-weight="400" stroke-width=".26458"/></tspan></text>
   <text x="325.35367" y="204.72208" font-family="'Times New Roman'" font-size="2.2986px" style="line-height:125%" xml:space="preserve"><tspan x="0" y="0" stroke-width=".26458"><tspan dx="0" dy="0" fill="#000000" font-family="'Times New Roman'" font-size="2.2986px" font-weight="400" stroke-width=".26458"/></tspan></text>
  </g>
  <path d="m291.48 187.85-0.45983 1.5334 0.91965 2.4534-3.8318 1.5334v2.6068l4.2917 3.2202 10.269-13.647-3.5253-5.5203-8.5833 0.61337v1.6867l1.3795 2.1468 1.0729-0.15334v1.8401h-1.0729z" fill="#ff0" fill-rule="evenodd"/>
  <path d="m291.48 187.85-0.45983 1.5334 0.91965 2.4534-3.8318 1.5334v2.6068l4.2917 3.2202 10.269-13.647-3.5253-5.5203-8.5833 0.61337v1.6867l1.3795 2.1468 1.0729-0.15334v1.8401h-1.0729z" fill="none" stroke="#008000" stroke-linecap="round" stroke-linejoin="round" stroke-width=".15327px"/>
  <path d="m291.94 184.33 2.4524-1.0734 2.6056 2.6068-1.686 2.7601-3.8318-0.7667 0.61309-1.8401h0.76637v-1.5334z" fill="#f0f" fill-rule="evenodd"/>
  <path d="m291.94 184.33 2.4524-1.0734 2.6056 2.6068-1.686 2.7601-3.8318-0.7667 0.61309-1.8401h0.76637v-1.5334z" fill="none" stroke="#008000" stroke-linecap="round" stroke-linejoin="round" stroke-width=".15327px"/>
  <path d="m289.03 175.74v2.1468l1.5327 0.92005v3.5268l1.3795 2.1468h0.91964v1.6868h-0.76637l-1.2262 3.0668 1.0729 2.4534-3.8318 1.6868 2.1458-2.6068v-3.8335l-2.2991 2.3001 0.45982 1.6867-1.3795-1.3801 2.4524-4.2935-1.0729-1.5334h-5.6711l-5.5179-2.6068v2.3001l2.4524 5.6736v5.3669l1.0729-0.92004 2.1458 0.92004-2.1458 0.92005-0.76637 1.5334h2.1458l-1.686 3.0668 0.76637 0.7667h3.2188l0.30655 0.7667h2.2991l1.5327 5.3669 3.0655 0.7667 2.6056-1.6868h3.0655l0.91964 1.0734 3.8318-1.0734 0.91964 1.0734 7.817-2.9135 0.6131-1.6867h12.722l1.2262-1.3801-1.8393-2.9135v-22.388z" fill="none" stroke="#008000" stroke-linecap="round" stroke-linejoin="round" stroke-width=".30655px"/>
 </g>
</svg>
