<?xml version="1.0" encoding="UTF-8"?>
<!-- Created with Inkscape (http://www.inkscape.org/) -->
<svg width="47.927mm" height="31.902mm" version="1.1" viewBox="0 0 47.926902 31.902104" xmlns="http://www.w3.org/2000/svg" xmlns:cc="http://creativecommons.org/ns#" xmlns:dc="http://purl.org/dc/elements/1.1/" xmlns:rdf="http://www.w3.org/1999/02/22-rdf-syntax-ns#">
 <metadata>
  <rdf:RDF>
   <cc:Work rdf:about="">
    <dc:format>image/svg+xml</dc:format>
    <dc:type rdf:resource="http://purl.org/dc/dcmitype/StillImage"/>
    <dc:title/>
   </cc:Work>
  </rdf:RDF>
 </metadata>
 <g transform="translate(-196.96 -123.4)">
  <g fill="#000000" font-weight="400" letter-spacing="0px" stroke-width=".26458" word-spacing="0px">
   <g font-family="'Times New Roman'" font-size="4.2333px">
    <text x="201.60533" y="173.24791" style="line-height:125%" xml:space="preserve"><tspan x="0" y="0" stroke-width=".26458"><tspan dx="0" dy="0" fill="#000000" font-family="'Times New Roman'" font-size="4.2333px" font-weight="400" stroke-width=".26458"/></tspan></text>
    <text x="240.44316" y="225.95308" style="line-height:125%" xml:space="preserve"><tspan x="0" y="0" stroke-width=".26458"><tspan dx="0" dy="0" fill="#000000" font-family="'Times New Roman'" font-size="4.2333px" font-weight="400" stroke-width=".26458"/></tspan></text>
    <text x="156.06284" y="131.59941" style="line-height:125%" xml:space="preserve"><tspan x="0" y="0" stroke-width=".26458"><tspan dx="0" dy="0" fill="#000000" font-family="'Times New Roman'" font-size="4.2333px" font-weight="400" stroke-width=".26458"/></tspan></text>
    <text x="322.26288" y="182.31813" style="line-height:125%" xml:space="preserve"><tspan x="0" y="0" stroke-width=".26458"><tspan dx="0" dy="0" fill="#000000" font-family="'Times New Roman'" font-size="4.2333px" font-weight="400" stroke-width=".26458"/></tspan></text>
    <text x="358.10312" y="179.79556" style="line-height:125%" xml:space="preserve"><tspan x="0" y="0" stroke-width=".26458"><tspan dx="0" dy="0" fill="#000000" font-family="'Times New Roman'" font-size="4.2333px" font-weight="400" stroke-width=".26458"/></tspan></text>
    <text x="303.08627" y="152.10945" style="line-height:125%" xml:space="preserve"><tspan x="0" y="0" stroke-width=".26458"><tspan dx="0" dy="0" fill="#000000" font-family="'Times New Roman'" font-size="4.2333px" font-weight="400" stroke-width=".26458"/></tspan></text>
   </g>
   <text x="196.96326" y="127.19174" font-family="Calibri" font-size="3.8861px" style="line-height:125%" xml:space="preserve"><tspan x="0" y="0" stroke-width=".26458"><tspan dx="0" dy="0" fill="#000000" font-family="Calibri" font-size="3.8861px" font-weight="400" stroke-width=".26458"/></tspan></text>
   <text x="244.73849" y="152.26619" font-family="'Times New Roman'" font-size="2.282px" style="line-height:125%" xml:space="preserve"><tspan x="0" y="0" stroke-width=".26458"><tspan dx="0" dy="0" fill="#000000" font-family="'Times New Roman'" font-size="2.282px" font-weight="400" stroke-width=".26458"/></tspan></text>
  </g>
  <path d="m210.31 130.09 1.365 1.9749h1.0617v1.6711h-0.75834l-1.365 3.0383 0.91 2.5826 3.7917 1.2153 3.185-7.4439-4.095-5.0133z" fill="#ff0" fill-rule="evenodd"/>
  <path d="m210.31 130.09 1.365 1.9749h1.0617v1.6711h-0.75834l-1.365 3.0383 0.91 2.5826 3.7917 1.2153 3.185-7.4439-4.095-5.0133z" fill="none" stroke="#008000" stroke-linecap="round" stroke-linejoin="round" stroke-width=".15167px"/>
  <path d="m208.79 123.55v2.1268l1.5167 0.91151v3.4941l1.365 2.1268h0.91v1.6711h-0.75833l-1.2133 3.0383 1.0617 2.4307-3.7917 1.6711 2.1234-2.5826v-3.7979l-2.275 2.2788 0.455 1.6711-1.365-1.3672 2.4267-4.2537-1.0617-1.5192h-5.6117l-5.46-2.5826v2.2788l2.4267 5.6209v5.3171l1.0617-0.9115 2.1233 0.9115-2.1233 0.91151-0.75834 1.5192h2.1234l-1.6684 3.0383 0.75834 0.75959h3.185l0.30333 0.75958h2.275l1.5167 5.3171 3.0334 0.75959 2.5783-1.6711h3.0334l0.91 1.0634 3.7917-1.0634 0.91 1.0634 7.735-2.8864 0.60667-1.6711h12.588l1.2133-1.3672-1.82-2.8864v-22.18z" fill="none" stroke="#008000" stroke-linecap="round" stroke-linejoin="round" stroke-width=".30333px"/>
 </g>
</svg>
