<?xml version="1.0" encoding="UTF-8"?>
<!-- Created with Inkscape (http://www.inkscape.org/) -->
<svg width="47.927mm" height="31.86mm" version="1.1" viewBox="0 0 47.926902 31.859805" xmlns="http://www.w3.org/2000/svg" xmlns:cc="http://creativecommons.org/ns#" xmlns:dc="http://purl.org/dc/elements/1.1/" xmlns:rdf="http://www.w3.org/1999/02/22-rdf-syntax-ns#">
 <metadata>
  <rdf:RDF>
   <cc:Work rdf:about="">
    <dc:format>image/svg+xml</dc:format>
    <dc:type rdf:resource="http://purl.org/dc/dcmitype/StillImage"/>
    <dc:title/>
   </cc:Work>
  </rdf:RDF>
 </metadata>
 <g transform="translate(-247.79 -147.4)">
  <g>
   <text x="247.79002" y="151.18758" fill="#000000" font-family="Calibri" font-size="3.8861px" font-weight="400" letter-spacing="0px" stroke-width=".26458" word-spacing="0px" style="line-height:125%" xml:space="preserve"><tspan x="0" y="0" stroke-width=".26458"><tspan dx="0" dy="0" fill="#000000" font-family="Calibri" font-size="3.8861px" font-weight="400" stroke-width=".26458"/></tspan></text>
   <text x="295.56525" y="176.22359" fill="#000000" font-family="'Times New Roman'" font-size="2.282px" font-weight="400" letter-spacing="0px" stroke-width=".26458" word-spacing="0px" style="line-height:125%" xml:space="preserve"><tspan x="0" y="0" stroke-width=".26458"><tspan dx="0" dy="0" fill="#000000" font-family="'Times New Roman'" font-size="2.282px" font-weight="400" stroke-width=".26458"/></tspan></text>
   <path d="m262.05 159.54-0.455 1.5171 0.91 2.4274-3.7917 1.5171v2.5791l4.2467 3.186 10.162-13.503-3.4884-5.4617-8.4934 0.60685v1.6689l1.365 2.124 1.0617-0.15172v1.8206h-1.0617z" fill="#ff0" fill-rule="evenodd"/>
  </g>
  <path d="m262.05 159.54-0.455 1.5171 0.91 2.4274-3.7917 1.5171v2.5791l4.2467 3.186 10.162-13.503-3.4884-5.4617-8.4934 0.60685v1.6689l1.365 2.124 1.0617-0.15172v1.8206h-1.0617z" fill="none" stroke="#008000" stroke-linecap="round" stroke-linejoin="round" stroke-width=".15167px"/>
  <path d="m262.05 159.54-0.455 1.5171 0.75833 2.4274-3.64 1.5171v2.7308l4.2467 3.186 9.8584-13.654-3.4884-5.6134-8.19 0.75856v1.6689l1.365 2.124 1.0617-0.15172v1.8206h-1.2133z" fill="#0ff" fill-rule="evenodd"/>
  <path d="m262.05 159.54-0.455 1.5171 0.75833 2.4274-3.64 1.5171v2.7308l4.2467 3.186 9.8584-13.654-3.4884-5.6134-8.19 0.75856v1.6689l1.365 2.124 1.0617-0.15172v1.8206h-1.2133z" fill="none" stroke="#008000" stroke-linecap="round" stroke-linejoin="round" stroke-width=".15167px"/>
  <path d="m262.5 156.05 2.4267-1.062 2.5783 2.5791-1.6683 2.7308-3.7917-0.75857 0.60667-1.8206h0.75833v-1.5171z" fill="#f0f" fill-rule="evenodd"/>
  <path d="m262.5 156.05 2.4267-1.062 2.5783 2.5791-1.6683 2.7308-3.7917-0.75857 0.60667-1.8206h0.75833v-1.5171z" fill="none" stroke="#008000" stroke-linecap="round" stroke-linejoin="round" stroke-width=".15167px"/>
  <path d="m259.62 147.55v2.124l1.5167 0.91028v3.4894l1.365 2.124h0.91v1.6688h-0.75833l-1.2133 3.0343 1.0617 2.4274-3.7917 1.6689 2.1234-2.5791v-3.7928l-2.275 2.2757 0.455 1.6689-1.365-1.3654 2.4267-4.248-1.0617-1.5171h-5.6117l-5.46-2.5791v2.2757l2.4267 5.6134v5.31l1.0617-0.91028 2.1233 0.91028-2.1233 0.91028-0.75834 1.5171h2.1234l-1.6684 3.0343 0.75834 0.75857h3.185l0.30333 0.75856h2.275l1.5167 5.31 3.0334 0.75857 2.5783-1.6689h3.0334l0.91 1.062 3.7917-1.062 0.91 1.062 7.735-2.8826 0.60667-1.6688h12.588l1.2133-1.3654-1.82-2.8826v-22.15z" fill="none" stroke="#008000" stroke-linecap="round" stroke-linejoin="round" stroke-width=".30333px"/>
 </g>
</svg>
