<?xml version="1.0" encoding="UTF-8"?>
<!-- Created with Inkscape (http://www.inkscape.org/) -->
<svg width="48.688mm" height="32.372mm" version="1.1" viewBox="0 0 48.688308 32.372235" xmlns="http://www.w3.org/2000/svg" xmlns:cc="http://creativecommons.org/ns#" xmlns:dc="http://purl.org/dc/elements/1.1/" xmlns:rdf="http://www.w3.org/1999/02/22-rdf-syntax-ns#">
 <metadata>
  <rdf:RDF>
   <cc:Work rdf:about="">
    <dc:format>image/svg+xml</dc:format>
    <dc:type rdf:resource="http://purl.org/dc/dcmitype/StillImage"/>
    <dc:title/>
   </cc:Work>
  </rdf:RDF>
 </metadata>
 <g transform="translate(-217.04 -126.38)">
  <g>
   <text x="217.03587" y="130.17659" fill="#000000" font-family="Calibri" font-size="3.8861px" font-weight="400" letter-spacing="0px" stroke-width=".26458" word-spacing="0px" style="line-height:125%" xml:space="preserve"><tspan x="0" y="0" stroke-width=".26458"><tspan dx="0" dy="0" fill="#000000" font-family="Calibri" font-size="3.8861px" font-weight="400" stroke-width=".26458"/></tspan></text>
   <text x="217.03587" y="128.54272" fill="#000000" font-family="'Times New Roman'" font-size="2.3151px" font-weight="400" letter-spacing="0px" stroke-width=".26458" word-spacing="0px" style="line-height:125%" xml:space="preserve"><tspan x="0" y="0" stroke-width=".26458"><tspan dx="0" dy="0" fill="#000000" font-family="'Times New Roman'" font-size="2.3151px" font-weight="400" stroke-width=".26458"/></tspan></text>
   <path d="m229.05 126.54v2.1582l1.5408 0.92493v3.5455l1.3867 2.1582h0.92446v1.6957h-0.77039l-1.2326 3.0831 1.0785 2.4665-3.8519 1.6957 2.1571-2.6206v-3.8538l-2.3112 2.3123 0.46224 1.6957-1.3867-1.3874 2.4652-4.3163-1.0785-1.5415h-5.7008l-5.5468-2.6206v2.3123l2.4652 5.7037v5.3954l1.0785-0.92493 2.1571 0.92493-2.1571 0.92492-0.77039 1.5415h2.1571l-1.6948 3.0831 0.77039 0.77077h3.2356l0.30816 0.77077h2.3112l1.5408 5.3954 3.0815 0.77077 2.6193-1.6957h3.0815l0.92446 1.0791 3.8519-1.0791 0.92446 1.0791 7.8579-2.9289 0.61631-1.6957h12.788l1.2326-1.3874-1.8489-2.9289v-22.507z" fill="#f90" fill-rule="evenodd"/>
  </g>
  <path d="m229.05 126.54v2.1582l1.5408 0.92493v3.5455l1.3867 2.1582h0.92446v1.6957h-0.77039l-1.2326 3.0831 1.0785 2.4665-3.8519 1.6957 2.1571-2.6206v-3.8538l-2.3112 2.3123 0.46224 1.6957-1.3867-1.3874 2.4652-4.3163-1.0785-1.5415h-5.7008l-5.5468-2.6206v2.3123l2.4652 5.7037v5.3954l1.0785-0.92493 2.1571 0.92493-2.1571 0.92492-0.77039 1.5415h2.1571l-1.6948 3.0831 0.77039 0.77077h3.2356l0.30816 0.77077h2.3112l1.5408 5.3954 3.0815 0.77077 2.6193-1.6957h3.0815l0.92446 1.0791 3.8519-1.0791 0.92446 1.0791 7.8579-2.9289 0.61631-1.6957h12.788l1.2326-1.3874-1.8489-2.9289v-22.507z" fill="none" stroke="#008000" stroke-linecap="round" stroke-linejoin="round" stroke-width=".30815px"/>
  <path d="m244.46 126.54h19.26l0.15408 22.969 1.6948 2.6206-1.2326 1.0791-12.634 0.15415-0.61631 1.5416-7.8579 3.2372-1.2326-1.3874z" fill="#ff0" fill-rule="evenodd"/>
  <path d="m244.46 126.54h19.26l0.15408 22.969 1.6948 2.6206-1.2326 1.0791-12.634 0.15415-0.61631 1.5416-7.8579 3.2372-1.2326-1.3874z" fill="none" stroke="#008000" stroke-linecap="round" stroke-linejoin="round" stroke-width=".15408px"/>
  <path d="m231.52 138.72-0.46223 1.5415 0.77039 2.4665-3.6978 1.5416v2.7748l4.1601 3.2372 10.169-13.874-3.5438-5.7037-8.3202 0.77077v1.6957l1.3867 2.1582 1.0785-0.15415v1.8498l-1.2326 0.15415z" fill="#0ff" fill-rule="evenodd"/>
  <path d="m231.52 138.72-0.46223 1.5415 0.77039 2.4665-3.6978 1.5416v2.7748l4.1601 3.2372 10.169-13.874-3.5438-5.7037-8.3202 0.77077v1.6957l1.3867 2.1582 1.0785-0.15415v1.8498l-1.2326 0.15415z" fill="none" stroke="#008000" stroke-linecap="round" stroke-linejoin="round" stroke-width=".15408px"/>
  <path d="m231.98 135.17 2.6193-1.2332 2.6193 2.7748-1.6948 2.7748-3.8519-0.77077 0.61631-1.8498h0.77038v-1.5416z" fill="#f0f" fill-rule="evenodd"/>
  <path d="m231.98 135.17 2.6193-1.2332 2.6193 2.7748-1.6948 2.7748-3.8519-0.77077 0.61631-1.8498h0.77038v-1.5416z" fill="none" stroke="#008000" stroke-linecap="round" stroke-linejoin="round" stroke-width=".15408px"/>
 </g>
</svg>
