<?xml version="1.0" encoding="UTF-8"?>
<!-- Created with Inkscape (http://www.inkscape.org/) -->
<svg width="59.644mm" height="43.816mm" version="1.1" viewBox="0 0 59.643883 43.816441" xmlns="http://www.w3.org/2000/svg" xmlns:cc="http://creativecommons.org/ns#" xmlns:dc="http://purl.org/dc/elements/1.1/" xmlns:rdf="http://www.w3.org/1999/02/22-rdf-syntax-ns#">
 <defs>
  <clipPath id="clipEmfPath1-53">
   <path d="m0 0.31975h263.8v212.8h-263.8z"/>
  </clipPath>
  <clipPath id="clipEmfPath4-06">
   <path d="m73.517 25.164h171.9v128.54h-171.9z"/>
  </clipPath>
  <clipPath id="clipEmfPath5-54">
   <path d="m142.71 176.39h32.434v19.443h-32.434z"/>
  </clipPath>
  <clipPath id="clipEmfPath6-23">
   <path d="m18.379 37.046h19.46v105.86h-19.46z"/>
  </clipPath>
 </defs>
 <metadata>
  <rdf:RDF>
   <cc:Work rdf:about="">
    <dc:format>image/svg+xml</dc:format>
    <dc:type rdf:resource="http://purl.org/dc/dcmitype/StillImage"/>
    <dc:title/>
   </cc:Work>
  </rdf:RDF>
 </metadata>
 <g transform="translate(-531.06 -99.43)">
  <text x="525.24371" y="96.733917" fill="#000000" font-family="Calibri" font-size="3.8861px" font-weight="400" letter-spacing="0px" stroke-width=".26458" word-spacing="0px" style="line-height:125%" xml:space="preserve"><tspan x="0" y="0" stroke-width=".26458"><tspan dx="0" dy="0" fill="#000000" font-family="Calibri" font-size="3.8861px" font-weight="400" stroke-width=".26458"/></tspan></text>
  <g fill="none">
   <path transform="matrix(.26458 0 0 .26458 525.24 93.096)" d="m76.761 29.485h164.33v120.98h-164.33z" clip-path="url(#clipEmfPath1-53)"/>
   <g stroke-linecap="round" stroke-linejoin="round" stroke-width="1.0811px">
    <path transform="matrix(.26458 0 0 .26458 525.24 93.096)" d="m76.761 29.485h164.33v120.98h-164.33v-120.98" clip-path="url(#clipEmfPath1-53)" stroke="#808080"/>
    <path transform="matrix(.26458 0 0 .26458 525.24 93.096)" d="m76.761 135.34 23.785-4.3207 23.785-4.3208 22.704-4.3208 23.785-4.3207 23.785-4.3208 22.704-4.3208 23.785-4.3207" clip-path="url(#clipEmfPath4-06)" stroke="#000080"/>
    <path transform="matrix(.26458 0 0 .26458 525.24 93.096)" d="m76.761 135.34 23.785-4.3207 23.785-7.5613 22.704-8.6415 23.785-12.962 23.785-16.203 22.704-22.684 23.785-31.325m-164.33 103.7" clip-path="url(#clipEmfPath4-06)" stroke="#f0f"/>
   </g>
  </g>
  <g fill="#000080" fill-rule="evenodd" stroke="#000080" stroke-linecap="round" stroke-linejoin="round" stroke-width="1.0811px">
   <path transform="matrix(.26458 0 0 .26458 525.24 93.096)" d="m76.761 132.1 3.2434 3.2406-3.2434 3.2406-3.2434-3.2406z" clip-path="url(#clipEmfPath4-06)"/>
   <path transform="matrix(.26458 0 0 .26458 525.24 93.096)" d="m100.55 131.02m0-3.2406 3.2434 3.2406-3.2434 3.2406-3.2434-3.2406z" clip-path="url(#clipEmfPath4-06)"/>
   <path transform="matrix(.26458 0 0 .26458 525.24 93.096)" d="m124.33 126.7m0-3.2406 3.2434 3.2406-3.2434 3.2406-4.3246-3.2406z" clip-path="url(#clipEmfPath4-06)"/>
   <path transform="matrix(.26458 0 0 .26458 525.24 93.096)" d="m147.03 122.38m0-3.2406 3.2434 3.2406-3.2434 3.2406-3.2434-3.2406z" clip-path="url(#clipEmfPath4-06)"/>
   <path transform="matrix(.26458 0 0 .26458 525.24 93.096)" d="m170.82 118.06m0-3.2406 3.2434 3.2406-3.2434 3.2406-3.2434-3.2406z" clip-path="url(#clipEmfPath4-06)"/>
   <path transform="matrix(.26458 0 0 .26458 525.24 93.096)" d="m194.6 113.74m0-3.2406 3.2434 3.2406-3.2434 3.2406-3.2434-3.2406z" clip-path="url(#clipEmfPath4-06)"/>
   <path transform="matrix(.26458 0 0 .26458 525.24 93.096)" d="m217.31 109.42m0-3.2406 4.3246 3.2406-4.3246 3.2406-3.2434-3.2406z" clip-path="url(#clipEmfPath4-06)"/>
   <path transform="matrix(.26458 0 0 .26458 525.24 93.096)" d="m241.09 105.1m0-3.2406 3.2434 3.2406-3.2434 3.2406-3.2434-3.2406z" clip-path="url(#clipEmfPath4-06)"/>
  </g>
  <g fill="#f0f" fill-rule="evenodd" stroke="#f0f" stroke-linecap="round" stroke-linejoin="round" stroke-width="1.0811px">
   <path transform="matrix(.26458 0 0 .26458 525.24 93.096)" d="m76.761 135.34m-3.2434-3.2406h7.568v7.5613h-7.568z" clip-path="url(#clipEmfPath4-06)"/>
   <path transform="matrix(.26458 0 0 .26458 525.24 93.096)" d="m100.55 131.02m-3.2434-3.2406h7.568v7.5613h-7.568z" clip-path="url(#clipEmfPath4-06)"/>
   <path transform="matrix(.26458 0 0 .26458 525.24 93.096)" d="m124.33 123.46m-4.3246-3.2406h8.6491v7.5613h-8.6491z" clip-path="url(#clipEmfPath4-06)"/>
   <path transform="matrix(.26458 0 0 .26458 525.24 93.096)" d="m147.03 114.82m-3.2434-3.2406h7.568v7.5613h-7.568z" clip-path="url(#clipEmfPath4-06)"/>
   <path transform="matrix(.26458 0 0 .26458 525.24 93.096)" d="m170.82 101.86m-3.2434-3.2406h7.568v7.5613h-7.568z" clip-path="url(#clipEmfPath4-06)"/>
   <path transform="matrix(.26458 0 0 .26458 525.24 93.096)" d="m194.6 85.654m-3.2434-3.2406h7.568v7.5613h-7.568z" clip-path="url(#clipEmfPath4-06)"/>
   <path transform="matrix(.26458 0 0 .26458 525.24 93.096)" d="m217.31 62.971m-3.2434-3.2406h7.568v7.5613h-7.568z" clip-path="url(#clipEmfPath4-06)"/>
   <path transform="matrix(.26458 0 0 .26458 525.24 93.096)" d="m241.09 31.645m-3.2434-3.2406h7.568v7.5613h-7.568z" clip-path="url(#clipEmfPath4-06)"/>
  </g>
  <g transform="matrix(.26458 0 0 .26458 525.24 93.096)" clip-path="url(#clipEmfPath1-53)" fill="#000000" font-family="Arial" font-size="10.812px" font-weight="700" letter-spacing="0px" word-spacing="0px">
   <text transform="translate(62.706 143.98)" y="9.788269" style="line-height:125%" xml:space="preserve"><tspan x="0" y="9.788269"><tspan dx="0" dy="0" fill="#000000" font-family="Arial" font-size="10.812px" font-weight="700">0</tspan></tspan></text>
   <text transform="translate(62.706 143.98)" x="-18.379345" y="-15.056024" style="line-height:125%" xml:space="preserve"><tspan x="-18.379345" y="-15.056024"><tspan dx="0" dy="0" fill="#000000" font-family="Arial" font-size="10.812px" font-weight="700">5000</tspan></tspan></text>
   <text transform="translate(62.706 143.98)" x="-23.785034" y="-38.820129" style="line-height:125%" xml:space="preserve"><tspan x="-23.785034" y="-38.820129"><tspan dx="0" dy="0" fill="#000000" font-family="Arial" font-size="10.812px" font-weight="700">10000</tspan></tspan></text>
   <text transform="translate(62.706 143.98)" x="-23.785034" y="-63.664421" style="line-height:125%" xml:space="preserve"><tspan x="-23.785034" y="-63.664421"><tspan dx="0" dy="0" fill="#000000" font-family="Arial" font-size="10.812px" font-weight="700">15000</tspan></tspan></text>
   <text transform="translate(62.706 143.98)" x="-23.785034" y="-87.428528" style="line-height:125%" xml:space="preserve"><tspan x="-23.785034" y="-87.428528"><tspan dx="0" dy="0" fill="#000000" font-family="Arial" font-size="10.812px" font-weight="700">20000</tspan></tspan></text>
   <text transform="translate(62.706 143.98)" x="-23.785034" y="-112.27282" style="line-height:125%" xml:space="preserve"><tspan x="-23.785034" y="-112.27282"><tspan dx="0" dy="0" fill="#000000" font-family="Arial" font-size="10.812px" font-weight="700">25000</tspan></tspan></text>
  </g>
  <g transform="matrix(.26458 0 0 .26458 525.24 93.096)" clip-path="url(#clipEmfPath1-53)" fill="#000000" font-family="Arial" font-size="10.812px" font-weight="700" letter-spacing="0px" word-spacing="0px">
   <text transform="translate(73.517 160.19)" y="9.788269" style="line-height:125%" xml:space="preserve"><tspan x="0" y="9.788269"><tspan dx="0" dy="0" fill="#000000" font-family="Arial" font-size="10.812px" font-weight="700">0</tspan></tspan></text>
   <text transform="translate(73.517 160.19)" x="23.785034" y="9.788269" style="line-height:125%" xml:space="preserve"><tspan x="23.785034" y="9.788269"><tspan dx="0" dy="0" fill="#000000" font-family="Arial" font-size="10.812px" font-weight="700">5</tspan></tspan></text>
   <text transform="translate(73.517 160.19)" x="44.326653" y="9.788269" style="line-height:125%" xml:space="preserve"><tspan x="44.326653" y="9.788269"><tspan dx="0" dy="0" fill="#000000" font-family="Arial" font-size="10.812px" font-weight="700">10</tspan></tspan></text>
   <text transform="translate(73.517 160.19)" x="68.111687" y="9.788269" style="line-height:125%" xml:space="preserve"><tspan x="68.111687" y="9.788269"><tspan dx="0" dy="0" fill="#000000" font-family="Arial" font-size="10.812px" font-weight="700">15</tspan></tspan></text>
   <text transform="translate(73.517 160.19)" x="90.815582" y="9.788269" style="line-height:125%" xml:space="preserve"><tspan x="90.815582" y="9.788269"><tspan dx="0" dy="0" fill="#000000" font-family="Arial" font-size="10.812px" font-weight="700">20</tspan></tspan></text>
   <text transform="translate(73.517 160.19)" x="114.60062" y="9.788269" style="line-height:125%" xml:space="preserve"><tspan x="114.60062" y="9.788269"><tspan dx="0" dy="0" fill="#000000" font-family="Arial" font-size="10.812px" font-weight="700">25</tspan></tspan></text>
   <text transform="translate(73.517 160.19)" x="138.38565" y="9.788269" style="line-height:125%" xml:space="preserve"><tspan x="138.38565" y="9.788269"><tspan dx="0" dy="0" fill="#000000" font-family="Arial" font-size="10.812px" font-weight="700">30</tspan></tspan></text>
   <text transform="translate(73.517 160.19)" x="162.17068" y="9.788269" style="line-height:125%" xml:space="preserve"><tspan x="162.17068" y="9.788269"><tspan dx="0" dy="0" fill="#000000" font-family="Arial" font-size="10.812px" font-weight="700">35</tspan></tspan></text>
  </g>
  <g transform="matrix(.26458 0 0 .26458 525.24 93.096)" clip-path="url(#clipEmfPath5-54)">
   <text transform="translate(144.87 179.63)" y="9.788269" fill="#000000" font-family="Arial" font-size="10.812px" font-weight="700" letter-spacing="0px" word-spacing="0px" style="line-height:125%" xml:space="preserve"><tspan x="0" y="9.788269"><tspan dx="0" dy="0" fill="#000000" font-family="Arial" font-size="10.812px" font-weight="700">Years</tspan></tspan></text>
  </g>
  <g transform="matrix(.26458 0 0 .26458 525.24 93.096)" clip-path="url(#clipEmfPath6-23)">
   <text transform="rotate(-90 80.643 60.101)" y="9.788269" fill="#000000" font-family="Arial" font-size="10.812px" font-weight="700" letter-spacing="0px" word-spacing="0px" style="line-height:125%" xml:space="preserve"><tspan x="0" y="9.788269"><tspan dx="0" dy="0" fill="#000000" font-family="Arial" font-size="10.812px" font-weight="700">Account Balance ($)</tspan></tspan></text>
  </g>
 </g>
</svg>
