<?xml version="1.0" encoding="UTF-8"?>
<!-- Created with Inkscape (http://www.inkscape.org/) -->
<svg width="35.746mm" height="7.965mm" version="1.1" viewBox="0 0 35.745582 7.9650442" xmlns="http://www.w3.org/2000/svg" xmlns:cc="http://creativecommons.org/ns#" xmlns:dc="http://purl.org/dc/elements/1.1/" xmlns:rdf="http://www.w3.org/1999/02/22-rdf-syntax-ns#">
 <defs>
  <clipPath id="clipEmfPath1-38">
   <path d="m0 4.9562h62.832v21.424h-62.832z"/>
  </clipPath>
  <clipPath id="clipEmfPath2-2">
   <path d="m97.845 6.8747h78.979v21.424h-78.979z"/>
  </clipPath>
 </defs>
 <metadata>
  <rdf:RDF>
   <cc:Work rdf:about="">
    <dc:format>image/svg+xml</dc:format>
    <dc:type rdf:resource="http://purl.org/dc/dcmitype/StillImage"/>
    <dc:title/>
   </cc:Work>
  </rdf:RDF>
 </metadata>
 <g transform="translate(-235.01 -166.97)">
  <text x="232.16396" y="168.11345" fill="#000000" font-family="Calibri" font-size="3.8861px" font-weight="400" letter-spacing="0px" stroke-width=".26458" word-spacing="0px" style="line-height:125%" xml:space="preserve"><tspan x="0" y="0" stroke-width=".26458"><tspan dx="0" dy="0" fill="#000000" font-family="Calibri" font-size="3.8861px" font-weight="400" stroke-width=".26458"/></tspan></text>
  <path d="m238.47 172.16c-0.72969 0-1.3219 0.59221-1.3219 1.3219s0.59221 1.3219 1.3219 1.3219 1.3219-0.59221 1.3219-1.3219-0.59221-1.3219-1.3219-1.3219z" fill="#fff" fill-rule="evenodd"/>
  <path d="m238.47 172.16c-0.72969 0-1.3219 0.59221-1.3219 1.3219s0.59221 1.3219 1.3219 1.3219 1.3219-0.59221 1.3219-1.3219-0.59221-1.3219-1.3219-1.3219" fill="none" stroke="#000" stroke-linecap="round" stroke-linejoin="round" stroke-width=".26438px"/>
  <path d="m265.7 172.16c-0.72969 0-1.3219 0.59221-1.3219 1.3219s0.59221 1.3219 1.3219 1.3219c0.7297 0 1.3219-0.59221 1.3219-1.3219s-0.59221-1.3219-1.3219-1.3219z" fill="#fff" fill-rule="evenodd"/>
  <path d="m265.7 172.16c-0.72969 0-1.3219 0.59221-1.3219 1.3219s0.59221 1.3219 1.3219 1.3219c0.7297 0 1.3219-0.59221 1.3219-1.3219s-0.59221-1.3219-1.3219-1.3219" fill="none" stroke="#000" stroke-linecap="round" stroke-linejoin="round" stroke-width=".26438px"/>
  <g transform="matrix(.26458 0 0 .26458 232.16 164.48)" clip-path="url(#clipEmfPath1-38)">
   <text transform="translate(9.5926 18.706)" fill="#000000" font-family="Calibri" font-size="14.688px" font-style="italic" font-weight="400" letter-spacing="0px" word-spacing="0px" style="line-height:125%" xml:space="preserve"><tspan x="0" y="0" fill="#000000" font-family="Calibri" font-weight="400"><tspan dx="0" dy="0" font-size="14.688px" font-style="italic">T</tspan><tspan dx="0" dy="1.279019" font-size="9.25px" font-style="italic">1</tspan><tspan dx="0" dy="-1.279019" font-size="14.688px" font-style="normal"/><tspan dx="0" dy="0" font-size="14.688px" font-style="normal">(2)</tspan><tspan dx="0" dy="0" font-size="14.688px" font-style="normal"/></tspan></text>
  </g>
  <g transform="matrix(.26458 0 0 .26458 232.16 164.48)" clip-path="url(#clipEmfPath2-2)">
   <text transform="translate(107.44 20.624)" fill="#000000" font-family="Calibri" font-size="14.688px" font-style="italic" font-weight="400" letter-spacing="0px" word-spacing="0px" style="line-height:125%" xml:space="preserve"><tspan x="0" y="0" fill="#000000" font-family="Calibri" font-weight="400"><tspan dx="0" dy="0" font-size="14.688px" font-style="italic">T</tspan><tspan dx="0" dy="1.279019" font-size="9.25px" font-style="italic">2</tspan><tspan dx="0" dy="-1.279019" font-size="14.688px" font-style="normal"/><tspan dx="0" dy="0" font-size="14.688px" font-style="normal">(0.5)</tspan><tspan dx="0" dy="0" font-size="14.688px" font-style="normal"/></tspan></text>
  </g>
  <path d="m240.59 173.2h21.238v0.35163h-21.238zm20.886-0.88038 2.115 1.0575-2.115 1.0575z" stroke="#000" stroke-linejoin="bevel" stroke-width=".042301px"/>
 </g>
</svg>
