<?xml version="1.0" encoding="UTF-8"?>
<!-- Created with Inkscape (http://www.inkscape.org/) -->
<svg width="91.393mm" height="47.569mm" version="1.1" viewBox="0 0 91.393041 47.569257" xmlns="http://www.w3.org/2000/svg" xmlns:cc="http://creativecommons.org/ns#" xmlns:dc="http://purl.org/dc/elements/1.1/" xmlns:rdf="http://www.w3.org/1999/02/22-rdf-syntax-ns#">
 <defs>
  <clipPath id="clipEmfPath1-57">
   <path d="m0.31975 4.9562h62.992v21.264h-62.992z"/>
  </clipPath>
  <clipPath id="clipEmfPath2-47">
   <path d="m98.325 6.8747h78.979v21.424h-78.979z"/>
  </clipPath>
  <clipPath id="clipEmfPath3-50">
   <path d="m0.31975 60.594h62.992v21.424h-62.992z"/>
  </clipPath>
  <clipPath id="clipEmfPath4-7">
   <path d="m0.31975 107.76h62.992v21.424h-62.992z"/>
  </clipPath>
  <clipPath id="clipEmfPath5-1">
   <path d="m0.31975 154.6h62.992v21.424h-62.992z"/>
  </clipPath>
  <clipPath id="clipEmfPath6-0">
   <path d="m73.384 63.791h68.907v21.424h-68.907z"/>
  </clipPath>
  <clipPath id="clipEmfPath7-1">
   <path d="m104.24 144.53h71.945v21.424h-71.945z"/>
  </clipPath>
  <clipPath id="clipEmfPath8-72">
   <path d="m230.22 61.873h84.895v21.424h-84.895z"/>
  </clipPath>
  <clipPath id="clipEmfPath9-84">
   <path d="m159.24 60.913h62.992v21.264h-62.992z"/>
  </clipPath>
  <clipPath id="clipEmfPath10-5">
   <path d="m224.15 5.9155h71.945v21.424h-71.945z"/>
  </clipPath>
  <clipPath id="clipEmfPath11">
   <path d="m309.2 85.854h71.945v21.424h-71.945z"/>
  </clipPath>
 </defs>
 <metadata>
  <rdf:RDF>
   <cc:Work rdf:about="">
    <dc:format>image/svg+xml</dc:format>
    <dc:type rdf:resource="http://purl.org/dc/dcmitype/StillImage"/>
    <dc:title/>
   </cc:Work>
  </rdf:RDF>
 </metadata>
 <g transform="translate(-157.82 -116.27)">
  <text x="154.88815" y="117.4165" fill="#000000" font-family="Calibri" font-size="3.8861px" font-weight="400" letter-spacing="0px" stroke-width=".26458" word-spacing="0px" style="line-height:125%" xml:space="preserve"><tspan x="0" y="0" stroke-width=".26458"><tspan dx="0" dy="0" fill="#000000" font-family="Calibri" font-size="3.8861px" font-weight="400" stroke-width=".26458"/></tspan></text>
  <path d="m161.3 121.46c-0.72969 0-1.3219 0.59221-1.3219 1.3219s0.59221 1.3219 1.3219 1.3219 1.3219-0.59221 1.3219-1.3219-0.59221-1.3219-1.3219-1.3219z" fill="#fff" fill-rule="evenodd"/>
  <path d="m161.3 121.46c-0.72969 0-1.3219 0.59221-1.3219 1.3219s0.59221 1.3219 1.3219 1.3219 1.3219-0.59221 1.3219-1.3219-0.59221-1.3219-1.3219-1.3219" fill="none" stroke="#000" stroke-linecap="round" stroke-linejoin="round" stroke-width=".26438px"/>
  <path d="m188.53 121.46c-0.72969 0-1.3219 0.59221-1.3219 1.3219s0.59222 1.3219 1.3219 1.3219 1.3219-0.59221 1.3219-1.3219-0.59221-1.3219-1.3219-1.3219z" fill="#fff" fill-rule="evenodd"/>
  <path d="m188.53 121.46c-0.72969 0-1.3219 0.59221-1.3219 1.3219s0.59222 1.3219 1.3219 1.3219 1.3219-0.59221 1.3219-1.3219-0.59221-1.3219-1.3219-1.3219" fill="none" stroke="#000" stroke-linecap="round" stroke-linejoin="round" stroke-width=".26438px"/>
  <g transform="matrix(.26458 0 0 .26458 154.89 113.78)" clip-path="url(#clipEmfPath1-57)">
   <text transform="translate(9.9124 18.706)" fill="#000000" font-family="Calibri" font-size="14.688px" font-style="italic" font-weight="400" letter-spacing="0px" word-spacing="0px" style="line-height:125%" xml:space="preserve"><tspan x="0" y="0" fill="#000000" font-family="Calibri" font-weight="400"><tspan dx="0" dy="0" font-size="14.688px" font-style="italic">T</tspan><tspan dx="0" dy="1.279019" font-size="9.25px" font-style="italic">1</tspan><tspan dx="0" dy="-1.279019" font-size="14.688px" font-style="normal"/><tspan dx="0" dy="0" font-size="14.688px" font-style="normal">(6)</tspan><tspan dx="0" dy="0" font-size="14.688px" font-style="normal"/></tspan></text>
  </g>
  <g transform="matrix(.26458 0 0 .26458 154.89 113.78)" clip-path="url(#clipEmfPath2-47)">
   <text transform="translate(107.92 20.624)" fill="#000000" font-family="Calibri" font-size="14.688px" font-style="italic" font-weight="400" letter-spacing="0px" word-spacing="0px" style="line-height:125%" xml:space="preserve"><tspan x="0" y="0" fill="#000000" font-family="Calibri" font-weight="400"><tspan dx="0" dy="0" font-size="14.688px" font-style="italic">T</tspan><tspan dx="0" dy="1.279019" font-size="9.25px" font-style="italic">5</tspan><tspan dx="0" dy="-1.279019" font-size="14.688px" font-style="normal"/><tspan dx="0" dy="0" font-size="14.688px" font-style="normal">(5)</tspan><tspan dx="0" dy="0" font-size="14.688px" font-style="normal"/></tspan></text>
  </g>
  <path d="m163.42 122.5h21.238v0.35163h-21.238zm20.886-0.88038 2.115 1.0575-2.115 1.0575z" stroke="#000" stroke-linejoin="bevel" stroke-width=".042301px"/>
  <path d="m161.3 136.21c-0.72969 0-1.3219 0.59221-1.3219 1.3219s0.59221 1.3219 1.3219 1.3219 1.3219-0.59222 1.3219-1.3219-0.59221-1.3219-1.3219-1.3219z" fill="#fff" fill-rule="evenodd"/>
  <path d="m161.3 136.21c-0.72969 0-1.3219 0.59221-1.3219 1.3219s0.59221 1.3219 1.3219 1.3219 1.3219-0.59222 1.3219-1.3219-0.59221-1.3219-1.3219-1.3219" fill="none" stroke="#000" stroke-linecap="round" stroke-linejoin="round" stroke-width=".26438px"/>
  <g transform="matrix(.26458 0 0 .26458 154.89 113.78)" clip-path="url(#clipEmfPath3-50)">
   <text transform="translate(9.9124 74.343)" fill="#000000" font-family="Calibri" font-size="14.688px" font-style="italic" font-weight="400" letter-spacing="0px" word-spacing="0px" style="line-height:125%" xml:space="preserve"><tspan x="0" y="0" fill="#000000" font-family="Calibri" font-weight="400"><tspan dx="0" dy="0" font-size="14.688px" font-style="italic">T</tspan><tspan dx="0" dy="1.279019" font-size="9.25px" font-style="italic">2</tspan><tspan dx="0" dy="-1.279019" font-size="14.688px" font-style="normal"/><tspan dx="0" dy="0" font-size="14.688px" font-style="normal">(3)</tspan><tspan dx="0" dy="0" font-size="14.688px" font-style="normal"/></tspan></text>
  </g>
  <path d="m161.3 148.69c-0.72969 0-1.3219 0.59222-1.3219 1.3219 0 0.7297 0.59221 1.3219 1.3219 1.3219s1.3219-0.59221 1.3219-1.3219c0-0.72968-0.59221-1.3219-1.3219-1.3219z" fill="#fff" fill-rule="evenodd"/>
  <path d="m161.3 148.69c-0.72969 0-1.3219 0.59222-1.3219 1.3219 0 0.7297 0.59221 1.3219 1.3219 1.3219s1.3219-0.59221 1.3219-1.3219c0-0.72968-0.59221-1.3219-1.3219-1.3219" fill="none" stroke="#000" stroke-linecap="round" stroke-linejoin="round" stroke-width=".26438px"/>
  <g transform="matrix(.26458 0 0 .26458 154.89 113.78)" clip-path="url(#clipEmfPath4-7)">
   <text transform="translate(9.9124 121.51)" fill="#000000" font-family="Calibri" font-size="14.688px" font-style="italic" font-weight="400" letter-spacing="0px" word-spacing="0px" style="line-height:125%" xml:space="preserve"><tspan x="0" y="0" fill="#000000" font-family="Calibri" font-weight="400"><tspan dx="0" dy="0" font-size="14.688px" font-style="italic">T</tspan><tspan dx="0" dy="1.279019" font-size="9.25px" font-style="italic">3</tspan><tspan dx="0" dy="-1.279019" font-size="14.688px" font-style="normal"/><tspan dx="0" dy="0" font-size="14.688px" font-style="normal">(7)</tspan><tspan dx="0" dy="0" font-size="14.688px" font-style="normal"/></tspan></text>
  </g>
  <path d="m161.3 161.07c-0.72969 0-1.3219 0.59221-1.3219 1.3219 0 0.7297 0.59221 1.3219 1.3219 1.3219s1.3219-0.59221 1.3219-1.3219c0-0.72969-0.59221-1.3219-1.3219-1.3219z" fill="#fff" fill-rule="evenodd"/>
  <path d="m161.3 161.07c-0.72969 0-1.3219 0.59221-1.3219 1.3219 0 0.7297 0.59221 1.3219 1.3219 1.3219s1.3219-0.59221 1.3219-1.3219c0-0.72969-0.59221-1.3219-1.3219-1.3219" fill="none" stroke="#000" stroke-linecap="round" stroke-linejoin="round" stroke-width=".26438px"/>
  <g transform="matrix(.26458 0 0 .26458 154.89 113.78)" clip-path="url(#clipEmfPath5-1)">
   <text transform="translate(9.9124 168.35)" fill="#000000" font-family="Calibri" font-size="14.688px" font-style="italic" font-weight="400" letter-spacing="0px" word-spacing="0px" style="line-height:125%" xml:space="preserve"><tspan x="0" y="0" fill="#000000" font-family="Calibri" font-weight="400"><tspan dx="0" dy="0" font-size="14.688px" font-style="italic">T</tspan><tspan dx="0" dy="1.279019" font-size="9.25px" font-style="italic">4</tspan><tspan dx="0" dy="-1.279019" font-size="14.688px" font-style="normal"/><tspan dx="0" dy="0" font-size="14.688px" font-style="normal">(4)</tspan><tspan dx="0" dy="0" font-size="14.688px" font-style="normal"/></tspan></text>
  </g>
  <path d="m180.6 136.27c-0.72969 0-1.3219 0.59221-1.3219 1.3219s0.59221 1.3219 1.3219 1.3219 1.3219-0.59221 1.3219-1.3219-0.59221-1.3219-1.3219-1.3219z" fill="#fff" fill-rule="evenodd"/>
  <path d="m180.6 136.27c-0.72969 0-1.3219 0.59221-1.3219 1.3219s0.59221 1.3219 1.3219 1.3219 1.3219-0.59221 1.3219-1.3219-0.59221-1.3219-1.3219-1.3219" fill="none" stroke="#000" stroke-linecap="round" stroke-linejoin="round" stroke-width=".26438px"/>
  <g transform="matrix(.26458 0 0 .26458 160.4 115.71)" clip-path="url(#clipEmfPath6-0)">
   <text transform="translate(82.976 77.541)" fill="#000000" font-family="Calibri" font-size="14.688px" font-style="italic" font-weight="400" letter-spacing="0px" word-spacing="0px" style="line-height:125%" xml:space="preserve"><tspan x="0" y="0" fill="#000000" font-family="Calibri" font-weight="400"><tspan dx="0" dy="0" font-size="14.688px" font-style="italic">T</tspan><tspan dx="0" dy="1.279019" font-size="9.25px" font-style="italic">6</tspan><tspan dx="0" dy="-1.279019" font-size="14.688px" font-style="normal"/><tspan dx="0" dy="0" font-size="14.688px" font-style="normal">(10)</tspan><tspan dx="0" dy="0" font-size="14.688px" font-style="normal"/></tspan></text>
  </g>
  <path d="m189.06 148.9c-0.72969 0-1.3219 0.59221-1.3219 1.3219s0.59221 1.3219 1.3219 1.3219 1.3219-0.59221 1.3219-1.3219-0.59221-1.3219-1.3219-1.3219z" fill="#fff" fill-rule="evenodd"/>
  <path d="m189.06 148.9c-0.72969 0-1.3219 0.59221-1.3219 1.3219s0.59221 1.3219 1.3219 1.3219 1.3219-0.59221 1.3219-1.3219-0.59221-1.3219-1.3219-1.3219" fill="none" stroke="#000" stroke-linecap="round" stroke-linejoin="round" stroke-width=".26438px"/>
  <g transform="matrix(.26458 0 0 .26458 154.89 113.78)" clip-path="url(#clipEmfPath7-1)">
   <text transform="translate(113.83 158.28)" fill="#000000" font-family="Calibri" font-size="14.688px" font-style="italic" font-weight="400" letter-spacing="0px" word-spacing="0px" style="line-height:125%" xml:space="preserve"><tspan x="0" y="0" fill="#000000" font-family="Calibri" font-weight="400"><tspan dx="0" dy="0" font-size="14.688px" font-style="italic">T</tspan><tspan dx="0" dy="1.279019" font-size="9.25px" font-style="italic">7</tspan><tspan dx="0" dy="-1.279019" font-size="14.688px" font-style="normal"/><tspan dx="0" dy="0" font-size="14.688px" font-style="normal">(4)</tspan><tspan dx="0" dy="0" font-size="14.688px" font-style="normal"/></tspan></text>
  </g>
  <path d="m222.11 136.53c-0.72969 0-1.3219 0.59221-1.3219 1.3219s0.59221 1.3219 1.3219 1.3219 1.3219-0.59221 1.3219-1.3219-0.59222-1.3219-1.3219-1.3219z" fill="#fff" fill-rule="evenodd"/>
  <path d="m222.11 136.53c-0.72969 0-1.3219 0.59221-1.3219 1.3219s0.59221 1.3219 1.3219 1.3219 1.3219-0.59221 1.3219-1.3219-0.59222-1.3219-1.3219-1.3219" fill="none" stroke="#000" stroke-linecap="round" stroke-linejoin="round" stroke-width=".26438px"/>
  <g transform="matrix(.26458 0 0 .26458 154.89 113.78)" clip-path="url(#clipEmfPath8-72)">
   <text transform="translate(239.82 75.622)" fill="#000000" font-family="Calibri" font-size="14.688px" font-style="italic" font-weight="400" letter-spacing="0px" word-spacing="0px" style="line-height:125%" xml:space="preserve"><tspan x="0" y="0" fill="#000000" font-family="Calibri" font-weight="400"><tspan dx="0" dy="0" font-size="14.688px" font-style="italic">T</tspan><tspan dx="0" dy="1.279019" font-size="9.25px" font-style="italic">10</tspan><tspan dx="0" dy="-1.279019" font-size="14.688px" font-style="normal"/><tspan dx="0" dy="0" font-size="14.688px" font-style="normal">(7)</tspan><tspan dx="0" dy="0" font-size="14.688px" font-style="normal"/></tspan></text>
  </g>
  <path d="m203.34 136.27c-0.72969 0-1.3219 0.59221-1.3219 1.3219s0.59222 1.3219 1.3219 1.3219 1.3219-0.59221 1.3219-1.3219-0.59221-1.3219-1.3219-1.3219z" fill="#fff" fill-rule="evenodd"/>
  <path d="m203.34 136.27c-0.72969 0-1.3219 0.59221-1.3219 1.3219s0.59222 1.3219 1.3219 1.3219 1.3219-0.59221 1.3219-1.3219-0.59221-1.3219-1.3219-1.3219" fill="none" stroke="#000" stroke-linecap="round" stroke-linejoin="round" stroke-width=".26438px"/>
  <g transform="matrix(.26458 0 0 .26458 154.89 113.78)" clip-path="url(#clipEmfPath9-84)">
   <text transform="translate(168.83 74.663)" fill="#000000" font-family="Calibri" font-size="14.688px" font-style="italic" font-weight="400" letter-spacing="0px" word-spacing="0px" style="line-height:125%" xml:space="preserve"><tspan x="0" y="0" fill="#000000" font-family="Calibri" font-weight="400"><tspan dx="0" dy="0" font-size="14.688px" font-style="italic">T</tspan><tspan dx="0" dy="1.279019" font-size="9.25px" font-style="italic">8</tspan><tspan dx="0" dy="-1.279019" font-size="14.688px" font-style="normal"/><tspan dx="0" dy="0" font-size="14.688px" font-style="normal">(3)</tspan><tspan dx="0" dy="0" font-size="14.688px" font-style="normal"/></tspan></text>
  </g>
  <g stroke="#000" stroke-linejoin="bevel" stroke-width=".042301px">
   <path d="m190.91 122.75h25.468v0.35427h-25.468zm25.116-0.88039 2.115 1.0575-2.115 1.0575z"/>
   <path d="m192.3 124.08 24.289 10.409-0.13747 0.32519-24.289-10.411zm24.312 9.4595 1.5281 1.8057-2.3609 0.14012z"/>
   <path d="m163.68 137.55h11.191v0.35427h-11.191zm10.84-0.88039 2.115 1.0575-2.115 1.0575z"/>
   <path d="m181.79 139.99 5.7397 6.8448-0.26967 0.22736-5.7397-6.8448zm6.1891 6.0094 0.54992 2.3001-2.1706-0.94119z"/>
   <path d="m205.98 137.55h11.456v0.35427h-11.456zm11.104-0.88039 2.115 1.0575-2.115 1.0575z"/>
   <path d="m191.91 150.26 26.118-10.197 0.12691 0.32784-26.118 10.197zm25.468-10.89 2.3556 0.21415-1.5863 1.7555z"/>
   <path d="m163.68 149.98h20.973v0.35427h-20.973zm20.622-0.88039 2.115 1.0575-2.115 1.0575z"/>
   <path d="m181.25 134.19 4.8408-7.2572 0.29081 0.19564-4.8382 7.2572zm3.9102-7.4529 2.0542-1.1738-0.29346 2.3477z"/>
   <path d="m190.52 124.66 8.9255 10.803-0.27231 0.22473-8.9255-10.803zm9.3802 9.9698 0.53141 2.3028-2.1626-0.95706z"/>
   <path d="m191.05 149.23 8.7854-8.5527 0.24587 0.25381-8.7854 8.5527zm7.9182-8.9361 2.2525-0.71911-0.77728 2.234z"/>
  </g>
  <path d="m220.52 121.73c-0.72969 0-1.3219 0.59221-1.3219 1.3219s0.59221 1.3219 1.3219 1.3219 1.3219-0.59221 1.3219-1.3219-0.59221-1.3219-1.3219-1.3219z" fill="#fff" fill-rule="evenodd"/>
  <path d="m220.52 121.73c-0.72969 0-1.3219 0.59221-1.3219 1.3219s0.59221 1.3219 1.3219 1.3219 1.3219-0.59221 1.3219-1.3219-0.59221-1.3219-1.3219-1.3219" fill="none" stroke="#000" stroke-linecap="round" stroke-linejoin="round" stroke-width=".26438px"/>
  <g transform="matrix(.26458 0 0 .26458 154.89 113.78)" clip-path="url(#clipEmfPath10-5)">
   <text transform="translate(233.74 19.665)" fill="#000000" font-family="Calibri" font-size="14.688px" font-style="italic" font-weight="400" letter-spacing="0px" word-spacing="0px" style="line-height:125%" xml:space="preserve"><tspan x="0" y="0" fill="#000000" font-family="Calibri" font-weight="400"><tspan dx="0" dy="0" font-size="14.688px" font-style="italic">T</tspan><tspan dx="0" dy="1.279019" font-size="9.25px" font-style="italic">9</tspan><tspan dx="0" dy="-1.279019" font-size="14.688px" font-style="normal"/><tspan dx="0" dy="0" font-size="14.688px" font-style="normal">(2)</tspan><tspan dx="0" dy="0" font-size="14.688px" font-style="normal"/></tspan></text>
  </g>
  <path d="m243 142.88c-0.7297 0-1.3219 0.59221-1.3219 1.3219s0.59221 1.3219 1.3219 1.3219c0.72969 0 1.3219-0.59222 1.3219-1.3219s-0.59221-1.3219-1.3219-1.3219z" fill="#fff" fill-rule="evenodd"/>
  <path d="m243 142.88c-0.7297 0-1.3219 0.59221-1.3219 1.3219s0.59221 1.3219 1.3219 1.3219c0.72969 0 1.3219-0.59222 1.3219-1.3219s-0.59221-1.3219-1.3219-1.3219" fill="none" stroke="#000" stroke-linecap="round" stroke-linejoin="round" stroke-width=".26438px"/>
  <g transform="matrix(.26458 0 0 .26458 154.89 113.78)" clip-path="url(#clipEmfPath11)">
   <text transform="translate(318.8 99.604)" fill="#000000" font-family="Calibri" font-size="14.688px" font-weight="400" letter-spacing="0px" word-spacing="0px" style="line-height:125%" xml:space="preserve"><tspan x="0" y="0" font-family="Calibri" font-size="14.688px" font-weight="400"><tspan dx="0" dy="0" fill="#000000">End</tspan><tspan dx="0" dy="0" fill="#000000"/><tspan dx="0" dy="0" fill="#ff0000">[0]</tspan><tspan dx="0" dy="0" fill="#000000"/></tspan></text>
  </g>
  <g stroke="#000" stroke-linejoin="bevel" stroke-width=".042301px">
   <path d="m224.3 136.52 12.714 6.591-0.16391 0.31197-12.711-6.591zm12.807 5.6472 1.3906 1.9115-2.3662-0.0344z"/>
   <path d="m223.03 123.34 14.98 17.433-0.26703 0.23001-14.98-17.433zm15.419 16.593 0.57635 2.2922-2.1811-0.91476z"/>
   <path d="m164.88 162.54 73.101-16.016 0.074 0.34369-73.096 16.016zm72.567-16.804 2.2895 0.58164-1.8348 1.4858z"/>
  </g>
 </g>
</svg>
