<?xml version="1.0" encoding="UTF-8"?>
<!-- Created with Inkscape (http://www.inkscape.org/) -->
<svg width="88.686mm" height="47.569mm" version="1.1" viewBox="0 0 88.685781 47.569257" xmlns="http://www.w3.org/2000/svg" xmlns:cc="http://creativecommons.org/ns#" xmlns:dc="http://purl.org/dc/elements/1.1/" xmlns:rdf="http://www.w3.org/1999/02/22-rdf-syntax-ns#">
 <defs>
  <clipPath id="clipEmfPath1-1">
   <path d="m0.47963 4.9562h89.851v21.264h-89.851z"/>
  </clipPath>
  <clipPath id="clipEmfPath2-11">
   <path d="m98.325 6.8747h131.9v21.424h-131.9z"/>
  </clipPath>
  <clipPath id="clipEmfPath3-22">
   <path d="m0.47963 60.594h91.929v21.424h-91.929z"/>
  </clipPath>
  <clipPath id="clipEmfPath4-55">
   <path d="m0.47963 107.76h96.886v21.424h-96.886z"/>
  </clipPath>
  <clipPath id="clipEmfPath5-84">
   <path d="m0.47963 154.6h104.88v21.424h-104.88z"/>
  </clipPath>
  <clipPath id="clipEmfPath6-03">
   <path d="m73.384 63.791h68.907v21.424h-68.907z"/>
  </clipPath>
  <clipPath id="clipEmfPath7-17">
   <path d="m103.28 143.57h98.005v21.424h-98.005z"/>
  </clipPath>
  <clipPath id="clipEmfPath8-37">
   <path d="m230.22 61.873h118.95v21.424h-118.95z"/>
  </clipPath>
  <clipPath id="clipEmfPath9-14">
   <path d="m159.24 60.913h98.964v21.264h-98.964z"/>
  </clipPath>
  <clipPath id="clipEmfPath10-14">
   <path d="m224.31 5.9155h101.84v21.424h-101.84z"/>
  </clipPath>
  <clipPath id="clipEmfPath11-9">
   <path d="m299.13 95.767h71.945v21.424h-71.945z"/>
  </clipPath>
 </defs>
 <metadata>
  <rdf:RDF>
   <cc:Work rdf:about="">
    <dc:format>image/svg+xml</dc:format>
    <dc:type rdf:resource="http://purl.org/dc/dcmitype/StillImage"/>
    <dc:title/>
   </cc:Work>
  </rdf:RDF>
 </metadata>
 <g transform="translate(-272.89 -157.84)">
  <text x="269.9165" y="158.98622" fill="#000000" font-family="Calibri" font-size="3.8861px" font-weight="400" letter-spacing="0px" stroke-width=".26458" word-spacing="0px" style="line-height:125%" xml:space="preserve"><tspan x="0" y="0" stroke-width=".26458"><tspan dx="0" dy="0" fill="#000000" font-family="Calibri" font-size="3.8861px" font-weight="400" stroke-width=".26458"/></tspan></text>
  <path d="m276.35 163.03c-0.72969 0-1.3219 0.59221-1.3219 1.3219s0.59221 1.3219 1.3219 1.3219c0.73234 0 1.3219-0.59221 1.3219-1.3219s-0.58957-1.3219-1.3219-1.3219z" fill="#fff" fill-rule="evenodd"/>
  <path d="m276.35 163.03c-0.72969 0-1.3219 0.59221-1.3219 1.3219s0.59221 1.3219 1.3219 1.3219c0.73234 0 1.3219-0.59221 1.3219-1.3219s-0.58957-1.3219-1.3219-1.3219" fill="none" stroke="#000" stroke-linecap="round" stroke-linejoin="round" stroke-width=".26438px"/>
  <path d="m303.58 163.03c-0.72969 0-1.3219 0.59221-1.3219 1.3219s0.59221 1.3219 1.3219 1.3219c0.73233 0 1.3219-0.59221 1.3219-1.3219s-0.58957-1.3219-1.3219-1.3219z" fill="#fff" fill-rule="evenodd"/>
  <path d="m303.58 163.03c-0.72969 0-1.3219 0.59221-1.3219 1.3219s0.59221 1.3219 1.3219 1.3219c0.73233 0 1.3219-0.59221 1.3219-1.3219s-0.58957-1.3219-1.3219-1.3219" fill="none" stroke="#000" stroke-linecap="round" stroke-linejoin="round" stroke-width=".26438px"/>
  <g transform="matrix(.26458 0 0 .26458 269.92 155.35)" clip-path="url(#clipEmfPath1-1)">
   <text transform="translate(10.072 18.706)" fill="#000000" font-family="Calibri" font-size="14.688px" font-style="italic" font-weight="400" letter-spacing="0px" word-spacing="0px" style="line-height:125%" xml:space="preserve"><tspan x="0" y="0" fill="#000000" font-family="Calibri" font-weight="400"><tspan dx="0" dy="0" font-size="14.688px" font-style="italic">T</tspan><tspan dx="0" dy="1.279019" font-size="9.25px" font-style="italic">1</tspan><tspan dx="0" dy="-1.279019" font-size="14.688px" font-style="normal"/><tspan dx="0" dy="0" font-size="14.688px" font-style="normal">(6)</tspan><tspan dx="0" dy="0" font-size="14.688px" font-style="normal"/></tspan></text>
  </g>
  <g transform="matrix(.26458 0 0 .26458 269.92 155.35)" clip-path="url(#clipEmfPath2-11)">
   <text transform="translate(107.92 20.624)" fill="#000000" font-family="Calibri" font-size="14.688px" font-style="italic" font-weight="400" letter-spacing="0px" word-spacing="0px" style="line-height:125%" xml:space="preserve"><tspan x="0" y="0" font-family="Calibri" font-weight="400"><tspan dx="0" dy="0" fill="#000000" font-size="14.688px" font-style="italic">T</tspan><tspan dx="0" dy="1.279019" fill="#000000" font-size="9.25px" font-style="italic">5</tspan><tspan dx="0" dy="-1.279019" fill="#000000" font-size="14.688px" font-style="normal"/><tspan dx="0" dy="0" fill="#000000" font-size="14.688px" font-style="normal">(5) </tspan><tspan dx="0" dy="0" fill="#ff0000" font-size="14.688px" font-style="normal">[12]</tspan><tspan dx="0" dy="0" fill="#000000" font-size="14.688px" font-style="normal"/></tspan></text>
  </g>
  <path d="m278.46 164.07h21.24v0.35163h-21.24zm20.886-0.88038 2.115 1.0575-2.115 1.0575z" stroke="#000" stroke-linejoin="bevel" stroke-width=".042301px"/>
  <path d="m276.35 177.78c-0.72969 0-1.3219 0.59221-1.3219 1.3219s0.59221 1.3219 1.3219 1.3219c0.73234 0 1.3219-0.59222 1.3219-1.3219s-0.58957-1.3219-1.3219-1.3219z" fill="#fff" fill-rule="evenodd"/>
  <path d="m276.35 177.78c-0.72969 0-1.3219 0.59221-1.3219 1.3219s0.59221 1.3219 1.3219 1.3219c0.73234 0 1.3219-0.59222 1.3219-1.3219s-0.58957-1.3219-1.3219-1.3219" fill="none" stroke="#000" stroke-linecap="round" stroke-linejoin="round" stroke-width=".26438px"/>
  <g transform="matrix(.26458 0 0 .26458 269.92 155.35)" clip-path="url(#clipEmfPath3-22)">
   <text transform="translate(10.072 74.343)" fill="#000000" font-family="Calibri" font-size="14.688px" font-style="italic" font-weight="400" letter-spacing="0px" word-spacing="0px" style="line-height:125%" xml:space="preserve"><tspan x="0" y="0" fill="#000000" font-family="Calibri" font-weight="400"><tspan dx="0" dy="0" font-size="14.688px" font-style="italic">T</tspan><tspan dx="0" dy="1.279019" font-size="9.25px" font-style="italic">2</tspan><tspan dx="0" dy="-1.279019" font-size="14.688px" font-style="normal"/><tspan dx="0" dy="0" font-size="14.688px" font-style="normal">(3)</tspan><tspan dx="0" dy="0" font-size="14.688px" font-style="normal"/></tspan></text>
  </g>
  <path d="m276.35 190.26c-0.72969 0-1.3219 0.59222-1.3219 1.3219 0 0.7297 0.59221 1.3219 1.3219 1.3219 0.73234 0 1.3219-0.59221 1.3219-1.3219 0-0.72968-0.58957-1.3219-1.3219-1.3219z" fill="#fff" fill-rule="evenodd"/>
  <path d="m276.35 190.26c-0.72969 0-1.3219 0.59222-1.3219 1.3219 0 0.7297 0.59221 1.3219 1.3219 1.3219 0.73234 0 1.3219-0.59221 1.3219-1.3219 0-0.72968-0.58957-1.3219-1.3219-1.3219" fill="none" stroke="#000" stroke-linecap="round" stroke-linejoin="round" stroke-width=".26438px"/>
  <g transform="matrix(.26458 0 0 .26458 269.92 155.35)" clip-path="url(#clipEmfPath4-55)">
   <text transform="translate(10.072 121.51)" fill="#000000" font-family="Calibri" font-size="14.688px" font-style="italic" font-weight="400" letter-spacing="0px" word-spacing="0px" style="line-height:125%" xml:space="preserve"><tspan x="0" y="0" fill="#000000" font-family="Calibri" font-weight="400"><tspan dx="0" dy="0" font-size="14.688px" font-style="italic">T</tspan><tspan dx="0" dy="1.279019" font-size="9.25px" font-style="italic">3</tspan><tspan dx="0" dy="-1.279019" font-size="14.688px" font-style="normal"/><tspan dx="0" dy="0" font-size="14.688px" font-style="normal">(7)</tspan><tspan dx="0" dy="0" font-size="14.688px" font-style="normal"/></tspan></text>
  </g>
  <path d="m276.35 202.64c-0.72969 0-1.3219 0.59221-1.3219 1.3219 0 0.7297 0.59221 1.3219 1.3219 1.3219 0.73234 0 1.3219-0.59221 1.3219-1.3219 0-0.72969-0.58957-1.3219-1.3219-1.3219z" fill="#fff" fill-rule="evenodd"/>
  <path d="m276.35 202.64c-0.72969 0-1.3219 0.59221-1.3219 1.3219 0 0.7297 0.59221 1.3219 1.3219 1.3219 0.73234 0 1.3219-0.59221 1.3219-1.3219 0-0.72969-0.58957-1.3219-1.3219-1.3219" fill="none" stroke="#000" stroke-linecap="round" stroke-linejoin="round" stroke-width=".26438px"/>
  <g transform="matrix(.26458 0 0 .26458 269.92 155.35)" clip-path="url(#clipEmfPath5-84)">
   <text transform="translate(10.072 168.35)" fill="#000000" font-family="Calibri" font-size="14.688px" font-style="italic" font-weight="400" letter-spacing="0px" word-spacing="0px" style="line-height:125%" xml:space="preserve"><tspan x="0" y="0" font-family="Calibri" font-weight="400"><tspan dx="0" dy="0" fill="#000000" font-size="14.688px" font-style="italic">T</tspan><tspan dx="0" dy="1.279019" fill="#000000" font-size="9.25px" font-style="italic">4</tspan><tspan dx="0" dy="-1.279019" fill="#000000" font-size="14.688px" font-style="normal"/><tspan dx="0" dy="0" fill="#000000" font-size="14.688px" font-style="normal">(4) </tspan><tspan dx="0" dy="0" fill="#ff0000" font-size="14.688px" font-style="normal">[4]</tspan><tspan dx="0" dy="0" fill="#000000" font-size="14.688px" font-style="normal"/></tspan></text>
  </g>
  <path d="m295.65 177.84c-0.72969 0-1.3219 0.59221-1.3219 1.3219s0.59221 1.3219 1.3219 1.3219c0.73234 0 1.3219-0.59221 1.3219-1.3219s-0.58957-1.3219-1.3219-1.3219z" fill="#fff" fill-rule="evenodd"/>
  <path d="m295.65 177.84c-0.72969 0-1.3219 0.59221-1.3219 1.3219s0.59221 1.3219 1.3219 1.3219c0.73234 0 1.3219-0.59221 1.3219-1.3219s-0.58957-1.3219-1.3219-1.3219" fill="none" stroke="#000" stroke-linecap="round" stroke-linejoin="round" stroke-width=".26438px"/>
  <g transform="matrix(.26458 0 0 .26458 275.14 157.65)" clip-path="url(#clipEmfPath6-03)">
   <text transform="translate(82.976 77.541)" fill="#000000" font-family="Calibri" font-size="14.688px" font-style="italic" font-weight="400" letter-spacing="0px" word-spacing="0px" style="line-height:125%" xml:space="preserve"><tspan x="0" y="0" fill="#000000" font-family="Calibri" font-weight="400"><tspan dx="0" dy="0" font-size="14.688px" font-style="italic">T</tspan><tspan dx="0" dy="1.279019" font-size="9.25px" font-style="italic">6</tspan><tspan dx="0" dy="-1.279019" font-size="14.688px" font-style="normal"/><tspan dx="0" dy="0" font-size="14.688px" font-style="normal">(10)</tspan><tspan dx="0" dy="0" font-size="14.688px" font-style="normal"/></tspan></text>
  </g>
  <path d="m304.11 190.47c-0.72969 0-1.3219 0.59221-1.3219 1.3219s0.59221 1.3219 1.3219 1.3219c0.73233 0 1.3219-0.59221 1.3219-1.3219s-0.58957-1.3219-1.3219-1.3219z" fill="#fff" fill-rule="evenodd"/>
  <path d="m304.11 190.47c-0.72969 0-1.3219 0.59221-1.3219 1.3219s0.59221 1.3219 1.3219 1.3219c0.73233 0 1.3219-0.59221 1.3219-1.3219s-0.58957-1.3219-1.3219-1.3219" fill="none" stroke="#000" stroke-linecap="round" stroke-linejoin="round" stroke-width=".26438px"/>
  <g transform="matrix(.26458 0 0 .26458 269.92 154.82)" clip-path="url(#clipEmfPath7-17)">
   <text transform="translate(112.87 157.32)" fill="#000000" font-family="Calibri" font-size="14.688px" font-style="italic" font-weight="400" letter-spacing="0px" word-spacing="0px" style="line-height:125%" xml:space="preserve"><tspan x="0" y="0" font-family="Calibri" font-weight="400"><tspan dx="0" dy="0" fill="#000000" font-size="14.688px" font-style="italic">T</tspan><tspan dx="0" dy="1.279019" fill="#000000" font-size="9.25px" font-style="italic">7</tspan><tspan dx="0" dy="-1.279019" fill="#000000" font-size="14.688px" font-style="normal"/><tspan dx="0" dy="0" fill="#000000" font-size="14.688px" font-style="normal">(4) </tspan><tspan dx="0" dy="0" fill="#ff0000" font-size="14.688px" font-style="normal">[1</tspan><tspan dx="0" dy="0" fill="#ff0000" font-size="14.688px" font-style="normal">4</tspan><tspan dx="0" dy="0" fill="#ff0000" font-size="14.688px" font-style="normal">]</tspan><tspan dx="0" dy="0" fill="#000000" font-size="14.688px" font-style="normal"/></tspan></text>
  </g>
  <path d="m337.15 178.1c-0.72969 0-1.3219 0.59221-1.3219 1.3219s0.59222 1.3219 1.3219 1.3219c0.73233 0 1.3219-0.59221 1.3219-1.3219s-0.58957-1.3219-1.3219-1.3219z" fill="#fff" fill-rule="evenodd"/>
  <path d="m337.15 178.1c-0.72969 0-1.3219 0.59221-1.3219 1.3219s0.59222 1.3219 1.3219 1.3219c0.73233 0 1.3219-0.59221 1.3219-1.3219s-0.58957-1.3219-1.3219-1.3219" fill="none" stroke="#000" stroke-linecap="round" stroke-linejoin="round" stroke-width=".26438px"/>
  <path d="m318.38 177.84c-0.72969 0-1.3219 0.59221-1.3219 1.3219s0.59221 1.3219 1.3219 1.3219c0.73233 0 1.3219-0.59221 1.3219-1.3219s-0.58957-1.3219-1.3219-1.3219z" fill="#fff" fill-rule="evenodd"/>
  <path d="m318.38 177.84c-0.72969 0-1.3219 0.59221-1.3219 1.3219s0.59221 1.3219 1.3219 1.3219c0.73233 0 1.3219-0.59221 1.3219-1.3219s-0.58957-1.3219-1.3219-1.3219" fill="none" stroke="#000" stroke-linecap="round" stroke-linejoin="round" stroke-width=".26438px"/>
  <g stroke="#000" stroke-linejoin="bevel" stroke-width=".042301px">
   <path d="m305.96 164.32h25.47v0.35427h-25.47zm25.116-0.88039 2.115 1.0575-2.115 1.0575z"/>
   <path d="m307.35 165.65 24.289 10.409-0.14012 0.32519-24.289-10.411zm24.312 9.4595 1.5255 1.8057-2.3583 0.14012z"/>
   <path d="m278.73 179.12h11.194v0.35427h-11.194zm10.84-0.88039 2.115 1.0575-2.115 1.0575z"/>
   <path d="m296.84 181.56 5.7397 6.8448-0.26966 0.22736-5.7424-6.8448zm6.1892 6.0094 0.54727 2.3001-2.1679-0.94119z"/>
   <path d="m321.03 179.12h11.458v0.35427h-11.458zm11.104-0.88039 2.115 1.0575-2.115 1.0575z"/>
   <path d="m306.95 191.82 26.118-10.197 0.12954 0.32784-26.118 10.197zm25.47-10.89 2.353 0.21415-1.5836 1.7555z"/>
   <path d="m278.73 191.55h20.976v0.35427h-20.976zm20.622-0.88039 2.115 1.0575-2.115 1.0575z"/>
   <path d="m296.29 175.76 4.8382-7.2572 0.29346 0.19564-4.8382 7.2572zm3.9102-7.4529 2.0516-1.1738-0.29082 2.3477z"/>
   <path d="m305.57 166.23 8.9228 10.803-0.27231 0.22473-8.9228-10.803zm9.3776 9.9698 0.5314 2.3028-2.16-0.95706z"/>
   <path d="m306.1 190.8 8.7827-8.5527 0.24587 0.25381-8.7827 8.5527zm7.9156-8.9361 2.2525-0.71911-0.77728 2.234z"/>
  </g>
  <path d="m335.57 163.3c-0.72969 0-1.3219 0.59221-1.3219 1.3219s0.59221 1.3219 1.3219 1.3219c0.73234 0 1.3219-0.59221 1.3219-1.3219s-0.58957-1.3219-1.3219-1.3219z" fill="#fff" fill-rule="evenodd"/>
  <path d="m335.57 163.3c-0.72969 0-1.3219 0.59221-1.3219 1.3219s0.59221 1.3219 1.3219 1.3219c0.73234 0 1.3219-0.59221 1.3219-1.3219s-0.58957-1.3219-1.3219-1.3219" fill="none" stroke="#000" stroke-linecap="round" stroke-linejoin="round" stroke-width=".26438px"/>
  <g transform="matrix(.26458 0 0 .26458 269.92 155.35)" clip-path="url(#clipEmfPath10-14)">
   <text transform="translate(233.9 19.665)" fill="#000000" font-family="Calibri" font-size="14.688px" font-style="italic" font-weight="400" letter-spacing="0px" word-spacing="0px" style="line-height:125%" xml:space="preserve"><tspan x="0" y="0" font-family="Calibri" font-weight="400"><tspan dx="0" dy="0" fill="#000000" font-size="14.688px" font-style="italic">T</tspan><tspan dx="0" dy="1.279019" fill="#000000" font-size="9.25px" font-style="italic">9</tspan><tspan dx="0" dy="-1.279019" fill="#000000" font-size="14.688px" font-style="normal"/><tspan dx="0" dy="0" fill="#000000" font-size="14.688px" font-style="normal">(2) </tspan><tspan dx="0" dy="0" fill="#ff0000" font-size="14.688px" font-style="normal">[2]</tspan><tspan dx="0" dy="0" fill="#000000" font-size="14.688px" font-style="normal"/></tspan></text>
  </g>
  <path d="m355.4 187.09c-0.72969 0-1.3219 0.59221-1.3219 1.3219s0.59221 1.3219 1.3219 1.3219c0.73498 0 1.3219-0.59221 1.3219-1.3219s-0.58692-1.3219-1.3219-1.3219z" fill="#fff" fill-rule="evenodd"/>
  <path d="m355.4 187.09c-0.72969 0-1.3219 0.59221-1.3219 1.3219s0.59221 1.3219 1.3219 1.3219c0.73498 0 1.3219-0.59221 1.3219-1.3219s-0.58692-1.3219-1.3219-1.3219" fill="none" stroke="#000" stroke-linecap="round" stroke-linejoin="round" stroke-width=".26438px"/>
  <g transform="matrix(.26458 0 0 .26458 269.92 155.35)" clip-path="url(#clipEmfPath11-9)">
   <text transform="translate(308.72 109.52)" fill="#000000" font-family="Calibri" font-size="14.688px" font-weight="400" letter-spacing="0px" word-spacing="0px" style="line-height:125%" xml:space="preserve"><tspan x="0" y="0" font-family="Calibri" font-size="14.688px" font-weight="400"><tspan dx="0" dy="0" fill="#000000">End</tspan><tspan dx="0" dy="0" fill="#000000"/><tspan dx="0" dy="0" fill="#ff0000">[0]</tspan><tspan dx="0" dy="0" fill="#000000"/></tspan></text>
  </g>
  <g stroke="#000" stroke-linejoin="bevel" stroke-width=".042301px">
   <path d="m339.37 178.1 11.265 8.2143-0.20622 0.28553-11.268-8.2143zm11.501 7.2969 1.084 2.0992-2.3318-0.39128z"/>
   <path d="m338.09 164.92 13.021 19.162-0.29082 0.19829-13.023-19.162zm13.552 18.377 0.31197 2.3424-2.0622-1.1554z"/>
   <path d="m279.13 204.4 71.771-14.715 0.0714 0.3437-71.771 14.715zm71.248-15.509 2.2842 0.61072-1.8586 1.462z"/>
  </g>
  <rect x="342.99" y="172.54" width="4.0915" height="3.9551" fill="#fff"/>
  <g transform="matrix(.26458 0 0 .26458 269.92 155.35)" clip-path="url(#clipEmfPath8-37)">
   <text transform="translate(239.82 75.622)" fill="#000000" font-family="Calibri" font-size="14.688px" font-style="italic" font-weight="400" letter-spacing="0px" word-spacing="0px" style="line-height:125%" xml:space="preserve"><tspan x="0" y="0" font-family="Calibri" font-weight="400"><tspan dx="0" dy="0" fill="#000000" font-size="14.688px" font-style="italic">T</tspan><tspan dx="0" dy="1.279019" fill="#000000" font-size="9.25px" font-style="italic">10</tspan><tspan dx="0" dy="-1.279019" fill="#000000" font-size="14.688px" font-style="normal"/><tspan dx="0" dy="0" fill="#000000" font-size="14.688px" font-style="normal">(7) </tspan><tspan dx="0" dy="0" fill="#ff0000" font-size="14.688px" font-style="normal">[7]</tspan><tspan dx="0" dy="0" fill="#000000" font-size="14.688px" font-style="normal"/></tspan></text>
  </g>
  <rect x="323.08" y="172.13" width="6.0009" height="3.9551" fill="#fff"/>
  <g transform="matrix(.26458 0 0 .26458 269.92 155.35)" clip-path="url(#clipEmfPath9-14)">
   <text transform="translate(168.83 74.663)" fill="#000000" font-family="Calibri" font-size="14.688px" font-style="italic" font-weight="400" letter-spacing="0px" word-spacing="0px" style="line-height:125%" xml:space="preserve"><tspan x="0" y="0" font-family="Calibri" font-weight="400"><tspan dx="0" dy="0" fill="#000000" font-size="14.688px" font-style="italic">T</tspan><tspan dx="0" dy="1.279019" fill="#000000" font-size="9.25px" font-style="italic">8</tspan><tspan dx="0" dy="-1.279019" fill="#000000" font-size="14.688px" font-style="normal"/><tspan dx="0" dy="0" fill="#000000" font-size="14.688px" font-style="normal">(3) </tspan><tspan dx="0" dy="0" fill="#ff0000" font-size="14.688px" font-style="normal">[10]</tspan><tspan dx="0" dy="0" fill="#000000" font-size="14.688px" font-style="normal"/></tspan></text>
  </g>
 </g>
</svg>
