<?xml version="1.0" encoding="UTF-8"?>
<!-- Created with Inkscape (http://www.inkscape.org/) -->
<svg width="88.686mm" height="50.099mm" version="1.1" viewBox="0 0 88.685781 50.099374" xmlns="http://www.w3.org/2000/svg" xmlns:cc="http://creativecommons.org/ns#" xmlns:dc="http://purl.org/dc/elements/1.1/" xmlns:rdf="http://www.w3.org/1999/02/22-rdf-syntax-ns#">
 <defs>
  <clipPath id="clipEmfPath1-974">
   <path d="m0.47963 5.1161h89.851v21.424h-89.851z"/>
  </clipPath>
  <clipPath id="clipEmfPath2-86">
   <path d="m98.325 7.1945h131.9v21.264h-131.9z"/>
  </clipPath>
  <clipPath id="clipEmfPath3-45">
   <path d="m0.47963 63.311h91.929v21.424h-91.929z"/>
  </clipPath>
  <clipPath id="clipEmfPath4-35">
   <path d="m0.47963 112.87h96.886v21.424h-96.886z"/>
  </clipPath>
  <clipPath id="clipEmfPath5-46">
   <path d="m0.47963 164.35h104.88v21.424h-104.88z"/>
  </clipPath>
  <clipPath id="clipEmfPath6-9">
   <path d="m73.384 64.431h105.84v21.424h-105.84z"/>
  </clipPath>
  <clipPath id="clipEmfPath7-86">
   <path d="m104.4 149.01h97.845v21.264h-97.845z"/>
  </clipPath>
  <clipPath id="clipEmfPath8-5">
   <path d="m230.22 64.431h118.95v21.424h-118.95z"/>
  </clipPath>
  <clipPath id="clipEmfPath9-62">
   <path d="m159.24 63.471h98.964v21.424h-98.964z"/>
  </clipPath>
  <clipPath id="clipEmfPath10-9">
   <path d="m224.31 6.0753h101.84v21.424h-101.84z"/>
  </clipPath>
  <clipPath id="clipEmfPath11-94">
   <path d="m299.13 100.88h71.945v21.424h-71.945z"/>
  </clipPath>
 </defs>
 <metadata>
  <rdf:RDF>
   <cc:Work rdf:about="">
    <dc:format>image/svg+xml</dc:format>
    <dc:type rdf:resource="http://purl.org/dc/dcmitype/StillImage"/>
    <dc:title/>
   </cc:Work>
  </rdf:RDF>
 </metadata>
 <g transform="translate(-301.79 -155.95)">
  <text x="298.81137" y="157.0509" fill="#000000" font-family="Calibri" font-size="3.8861px" font-weight="400" letter-spacing="0px" stroke-width=".26458" word-spacing="0px" style="line-height:125%" xml:space="preserve"><tspan x="0" y="0" stroke-width=".26458"><tspan dx="0" dy="0" fill="#000000" font-family="Calibri" font-size="3.8861px" font-weight="400" stroke-width=".26458"/></tspan></text>
  <path d="m305.24 161.15c-0.72969 0-1.3219 0.59222-1.3219 1.3219s0.59221 1.3219 1.3219 1.3219c0.73234 0 1.3219-0.59221 1.3219-1.3219s-0.58957-1.3219-1.3219-1.3219z" fill="#fff" fill-rule="evenodd"/>
  <path d="m305.24 161.15c-0.72969 0-1.3219 0.59222-1.3219 1.3219s0.59221 1.3219 1.3219 1.3219c0.73234 0 1.3219-0.59221 1.3219-1.3219s-0.58957-1.3219-1.3219-1.3219" fill="none" stroke="#000" stroke-linecap="round" stroke-linejoin="round" stroke-width=".26438px"/>
  <path d="m332.47 161.15c-0.72969 0-1.3219 0.59222-1.3219 1.3219s0.59221 1.3219 1.3219 1.3219c0.73233 0 1.3219-0.59221 1.3219-1.3219s-0.58957-1.3219-1.3219-1.3219z" fill="#fff" fill-rule="evenodd"/>
  <path d="m332.47 161.15c-0.72969 0-1.3219 0.59222-1.3219 1.3219s0.59221 1.3219 1.3219 1.3219c0.73233 0 1.3219-0.59221 1.3219-1.3219s-0.58957-1.3219-1.3219-1.3219" fill="none" stroke="#000" stroke-linecap="round" stroke-linejoin="round" stroke-width=".26438px"/>
  <g transform="matrix(.26458 0 0 .26458 298.81 153.41)" clip-path="url(#clipEmfPath1-974)">
   <text transform="translate(10.072 18.866)" fill="#000000" font-family="Calibri" font-size="14.688px" font-style="italic" font-weight="400" letter-spacing="0px" word-spacing="0px" style="line-height:125%" xml:space="preserve"><tspan x="0" y="0" font-family="Calibri" font-weight="400"><tspan dx="0" dy="0" fill="#000000" font-size="14.688px" font-style="italic">T</tspan><tspan dx="0" dy="1.279019" fill="#000000" font-size="9.25px" font-style="italic">1</tspan><tspan dx="0" dy="-1.279019" fill="#000000" font-size="14.688px" font-style="normal"/><tspan dx="0" dy="0" fill="#000000" font-size="14.688px" font-style="normal">(6) </tspan><tspan dx="0" dy="0" fill="#ff0000" font-size="14.688px" font-style="normal">[</tspan><tspan dx="0" dy="0" fill="#ff0000" font-size="14.688px" font-style="normal">21</tspan><tspan dx="0" dy="0" fill="#ff0000" font-size="14.688px" font-style="normal">]</tspan><tspan dx="0" dy="0" fill="#000000" font-size="14.688px" font-style="normal"/></tspan></text>
  </g>
  <g transform="matrix(.26458 0 0 .26458 298.81 153.41)" clip-path="url(#clipEmfPath2-86)">
   <text transform="translate(107.92 20.944)" fill="#000000" font-family="Calibri" font-size="14.688px" font-style="italic" font-weight="400" letter-spacing="0px" word-spacing="0px" style="line-height:125%" xml:space="preserve"><tspan x="0" y="0" font-family="Calibri" font-weight="400"><tspan dx="0" dy="0" fill="#000000" font-size="14.688px" font-style="italic">T</tspan><tspan dx="0" dy="1.279019" fill="#000000" font-size="9.25px" font-style="italic">5</tspan><tspan dx="0" dy="-1.279019" fill="#000000" font-size="14.688px" font-style="normal"/><tspan dx="0" dy="0" fill="#000000" font-size="14.688px" font-style="normal">(5) </tspan><tspan dx="0" dy="0" fill="#ff0000" font-size="14.688px" font-style="normal">[1</tspan><tspan dx="0" dy="0" fill="#ff0000" font-size="14.688px" font-style="normal">5</tspan><tspan dx="0" dy="0" fill="#ff0000" font-size="14.688px" font-style="normal">]</tspan><tspan dx="0" dy="0" fill="#000000" font-size="14.688px" font-style="normal"/></tspan></text>
  </g>
  <path d="m307.36 162.19h21.24v0.35163h-21.24zm20.886-0.88039 2.115 1.0575-2.115 1.0575z" stroke="#000" stroke-linejoin="bevel" stroke-width=".042301px"/>
  <path d="m305.24 177.17c-0.72969 0-1.3219 0.59222-1.3219 1.3219s0.59221 1.3219 1.3219 1.3219c0.73234 0 1.3219-0.59221 1.3219-1.3219s-0.58957-1.3219-1.3219-1.3219z" fill="#fff" fill-rule="evenodd"/>
  <path d="m305.24 177.17c-0.72969 0-1.3219 0.59222-1.3219 1.3219s0.59221 1.3219 1.3219 1.3219c0.73234 0 1.3219-0.59221 1.3219-1.3219s-0.58957-1.3219-1.3219-1.3219" fill="none" stroke="#000" stroke-linecap="round" stroke-linejoin="round" stroke-width=".26438px"/>
  <g transform="matrix(.26458 0 0 .26458 298.81 153.41)" clip-path="url(#clipEmfPath3-45)">
   <text transform="translate(10.072 77.061)" fill="#000000" font-family="Calibri" font-size="14.688px" font-style="italic" font-weight="400" letter-spacing="0px" word-spacing="0px" style="line-height:125%" xml:space="preserve"><tspan x="0" y="0" font-family="Calibri" font-weight="400"><tspan dx="0" dy="0" fill="#000000" font-size="14.688px" font-style="italic">T</tspan><tspan dx="0" dy="1.279019" fill="#000000" font-size="9.25px" font-style="italic">2</tspan><tspan dx="0" dy="-1.279019" fill="#000000" font-size="14.688px" font-style="normal"/><tspan dx="0" dy="0" fill="#000000" font-size="14.688px" font-style="normal">(3) </tspan><tspan dx="0" dy="0" fill="#ff0000" font-size="14.688px" font-style="normal">[</tspan><tspan dx="0" dy="0" fill="#ff0000" font-size="14.688px" font-style="normal">28</tspan><tspan dx="0" dy="0" fill="#ff0000" font-size="14.688px" font-style="normal">]</tspan><tspan dx="0" dy="0" fill="#000000" font-size="14.688px" font-style="normal"/></tspan></text>
  </g>
  <path d="m305.24 190.27c-0.72969 0-1.3219 0.59221-1.3219 1.3219 0 0.72969 0.59221 1.3219 1.3219 1.3219 0.73234 0 1.3219-0.59221 1.3219-1.3219 0-0.7297-0.58957-1.3219-1.3219-1.3219z" fill="#fff" fill-rule="evenodd"/>
  <path d="m305.24 190.27c-0.72969 0-1.3219 0.59221-1.3219 1.3219 0 0.72969 0.59221 1.3219 1.3219 1.3219 0.73234 0 1.3219-0.59221 1.3219-1.3219 0-0.7297-0.58957-1.3219-1.3219-1.3219" fill="none" stroke="#000" stroke-linecap="round" stroke-linejoin="round" stroke-width=".26438px"/>
  <g transform="matrix(.26458 0 0 .26458 298.81 153.41)" clip-path="url(#clipEmfPath4-35)">
   <text transform="translate(10.072 126.62)" fill="#000000" font-family="Calibri" font-size="14.688px" font-style="italic" font-weight="400" letter-spacing="0px" word-spacing="0px" style="line-height:125%" xml:space="preserve"><tspan x="0" y="0" font-family="Calibri" font-weight="400"><tspan dx="0" dy="0" fill="#000000" font-size="14.688px" font-style="italic">T</tspan><tspan dx="0" dy="1.279019" fill="#000000" font-size="9.25px" font-style="italic">3</tspan><tspan dx="0" dy="-1.279019" fill="#000000" font-size="14.688px" font-style="normal"/><tspan dx="0" dy="0" fill="#000000" font-size="14.688px" font-style="normal">(7) </tspan><tspan dx="0" dy="0" fill="#ff0000" font-size="14.688px" font-style="normal">[2</tspan><tspan dx="0" dy="0" fill="#ff0000" font-size="14.688px" font-style="normal">1</tspan><tspan dx="0" dy="0" fill="#ff0000" font-size="14.688px" font-style="normal">]</tspan><tspan dx="0" dy="0" fill="#000000" font-size="14.688px" font-style="normal"/></tspan></text>
  </g>
  <path d="m305.24 203.27c-0.72969 0-1.3219 0.59221-1.3219 1.3219s0.59221 1.3219 1.3219 1.3219c0.73234 0 1.3219-0.59221 1.3219-1.3219s-0.58957-1.3219-1.3219-1.3219z" fill="#fff" fill-rule="evenodd"/>
  <path d="m305.24 203.27c-0.72969 0-1.3219 0.59221-1.3219 1.3219s0.59221 1.3219 1.3219 1.3219c0.73234 0 1.3219-0.59221 1.3219-1.3219s-0.58957-1.3219-1.3219-1.3219" fill="none" stroke="#000" stroke-linecap="round" stroke-linejoin="round" stroke-width=".26438px"/>
  <g transform="matrix(.26458 0 0 .26458 298.81 153.41)" clip-path="url(#clipEmfPath5-46)">
   <text transform="translate(10.072 178.1)" fill="#000000" font-family="Calibri" font-size="14.688px" font-style="italic" font-weight="400" letter-spacing="0px" word-spacing="0px" style="line-height:125%" xml:space="preserve"><tspan x="0" y="0" font-family="Calibri" font-weight="400"><tspan dx="0" dy="0" fill="#000000" font-size="14.688px" font-style="italic">T</tspan><tspan dx="0" dy="1.279019" fill="#000000" font-size="9.25px" font-style="italic">4</tspan><tspan dx="0" dy="-1.279019" fill="#000000" font-size="14.688px" font-style="normal"/><tspan dx="0" dy="0" fill="#000000" font-size="14.688px" font-style="normal">(4) </tspan><tspan dx="0" dy="0" fill="#ff0000" font-size="14.688px" font-style="normal">[4]</tspan><tspan dx="0" dy="0" fill="#000000" font-size="14.688px" font-style="normal"/></tspan></text>
  </g>
  <path d="m324.54 177.22c-0.72969 0-1.3219 0.59221-1.3219 1.3219s0.59221 1.3219 1.3219 1.3219c0.73234 0 1.3219-0.59222 1.3219-1.3219s-0.58957-1.3219-1.3219-1.3219z" fill="#fff" fill-rule="evenodd"/>
  <path d="m324.54 177.22c-0.72969 0-1.3219 0.59221-1.3219 1.3219s0.59221 1.3219 1.3219 1.3219c0.73234 0 1.3219-0.59222 1.3219-1.3219s-0.58957-1.3219-1.3219-1.3219" fill="none" stroke="#000" stroke-linecap="round" stroke-linejoin="round" stroke-width=".26438px"/>
  <g transform="matrix(.26458 0 0 .26458 303.28 156.5)" clip-path="url(#clipEmfPath6-9)">
   <text transform="translate(82.976 78.18)" fill="#000000" font-family="Calibri" font-size="14.688px" font-style="italic" font-weight="400" letter-spacing="0px" word-spacing="0px" style="line-height:125%" xml:space="preserve"><tspan x="0" y="0" font-family="Calibri" font-weight="400"><tspan dx="0" dy="0" fill="#000000" font-size="14.688px" font-style="italic">T</tspan><tspan dx="0" dy="1.279019" fill="#000000" font-size="9.25px" font-style="italic">6</tspan><tspan dx="0" dy="-1.279019" fill="#000000" font-size="14.688px" font-style="normal"/><tspan dx="0" dy="0" fill="#000000" font-size="14.688px" font-style="normal">(10) </tspan><tspan dx="0" dy="0" fill="#ff0000" font-size="14.688px" font-style="normal">[2</tspan><tspan dx="0" dy="0" fill="#ff0000" font-size="14.688px" font-style="normal">5</tspan><tspan dx="0" dy="0" fill="#ff0000" font-size="14.688px" font-style="normal">]</tspan><tspan dx="0" dy="0" fill="#000000" font-size="14.688px" font-style="normal"/></tspan></text>
  </g>
  <path d="m333 190.48c-0.72969 0-1.3219 0.59221-1.3219 1.3219s0.59221 1.3219 1.3219 1.3219c0.73233 0 1.3219-0.59221 1.3219-1.3219s-0.58957-1.3219-1.3219-1.3219z" fill="#fff" fill-rule="evenodd"/>
  <path d="m333 190.48c-0.72969 0-1.3219 0.59221-1.3219 1.3219s0.59221 1.3219 1.3219 1.3219c0.73233 0 1.3219-0.59221 1.3219-1.3219s-0.58957-1.3219-1.3219-1.3219" fill="none" stroke="#000" stroke-linecap="round" stroke-linejoin="round" stroke-width=".26438px"/>
  <g transform="matrix(.26458 0 0 .26458 298.81 153.41)" clip-path="url(#clipEmfPath7-86)">
   <text transform="translate(113.99 162.76)" fill="#000000" font-family="Calibri" font-size="14.688px" font-style="italic" font-weight="400" letter-spacing="0px" word-spacing="0px" style="line-height:125%" xml:space="preserve"><tspan x="0" y="0" font-family="Calibri" font-weight="400"><tspan dx="0" dy="0" fill="#000000" font-size="14.688px" font-style="italic">T</tspan><tspan dx="0" dy="1.279019" fill="#000000" font-size="9.25px" font-style="italic">7</tspan><tspan dx="0" dy="-1.279019" fill="#000000" font-size="14.688px" font-style="normal"/><tspan dx="0" dy="0" fill="#000000" font-size="14.688px" font-style="normal">(4) </tspan><tspan dx="0" dy="0" fill="#ff0000" font-size="14.688px" font-style="normal">[1</tspan><tspan dx="0" dy="0" fill="#ff0000" font-size="14.688px" font-style="normal">4</tspan><tspan dx="0" dy="0" fill="#ff0000" font-size="14.688px" font-style="normal">]</tspan><tspan dx="0" dy="0" fill="#000000" font-size="14.688px" font-style="normal"/></tspan></text>
  </g>
  <path d="m366.05 177.49c-0.72969 0-1.3219 0.59221-1.3219 1.3219s0.59222 1.3219 1.3219 1.3219c0.73233 0 1.3219-0.59222 1.3219-1.3219s-0.58957-1.3219-1.3219-1.3219z" fill="#fff" fill-rule="evenodd"/>
  <path d="m366.05 177.49c-0.72969 0-1.3219 0.59221-1.3219 1.3219s0.59222 1.3219 1.3219 1.3219c0.73233 0 1.3219-0.59222 1.3219-1.3219s-0.58957-1.3219-1.3219-1.3219" fill="none" stroke="#000" stroke-linecap="round" stroke-linejoin="round" stroke-width=".26438px"/>
  <path d="m347.28 177.22c-0.72969 0-1.3219 0.59221-1.3219 1.3219s0.59221 1.3219 1.3219 1.3219c0.73233 0 1.3219-0.59222 1.3219-1.3219s-0.58957-1.3219-1.3219-1.3219z" fill="#fff" fill-rule="evenodd"/>
  <path d="m347.28 177.22c-0.72969 0-1.3219 0.59221-1.3219 1.3219s0.59221 1.3219 1.3219 1.3219c0.73233 0 1.3219-0.59222 1.3219-1.3219s-0.58957-1.3219-1.3219-1.3219" fill="none" stroke="#000" stroke-linecap="round" stroke-linejoin="round" stroke-width=".26438px"/>
  <g stroke="#000" stroke-linejoin="bevel" stroke-width=".042301px">
   <path d="m334.85 162.43h25.47v0.35427h-25.47zm25.116-0.88038 2.115 1.0575-2.115 1.0575z"/>
   <path d="m336.25 163.77 24.289 10.409-0.14012 0.32519-24.289-10.411zm24.312 9.4595 1.5255 1.8057-2.3583 0.14013z"/>
   <path d="m307.62 178.51h11.194v0.35427h-11.194zm10.84-0.88039 2.115 1.0575-2.115 1.0575z"/>
   <path d="m325.74 180.95 5.7397 6.8448-0.26966 0.22737-5.7424-6.8448zm6.1892 6.0094 0.54727 2.3001-2.1679-0.9412z"/>
   <path d="m349.92 178.51h11.458v0.35427h-11.458zm11.104-0.88039 2.115 1.0575-2.115 1.0575z"/>
   <path d="m335.85 191.21 26.118-10.197 0.12954 0.32783-26.118 10.197zm25.47-10.89 2.353 0.21415-1.5836 1.7555z"/>
   <path d="m307.62 191.55h20.976v0.35162h-20.976zm20.622-0.88303 2.115 1.0575-2.115 1.0575z"/>
   <path d="m325.19 173.88 4.8382-7.2572 0.29346 0.19564-4.8382 7.2572zm3.9102-7.4529 2.0516-1.1738-0.29082 2.3477z"/>
   <path d="m334.46 164.35 8.9228 10.803-0.27231 0.22472-8.9228-10.803zm9.3776 9.9698 0.5314 2.3028-2.16-0.95706z"/>
   <path d="m334.99 190.19 8.7827-8.5527 0.24587 0.2538-8.7827 8.5527zm7.9156-8.9361 2.2525-0.71911-0.77728 2.234z"/>
  </g>
  <path d="m364.46 161.41c-0.72969 0-1.3219 0.59222-1.3219 1.3219s0.59221 1.3219 1.3219 1.3219c0.73234 0 1.3219-0.59221 1.3219-1.3219s-0.58957-1.3219-1.3219-1.3219z" fill="#fff" fill-rule="evenodd"/>
  <path d="m364.46 161.41c-0.72969 0-1.3219 0.59222-1.3219 1.3219s0.59221 1.3219 1.3219 1.3219c0.73234 0 1.3219-0.59221 1.3219-1.3219s-0.58957-1.3219-1.3219-1.3219" fill="none" stroke="#000" stroke-linecap="round" stroke-linejoin="round" stroke-width=".26438px"/>
  <g transform="matrix(.26458 0 0 .26458 298.81 153.41)" clip-path="url(#clipEmfPath10-9)">
   <text transform="translate(233.9 19.825)" fill="#000000" font-family="Calibri" font-size="14.688px" font-style="italic" font-weight="400" letter-spacing="0px" word-spacing="0px" style="line-height:125%" xml:space="preserve"><tspan x="0" y="0" font-family="Calibri" font-weight="400"><tspan dx="0" dy="0" fill="#000000" font-size="14.688px" font-style="italic">T</tspan><tspan dx="0" dy="1.279019" fill="#000000" font-size="9.25px" font-style="italic">9</tspan><tspan dx="0" dy="-1.279019" fill="#000000" font-size="14.688px" font-style="normal"/><tspan dx="0" dy="0" fill="#000000" font-size="14.688px" font-style="normal">(2) </tspan><tspan dx="0" dy="0" fill="#ff0000" font-size="14.688px" font-style="normal">[2]</tspan><tspan dx="0" dy="0" fill="#000000" font-size="14.688px" font-style="normal"/></tspan></text>
  </g>
  <path d="m384.29 186.48c-0.72969 0-1.3219 0.59221-1.3219 1.3219s0.59221 1.3219 1.3219 1.3219c0.73498 0 1.3219-0.59222 1.3219-1.3219s-0.58692-1.3219-1.3219-1.3219z" fill="#fff" fill-rule="evenodd"/>
  <path d="m384.29 186.48c-0.72969 0-1.3219 0.59221-1.3219 1.3219s0.59221 1.3219 1.3219 1.3219c0.73498 0 1.3219-0.59222 1.3219-1.3219s-0.58692-1.3219-1.3219-1.3219" fill="none" stroke="#000" stroke-linecap="round" stroke-linejoin="round" stroke-width=".26438px"/>
  <g transform="matrix(.26458 0 0 .26458 298.81 153.41)" clip-path="url(#clipEmfPath11-94)">
   <text transform="translate(308.72 114.63)" fill="#000000" font-family="Calibri" font-size="14.688px" font-weight="400" letter-spacing="0px" word-spacing="0px" style="line-height:125%" xml:space="preserve"><tspan x="0" y="0" font-family="Calibri" font-size="14.688px" font-weight="400"><tspan dx="0" dy="0" fill="#000000">End</tspan><tspan dx="0" dy="0" fill="#000000"/><tspan dx="0" dy="0" fill="#ff0000">[0]</tspan><tspan dx="0" dy="0" fill="#000000"/></tspan></text>
  </g>
  <g stroke="#000" stroke-linejoin="bevel" stroke-width=".042301px">
   <path d="m368.27 177.48 11.265 8.2143-0.20622 0.28553-11.268-8.2143zm11.501 7.2969 1.084 2.0992-2.3318-0.39128z"/>
   <path d="m366.99 163.04 13.021 19.162-0.29082 0.19828-13.023-19.162zm13.552 18.377 0.31197 2.3424-2.0622-1.1553z"/>
   <path d="m307.76 204.14 71.771-14.715 0.0714 0.34634-71.771 14.715zm71.248-15.509 2.2842 0.61072-1.8586 1.462z"/>
  </g>
  <rect x="371.89" y="171.27" width="4.2279" height="4.0915" fill="#fff"/>
  <g transform="matrix(.26458 0 0 .26458 298.81 153.41)" clip-path="url(#clipEmfPath8-5)">
   <text transform="translate(239.82 78.18)" fill="#000000" font-family="Calibri" font-size="14.688px" font-style="italic" font-weight="400" letter-spacing="0px" word-spacing="0px" style="line-height:125%" xml:space="preserve"><tspan x="0" y="0" font-family="Calibri" font-weight="400"><tspan dx="0" dy="0" fill="#000000" font-size="14.688px" font-style="italic">T</tspan><tspan dx="0" dy="1.279019" fill="#000000" font-size="9.25px" font-style="italic">10</tspan><tspan dx="0" dy="-1.279019" fill="#000000" font-size="14.688px" font-style="normal"/><tspan dx="0" dy="0" fill="#000000" font-size="14.688px" font-style="normal">(7) </tspan><tspan dx="0" dy="0" fill="#ff0000" font-size="14.688px" font-style="normal">[7]</tspan><tspan dx="0" dy="0" fill="#000000" font-size="14.688px" font-style="normal"/></tspan></text>
  </g>
  <rect x="353.04" y="171.09" width="5.0462" height="4.0915" fill="#fff"/>
  <g transform="matrix(.26458 0 0 .26458 298.81 153.41)" clip-path="url(#clipEmfPath9-62)">
   <text transform="translate(168.83 77.221)" fill="#000000" font-family="Calibri" font-size="14.688px" font-style="italic" font-weight="400" letter-spacing="0px" word-spacing="0px" style="line-height:125%" xml:space="preserve"><tspan x="0" y="0" font-family="Calibri" font-weight="400"><tspan dx="0" dy="0" fill="#000000" font-size="14.688px" font-style="italic">T</tspan><tspan dx="0" dy="1.279019" fill="#000000" font-size="9.25px" font-style="italic">8</tspan><tspan dx="0" dy="-1.279019" fill="#000000" font-size="14.688px" font-style="normal"/><tspan dx="0" dy="0" fill="#000000" font-size="14.688px" font-style="normal">(3) </tspan><tspan dx="0" dy="0" fill="#ff0000" font-size="14.688px" font-style="normal">[10]</tspan><tspan dx="0" dy="0" fill="#000000" font-size="14.688px" font-style="normal"/></tspan></text>
  </g>
 </g>
</svg>
