<?xml version="1.0" encoding="UTF-8"?>
<!-- Created with Inkscape (http://www.inkscape.org/) -->
<svg width="59.369mm" height="58.98mm" version="1.1" viewBox="0 0 59.368555 58.979917" xmlns="http://www.w3.org/2000/svg" xmlns:cc="http://creativecommons.org/ns#" xmlns:dc="http://purl.org/dc/elements/1.1/" xmlns:rdf="http://www.w3.org/1999/02/22-rdf-syntax-ns#">
 <defs>
  <clipPath id="clipEmfPath1-76">
   <path d="m15.348 4.7963h80.898v21.264h-80.898z"/>
  </clipPath>
  <clipPath id="clipEmfPath2-25">
   <path d="m113.19 6.7148h78.979v21.424h-78.979z"/>
  </clipPath>
  <clipPath id="clipEmfPath3-1">
   <path d="m15.348 107.76h85.854v21.424h-85.854z"/>
  </clipPath>
  <clipPath id="clipEmfPath4-28">
   <path d="m15.348 155.4h96.886v21.424h-96.886z"/>
  </clipPath>
  <clipPath id="clipEmfPath5-9">
   <path d="m106.16 87.453h78.979v21.424h-78.979z"/>
  </clipPath>
  <clipPath id="clipEmfPath6-2">
   <path d="m110.16 138.61h90.011v21.264h-90.011z"/>
  </clipPath>
  <clipPath id="clipEmfPath7-9">
   <path d="m14.229 197.61h85.055v21.424h-85.055z"/>
  </clipPath>
  <clipPath id="clipEmfPath8-39">
   <path d="m193.13 56.437h111.91v21.424h-111.91z"/>
  </clipPath>
  <clipPath id="clipEmfPath9-88">
   <path d="m0.31975 59.474h90.97v21.424h-90.97z"/>
  </clipPath>
 </defs>
 <metadata>
  <rdf:RDF>
   <cc:Work rdf:about="">
    <dc:format>image/svg+xml</dc:format>
    <dc:type rdf:resource="http://purl.org/dc/dcmitype/StillImage"/>
    <dc:title/>
   </cc:Work>
  </rdf:RDF>
 </metadata>
 <g transform="translate(-432.96 -142.64)">
  <text x="426.34628" y="143.8273" fill="#000000" font-family="Calibri" font-size="3.8861px" font-weight="400" letter-spacing="0px" stroke-width=".26458" word-spacing="0px" style="line-height:125%" xml:space="preserve"><tspan x="0" y="0" stroke-width=".26458"><tspan dx="0" dy="0" fill="#000000" font-family="Calibri" font-size="3.8861px" font-weight="400" stroke-width=".26458"/></tspan></text>
  <path d="m436.71 147.82c-0.72969 0-1.3219 0.59221-1.3219 1.3219 0 0.7297 0.59221 1.3219 1.3219 1.3219s1.3219-0.59221 1.3219-1.3219c0-0.72969-0.59222-1.3219-1.3219-1.3219z" fill="#fff" fill-rule="evenodd"/>
  <path d="m436.71 147.82c-0.72969 0-1.3219 0.59221-1.3219 1.3219 0 0.7297 0.59221 1.3219 1.3219 1.3219s1.3219-0.59221 1.3219-1.3219c0-0.72969-0.59222-1.3219-1.3219-1.3219" fill="none" stroke="#000" stroke-linecap="round" stroke-linejoin="round" stroke-width=".26438px"/>
  <path d="m463.94 147.82c-0.72969 0-1.3219 0.59221-1.3219 1.3219 0 0.7297 0.59222 1.3219 1.3219 1.3219s1.3219-0.59221 1.3219-1.3219c0-0.72969-0.59221-1.3219-1.3219-1.3219z" fill="#fff" fill-rule="evenodd"/>
  <path d="m463.94 147.82c-0.72969 0-1.3219 0.59221-1.3219 1.3219 0 0.7297 0.59222 1.3219 1.3219 1.3219s1.3219-0.59221 1.3219-1.3219c0-0.72969-0.59221-1.3219-1.3219-1.3219" fill="none" stroke="#000" stroke-linecap="round" stroke-linejoin="round" stroke-width=".26438px"/>
  <g transform="matrix(.26458 0 0 .26458 426.35 140.19)" clip-path="url(#clipEmfPath1-76)">
   <text transform="translate(24.941 18.546)" fill="#000000" font-family="Calibri" font-size="14.688px" font-style="italic" font-weight="400" letter-spacing="0px" word-spacing="0px" style="line-height:125%" xml:space="preserve"><tspan x="0" y="0" font-family="Calibri" font-weight="400"><tspan dx="0" dy="0" fill="#000000" font-size="14.688px" font-style="italic">T</tspan><tspan dx="0" dy="1.279019" fill="#000000" font-size="9.25px" font-style="italic">1</tspan><tspan dx="0" dy="-1.279019" fill="#000000" font-size="14.688px" font-style="normal"/><tspan dx="0" dy="0" fill="#000000" font-size="14.688px" font-style="normal">(1) </tspan><tspan dx="0" dy="0" fill="#ff0000" font-size="14.688px" font-style="normal">[</tspan><tspan dx="0" dy="0" fill="#ff0000" font-size="14.688px" font-style="normal">9</tspan><tspan dx="0" dy="0" fill="#ff0000" font-size="14.688px" font-style="normal">]</tspan><tspan dx="0" dy="0" fill="#000000" font-size="14.688px" font-style="normal"/></tspan></text>
  </g>
  <g transform="matrix(.26458 0 0 .26458 426.35 140.19)" clip-path="url(#clipEmfPath2-25)">
   <text transform="translate(122.79 20.464)" fill="#000000" font-family="Calibri" font-size="14.688px" font-style="italic" font-weight="400" letter-spacing="0px" word-spacing="0px" style="line-height:125%" xml:space="preserve"><tspan x="0" y="0" font-family="Calibri" font-weight="400"><tspan dx="0" dy="0" fill="#000000" font-size="14.688px" font-style="italic">T</tspan><tspan dx="0" dy="1.279019" fill="#000000" font-size="9.25px" font-style="italic">6</tspan><tspan dx="0" dy="-1.279019" fill="#000000" font-size="14.688px" font-style="normal"/><tspan dx="0" dy="0" fill="#000000" font-size="14.688px" font-style="normal">(2)</tspan><tspan dx="0" dy="0" fill="#ff0000" font-size="14.688px" font-style="normal"/><tspan dx="0" dy="0" fill="#ff0000" font-size="14.688px" font-style="normal">[8]</tspan><tspan dx="0" dy="0" fill="#000000" font-size="14.688px" font-style="normal"/></tspan></text>
  </g>
  <path d="m438.82 148.86h21.238v0.35162h-21.238zm20.886-0.88039 2.115 1.0575-2.115 1.0575z" stroke="#000" stroke-linejoin="bevel" stroke-width=".042301px"/>
  <path d="m436.71 174.94c-0.72969 0-1.3219 0.59221-1.3219 1.3219s0.59221 1.3219 1.3219 1.3219 1.3219-0.59221 1.3219-1.3219-0.59222-1.3219-1.3219-1.3219z" fill="#fff" fill-rule="evenodd"/>
  <path d="m436.71 174.94c-0.72969 0-1.3219 0.59221-1.3219 1.3219s0.59221 1.3219 1.3219 1.3219 1.3219-0.59221 1.3219-1.3219-0.59222-1.3219-1.3219-1.3219" fill="none" stroke="#000" stroke-linecap="round" stroke-linejoin="round" stroke-width=".26438px"/>
  <g transform="matrix(.26458 0 0 .26458 426.35 140.19)" clip-path="url(#clipEmfPath3-1)">
   <text transform="translate(24.941 121.51)" fill="#000000" font-family="Calibri" font-size="14.688px" font-style="italic" font-weight="400" letter-spacing="0px" word-spacing="0px" style="line-height:125%" xml:space="preserve"><tspan x="0" y="0" font-family="Calibri" font-weight="400"><tspan dx="0" dy="0" fill="#000000" font-size="14.688px" font-style="italic">T</tspan><tspan dx="0" dy="1.279019" fill="#000000" font-size="9.25px" font-style="italic">3</tspan><tspan dx="0" dy="-1.279019" fill="#000000" font-size="14.688px" font-style="normal"/><tspan dx="0" dy="0" fill="#000000" font-size="14.688px" font-style="normal">(1) </tspan><tspan dx="0" dy="0" fill="#ff0000" font-size="14.688px" font-style="normal">[</tspan><tspan dx="0" dy="0" fill="#ff0000" font-size="14.688px" font-style="normal">1</tspan><tspan dx="0" dy="0" fill="#ff0000" font-size="14.688px" font-style="normal">]</tspan><tspan dx="0" dy="0" fill="#000000" font-size="14.688px" font-style="normal"/></tspan></text>
  </g>
  <path d="m436.71 187.42c-0.72969 0-1.3219 0.59221-1.3219 1.3219s0.59221 1.3219 1.3219 1.3219 1.3219-0.59221 1.3219-1.3219-0.59222-1.3219-1.3219-1.3219z" fill="#fff" fill-rule="evenodd"/>
  <path d="m436.71 187.42c-0.72969 0-1.3219 0.59221-1.3219 1.3219s0.59221 1.3219 1.3219 1.3219 1.3219-0.59221 1.3219-1.3219-0.59222-1.3219-1.3219-1.3219" fill="none" stroke="#000" stroke-linecap="round" stroke-linejoin="round" stroke-width=".26438px"/>
  <g transform="matrix(.26458 0 0 .26458 426.35 140.19)" clip-path="url(#clipEmfPath4-28)">
   <text transform="translate(24.941 169.15)" fill="#000000" font-family="Calibri" font-size="14.688px" font-style="italic" font-weight="400" letter-spacing="0px" word-spacing="0px" style="line-height:125%" xml:space="preserve"><tspan x="0" y="0" font-family="Calibri" font-weight="400"><tspan dx="0" dy="0" fill="#000000" font-size="14.688px" font-style="italic">T</tspan><tspan dx="0" dy="1.279019" fill="#000000" font-size="9.25px" font-style="italic">4</tspan><tspan dx="0" dy="-1.279019" fill="#000000" font-size="14.688px" font-style="normal"/><tspan dx="0" dy="0" fill="#000000" font-size="14.688px" font-style="normal">(6) </tspan><tspan dx="0" dy="0" fill="#ff0000" font-size="14.688px" font-style="normal">[</tspan><tspan dx="0" dy="0" fill="#ff0000" font-size="14.688px" font-style="normal">6</tspan><tspan dx="0" dy="0" fill="#ff0000" font-size="14.688px" font-style="normal">]</tspan><tspan dx="0" dy="0" fill="#000000" font-size="14.688px" font-style="normal"/></tspan></text>
  </g>
  <path d="m462.88 161.04c-0.7297 0-1.3219 0.59221-1.3219 1.3219s0.59221 1.3219 1.3219 1.3219c0.72969 0 1.3219-0.59221 1.3219-1.3219s-0.59221-1.3219-1.3219-1.3219z" fill="#fff" fill-rule="evenodd"/>
  <path d="m462.88 161.04c-0.7297 0-1.3219 0.59221-1.3219 1.3219s0.59221 1.3219 1.3219 1.3219c0.72969 0 1.3219-0.59221 1.3219-1.3219s-0.59221-1.3219-1.3219-1.3219" fill="none" stroke="#000" stroke-linecap="round" stroke-linejoin="round" stroke-width=".26438px"/>
  <g transform="matrix(.26458 0 0 .26458 426.35 140.19)" clip-path="url(#clipEmfPath5-9)">
   <text transform="translate(115.75 101.2)" fill="#000000" font-family="Calibri" font-size="14.688px" font-style="italic" font-weight="400" letter-spacing="0px" word-spacing="0px" style="line-height:125%" xml:space="preserve"><tspan x="0" y="0" font-family="Calibri" font-weight="400"><tspan dx="0" dy="0" fill="#000000" font-size="14.688px" font-style="italic">T</tspan><tspan dx="0" dy="1.279019" fill="#000000" font-size="9.25px" font-style="italic">7</tspan><tspan dx="0" dy="-1.279019" fill="#000000" font-size="14.688px" font-style="normal"/><tspan dx="0" dy="0" fill="#000000" font-size="14.688px" font-style="normal">(2)</tspan><tspan dx="0" dy="0" fill="#ff0000" font-size="14.688px" font-style="normal"/><tspan dx="0" dy="0" fill="#ff0000" font-size="14.688px" font-style="normal">[8]</tspan><tspan dx="0" dy="0" fill="#000000" font-size="14.688px" font-style="normal"/></tspan></text>
  </g>
  <path d="m462.35 173.94c-0.72968 0-1.3219 0.59221-1.3219 1.3219s0.59222 1.3219 1.3219 1.3219c0.7297 0 1.3219-0.59221 1.3219-1.3219s-0.59221-1.3219-1.3219-1.3219z" fill="#fff" fill-rule="evenodd"/>
  <path d="m462.35 173.94c-0.72968 0-1.3219 0.59221-1.3219 1.3219s0.59222 1.3219 1.3219 1.3219c0.7297 0 1.3219-0.59221 1.3219-1.3219s-0.59221-1.3219-1.3219-1.3219" fill="none" stroke="#000" stroke-linecap="round" stroke-linejoin="round" stroke-width=".26438px"/>
  <g transform="matrix(.26458 0 0 .26458 426.35 140.19)" clip-path="url(#clipEmfPath6-2)">
   <text transform="translate(119.75 152.36)" fill="#000000" font-family="Calibri" font-size="14.688px" font-style="italic" font-weight="400" letter-spacing="0px" word-spacing="0px" style="line-height:125%" xml:space="preserve"><tspan x="0" y="0" font-family="Calibri" font-weight="400"><tspan dx="0" dy="0" fill="#000000" font-size="14.688px" font-style="italic">T</tspan><tspan dx="0" dy="1.279019" fill="#000000" font-size="9.25px" font-style="italic">8</tspan><tspan dx="0" dy="-1.279019" fill="#000000" font-size="14.688px" font-style="normal"/><tspan dx="0" dy="0" fill="#000000" font-size="14.688px" font-style="normal">(2)</tspan><tspan dx="0" dy="0" fill="#ff0000" font-size="14.688px" font-style="normal"/><tspan dx="0" dy="0" fill="#ff0000" font-size="14.688px" font-style="normal">[8]</tspan><tspan dx="0" dy="0" fill="#000000" font-size="14.688px" font-style="normal"/></tspan></text>
  </g>
  <path d="m436.44 198.84c-0.72969 0-1.3219 0.59222-1.3219 1.3219s0.59221 1.3219 1.3219 1.3219 1.3219-0.59221 1.3219-1.3219-0.59222-1.3219-1.3219-1.3219z" fill="#fff" fill-rule="evenodd"/>
  <path d="m436.44 198.84c-0.72969 0-1.3219 0.59222-1.3219 1.3219s0.59221 1.3219 1.3219 1.3219 1.3219-0.59221 1.3219-1.3219-0.59222-1.3219-1.3219-1.3219" fill="none" stroke="#000" stroke-linecap="round" stroke-linejoin="round" stroke-width=".26438px"/>
  <g transform="matrix(.26458 0 0 .26458 426.35 140.19)" clip-path="url(#clipEmfPath7-9)">
   <text transform="translate(23.822 211.36)" fill="#000000" font-family="Calibri" font-size="14.688px" font-style="italic" font-weight="400" letter-spacing="0px" word-spacing="0px" style="line-height:125%" xml:space="preserve"><tspan x="0" y="0" font-family="Calibri" font-weight="400"><tspan dx="0" dy="0" fill="#000000" font-size="14.688px" font-style="italic">T</tspan><tspan dx="0" dy="1.279019" fill="#000000" font-size="9.25px" font-style="italic">5</tspan><tspan dx="0" dy="-1.279019" fill="#000000" font-size="14.688px" font-style="normal"/><tspan dx="0" dy="0" fill="#000000" font-size="14.688px" font-style="normal">(6) </tspan><tspan dx="0" dy="0" fill="#ff0000" font-size="14.688px" font-style="normal">[</tspan><tspan dx="0" dy="0" fill="#ff0000" font-size="14.688px" font-style="normal">6</tspan><tspan dx="0" dy="0" fill="#ff0000" font-size="14.688px" font-style="normal">]</tspan><tspan dx="0" dy="0" fill="#000000" font-size="14.688px" font-style="normal"/></tspan></text>
  </g>
  <path d="m482.18 161.34c-0.72969 0-1.3219 0.59221-1.3219 1.3219s0.59221 1.3219 1.3219 1.3219c0.7297 0 1.3219-0.59221 1.3219-1.3219s-0.59221-1.3219-1.3219-1.3219z" fill="#fff" fill-rule="evenodd"/>
  <path d="m482.18 161.34c-0.72969 0-1.3219 0.59221-1.3219 1.3219s0.59221 1.3219 1.3219 1.3219c0.7297 0 1.3219-0.59221 1.3219-1.3219s-0.59221-1.3219-1.3219-1.3219" fill="none" stroke="#000" stroke-linecap="round" stroke-linejoin="round" stroke-width=".26438px"/>
  <g transform="matrix(.26458 0 0 .26458 426.35 140.19)" clip-path="url(#clipEmfPath8-39)">
   <text transform="translate(202.72 70.186)" fill="#000000" font-family="Calibri" font-size="14.688px" font-style="italic" font-weight="400" letter-spacing="0px" word-spacing="0px" style="line-height:125%" xml:space="preserve"><tspan x="0" y="0" font-family="Calibri" font-weight="400"><tspan dx="0" dy="0" fill="#000000" font-size="14.688px" font-style="italic">T</tspan><tspan dx="0" dy="1.279019" fill="#000000" font-size="9.25px" font-style="italic">9</tspan><tspan dx="0" dy="-1.279019" fill="#000000" font-size="14.688px" font-style="normal"/><tspan dx="0" dy="0" fill="#000000" font-size="14.688px" font-style="normal">(6) </tspan><tspan dx="0" dy="0" fill="#ff0000" font-size="14.688px" font-style="normal">[6]</tspan><tspan dx="0" dy="0" fill="#000000" font-size="14.688px" font-style="normal"/></tspan></text>
  </g>
  <g stroke="#000" stroke-linejoin="bevel" stroke-width=".042301px">
   <path d="m438.64 149.92 20.135 11.048-0.1692 0.30933-20.135-11.048zm20.249 10.107 1.3457 1.9432-2.3636-0.0899z"/>
   <path d="m438.69 150.48 20.492 22.491-0.25909 0.23794-20.492-22.491zm20.907 21.637 0.64244 2.2763-2.2049-0.85131z"/>
   <path d="m465.9 150.99 12.365 9.7477-0.21943 0.2776-12.362-9.7504zm12.635 8.8382 1.0046 2.1388-2.316-0.47853z"/>
   <path d="m464.63 174.25 13.359-9.3036 0.20093 0.29082-13.359 9.3036zm12.566-9.8244 2.3398-0.34105-1.1316 2.078z"/>
  </g>
  <path d="m436.66 162.01c-0.70325 0-1.277 0.59221-1.277 1.3219 0 0.73234 0.57371 1.3219 1.277 1.3219 0.70589 0 1.2796-0.58957 1.2796-1.3219 0-0.72969-0.57371-1.3219-1.2796-1.3219z" fill="#fff" fill-rule="evenodd"/>
  <path d="m436.66 162.01c-0.70325 0-1.277 0.59221-1.277 1.3219 0 0.73234 0.57371 1.3219 1.277 1.3219 0.70589 0 1.2796-0.58957 1.2796-1.3219 0-0.72969-0.57371-1.3219-1.2796-1.3219" fill="none" stroke="#000" stroke-linecap="round" stroke-linejoin="round" stroke-width=".26438px"/>
  <g transform="matrix(.26458 0 0 .26458 430.03 140.33)" clip-path="url(#clipEmfPath9-88)">
   <text transform="translate(9.9124 73.224)" fill="#000000" font-family="Calibri" font-size="14.688px" font-style="italic" font-weight="400" letter-spacing="0px" word-spacing="0px" style="line-height:125%" xml:space="preserve"><tspan x="0" y="0" font-family="Calibri" font-weight="400"><tspan dx="0" dy="0" fill="#000000" font-size="14.688px" font-style="italic">T</tspan><tspan dx="0" dy="1.279019" fill="#000000" font-size="9.25px" font-style="italic">2</tspan><tspan dx="0" dy="-1.279019" fill="#000000" font-size="14.688px" font-style="normal"/><tspan dx="0" dy="0" fill="#000000" font-size="14.688px" font-style="normal">(1) </tspan><tspan dx="0" dy="0" fill="#ff0000" font-size="14.688px" font-style="normal">[</tspan><tspan dx="0" dy="0" fill="#ff0000" font-size="14.688px" font-style="normal">1</tspan><tspan dx="0" dy="0" fill="#ff0000" font-size="14.688px" font-style="normal">]</tspan><tspan dx="0" dy="0" fill="#000000" font-size="14.688px" font-style="normal"/></tspan></text>
  </g>
  <path d="m465.8 162.59 9.6076 0.44681-0.0159 0.35162-9.6076-0.4468zm9.2983-0.45209 2.0622 1.1553-2.1626 0.95971z" stroke="#000" stroke-linejoin="bevel" stroke-width=".042301px"/>
 </g>
</svg>
