<?xml version="1.0" encoding="UTF-8"?>
<!-- Created with Inkscape (http://www.inkscape.org/) -->
<svg width="74.357mm" height="40.552mm" version="1.1" viewBox="0 0 74.3571 40.552369" xmlns="http://www.w3.org/2000/svg" xmlns:cc="http://creativecommons.org/ns#" xmlns:dc="http://purl.org/dc/elements/1.1/" xmlns:rdf="http://www.w3.org/1999/02/22-rdf-syntax-ns#">
 <defs>
  <clipPath id="clipEmfPath2-3">
   <path d="m0.47963-0.63951h96.886v21.424h-96.886z"/>
  </clipPath>
  <clipPath id="clipEmfPath3-35">
   <path d="m98.325 1.4389h90.011v21.264h-90.011z"/>
  </clipPath>
  <clipPath id="clipEmfPath4-92">
   <path d="m0.47963 55.158h86.813v21.264h-86.813z"/>
  </clipPath>
  <clipPath id="clipEmfPath5-6">
   <path d="m-9.5926 137.17h103.92v21.264h-103.92z"/>
  </clipPath>
  <clipPath id="clipEmfPath6-6">
   <path d="m94.328 58.355h90.97v21.424h-90.97z"/>
  </clipPath>
  <clipPath id="clipEmfPath7-6">
   <path d="m117.35 108.08h88.892v21.264h-88.892z"/>
  </clipPath>
  <clipPath id="clipEmfPath8-32">
   <path d="m230.22 56.277h84.895v21.424h-84.895z"/>
  </clipPath>
  <clipPath id="clipEmfPath9-9">
   <path d="m224.31 103.28h90.81v21.264h-90.81z"/>
  </clipPath>
  <clipPath id="clipEmfPath10-53">
   <path d="m224.31 0.31975h85.854v21.424h-85.854z"/>
  </clipPath>
 </defs>
 <metadata>
  <rdf:RDF>
   <cc:Work rdf:about="">
    <dc:format>image/svg+xml</dc:format>
    <dc:type rdf:resource="http://purl.org/dc/dcmitype/StillImage"/>
    <dc:title/>
   </cc:Work>
  </rdf:RDF>
 </metadata>
 <g transform="translate(-392.49 -134.7)">
  <text x="498.0722" y="177.56352" fill="#000000" font-family="'Times New Roman'" font-size="4.2333px" font-weight="400" letter-spacing="0px" stroke-width=".26458" word-spacing="0px" style="line-height:125%" xml:space="preserve"><tspan x="0" y="0" stroke-width=".26458"><tspan dx="0" dy="0" fill="#000000" font-family="'Times New Roman'" font-size="4.2333px" font-weight="400" stroke-width=".26458"/></tspan></text>
  <path d="m396.51 139.91c-0.72969 0-1.3219 0.59222-1.3219 1.3219 0 0.73233 0.59221 1.3219 1.3219 1.3219 0.73234 0 1.3219-0.58957 1.3219-1.3219 0-0.72969-0.58957-1.3219-1.3219-1.3219z" fill="#fff" fill-rule="evenodd"/>
  <path d="m396.51 139.91c-0.72969 0-1.3219 0.59222-1.3219 1.3219 0 0.73233 0.59221 1.3219 1.3219 1.3219 0.73234 0 1.3219-0.58957 1.3219-1.3219 0-0.72969-0.58957-1.3219-1.3219-1.3219" fill="none" stroke="#000" stroke-linecap="round" stroke-linejoin="round" stroke-width=".26438px"/>
  <path d="m423.74 139.91c-0.72969 0-1.3219 0.59222-1.3219 1.3219 0 0.73233 0.59221 1.3219 1.3219 1.3219 0.73233 0 1.3219-0.58957 1.3219-1.3219 0-0.72969-0.58957-1.3219-1.3219-1.3219z" fill="#fff" fill-rule="evenodd"/>
  <path d="m423.74 139.91c-0.72969 0-1.3219 0.59222-1.3219 1.3219 0 0.73233 0.59221 1.3219 1.3219 1.3219 0.73233 0 1.3219-0.58957 1.3219-1.3219 0-0.72969-0.58957-1.3219-1.3219-1.3219" fill="none" stroke="#000" stroke-linecap="round" stroke-linejoin="round" stroke-width=".26438px"/>
  <g transform="matrix(.26458 0 0 .26458 390.08 133.7)" clip-path="url(#clipEmfPath2-3)">
   <text transform="translate(9.9124 14.389)" fill="#000000" font-family="'Times New Roman'" font-size="16px" font-style="italic" font-weight="400" letter-spacing="0px" word-spacing="0px" style="line-height:125%" xml:space="preserve"><tspan x="0" y="0" font-family="'Times New Roman'" font-weight="400"><tspan dx="0" dy="0" fill="#000000" font-size="16px" font-style="italic">T</tspan><tspan dx="0" dy="1.279019" fill="#000000" font-size="10.688px" font-style="italic">1</tspan><tspan dx="0" dy="-1.279019" fill="#000000" font-size="16px" font-style="normal"/><tspan dx="0" dy="0" fill="#000000" font-size="16px" font-style="normal">(10) </tspan><tspan dx="0" dy="0" fill="#ff0000" font-size="16px" font-style="normal">[21</tspan><tspan dx="0" dy="0" fill="#ff0000" font-size="16px" font-style="normal">]</tspan><tspan dx="0" dy="0" fill="#000000" font-size="16px" font-style="normal"/></tspan></text>
  </g>
  <g transform="matrix(.26458 0 0 .26458 388.49 133.7)" clip-path="url(#clipEmfPath3-35)">
   <text transform="translate(107.92 16.627)" fill="#000000" font-family="'Times New Roman'" font-size="16px" font-style="italic" font-weight="400" letter-spacing="0px" word-spacing="0px" style="line-height:125%" xml:space="preserve"><tspan x="0" y="0" font-family="'Times New Roman'" font-weight="400"><tspan dx="0" dy="0" fill="#000000" font-size="16px" font-style="italic">T</tspan><tspan dx="0" dy="1.279019" fill="#000000" font-size="10.688px" font-style="italic">2</tspan><tspan dx="0" dy="-1.279019" fill="#000000" font-size="16px" font-style="normal"/><tspan dx="0" dy="0" fill="#000000" font-size="16px" font-style="normal">(7) </tspan><tspan dx="0" dy="0" fill="#ff0000" font-size="16px" font-style="normal">[11</tspan><tspan dx="0.52931398" dy="0" fill="#ff0000" font-size="16px" font-style="normal">]</tspan><tspan dx="0" dy="0" fill="#000000" font-size="16px" font-style="normal"/></tspan></text>
  </g>
  <path d="m398.62 140.93h21.24v0.35162h-21.24zm20.886-0.88039 2.115 1.0575-2.115 1.0575z" stroke="#000" stroke-linejoin="bevel" stroke-width=".042301px"/>
  <path d="m396.51 154.64c-0.72969 0-1.3219 0.59221-1.3219 1.3219s0.59221 1.3219 1.3219 1.3219c0.73234 0 1.3219-0.59221 1.3219-1.3219s-0.58957-1.3219-1.3219-1.3219z" fill="#fff" fill-rule="evenodd"/>
  <path d="m396.51 154.64c-0.72969 0-1.3219 0.59221-1.3219 1.3219s0.59221 1.3219 1.3219 1.3219c0.73234 0 1.3219-0.59221 1.3219-1.3219s-0.58957-1.3219-1.3219-1.3219" fill="none" stroke="#000" stroke-linecap="round" stroke-linejoin="round" stroke-width=".26438px"/>
  <g transform="matrix(.26458 0 0 .26458 390.08 133.7)" clip-path="url(#clipEmfPath4-92)">
   <text transform="translate(9.9124 70.186)" fill="#000000" font-family="'Times New Roman'" font-size="16px" font-style="italic" font-weight="400" letter-spacing="0px" word-spacing="0px" style="line-height:125%" xml:space="preserve"><tspan x="0" y="0" font-family="'Times New Roman'" font-weight="400"><tspan dx="0" dy="0" fill="#000000" font-size="16px" font-style="italic">T</tspan><tspan dx="0" dy="1.279019" fill="#000000" font-size="10.688px" font-style="italic">4</tspan><tspan dx="0" dy="-1.279019" fill="#000000" font-size="16px" font-style="normal"/><tspan dx="0" dy="0" fill="#000000" font-size="16px" font-style="normal">(9) </tspan><tspan dx="0" dy="0" fill="#ff0000" font-size="16px" font-style="normal">[19</tspan><tspan dx="0" dy="0" fill="#ff0000" font-size="16px" font-style="normal">]</tspan><tspan dx="0" dy="0" fill="#000000" font-size="16px" font-style="normal"/></tspan></text>
  </g>
  <path d="m396.51 167.1c-0.72969 0-1.3219 0.59221-1.3219 1.3219s0.59221 1.3219 1.3219 1.3219c0.73234 0 1.3219-0.59222 1.3219-1.3219s-0.58957-1.3219-1.3219-1.3219z" fill="#fff" fill-rule="evenodd"/>
  <path d="m396.51 167.1c-0.72969 0-1.3219 0.59221-1.3219 1.3219s0.59221 1.3219 1.3219 1.3219c0.73234 0 1.3219-0.59222 1.3219-1.3219s-0.58957-1.3219-1.3219-1.3219" fill="none" stroke="#000" stroke-linecap="round" stroke-linejoin="round" stroke-width=".26438px"/>
  <g transform="matrix(.26458 0 0 .26458 392.19 133.7)" clip-path="url(#clipEmfPath5-6)">
   <text transform="translate(0 152.36)" fill="#000000" font-family="'Times New Roman'" font-size="16px" font-style="italic" font-weight="400" letter-spacing="0px" word-spacing="0px" style="line-height:125%" xml:space="preserve"><tspan x="0" y="0" font-family="'Times New Roman'" font-weight="400"><tspan dx="0" dy="0" fill="#000000" font-size="16px" font-style="italic">T</tspan><tspan dx="0" dy="1.279019" fill="#000000" font-size="10.688px" font-style="italic">7</tspan><tspan dx="0" dy="-1.279019" fill="#000000" font-size="16px" font-style="normal"/><tspan dx="0" dy="0" fill="#000000" font-size="16px" font-style="normal">(13) </tspan><tspan dx="0" dy="0" fill="#ff0000" font-size="16px" font-style="normal">[23</tspan><tspan dx="0" dy="0" fill="#ff0000" font-size="16px" font-style="normal">]</tspan><tspan dx="0" dy="0" fill="#000000" font-size="16px" font-style="normal"/></tspan></text>
  </g>
  <path d="m422.95 154.71c-0.72969 0-1.3219 0.58429-1.3219 1.306 0 0.71912 0.59222 1.3034 1.3219 1.3034 0.73233 0 1.3219-0.58428 1.3219-1.3034 0-0.72175-0.58957-1.306-1.3219-1.306z" fill="#fff" fill-rule="evenodd"/>
  <path d="m422.95 154.71c-0.72969 0-1.3219 0.58429-1.3219 1.306 0 0.71912 0.59222 1.3034 1.3219 1.3034 0.73233 0 1.3219-0.58428 1.3219-1.3034 0-0.72175-0.58957-1.306-1.3219-1.306" fill="none" stroke="#000" stroke-linecap="round" stroke-linejoin="round" stroke-width=".26438px"/>
  <g transform="matrix(.26458 0 0 .26458 389.02 133.17)" clip-path="url(#clipEmfPath6-6)">
   <text transform="translate(103.92 73.384)" fill="#000000" font-family="'Times New Roman'" font-size="16px" font-style="italic" font-weight="400" letter-spacing="0px" word-spacing="0px" style="line-height:125%" xml:space="preserve"><tspan x="0" y="0" font-family="'Times New Roman'" font-weight="400"><tspan dx="0" dy="0" fill="#000000" font-size="16px" font-style="italic">T</tspan><tspan dx="0" dy="1.279019" fill="#000000" font-size="10.688px" font-style="italic">5</tspan><tspan dx="0" dy="-1.279019" fill="#000000" font-size="16px" font-style="normal"/><tspan dx="0" dy="0" fill="#000000" font-size="16px" font-style="normal">(5) </tspan><tspan dx="0" dy="0" fill="#ff0000" font-size="16px" font-style="normal">[9</tspan><tspan dx="0" dy="0" fill="#ff0000" font-size="16px" font-style="normal">]</tspan><tspan dx="0" dy="0" fill="#000000" font-size="16px" font-style="normal"/></tspan></text>
  </g>
  <path d="m424.27 167.33c-0.72969 0-1.3219 0.59221-1.3219 1.3219s0.59221 1.3219 1.3219 1.3219c0.73233 0 1.3219-0.59222 1.3219-1.3219s-0.58957-1.3219-1.3219-1.3219z" fill="#fff" fill-rule="evenodd"/>
  <path d="m424.27 167.33c-0.72969 0-1.3219 0.59221-1.3219 1.3219s0.59221 1.3219 1.3219 1.3219c0.73233 0 1.3219-0.59222 1.3219-1.3219s-0.58957-1.3219-1.3219-1.3219" fill="none" stroke="#000" stroke-linecap="round" stroke-linejoin="round" stroke-width=".26438px"/>
  <g transform="matrix(.26458 0 0 .26458 389.55 133.7)" clip-path="url(#clipEmfPath7-6)">
   <text transform="translate(126.94 123.27)" fill="#000000" font-family="'Times New Roman'" font-size="16px" font-style="italic" font-weight="400" letter-spacing="0px" word-spacing="0px" style="line-height:125%" xml:space="preserve"><tspan x="0" y="0" font-family="'Times New Roman'" font-weight="400"><tspan dx="0" dy="0" fill="#000000" font-size="16px" font-style="italic">T</tspan><tspan dx="0" dy="1.279019" fill="#000000" font-size="10.688px" font-style="italic">8</tspan><tspan dx="0" dy="-1.279019" fill="#000000" font-size="16px" font-style="normal"/><tspan dx="0" dy="0" fill="#000000" font-size="16px" font-style="normal">(4) </tspan><tspan dx="0" dy="0" fill="#ff0000" font-size="16px" font-style="normal">[10</tspan><tspan dx="0" dy="0" fill="#ff0000" font-size="16px" font-style="normal">]</tspan><tspan dx="0" dy="0" fill="#000000" font-size="16px" font-style="normal"/></tspan></text>
  </g>
  <path d="m455.99 154.97c-0.72969 0-1.3219 0.58428-1.3219 1.306 0 0.71911 0.59221 1.3034 1.3219 1.3034 0.73234 0 1.3219-0.58428 1.3219-1.3034 0-0.72176-0.58957-1.306-1.3219-1.306z" fill="#fff" fill-rule="evenodd"/>
  <path d="m455.99 154.97c-0.72969 0-1.3219 0.58428-1.3219 1.306 0 0.71911 0.59221 1.3034 1.3219 1.3034 0.73234 0 1.3219-0.58428 1.3219-1.3034 0-0.72176-0.58957-1.306-1.3219-1.306" fill="none" stroke="#000" stroke-linecap="round" stroke-linejoin="round" stroke-width=".26438px"/>
  <g transform="matrix(.26458 0 0 .26458 389.02 133.7)" clip-path="url(#clipEmfPath8-32)">
   <text transform="translate(239.82 71.305)" fill="#000000" font-family="'Times New Roman'" font-size="16px" font-style="italic" font-weight="400" letter-spacing="0px" word-spacing="0px" style="line-height:125%" xml:space="preserve"><tspan x="0" y="0" font-family="'Times New Roman'" font-weight="400"><tspan dx="0" dy="0" fill="#000000" font-size="16px" font-style="italic">T</tspan><tspan dx="0" dy="1.279019" fill="#000000" font-size="10.688px" font-style="italic">6</tspan><tspan dx="0" dy="-1.279019" fill="#000000" font-size="16px" font-style="normal"/><tspan dx="0" dy="0" fill="#000000" font-size="16px" font-style="normal">(4) </tspan><tspan dx="0" dy="0" fill="#ff0000" font-size="16px" font-style="normal">[4]</tspan><tspan dx="0" dy="0" fill="#000000" font-size="16px" font-style="normal"/></tspan></text>
  </g>
  <path d="m455.73 167.38c-0.72969 0-1.3219 0.58692-1.3219 1.3113 0 0.72705 0.59221 1.314 1.3219 1.314 0.73234 0 1.3219-0.58693 1.3219-1.314 0-0.7244-0.58957-1.3113-1.3219-1.3113z" fill="#fff" fill-rule="evenodd"/>
  <path d="m455.73 167.38c-0.72969 0-1.3219 0.58692-1.3219 1.3113 0 0.72705 0.59221 1.314 1.3219 1.314 0.73234 0 1.3219-0.58693 1.3219-1.314 0-0.7244-0.58957-1.3113-1.3219-1.3113" fill="none" stroke="#000" stroke-linecap="round" stroke-linejoin="round" stroke-width=".26438px"/>
  <g transform="matrix(.26458 0 0 .26458 390.08 133.7)" clip-path="url(#clipEmfPath9-9)">
   <text transform="translate(233.74 118.31)" fill="#000000" font-family="'Times New Roman'" font-size="16px" font-style="italic" font-weight="400" letter-spacing="0px" word-spacing="0px" style="line-height:125%" xml:space="preserve"><tspan x="0" y="0" font-family="'Times New Roman'" font-weight="400"><tspan dx="0" dy="0" fill="#000000" font-size="16px" font-style="italic">T</tspan><tspan dx="0" dy="1.279019" fill="#000000" font-size="10.688px" font-style="italic">9</tspan><tspan dx="0" dy="-1.279019" fill="#000000" font-size="16px" font-style="normal"/><tspan dx="0" dy="0" fill="#000000" font-size="16px" font-style="normal">(6) </tspan><tspan dx="0" dy="0" fill="#ff0000" font-size="16px" font-style="normal">[6</tspan><tspan dx="0" dy="0" fill="#ff0000" font-size="16px" font-style="normal">]</tspan><tspan dx="0" dy="0" fill="#000000" font-size="16px" font-style="normal"/></tspan></text>
  </g>
  <g stroke="#000" stroke-linejoin="bevel" stroke-width=".042301px">
   <path d="m426.12 141.17h25.47v0.35427h-25.47zm25.116-0.88039 2.115 1.0575-2.115 1.0575z"/>
   <path d="m427.52 142.51 23.784 11.149-0.14805 0.3199-23.786-11.152zm23.839 10.2 1.4647 1.856-2.3636 0.0608z"/>
   <path d="m398.89 155.98 19.387 0.0185v0.35162l-19.39-0.0159zm19.035-0.86452 2.1124 1.0602-2.115 1.0549z"/>
   <path d="m399.75 157.58 20.312 8.3227-0.13484 0.32519-20.312-8.32zm20.32 7.3736 1.5546 1.7793-2.3556 0.17713z"/>
   <path d="m426.91 155.98 25.732 0.0185v0.35162l-25.735-0.0159zm25.381-0.86452 2.1124 1.0602-2.115 1.0549z"/>
   <path d="m398.89 168.41h20.976v0.35428h-20.976zm20.622-0.88038 2.115 1.0575-2.115 1.0575z"/>
   <path d="m399.61 166.83 19.006-8.2857 0.14012 0.32519-19.006 8.283zm18.33-8.9519 2.3609 0.12426-1.5149 1.8136z"/>
   <path d="m429.56 168.67 22.295 0.0185v0.35163l-22.298-0.0159zm21.944-0.86453 2.1124 1.0602-2.115 1.0549z"/>
   <path d="m427.37 154.67 24.553-10.417 0.13747 0.32519-24.55 10.417zm23.884-11.091 2.3583 0.14805-1.5334 1.8004z"/>
  </g>
  <path d="m455.73 140.17c-0.72969 0-1.3219 0.59221-1.3219 1.3219 0 0.73233 0.59221 1.3219 1.3219 1.3219 0.73234 0 1.3219-0.58957 1.3219-1.3219 0-0.72969-0.58957-1.3219-1.3219-1.3219z" fill="#fff" fill-rule="evenodd"/>
  <path d="m455.73 140.17c-0.72969 0-1.3219 0.59221-1.3219 1.3219 0 0.73233 0.59221 1.3219 1.3219 1.3219 0.73234 0 1.3219-0.58957 1.3219-1.3219 0-0.72969-0.58957-1.3219-1.3219-1.3219" fill="none" stroke="#000" stroke-linecap="round" stroke-linejoin="round" stroke-width=".26438px"/>
  <g transform="matrix(.26458 0 0 .26458 390.08 133.7)" clip-path="url(#clipEmfPath10-53)">
   <text transform="translate(233.74 15.348)" fill="#000000" font-family="'Times New Roman'" font-size="16px" font-style="italic" font-weight="400" letter-spacing="0px" word-spacing="0px" style="line-height:125%" xml:space="preserve"><tspan x="0" y="0" font-family="'Times New Roman'" font-weight="400"><tspan dx="0" dy="0" fill="#000000" font-size="16px" font-style="italic">T</tspan><tspan dx="0" dy="1.279019" fill="#000000" font-size="10.688px" font-style="italic">3</tspan><tspan dx="0" dy="-1.279019" fill="#000000" font-size="16px" font-style="normal"/><tspan dx="0" dy="0" fill="#000000" font-size="16px" font-style="normal">(4) </tspan><tspan dx="0" dy="0" fill="#ff0000" font-size="16px" font-style="normal">[4]</tspan><tspan dx="0" dy="0" fill="#000000" font-size="16px" font-style="normal"/></tspan></text>
  </g>
 </g>
</svg>
