<?xml version="1.0" encoding="UTF-8"?>
<!-- Created with Inkscape (http://www.inkscape.org/) -->
<svg width="68.934mm" height="47.601mm" version="1.1" viewBox="0 0 68.934126 47.600976" xmlns="http://www.w3.org/2000/svg" xmlns:cc="http://creativecommons.org/ns#" xmlns:dc="http://purl.org/dc/elements/1.1/" xmlns:rdf="http://www.w3.org/1999/02/22-rdf-syntax-ns#">
 <defs>
  <clipPath id="clipEmfPath1-381">
   <path d="m0.47963 4.6364h62.832v21.424h-62.832z"/>
  </clipPath>
  <clipPath id="clipEmfPath2-95">
   <path d="m98.325 6.7148h78.979v21.424h-78.979z"/>
  </clipPath>
  <clipPath id="clipEmfPath3-58">
   <path d="m0.47963 60.434h62.832v21.424h-62.832z"/>
  </clipPath>
  <clipPath id="clipEmfPath4-26">
   <path d="m0.47963 107.6h62.832v21.424h-62.832z"/>
  </clipPath>
  <clipPath id="clipEmfPath5-72">
   <path d="m0.47963 154.44h62.832v21.264h-62.832z"/>
  </clipPath>
  <clipPath id="clipEmfPath6-67">
   <path d="m80.418 71.625h68.907v21.424h-68.907z"/>
  </clipPath>
  <clipPath id="clipEmfPath7-11">
   <path d="m104.4 144.37h71.945v21.424h-71.945z"/>
  </clipPath>
  <clipPath id="clipEmfPath8-327">
   <path d="m230.22 61.713h84.895v21.264h-84.895z"/>
  </clipPath>
  <clipPath id="clipEmfPath9-96">
   <path d="m153.32 70.666h62.992v21.424h-62.992z"/>
  </clipPath>
  <clipPath id="clipEmfPath10-91">
   <path d="m224.31 5.7556h71.945v21.264h-71.945z"/>
  </clipPath>
 </defs>
 <metadata>
  <rdf:RDF>
   <cc:Work rdf:about="">
    <dc:format>image/svg+xml</dc:format>
    <dc:type rdf:resource="http://purl.org/dc/dcmitype/StillImage"/>
    <dc:title/>
   </cc:Work>
  </rdf:RDF>
 </metadata>
 <g transform="translate(-379.61 -138.24)">
  <text x="376.63589" y="139.46494" fill="#000000" font-family="Calibri" font-size="3.8861px" font-weight="400" letter-spacing="0px" stroke-width=".26458" word-spacing="0px" style="line-height:125%" xml:space="preserve"><tspan x="0" y="0" stroke-width=".26458"><tspan dx="0" dy="0" fill="#000000" font-family="Calibri" font-size="3.8861px" font-weight="400" stroke-width=".26458"/></tspan></text>
  <path d="m383.07 143.46c-0.72969 0-1.3219 0.59221-1.3219 1.3219 0 0.7297 0.59221 1.3219 1.3219 1.3219 0.73234 0 1.3219-0.59221 1.3219-1.3219 0-0.72969-0.58957-1.3219-1.3219-1.3219z" fill="#fff" fill-rule="evenodd"/>
  <path d="m383.07 143.46c-0.72969 0-1.3219 0.59221-1.3219 1.3219 0 0.7297 0.59221 1.3219 1.3219 1.3219 0.73234 0 1.3219-0.59221 1.3219-1.3219 0-0.72969-0.58957-1.3219-1.3219-1.3219" fill="none" stroke="#000" stroke-linecap="round" stroke-linejoin="round" stroke-width=".26438px"/>
  <path d="m410.3 143.46c-0.72969 0-1.3219 0.59221-1.3219 1.3219 0 0.7297 0.59221 1.3219 1.3219 1.3219 0.73233 0 1.3219-0.59221 1.3219-1.3219 0-0.72969-0.58957-1.3219-1.3219-1.3219z" fill="#fff" fill-rule="evenodd"/>
  <path d="m410.3 143.46c-0.72969 0-1.3219 0.59221-1.3219 1.3219 0 0.7297 0.59221 1.3219 1.3219 1.3219 0.73233 0 1.3219-0.59221 1.3219-1.3219 0-0.72969-0.58957-1.3219-1.3219-1.3219" fill="none" stroke="#000" stroke-linecap="round" stroke-linejoin="round" stroke-width=".26438px"/>
  <g transform="matrix(.26458 0 0 .26458 376.64 135.83)" clip-path="url(#clipEmfPath1-381)">
   <text transform="translate(10.072 18.386)" fill="#000000" font-family="Calibri" font-size="14.688px" font-style="italic" font-weight="400" letter-spacing="0px" word-spacing="0px" style="line-height:125%" xml:space="preserve"><tspan x="0" y="0" fill="#000000" font-family="Calibri" font-weight="400"><tspan dx="0" dy="0" font-size="14.688px" font-style="italic">T</tspan><tspan dx="0" dy="1.279019" font-size="9.25px" font-style="italic">1</tspan><tspan dx="0" dy="-1.279019" font-size="14.688px" font-style="normal"/><tspan dx="0" dy="0" font-size="14.688px" font-style="normal">(8)</tspan><tspan dx="0" dy="0" font-size="14.688px" font-style="normal"/></tspan></text>
  </g>
  <g transform="matrix(.26458 0 0 .26458 376.64 135.83)" clip-path="url(#clipEmfPath2-95)">
   <text transform="translate(107.92 20.464)" fill="#000000" font-family="Calibri" font-size="14.688px" font-style="italic" font-weight="400" letter-spacing="0px" word-spacing="0px" style="line-height:125%" xml:space="preserve"><tspan x="0" y="0" fill="#000000" font-family="Calibri" font-weight="400"><tspan dx="0" dy="0" font-size="14.688px" font-style="italic">T</tspan><tspan dx="0" dy="1.279019" font-size="9.25px" font-style="italic">5</tspan><tspan dx="0" dy="-1.279019" font-size="14.688px" font-style="normal"/><tspan dx="0" dy="0" font-size="14.688px" font-style="normal">(9)</tspan><tspan dx="0" dy="0" font-size="14.688px" font-style="normal"/></tspan></text>
  </g>
  <path d="m385.18 144.5h21.24v0.35162h-21.24zm20.886-0.88039 2.115 1.0575-2.115 1.0575z" stroke="#000" stroke-linejoin="bevel" stroke-width=".042301px"/>
  <path d="m383.07 158.21c-0.72969 0-1.3219 0.59221-1.3219 1.3219s0.59221 1.3219 1.3219 1.3219c0.73234 0 1.3219-0.59221 1.3219-1.3219s-0.58957-1.3219-1.3219-1.3219z" fill="#fff" fill-rule="evenodd"/>
  <path d="m383.07 158.21c-0.72969 0-1.3219 0.59221-1.3219 1.3219s0.59221 1.3219 1.3219 1.3219c0.73234 0 1.3219-0.59221 1.3219-1.3219s-0.58957-1.3219-1.3219-1.3219" fill="none" stroke="#000" stroke-linecap="round" stroke-linejoin="round" stroke-width=".26438px"/>
  <g transform="matrix(.26458 0 0 .26458 376.64 135.83)" clip-path="url(#clipEmfPath3-58)">
   <text transform="translate(10.072 74.183)" fill="#000000" font-family="Calibri" font-size="14.688px" font-style="italic" font-weight="400" letter-spacing="0px" word-spacing="0px" style="line-height:125%" xml:space="preserve"><tspan x="0" y="0" fill="#000000" font-family="Calibri" font-weight="400"><tspan dx="0" dy="0" font-size="14.688px" font-style="italic">T</tspan><tspan dx="0" dy="1.279019" font-size="9.25px" font-style="italic">2</tspan><tspan dx="0" dy="-1.279019" font-size="14.688px" font-style="normal"/><tspan dx="0" dy="0" font-size="14.688px" font-style="normal">(6)</tspan><tspan dx="0" dy="0" font-size="14.688px" font-style="normal"/></tspan></text>
  </g>
  <path d="m383.07 170.69c-0.72969 0-1.3219 0.59221-1.3219 1.3219s0.59221 1.3219 1.3219 1.3219c0.73234 0 1.3219-0.59221 1.3219-1.3219s-0.58957-1.3219-1.3219-1.3219z" fill="#fff" fill-rule="evenodd"/>
  <path d="m383.07 170.69c-0.72969 0-1.3219 0.59221-1.3219 1.3219s0.59221 1.3219 1.3219 1.3219c0.73234 0 1.3219-0.59221 1.3219-1.3219s-0.58957-1.3219-1.3219-1.3219" fill="none" stroke="#000" stroke-linecap="round" stroke-linejoin="round" stroke-width=".26438px"/>
  <g transform="matrix(.26458 0 0 .26458 376.64 135.83)" clip-path="url(#clipEmfPath4-26)">
   <text transform="translate(10.072 121.35)" fill="#000000" font-family="Calibri" font-size="14.688px" font-style="italic" font-weight="400" letter-spacing="0px" word-spacing="0px" style="line-height:125%" xml:space="preserve"><tspan x="0" y="0" fill="#000000" font-family="Calibri" font-weight="400"><tspan dx="0" dy="0" font-size="14.688px" font-style="italic">T</tspan><tspan dx="0" dy="1.279019" font-size="9.25px" font-style="italic">3</tspan><tspan dx="0" dy="-1.279019" font-size="14.688px" font-style="normal"/><tspan dx="0" dy="0" font-size="14.688px" font-style="normal">(7)</tspan><tspan dx="0" dy="0" font-size="14.688px" font-style="normal"/></tspan></text>
  </g>
  <path d="m383.07 183.06c-0.72969 0-1.3219 0.59221-1.3219 1.3219s0.59221 1.3219 1.3219 1.3219c0.73234 0 1.3219-0.59221 1.3219-1.3219s-0.58957-1.3219-1.3219-1.3219z" fill="#fff" fill-rule="evenodd"/>
  <path d="m383.07 183.06c-0.72969 0-1.3219 0.59221-1.3219 1.3219s0.59221 1.3219 1.3219 1.3219c0.73234 0 1.3219-0.59221 1.3219-1.3219s-0.58957-1.3219-1.3219-1.3219" fill="none" stroke="#000" stroke-linecap="round" stroke-linejoin="round" stroke-width=".26438px"/>
  <g transform="matrix(.26458 0 0 .26458 376.64 135.83)" clip-path="url(#clipEmfPath5-72)">
   <text transform="translate(10.072 168.19)" fill="#000000" font-family="Calibri" font-size="14.688px" font-style="italic" font-weight="400" letter-spacing="0px" word-spacing="0px" style="line-height:125%" xml:space="preserve"><tspan x="0" y="0" fill="#000000" font-family="Calibri" font-weight="400"><tspan dx="0" dy="0" font-size="14.688px" font-style="italic">T</tspan><tspan dx="0" dy="1.279019" font-size="9.25px" font-style="italic">4</tspan><tspan dx="0" dy="-1.279019" font-size="14.688px" font-style="normal"/><tspan dx="0" dy="0" font-size="14.688px" font-style="normal">(4)</tspan><tspan dx="0" dy="0" font-size="14.688px" font-style="normal"/></tspan></text>
  </g>
  <path d="m404.48 160.91c-0.72969 0-1.3219 0.59221-1.3219 1.3219s0.59221 1.3219 1.3219 1.3219c0.73233 0 1.3219-0.59221 1.3219-1.3219s-0.58957-1.3219-1.3219-1.3219z" fill="#fff" fill-rule="evenodd"/>
  <path d="m404.48 160.91c-0.72969 0-1.3219 0.59221-1.3219 1.3219s0.59221 1.3219 1.3219 1.3219c0.73233 0 1.3219-0.59221 1.3219-1.3219s-0.58957-1.3219-1.3219-1.3219" fill="none" stroke="#000" stroke-linecap="round" stroke-linejoin="round" stroke-width=".26438px"/>
  <g transform="matrix(.26458 0 0 .26458 376.64 135.83)" clip-path="url(#clipEmfPath6-67)">
   <text transform="translate(90.011 85.375)" fill="#000000" font-family="Calibri" font-size="14.688px" font-style="italic" font-weight="400" letter-spacing="0px" word-spacing="0px" style="line-height:125%" xml:space="preserve"><tspan x="0" y="0" fill="#000000" font-family="Calibri" font-weight="400"><tspan dx="0" dy="0" font-size="14.688px" font-style="italic">T</tspan><tspan dx="0" dy="1.279019" font-size="9.25px" font-style="italic">6</tspan><tspan dx="0" dy="-1.279019" font-size="14.688px" font-style="normal"/><tspan dx="0" dy="0" font-size="14.688px" font-style="normal">(3)</tspan><tspan dx="0" dy="0" font-size="14.688px" font-style="normal"/></tspan></text>
  </g>
  <path d="m410.83 170.9c-0.72969 0-1.3219 0.59221-1.3219 1.3219s0.59221 1.3219 1.3219 1.3219c0.73233 0 1.3219-0.59222 1.3219-1.3219s-0.58957-1.3219-1.3219-1.3219z" fill="#fff" fill-rule="evenodd"/>
  <path d="m410.83 170.9c-0.72969 0-1.3219 0.59221-1.3219 1.3219s0.59221 1.3219 1.3219 1.3219c0.73233 0 1.3219-0.59222 1.3219-1.3219s-0.58957-1.3219-1.3219-1.3219" fill="none" stroke="#000" stroke-linecap="round" stroke-linejoin="round" stroke-width=".26438px"/>
  <g transform="matrix(.26458 0 0 .26458 376.64 135.83)" clip-path="url(#clipEmfPath7-11)">
   <text transform="translate(113.99 158.12)" fill="#000000" font-family="Calibri" font-size="14.688px" font-style="italic" font-weight="400" letter-spacing="0px" word-spacing="0px" style="line-height:125%" xml:space="preserve"><tspan x="0" y="0" fill="#000000" font-family="Calibri" font-weight="400"><tspan dx="0" dy="0" font-size="14.688px" font-style="italic">T</tspan><tspan dx="0" dy="1.279019" font-size="9.25px" font-style="italic">7</tspan><tspan dx="0" dy="-1.279019" font-size="14.688px" font-style="normal"/><tspan dx="0" dy="0" font-size="14.688px" font-style="normal">(2</tspan><tspan dx="0" dy="0" font-size="14.688px" font-style="normal">)</tspan><tspan dx="0" dy="0" font-size="14.688px" font-style="normal"/></tspan></text>
  </g>
  <path d="m443.87 158.53c-0.72969 0-1.3219 0.59221-1.3219 1.3219 0 0.72969 0.59222 1.3219 1.3219 1.3219 0.73233 0 1.3219-0.59221 1.3219-1.3219 0-0.7297-0.58957-1.3219-1.3219-1.3219z" fill="#fff" fill-rule="evenodd"/>
  <path d="m443.87 158.53c-0.72969 0-1.3219 0.59221-1.3219 1.3219 0 0.72969 0.59222 1.3219 1.3219 1.3219 0.73233 0 1.3219-0.59221 1.3219-1.3219 0-0.7297-0.58957-1.3219-1.3219-1.3219" fill="none" stroke="#000" stroke-linecap="round" stroke-linejoin="round" stroke-width=".26438px"/>
  <g transform="matrix(.26458 0 0 .26458 376.64 135.83)" clip-path="url(#clipEmfPath8-327)">
   <text transform="translate(239.82 75.462)" fill="#000000" font-family="Calibri" font-size="14.688px" font-style="italic" font-weight="400" letter-spacing="0px" word-spacing="0px" style="line-height:125%" xml:space="preserve"><tspan x="0" y="0" fill="#000000" font-family="Calibri" font-weight="400"><tspan dx="0" dy="0" font-size="14.688px" font-style="italic">T</tspan><tspan dx="0" dy="1.279019" font-size="9.25px" font-style="italic">10</tspan><tspan dx="0" dy="-1.279019" font-size="14.688px" font-style="normal"/><tspan dx="0" dy="0" font-size="14.688px" font-style="normal">(7)</tspan><tspan dx="0" dy="0" font-size="14.688px" font-style="normal"/></tspan></text>
  </g>
  <path d="m423.52 160.91c-0.72968 0-1.3219 0.59221-1.3219 1.3219s0.59222 1.3219 1.3219 1.3219c0.73234 0 1.3219-0.59221 1.3219-1.3219s-0.58957-1.3219-1.3219-1.3219z" fill="#fff" fill-rule="evenodd"/>
  <path d="m423.52 160.91c-0.72968 0-1.3219 0.59221-1.3219 1.3219s0.59222 1.3219 1.3219 1.3219c0.73234 0 1.3219-0.59221 1.3219-1.3219s-0.58957-1.3219-1.3219-1.3219" fill="none" stroke="#000" stroke-linecap="round" stroke-linejoin="round" stroke-width=".26438px"/>
  <g transform="matrix(.26458 0 0 .26458 376.64 135.83)" clip-path="url(#clipEmfPath9-96)">
   <text transform="translate(162.92 84.415)" fill="#000000" font-family="Calibri" font-size="14.688px" font-style="italic" font-weight="400" letter-spacing="0px" word-spacing="0px" style="line-height:125%" xml:space="preserve"><tspan x="0" y="0" fill="#000000" font-family="Calibri" font-weight="400"><tspan dx="0" dy="0" font-size="14.688px" font-style="italic">T</tspan><tspan dx="0" dy="1.279019" font-size="9.25px" font-style="italic">8</tspan><tspan dx="0" dy="-1.279019" font-size="14.688px" font-style="normal"/><tspan dx="0" dy="0" font-size="14.688px" font-style="normal">(5)</tspan><tspan dx="0" dy="0" font-size="14.688px" font-style="normal"/></tspan></text>
  </g>
  <g stroke="#000" stroke-linejoin="bevel" stroke-width=".042301px">
   <path d="m412.68 144.74h25.47v0.35427h-25.47zm25.116-0.88039 2.115 1.0575-2.115 1.0575z"/>
   <path d="m414.07 146.08 24.307 11.16-0.14541 0.32255-24.307-11.162zm24.355 10.213 1.4805 1.8427-2.3609 0.0793z"/>
   <path d="m385.89 157.98 18.29-10.242 0.17185 0.30668-18.29 10.242zm17.552-10.84 2.3609-0.11104-1.3272 1.9564z"/>
   <path d="m386.53 159.81 13.333 2.3398-0.0608 0.34899-13.333-2.3398zm13.14 1.4118 1.8982 1.4065-2.2657 0.67682z"/>
   <path d="m426.14 161.66 13.06-1.8665 0.0502 0.34899-13.06 1.8665zm12.587-2.6888 2.2419 0.7482-1.9432 1.3457z"/>
   <path d="m413.35 171.23 6.1125-5.6736 0.23795 0.25909-6.1098 5.6736zm5.2532-6.0808 2.2684-0.66359-0.83015 2.2155z"/>
   <path d="m385.45 171.97h20.976v0.35428h-20.976zm20.622-0.88038 2.115 1.0575-2.115 1.0575z"/>
   <path d="m407.38 162.19 10.665-0.45473 0.0132 0.35162-10.665 0.45474zm10.274-1.3193 2.1574 0.96499-2.0675 1.1474z"/>
  </g>
  <path d="m442.29 143.72c-0.72969 0-1.3219 0.59221-1.3219 1.3219 0 0.72969 0.59221 1.3219 1.3219 1.3219 0.73234 0 1.3219-0.59221 1.3219-1.3219 0-0.7297-0.58957-1.3219-1.3219-1.3219z" fill="#fff" fill-rule="evenodd"/>
  <path d="m442.29 143.72c-0.72969 0-1.3219 0.59221-1.3219 1.3219 0 0.72969 0.59221 1.3219 1.3219 1.3219 0.73234 0 1.3219-0.59221 1.3219-1.3219 0-0.7297-0.58957-1.3219-1.3219-1.3219" fill="none" stroke="#000" stroke-linecap="round" stroke-linejoin="round" stroke-width=".26438px"/>
  <g transform="matrix(.26458 0 0 .26458 376.64 135.83)" clip-path="url(#clipEmfPath10-91)">
   <text transform="translate(233.9 19.505)" fill="#000000" font-family="Calibri" font-size="14.688px" font-style="italic" font-weight="400" letter-spacing="0px" word-spacing="0px" style="line-height:125%" xml:space="preserve"><tspan x="0" y="0" fill="#000000" font-family="Calibri" font-weight="400"><tspan dx="0" dy="0" font-size="14.688px" font-style="italic">T</tspan><tspan dx="0" dy="1.279019" font-size="9.25px" font-style="italic">9</tspan><tspan dx="0" dy="-1.279019" font-size="14.688px" font-style="normal"/><tspan dx="0" dy="0" font-size="14.688px" font-style="normal">(2)</tspan><tspan dx="0" dy="0" font-size="14.688px" font-style="normal"/></tspan></text>
  </g>
 </g>
</svg>
