<?xml version="1.0" encoding="UTF-8"?>
<!-- Created with Inkscape (http://www.inkscape.org/) -->
<svg width="63.466mm" height="23.753mm" version="1.1" viewBox="0 0 63.465796 23.753102" xmlns="http://www.w3.org/2000/svg" xmlns:cc="http://creativecommons.org/ns#" xmlns:dc="http://purl.org/dc/elements/1.1/" xmlns:rdf="http://www.w3.org/1999/02/22-rdf-syntax-ns#">
 <defs>
  <clipPath id="clipEmfPath1-331">
   <path d="m98.325 4.7963h78.979v21.424h-78.979z"/>
  </clipPath>
  <clipPath id="clipEmfPath2-38">
   <path d="m-0.31975 4.7963h62.992v21.424h-62.992z"/>
  </clipPath>
  <clipPath id="clipEmfPath3-96">
   <path d="m99.284 66.989h68.907v21.424h-68.907z"/>
  </clipPath>
  <clipPath id="clipEmfPath4-97">
   <path d="m211.36 65.55h62.992v21.424h-62.992z"/>
  </clipPath>
  <clipPath id="clipEmfPath5-60">
   <path d="m211.36 4.7963h71.945v21.424h-71.945z"/>
  </clipPath>
 </defs>
 <metadata>
  <rdf:RDF>
   <cc:Work rdf:about="">
    <dc:format>image/svg+xml</dc:format>
    <dc:type rdf:resource="http://purl.org/dc/dcmitype/StillImage"/>
    <dc:title/>
   </cc:Work>
  </rdf:RDF>
 </metadata>
 <g transform="translate(-387.56 -145.46)">
  <text x="384.80203" y="146.88016" fill="#000000" font-family="Calibri" font-size="3.8861px" font-weight="400" letter-spacing="0px" stroke-width=".26458" word-spacing="0px" style="line-height:125%" xml:space="preserve"><tspan x="0" y="0" stroke-width=".26458"><tspan dx="0" dy="0" fill="#000000" font-family="Calibri" font-size="3.8861px" font-weight="400" stroke-width=".26458"/></tspan></text>
  <path d="m415.68 149.81c-0.72969 0-1.3219 0.59221-1.3219 1.3219s0.59221 1.3219 1.3219 1.3219 1.3219-0.59222 1.3219-1.3219-0.59222-1.3219-1.3219-1.3219z" fill="#fff" fill-rule="evenodd"/>
  <path d="m415.68 149.81c-0.72969 0-1.3219 0.59221-1.3219 1.3219s0.59221 1.3219 1.3219 1.3219 1.3219-0.59222 1.3219-1.3219-0.59222-1.3219-1.3219-1.3219" fill="none" stroke="#000" stroke-linecap="round" stroke-linejoin="round" stroke-width=".26438px"/>
  <g transform="matrix(.26458 0 0 .26458 384.8 143.24)" clip-path="url(#clipEmfPath1-331)">
   <text transform="translate(107.92 18.546)" fill="#000000" font-family="Calibri" font-size="14.688px" font-style="italic" font-weight="400" letter-spacing="0px" word-spacing="0px" style="line-height:125%" xml:space="preserve"><tspan x="0" y="0" fill="#000000" font-family="Calibri" font-weight="400"><tspan dx="0" dy="0" font-size="14.688px" font-style="italic">T</tspan><tspan dx="0" dy="1.279019" font-size="9.25px" font-style="italic">2</tspan><tspan dx="0" dy="-1.279019" font-size="14.688px" font-style="normal"/><tspan dx="0" dy="0" font-size="14.688px" font-style="normal">(5)</tspan><tspan dx="0" dy="0" font-size="14.688px" font-style="normal"/></tspan></text>
  </g>
  <path d="m391.37 150.89h19.387v0.35427h-19.387zm19.035-0.88038 2.115 1.0575-2.115 1.0575z" stroke="#000" stroke-linejoin="bevel" stroke-width=".042301px"/>
  <path d="m389.31 149.81c-0.72969 0-1.3219 0.59221-1.3219 1.3219s0.59221 1.3219 1.3219 1.3219 1.3219-0.59222 1.3219-1.3219-0.59221-1.3219-1.3219-1.3219z" fill="#fff" fill-rule="evenodd"/>
  <path d="m389.31 149.81c-0.72969 0-1.3219 0.59221-1.3219 1.3219s0.59221 1.3219 1.3219 1.3219 1.3219-0.59222 1.3219-1.3219-0.59221-1.3219-1.3219-1.3219" fill="none" stroke="#000" stroke-linecap="round" stroke-linejoin="round" stroke-width=".26438px"/>
  <g transform="matrix(.26458 0 0 .26458 384.8 143.24)" clip-path="url(#clipEmfPath2-38)">
   <text transform="translate(9.2729 18.546)" fill="#000000" font-family="Calibri" font-size="14.688px" font-style="italic" font-weight="400" letter-spacing="0px" word-spacing="0px" style="line-height:125%" xml:space="preserve"><tspan x="0" y="0" fill="#000000" font-family="Calibri" font-weight="400"><tspan dx="0" dy="0" font-size="14.688px" font-style="italic">T</tspan><tspan dx="0" dy="1.279019" font-size="9.25px" font-style="italic">1</tspan><tspan dx="0" dy="-1.279019" font-size="14.688px" font-style="normal"/><tspan dx="0" dy="0" font-size="14.688px" font-style="normal">(6)</tspan><tspan dx="0" dy="0" font-size="14.688px" font-style="normal"/></tspan></text>
  </g>
  <path d="m415.68 166.29c-0.72969 0-1.3219 0.59221-1.3219 1.3219s0.59221 1.3219 1.3219 1.3219 1.3219-0.59221 1.3219-1.3219-0.59222-1.3219-1.3219-1.3219z" fill="#fff" fill-rule="evenodd"/>
  <path d="m415.68 166.29c-0.72969 0-1.3219 0.59221-1.3219 1.3219s0.59221 1.3219 1.3219 1.3219 1.3219-0.59221 1.3219-1.3219-0.59222-1.3219-1.3219-1.3219" fill="none" stroke="#000" stroke-linecap="round" stroke-linejoin="round" stroke-width=".26438px"/>
  <g transform="matrix(.26458 0 0 .26458 384.8 143.24)" clip-path="url(#clipEmfPath3-96)">
   <text transform="translate(108.88 80.738)" fill="#000000" font-family="Calibri" font-size="14.688px" font-style="italic" font-weight="400" letter-spacing="0px" word-spacing="0px" style="line-height:125%" xml:space="preserve"><tspan x="0" y="0" fill="#000000" font-family="Calibri" font-weight="400"><tspan dx="0" dy="0" font-size="14.688px" font-style="italic">T</tspan><tspan dx="0" dy="1.279019" font-size="9.25px" font-style="italic">3 </tspan><tspan dx="0" dy="-1.279019" font-size="14.688px" font-style="normal">(3)</tspan><tspan dx="0" dy="0" font-size="14.688px" font-style="normal"/></tspan></text>
  </g>
  <path d="m446.14 166.43c-0.72969 0-1.3219 0.59221-1.3219 1.3219 0 0.73234 0.59221 1.3219 1.3219 1.3219s1.3219-0.58957 1.3219-1.3219c0-0.72969-0.59221-1.3219-1.3219-1.3219z" fill="#fff" fill-rule="evenodd"/>
  <path d="m446.14 166.43c-0.72969 0-1.3219 0.59221-1.3219 1.3219 0 0.73234 0.59221 1.3219 1.3219 1.3219s1.3219-0.58957 1.3219-1.3219c0-0.72969-0.59221-1.3219-1.3219-1.3219" fill="none" stroke="#000" stroke-linecap="round" stroke-linejoin="round" stroke-width=".26438px"/>
  <g transform="matrix(.26458 0 0 .26458 384.8 143.24)" clip-path="url(#clipEmfPath4-97)">
   <text transform="translate(220.95 79.299)" fill="#000000" font-family="Calibri" font-size="14.688px" font-style="italic" font-weight="400" letter-spacing="0px" word-spacing="0px" style="line-height:125%" xml:space="preserve"><tspan x="0" y="0" fill="#000000" font-family="Calibri" font-weight="400"><tspan dx="0" dy="0" font-size="14.688px" font-style="italic">T</tspan><tspan dx="0" dy="1.279019" font-size="9.25px" font-style="italic">5 </tspan><tspan dx="0" dy="-1.279019" font-size="14.688px" font-style="normal">(4)</tspan><tspan dx="0" dy="0" font-size="14.688px" font-style="normal"/></tspan></text>
  </g>
  <g stroke="#000" stroke-linejoin="bevel" stroke-width=".042301px">
   <path d="m417.81 150.87h23.617v0.35163h-23.617zm23.265-0.88303 2.115 1.0575-2.115 1.0575z"/>
   <path d="m418.16 151.95 24.365 13.425-0.1692 0.30932-24.365-13.425zm24.482 12.484 1.3431 1.9458-2.3636-0.0925z"/>
   <path d="m391.26 151.9 21.328 13.78-0.193 0.29611-21.325-13.78zm21.51 12.849 1.2003 2.0357-2.3503-0.25909z"/>
   <path d="m418.08 167.79h24.146v0.35162h-24.146zm23.794-0.88303 2.115 1.0575-2.115 1.0575z"/>
   <path d="m392.13 151.23 48.279 14.271-0.10046 0.33576-48.276-14.269zm48.191 13.325 1.7264 1.6127-2.3266 0.41508z"/>
  </g>
  <path d="m446 149.81c-0.72969 0-1.3219 0.59221-1.3219 1.3219s0.59221 1.3219 1.3219 1.3219 1.3219-0.59222 1.3219-1.3219-0.59221-1.3219-1.3219-1.3219z" fill="#fff" fill-rule="evenodd"/>
  <path d="m446 149.81c-0.72969 0-1.3219 0.59221-1.3219 1.3219s0.59221 1.3219 1.3219 1.3219 1.3219-0.59222 1.3219-1.3219-0.59221-1.3219-1.3219-1.3219" fill="none" stroke="#000" stroke-linecap="round" stroke-linejoin="round" stroke-width=".26438px"/>
  <g transform="matrix(.26458 0 0 .26458 384.8 143.24)" clip-path="url(#clipEmfPath5-60)">
   <text transform="translate(220.95 18.546)" fill="#000000" font-family="Calibri" font-size="14.688px" font-style="italic" font-weight="400" letter-spacing="0px" word-spacing="0px" style="line-height:125%" xml:space="preserve"><tspan x="0" y="0" fill="#000000" font-family="Calibri" font-weight="400"><tspan dx="0" dy="0" font-size="14.688px" font-style="italic">T</tspan><tspan dx="0" dy="1.279019" font-size="9.25px" font-style="italic">4 </tspan><tspan dx="0" dy="-1.279019" font-size="14.688px" font-style="normal">(7)</tspan><tspan dx="0" dy="0" font-size="14.688px" font-style="normal"/></tspan></text>
  </g>
 </g>
</svg>
