<?xml version="1.0" encoding="UTF-8"?>
<!-- Created with Inkscape (http://www.inkscape.org/) -->
<svg width="71.693mm" height="35.454mm" version="1.1" viewBox="0 0 71.692679 35.453923" xmlns="http://www.w3.org/2000/svg" xmlns:cc="http://creativecommons.org/ns#" xmlns:dc="http://purl.org/dc/elements/1.1/" xmlns:rdf="http://www.w3.org/1999/02/22-rdf-syntax-ns#">
 <defs>
  <clipPath id="clipEmfPath2-87">
   <path d="m0.47963-0.63951h71.945v21.424h-71.945z"/>
  </clipPath>
  <clipPath id="clipEmfPath3-64">
   <path d="m98.325 1.4389h78.979v21.424h-78.979z"/>
  </clipPath>
  <clipPath id="clipEmfPath4-5">
   <path d="m0.47963 55.158h62.832v21.264h-62.832z"/>
  </clipPath>
  <clipPath id="clipEmfPath5-0">
   <path d="m-9.5926 104.24h70.986v21.264h-70.986z"/>
  </clipPath>
  <clipPath id="clipEmfPath6-1">
   <path d="m94.328 58.355h68.907v21.424h-68.907z"/>
  </clipPath>
  <clipPath id="clipEmfPath7-5">
   <path d="m117.35 108.08h71.945v21.424h-71.945z"/>
  </clipPath>
  <clipPath id="clipEmfPath8-8">
   <path d="m230.22 56.437h84.895v21.264h-84.895z"/>
  </clipPath>
  <clipPath id="clipEmfPath9-1">
   <path d="m224.31 103.28h62.832v21.264h-62.832z"/>
  </clipPath>
  <clipPath id="clipEmfPath10">
   <path d="m224.31 0.47963h71.945v21.264h-71.945z"/>
  </clipPath>
 </defs>
 <metadata>
  <rdf:RDF>
   <cc:Work rdf:about="">
    <dc:format>image/svg+xml</dc:format>
    <dc:type rdf:resource="http://purl.org/dc/dcmitype/StillImage"/>
    <dc:title/>
   </cc:Work>
  </rdf:RDF>
 </metadata>
 <g transform="translate(-239.52 -149.1)">
  <text x="322.60355" y="186.46017" fill="#000000" font-family="'Times New Roman'" font-size="4.2333px" font-weight="400" letter-spacing="0px" stroke-width=".26458" word-spacing="0px" style="line-height:125%" xml:space="preserve"><tspan x="0" y="0" stroke-width=".26458"><tspan dx="0" dy="0" fill="#000000" font-family="'Times New Roman'" font-size="4.2333px" font-weight="400" stroke-width=".26458"/></tspan></text>
  <path d="m245.66 154.32c-0.72969 0-1.3219 0.59221-1.3219 1.3219s0.59221 1.3219 1.3219 1.3219c0.73234 0 1.3219-0.59221 1.3219-1.3219s-0.58957-1.3219-1.3219-1.3219z" fill="#fff" fill-rule="evenodd"/>
  <path d="m245.66 154.32c-0.72969 0-1.3219 0.59221-1.3219 1.3219s0.59221 1.3219 1.3219 1.3219c0.73234 0 1.3219-0.59221 1.3219-1.3219s-0.58957-1.3219-1.3219-1.3219" fill="none" stroke="#000" stroke-linecap="round" stroke-linejoin="round" stroke-width=".26438px"/>
  <path d="m272.89 154.32c-0.72969 0-1.3219 0.59221-1.3219 1.3219s0.59221 1.3219 1.3219 1.3219c0.73233 0 1.3219-0.59221 1.3219-1.3219s-0.58957-1.3219-1.3219-1.3219z" fill="#fff" fill-rule="evenodd"/>
  <path d="m272.89 154.32c-0.72969 0-1.3219 0.59221-1.3219 1.3219s0.59221 1.3219 1.3219 1.3219c0.73233 0 1.3219-0.59221 1.3219-1.3219s-0.58957-1.3219-1.3219-1.3219" fill="none" stroke="#000" stroke-linecap="round" stroke-linejoin="round" stroke-width=".26438px"/>
  <g transform="matrix(.26458 0 0 .26458 239.23 148.09)" clip-path="url(#clipEmfPath2-87)">
   <text transform="translate(9.9124 14.389)" fill="#000000" font-family="'Times New Roman'" font-size="16px" font-style="italic" font-weight="400" letter-spacing="0px" word-spacing="0px" style="line-height:125%" xml:space="preserve"><tspan x="0" y="0" fill="#000000" font-family="'Times New Roman'" font-weight="400"><tspan dx="0" dy="0" font-size="16px" font-style="italic">T</tspan><tspan dx="0" dy="1.279019" font-size="10.688px" font-style="italic">1</tspan><tspan dx="0" dy="-1.279019" font-size="16px" font-style="normal"/><tspan dx="0" dy="0" font-size="16px" font-style="normal">(10)</tspan><tspan dx="0" dy="0" font-size="16px" font-style="normal"/></tspan></text>
  </g>
  <g transform="matrix(.26458 0 0 .26458 239.23 148.09)" clip-path="url(#clipEmfPath3-64)">
   <text transform="translate(107.92 16.467)" fill="#000000" font-family="'Times New Roman'" font-size="16px" font-style="italic" font-weight="400" letter-spacing="0px" word-spacing="0px" style="line-height:125%" xml:space="preserve"><tspan x="0" y="0" fill="#000000" font-family="'Times New Roman'" font-weight="400"><tspan dx="0" dy="0" font-size="16px" font-style="italic">T</tspan><tspan dx="0" dy="1.279019" font-size="10.688px" font-style="italic">2</tspan><tspan dx="0" dy="-1.279019" font-size="16px" font-style="normal"/><tspan dx="0" dy="0" font-size="16px" font-style="normal">(7)</tspan><tspan dx="0" dy="0" font-size="16px" font-style="normal"/></tspan></text>
  </g>
  <path d="m247.77 155.34h21.24v0.35427h-21.24zm20.886-0.88039 2.115 1.0575-2.115 1.0575z" stroke="#000" stroke-linejoin="bevel" stroke-width=".042301px"/>
  <path d="m245.66 169.05c-0.72969 0-1.3219 0.59222-1.3219 1.3219s0.59221 1.3219 1.3219 1.3219c0.73234 0 1.3219-0.59221 1.3219-1.3219s-0.58957-1.3219-1.3219-1.3219z" fill="#fff" fill-rule="evenodd"/>
  <path d="m245.66 169.05c-0.72969 0-1.3219 0.59222-1.3219 1.3219s0.59221 1.3219 1.3219 1.3219c0.73234 0 1.3219-0.59221 1.3219-1.3219s-0.58957-1.3219-1.3219-1.3219" fill="none" stroke="#000" stroke-linecap="round" stroke-linejoin="round" stroke-width=".26438px"/>
  <g transform="matrix(.26458 0 0 .26458 239.23 148.09)" clip-path="url(#clipEmfPath4-5)">
   <text transform="translate(9.9124 70.186)" fill="#000000" font-family="'Times New Roman'" font-size="16px" font-style="italic" font-weight="400" letter-spacing="0px" word-spacing="0px" style="line-height:125%" xml:space="preserve"><tspan x="0" y="0" fill="#000000" font-family="'Times New Roman'" font-weight="400"><tspan dx="0" dy="0" font-size="16px" font-style="italic">T</tspan><tspan dx="0" dy="1.279019" font-size="10.688px" font-style="italic">4</tspan><tspan dx="0" dy="-1.279019" font-size="16px" font-style="normal"/><tspan dx="0" dy="0" font-size="16px" font-style="normal">(9)</tspan><tspan dx="0" dy="0" font-size="16px" font-style="normal"/></tspan></text>
  </g>
  <path d="m245.66 181.51c-0.72969 0-1.3219 0.59221-1.3219 1.3219 0 0.73234 0.59221 1.3219 1.3219 1.3219 0.73234 0 1.3219-0.58956 1.3219-1.3219 0-0.72969-0.58957-1.3219-1.3219-1.3219z" fill="#fff" fill-rule="evenodd"/>
  <path d="m245.66 181.51c-0.72969 0-1.3219 0.59221-1.3219 1.3219 0 0.73234 0.59221 1.3219 1.3219 1.3219 0.73234 0 1.3219-0.58956 1.3219-1.3219 0-0.72969-0.58957-1.3219-1.3219-1.3219" fill="none" stroke="#000" stroke-linecap="round" stroke-linejoin="round" stroke-width=".26438px"/>
  <g transform="matrix(.26458 0 0 .26458 239.23 148.09)" clip-path="url(#clipEmfPath5-0)">
   <text transform="translate(0 119.43)" fill="#000000" font-family="'Times New Roman'" font-size="16px" font-style="italic" font-weight="400" letter-spacing="0px" word-spacing="0px" style="line-height:125%" xml:space="preserve"><tspan x="0" y="0" fill="#000000" font-family="'Times New Roman'" font-weight="400"><tspan dx="0" dy="0" font-size="16px" font-style="italic">T</tspan><tspan dx="0" dy="1.279019" font-size="10.688px" font-style="italic">7</tspan><tspan dx="0" dy="-1.279019" font-size="16px" font-style="normal"/><tspan dx="0" dy="0" font-size="16px" font-style="normal">(13)</tspan><tspan dx="0" dy="0" font-size="16px" font-style="normal"/></tspan></text>
  </g>
  <path d="m272.1 169.12c-0.72969 0-1.3219 0.58428-1.3219 1.3034 0 0.72176 0.59222 1.3034 1.3219 1.3034 0.73233 0 1.3219-0.58164 1.3219-1.3034 0-0.71911-0.58957-1.3034-1.3219-1.3034z" fill="#fff" fill-rule="evenodd"/>
  <path d="m272.1 169.12c-0.72969 0-1.3219 0.58428-1.3219 1.3034 0 0.72176 0.59222 1.3034 1.3219 1.3034 0.73233 0 1.3219-0.58164 1.3219-1.3034 0-0.71911-0.58957-1.3034-1.3219-1.3034" fill="none" stroke="#000" stroke-linecap="round" stroke-linejoin="round" stroke-width=".26438px"/>
  <g transform="matrix(.26458 0 0 .26458 239.23 148.09)" clip-path="url(#clipEmfPath6-1)">
   <text transform="translate(103.92 73.384)" fill="#000000" font-family="'Times New Roman'" font-size="16px" font-style="italic" font-weight="400" letter-spacing="0px" word-spacing="0px" style="line-height:125%" xml:space="preserve"><tspan x="0" y="0" fill="#000000" font-family="'Times New Roman'" font-weight="400"><tspan dx="0" dy="0" font-size="16px" font-style="italic">T</tspan><tspan dx="0" dy="1.279019" font-size="10.688px" font-style="italic">5</tspan><tspan dx="0" dy="-1.279019" font-size="16px" font-style="normal"/><tspan dx="0" dy="0" font-size="16px" font-style="normal">(5)</tspan><tspan dx="0" dy="0" font-size="16px" font-style="normal"/></tspan></text>
  </g>
  <path d="m273.42 181.74c-0.72969 0-1.3219 0.59221-1.3219 1.3219s0.59221 1.3219 1.3219 1.3219c0.73233 0 1.3219-0.59221 1.3219-1.3219s-0.58957-1.3219-1.3219-1.3219z" fill="#fff" fill-rule="evenodd"/>
  <path d="m273.42 181.74c-0.72969 0-1.3219 0.59221-1.3219 1.3219s0.59221 1.3219 1.3219 1.3219c0.73233 0 1.3219-0.59221 1.3219-1.3219s-0.58957-1.3219-1.3219-1.3219" fill="none" stroke="#000" stroke-linecap="round" stroke-linejoin="round" stroke-width=".26438px"/>
  <g transform="matrix(.26458 0 0 .26458 239.23 148.09)" clip-path="url(#clipEmfPath7-5)">
   <text transform="translate(126.94 123.11)" fill="#000000" font-family="'Times New Roman'" font-size="16px" font-style="italic" font-weight="400" letter-spacing="0px" word-spacing="0px" style="line-height:125%" xml:space="preserve"><tspan x="0" y="0" fill="#000000" font-family="'Times New Roman'" font-weight="400"><tspan dx="0" dy="0" font-size="16px" font-style="italic">T</tspan><tspan dx="0" dy="1.279019" font-size="10.688px" font-style="italic">8</tspan><tspan dx="0" dy="-1.279019" font-size="16px" font-style="normal"/><tspan dx="0" dy="0" font-size="16px" font-style="normal">(4)</tspan><tspan dx="0" dy="0" font-size="16px" font-style="normal"/></tspan></text>
  </g>
  <path d="m305.14 169.39c-0.72969 0-1.3219 0.58428-1.3219 1.3034 0 0.72176 0.59221 1.3034 1.3219 1.3034 0.73234 0 1.3219-0.58164 1.3219-1.3034 0-0.71911-0.58957-1.3034-1.3219-1.3034z" fill="#fff" fill-rule="evenodd"/>
  <path d="m305.14 169.39c-0.72969 0-1.3219 0.58428-1.3219 1.3034 0 0.72176 0.59221 1.3034 1.3219 1.3034 0.73234 0 1.3219-0.58164 1.3219-1.3034 0-0.71911-0.58957-1.3034-1.3219-1.3034" fill="none" stroke="#000" stroke-linecap="round" stroke-linejoin="round" stroke-width=".26438px"/>
  <g transform="matrix(.26458 0 0 .26458 239.23 148.09)" clip-path="url(#clipEmfPath8-8)">
   <text transform="translate(239.82 71.625)" fill="#000000" font-family="'Times New Roman'" font-size="16px" font-style="italic" font-weight="400" letter-spacing="0px" word-spacing="0px" style="line-height:125%" xml:space="preserve"><tspan x="0" y="0" fill="#000000" font-family="'Times New Roman'" font-weight="400"><tspan dx="0" dy="0" font-size="16px" font-style="italic">T</tspan><tspan dx="0" dy="1.279019" font-size="10.688px" font-style="italic">6</tspan><tspan dx="0" dy="-1.279019" font-size="16px" font-style="normal"/><tspan dx="0" dy="0" font-size="16px" font-style="normal">(4)</tspan><tspan dx="0" dy="0" font-size="16px" font-style="normal"/></tspan></text>
  </g>
  <path d="m304.88 181.79c-0.72969 0-1.3219 0.58692-1.3219 1.314 0 0.7244 0.59221 1.3113 1.3219 1.3113 0.73234 0 1.3219-0.58692 1.3219-1.3113 0-0.72705-0.58957-1.314-1.3219-1.314z" fill="#fff" fill-rule="evenodd"/>
  <path d="m304.88 181.79c-0.72969 0-1.3219 0.58692-1.3219 1.314 0 0.7244 0.59221 1.3113 1.3219 1.3113 0.73234 0 1.3219-0.58692 1.3219-1.3113 0-0.72705-0.58957-1.314-1.3219-1.314" fill="none" stroke="#000" stroke-linecap="round" stroke-linejoin="round" stroke-width=".26438px"/>
  <g transform="matrix(.26458 0 0 .26458 239.23 148.09)" clip-path="url(#clipEmfPath9-1)">
   <text transform="translate(233.74 118.31)" fill="#000000" font-family="'Times New Roman'" font-size="16px" font-style="italic" font-weight="400" letter-spacing="0px" word-spacing="0px" style="line-height:125%" xml:space="preserve"><tspan x="0" y="0" fill="#000000" font-family="'Times New Roman'" font-weight="400"><tspan dx="0" dy="0" font-size="16px" font-style="italic">T</tspan><tspan dx="0" dy="1.279019" font-size="10.688px" font-style="italic">9</tspan><tspan dx="0" dy="-1.279019" font-size="16px" font-style="normal"/><tspan dx="0" dy="0" font-size="16px" font-style="normal">(6)</tspan><tspan dx="0" dy="0" font-size="16px" font-style="normal"/></tspan></text>
  </g>
  <g stroke="#000" stroke-linejoin="bevel" stroke-width=".042301px">
   <path d="m275.27 155.59h25.47v0.35163h-25.47zm25.116-0.88303 2.115 1.0575-2.115 1.0575z"/>
   <path d="m276.67 156.92 23.784 11.149-0.14805 0.3199-23.786-11.149zm23.839 10.202 1.4647 1.8533-2.3636 0.0608z"/>
   <path d="m248.04 170.39 19.387 0.0159v0.35162l-19.39-0.0159zm19.035-0.86716 2.1124 1.0602-2.115 1.0549z"/>
   <path d="m248.9 171.99 20.312 8.32-0.13484 0.32519-20.312-8.3201zm20.32 7.3709 1.5546 1.7793-2.3556 0.17713z"/>
   <path d="m276.06 170.39 25.732 0.0159v0.35162l-25.735-0.0159zm25.381-0.86452 2.1124 1.0575-2.115 1.0575z"/>
   <path d="m248.04 182.82h20.976v0.35163h-20.976zm20.622-0.88303 2.115 1.0575-2.115 1.0575z"/>
   <path d="m248.76 181.24 19.006-8.283 0.14012 0.32255-19.006 8.2857zm18.33-8.9519 2.3609 0.12426-1.5149 1.8163z"/>
   <path d="m278.71 183.08 22.295 0.0159v0.35163l-22.298-0.0159zm21.944-0.86452 2.1124 1.0575-2.115 1.0575z"/>
   <path d="m276.52 169.08 24.553-10.417 0.13747 0.32519-24.55 10.417zm23.884-11.088 2.3583 0.14541-1.5334 1.8004z"/>
  </g>
  <path d="m304.88 154.58c-0.72969 0-1.3219 0.59221-1.3219 1.3219s0.59221 1.3219 1.3219 1.3219c0.73234 0 1.3219-0.59221 1.3219-1.3219s-0.58957-1.3219-1.3219-1.3219z" fill="#fff" fill-rule="evenodd"/>
  <path d="m304.88 154.58c-0.72969 0-1.3219 0.59221-1.3219 1.3219s0.59221 1.3219 1.3219 1.3219c0.73234 0 1.3219-0.59221 1.3219-1.3219s-0.58957-1.3219-1.3219-1.3219" fill="none" stroke="#000" stroke-linecap="round" stroke-linejoin="round" stroke-width=".26438px"/>
  <g transform="matrix(.26458 0 0 .26458 239.23 148.09)" clip-path="url(#clipEmfPath10)">
   <text transform="translate(233.74 15.668)" fill="#000000" font-family="'Times New Roman'" font-size="16px" font-style="italic" font-weight="400" letter-spacing="0px" word-spacing="0px" style="line-height:125%" xml:space="preserve"><tspan x="0" y="0" fill="#000000" font-family="'Times New Roman'" font-weight="400"><tspan dx="0" dy="0" font-size="16px" font-style="italic">T</tspan><tspan dx="0" dy="1.279019" font-size="10.688px" font-style="italic">3</tspan><tspan dx="0" dy="-1.279019" font-size="16px" font-style="normal"/><tspan dx="0" dy="0" font-size="16px" font-style="normal">(4)</tspan><tspan dx="0" dy="0" font-size="16px" font-style="normal"/></tspan></text>
  </g>
 </g>
</svg>
