<?xml version="1.0" encoding="UTF-8"?>
<!-- Created with Inkscape (http://www.inkscape.org/) -->
<svg width="68.934mm" height="47.585mm" version="1.1" viewBox="0 0 68.934126 47.585115" xmlns="http://www.w3.org/2000/svg" xmlns:cc="http://creativecommons.org/ns#" xmlns:dc="http://purl.org/dc/elements/1.1/" xmlns:rdf="http://www.w3.org/1999/02/22-rdf-syntax-ns#">
 <defs>
  <clipPath id="clipEmfPath1-0">
   <path d="m0.47963 4.9562h62.832v21.424h-62.832z"/>
  </clipPath>
  <clipPath id="clipEmfPath2-23">
   <path d="m98.325 7.0346h78.979v21.264h-78.979z"/>
  </clipPath>
  <clipPath id="clipEmfPath3-2">
   <path d="m0.47963 107.92h62.832v21.424h-62.832z"/>
  </clipPath>
  <clipPath id="clipEmfPath4-90">
   <path d="m0.47963 154.6h62.832v21.424h-62.832z"/>
  </clipPath>
  <clipPath id="clipEmfPath5-4">
   <path d="m73.384 63.951h68.907v21.424h-68.907z"/>
  </clipPath>
  <clipPath id="clipEmfPath6-8">
   <path d="m104.4 144.69h71.945v21.424h-71.945z"/>
  </clipPath>
  <clipPath id="clipEmfPath7-2">
   <path d="m230.22 61.873h84.895v21.424h-84.895z"/>
  </clipPath>
  <clipPath id="clipEmfPath8-86">
   <path d="m159.24 60.913h62.992v21.424h-62.992z"/>
  </clipPath>
  <clipPath id="clipEmfPath9-0">
   <path d="m224.31 5.9155h71.945v21.424h-71.945z"/>
  </clipPath>
 </defs>
 <metadata>
  <rdf:RDF>
   <cc:Work rdf:about="">
    <dc:format>image/svg+xml</dc:format>
    <dc:type rdf:resource="http://purl.org/dc/dcmitype/StillImage"/>
    <dc:title/>
   </cc:Work>
  </rdf:RDF>
 </metadata>
 <g transform="translate(-208.07 -140.5)">
  <text x="205.0999" y="141.64096" fill="#000000" font-family="Calibri" font-size="3.8861px" font-weight="400" letter-spacing="0px" stroke-width=".26458" word-spacing="0px" style="line-height:125%" xml:space="preserve"><tspan x="0" y="0" stroke-width=".26458"><tspan dx="0" dy="0" fill="#000000" font-family="Calibri" font-size="3.8861px" font-weight="400" stroke-width=".26458"/></tspan></text>
  <path d="m211.53 145.7c-0.72969 0-1.3219 0.59221-1.3219 1.3219 0 0.73234 0.59221 1.3219 1.3219 1.3219 0.73234 0 1.3219-0.58957 1.3219-1.3219 0-0.72969-0.58957-1.3219-1.3219-1.3219z" fill="#fff" fill-rule="evenodd"/>
  <path d="m211.53 145.7c-0.72969 0-1.3219 0.59221-1.3219 1.3219 0 0.73234 0.59221 1.3219 1.3219 1.3219 0.73234 0 1.3219-0.58957 1.3219-1.3219 0-0.72969-0.58957-1.3219-1.3219-1.3219" fill="none" stroke="#000" stroke-linecap="round" stroke-linejoin="round" stroke-width=".26438px"/>
  <path d="m238.76 145.7c-0.72969 0-1.3219 0.59221-1.3219 1.3219 0 0.73234 0.59221 1.3219 1.3219 1.3219 0.73233 0 1.3219-0.58957 1.3219-1.3219 0-0.72969-0.58957-1.3219-1.3219-1.3219z" fill="#fff" fill-rule="evenodd"/>
  <path d="m238.76 145.7c-0.72969 0-1.3219 0.59221-1.3219 1.3219 0 0.73234 0.59221 1.3219 1.3219 1.3219 0.73233 0 1.3219-0.58957 1.3219-1.3219 0-0.72969-0.58957-1.3219-1.3219-1.3219" fill="none" stroke="#000" stroke-linecap="round" stroke-linejoin="round" stroke-width=".26438px"/>
  <g transform="matrix(.26458 0 0 .26458 205.1 138)" clip-path="url(#clipEmfPath1-0)">
   <text transform="translate(10.072 18.706)" fill="#000000" font-family="Calibri" font-size="14.688px" font-style="italic" font-weight="400" letter-spacing="0px" word-spacing="0px" style="line-height:125%" xml:space="preserve"><tspan x="0" y="0" fill="#000000" font-family="Calibri" font-weight="400"><tspan dx="0" dy="0" font-size="14.688px" font-style="italic">T</tspan><tspan dx="0" dy="1.279019" font-size="9.25px" font-style="italic">1</tspan><tspan dx="0" dy="-1.279019" font-size="14.688px" font-style="normal"/><tspan dx="0" dy="0" font-size="14.688px" font-style="normal">(6)</tspan><tspan dx="0" dy="0" font-size="14.688px" font-style="normal"/></tspan></text>
  </g>
  <g transform="matrix(.26458 0 0 .26458 205.1 138)" clip-path="url(#clipEmfPath2-23)">
   <text transform="translate(107.92 20.784)" fill="#000000" font-family="Calibri" font-size="14.688px" font-style="italic" font-weight="400" letter-spacing="0px" word-spacing="0px" style="line-height:125%" xml:space="preserve"><tspan x="0" y="0" fill="#000000" font-family="Calibri" font-weight="400"><tspan dx="0" dy="0" font-size="14.688px" font-style="italic">T</tspan><tspan dx="0" dy="1.279019" font-size="9.25px" font-style="italic">5</tspan><tspan dx="0" dy="-1.279019" font-size="14.688px" font-style="normal"/><tspan dx="0" dy="0" font-size="14.688px" font-style="normal">(5)</tspan><tspan dx="0" dy="0" font-size="14.688px" font-style="normal"/></tspan></text>
  </g>
  <path d="m213.64 146.74h21.24v0.35163h-21.24zm20.886-0.88303 2.115 1.0575-2.115 1.0575z" stroke="#000" stroke-linejoin="bevel" stroke-width=".042301px"/>
  <path d="m211.53 172.93c-0.72969 0-1.3219 0.59221-1.3219 1.3219 0 0.73233 0.59221 1.3219 1.3219 1.3219 0.73234 0 1.3219-0.58957 1.3219-1.3219 0-0.72969-0.58957-1.3219-1.3219-1.3219z" fill="#fff" fill-rule="evenodd"/>
  <path d="m211.53 172.93c-0.72969 0-1.3219 0.59221-1.3219 1.3219 0 0.73233 0.59221 1.3219 1.3219 1.3219 0.73234 0 1.3219-0.58957 1.3219-1.3219 0-0.72969-0.58957-1.3219-1.3219-1.3219" fill="none" stroke="#000" stroke-linecap="round" stroke-linejoin="round" stroke-width=".26438px"/>
  <g transform="matrix(.26458 0 0 .26458 205.1 138)" clip-path="url(#clipEmfPath3-2)">
   <text transform="translate(10.072 121.67)" fill="#000000" font-family="Calibri" font-size="14.688px" font-style="italic" font-weight="400" letter-spacing="0px" word-spacing="0px" style="line-height:125%" xml:space="preserve"><tspan x="0" y="0" fill="#000000" font-family="Calibri" font-weight="400"><tspan dx="0" dy="0" font-size="14.688px" font-style="italic">T</tspan><tspan dx="0" dy="1.279019" font-size="9.25px" font-style="italic">3</tspan><tspan dx="0" dy="-1.279019" font-size="14.688px" font-style="normal"/><tspan dx="0" dy="0" font-size="14.688px" font-style="normal">(7)</tspan><tspan dx="0" dy="0" font-size="14.688px" font-style="normal"/></tspan></text>
  </g>
  <path d="m211.53 185.31c-0.72969 0-1.3219 0.59221-1.3219 1.3219 0 0.73233 0.59221 1.3219 1.3219 1.3219 0.73234 0 1.3219-0.58957 1.3219-1.3219 0-0.72969-0.58957-1.3219-1.3219-1.3219z" fill="#fff" fill-rule="evenodd"/>
  <path d="m211.53 185.31c-0.72969 0-1.3219 0.59221-1.3219 1.3219 0 0.73233 0.59221 1.3219 1.3219 1.3219 0.73234 0 1.3219-0.58957 1.3219-1.3219 0-0.72969-0.58957-1.3219-1.3219-1.3219" fill="none" stroke="#000" stroke-linecap="round" stroke-linejoin="round" stroke-width=".26438px"/>
  <g transform="matrix(.26458 0 0 .26458 205.1 138)" clip-path="url(#clipEmfPath4-90)">
   <text transform="translate(10.072 168.35)" fill="#000000" font-family="Calibri" font-size="14.688px" font-style="italic" font-weight="400" letter-spacing="0px" word-spacing="0px" style="line-height:125%" xml:space="preserve"><tspan x="0" y="0" fill="#000000" font-family="Calibri" font-weight="400"><tspan dx="0" dy="0" font-size="14.688px" font-style="italic">T</tspan><tspan dx="0" dy="1.279019" font-size="9.25px" font-style="italic">4</tspan><tspan dx="0" dy="-1.279019" font-size="14.688px" font-style="normal"/><tspan dx="0" dy="0" font-size="14.688px" font-style="normal">(4)</tspan><tspan dx="0" dy="0" font-size="14.688px" font-style="normal"/></tspan></text>
  </g>
  <path d="m230.83 160.51c-0.72969 0-1.3219 0.59221-1.3219 1.3219 0 0.73234 0.59221 1.3219 1.3219 1.3219 0.73234 0 1.3219-0.58957 1.3219-1.3219 0-0.72969-0.58957-1.3219-1.3219-1.3219z" fill="#fff" fill-rule="evenodd"/>
  <path d="m230.83 160.51c-0.72969 0-1.3219 0.59221-1.3219 1.3219 0 0.73234 0.59221 1.3219 1.3219 1.3219 0.73234 0 1.3219-0.58957 1.3219-1.3219 0-0.72969-0.58957-1.3219-1.3219-1.3219" fill="none" stroke="#000" stroke-linecap="round" stroke-linejoin="round" stroke-width=".26438px"/>
  <g transform="matrix(.26458 0 0 .26458 210.88 140.04)" clip-path="url(#clipEmfPath5-4)">
   <text transform="translate(82.976 77.7)" fill="#000000" font-family="Calibri" font-size="14.688px" font-style="italic" font-weight="400" letter-spacing="0px" word-spacing="0px" style="line-height:125%" xml:space="preserve"><tspan x="0" y="0" fill="#000000" font-family="Calibri" font-weight="400"><tspan dx="0" dy="0" font-size="14.688px" font-style="italic">T</tspan><tspan dx="0" dy="1.279019" font-size="9.25px" font-style="italic">6</tspan><tspan dx="0" dy="-1.279019" font-size="14.688px" font-style="normal"/><tspan dx="0" dy="0" font-size="14.688px" font-style="normal">(10)</tspan><tspan dx="0" dy="0" font-size="14.688px" font-style="normal"/></tspan></text>
  </g>
  <path d="m239.29 173.14c-0.72969 0-1.3219 0.59221-1.3219 1.3219 0 0.73234 0.59221 1.3219 1.3219 1.3219 0.73233 0 1.3219-0.58956 1.3219-1.3219 0-0.72969-0.58957-1.3219-1.3219-1.3219z" fill="#fff" fill-rule="evenodd"/>
  <path d="m239.29 173.14c-0.72969 0-1.3219 0.59221-1.3219 1.3219 0 0.73234 0.59221 1.3219 1.3219 1.3219 0.73233 0 1.3219-0.58956 1.3219-1.3219 0-0.72969-0.58957-1.3219-1.3219-1.3219" fill="none" stroke="#000" stroke-linecap="round" stroke-linejoin="round" stroke-width=".26438px"/>
  <g transform="matrix(.26458 0 0 .26458 205.1 138)" clip-path="url(#clipEmfPath6-8)">
   <text transform="translate(113.99 158.44)" fill="#000000" font-family="Calibri" font-size="14.688px" font-style="italic" font-weight="400" letter-spacing="0px" word-spacing="0px" style="line-height:125%" xml:space="preserve"><tspan x="0" y="0" fill="#000000" font-family="Calibri" font-weight="400"><tspan dx="0" dy="0" font-size="14.688px" font-style="italic">T</tspan><tspan dx="0" dy="1.279019" font-size="9.25px" font-style="italic">7</tspan><tspan dx="0" dy="-1.279019" font-size="14.688px" font-style="normal"/><tspan dx="0" dy="0" font-size="14.688px" font-style="normal">(4)</tspan><tspan dx="0" dy="0" font-size="14.688px" font-style="normal"/></tspan></text>
  </g>
  <path d="m272.34 160.77c-0.72969 0-1.3219 0.59221-1.3219 1.3219 0 0.73234 0.59222 1.3219 1.3219 1.3219 0.73233 0 1.3219-0.58957 1.3219-1.3219 0-0.72969-0.58957-1.3219-1.3219-1.3219z" fill="#fff" fill-rule="evenodd"/>
  <path d="m272.34 160.77c-0.72969 0-1.3219 0.59221-1.3219 1.3219 0 0.73234 0.59222 1.3219 1.3219 1.3219 0.73233 0 1.3219-0.58957 1.3219-1.3219 0-0.72969-0.58957-1.3219-1.3219-1.3219" fill="none" stroke="#000" stroke-linecap="round" stroke-linejoin="round" stroke-width=".26438px"/>
  <g transform="matrix(.26458 0 0 .26458 205.1 138)" clip-path="url(#clipEmfPath7-2)">
   <text transform="translate(239.82 75.622)" fill="#000000" font-family="Calibri" font-size="14.688px" font-style="italic" font-weight="400" letter-spacing="0px" word-spacing="0px" style="line-height:125%" xml:space="preserve"><tspan x="0" y="0" fill="#000000" font-family="Calibri" font-weight="400"><tspan dx="0" dy="0" font-size="14.688px" font-style="italic">T</tspan><tspan dx="0" dy="1.279019" font-size="9.25px" font-style="italic">10</tspan><tspan dx="0" dy="-1.279019" font-size="14.688px" font-style="normal"/><tspan dx="0" dy="0" font-size="14.688px" font-style="normal">(7)</tspan><tspan dx="0" dy="0" font-size="14.688px" font-style="normal"/></tspan></text>
  </g>
  <path d="m253.57 160.51c-0.72969 0-1.3219 0.59221-1.3219 1.3219 0 0.73234 0.59221 1.3219 1.3219 1.3219 0.73233 0 1.3219-0.58957 1.3219-1.3219 0-0.72969-0.58957-1.3219-1.3219-1.3219z" fill="#fff" fill-rule="evenodd"/>
  <path d="m253.57 160.51c-0.72969 0-1.3219 0.59221-1.3219 1.3219 0 0.73234 0.59221 1.3219 1.3219 1.3219 0.73233 0 1.3219-0.58957 1.3219-1.3219 0-0.72969-0.58957-1.3219-1.3219-1.3219" fill="none" stroke="#000" stroke-linecap="round" stroke-linejoin="round" stroke-width=".26438px"/>
  <g transform="matrix(.26458 0 0 .26458 205.1 138)" clip-path="url(#clipEmfPath8-86)">
   <text transform="translate(168.83 74.663)" fill="#000000" font-family="Calibri" font-size="14.688px" font-style="italic" font-weight="400" letter-spacing="0px" word-spacing="0px" style="line-height:125%" xml:space="preserve"><tspan x="0" y="0" fill="#000000" font-family="Calibri" font-weight="400"><tspan dx="0" dy="0" font-size="14.688px" font-style="italic">T</tspan><tspan dx="0" dy="1.279019" font-size="9.25px" font-style="italic">8</tspan><tspan dx="0" dy="-1.279019" font-size="14.688px" font-style="normal"/><tspan dx="0" dy="0" font-size="14.688px" font-style="normal">(3)</tspan><tspan dx="0" dy="0" font-size="14.688px" font-style="normal"/></tspan></text>
  </g>
  <g stroke="#000" stroke-linejoin="bevel" stroke-width=".042301px">
   <path d="m241.14 146.99h25.47v0.35163h-25.47zm25.116-0.88038 2.115 1.0575-2.115 1.0575z"/>
   <path d="m242.53 148.33 24.289 10.409-0.14012 0.32255-24.289-10.409zm24.312 9.4595 1.5255 1.8057-2.3583 0.13748z"/>
   <path d="m232.02 164.24 5.7397 6.8448-0.26966 0.22737-5.7424-6.8448zm6.1892 6.0094 0.54727 2.3001-2.1679-0.94119z"/>
   <path d="m256.21 161.79h11.458v0.35163h-11.458zm11.104-0.88038 2.115 1.0575-2.115 1.0575z"/>
   <path d="m242.13 174.5 26.118-10.2 0.12954 0.32783-26.118 10.2zm25.47-10.892 2.353 0.21679-1.5836 1.7528z"/>
   <path d="m213.91 174.22h20.976v0.35163h-20.976zm20.622-0.88039 2.115 1.0575-2.115 1.0575z"/>
   <path d="m231.48 158.44 4.8382-7.2572 0.29346 0.19299-4.8382 7.2599zm3.9102-7.4529 2.0516-1.1738-0.29082 2.3451z"/>
   <path d="m240.75 148.9 8.9228 10.803-0.27231 0.22472-8.9228-10.803zm9.3776 9.9698 0.5314 2.3054-2.16-0.95706z"/>
   <path d="m241.28 173.48 8.7827-8.5527 0.24587 0.2538-8.7827 8.5527zm7.9156-8.9387 2.2525-0.71647-0.77728 2.2314z"/>
  </g>
  <path d="m270.75 145.97c-0.72969 0-1.3219 0.59221-1.3219 1.3219 0 0.73234 0.59221 1.3219 1.3219 1.3219 0.73234 0 1.3219-0.58957 1.3219-1.3219 0-0.72969-0.58957-1.3219-1.3219-1.3219z" fill="#fff" fill-rule="evenodd"/>
  <path d="m270.75 145.97c-0.72969 0-1.3219 0.59221-1.3219 1.3219 0 0.73234 0.59221 1.3219 1.3219 1.3219 0.73234 0 1.3219-0.58957 1.3219-1.3219 0-0.72969-0.58957-1.3219-1.3219-1.3219" fill="none" stroke="#000" stroke-linecap="round" stroke-linejoin="round" stroke-width=".26438px"/>
  <g transform="matrix(.26458 0 0 .26458 205.1 138)" clip-path="url(#clipEmfPath9-0)">
   <text transform="translate(233.9 19.665)" fill="#000000" font-family="Calibri" font-size="14.688px" font-style="italic" font-weight="400" letter-spacing="0px" word-spacing="0px" style="line-height:125%" xml:space="preserve"><tspan x="0" y="0" fill="#000000" font-family="Calibri" font-weight="400"><tspan dx="0" dy="0" font-size="14.688px" font-style="italic">T</tspan><tspan dx="0" dy="1.279019" font-size="9.25px" font-style="italic">9</tspan><tspan dx="0" dy="-1.279019" font-size="14.688px" font-style="normal"/><tspan dx="0" dy="0" font-size="14.688px" font-style="normal">(2)</tspan><tspan dx="0" dy="0" font-size="14.688px" font-style="normal"/></tspan></text>
  </g>
 </g>
</svg>
