<?xml version="1.0" encoding="UTF-8"?>
<!-- Created with Inkscape (http://www.inkscape.org/) -->
<svg width="68.934mm" height="47.569mm" version="1.1" viewBox="0 0 68.934126 47.569257" xmlns="http://www.w3.org/2000/svg" xmlns:cc="http://creativecommons.org/ns#" xmlns:dc="http://purl.org/dc/elements/1.1/" xmlns:rdf="http://www.w3.org/1999/02/22-rdf-syntax-ns#">
 <defs>
  <clipPath id="clipEmfPath1-78">
   <path d="m0.47963 4.9562h62.832v21.264h-62.832z"/>
  </clipPath>
  <clipPath id="clipEmfPath2-24">
   <path d="m98.325 6.8747h78.979v21.424h-78.979z"/>
  </clipPath>
  <clipPath id="clipEmfPath3-41">
   <path d="m0.47963 107.76h62.832v21.424h-62.832z"/>
  </clipPath>
  <clipPath id="clipEmfPath4-3">
   <path d="m0.47963 154.6h62.832v21.424h-62.832z"/>
  </clipPath>
  <clipPath id="clipEmfPath5-5">
   <path d="m104.4 144.53h71.945v21.424h-71.945z"/>
  </clipPath>
  <clipPath id="clipEmfPath6-55">
   <path d="m230.22 61.873h84.895v21.424h-84.895z"/>
  </clipPath>
  <clipPath id="clipEmfPath7-4">
   <path d="m159.24 60.913h62.992v21.264h-62.992z"/>
  </clipPath>
  <clipPath id="clipEmfPath8-3">
   <path d="m224.31 5.9155h71.945v21.424h-71.945z"/>
  </clipPath>
 </defs>
 <metadata>
  <rdf:RDF>
   <cc:Work rdf:about="">
    <dc:format>image/svg+xml</dc:format>
    <dc:type rdf:resource="http://purl.org/dc/dcmitype/StillImage"/>
    <dc:title/>
   </cc:Work>
  </rdf:RDF>
 </metadata>
 <g transform="translate(-189.02 -147.25)">
  <text x="186.04414" y="148.39355" fill="#000000" font-family="Calibri" font-size="3.8861px" font-weight="400" letter-spacing="0px" stroke-width=".26458" word-spacing="0px" style="line-height:125%" xml:space="preserve"><tspan x="0" y="0" stroke-width=".26458"><tspan dx="0" dy="0" fill="#000000" font-family="Calibri" font-size="3.8861px" font-weight="400" stroke-width=".26458"/></tspan></text>
  <path d="m192.47 152.44c-0.72969 0-1.3219 0.59221-1.3219 1.3219s0.59221 1.3219 1.3219 1.3219c0.73234 0 1.3219-0.59221 1.3219-1.3219s-0.58957-1.3219-1.3219-1.3219z" fill="#fff" fill-rule="evenodd"/>
  <path d="m192.47 152.44c-0.72969 0-1.3219 0.59221-1.3219 1.3219s0.59221 1.3219 1.3219 1.3219c0.73234 0 1.3219-0.59221 1.3219-1.3219s-0.58957-1.3219-1.3219-1.3219" fill="none" stroke="#000" stroke-linecap="round" stroke-linejoin="round" stroke-width=".26438px"/>
  <path d="m219.71 152.44c-0.72969 0-1.3219 0.59221-1.3219 1.3219s0.59221 1.3219 1.3219 1.3219c0.73233 0 1.3219-0.59221 1.3219-1.3219s-0.58957-1.3219-1.3219-1.3219z" fill="#fff" fill-rule="evenodd"/>
  <path d="m219.71 152.44c-0.72969 0-1.3219 0.59221-1.3219 1.3219s0.59221 1.3219 1.3219 1.3219c0.73233 0 1.3219-0.59221 1.3219-1.3219s-0.58957-1.3219-1.3219-1.3219" fill="none" stroke="#000" stroke-linecap="round" stroke-linejoin="round" stroke-width=".26438px"/>
  <g transform="matrix(.26458 0 0 .26458 186.04 144.76)" clip-path="url(#clipEmfPath1-78)">
   <text transform="translate(10.072 18.706)" fill="#000000" font-family="Calibri" font-size="14.688px" font-style="italic" font-weight="400" letter-spacing="0px" word-spacing="0px" style="line-height:125%" xml:space="preserve"><tspan x="0" y="0" fill="#000000" font-family="Calibri" font-weight="400"><tspan dx="0" dy="0" font-size="14.688px" font-style="italic">T</tspan><tspan dx="0" dy="1.279019" font-size="9.25px" font-style="italic">1</tspan><tspan dx="0" dy="-1.279019" font-size="14.688px" font-style="normal"/><tspan dx="0" dy="0" font-size="14.688px" font-style="normal">(6)</tspan><tspan dx="0" dy="0" font-size="14.688px" font-style="normal"/></tspan></text>
  </g>
  <g transform="matrix(.26458 0 0 .26458 186.04 144.76)" clip-path="url(#clipEmfPath2-24)">
   <text transform="translate(107.92 20.624)" fill="#000000" font-family="Calibri" font-size="14.688px" font-style="italic" font-weight="400" letter-spacing="0px" word-spacing="0px" style="line-height:125%" xml:space="preserve"><tspan x="0" y="0" fill="#000000" font-family="Calibri" font-weight="400"><tspan dx="0" dy="0" font-size="14.688px" font-style="italic">T</tspan><tspan dx="0" dy="1.279019" font-size="9.25px" font-style="italic">5</tspan><tspan dx="0" dy="-1.279019" font-size="14.688px" font-style="normal"/><tspan dx="0" dy="0" font-size="14.688px" font-style="normal">(5)</tspan><tspan dx="0" dy="0" font-size="14.688px" font-style="normal"/></tspan></text>
  </g>
  <path d="m194.59 153.48h21.24v0.35163h-21.24zm20.886-0.88038 2.115 1.0575-2.115 1.0575z" stroke="#000" stroke-linejoin="bevel" stroke-width=".042301px"/>
  <path d="m192.47 179.67c-0.72969 0-1.3219 0.59222-1.3219 1.3219 0 0.7297 0.59221 1.3219 1.3219 1.3219 0.73234 0 1.3219-0.59221 1.3219-1.3219 0-0.72968-0.58957-1.3219-1.3219-1.3219z" fill="#fff" fill-rule="evenodd"/>
  <path d="m192.47 179.67c-0.72969 0-1.3219 0.59222-1.3219 1.3219 0 0.7297 0.59221 1.3219 1.3219 1.3219 0.73234 0 1.3219-0.59221 1.3219-1.3219 0-0.72968-0.58957-1.3219-1.3219-1.3219" fill="none" stroke="#000" stroke-linecap="round" stroke-linejoin="round" stroke-width=".26438px"/>
  <g transform="matrix(.26458 0 0 .26458 186.04 144.76)" clip-path="url(#clipEmfPath3-41)">
   <text transform="translate(10.072 121.51)" fill="#000000" font-family="Calibri" font-size="14.688px" font-style="italic" font-weight="400" letter-spacing="0px" word-spacing="0px" style="line-height:125%" xml:space="preserve"><tspan x="0" y="0" fill="#000000" font-family="Calibri" font-weight="400"><tspan dx="0" dy="0" font-size="14.688px" font-style="italic">T</tspan><tspan dx="0" dy="1.279019" font-size="9.25px" font-style="italic">3</tspan><tspan dx="0" dy="-1.279019" font-size="14.688px" font-style="normal"/><tspan dx="0" dy="0" font-size="14.688px" font-style="normal">(7)</tspan><tspan dx="0" dy="0" font-size="14.688px" font-style="normal"/></tspan></text>
  </g>
  <path d="m192.47 192.04c-0.72969 0-1.3219 0.59221-1.3219 1.3219 0 0.7297 0.59221 1.3219 1.3219 1.3219 0.73234 0 1.3219-0.59221 1.3219-1.3219 0-0.72969-0.58957-1.3219-1.3219-1.3219z" fill="#fff" fill-rule="evenodd"/>
  <path d="m192.47 192.04c-0.72969 0-1.3219 0.59221-1.3219 1.3219 0 0.7297 0.59221 1.3219 1.3219 1.3219 0.73234 0 1.3219-0.59221 1.3219-1.3219 0-0.72969-0.58957-1.3219-1.3219-1.3219" fill="none" stroke="#000" stroke-linecap="round" stroke-linejoin="round" stroke-width=".26438px"/>
  <g transform="matrix(.26458 0 0 .26458 186.04 144.76)" clip-path="url(#clipEmfPath4-3)">
   <text transform="translate(10.072 168.35)" fill="#000000" font-family="Calibri" font-size="14.688px" font-style="italic" font-weight="400" letter-spacing="0px" word-spacing="0px" style="line-height:125%" xml:space="preserve"><tspan x="0" y="0" fill="#000000" font-family="Calibri" font-weight="400"><tspan dx="0" dy="0" font-size="14.688px" font-style="italic">T</tspan><tspan dx="0" dy="1.279019" font-size="9.25px" font-style="italic">4</tspan><tspan dx="0" dy="-1.279019" font-size="14.688px" font-style="normal"/><tspan dx="0" dy="0" font-size="14.688px" font-style="normal">(4)</tspan><tspan dx="0" dy="0" font-size="14.688px" font-style="normal"/></tspan></text>
  </g>
  <path d="m220.23 179.88c-0.72969 0-1.3219 0.59221-1.3219 1.3219s0.59221 1.3219 1.3219 1.3219c0.73233 0 1.3219-0.59221 1.3219-1.3219s-0.58957-1.3219-1.3219-1.3219z" fill="#fff" fill-rule="evenodd"/>
  <path d="m220.23 179.88c-0.72969 0-1.3219 0.59221-1.3219 1.3219s0.59221 1.3219 1.3219 1.3219c0.73233 0 1.3219-0.59221 1.3219-1.3219s-0.58957-1.3219-1.3219-1.3219" fill="none" stroke="#000" stroke-linecap="round" stroke-linejoin="round" stroke-width=".26438px"/>
  <g transform="matrix(.26458 0 0 .26458 186.04 144.76)" clip-path="url(#clipEmfPath5-5)">
   <text transform="translate(113.99 158.28)" fill="#000000" font-family="Calibri" font-size="14.688px" font-style="italic" font-weight="400" letter-spacing="0px" word-spacing="0px" style="line-height:125%" xml:space="preserve"><tspan x="0" y="0" fill="#000000" font-family="Calibri" font-weight="400"><tspan dx="0" dy="0" font-size="14.688px" font-style="italic">T</tspan><tspan dx="0" dy="1.279019" font-size="9.25px" font-style="italic">7</tspan><tspan dx="0" dy="-1.279019" font-size="14.688px" font-style="normal"/><tspan dx="0" dy="0" font-size="14.688px" font-style="normal">(4)</tspan><tspan dx="0" dy="0" font-size="14.688px" font-style="normal"/></tspan></text>
  </g>
  <path d="m253.28 167.51c-0.72969 0-1.3219 0.59221-1.3219 1.3219s0.59222 1.3219 1.3219 1.3219c0.73233 0 1.3219-0.59221 1.3219-1.3219s-0.58957-1.3219-1.3219-1.3219z" fill="#fff" fill-rule="evenodd"/>
  <path d="m253.28 167.51c-0.72969 0-1.3219 0.59221-1.3219 1.3219s0.59222 1.3219 1.3219 1.3219c0.73233 0 1.3219-0.59221 1.3219-1.3219s-0.58957-1.3219-1.3219-1.3219" fill="none" stroke="#000" stroke-linecap="round" stroke-linejoin="round" stroke-width=".26438px"/>
  <g transform="matrix(.26458 0 0 .26458 186.04 144.76)" clip-path="url(#clipEmfPath6-55)">
   <text transform="translate(239.82 75.622)" fill="#000000" font-family="Calibri" font-size="14.688px" font-style="italic" font-weight="400" letter-spacing="0px" word-spacing="0px" style="line-height:125%" xml:space="preserve"><tspan x="0" y="0" fill="#000000" font-family="Calibri" font-weight="400"><tspan dx="0" dy="0" font-size="14.688px" font-style="italic">T</tspan><tspan dx="0" dy="1.279019" font-size="9.25px" font-style="italic">10</tspan><tspan dx="0" dy="-1.279019" font-size="14.688px" font-style="normal"/><tspan dx="0" dy="0" font-size="14.688px" font-style="normal">(7)</tspan><tspan dx="0" dy="0" font-size="14.688px" font-style="normal"/></tspan></text>
  </g>
  <path d="m234.51 167.24c-0.72969 0-1.3219 0.59221-1.3219 1.3219s0.59221 1.3219 1.3219 1.3219c0.73233 0 1.3219-0.59221 1.3219-1.3219s-0.58957-1.3219-1.3219-1.3219z" fill="#fff" fill-rule="evenodd"/>
  <path d="m234.51 167.24c-0.72969 0-1.3219 0.59221-1.3219 1.3219s0.59221 1.3219 1.3219 1.3219c0.73233 0 1.3219-0.59221 1.3219-1.3219s-0.58957-1.3219-1.3219-1.3219" fill="none" stroke="#000" stroke-linecap="round" stroke-linejoin="round" stroke-width=".26438px"/>
  <g transform="matrix(.26458 0 0 .26458 186.04 144.76)" clip-path="url(#clipEmfPath7-4)">
   <text transform="translate(168.83 74.663)" fill="#000000" font-family="Calibri" font-size="14.688px" font-style="italic" font-weight="400" letter-spacing="0px" word-spacing="0px" style="line-height:125%" xml:space="preserve"><tspan x="0" y="0" fill="#000000" font-family="Calibri" font-weight="400"><tspan dx="0" dy="0" font-size="14.688px" font-style="italic">T</tspan><tspan dx="0" dy="1.279019" font-size="9.25px" font-style="italic">8</tspan><tspan dx="0" dy="-1.279019" font-size="14.688px" font-style="normal"/><tspan dx="0" dy="0" font-size="14.688px" font-style="normal">(3)</tspan><tspan dx="0" dy="0" font-size="14.688px" font-style="normal"/></tspan></text>
  </g>
  <g stroke="#000" stroke-linejoin="bevel" stroke-width=".042301px">
   <path d="m222.08 153.72h25.47v0.35427h-25.47zm25.116-0.88039 2.115 1.0575-2.115 1.0575z"/>
   <path d="m223.48 155.06 24.289 10.409-0.14012 0.32519-24.289-10.411zm24.312 9.4595 1.5255 1.8057-2.3583 0.14012z"/>
   <path d="m237.15 168.53h11.458v0.35427h-11.458zm11.104-0.88039 2.115 1.0575-2.115 1.0575z"/>
   <path d="m223.08 181.23 26.118-10.197 0.12954 0.32784-26.118 10.197zm25.47-10.89 2.353 0.21415-1.5836 1.7555z"/>
   <path d="m194.85 180.95h20.976v0.35427h-20.976zm20.622-0.88039 2.115 1.0575-2.115 1.0575z"/>
   <path d="m221.69 155.64 8.9228 10.803-0.27231 0.22473-8.9228-10.803zm9.3776 9.9698 0.5314 2.3028-2.16-0.95706z"/>
   <path d="m222.23 180.21 8.7827-8.5527 0.24587 0.25381-8.7827 8.5527zm7.9156-8.9361 2.2525-0.71911-0.77728 2.234z"/>
  </g>
  <path d="m251.7 152.7c-0.72969 0-1.3219 0.59221-1.3219 1.3219s0.59221 1.3219 1.3219 1.3219c0.73234 0 1.3219-0.59221 1.3219-1.3219s-0.58957-1.3219-1.3219-1.3219z" fill="#fff" fill-rule="evenodd"/>
  <path d="m251.7 152.7c-0.72969 0-1.3219 0.59221-1.3219 1.3219s0.59221 1.3219 1.3219 1.3219c0.73234 0 1.3219-0.59221 1.3219-1.3219s-0.58957-1.3219-1.3219-1.3219" fill="none" stroke="#000" stroke-linecap="round" stroke-linejoin="round" stroke-width=".26438px"/>
  <g transform="matrix(.26458 0 0 .26458 186.04 144.76)" clip-path="url(#clipEmfPath8-3)">
   <text transform="translate(233.9 19.665)" fill="#000000" font-family="Calibri" font-size="14.688px" font-style="italic" font-weight="400" letter-spacing="0px" word-spacing="0px" style="line-height:125%" xml:space="preserve"><tspan x="0" y="0" fill="#000000" font-family="Calibri" font-weight="400"><tspan dx="0" dy="0" font-size="14.688px" font-style="italic">T</tspan><tspan dx="0" dy="1.279019" font-size="9.25px" font-style="italic">9</tspan><tspan dx="0" dy="-1.279019" font-size="14.688px" font-style="normal"/><tspan dx="0" dy="0" font-size="14.688px" font-style="normal">(2)</tspan><tspan dx="0" dy="0" font-size="14.688px" font-style="normal"/></tspan></text>
  </g>
 </g>
</svg>
