<?xml version="1.0" encoding="UTF-8"?>
<!-- Created with Inkscape (http://www.inkscape.org/) -->
<svg width="50.81mm" height="7.9571mm" version="1.1" viewBox="0 0 50.810214 7.957113" xmlns="http://www.w3.org/2000/svg" xmlns:cc="http://creativecommons.org/ns#" xmlns:dc="http://purl.org/dc/elements/1.1/" xmlns:rdf="http://www.w3.org/1999/02/22-rdf-syntax-ns#">
 <defs>
  <clipPath id="clipEmfPath1-39">
   <path d="m0 5.1161h62.992v21.264h-62.992z"/>
  </clipPath>
  <clipPath id="clipEmfPath2-68">
   <path d="m98.005 7.0346h104.88v21.424h-104.88z"/>
  </clipPath>
 </defs>
 <metadata>
  <rdf:RDF>
   <cc:Work rdf:about="">
    <dc:format>image/svg+xml</dc:format>
    <dc:type rdf:resource="http://purl.org/dc/dcmitype/StillImage"/>
    <dc:title/>
   </cc:Work>
  </rdf:RDF>
 </metadata>
 <g transform="translate(-246.67 -169.16)">
  <text x="243.8233" y="170.25705" fill="#000000" font-family="Calibri" font-size="3.8861px" font-weight="400" letter-spacing="0px" stroke-width=".26458" word-spacing="0px" style="line-height:125%" xml:space="preserve"><tspan x="0" y="0" stroke-width=".26458"><tspan dx="0" dy="0" fill="#000000" font-family="Calibri" font-size="3.8861px" font-weight="400" stroke-width=".26458"/></tspan></text>
  <path d="m250.15 174.34c-0.72969 0-1.3219 0.59221-1.3219 1.3219s0.59221 1.3219 1.3219 1.3219c0.73234 0 1.3219-0.59221 1.3219-1.3219s-0.58956-1.3219-1.3219-1.3219z" fill="#fff" fill-rule="evenodd"/>
  <path d="m250.15 174.34c-0.72969 0-1.3219 0.59221-1.3219 1.3219s0.59221 1.3219 1.3219 1.3219c0.73234 0 1.3219-0.59221 1.3219-1.3219s-0.58956-1.3219-1.3219-1.3219" fill="none" stroke="#000" stroke-linecap="round" stroke-linejoin="round" stroke-width=".26438px"/>
  <path d="m277.38 174.34c-0.72969 0-1.3219 0.59221-1.3219 1.3219s0.59222 1.3219 1.3219 1.3219c0.73233 0 1.3219-0.59221 1.3219-1.3219s-0.58957-1.3219-1.3219-1.3219z" fill="#fff" fill-rule="evenodd"/>
  <path d="m277.38 174.34c-0.72969 0-1.3219 0.59221-1.3219 1.3219s0.59222 1.3219 1.3219 1.3219c0.73233 0 1.3219-0.59221 1.3219-1.3219s-0.58957-1.3219-1.3219-1.3219" fill="none" stroke="#000" stroke-linecap="round" stroke-linejoin="round" stroke-width=".26438px"/>
  <g transform="matrix(.26458 0 0 .26458 243.82 166.62)" clip-path="url(#clipEmfPath1-39)">
   <text transform="translate(9.5926 18.866)" fill="#000000" font-family="Calibri" font-size="14.688px" font-style="italic" font-weight="400" letter-spacing="0px" word-spacing="0px" style="line-height:125%" xml:space="preserve"><tspan x="0" y="0" fill="#000000" font-family="Calibri" font-weight="400"><tspan dx="0" dy="0" font-size="14.688px" font-style="italic">T</tspan><tspan dx="0" dy="1.279019" font-size="9.25px" font-style="italic">1</tspan><tspan dx="0" dy="-1.279019" font-size="14.688px" font-style="normal"/><tspan dx="0" dy="0" font-size="14.688px" font-style="normal">(5)</tspan><tspan dx="0" dy="0" font-size="14.688px" font-style="normal"/></tspan></text>
  </g>
  <g transform="matrix(.26458 0 0 .26458 243.82 166.62)" clip-path="url(#clipEmfPath2-68)">
   <text transform="translate(107.6 20.784)" fill="#000000" font-family="Calibri" font-size="14.688px" font-style="italic" font-weight="400" letter-spacing="0px" word-spacing="0px" style="line-height:125%" xml:space="preserve"><tspan x="0" y="0" font-family="Calibri" font-weight="400"><tspan dx="0" dy="0" fill="#000000" font-size="14.688px" font-style="italic">T</tspan><tspan dx="0" dy="1.279019" fill="#000000" font-size="9.25px" font-style="italic">2</tspan><tspan dx="0" dy="-1.279019" fill="#000000" font-size="14.688px" font-style="normal"/><tspan dx="0" dy="0" fill="#000000" font-size="14.688px" font-style="normal">(4) </tspan><tspan dx="0" dy="0" fill="#ff0000" font-size="14.688px" font-style="normal">[10]</tspan><tspan dx="0" dy="0" fill="#000000" font-size="14.688px" font-style="normal"/></tspan></text>
  </g>
  <path d="m252.26 175.38h21.24v0.35427h-21.24zm20.886-0.88038 2.115 1.0575-2.115 1.0575z" stroke="#000" stroke-linejoin="bevel" stroke-width=".042301px"/>
  <path d="m279.49 175.32h16.217v0.35427h-16.217zm15.863-0.88039 2.115 1.0575-2.115 1.0575z" stroke="#000" stroke-linejoin="bevel" stroke-width=".042301px"/>
 </g>
</svg>
