<?xml version="1.0" encoding="UTF-8"?>
<!-- Created with Inkscape (http://www.inkscape.org/) -->
<svg width="51.069mm" height="18.289mm" version="1.1" viewBox="0 0 51.0693 18.289107" xmlns="http://www.w3.org/2000/svg" xmlns:cc="http://creativecommons.org/ns#" xmlns:dc="http://purl.org/dc/elements/1.1/" xmlns:rdf="http://www.w3.org/1999/02/22-rdf-syntax-ns#">
 <defs>
  <clipPath id="clipEmfPath1-93">
   <path d="m0.15988 4.6364h98.804v21.424h-98.804z"/>
  </clipPath>
  <clipPath id="clipEmfPath2-1">
   <path d="m98.005 6.7148h104.88v21.264h-104.88z"/>
  </clipPath>
  <clipPath id="clipEmfPath3-9">
   <path d="m98.964 47.643h105.04v21.424h-105.04z"/>
  </clipPath>
 </defs>
 <metadata>
  <rdf:RDF>
   <cc:Work rdf:about="">
    <dc:format>image/svg+xml</dc:format>
    <dc:type rdf:resource="http://purl.org/dc/dcmitype/StillImage"/>
    <dc:title/>
   </cc:Work>
  </rdf:RDF>
 </metadata>
 <g transform="translate(-198.74 -157.5)">
  <text x="195.85356" y="158.72902" fill="#000000" font-family="Calibri" font-size="3.8861px" font-weight="400" letter-spacing="0px" stroke-width=".26458" word-spacing="0px" style="line-height:125%" xml:space="preserve"><tspan x="0" y="0" stroke-width=".26458"><tspan dx="0" dy="0" fill="#000000" font-family="Calibri" font-size="3.8861px" font-weight="400" stroke-width=".26458"/></tspan></text>
  <path d="m202.21 162.7c-0.72969 0-1.3219 0.59221-1.3219 1.3219s0.59222 1.3219 1.3219 1.3219 1.3219-0.59221 1.3219-1.3219-0.59221-1.3219-1.3219-1.3219z" fill="#fff" fill-rule="evenodd"/>
  <path d="m202.21 162.7c-0.72969 0-1.3219 0.59221-1.3219 1.3219s0.59222 1.3219 1.3219 1.3219 1.3219-0.59221 1.3219-1.3219-0.59221-1.3219-1.3219-1.3219" fill="none" stroke="#000" stroke-linecap="round" stroke-linejoin="round" stroke-width=".26438px"/>
  <path d="m229.45 162.7c-0.72969 0-1.3219 0.59221-1.3219 1.3219s0.59221 1.3219 1.3219 1.3219 1.3219-0.59221 1.3219-1.3219-0.59221-1.3219-1.3219-1.3219z" fill="#fff" fill-rule="evenodd"/>
  <path d="m229.45 162.7c-0.72969 0-1.3219 0.59221-1.3219 1.3219s0.59221 1.3219 1.3219 1.3219 1.3219-0.59221 1.3219-1.3219-0.59221-1.3219-1.3219-1.3219" fill="none" stroke="#000" stroke-linecap="round" stroke-linejoin="round" stroke-width=".26438px"/>
  <g transform="matrix(.26458 0 0 .26458 195.85 155.09)" clip-path="url(#clipEmfPath1-93)">
   <text transform="translate(9.7525 18.386)" fill="#000000" font-family="Calibri" font-size="14.688px" font-style="italic" font-weight="400" letter-spacing="0px" word-spacing="0px" style="line-height:125%" xml:space="preserve"><tspan x="0" y="0" fill="#000000" font-family="Calibri" font-weight="400"><tspan dx="0" dy="0" font-size="14.688px" font-style="italic">T</tspan><tspan dx="0" dy="1.279019" font-size="9.25px" font-style="italic">1</tspan><tspan dx="0" dy="-1.279019" font-size="14.688px" font-style="normal"/><tspan dx="0" dy="0" font-size="14.688px" font-style="normal">(5)</tspan><tspan dx="0" dy="0" font-size="14.688px" font-style="normal"/></tspan></text>
  </g>
  <g transform="matrix(.26458 0 0 .26458 195.85 155.09)" clip-path="url(#clipEmfPath2-1)">
   <text transform="translate(107.6 20.464)" fill="#000000" font-family="Calibri" font-size="14.688px" font-style="italic" font-weight="400" letter-spacing="0px" word-spacing="0px" style="line-height:125%" xml:space="preserve"><tspan x="0" y="0" font-family="Calibri" font-weight="400"><tspan dx="0" dy="0" fill="#000000" font-size="14.688px" font-style="italic">T</tspan><tspan dx="0" dy="1.279019" fill="#000000" font-size="9.25px" font-style="italic">2</tspan><tspan dx="0" dy="-1.279019" fill="#000000" font-size="14.688px" font-style="normal"/><tspan dx="0" dy="0" fill="#000000" font-size="14.688px" font-style="normal">(4) </tspan><tspan dx="0" dy="0" fill="#ff0000" font-size="14.688px" font-style="normal">[10]</tspan><tspan dx="0" dy="0" fill="#000000" font-size="14.688px" font-style="normal"/></tspan></text>
  </g>
  <g>
   <path d="m204.33 163.74h21.238v0.35427h-21.238zm20.886-0.88039 2.115 1.0575-2.115 1.0575z" stroke="#000" stroke-linejoin="bevel" stroke-width=".042301px"/>
   <path d="m231.56 163.69h16.214v0.35427h-16.214zm15.863-0.88038 2.115 1.0575-2.115 1.0575z" stroke="#000" stroke-linejoin="bevel" stroke-width=".042301px"/>
   <path d="m229.71 173.01c-0.72969 0-1.3219 0.59221-1.3219 1.3219s0.59221 1.3219 1.3219 1.3219 1.3219-0.59221 1.3219-1.3219-0.59221-1.3219-1.3219-1.3219z" fill="#fff" fill-rule="evenodd"/>
  </g>
  <g stroke="#000">
   <path d="m229.71 173.01c-0.72969 0-1.3219 0.59221-1.3219 1.3219s0.59221 1.3219 1.3219 1.3219 1.3219-0.59221 1.3219-1.3219-0.59221-1.3219-1.3219-1.3219" fill="none" stroke-linecap="round" stroke-linejoin="round" stroke-width=".26438px"/>
   <path d="m204.13 165.34 21.877 8.1112-0.12162 0.33047-21.877-8.1112zm21.854 7.1621 1.6154 1.7264-2.3504 0.25645z" stroke-linejoin="bevel" stroke-width=".042301px"/>
   <path d="m231.83 174h16.214v0.35427h-16.214zm15.863-0.88039 2.115 1.0575-2.115 1.0575z" stroke-linejoin="bevel" stroke-width=".042301px"/>
  </g>
  <g transform="matrix(.26458 0 0 .26458 195.85 155.09)" clip-path="url(#clipEmfPath3-9)">
   <text transform="translate(108.56 61.393)" fill="#000000" font-family="Calibri" font-size="14.688px" font-style="italic" font-weight="400" letter-spacing="0px" word-spacing="0px" style="line-height:125%" xml:space="preserve"><tspan x="0" y="0" font-family="Calibri" font-weight="400"><tspan dx="0" dy="0" fill="#000000" font-size="14.688px" font-style="italic">T</tspan><tspan dx="0" dy="1.279019" fill="#000000" font-size="9.25px" font-style="italic">3</tspan><tspan dx="0" dy="-1.279019" fill="#000000" font-size="14.688px" font-style="normal"/><tspan dx="0" dy="0" fill="#000000" font-size="14.688px" font-style="normal">(5) </tspan><tspan dx="0" dy="0" fill="#ff0000" font-size="14.688px" font-style="normal">[11</tspan><tspan dx="0" dy="0" fill="#ff0000" font-size="14.688px" font-style="normal">]</tspan><tspan dx="0" dy="0" fill="#000000" font-size="14.688px" font-style="normal"/></tspan></text>
  </g>
 </g>
</svg>
