<?xml version="1.0" encoding="UTF-8" standalone="no"?>
<!-- Created with Inkscape (http://www.inkscape.org/) -->

<svg
   xmlns:dc="http://purl.org/dc/elements/1.1/"
   xmlns:cc="http://creativecommons.org/ns#"
   xmlns:rdf="http://www.w3.org/1999/02/22-rdf-syntax-ns#"
   xmlns:svg="http://www.w3.org/2000/svg"
   xmlns="http://www.w3.org/2000/svg"
   xmlns:sodipodi="http://sodipodi.sourceforge.net/DTD/sodipodi-0.dtd"
   xmlns:inkscape="http://www.inkscape.org/namespaces/inkscape"
   width="47.99564mm"
   height="18.118004mm"
   viewBox="0 0 47.99564 18.118003"
   version="1.1"
   id="svg9235"
   inkscape:version="0.92.0 r15299"
   sodipodi:docname="gt10.svg">
  <defs
     id="defs9229">
    <clipPath
       id="clipEmfPath1-8"
       clipPathUnits="userSpaceOnUse">
      <path
         inkscape:connector-curvature="0"
         id="path2564"
         d="M 15.188349,11.031538 H 26.219887 V 23.981604 H 15.188349 Z" />
    </clipPath>
    <clipPath
       id="clipEmfPath2-5"
       clipPathUnits="userSpaceOnUse">
      <path
         inkscape:connector-curvature="0"
         id="path2567"
         d="M 107.43759,2.7179151 H 118.629 V 15.667981 h -11.19141 z" />
    </clipPath>
    <clipPath
       id="clipEmfPath3-7"
       clipPathUnits="userSpaceOnUse">
      <path
         inkscape:connector-curvature="0"
         id="path2570"
         d="m 224.46781,0.95926416 h 11.19142 V 13.90933 h -11.19142 z" />
    </clipPath>
    <clipPath
       id="clipEmfPath4-18"
       clipPathUnits="userSpaceOnUse">
      <path
         inkscape:connector-curvature="0"
         id="path2573"
         d="M 43.806397,24.940868 H 54.837935 V 37.731057 H 43.806397 Z" />
    </clipPath>
    <clipPath
       id="clipEmfPath5-7"
       clipPathUnits="userSpaceOnUse">
      <path
         inkscape:connector-curvature="0"
         id="path2576"
         d="m 107.43759,17.58651 h 11.03153 v 12.790188 h -11.03153 z" />
    </clipPath>
    <clipPath
       id="clipEmfPath6-4"
       clipPathUnits="userSpaceOnUse">
      <path
         inkscape:connector-curvature="0"
         id="path2579"
         d="m 209.91897,16.147613 h 11.19142 V 29.09768 h -11.19142 z" />
    </clipPath>
    <clipPath
       id="clipEmfPath7-0"
       clipPathUnits="userSpaceOnUse">
      <path
         inkscape:connector-curvature="0"
         id="path2582"
         d="M 78.020152,34.213755 H 89.211567 V 47.003944 H 78.020152 Z" />
    </clipPath>
    <clipPath
       id="clipEmfPath8-5"
       clipPathUnits="userSpaceOnUse">
      <path
         inkscape:connector-curvature="0"
         id="path2585"
         d="M 52.919406,50.201491 H 63.950944 V 62.99168 H 52.919406 Z" />
    </clipPath>
    <clipPath
       id="clipEmfPath9-3"
       clipPathUnits="userSpaceOnUse">
      <path
         inkscape:connector-curvature="0"
         id="path2588"
         d="M 13.269821,72.584322 H 24.461236 V 85.37451 H 13.269821 Z" />
    </clipPath>
    <clipPath
       id="clipEmfPath10-2"
       clipPathUnits="userSpaceOnUse">
      <path
         inkscape:connector-curvature="0"
         id="path2591"
         d="m 146.76742,73.383708 h 11.19141 v 12.790189 h -11.19141 z" />
    </clipPath>
    <clipPath
       id="clipEmfPath11-28"
       clipPathUnits="userSpaceOnUse">
      <path
         inkscape:connector-curvature="0"
         id="path2594"
         d="m 114.79194,102.48139 h 11.19142 v 12.95006 h -11.19142 z" />
    </clipPath>
    <clipPath
       id="clipEmfPath12-6"
       clipPathUnits="userSpaceOnUse">
      <path
         inkscape:connector-curvature="0"
         id="path2597"
         d="m 75.302237,138.93343 h 11.031538 v 12.79019 H 75.302237 Z" />
    </clipPath>
    <clipPath
       id="clipEmfPath13-9"
       clipPathUnits="userSpaceOnUse">
      <path
         inkscape:connector-curvature="0"
         id="path2600"
         d="m 250.20807,23.661849 h 11.03154 v 12.790189 h -11.03154 z" />
    </clipPath>
    <clipPath
       id="clipEmfPath14-7"
       clipPathUnits="userSpaceOnUse">
      <path
         inkscape:connector-curvature="0"
         id="path2603"
         d="m 177.9435,43.806397 h 11.19142 V 56.596586 H 177.9435 Z" />
    </clipPath>
    <clipPath
       id="clipEmfPath15-7"
       clipPathUnits="userSpaceOnUse">
      <path
         inkscape:connector-curvature="0"
         id="path2606"
         d="M 227.50548,57.395972 H 238.6969 V 70.186161 H 227.50548 Z" />
    </clipPath>
    <clipPath
       id="clipEmfPath16-3"
       clipPathUnits="userSpaceOnUse">
      <path
         inkscape:connector-curvature="0"
         id="path2609"
         d="m 180.02191,122.94569 h 11.03154 v 12.79019 h -11.03154 z" />
    </clipPath>
    <clipPath
       id="clipEmfPath17-5"
       clipPathUnits="userSpaceOnUse">
      <path
         inkscape:connector-curvature="0"
         id="path2612"
         d="m 245.89138,143.72975 h 11.19142 v 12.79019 h -11.19142 z" />
    </clipPath>
    <clipPath
       id="clipEmfPath18-8"
       clipPathUnits="userSpaceOnUse">
      <path
         inkscape:connector-curvature="0"
         id="path2615"
         d="m 226.7061,193.29173 h 11.19141 v 12.79019 H 226.7061 Z" />
    </clipPath>
    <clipPath
       id="clipEmfPath2-3"
       clipPathUnits="userSpaceOnUse">
      <path
         inkscape:connector-curvature="0"
         id="path3521"
         d="m 267.31495,56.596586 h 11.19141 v 12.790188 h -11.19141 z" />
    </clipPath>
    <clipPath
       id="clipEmfPath3-3"
       clipPathUnits="userSpaceOnUse">
      <path
         inkscape:connector-curvature="0"
         id="path3524"
         d="m 277.06747,35.492774 h 11.19141 V 48.44284 h -11.19141 z" />
    </clipPath>
    <clipPath
       id="clipEmfPath4-7"
       clipPathUnits="userSpaceOnUse">
      <path
         inkscape:connector-curvature="0"
         id="path3527"
         d="m 292.73545,17.426632 h 11.19141 v 12.790189 h -11.19141 z" />
    </clipPath>
    <clipPath
       id="clipEmfPath5-0"
       clipPathUnits="userSpaceOnUse">
      <path
         inkscape:connector-curvature="0"
         id="path3530"
         d="M 268.43409,84.735001 H 279.6255 V 97.685067 H 268.43409 Z" />
    </clipPath>
    <clipPath
       id="clipEmfPath6-5"
       clipPathUnits="userSpaceOnUse">
      <path
         inkscape:connector-curvature="0"
         id="path3533"
         d="m 393.13843,29.577312 h 11.19141 v 12.790189 h -11.19141 z" />
    </clipPath>
    <clipPath
       id="clipEmfPath7-9"
       clipPathUnits="userSpaceOnUse">
      <path
         inkscape:connector-curvature="0"
         id="path3536"
         d="m 324.07141,139.57294 h 11.19141 v 12.79018 h -11.19141 z" />
    </clipPath>
    <clipPath
       id="clipEmfPath8-1"
       clipPathUnits="userSpaceOnUse">
      <path
         inkscape:connector-curvature="0"
         id="path3539"
         d="m 279.6255,111.43452 h 11.19142 v 12.95007 H 279.6255 Z" />
    </clipPath>
    <clipPath
       id="clipEmfPath9-49"
       clipPathUnits="userSpaceOnUse">
      <path
         inkscape:connector-curvature="0"
         id="path3542"
         d="m 298.17128,128.86115 h 11.19141 v 12.79019 h -11.19141 z" />
    </clipPath>
    <clipPath
       id="clipEmfPath10-40"
       clipPathUnits="userSpaceOnUse">
      <path
         inkscape:connector-curvature="0"
         id="path3545"
         d="m 405.28911,51.800265 h 11.19141 v 12.950066 h -11.19141 z" />
    </clipPath>
    <clipPath
       id="clipEmfPath11-6"
       clipPathUnits="userSpaceOnUse">
      <path
         inkscape:connector-curvature="0"
         id="path3548"
         d="m 401.45205,100.40298 h 11.03154 v 12.79019 h -11.03154 z" />
    </clipPath>
    <clipPath
       id="clipEmfPath12-03"
       clipPathUnits="userSpaceOnUse">
      <path
         inkscape:connector-curvature="0"
         id="path3551"
         d="m 349.17216,139.89269 h 11.19141 v 12.79019 h -11.19141 z" />
    </clipPath>
    <clipPath
       id="clipEmfPath13-2"
       clipPathUnits="userSpaceOnUse">
      <path
         inkscape:connector-curvature="0"
         id="path3554"
         d="m 371.71486,132.85809 h 11.03154 v 12.79019 h -11.03154 z" />
    </clipPath>
    <clipPath
       id="clipEmfPath14-3"
       clipPathUnits="userSpaceOnUse">
      <path
         inkscape:connector-curvature="0"
         id="path3557"
         d="m 377.95008,15.667981 h 11.03154 V 28.45817 h -11.03154 z" />
    </clipPath>
    <clipPath
       id="clipEmfPath15-9"
       clipPathUnits="userSpaceOnUse">
      <path
         inkscape:connector-curvature="0"
         id="path3560"
         d="m 406.0885,77.220765 h 11.03153 V 90.010954 H 406.0885 Z" />
    </clipPath>
    <clipPath
       id="clipEmfPath16-0"
       clipPathUnits="userSpaceOnUse">
      <path
         inkscape:connector-curvature="0"
         id="path3563"
         d="m 358.44504,3.8370567 h 11.19142 V 16.787123 h -11.19142 z" />
    </clipPath>
    <clipPath
       id="clipEmfPath17-4"
       clipPathUnits="userSpaceOnUse">
      <path
         inkscape:connector-curvature="0"
         id="path3566"
         d="m 334.14368,1.1191415 h 11.03154 V 14.069208 h -11.03154 z" />
    </clipPath>
    <clipPath
       id="clipEmfPath18-9"
       clipPathUnits="userSpaceOnUse">
      <path
         inkscape:connector-curvature="0"
         id="path3569"
         d="M 310.96147,6.2352171 H 321.993 V 19.025406 h -11.03153 z" />
    </clipPath>
    <clipPath
       id="clipEmfPath19-4"
       clipPathUnits="userSpaceOnUse">
      <path
         inkscape:connector-curvature="0"
         id="path3572"
         d="m 388.98162,118.629 h 11.19141 v 12.95007 h -11.19141 z" />
    </clipPath>
    <clipPath
       id="clipEmfPath20-0"
       clipPathUnits="userSpaceOnUse">
      <path
         inkscape:connector-curvature="0"
         id="path3575"
         d="M 2.238283,56.596586 H 13.269821 V 69.546652 H 2.238283 Z" />
    </clipPath>
    <clipPath
       id="clipEmfPath21-5"
       clipPathUnits="userSpaceOnUse">
      <path
         inkscape:connector-curvature="0"
         id="path3578"
         d="M 30.536576,38.850199 H 41.727991 V 51.640387 H 30.536576 Z" />
    </clipPath>
    <clipPath
       id="clipEmfPath22-0"
       clipPathUnits="userSpaceOnUse">
      <path
         inkscape:connector-curvature="0"
         id="path3581"
         d="M 92.249237,19.664915 H 103.44065 V 32.455104 H 92.249237 Z" />
    </clipPath>
    <clipPath
       id="clipEmfPath23-0"
       clipPathUnits="userSpaceOnUse">
      <path
         inkscape:connector-curvature="0"
         id="path3584"
         d="M 30.216821,58.035482 H 41.408236 V 70.825671 H 30.216821 Z" />
    </clipPath>
    <clipPath
       id="clipEmfPath24-6"
       clipPathUnits="userSpaceOnUse">
      <path
         inkscape:connector-curvature="0"
         id="path3587"
         d="M 58.994746,38.850199 H 70.026284 V 51.640387 H 58.994746 Z" />
    </clipPath>
    <clipPath
       id="clipEmfPath25-1"
       clipPathUnits="userSpaceOnUse">
      <path
         inkscape:connector-curvature="0"
         id="path3590"
         d="M 93.208501,39.010076 H 104.24004 V 51.960142 H 93.208501 Z" />
    </clipPath>
    <clipPath
       id="clipEmfPath26-2"
       clipPathUnits="userSpaceOnUse">
      <path
         inkscape:connector-curvature="0"
         id="path3593"
         d="M 58.195359,58.035482 H 69.226897 V 70.825671 H 58.195359 Z" />
    </clipPath>
    <clipPath
       id="clipEmfPath27-7"
       clipPathUnits="userSpaceOnUse">
      <path
         inkscape:connector-curvature="0"
         id="path3596"
         d="M 58.515114,77.220765 H 69.706529 V 90.010954 H 58.515114 Z" />
    </clipPath>
    <clipPath
       id="clipEmfPath28-7"
       clipPathUnits="userSpaceOnUse">
      <path
         inkscape:connector-curvature="0"
         id="path3599"
         d="M 60.273765,96.406048 H 71.305303 V 109.19624 H 60.273765 Z" />
    </clipPath>
    <clipPath
       id="clipEmfPath29-4"
       clipPathUnits="userSpaceOnUse">
      <path
         inkscape:connector-curvature="0"
         id="path3602"
         d="M 93.688133,77.220765 H 104.87955 V 90.010954 H 93.688133 Z" />
    </clipPath>
    <clipPath
       id="clipEmfPath30-2"
       clipPathUnits="userSpaceOnUse">
      <path
         inkscape:connector-curvature="0"
         id="path3605"
         d="M 92.568992,96.406048 H 103.76041 V 109.35611 H 92.568992 Z" />
    </clipPath>
    <clipPath
       id="clipEmfPath31-8"
       clipPathUnits="userSpaceOnUse">
      <path
         inkscape:connector-curvature="0"
         id="path3608"
         d="M 93.048624,115.75121 H 104.24004 V 128.5414 H 93.048624 Z" />
    </clipPath>
    <clipPath
       id="clipEmfPath32-3"
       clipPathUnits="userSpaceOnUse">
      <path
         inkscape:connector-curvature="0"
         id="path3611"
         d="m 122.62594,38.850199 h 11.19141 v 12.950066 h -11.19141 z" />
    </clipPath>
    <clipPath
       id="clipEmfPath33-3"
       clipPathUnits="userSpaceOnUse">
      <path
         inkscape:connector-curvature="0"
         id="path3614"
         d="M 92.08936,58.035482 H 103.1209 V 70.825671 H 92.08936 Z" />
    </clipPath>
    <clipPath
       id="clipEmfPath34-1"
       clipPathUnits="userSpaceOnUse">
      <path
         inkscape:connector-curvature="0"
         id="path3617"
         d="m 123.42532,58.035482 h 11.03154 v 12.790189 h -11.03154 z" />
    </clipPath>
    <clipPath
       id="clipEmfPath35-9"
       clipPathUnits="userSpaceOnUse">
      <path
         inkscape:connector-curvature="0"
         id="path3620"
         d="m 123.90495,96.565926 h 11.19142 v 12.790184 h -11.19142 z" />
    </clipPath>
    <clipPath
       id="clipEmfPath36-8"
       clipPathUnits="userSpaceOnUse">
      <path
         inkscape:connector-curvature="0"
         id="path3623"
         d="m 151.56374,96.406048 h 11.03154 v 12.790192 h -11.03154 z" />
    </clipPath>
    <clipPath
       id="clipEmfPath37-1"
       clipPathUnits="userSpaceOnUse">
      <path
         inkscape:connector-curvature="0"
         id="path3626"
         d="m 151.88349,115.59133 h 11.19142 v 12.79019 h -11.19142 z" />
    </clipPath>
    <clipPath
       id="clipEmfPath1-4"
       clipPathUnits="userSpaceOnUse">
      <path
         inkscape:connector-curvature="0"
         id="path4908"
         d="M 96.086294,7.0346039 H 211.99738 V 28.937802 H 96.086294 Z" />
    </clipPath>
    <clipPath
       id="clipEmfPath2-4"
       clipPathUnits="userSpaceOnUse">
      <path
         inkscape:connector-curvature="0"
         id="path4911"
         d="M 35.173019,55.637321 H 151.08411 V 77.54052 H 35.173019 Z" />
    </clipPath>
    <clipPath
       id="clipEmfPath3-2"
       clipPathUnits="userSpaceOnUse">
      <path
         inkscape:connector-curvature="0"
         id="path4914"
         d="M 44.126151,102.96102 H 160.03724 v 21.9032 H 44.126151 Z" />
    </clipPath>
    <clipPath
       id="clipEmfPath4-4"
       clipPathUnits="userSpaceOnUse">
      <path
         inkscape:connector-curvature="0"
         id="path4917"
         d="M 227.02585,54.358303 H 342.93694 V 76.421378 H 227.02585 Z" />
    </clipPath>
    <clipPath
       id="clipEmfPath1-92"
       clipPathUnits="userSpaceOnUse">
      <path
         inkscape:connector-curvature="0"
         id="path5052"
         d="m 102.16163,30.376698 h 28.93781 v 19.984671 h -28.93781 z" />
    </clipPath>
    <clipPath
       id="clipEmfPath2-8"
       clipPathUnits="userSpaceOnUse">
      <path
         inkscape:connector-curvature="0"
         id="path5055"
         d="M 0.31975472,0 H 29.257557 V 19.98467 H 0.31975472 Z" />
    </clipPath>
    <clipPath
       id="clipEmfPath3-79"
       clipPathUnits="userSpaceOnUse">
      <path
         inkscape:connector-curvature="0"
         id="path5058"
         d="M 4.3166887,94.807275 H 33.254491 V 114.79194 H 4.3166887 Z" />
    </clipPath>
    <clipPath
       id="clipEmfPath4-181"
       clipPathUnits="userSpaceOnUse">
      <path
         inkscape:connector-curvature="0"
         id="path5061"
         d="M 7.1944812,48.44284 H 15.188349 V 68.42751 H 7.1944812 Z" />
    </clipPath>
    <clipPath
       id="clipEmfPath2-1"
       clipPathUnits="userSpaceOnUse">
      <path
         inkscape:connector-curvature="0"
         id="path5254"
         d="M 2.3981604,8.9531322 H 99.443718 V 28.298293 H 2.3981604 Z" />
    </clipPath>
    <clipPath
       id="clipEmfPath3-4"
       clipPathUnits="userSpaceOnUse">
      <path
         inkscape:connector-curvature="0"
         id="path5257"
         d="m 105.99869,8.9531322 h 96.88568 V 28.298293 h -96.88568 z" />
    </clipPath>
    <clipPath
       id="clipEmfPath4-6"
       clipPathUnits="userSpaceOnUse">
      <path
         inkscape:connector-curvature="0"
         id="path5260"
         d="m 207.68069,8.9531322 h 96.88568 V 28.298293 h -96.88568 z" />
    </clipPath>
    <clipPath
       id="clipEmfPath5-40"
       clipPathUnits="userSpaceOnUse">
      <path
         inkscape:connector-curvature="0"
         id="path5263"
         d="m 317.03681,8.9531322 h 96.88568 V 28.298293 h -96.88568 z" />
    </clipPath>
    <clipPath
       id="clipEmfPath6-26"
       clipPathUnits="userSpaceOnUse">
      <path
         inkscape:connector-curvature="0"
         id="path5266"
         d="m 428.31145,8.9531322 h 96.88568 V 28.298293 h -96.88568 z" />
    </clipPath>
    <clipPath
       id="clipEmfPath1-3"
       clipPathUnits="userSpaceOnUse">
      <path
         inkscape:connector-curvature="0"
         id="path5453"
         d="M 0.15987736,0 H 14.229085 V 19.98467 H 0.15987736 Z" />
    </clipPath>
    <clipPath
       id="clipEmfPath2-13"
       clipPathUnits="userSpaceOnUse">
      <path
         inkscape:connector-curvature="0"
         id="path5456"
         d="M 57.076218,0 H 71.145425 V 19.98467 H 57.076218 Z" />
    </clipPath>
    <clipPath
       id="clipEmfPath3-46"
       clipPathUnits="userSpaceOnUse">
      <path
         inkscape:connector-curvature="0"
         id="path5459"
         d="m 116.07096,0.95926416 h 14.06921 V 20.943934 h -14.06921 z" />
    </clipPath>
    <clipPath
       id="clipEmfPath4-72"
       clipPathUnits="userSpaceOnUse">
      <path
         inkscape:connector-curvature="0"
         id="path5462"
         d="m 174.10645,0.95926416 h 13.90933 V 20.943934 h -13.90933 z" />
    </clipPath>
    <clipPath
       id="clipEmfPath5-9"
       clipPathUnits="userSpaceOnUse">
      <path
         inkscape:connector-curvature="0"
         id="path5465"
         d="M 0.15987736,31.335963 H 14.229085 v 19.98467 H 0.15987736 Z" />
    </clipPath>
    <clipPath
       id="clipEmfPath6-58"
       clipPathUnits="userSpaceOnUse">
      <path
         inkscape:connector-curvature="0"
         id="path5468"
         d="M 56.116954,30.376698 H 70.186161 V 50.361369 H 56.116954 Z" />
    </clipPath>
    <clipPath
       id="clipEmfPath7-5"
       clipPathUnits="userSpaceOnUse">
      <path
         inkscape:connector-curvature="0"
         id="path5471"
         d="m 115.1117,31.335963 h 13.90933 v 19.98467 H 115.1117 Z" />
    </clipPath>
    <clipPath
       id="clipEmfPath8-2"
       clipPathUnits="userSpaceOnUse">
      <path
         inkscape:connector-curvature="0"
         id="path5474"
         d="m 172.02804,31.335963 h 14.06921 v 19.98467 h -14.06921 z" />
    </clipPath>
    <clipPath
       id="clipEmfPath9-1"
       clipPathUnits="userSpaceOnUse">
      <path
         inkscape:connector-curvature="0"
         id="path5477"
         d="m 2.238283,60.913274 h 13.90933 v 19.98467 H 2.238283 Z" />
    </clipPath>
    <clipPath
       id="clipEmfPath10-9"
       clipPathUnits="userSpaceOnUse">
      <path
         inkscape:connector-curvature="0"
         id="path5480"
         d="m 56.116954,59.314501 h 14.069207 v 19.98467 H 56.116954 Z" />
    </clipPath>
    <clipPath
       id="clipEmfPath11-0"
       clipPathUnits="userSpaceOnUse">
      <path
         inkscape:connector-curvature="0"
         id="path5483"
         d="m 115.1117,60.273765 h 13.90933 v 19.98467 H 115.1117 Z" />
    </clipPath>
    <clipPath
       id="clipEmfPath12-00"
       clipPathUnits="userSpaceOnUse">
      <path
         inkscape:connector-curvature="0"
         id="path5486"
         d="m 168.03111,61.392906 h 14.0692 v 19.98467 h -14.0692 z" />
    </clipPath>
    <clipPath
       id="clipEmfPath2-1-2"
       clipPathUnits="userSpaceOnUse">
      <path
         inkscape:connector-curvature="0"
         id="path5254-0"
         d="M 2.3981604,8.9531322 H 99.443718 V 28.298293 H 2.3981604 Z" />
    </clipPath>
    <clipPath
       id="clipEmfPath3-4-6"
       clipPathUnits="userSpaceOnUse">
      <path
         inkscape:connector-curvature="0"
         id="path5257-6"
         d="m 105.99869,8.9531322 h 96.88568 V 28.298293 h -96.88568 z" />
    </clipPath>
    <clipPath
       id="clipEmfPath4-6-3"
       clipPathUnits="userSpaceOnUse">
      <path
         inkscape:connector-curvature="0"
         id="path5260-8"
         d="m 207.68069,8.9531322 h 96.88568 V 28.298293 h -96.88568 z" />
    </clipPath>
    <clipPath
       id="clipEmfPath5-40-1"
       clipPathUnits="userSpaceOnUse">
      <path
         inkscape:connector-curvature="0"
         id="path5263-7"
         d="m 317.03681,8.9531322 h 96.88568 V 28.298293 h -96.88568 z" />
    </clipPath>
    <clipPath
       id="clipEmfPath6-26-3"
       clipPathUnits="userSpaceOnUse">
      <path
         inkscape:connector-curvature="0"
         id="path5266-0"
         d="m 428.31145,8.9531322 h 96.88568 V 28.298293 h -96.88568 z" />
    </clipPath>
    <clipPath
       id="clipEmfPath1-6"
       clipPathUnits="userSpaceOnUse">
      <path
         inkscape:connector-curvature="0"
         id="path6079"
         d="M 2.0784057,0 H 16.147613 V 19.98467 H 2.0784057 Z" />
    </clipPath>
    <clipPath
       id="clipEmfPath2-6"
       clipPathUnits="userSpaceOnUse">
      <path
         inkscape:connector-curvature="0"
         id="path6082"
         d="M 59.154623,0 H 73.063954 V 19.98467 H 59.154623 Z" />
    </clipPath>
    <clipPath
       id="clipEmfPath3-5"
       clipPathUnits="userSpaceOnUse">
      <path
         inkscape:connector-curvature="0"
         id="path6085"
         d="M 117.98949,0.95926416 H 132.0587 V 20.943934 h -14.06921 z" />
    </clipPath>
    <clipPath
       id="clipEmfPath4-02"
       clipPathUnits="userSpaceOnUse">
      <path
         inkscape:connector-curvature="0"
         id="path6088"
         d="M 176.02497,0.95926416 H 189.9343 V 20.943934 h -13.90933 z" />
    </clipPath>
    <clipPath
       id="clipEmfPath5-93"
       clipPathUnits="userSpaceOnUse">
      <path
         inkscape:connector-curvature="0"
         id="path6091"
         d="M 0.15987736,30.696453 H 14.069208 v 19.98467 H 0.15987736 Z" />
    </clipPath>
    <clipPath
       id="clipEmfPath6-02"
       clipPathUnits="userSpaceOnUse">
      <path
         inkscape:connector-curvature="0"
         id="path6094"
         d="M 58.035482,30.376698 H 72.10469 V 50.361369 H 58.035482 Z" />
    </clipPath>
    <clipPath
       id="clipEmfPath7-6"
       clipPathUnits="userSpaceOnUse">
      <path
         inkscape:connector-curvature="0"
         id="path6097"
         d="m 117.03023,31.335963 h 14.06921 v 19.98467 h -14.06921 z" />
    </clipPath>
    <clipPath
       id="clipEmfPath8-58"
       clipPathUnits="userSpaceOnUse">
      <path
         inkscape:connector-curvature="0"
         id="path6100"
         d="m 173.94657,31.335963 h 14.06921 v 19.98467 h -14.06921 z" />
    </clipPath>
    <clipPath
       id="clipEmfPath9-02"
       clipPathUnits="userSpaceOnUse">
      <path
         inkscape:connector-curvature="0"
         id="path6103"
         d="M 3.1975472,60.913274 H 17.106878 v 19.98467 H 3.1975472 Z" />
    </clipPath>
    <clipPath
       id="clipEmfPath10-8"
       clipPathUnits="userSpaceOnUse">
      <path
         inkscape:connector-curvature="0"
         id="path6106"
         d="M 58.035482,59.314501 H 72.10469 v 19.98467 H 58.035482 Z" />
    </clipPath>
    <clipPath
       id="clipEmfPath11-07"
       clipPathUnits="userSpaceOnUse">
      <path
         inkscape:connector-curvature="0"
         id="path6109"
         d="m 113.99256,60.913274 h 14.06921 v 19.98467 h -14.06921 z" />
    </clipPath>
    <clipPath
       id="clipEmfPath12-7"
       clipPathUnits="userSpaceOnUse">
      <path
         inkscape:connector-curvature="0"
         id="path6112"
         d="m 169.94963,61.392906 h 14.06921 v 19.98467 h -14.06921 z" />
    </clipPath>
  </defs>
  <sodipodi:namedview
     id="base"
     pagecolor="#ffffff"
     bordercolor="#666666"
     borderopacity="1.0"
     inkscape:pageopacity="0.0"
     inkscape:pageshadow="2"
     inkscape:zoom="0.35"
     inkscape:cx="-94.56391"
     inkscape:cy="-82.098643"
     inkscape:document-units="mm"
     inkscape:current-layer="layer1"
     showgrid="false"
     fit-margin-top="0"
     fit-margin-left="0"
     fit-margin-right="0"
     fit-margin-bottom="0"
     inkscape:window-width="1680"
     inkscape:window-height="1028"
     inkscape:window-x="1672"
     inkscape:window-y="-8"
     inkscape:window-maximized="1" />
  <metadata
     id="metadata9232">
    <rdf:RDF>
      <cc:Work
         rdf:about="">
        <dc:format>image/svg+xml</dc:format>
        <dc:type
           rdf:resource="http://purl.org/dc/dcmitype/StillImage" />
        <dc:title></dc:title>
      </cc:Work>
    </rdf:RDF>
  </metadata>
  <g
     inkscape:label="Layer 1"
     inkscape:groupmode="layer"
     id="layer1"
     transform="translate(-614.83351,-497.155)">
    <g
       id="g6729"
       transform="translate(1219.1057,267.74798)">
      <text
         xml:space="preserve"
         style="font-style:normal;font-variant:normal;font-weight:400;font-size:3.88606763px;line-height:125%;font-family:Calibri;text-align:start;letter-spacing:0px;word-spacing:0px;text-anchor:start;fill:#000000;fill-opacity:1;stroke:none;stroke-width:0.26458332"
         x="-604.48895"
         y="232.96823"
         id="text6574"><tspan
           style="stroke-width:0.26458332"
           sodipodi:role="line"
           x="0"
           y="0"
           id="tspan6572"><tspan
             dx="0"
             dy="0"
             style="font-style:normal;font-variant:normal;font-weight:400;font-size:3.88606763px;font-family:Calibri;fill:#000000;stroke-width:0.26458332"
             id="tspan6570" /></tspan></text>
      <path
         inkscape:connector-curvature="0"
         style="fill:none;stroke:#000000;stroke-width:0.26438051px;stroke-linecap:butt;stroke-linejoin:round;stroke-miterlimit:4;stroke-dasharray:none;stroke-opacity:1"
         d="m -603.13535,230.64962 h 15.06969"
         id="path6576" />
      <path
         inkscape:connector-curvature="0"
         style="fill:none;stroke:#000000;stroke-width:0.26438051px;stroke-linecap:butt;stroke-linejoin:round;stroke-miterlimit:4;stroke-dasharray:none;stroke-opacity:1"
         d="m -603.13535,230.64962 v 7.93141"
         id="path6578" />
      <path
         inkscape:connector-curvature="0"
         style="fill:#ffffff;fill-opacity:1;fill-rule:evenodd;stroke:none;stroke-width:0.26458332"
         d="m -602.8789,229.53922 c -0.69532,0 -1.2611,0.56577 -1.2611,1.26109 0,0.69532 0.56578,1.25845 1.2611,1.25845 0.69532,0 1.26109,-0.56313 1.26109,-1.25845 0,-0.69532 -0.56577,-1.26109 -1.26109,-1.26109 z"
         id="path6580" />
      <path
         inkscape:connector-curvature="0"
         style="fill:none;stroke:#000000;stroke-width:0.26438051px;stroke-linecap:round;stroke-linejoin:round;stroke-miterlimit:4;stroke-dasharray:none;stroke-opacity:1"
         d="m -602.8789,229.53922 c -0.69532,0 -1.2611,0.56577 -1.2611,1.26109 0,0.69532 0.56578,1.25845 1.2611,1.25845 0.69532,0 1.26109,-0.56313 1.26109,-1.25845 0,-0.69532 -0.56577,-1.26109 -1.26109,-1.26109"
         id="path6582" />
      <path
         inkscape:connector-curvature="0"
         style="fill:#ffffff;fill-opacity:1;fill-rule:evenodd;stroke:none;stroke-width:0.26458332"
         d="m -588.07359,229.53922 c -0.69533,0 -1.2611,0.56577 -1.2611,1.26109 0,0.69532 0.56577,1.25845 1.2611,1.25845 0.69532,0 1.26109,-0.56313 1.26109,-1.25845 0,-0.69532 -0.56577,-1.26109 -1.26109,-1.26109 z"
         id="path6584" />
      <path
         inkscape:connector-curvature="0"
         style="fill:none;stroke:#000000;stroke-width:0.26438051px;stroke-linecap:round;stroke-linejoin:round;stroke-miterlimit:4;stroke-dasharray:none;stroke-opacity:1"
         d="m -588.07359,229.53922 c -0.69533,0 -1.2611,0.56577 -1.2611,1.26109 0,0.69532 0.56577,1.25845 1.2611,1.25845 0.69532,0 1.26109,-0.56313 1.26109,-1.25845 0,-0.69532 -0.56577,-1.26109 -1.26109,-1.26109"
         id="path6586" />
      <path
         inkscape:connector-curvature="0"
         style="fill:none;stroke:#000000;stroke-width:0.26438051px;stroke-linecap:butt;stroke-linejoin:round;stroke-miterlimit:4;stroke-dasharray:none;stroke-opacity:1"
         d="m -587.80128,238.31665 h 15.06969"
         id="path6588" />
      <path
         inkscape:connector-curvature="0"
         style="fill:none;stroke:#000000;stroke-width:0.26438051px;stroke-linecap:butt;stroke-linejoin:round;stroke-miterlimit:4;stroke-dasharray:none;stroke-opacity:1"
         d="m -603.13535,238.31665 v 7.93142"
         id="path6590" />
      <path
         inkscape:connector-curvature="0"
         style="fill:#ffffff;fill-opacity:1;fill-rule:evenodd;stroke:none;stroke-width:0.26458332"
         d="m -602.8789,237.20625 c -0.69532,0 -1.2611,0.56578 -1.2611,1.2611 0,0.69532 0.56578,1.25845 1.2611,1.25845 0.69532,0 1.26109,-0.56313 1.26109,-1.25845 0,-0.69532 -0.56577,-1.2611 -1.26109,-1.2611 z"
         id="path6592" />
      <path
         inkscape:connector-curvature="0"
         style="fill:none;stroke:#000000;stroke-width:0.26438051px;stroke-linecap:round;stroke-linejoin:round;stroke-miterlimit:4;stroke-dasharray:none;stroke-opacity:1"
         d="m -602.8789,237.20625 c -0.69532,0 -1.2611,0.56578 -1.2611,1.2611 0,0.69532 0.56578,1.25845 1.2611,1.25845 0.69532,0 1.26109,-0.56313 1.26109,-1.25845 0,-0.69532 -0.56577,-1.2611 -1.26109,-1.2611"
         id="path6594" />
      <path
         inkscape:connector-curvature="0"
         style="fill:#ffffff;fill-opacity:1;fill-rule:evenodd;stroke:none;stroke-width:0.26458332"
         d="m -588.07359,237.20625 c -0.69533,0 -1.2611,0.56578 -1.2611,1.2611 0,0.69532 0.56577,1.25845 1.2611,1.25845 0.69532,0 1.26109,-0.56313 1.26109,-1.25845 0,-0.69532 -0.56577,-1.2611 -1.26109,-1.2611 z"
         id="path6596" />
      <path
         inkscape:connector-curvature="0"
         style="fill:none;stroke:#000000;stroke-width:0.26438051px;stroke-linecap:round;stroke-linejoin:round;stroke-miterlimit:4;stroke-dasharray:none;stroke-opacity:1"
         d="m -588.07359,237.20625 c -0.69533,0 -1.2611,0.56578 -1.2611,1.2611 0,0.69532 0.56577,1.25845 1.2611,1.25845 0.69532,0 1.26109,-0.56313 1.26109,-1.25845 0,-0.69532 -0.56577,-1.2611 -1.26109,-1.2611"
         id="path6598" />
      <path
         inkscape:connector-curvature="0"
         style="fill:none;stroke:#000000;stroke-width:0.26438051px;stroke-linecap:butt;stroke-linejoin:round;stroke-miterlimit:4;stroke-dasharray:none;stroke-opacity:1"
         d="m -603.13535,245.98369 h 15.06969"
         id="path6600" />
      <path
         inkscape:connector-curvature="0"
         style="fill:none;stroke:#000000;stroke-width:0.26438051px;stroke-linecap:butt;stroke-linejoin:round;stroke-miterlimit:4;stroke-dasharray:none;stroke-opacity:1"
         d="m -587.80128,245.98369 h 15.06969"
         id="path6602" />
      <path
         inkscape:connector-curvature="0"
         style="fill:#ffffff;fill-opacity:1;fill-rule:evenodd;stroke:none;stroke-width:0.26458332"
         d="m -602.8789,244.87329 c -0.69532,0 -1.2611,0.56577 -1.2611,1.26109 0,0.69532 0.56578,1.25845 1.2611,1.25845 0.69532,0 1.26109,-0.56313 1.26109,-1.25845 0,-0.69532 -0.56577,-1.26109 -1.26109,-1.26109 z"
         id="path6604" />
      <path
         inkscape:connector-curvature="0"
         style="fill:none;stroke:#000000;stroke-width:0.26438051px;stroke-linecap:round;stroke-linejoin:round;stroke-miterlimit:4;stroke-dasharray:none;stroke-opacity:1"
         d="m -602.8789,244.87329 c -0.69532,0 -1.2611,0.56577 -1.2611,1.26109 0,0.69532 0.56578,1.25845 1.2611,1.25845 0.69532,0 1.26109,-0.56313 1.26109,-1.25845 0,-0.69532 -0.56577,-1.26109 -1.26109,-1.26109"
         id="path6606" />
      <path
         inkscape:connector-curvature="0"
         style="fill:#ffffff;fill-opacity:1;fill-rule:evenodd;stroke:none;stroke-width:0.26458332"
         d="m -588.07359,244.87329 c -0.69533,0 -1.2611,0.56577 -1.2611,1.26109 0,0.69532 0.56577,1.25845 1.2611,1.25845 0.69532,0 1.26109,-0.56313 1.26109,-1.25845 0,-0.69532 -0.56577,-1.26109 -1.26109,-1.26109 z"
         id="path6608" />
      <path
         inkscape:connector-curvature="0"
         style="fill:none;stroke:#000000;stroke-width:0.26438051px;stroke-linecap:round;stroke-linejoin:round;stroke-miterlimit:4;stroke-dasharray:none;stroke-opacity:1"
         d="m -588.07359,244.87329 c -0.69533,0 -1.2611,0.56577 -1.2611,1.26109 0,0.69532 0.56577,1.25845 1.2611,1.25845 0.69532,0 1.26109,-0.56313 1.26109,-1.25845 0,-0.69532 -0.56577,-1.26109 -1.26109,-1.26109"
         id="path6610" />
      <path
         inkscape:connector-curvature="0"
         style="fill:none;stroke:#000000;stroke-width:0.26438051px;stroke-linecap:butt;stroke-linejoin:round;stroke-miterlimit:4;stroke-dasharray:none;stroke-opacity:1"
         d="m -572.73159,230.64962 h 15.06969"
         id="path6612" />
      <path
         inkscape:connector-curvature="0"
         style="fill:none;stroke:#000000;stroke-width:0.26438051px;stroke-linecap:butt;stroke-linejoin:round;stroke-miterlimit:4;stroke-dasharray:none;stroke-opacity:1"
         d="m -557.92628,230.64962 v 7.93141"
         id="path6614" />
      <path
         inkscape:connector-curvature="0"
         style="fill:#ffffff;fill-opacity:1;fill-rule:evenodd;stroke:none;stroke-width:0.26458332"
         d="m -557.66983,229.53922 c -0.69532,0 -1.2611,0.56577 -1.2611,1.26109 0,0.69532 0.56578,1.25845 1.2611,1.25845 0.69532,0 1.26109,-0.56313 1.26109,-1.25845 0,-0.69532 -0.56577,-1.26109 -1.26109,-1.26109 z"
         id="path6616" />
      <path
         inkscape:connector-curvature="0"
         style="fill:none;stroke:#000000;stroke-width:0.26438051px;stroke-linecap:round;stroke-linejoin:round;stroke-miterlimit:4;stroke-dasharray:none;stroke-opacity:1"
         d="m -557.66983,229.53922 c -0.69532,0 -1.2611,0.56577 -1.2611,1.26109 0,0.69532 0.56578,1.25845 1.2611,1.25845 0.69532,0 1.26109,-0.56313 1.26109,-1.25845 0,-0.69532 -0.56577,-1.26109 -1.26109,-1.26109"
         id="path6618" />
      <path
         inkscape:connector-curvature="0"
         style="fill:none;stroke:#000000;stroke-width:0.26438051px;stroke-linecap:butt;stroke-linejoin:round;stroke-miterlimit:4;stroke-dasharray:none;stroke-opacity:1"
         d="m -572.73159,238.31665 h 15.06969"
         id="path6620" />
      <path
         inkscape:connector-curvature="0"
         style="fill:none;stroke:#000000;stroke-width:0.26438051px;stroke-linecap:butt;stroke-linejoin:round;stroke-miterlimit:4;stroke-dasharray:none;stroke-opacity:1"
         d="m -557.92628,238.31665 v 7.93142"
         id="path6622" />
      <path
         inkscape:connector-curvature="0"
         style="fill:#ffffff;fill-opacity:1;fill-rule:evenodd;stroke:none;stroke-width:0.26458332"
         d="m -557.66983,237.20625 c -0.69532,0 -1.2611,0.56578 -1.2611,1.2611 0,0.69532 0.56578,1.25845 1.2611,1.25845 0.69532,0 1.26109,-0.56313 1.26109,-1.25845 0,-0.69532 -0.56577,-1.2611 -1.26109,-1.2611 z"
         id="path6624" />
      <path
         inkscape:connector-curvature="0"
         style="fill:none;stroke:#000000;stroke-width:0.26438051px;stroke-linecap:round;stroke-linejoin:round;stroke-miterlimit:4;stroke-dasharray:none;stroke-opacity:1"
         d="m -557.66983,237.20625 c -0.69532,0 -1.2611,0.56578 -1.2611,1.2611 0,0.69532 0.56578,1.25845 1.2611,1.25845 0.69532,0 1.26109,-0.56313 1.26109,-1.25845 0,-0.69532 -0.56577,-1.2611 -1.26109,-1.2611"
         id="path6626" />
      <path
         inkscape:connector-curvature="0"
         style="fill:#ffffff;fill-opacity:1;fill-rule:evenodd;stroke:none;stroke-width:0.26458332"
         d="m -557.66983,244.87329 c -0.69532,0 -1.2611,0.56577 -1.2611,1.26109 0,0.69532 0.56578,1.25845 1.2611,1.25845 0.69532,0 1.26109,-0.56313 1.26109,-1.25845 0,-0.69532 -0.56577,-1.26109 -1.26109,-1.26109 z"
         id="path6628" />
      <path
         inkscape:connector-curvature="0"
         style="fill:none;stroke:#000000;stroke-width:0.26438051px;stroke-linecap:round;stroke-linejoin:round;stroke-miterlimit:4;stroke-dasharray:none;stroke-opacity:1"
         d="m -557.66983,244.87329 c -0.69532,0 -1.2611,0.56577 -1.2611,1.26109 0,0.69532 0.56578,1.25845 1.2611,1.25845 0.69532,0 1.26109,-0.56313 1.26109,-1.25845 0,-0.69532 -0.56577,-1.26109 -1.26109,-1.26109"
         id="path6630" />
      <path
         inkscape:connector-curvature="0"
         style="fill:none;stroke:#000000;stroke-width:0.26438051px;stroke-linecap:butt;stroke-linejoin:round;stroke-miterlimit:4;stroke-dasharray:none;stroke-opacity:1"
         d="m -572.99597,230.64962 v 7.93141"
         id="path6632" />
      <path
         inkscape:connector-curvature="0"
         style="fill:#ffffff;fill-opacity:1;fill-rule:evenodd;stroke:none;stroke-width:0.26458332"
         d="m -572.73952,229.53922 c -0.69532,0 -1.2611,0.56577 -1.2611,1.26109 0,0.69532 0.56578,1.25845 1.2611,1.25845 0.69532,0 1.26109,-0.56313 1.26109,-1.25845 0,-0.69532 -0.56577,-1.26109 -1.26109,-1.26109 z"
         id="path6634" />
      <path
         inkscape:connector-curvature="0"
         style="fill:none;stroke:#000000;stroke-width:0.26438051px;stroke-linecap:round;stroke-linejoin:round;stroke-miterlimit:4;stroke-dasharray:none;stroke-opacity:1"
         d="m -572.73952,229.53922 c -0.69532,0 -1.2611,0.56577 -1.2611,1.26109 0,0.69532 0.56578,1.25845 1.2611,1.25845 0.69532,0 1.26109,-0.56313 1.26109,-1.25845 0,-0.69532 -0.56577,-1.26109 -1.26109,-1.26109"
         id="path6636" />
      <path
         inkscape:connector-curvature="0"
         style="fill:#ffffff;fill-opacity:1;fill-rule:evenodd;stroke:none;stroke-width:0.26458332"
         d="m -572.73952,237.20625 c -0.69532,0 -1.2611,0.56578 -1.2611,1.2611 0,0.69532 0.56578,1.25845 1.2611,1.25845 0.69532,0 1.26109,-0.56313 1.26109,-1.25845 0,-0.69532 -0.56577,-1.2611 -1.26109,-1.2611 z"
         id="path6638" />
      <path
         inkscape:connector-curvature="0"
         style="fill:none;stroke:#000000;stroke-width:0.26438051px;stroke-linecap:round;stroke-linejoin:round;stroke-miterlimit:4;stroke-dasharray:none;stroke-opacity:1"
         d="m -572.73952,237.20625 c -0.69532,0 -1.2611,0.56578 -1.2611,1.2611 0,0.69532 0.56578,1.25845 1.2611,1.25845 0.69532,0 1.26109,-0.56313 1.26109,-1.25845 0,-0.69532 -0.56577,-1.2611 -1.26109,-1.2611"
         id="path6640" />
      <path
         inkscape:connector-curvature="0"
         style="fill:#ffffff;fill-opacity:1;fill-rule:evenodd;stroke:none;stroke-width:0.26458332"
         d="m -572.73952,244.87329 c -0.69532,0 -1.2611,0.56577 -1.2611,1.26109 0,0.69532 0.56578,1.25845 1.2611,1.25845 0.69532,0 1.26109,-0.56313 1.26109,-1.25845 0,-0.69532 -0.56577,-1.26109 -1.26109,-1.26109 z"
         id="path6642" />
      <path
         inkscape:connector-curvature="0"
         style="fill:none;stroke:#000000;stroke-width:0.26438051px;stroke-linecap:round;stroke-linejoin:round;stroke-miterlimit:4;stroke-dasharray:none;stroke-opacity:1"
         d="m -572.73952,244.87329 c -0.69532,0 -1.2611,0.56577 -1.2611,1.26109 0,0.69532 0.56578,1.25845 1.2611,1.25845 0.69532,0 1.26109,-0.56313 1.26109,-1.25845 0,-0.69532 -0.56577,-1.26109 -1.26109,-1.26109"
         id="path6644" />
    </g>
  </g>
</svg>
