<?xml version="1.0" encoding="UTF-8"?>
<!-- Created with Inkscape (http://www.inkscape.org/) -->
<svg width="81.836mm" height="38.078mm" version="1.1" viewBox="0 0 81.83635 38.078394" xmlns="http://www.w3.org/2000/svg" xmlns:cc="http://creativecommons.org/ns#" xmlns:dc="http://purl.org/dc/elements/1.1/" xmlns:rdf="http://www.w3.org/1999/02/22-rdf-syntax-ns#">
 <defs>
  <clipPath id="clipEmfPath1-51">
   <path d="m185.14 72.424h44.926v16.467h-44.926z"/>
  </clipPath>
  <clipPath id="clipEmfPath2-87">
   <path d="m110.16 54.518h44.926v16.307h-44.926z"/>
  </clipPath>
  <clipPath id="clipEmfPath3-58">
   <path d="m123.11 93.528h44.926v16.307h-44.926z"/>
  </clipPath>
  <clipPath id="clipEmfPath4-44">
   <path d="m190.09 112.39h44.926v16.467h-44.926z"/>
  </clipPath>
  <clipPath id="clipEmfPath5-96">
   <path d="m98.165 128.38h44.926v16.467h-44.926z"/>
  </clipPath>
  <clipPath id="clipEmfPath6-45">
   <path d="m17.267 112.39h44.926v16.467h-44.926z"/>
  </clipPath>
  <clipPath id="clipEmfPath7-58">
   <path d="m24.141 55.477h45.085v16.467h-45.085z"/>
  </clipPath>
  <clipPath id="clipEmfPath8-26">
   <path d="m86.174 26.54h44.926v16.307h-44.926z"/>
  </clipPath>
  <clipPath id="clipEmfPath9-6">
   <path d="m200.01 38.53h45.085v16.307h-45.085z"/>
  </clipPath>
  <clipPath id="clipEmfPath10-5">
   <path d="m0.15988 64.431h45.085v16.467h-45.085z"/>
  </clipPath>
  <clipPath id="clipEmfPath11-75">
   <path d="m66.189 33.574h27.019v16.307h-27.019z"/>
  </clipPath>
  <clipPath id="clipEmfPath12-1">
   <path d="m127.1 4.7963h44.926v16.307h-44.926z"/>
  </clipPath>
  <clipPath id="clipEmfPath13-56">
   <path d="m138.13 58.515h44.926v16.307h-44.926z"/>
  </clipPath>
  <clipPath id="clipEmfPath14-9">
   <path d="m62.192 139.41h44.926v16.467h-44.926z"/>
  </clipPath>
  <clipPath id="clipEmfPath15-93">
   <path d="m141.17 125.5h44.926v16.307h-44.926z"/>
  </clipPath>
  <clipPath id="clipEmfPath16-6">
   <path d="m298.97 79.459h44.926v16.467h-44.926z"/>
  </clipPath>
 </defs>
 <metadata>
  <rdf:RDF>
   <cc:Work rdf:about="">
    <dc:format>image/svg+xml</dc:format>
    <dc:type rdf:resource="http://purl.org/dc/dcmitype/StillImage"/>
    <dc:title/>
   </cc:Work>
  </rdf:RDF>
 </metadata>
 <g transform="translate(-1045.1 -686.71)">
  <g transform="translate(1678.7 470.1)">
   <text x="-636.1181" y="217.80472" fill="#000000" font-family="Calibri" font-size="3.8861px" font-weight="400" letter-spacing="0px" stroke-width=".26458" word-spacing="0px" style="line-height:125%" xml:space="preserve"><tspan x="0" y="0" stroke-width=".26458"><tspan dx="0" dy="0" fill="#000000" font-family="Calibri" font-size="3.8861px" font-weight="400" stroke-width=".26458"/></tspan></text>
   <g fill="none" stroke="#000" stroke-linejoin="round" stroke-width=".26438px">
    <path d="m-631.86 237.08 16.92-7.4026"/>
    <path d="m-615.2 229.41 17.978-8.1958"/>
    <path d="m-597.49 221.22 44.416 20.093"/>
    <path d="m-614.94 229.15 18.771 7.1383"/>
    <path d="m-596.16 236.28 43.094 5.2876"/>
    <path d="m-632.39 236.81 16.656 12.426"/>
    <path d="m-615.73 248.98 20.093-3.7013"/>
    <path d="m-596.16 244.75v-8.1958"/>
   </g>
   <g transform="matrix(.26458 0 0 .26458 -636.12 214.17)" clip-path="url(#clipEmfPath1-51)">
    <text transform="translate(194.73 86.174)" fill="#000000" font-family="Calibri" font-size="14.688px" font-weight="400" letter-spacing="0px" word-spacing="0px" style="line-height:125%" xml:space="preserve"><tspan x="0" y="0" fill="#000000" font-family="Calibri" font-size="14.688px" font-weight="400"><tspan dx="0" dy="0">96</tspan><tspan dx="0" dy="0"/></tspan></text>
   </g>
   <g transform="matrix(.26458 0 0 .26458 -636.12 214.17)" clip-path="url(#clipEmfPath2-87)">
    <text transform="translate(119.75 68.268)" fill="#000000" font-family="Calibri" font-size="14.688px" font-weight="400" letter-spacing="0px" word-spacing="0px" style="line-height:125%" xml:space="preserve"><tspan x="0" y="0" fill="#000000" font-family="Calibri" font-size="14.688px" font-weight="400"><tspan dx="0" dy="0">79</tspan><tspan dx="0" dy="0"/></tspan></text>
   </g>
   <g transform="matrix(.26458 0 0 .26458 -636.12 214.17)" clip-path="url(#clipEmfPath3-58)">
    <text transform="translate(132.7 107.28)" fill="#000000" font-family="Calibri" font-size="14.688px" font-weight="400" letter-spacing="0px" word-spacing="0px" style="line-height:125%" xml:space="preserve"><tspan x="0" y="0" fill="#000000" font-family="Calibri" font-size="14.688px" font-weight="400"><tspan dx="0" dy="0">27</tspan><tspan dx="0" dy="0"/></tspan></text>
   </g>
   <g transform="matrix(.26458 0 0 .26458 -636.12 214.17)" clip-path="url(#clipEmfPath4-44)">
    <text transform="translate(199.69 126.14)" fill="#000000" font-family="Calibri" font-size="14.688px" font-weight="400" letter-spacing="0px" word-spacing="0px" style="line-height:125%" xml:space="preserve"><tspan x="0" y="0" fill="#000000" font-family="Calibri" font-size="14.688px" font-weight="400"><tspan dx="0" dy="0">76</tspan><tspan dx="0" dy="0"/></tspan></text>
   </g>
   <g transform="matrix(.26458 0 0 .26458 -636.12 214.17)" clip-path="url(#clipEmfPath5-96)">
    <text transform="translate(107.76 142.13)" fill="#000000" font-family="Calibri" font-size="14.688px" font-weight="400" letter-spacing="0px" word-spacing="0px" style="line-height:125%" xml:space="preserve"><tspan x="0" y="0" fill="#000000" font-family="Calibri" font-size="14.688px" font-weight="400"><tspan dx="0" dy="0">96</tspan><tspan dx="0" dy="0"/></tspan></text>
   </g>
   <g transform="matrix(.26458 0 0 .26458 -636.12 214.17)" clip-path="url(#clipEmfPath6-45)">
    <text transform="translate(26.859 126.14)" fill="#000000" font-family="Calibri" font-size="14.688px" font-weight="400" letter-spacing="0px" word-spacing="0px" style="line-height:125%" xml:space="preserve"><tspan x="0" y="0" fill="#000000" font-family="Calibri" font-size="14.688px" font-weight="400"><tspan dx="0" dy="0">57</tspan><tspan dx="0" dy="0"/></tspan></text>
   </g>
   <g transform="matrix(.26458 0 0 .26458 -636.12 214.17)" clip-path="url(#clipEmfPath7-58)">
    <text transform="translate(33.734 69.227)" fill="#000000" font-family="Calibri" font-size="14.688px" font-weight="400" letter-spacing="0px" word-spacing="0px" style="line-height:125%" xml:space="preserve"><tspan x="0" y="0" fill="#000000" font-family="Calibri" font-size="14.688px" font-weight="400"><tspan dx="0" dy="0">20</tspan><tspan dx="0" dy="0"/></tspan></text>
   </g>
   <g transform="matrix(.26458 0 0 .26458 -636.12 214.17)" clip-path="url(#clipEmfPath8-26)">
    <text transform="translate(95.767 40.289)" fill="#000000" font-family="Calibri" font-size="14.688px" font-weight="400" letter-spacing="0px" word-spacing="0px" style="line-height:125%" xml:space="preserve"><tspan x="0" y="0" fill="#000000" font-family="Calibri" font-size="14.688px" font-weight="400"><tspan dx="0" dy="0">36</tspan><tspan dx="0" dy="0"/></tspan></text>
   </g>
   <g transform="matrix(.26458 0 0 .26458 -636.12 214.17)" clip-path="url(#clipEmfPath9-6)">
    <text transform="translate(209.6 52.28)" fill="#000000" font-family="Calibri" font-size="14.688px" font-weight="400" letter-spacing="0px" word-spacing="0px" style="line-height:125%" xml:space="preserve"><tspan x="0" y="0" fill="#000000" font-family="Calibri" font-size="14.688px" font-weight="400"><tspan dx="0" dy="0">104</tspan><tspan dx="0" dy="0"/></tspan></text>
   </g>
   <g transform="matrix(.26458 0 0 .26458 -636.12 214.17)" clip-path="url(#clipEmfPath10-5)">
    <text transform="translate(9.7525 78.18)" fill="#000000" font-family="Calibri" font-size="14.688px" font-weight="400" letter-spacing="0px" word-spacing="0px" style="line-height:125%" xml:space="preserve"><tspan x="0" y="0" fill="#000000" font-family="Calibri" font-size="14.688px" font-weight="400"><tspan dx="0" dy="0">T</tspan><tspan dx="0" dy="0"/></tspan></text>
   </g>
   <path d="m-595.9 245.27 42.565-3.7013" fill="none" stroke="#000" stroke-linejoin="round" stroke-width=".26438px"/>
   <path d="m-553.13 240.25c-0.69532 0-1.2611 0.56313-1.2611 1.2584 0 0.69797 0.56577 1.2611 1.2611 1.2611s1.2611-0.56312 1.2611-1.2611c0-0.69532-0.56578-1.2584-1.2611-1.2584z" fill="#fff" fill-rule="evenodd"/>
   <path d="m-553.13 240.25c-0.69532 0-1.2611 0.56313-1.2611 1.2584 0 0.69797 0.56577 1.2611 1.2611 1.2611s1.2611-0.56312 1.2611-1.2611c0-0.69532-0.56578-1.2584-1.2611-1.2584" fill="none" stroke="#000" stroke-linecap="round" stroke-linejoin="round" stroke-width=".26438px"/>
   <path d="m-595.7 244.22c-0.69532 0-1.2611 0.56313-1.2611 1.2584 0 0.69796 0.56578 1.2611 1.2611 1.2611s1.2611-0.56313 1.2611-1.2611c0-0.69532-0.56577-1.2584-1.2611-1.2584z" fill="#fff" fill-rule="evenodd"/>
   <path d="m-595.7 244.22c-0.69532 0-1.2611 0.56313-1.2611 1.2584 0 0.69796 0.56578 1.2611 1.2611 1.2611s1.2611-0.56313 1.2611-1.2611c0-0.69532-0.56577-1.2584-1.2611-1.2584" fill="none" stroke="#000" stroke-linecap="round" stroke-linejoin="round" stroke-width=".26438px"/>
   <path d="m-615.79 247.92c-0.69533 0-1.2611 0.56314-1.2611 1.2585 0 0.69796 0.56577 1.2611 1.2611 1.2611 0.69532 0 1.2611-0.56313 1.2611-1.2611 0-0.69532-0.56577-1.2585-1.2611-1.2585z" fill="#fff" fill-rule="evenodd"/>
   <path d="m-615.79 247.92c-0.69533 0-1.2611 0.56314-1.2611 1.2585 0 0.69796 0.56577 1.2611 1.2611 1.2611 0.69532 0 1.2611-0.56313 1.2611-1.2611 0-0.69532-0.56577-1.2585-1.2611-1.2585" fill="none" stroke="#000" stroke-linecap="round" stroke-linejoin="round" stroke-width=".26438px"/>
   <path d="m-632.18 236.02c-0.69532 0-1.2611 0.56313-1.2611 1.2584 0 0.69797 0.56577 1.2611 1.2611 1.2611s1.2611-0.56313 1.2611-1.2611c0-0.69532-0.56578-1.2584-1.2611-1.2584z" fill="#fff" fill-rule="evenodd"/>
   <path d="m-632.18 236.02c-0.69532 0-1.2611 0.56313-1.2611 1.2584 0 0.69797 0.56577 1.2611 1.2611 1.2611s1.2611-0.56313 1.2611-1.2611c0-0.69532-0.56578-1.2584-1.2611-1.2584" fill="none" stroke="#000" stroke-linecap="round" stroke-linejoin="round" stroke-width=".26438px"/>
   <path d="m-614.73 228.09c-0.69532 0-1.2611 0.56313-1.2611 1.2585 0 0.69796 0.56578 1.2611 1.2611 1.2611s1.2611-0.56313 1.2611-1.2611c0-0.69533-0.56577-1.2585-1.2611-1.2585z" fill="#fff" fill-rule="evenodd"/>
   <path d="m-614.73 228.09c-0.69532 0-1.2611 0.56313-1.2611 1.2585 0 0.69796 0.56578 1.2611 1.2611 1.2611s1.2611-0.56313 1.2611-1.2611c0-0.69533-0.56577-1.2585-1.2611-1.2585" fill="none" stroke="#000" stroke-linecap="round" stroke-linejoin="round" stroke-width=".26438px"/>
   <path d="m-597.28 220.16c-0.69532 0-1.2611 0.56313-1.2611 1.2584 0 0.69796 0.56577 1.2611 1.2611 1.2611s1.2611-0.56313 1.2611-1.2611c0-0.69532-0.56578-1.2584-1.2611-1.2584z" fill="#fff" fill-rule="evenodd"/>
   <path d="m-597.28 220.16c-0.69532 0-1.2611 0.56313-1.2611 1.2584 0 0.69796 0.56577 1.2611 1.2611 1.2611s1.2611-0.56313 1.2611-1.2611c0-0.69532-0.56578-1.2584-1.2611-1.2584" fill="none" stroke="#000" stroke-linecap="round" stroke-linejoin="round" stroke-width=".26438px"/>
   <path d="m-595.96 234.96c-0.69533 0-1.2611 0.56313-1.2611 1.2584 0 0.69796 0.56577 1.2611 1.2611 1.2611 0.69532 0 1.2611-0.56313 1.2611-1.2611 0-0.69532-0.56577-1.2584-1.2611-1.2584z" fill="#fff" fill-rule="evenodd"/>
   <path d="m-595.96 234.96c-0.69533 0-1.2611 0.56313-1.2611 1.2584 0 0.69796 0.56577 1.2611 1.2611 1.2611 0.69532 0 1.2611-0.56313 1.2611-1.2611 0-0.69532-0.56577-1.2584-1.2611-1.2584" fill="none" stroke="#000" stroke-linecap="round" stroke-linejoin="round" stroke-width=".26438px"/>
   <g transform="matrix(.26458 0 0 .26458 -636.12 214.17)" clip-path="url(#clipEmfPath11-75)">
    <text transform="translate(75.782 47.324)" fill="#000000" font-family="Calibri" font-size="14.688px" font-weight="400" letter-spacing="0px" word-spacing="0px" style="line-height:125%" xml:space="preserve"><tspan x="0" y="0" fill="#000000" font-family="Calibri" font-size="14.688px" font-weight="400"><tspan dx="0" dy="0">A</tspan><tspan dx="0" dy="0"/></tspan></text>
   </g>
   <g transform="matrix(.26458 0 0 .26458 -636.12 214.17)" clip-path="url(#clipEmfPath12-1)">
    <text transform="translate(136.7 18.546)" fill="#000000" font-family="Calibri" font-size="14.688px" font-weight="400" letter-spacing="0px" word-spacing="0px" style="line-height:125%" xml:space="preserve"><tspan x="0" y="0" fill="#000000" font-family="Calibri" font-size="14.688px" font-weight="400"><tspan dx="0" dy="0">NB</tspan><tspan dx="0" dy="0"/></tspan></text>
   </g>
   <g transform="matrix(.26458 0 0 .26458 -636.12 214.17)" clip-path="url(#clipEmfPath13-56)">
    <text transform="translate(147.73 72.265)" fill="#000000" font-family="Calibri" font-size="14.688px" font-weight="400" letter-spacing="0px" word-spacing="0px" style="line-height:125%" xml:space="preserve"><tspan x="0" y="0" fill="#000000" font-family="Calibri" font-size="14.688px" font-weight="400"><tspan dx="0" dy="0">MR</tspan><tspan dx="0" dy="0"/></tspan></text>
   </g>
   <g transform="matrix(.26458 0 0 .26458 -636.12 214.17)" clip-path="url(#clipEmfPath14-9)">
    <text transform="translate(71.785 153.16)" fill="#000000" font-family="Calibri" font-size="14.688px" font-weight="400" letter-spacing="0px" word-spacing="0px" style="line-height:125%" xml:space="preserve"><tspan x="0" y="0" fill="#000000" font-family="Calibri" font-size="14.688px" font-weight="400"><tspan dx="0" dy="0">E</tspan><tspan dx="0" dy="0"/></tspan></text>
   </g>
   <g transform="matrix(.26458 0 0 .26458 -636.12 214.17)" clip-path="url(#clipEmfPath15-93)">
    <text transform="translate(150.76 139.25)" fill="#000000" font-family="Calibri" font-size="14.688px" font-weight="400" letter-spacing="0px" word-spacing="0px" style="line-height:125%" xml:space="preserve"><tspan x="0" y="0" fill="#000000" font-family="Calibri" font-size="14.688px" font-weight="400"><tspan dx="0" dy="0">P</tspan><tspan dx="0" dy="0"/></tspan></text>
   </g>
   <g transform="matrix(.26458 0 0 .26458 -636.12 214.17)" clip-path="url(#clipEmfPath16-6)">
    <text transform="translate(308.56 93.209)" fill="#000000" font-family="Calibri" font-size="14.688px" font-weight="400" letter-spacing="0px" word-spacing="0px" style="line-height:125%" xml:space="preserve"><tspan x="0" y="0" fill="#000000" font-family="Calibri" font-size="14.688px" font-weight="400"><tspan dx="0" dy="0">Y</tspan><tspan dx="0" dy="0"/></tspan></text>
   </g>
  </g>
 </g>
</svg>
