<?xml version="1.0" encoding="UTF-8"?>
<!-- Created with Inkscape (http://www.inkscape.org/) -->
<svg width="85.882mm" height="38.121mm" version="1.1" viewBox="0 0 85.882004 38.120691" xmlns="http://www.w3.org/2000/svg" xmlns:cc="http://creativecommons.org/ns#" xmlns:dc="http://purl.org/dc/elements/1.1/" xmlns:rdf="http://www.w3.org/1999/02/22-rdf-syntax-ns#">
 <defs>
  <clipPath id="clipEmfPath1-66">
   <path d="m184.82 72.904h45.085v16.307h-45.085z"/>
  </clipPath>
  <clipPath id="clipEmfPath2-21">
   <path d="m110 54.838h44.926v16.467h-44.926z"/>
  </clipPath>
  <clipPath id="clipEmfPath3-8">
   <path d="m122.95 93.848h44.926v16.467h-44.926z"/>
  </clipPath>
  <clipPath id="clipEmfPath4-10">
   <path d="m189.93 112.87h44.926v16.307h-44.926z"/>
  </clipPath>
  <clipPath id="clipEmfPath5-1">
   <path d="m98.005 128.86h44.926v16.307h-44.926z"/>
  </clipPath>
  <clipPath id="clipEmfPath6-39">
   <path d="m16.947 112.87h45.085v16.307h-45.085z"/>
  </clipPath>
  <clipPath id="clipEmfPath7-4">
   <path d="m23.982 55.957h44.926v16.307h-44.926z"/>
  </clipPath>
  <clipPath id="clipEmfPath8-3">
   <path d="m86.014 26.859h44.926v16.467h-44.926z"/>
  </clipPath>
  <clipPath id="clipEmfPath9-5">
   <path d="m199.85 38.85h44.926v16.467h-44.926z"/>
  </clipPath>
  <clipPath id="clipEmfPath10-20">
   <path d="m0 64.91h44.926v16.307h-44.926z"/>
  </clipPath>
  <clipPath id="clipEmfPath11-60">
   <path d="m66.029 33.894h26.859v16.467h-26.859z"/>
  </clipPath>
  <clipPath id="clipEmfPath12-5">
   <path d="m126.94 5.1161h44.926v16.467h-44.926z"/>
  </clipPath>
  <clipPath id="clipEmfPath13-1">
   <path d="m137.97 58.835h44.926v16.467h-44.926z"/>
  </clipPath>
  <clipPath id="clipEmfPath14-6">
   <path d="m62.032 139.89h44.926v16.307h-44.926z"/>
  </clipPath>
  <clipPath id="clipEmfPath15-5">
   <path d="m140.85 125.82h45.085v16.467h-45.085z"/>
  </clipPath>
  <clipPath id="clipEmfPath16-2">
   <path d="m298.81 79.939h65.869v16.307h-65.869z"/>
  </clipPath>
 </defs>
 <metadata>
  <rdf:RDF>
   <cc:Work rdf:about="">
    <dc:format>image/svg+xml</dc:format>
    <dc:type rdf:resource="http://purl.org/dc/dcmitype/StillImage"/>
    <dc:title/>
   </cc:Work>
  </rdf:RDF>
 </metadata>
 <g transform="translate(-1117.1 -729.92)">
  <g transform="translate(1655.3 370.94)">
   <text x="-540.71899" y="360.09412" fill="#000000" font-family="Calibri" font-size="3.8861px" font-weight="400" letter-spacing="0px" stroke-width=".26458" word-spacing="0px" style="line-height:125%" xml:space="preserve"><tspan x="0" y="0" stroke-width=".26458"><tspan dx="0" dy="0" fill="#000000" font-family="Calibri" font-size="3.8861px" font-weight="400" stroke-width=".26458"/></tspan></text>
   <g fill="none" stroke="#000" stroke-linejoin="round" stroke-width=".26438px">
    <path d="m-536.51 379.47 16.92-7.4027"/>
    <path d="m-519.85 371.81 17.978-8.1958"/>
    <path d="m-502.14 363.61 44.416 20.093"/>
    <path d="m-519.59 371.54 18.771 7.1383"/>
    <path d="m-500.82 378.68 43.094 5.2876"/>
    <path d="m-537.04 379.21 16.656 12.426"/>
    <path d="m-520.38 391.37 20.093-3.7013"/>
    <path d="m-500.82 387.14v-8.1958"/>
   </g>
   <g transform="matrix(.26458 0 0 .26458 -540.72 356.46)" clip-path="url(#clipEmfPath1-66)">
    <text transform="translate(194.41 86.654)" fill="#000000" font-family="Calibri" font-size="14.688px" font-weight="400" letter-spacing="0px" word-spacing="0px" style="line-height:125%" xml:space="preserve"><tspan x="0" y="0" fill="#000000" font-family="Calibri" font-size="14.688px" font-weight="400"><tspan dx="0" dy="0">96</tspan><tspan dx="0" dy="0"/></tspan></text>
   </g>
   <g transform="matrix(.26458 0 0 .26458 -540.72 356.46)" clip-path="url(#clipEmfPath2-21)">
    <text transform="translate(119.59 68.587)" fill="#000000" font-family="Calibri" font-size="14.688px" font-weight="400" letter-spacing="0px" word-spacing="0px" style="line-height:125%" xml:space="preserve"><tspan x="0" y="0" fill="#000000" font-family="Calibri" font-size="14.688px" font-weight="400"><tspan dx="0" dy="0">79</tspan><tspan dx="0" dy="0"/></tspan></text>
   </g>
   <g transform="matrix(.26458 0 0 .26458 -540.72 356.46)" clip-path="url(#clipEmfPath3-8)">
    <text transform="translate(132.54 107.6)" fill="#000000" font-family="Calibri" font-size="14.688px" font-weight="400" letter-spacing="0px" word-spacing="0px" style="line-height:125%" xml:space="preserve"><tspan x="0" y="0" fill="#000000" font-family="Calibri" font-size="14.688px" font-weight="400"><tspan dx="0" dy="0">27</tspan><tspan dx="0" dy="0"/></tspan></text>
   </g>
   <g transform="matrix(.26458 0 0 .26458 -540.72 356.46)" clip-path="url(#clipEmfPath4-10)">
    <text transform="translate(199.53 126.62)" fill="#000000" font-family="Calibri" font-size="14.688px" font-weight="400" letter-spacing="0px" word-spacing="0px" style="line-height:125%" xml:space="preserve"><tspan x="0" y="0" fill="#000000" font-family="Calibri" font-size="14.688px" font-weight="400"><tspan dx="0" dy="0">76</tspan><tspan dx="0" dy="0"/></tspan></text>
   </g>
   <g transform="matrix(.26458 0 0 .26458 -540.72 356.46)" clip-path="url(#clipEmfPath5-1)">
    <text transform="translate(107.6 142.61)" fill="#000000" font-family="Calibri" font-size="14.688px" font-weight="400" letter-spacing="0px" word-spacing="0px" style="line-height:125%" xml:space="preserve"><tspan x="0" y="0" fill="#000000" font-family="Calibri" font-size="14.688px" font-weight="400"><tspan dx="0" dy="0">96</tspan><tspan dx="0" dy="0"/></tspan></text>
   </g>
   <g transform="matrix(.26458 0 0 .26458 -540.72 356.46)" clip-path="url(#clipEmfPath6-39)">
    <text transform="translate(26.54 126.62)" fill="#000000" font-family="Calibri" font-size="14.688px" font-weight="400" letter-spacing="0px" word-spacing="0px" style="line-height:125%" xml:space="preserve"><tspan x="0" y="0" fill="#000000" font-family="Calibri" font-size="14.688px" font-weight="400"><tspan dx="0" dy="0">57</tspan><tspan dx="0" dy="0"/></tspan></text>
   </g>
   <g transform="matrix(.26458 0 0 .26458 -540.72 356.46)" clip-path="url(#clipEmfPath7-4)">
    <text transform="translate(33.574 69.707)" fill="#000000" font-family="Calibri" font-size="14.688px" font-weight="400" letter-spacing="0px" word-spacing="0px" style="line-height:125%" xml:space="preserve"><tspan x="0" y="0" fill="#000000" font-family="Calibri" font-size="14.688px" font-weight="400"><tspan dx="0" dy="0">20</tspan><tspan dx="0" dy="0"/></tspan></text>
   </g>
   <g transform="matrix(.26458 0 0 .26458 -540.72 356.46)" clip-path="url(#clipEmfPath8-3)">
    <text transform="translate(95.607 40.609)" fill="#000000" font-family="Calibri" font-size="14.688px" font-weight="400" letter-spacing="0px" word-spacing="0px" style="line-height:125%" xml:space="preserve"><tspan x="0" y="0" fill="#000000" font-family="Calibri" font-size="14.688px" font-weight="400"><tspan dx="0" dy="0">36</tspan><tspan dx="0" dy="0"/></tspan></text>
   </g>
   <g transform="matrix(.26458 0 0 .26458 -540.72 356.46)" clip-path="url(#clipEmfPath9-5)">
    <text transform="translate(209.44 52.6)" fill="#000000" font-family="Calibri" font-size="14.688px" font-weight="400" letter-spacing="0px" word-spacing="0px" style="line-height:125%" xml:space="preserve"><tspan x="0" y="0" fill="#000000" font-family="Calibri" font-size="14.688px" font-weight="400"><tspan dx="0" dy="0">104</tspan><tspan dx="0" dy="0"/></tspan></text>
   </g>
   <g transform="matrix(.26458 0 0 .26458 -540.72 356.46)" clip-path="url(#clipEmfPath10-20)">
    <text transform="translate(9.5926 78.66)" fill="#000000" font-family="Calibri" font-size="14.688px" font-weight="400" letter-spacing="0px" word-spacing="0px" style="line-height:125%" xml:space="preserve"><tspan x="0" y="0" fill="#000000" font-family="Calibri" font-size="14.688px" font-weight="400"><tspan dx="0" dy="0">T</tspan><tspan dx="0" dy="0"/></tspan></text>
   </g>
   <path d="m-500.55 387.67 42.565-3.7013" fill="none" stroke="#000" stroke-linejoin="round" stroke-width=".26438px"/>
   <path d="m-457.79 382.65c-0.69533 0-1.2611 0.56313-1.2611 1.2584 0 0.69797 0.56577 1.2611 1.2611 1.2611 0.69532 0 1.2611-0.56313 1.2611-1.2611 0-0.69532-0.56577-1.2584-1.2611-1.2584z" fill="#fff" fill-rule="evenodd"/>
   <path d="m-457.79 382.65c-0.69533 0-1.2611 0.56313-1.2611 1.2584 0 0.69797 0.56577 1.2611 1.2611 1.2611 0.69532 0 1.2611-0.56313 1.2611-1.2611 0-0.69532-0.56577-1.2584-1.2611-1.2584" fill="none" stroke="#000" stroke-linecap="round" stroke-linejoin="round" stroke-width=".26438px"/>
   <path d="m-500.35 386.61c-0.69532 0-1.2611 0.56313-1.2611 1.2584 0 0.69797 0.56578 1.2611 1.2611 1.2611s1.2611-0.56313 1.2611-1.2611c0-0.69532-0.56578-1.2584-1.2611-1.2584z" fill="#fff" fill-rule="evenodd"/>
   <path d="m-500.35 386.61c-0.69532 0-1.2611 0.56313-1.2611 1.2584 0 0.69797 0.56578 1.2611 1.2611 1.2611s1.2611-0.56313 1.2611-1.2611c0-0.69532-0.56578-1.2584-1.2611-1.2584" fill="none" stroke="#000" stroke-linecap="round" stroke-linejoin="round" stroke-width=".26438px"/>
   <path d="m-520.44 390.31c-0.69532 0-1.2611 0.56313-1.2611 1.2584 0 0.69797 0.56578 1.2611 1.2611 1.2611s1.2611-0.56313 1.2611-1.2611c0-0.69532-0.56577-1.2584-1.2611-1.2584z" fill="#fff" fill-rule="evenodd"/>
   <path d="m-520.44 390.31c-0.69532 0-1.2611 0.56313-1.2611 1.2584 0 0.69797 0.56578 1.2611 1.2611 1.2611s1.2611-0.56313 1.2611-1.2611c0-0.69532-0.56577-1.2584-1.2611-1.2584" fill="none" stroke="#000" stroke-linecap="round" stroke-linejoin="round" stroke-width=".26438px"/>
   <path d="m-536.84 378.42c-0.69532 0-1.2611 0.56313-1.2611 1.2584 0 0.69796 0.56578 1.2611 1.2611 1.2611s1.2611-0.56313 1.2611-1.2611c0-0.69532-0.56577-1.2584-1.2611-1.2584z" fill="#fff" fill-rule="evenodd"/>
   <path d="m-536.84 378.42c-0.69532 0-1.2611 0.56313-1.2611 1.2584 0 0.69796 0.56578 1.2611 1.2611 1.2611s1.2611-0.56313 1.2611-1.2611c0-0.69532-0.56577-1.2584-1.2611-1.2584" fill="none" stroke="#000" stroke-linecap="round" stroke-linejoin="round" stroke-width=".26438px"/>
   <path d="m-519.39 370.48c-0.69532 0-1.2611 0.56313-1.2611 1.2584 0 0.69797 0.56577 1.2611 1.2611 1.2611s1.2611-0.56313 1.2611-1.2611c0-0.69532-0.56578-1.2584-1.2611-1.2584z" fill="#fff" fill-rule="evenodd"/>
   <path d="m-519.39 370.48c-0.69532 0-1.2611 0.56313-1.2611 1.2584 0 0.69797 0.56577 1.2611 1.2611 1.2611s1.2611-0.56313 1.2611-1.2611c0-0.69532-0.56578-1.2584-1.2611-1.2584" fill="none" stroke="#000" stroke-linecap="round" stroke-linejoin="round" stroke-width=".26438px"/>
   <path d="m-501.94 362.55c-0.69532 0-1.2611 0.56313-1.2611 1.2585 0 0.69796 0.56578 1.2611 1.2611 1.2611s1.2611-0.56313 1.2611-1.2611c0-0.69533-0.56577-1.2585-1.2611-1.2585z" fill="#fff" fill-rule="evenodd"/>
   <path d="m-501.94 362.55c-0.69532 0-1.2611 0.56313-1.2611 1.2585 0 0.69796 0.56578 1.2611 1.2611 1.2611s1.2611-0.56313 1.2611-1.2611c0-0.69533-0.56577-1.2585-1.2611-1.2585" fill="none" stroke="#000" stroke-linecap="round" stroke-linejoin="round" stroke-width=".26438px"/>
   <path d="m-500.62 377.36c-0.69532 0-1.2611 0.56313-1.2611 1.2584 0 0.69797 0.56577 1.2611 1.2611 1.2611s1.2611-0.56313 1.2611-1.2611c0-0.69532-0.56577-1.2584-1.2611-1.2584z" fill="#fff" fill-rule="evenodd"/>
   <path d="m-500.62 377.36c-0.69532 0-1.2611 0.56313-1.2611 1.2584 0 0.69797 0.56577 1.2611 1.2611 1.2611s1.2611-0.56313 1.2611-1.2611c0-0.69532-0.56577-1.2584-1.2611-1.2584" fill="none" stroke="#000" stroke-linecap="round" stroke-linejoin="round" stroke-width=".26438px"/>
   <g transform="matrix(.26458 0 0 .26458 -540.72 356.46)" clip-path="url(#clipEmfPath11-60)">
    <text transform="translate(75.622 47.643)" fill="#000000" font-family="Calibri" font-size="14.688px" font-weight="400" letter-spacing="0px" word-spacing="0px" style="line-height:125%" xml:space="preserve"><tspan x="0" y="0" fill="#000000" font-family="Calibri" font-size="14.688px" font-weight="400"><tspan dx="0" dy="0">A</tspan><tspan dx="0" dy="0"/></tspan></text>
   </g>
   <g transform="matrix(.26458 0 0 .26458 -540.72 356.46)" clip-path="url(#clipEmfPath12-5)">
    <text transform="translate(136.54 18.866)" fill="#000000" font-family="Calibri" font-size="14.688px" font-weight="400" letter-spacing="0px" word-spacing="0px" style="line-height:125%" xml:space="preserve"><tspan x="0" y="0" fill="#000000" font-family="Calibri" font-size="14.688px" font-weight="400"><tspan dx="0" dy="0">NB</tspan><tspan dx="0" dy="0"/></tspan></text>
   </g>
   <g transform="matrix(.26458 0 0 .26458 -540.72 356.46)" clip-path="url(#clipEmfPath13-1)">
    <text transform="translate(147.57 72.584)" fill="#000000" font-family="Calibri" font-size="14.688px" font-weight="400" letter-spacing="0px" word-spacing="0px" style="line-height:125%" xml:space="preserve"><tspan x="0" y="0" fill="#000000" font-family="Calibri" font-size="14.688px" font-weight="400"><tspan dx="0" dy="0">MR</tspan><tspan dx="0" dy="0"/></tspan></text>
   </g>
   <g transform="matrix(.26458 0 0 .26458 -540.72 356.46)" clip-path="url(#clipEmfPath14-6)">
    <text transform="translate(71.625 153.64)" fill="#000000" font-family="Calibri" font-size="14.688px" font-weight="400" letter-spacing="0px" word-spacing="0px" style="line-height:125%" xml:space="preserve"><tspan x="0" y="0" fill="#000000" font-family="Calibri" font-size="14.688px" font-weight="400"><tspan dx="0" dy="0">E</tspan><tspan dx="0" dy="0"/></tspan></text>
   </g>
   <g transform="matrix(.26458 0 0 .26458 -540.72 356.46)" clip-path="url(#clipEmfPath15-5)">
    <text transform="translate(150.44 139.57)" fill="#000000" font-family="Calibri" font-size="14.688px" font-weight="400" letter-spacing="0px" word-spacing="0px" style="line-height:125%" xml:space="preserve"><tspan x="0" y="0" fill="#000000" font-family="Calibri" font-size="14.688px" font-weight="400"><tspan dx="0" dy="0">P</tspan><tspan dx="0" dy="0"/></tspan></text>
   </g>
   <g transform="matrix(.26458 0 0 .26458 -540.72 356.46)" clip-path="url(#clipEmfPath16-2)">
    <text transform="translate(308.4 93.688)" fill="#000000" font-family="Calibri" font-size="14.688px" font-weight="400" letter-spacing="0px" word-spacing="0px" style="line-height:125%" xml:space="preserve"><tspan x="0" y="0" font-family="Calibri" font-size="14.688px" font-weight="400"><tspan dx="0" dy="0" fill="#000000">Y </tspan><tspan dx="0" dy="0" fill="#ff0000">[0]</tspan><tspan dx="0" dy="0" fill="#ff0000"/></tspan></text>
   </g>
  </g>
 </g>
</svg>
