<?xml version="1.0" encoding="UTF-8"?>
<!-- Created with Inkscape (http://www.inkscape.org/) -->
<svg width="85.871mm" height="38.272mm" version="1.1" viewBox="0 0 85.871422 38.271936" xmlns="http://www.w3.org/2000/svg" xmlns:cc="http://creativecommons.org/ns#" xmlns:dc="http://purl.org/dc/elements/1.1/" xmlns:rdf="http://www.w3.org/1999/02/22-rdf-syntax-ns#">
 <defs>
  <clipPath id="clipEmfPath1-1">
   <path d="m199.05 70.666h44.926v16.467h-44.926z"/>
  </clipPath>
  <clipPath id="clipEmfPath2-50">
   <path d="m110.16 49.722h44.926v16.307h-44.926z"/>
  </clipPath>
  <clipPath id="clipEmfPath3-6">
   <path d="m123.11 88.732h44.926v16.307h-44.926z"/>
  </clipPath>
  <clipPath id="clipEmfPath4-75">
   <path d="m190.09 107.6h44.926v16.467h-44.926z"/>
  </clipPath>
  <clipPath id="clipEmfPath5-66">
   <path d="m98.165 123.59h44.926v16.467h-44.926z"/>
  </clipPath>
  <clipPath id="clipEmfPath6-8">
   <path d="m17.267 107.6h44.926v16.467h-44.926z"/>
  </clipPath>
  <clipPath id="clipEmfPath7-1">
   <path d="m24.141 50.681h45.085v16.467h-45.085z"/>
  </clipPath>
  <clipPath id="clipEmfPath8-0">
   <path d="m86.174 21.743h44.926v16.307h-44.926z"/>
  </clipPath>
  <clipPath id="clipEmfPath9-18">
   <path d="m200.01 33.734h45.085v16.307h-45.085z"/>
  </clipPath>
  <clipPath id="clipEmfPath10-21">
   <path d="m0.15988 59.634h45.085v16.467h-45.085z"/>
  </clipPath>
  <clipPath id="clipEmfPath11-9">
   <path d="m66.189 28.778h27.019v16.307h-27.019z"/>
  </clipPath>
  <clipPath id="clipEmfPath12-14">
   <path d="m127.1 0h125.98v16.307h-125.98z"/>
  </clipPath>
  <clipPath id="clipEmfPath13-8">
   <path d="m131.1 53.719h82.976v16.307h-82.976z"/>
  </clipPath>
  <clipPath id="clipEmfPath14-99">
   <path d="m62.192 134.62h44.926v16.467h-44.926z"/>
  </clipPath>
  <clipPath id="clipEmfPath15-0">
   <path d="m141.17 120.71h62.832v16.307h-62.832z"/>
  </clipPath>
  <clipPath id="clipEmfPath16-11">
   <path d="m298.97 74.823h66.029v16.307h-66.029z"/>
  </clipPath>
 </defs>
 <metadata>
  <rdf:RDF>
   <cc:Work rdf:about="">
    <dc:format>image/svg+xml</dc:format>
    <dc:type rdf:resource="http://purl.org/dc/dcmitype/StillImage"/>
    <dc:title/>
   </cc:Work>
  </rdf:RDF>
 </metadata>
 <g transform="translate(-469.41 -481.3)">
  <g transform="translate(1061.1 185.43)">
   <text x="-594.23511" y="339.77243" fill="#000000" font-family="Calibri" font-size="3.8861px" font-weight="400" letter-spacing="0px" stroke-width=".26458" word-spacing="0px" style="line-height:125%" xml:space="preserve"><tspan x="0" y="0" stroke-width=".26458"><tspan dx="0" dy="0" fill="#000000" font-family="Calibri" font-size="3.8861px" font-weight="400" stroke-width=".26458"/></tspan></text>
   <g fill="none" stroke="#000" stroke-linejoin="round">
    <path d="m-589.97 316.53 16.92-7.4026" stroke-width=".26438px"/>
    <path d="m-573.32 308.87 17.978-8.1958" stroke-width=".26438px"/>
    <path d="m-555.6 300.67 44.416 20.093" stroke-width=".52876px"/>
    <path d="m-573.05 308.6 18.771 7.1383" stroke-width=".26438px"/>
    <path d="m-554.28 315.74 43.094 5.2876" stroke-width=".52876px"/>
    <g stroke-width=".26438px">
     <path d="m-590.5 316.27 16.656 12.426"/>
     <path d="m-573.85 328.43 20.093-3.7013"/>
     <path d="m-554.28 324.2v-8.1958"/>
    </g>
   </g>
   <g transform="matrix(.26458 0 0 .26458 -594.24 294.89)" clip-path="url(#clipEmfPath1-1)">
    <text transform="translate(208.64 84.415)" fill="#000000" font-family="Calibri" font-size="14.688px" font-weight="400" letter-spacing="0px" word-spacing="0px" style="line-height:125%" xml:space="preserve"><tspan x="0" y="0" fill="#000000" font-family="Calibri" font-size="14.688px" font-weight="400"><tspan dx="0" dy="0">96</tspan><tspan dx="0" dy="0"/></tspan></text>
   </g>
   <g transform="matrix(.26458 0 0 .26458 -594.24 294.89)" clip-path="url(#clipEmfPath2-50)">
    <text transform="translate(119.75 63.471)" fill="#000000" font-family="Calibri" font-size="14.688px" font-weight="400" letter-spacing="0px" word-spacing="0px" style="line-height:125%" xml:space="preserve"><tspan x="0" y="0" fill="#000000" font-family="Calibri" font-size="14.688px" font-weight="400"><tspan dx="0" dy="0">79</tspan><tspan dx="0" dy="0"/></tspan></text>
   </g>
   <g transform="matrix(.26458 0 0 .26458 -594.24 294.89)" clip-path="url(#clipEmfPath3-6)">
    <text transform="translate(132.7 102.48)" fill="#000000" font-family="Calibri" font-size="14.688px" font-weight="400" letter-spacing="0px" word-spacing="0px" style="line-height:125%" xml:space="preserve"><tspan x="0" y="0" fill="#000000" font-family="Calibri" font-size="14.688px" font-weight="400"><tspan dx="0" dy="0">27</tspan><tspan dx="0" dy="0"/></tspan></text>
   </g>
   <g transform="matrix(.26458 0 0 .26458 -594.24 294.89)" clip-path="url(#clipEmfPath4-75)">
    <text transform="translate(199.69 121.35)" fill="#000000" font-family="Calibri" font-size="14.688px" font-weight="400" letter-spacing="0px" word-spacing="0px" style="line-height:125%" xml:space="preserve"><tspan x="0" y="0" fill="#000000" font-family="Calibri" font-size="14.688px" font-weight="400"><tspan dx="0" dy="0">76</tspan><tspan dx="0" dy="0"/></tspan></text>
   </g>
   <g transform="matrix(.26458 0 0 .26458 -594.24 294.89)" clip-path="url(#clipEmfPath5-66)">
    <text transform="translate(107.76 137.33)" fill="#000000" font-family="Calibri" font-size="14.688px" font-weight="400" letter-spacing="0px" word-spacing="0px" style="line-height:125%" xml:space="preserve"><tspan x="0" y="0" fill="#000000" font-family="Calibri" font-size="14.688px" font-weight="400"><tspan dx="0" dy="0">96</tspan><tspan dx="0" dy="0"/></tspan></text>
   </g>
   <g transform="matrix(.26458 0 0 .26458 -594.24 294.89)" clip-path="url(#clipEmfPath6-8)">
    <text transform="translate(26.859 121.35)" fill="#000000" font-family="Calibri" font-size="14.688px" font-weight="400" letter-spacing="0px" word-spacing="0px" style="line-height:125%" xml:space="preserve"><tspan x="0" y="0" fill="#000000" font-family="Calibri" font-size="14.688px" font-weight="400"><tspan dx="0" dy="0">57</tspan><tspan dx="0" dy="0"/></tspan></text>
   </g>
   <g transform="matrix(.26458 0 0 .26458 -594.24 294.89)" clip-path="url(#clipEmfPath7-1)">
    <text transform="translate(33.734 64.431)" fill="#000000" font-family="Calibri" font-size="14.688px" font-weight="400" letter-spacing="0px" word-spacing="0px" style="line-height:125%" xml:space="preserve"><tspan x="0" y="0" fill="#000000" font-family="Calibri" font-size="14.688px" font-weight="400"><tspan dx="0" dy="0">20</tspan><tspan dx="0" dy="0"/></tspan></text>
   </g>
   <g transform="matrix(.26458 0 0 .26458 -594.24 294.89)" clip-path="url(#clipEmfPath8-0)">
    <text transform="translate(95.767 35.493)" fill="#000000" font-family="Calibri" font-size="14.688px" font-weight="400" letter-spacing="0px" word-spacing="0px" style="line-height:125%" xml:space="preserve"><tspan x="0" y="0" fill="#000000" font-family="Calibri" font-size="14.688px" font-weight="400"><tspan dx="0" dy="0">36</tspan><tspan dx="0" dy="0"/></tspan></text>
   </g>
   <g transform="matrix(.26458 0 0 .26458 -594.24 294.89)" clip-path="url(#clipEmfPath9-18)">
    <text transform="translate(209.6 47.484)" fill="#000000" font-family="Calibri" font-size="14.688px" font-weight="400" letter-spacing="0px" word-spacing="0px" style="line-height:125%" xml:space="preserve"><tspan x="0" y="0" fill="#000000" font-family="Calibri" font-size="14.688px" font-weight="400"><tspan dx="0" dy="0">104</tspan><tspan dx="0" dy="0"/></tspan></text>
   </g>
   <g transform="matrix(.26458 0 0 .26458 -594.24 294.89)" clip-path="url(#clipEmfPath10-21)">
    <text transform="translate(9.7525 73.384)" fill="#000000" font-family="Calibri" font-size="14.688px" font-weight="400" letter-spacing="0px" word-spacing="0px" style="line-height:125%" xml:space="preserve"><tspan x="0" y="0" fill="#000000" font-family="Calibri" font-size="14.688px" font-weight="400"><tspan dx="0" dy="0">T</tspan><tspan dx="0" dy="0"/></tspan></text>
   </g>
   <path d="m-554.02 324.73 42.565-3.7013" fill="none" stroke="#000" stroke-linejoin="round" stroke-width=".52876px"/>
   <path d="m-511.25 319.71c-0.69532 0-1.2611 0.56313-1.2611 1.2584 0 0.69797 0.56577 1.2611 1.2611 1.2611s1.2611-0.56313 1.2611-1.2611c0-0.69532-0.56578-1.2584-1.2611-1.2584z" fill="#fff" fill-rule="evenodd"/>
   <path d="m-511.25 319.71c-0.69532 0-1.2611 0.56313-1.2611 1.2584 0 0.69797 0.56577 1.2611 1.2611 1.2611s1.2611-0.56313 1.2611-1.2611c0-0.69532-0.56578-1.2584-1.2611-1.2584" fill="none" stroke="#000" stroke-linecap="round" stroke-linejoin="round" stroke-width=".26438px"/>
   <path d="m-553.81 323.67c-0.69532 0-1.2611 0.56313-1.2611 1.2584 0 0.69797 0.56578 1.2611 1.2611 1.2611s1.2611-0.56312 1.2611-1.2611c0-0.69532-0.56577-1.2584-1.2611-1.2584z" fill="#fff" fill-rule="evenodd"/>
   <path d="m-553.81 323.67c-0.69532 0-1.2611 0.56313-1.2611 1.2584 0 0.69797 0.56578 1.2611 1.2611 1.2611s1.2611-0.56312 1.2611-1.2611c0-0.69532-0.56577-1.2584-1.2611-1.2584" fill="none" stroke="#000" stroke-linecap="round" stroke-linejoin="round" stroke-width=".26438px"/>
   <path d="m-573.91 327.37c-0.69532 0-1.2611 0.56313-1.2611 1.2584 0 0.69796 0.56578 1.2611 1.2611 1.2611s1.2611-0.56313 1.2611-1.2611c0-0.69532-0.56577-1.2584-1.2611-1.2584z" fill="#fff" fill-rule="evenodd"/>
   <path d="m-573.91 327.37c-0.69532 0-1.2611 0.56313-1.2611 1.2584 0 0.69796 0.56578 1.2611 1.2611 1.2611s1.2611-0.56313 1.2611-1.2611c0-0.69532-0.56577-1.2584-1.2611-1.2584" fill="none" stroke="#000" stroke-linecap="round" stroke-linejoin="round" stroke-width=".26438px"/>
   <path d="m-590.3 315.48c-0.69532 0-1.2611 0.56313-1.2611 1.2584 0 0.69797 0.56577 1.2611 1.2611 1.2611s1.2611-0.56313 1.2611-1.2611c0-0.69532-0.56578-1.2584-1.2611-1.2584z" fill="#fff" fill-rule="evenodd"/>
   <path d="m-590.3 315.48c-0.69532 0-1.2611 0.56313-1.2611 1.2584 0 0.69797 0.56577 1.2611 1.2611 1.2611s1.2611-0.56313 1.2611-1.2611c0-0.69532-0.56578-1.2584-1.2611-1.2584" fill="none" stroke="#000" stroke-linecap="round" stroke-linejoin="round" stroke-width=".26438px"/>
   <path d="m-572.85 307.54c-0.69532 0-1.2611 0.56313-1.2611 1.2584 0 0.69796 0.56578 1.2611 1.2611 1.2611s1.2611-0.56313 1.2611-1.2611c0-0.69532-0.56577-1.2584-1.2611-1.2584z" fill="#fff" fill-rule="evenodd"/>
   <path d="m-572.85 307.54c-0.69532 0-1.2611 0.56313-1.2611 1.2584 0 0.69796 0.56578 1.2611 1.2611 1.2611s1.2611-0.56313 1.2611-1.2611c0-0.69532-0.56577-1.2584-1.2611-1.2584" fill="none" stroke="#000" stroke-linecap="round" stroke-linejoin="round" stroke-width=".26438px"/>
   <path d="m-555.4 299.61c-0.69532 0-1.2611 0.56313-1.2611 1.2584 0 0.69797 0.56577 1.2611 1.2611 1.2611s1.2611-0.56313 1.2611-1.2611c0-0.69532-0.56578-1.2584-1.2611-1.2584z" fill="#fff" fill-rule="evenodd"/>
   <path d="m-555.4 299.61c-0.69532 0-1.2611 0.56313-1.2611 1.2584 0 0.69797 0.56577 1.2611 1.2611 1.2611s1.2611-0.56313 1.2611-1.2611c0-0.69532-0.56578-1.2584-1.2611-1.2584" fill="none" stroke="#000" stroke-linecap="round" stroke-linejoin="round" stroke-width=".26438px"/>
   <path d="m-554.08 314.42c-0.69533 0-1.2611 0.56313-1.2611 1.2584 0 0.69797 0.56577 1.2611 1.2611 1.2611 0.69532 0 1.2611-0.56313 1.2611-1.2611 0-0.69532-0.56577-1.2584-1.2611-1.2584z" fill="#fff" fill-rule="evenodd"/>
   <path d="m-554.08 314.42c-0.69533 0-1.2611 0.56313-1.2611 1.2584 0 0.69797 0.56577 1.2611 1.2611 1.2611 0.69532 0 1.2611-0.56313 1.2611-1.2611 0-0.69532-0.56577-1.2584-1.2611-1.2584" fill="none" stroke="#000" stroke-linecap="round" stroke-linejoin="round" stroke-width=".26438px"/>
   <g transform="matrix(.26458 0 0 .26458 -594.24 294.89)" clip-path="url(#clipEmfPath11-9)">
    <text transform="translate(75.782 42.527)" fill="#000000" font-family="Calibri" font-size="14.688px" font-weight="400" letter-spacing="0px" word-spacing="0px" style="line-height:125%" xml:space="preserve"><tspan x="0" y="0" fill="#000000" font-family="Calibri" font-size="14.688px" font-weight="400"><tspan dx="0" dy="0">A</tspan><tspan dx="0" dy="0"/></tspan></text>
   </g>
   <g transform="matrix(.26458 0 0 .26458 -594.24 294.89)" clip-path="url(#clipEmfPath12-14)">
    <text transform="translate(136.7 13.749)" fill="#000000" font-family="Calibri" font-size="14.688px" font-weight="400" letter-spacing="0px" word-spacing="0px" style="line-height:125%" xml:space="preserve"><tspan x="0" y="0" font-family="Calibri" font-size="14.688px" font-weight="400"><tspan dx="0" dy="0" fill="#000000">NB </tspan><tspan dx="0" dy="0" fill="#ff0000">[104]</tspan><tspan dx="0" dy="0" fill="#ff0000"/></tspan></text>
   </g>
   <g transform="matrix(.26458 0 0 .26458 -594.24 294.89)" clip-path="url(#clipEmfPath13-8)">
    <text transform="translate(140.69 67.468)" fill="#000000" font-family="Calibri" font-size="14.688px" font-weight="400" letter-spacing="0px" word-spacing="0px" style="line-height:125%" xml:space="preserve"><tspan x="0" y="0" font-family="Calibri" font-size="14.688px" font-weight="400"><tspan dx="0" dy="0" fill="#000000">MR </tspan><tspan dx="0" dy="0" fill="#ff0000">[96]</tspan><tspan dx="0" dy="0" fill="#000000"/></tspan></text>
   </g>
   <g transform="matrix(.26458 0 0 .26458 -594.24 294.89)" clip-path="url(#clipEmfPath14-99)">
    <text transform="translate(71.785 148.37)" fill="#000000" font-family="Calibri" font-size="14.688px" font-weight="400" letter-spacing="0px" word-spacing="0px" style="line-height:125%" xml:space="preserve"><tspan x="0" y="0" fill="#000000" font-family="Calibri" font-size="14.688px" font-weight="400"><tspan dx="0" dy="0">E</tspan><tspan dx="0" dy="0"/></tspan></text>
   </g>
   <g transform="matrix(.26458 0 0 .26458 -594.24 294.89)" clip-path="url(#clipEmfPath15-0)">
    <text transform="translate(150.76 134.46)" fill="#000000" font-family="Calibri" font-size="14.688px" font-weight="400" letter-spacing="0px" word-spacing="0px" style="line-height:125%" xml:space="preserve"><tspan x="0" y="0" font-family="Calibri" font-size="14.688px" font-weight="400"><tspan dx="0" dy="0" fill="#000000">P </tspan><tspan dx="0" dy="0" fill="#ff0000">[76]</tspan><tspan dx="0" dy="0" fill="#000000"/></tspan></text>
   </g>
   <g transform="matrix(.26458 0 0 .26458 -594.24 294.89)" clip-path="url(#clipEmfPath16-11)">
    <text transform="translate(308.56 88.572)" fill="#000000" font-family="Calibri" font-size="14.688px" font-weight="400" letter-spacing="0px" word-spacing="0px" style="line-height:125%" xml:space="preserve"><tspan x="0" y="0" font-family="Calibri" font-size="14.688px" font-weight="400"><tspan dx="0" dy="0" fill="#000000">Y </tspan><tspan dx="0" dy="0" fill="#ff0000">[0]</tspan><tspan dx="0" dy="0" fill="#ff0000"/></tspan></text>
   </g>
  </g>
 </g>
</svg>
