<?xml version="1.0" encoding="UTF-8"?>
<!-- Created with Inkscape (http://www.inkscape.org/) -->
<svg width="84.991mm" height="38.668mm" version="1.1" viewBox="0 0 84.991398 38.667569" xmlns="http://www.w3.org/2000/svg" xmlns:cc="http://creativecommons.org/ns#" xmlns:dc="http://purl.org/dc/elements/1.1/" xmlns:rdf="http://www.w3.org/1999/02/22-rdf-syntax-ns#">
 <defs>
  <clipPath id="clipEmfPath1-7">
   <path d="m199.05 75.942h44.926v16.307h-44.926z"/>
  </clipPath>
  <clipPath id="clipEmfPath2-31">
   <path d="m110.16 54.998h44.926v16.307h-44.926z"/>
  </clipPath>
  <clipPath id="clipEmfPath3-82">
   <path d="m123.11 93.848h44.926v16.467h-44.926z"/>
  </clipPath>
  <clipPath id="clipEmfPath4-725">
   <path d="m190.09 112.87h44.926v16.467h-44.926z"/>
  </clipPath>
  <clipPath id="clipEmfPath5-8">
   <path d="m98.165 128.86h44.926v16.467h-44.926z"/>
  </clipPath>
  <clipPath id="clipEmfPath6-35">
   <path d="m17.267 112.87h44.926v16.467h-44.926z"/>
  </clipPath>
  <clipPath id="clipEmfPath7-12">
   <path d="m24.141 55.957h45.085v16.307h-45.085z"/>
  </clipPath>
  <clipPath id="clipEmfPath8-7">
   <path d="m86.174 27.019h44.926v16.307h-44.926z"/>
  </clipPath>
  <clipPath id="clipEmfPath9-027">
   <path d="m200.01 39.01h45.085v16.307h-45.085z"/>
  </clipPath>
  <clipPath id="clipEmfPath10-53">
   <path d="m0.15988 64.91h45.085v16.467h-45.085z"/>
  </clipPath>
  <clipPath id="clipEmfPath11-5">
   <path d="m66.189 33.894h27.019v16.467h-27.019z"/>
  </clipPath>
  <clipPath id="clipEmfPath12-04">
   <path d="m127.1 5.1161h125.98v19.505h-125.98z"/>
  </clipPath>
  <clipPath id="clipEmfPath13-86">
   <path d="m131.1 58.995h82.976v18.386h-82.976z"/>
  </clipPath>
  <clipPath id="clipEmfPath14-95">
   <path d="m40.129 138.93h117.03v20.304h-117.03z"/>
  </clipPath>
  <clipPath id="clipEmfPath15-1">
   <path d="m141.17 125.82h62.832v19.505h-62.832z"/>
  </clipPath>
  <clipPath id="clipEmfPath16-33">
   <path d="m298.97 79.939h66.029v20.464h-66.029z"/>
  </clipPath>
 </defs>
 <metadata>
  <rdf:RDF>
   <cc:Work rdf:about="">
    <dc:format>image/svg+xml</dc:format>
    <dc:type rdf:resource="http://purl.org/dc/dcmitype/StillImage"/>
    <dc:title/>
   </cc:Work>
  </rdf:RDF>
 </metadata>
 <g transform="matrix(1 0 0 1 600.82 -421.75)">
  <text x="-603.36298" y="423.05078" fill="#000000" font-family="Calibri" font-size="3.8861px" font-weight="400" letter-spacing="0px" stroke-width=".26458" word-spacing="0px" style="line-height:125%" xml:space="preserve"><tspan x="0" y="0" stroke-width=".26458"><tspan dx="0" dy="0" fill="#000000" font-family="Calibri" font-size="3.8861px" font-weight="400" stroke-width=".26458"/></tspan></text>
  <g fill="none" stroke="#000" stroke-linejoin="round">
   <path d="m-599.1 442.45 16.92-7.4026" stroke-width=".26438px"/>
   <path d="m-582.45 434.78 17.978-8.1958" stroke-width=".26438px"/>
   <path d="m-564.73 426.58 44.416 20.093" stroke-width=".52876px"/>
   <path d="m-582.18 434.51 18.771 7.1383" stroke-width=".26438px"/>
   <path d="m-563.41 441.65 43.094 5.2876" stroke-width=".52876px"/>
   <path d="m-599.63 442.18 16.656 12.426" stroke-width=".26438px"/>
   <path d="m-582.97 454.34 20.093-3.7013" stroke-width=".52876px"/>
   <path d="m-563.41 450.11v-8.1958" stroke-width=".26438px"/>
  </g>
  <g transform="matrix(.26458 0 0 .26458 -603.36 419.41)" clip-path="url(#clipEmfPath1-7)">
   <text transform="translate(208.64 89.691)" fill="#000000" font-family="Calibri" font-size="14.688px" font-weight="400" letter-spacing="0px" word-spacing="0px" style="line-height:125%" xml:space="preserve"><tspan x="0" y="0" fill="#000000" font-family="Calibri" font-size="14.688px" font-weight="400"><tspan dx="0" dy="0">96</tspan><tspan dx="0" dy="0"/></tspan></text>
  </g>
  <g transform="matrix(.26458 0 0 .26458 -603.36 419.41)" clip-path="url(#clipEmfPath2-31)">
   <text transform="translate(119.75 68.747)" fill="#000000" font-family="Calibri" font-size="14.688px" font-weight="400" letter-spacing="0px" word-spacing="0px" style="line-height:125%" xml:space="preserve"><tspan x="0" y="0" fill="#000000" font-family="Calibri" font-size="14.688px" font-weight="400"><tspan dx="0" dy="0">79</tspan><tspan dx="0" dy="0"/></tspan></text>
  </g>
  <g transform="matrix(.26458 0 0 .26458 -603.36 419.41)" clip-path="url(#clipEmfPath3-82)">
   <text transform="translate(132.7 107.6)" fill="#000000" font-family="Calibri" font-size="14.688px" font-weight="400" letter-spacing="0px" word-spacing="0px" style="line-height:125%" xml:space="preserve"><tspan x="0" y="0" fill="#000000" font-family="Calibri" font-size="14.688px" font-weight="400"><tspan dx="0" dy="0">27</tspan><tspan dx="0" dy="0"/></tspan></text>
  </g>
  <g transform="matrix(.26458 0 0 .26458 -603.36 419.41)" clip-path="url(#clipEmfPath4-725)">
   <text transform="translate(199.69 126.62)" fill="#000000" font-family="Calibri" font-size="14.688px" font-weight="400" letter-spacing="0px" word-spacing="0px" style="line-height:125%" xml:space="preserve"><tspan x="0" y="0" fill="#000000" font-family="Calibri" font-size="14.688px" font-weight="400"><tspan dx="0" dy="0">76</tspan><tspan dx="0" dy="0"/></tspan></text>
  </g>
  <g transform="matrix(.26458 0 0 .26458 -603.36 419.41)" clip-path="url(#clipEmfPath5-8)">
   <text transform="translate(107.76 142.61)" fill="#000000" font-family="Calibri" font-size="14.688px" font-weight="400" letter-spacing="0px" word-spacing="0px" style="line-height:125%" xml:space="preserve"><tspan x="0" y="0" fill="#000000" font-family="Calibri" font-size="14.688px" font-weight="400"><tspan dx="0" dy="0">96</tspan><tspan dx="0" dy="0"/></tspan></text>
  </g>
  <g transform="matrix(.26458 0 0 .26458 -603.36 419.41)" clip-path="url(#clipEmfPath6-35)">
   <text transform="translate(26.859 126.62)" fill="#000000" font-family="Calibri" font-size="14.688px" font-weight="400" letter-spacing="0px" word-spacing="0px" style="line-height:125%" xml:space="preserve"><tspan x="0" y="0" fill="#000000" font-family="Calibri" font-size="14.688px" font-weight="400"><tspan dx="0" dy="0">57</tspan><tspan dx="0" dy="0"/></tspan></text>
  </g>
  <g transform="matrix(.26458 0 0 .26458 -603.36 419.41)" clip-path="url(#clipEmfPath7-12)">
   <text transform="translate(33.734 69.707)" fill="#000000" font-family="Calibri" font-size="14.688px" font-weight="400" letter-spacing="0px" word-spacing="0px" style="line-height:125%" xml:space="preserve"><tspan x="0" y="0" fill="#000000" font-family="Calibri" font-size="14.688px" font-weight="400"><tspan dx="0" dy="0">20</tspan><tspan dx="0" dy="0"/></tspan></text>
  </g>
  <g transform="matrix(.26458 0 0 .26458 -603.36 419.41)" clip-path="url(#clipEmfPath8-7)">
   <text transform="translate(95.767 40.769)" fill="#000000" font-family="Calibri" font-size="14.688px" font-weight="400" letter-spacing="0px" word-spacing="0px" style="line-height:125%" xml:space="preserve"><tspan x="0" y="0" fill="#000000" font-family="Calibri" font-size="14.688px" font-weight="400"><tspan dx="0" dy="0">36</tspan><tspan dx="0" dy="0"/></tspan></text>
  </g>
  <g transform="matrix(.26458 0 0 .26458 -603.36 419.41)" clip-path="url(#clipEmfPath9-027)">
   <text transform="translate(209.6 52.76)" fill="#000000" font-family="Calibri" font-size="14.688px" font-weight="400" letter-spacing="0px" word-spacing="0px" style="line-height:125%" xml:space="preserve"><tspan x="0" y="0" fill="#000000" font-family="Calibri" font-size="14.688px" font-weight="400"><tspan dx="0" dy="0">104</tspan><tspan dx="0" dy="0"/></tspan></text>
  </g>
  <g transform="matrix(.26458 0 0 .26458 -603.36 419.41)" clip-path="url(#clipEmfPath10-53)">
   <text transform="translate(9.7525 78.66)" fill="#000000" font-family="Calibri" font-size="14.688px" font-weight="400" letter-spacing="0px" word-spacing="0px" style="line-height:125%" xml:space="preserve"><tspan x="0" y="0" fill="#000000" font-family="Calibri" font-size="14.688px" font-weight="400"><tspan dx="0" dy="0">T</tspan><tspan dx="0" dy="0"/></tspan></text>
  </g>
  <path d="m-563.15 450.64 42.565-3.7013" fill="none" stroke="#000" stroke-linejoin="round" stroke-width=".52876px"/>
  <path d="m-520.38 445.62c-0.69532 0-1.2611 0.56577-1.2611 1.2611s0.56578 1.2611 1.2611 1.2611 1.2611-0.56578 1.2611-1.2611-0.56577-1.2611-1.2611-1.2611z" fill="#fff" fill-rule="evenodd"/>
  <path d="m-520.38 445.62c-0.69532 0-1.2611 0.56577-1.2611 1.2611s0.56578 1.2611 1.2611 1.2611 1.2611-0.56578 1.2611-1.2611-0.56577-1.2611-1.2611-1.2611" fill="none" stroke="#000" stroke-linecap="round" stroke-linejoin="round" stroke-width=".26438px"/>
  <path d="m-562.94 449.58c-0.69532 0-1.2611 0.56577-1.2611 1.2611s0.56577 1.2611 1.2611 1.2611 1.2611-0.56577 1.2611-1.2611-0.56577-1.2611-1.2611-1.2611z" fill="#fff" fill-rule="evenodd"/>
  <path d="m-562.94 449.58c-0.69532 0-1.2611 0.56577-1.2611 1.2611s0.56577 1.2611 1.2611 1.2611 1.2611-0.56577 1.2611-1.2611-0.56577-1.2611-1.2611-1.2611" fill="none" stroke="#000" stroke-linecap="round" stroke-linejoin="round" stroke-width=".26438px"/>
  <path d="m-583.03 453.29c-0.69532 0-1.2611 0.56578-1.2611 1.2611s0.56577 1.2611 1.2611 1.2611 1.2611-0.56577 1.2611-1.2611-0.56578-1.2611-1.2611-1.2611z" fill="#fff" fill-rule="evenodd"/>
  <path d="m-583.03 453.29c-0.69532 0-1.2611 0.56578-1.2611 1.2611s0.56577 1.2611 1.2611 1.2611 1.2611-0.56577 1.2611-1.2611-0.56578-1.2611-1.2611-1.2611" fill="none" stroke="#000" stroke-linecap="round" stroke-linejoin="round" stroke-width=".26438px"/>
  <path d="m-599.43 441.39c-0.69532 0-1.2611 0.56577-1.2611 1.2611s0.56578 1.2611 1.2611 1.2611 1.2611-0.56578 1.2611-1.2611-0.56577-1.2611-1.2611-1.2611z" fill="#fff" fill-rule="evenodd"/>
  <path d="m-599.43 441.39c-0.69532 0-1.2611 0.56577-1.2611 1.2611s0.56578 1.2611 1.2611 1.2611 1.2611-0.56578 1.2611-1.2611-0.56577-1.2611-1.2611-1.2611" fill="none" stroke="#000" stroke-linecap="round" stroke-linejoin="round" stroke-width=".26438px"/>
  <path d="m-581.98 433.46c-0.69532 0-1.2611 0.56578-1.2611 1.2611s0.56577 1.2611 1.2611 1.2611 1.2611-0.56577 1.2611-1.2611-0.56578-1.2611-1.2611-1.2611z" fill="#fff" fill-rule="evenodd"/>
  <path d="m-581.98 433.46c-0.69532 0-1.2611 0.56578-1.2611 1.2611s0.56577 1.2611 1.2611 1.2611 1.2611-0.56577 1.2611-1.2611-0.56578-1.2611-1.2611-1.2611" fill="none" stroke="#000" stroke-linecap="round" stroke-linejoin="round" stroke-width=".26438px"/>
  <path d="m-564.53 425.53c-0.69532 0-1.2611 0.56577-1.2611 1.2611s0.56578 1.2611 1.2611 1.2611 1.2611-0.56578 1.2611-1.2611-0.56577-1.2611-1.2611-1.2611z" fill="#fff" fill-rule="evenodd"/>
  <path d="m-564.53 425.53c-0.69532 0-1.2611 0.56577-1.2611 1.2611s0.56578 1.2611 1.2611 1.2611 1.2611-0.56578 1.2611-1.2611-0.56577-1.2611-1.2611-1.2611" fill="none" stroke="#000" stroke-linecap="round" stroke-linejoin="round" stroke-width=".26438px"/>
  <path d="m-563.21 440.33c-0.69532 0-1.2611 0.56577-1.2611 1.2611s0.56578 1.2611 1.2611 1.2611 1.2611-0.56578 1.2611-1.2611-0.56578-1.2611-1.2611-1.2611z" fill="#fff" fill-rule="evenodd"/>
  <path d="m-563.21 440.33c-0.69532 0-1.2611 0.56577-1.2611 1.2611s0.56578 1.2611 1.2611 1.2611 1.2611-0.56578 1.2611-1.2611-0.56578-1.2611-1.2611-1.2611" fill="none" stroke="#000" stroke-linecap="round" stroke-linejoin="round" stroke-width=".26438px"/>
  <g transform="matrix(.26458 0 0 .26458 -603.36 419.41)" clip-path="url(#clipEmfPath11-5)">
   <text transform="translate(75.782 47.643)" fill="#000000" font-family="Calibri" font-size="14.688px" font-weight="400" letter-spacing="0px" word-spacing="0px" style="line-height:125%" xml:space="preserve"><tspan x="0" y="0" fill="#000000" font-family="Calibri" font-size="14.688px" font-weight="400"><tspan dx="0" dy="0">A</tspan><tspan dx="0" dy="0"/></tspan></text>
  </g>
  <g transform="matrix(.26458 0 0 .26458 -603.36 419.41)" clip-path="url(#clipEmfPath12-04)">
   <text transform="translate(136.7 18.866)" fill="#000000" font-family="Calibri" font-size="14.688px" font-weight="400" letter-spacing="0px" word-spacing="0px" style="line-height:125%" xml:space="preserve"><tspan x="0" y="0" font-family="Calibri" font-size="14.688px" font-weight="400"><tspan dx="0" dy="0" fill="#000000">NB </tspan><tspan dx="0" dy="0" fill="#ff0000">[104]</tspan><tspan dx="0" dy="0" fill="#ff0000"/></tspan></text>
  </g>
  <g transform="matrix(.26458 0 0 .26458 -603.36 419.41)" clip-path="url(#clipEmfPath13-86)">
   <text transform="translate(140.69 72.744)" fill="#000000" font-family="Calibri" font-size="14.688px" font-weight="400" letter-spacing="0px" word-spacing="0px" style="line-height:125%" xml:space="preserve"><tspan x="0" y="0" font-family="Calibri" font-size="14.688px" font-weight="400"><tspan dx="0" dy="0" fill="#000000">MR </tspan><tspan dx="0" dy="0" fill="#ff0000">[96]</tspan><tspan dx="0" dy="0" fill="#000000"/></tspan></text>
  </g>
  <g transform="matrix(.26458 0 0 .26458 -603.36 419.41)" clip-path="url(#clipEmfPath14-95)">
   <text transform="translate(49.722 152.68)" fill="#000000" font-family="Calibri" font-size="14.688px" font-weight="400" letter-spacing="0px" word-spacing="0px" style="line-height:125%" xml:space="preserve"><tspan x="0" y="0" font-family="Calibri" font-size="14.688px" font-weight="400"><tspan dx="0" dy="0" fill="#000000">E </tspan><tspan dx="0" dy="0" fill="#ff0000">[1</tspan><tspan dx="0" dy="0" fill="#ff0000">72]</tspan><tspan dx="0" dy="0" fill="#000000"/></tspan></text>
  </g>
  <g transform="matrix(.26458 0 0 .26458 -603.36 419.41)" clip-path="url(#clipEmfPath15-1)">
   <text transform="translate(150.76 139.57)" fill="#000000" font-family="Calibri" font-size="14.688px" font-weight="400" letter-spacing="0px" word-spacing="0px" style="line-height:125%" xml:space="preserve"><tspan x="0" y="0" font-family="Calibri" font-size="14.688px" font-weight="400"><tspan dx="0" dy="0" fill="#000000">P </tspan><tspan dx="0" dy="0" fill="#ff0000">[76]</tspan><tspan dx="0" dy="0" fill="#000000"/></tspan></text>
  </g>
  <g transform="matrix(.26458 0 0 .26458 -603.36 419.41)" clip-path="url(#clipEmfPath16-33)">
   <text transform="translate(308.56 93.688)" fill="#000000" font-family="Calibri" font-size="14.688px" font-weight="400" letter-spacing="0px" word-spacing="0px" style="line-height:125%" xml:space="preserve"><tspan x="0" y="0" font-family="Calibri" font-size="14.688px" font-weight="400"><tspan dx="0" dy="0" fill="#999999">Y</tspan><tspan dx="0" dy="0" fill="#000000"/><tspan dx="0" dy="0" fill="#ff0000">[0]</tspan><tspan dx="0" dy="0" fill="#ff0000"/></tspan></text>
  </g>
  <path transform="matrix(.26458 0 0 .26458 -603.36 419.41)" d="m308.56 90.011h7.1945v0.95926h-7.1945z" clip-path="url(#clipEmfPath16-33)" fill="#999" fill-rule="evenodd"/>
 </g>
</svg>
