<?xml version="1.0" encoding="UTF-8"?>
<!-- Created with Inkscape (http://www.inkscape.org/) -->
<svg width="84.991mm" height="38.625mm" version="1.1" viewBox="0 0 84.991406 38.625268" xmlns="http://www.w3.org/2000/svg" xmlns:cc="http://creativecommons.org/ns#" xmlns:dc="http://purl.org/dc/elements/1.1/" xmlns:rdf="http://www.w3.org/1999/02/22-rdf-syntax-ns#">
 <defs>
  <clipPath id="clipEmfPath1-15">
   <path d="m199.05 75.462h44.926v16.467h-44.926z"/>
  </clipPath>
  <clipPath id="clipEmfPath2-49">
   <path d="m110.16 54.518h44.926v16.307h-44.926z"/>
  </clipPath>
  <clipPath id="clipEmfPath3-34">
   <path d="m123.11 93.368h44.926v16.467h-44.926z"/>
  </clipPath>
  <clipPath id="clipEmfPath4-76">
   <path d="m190.09 112.39h44.926v16.467h-44.926z"/>
  </clipPath>
  <clipPath id="clipEmfPath5-3">
   <path d="m98.165 128.38h44.926v16.467h-44.926z"/>
  </clipPath>
  <clipPath id="clipEmfPath6-6">
   <path d="m17.267 112.39h44.926v16.467h-44.926z"/>
  </clipPath>
  <clipPath id="clipEmfPath7-25">
   <path d="m24.141 55.477h45.085v16.467h-45.085z"/>
  </clipPath>
  <clipPath id="clipEmfPath8-37">
   <path d="m86.174 26.54h44.926v16.307h-44.926z"/>
  </clipPath>
  <clipPath id="clipEmfPath9-2">
   <path d="m200.01 38.53h45.085v16.307h-45.085z"/>
  </clipPath>
  <clipPath id="clipEmfPath10-1">
   <path d="m0.15988 64.431h45.085v16.467h-45.085z"/>
  </clipPath>
  <clipPath id="clipEmfPath11-4">
   <path d="m30.217 32.455h98.964v21.424h-98.964z"/>
  </clipPath>
  <clipPath id="clipEmfPath12-4">
   <path d="m127.1 4.7963h125.98v19.345h-125.98z"/>
  </clipPath>
  <clipPath id="clipEmfPath13-80">
   <path d="m131.1 58.515h82.976v18.386h-82.976z"/>
  </clipPath>
  <clipPath id="clipEmfPath14-1">
   <path d="m40.129 138.45h117.03v20.304h-117.03z"/>
  </clipPath>
  <clipPath id="clipEmfPath15-4">
   <path d="m141.17 125.34h62.832v19.505h-62.832z"/>
  </clipPath>
  <clipPath id="clipEmfPath16-64">
   <path d="m298.97 79.459h66.029v20.464h-66.029z"/>
  </clipPath>
 </defs>
 <metadata>
  <rdf:RDF>
   <cc:Work rdf:about="">
    <dc:format>image/svg+xml</dc:format>
    <dc:type rdf:resource="http://purl.org/dc/dcmitype/StillImage"/>
    <dc:title/>
   </cc:Work>
  </rdf:RDF>
 </metadata>
 <g transform="matrix(1 0 0 1 543.98 -433.59)">
  <text x="-546.51746" y="434.97592" fill="#000000" font-family="Calibri" font-size="3.8861px" font-weight="400" letter-spacing="0px" stroke-width=".26458" word-spacing="0px" style="line-height:125%" xml:space="preserve"><tspan x="0" y="0" stroke-width=".26458"><tspan dx="0" dy="0" fill="#000000" font-family="Calibri" font-size="3.8861px" font-weight="400" stroke-width=".26458"/></tspan></text>
  <g fill="none" stroke="#000" stroke-linejoin="round">
   <path d="m-542.26 454.25 16.92-7.4027" stroke-width=".26438px"/>
   <path d="m-525.6 446.58 17.978-8.1958" stroke-width=".26438px"/>
   <g stroke-width=".52876px">
    <path d="m-507.89 438.39 44.416 20.093"/>
    <path d="m-525.34 446.32 18.771 7.1383"/>
    <path d="m-506.56 453.46 43.094 5.2876"/>
   </g>
   <path d="m-542.78 453.98 16.656 12.426" stroke-width=".26438px"/>
   <path d="m-526.13 466.15 20.093-3.7013" stroke-width=".52876px"/>
   <path d="m-506.56 461.92v-8.1958" stroke-width=".26438px"/>
  </g>
  <g transform="matrix(.26458 0 0 .26458 -546.52 431.34)" clip-path="url(#clipEmfPath1-15)">
   <text transform="translate(208.64 89.212)" fill="#000000" font-family="Calibri" font-size="14.688px" font-weight="400" letter-spacing="0px" word-spacing="0px" style="line-height:125%" xml:space="preserve"><tspan x="0" y="0" fill="#000000" font-family="Calibri" font-size="14.688px" font-weight="400"><tspan dx="0" dy="0">96</tspan><tspan dx="0" dy="0"/></tspan></text>
  </g>
  <g transform="matrix(.26458 0 0 .26458 -546.52 431.34)" clip-path="url(#clipEmfPath2-49)">
   <text transform="translate(119.75 68.268)" fill="#000000" font-family="Calibri" font-size="14.688px" font-weight="400" letter-spacing="0px" word-spacing="0px" style="line-height:125%" xml:space="preserve"><tspan x="0" y="0" fill="#000000" font-family="Calibri" font-size="14.688px" font-weight="400"><tspan dx="0" dy="0">79</tspan><tspan dx="0" dy="0"/></tspan></text>
  </g>
  <g transform="matrix(.26458 0 0 .26458 -546.52 431.34)" clip-path="url(#clipEmfPath3-34)">
   <text transform="translate(132.7 107.12)" fill="#000000" font-family="Calibri" font-size="14.688px" font-weight="400" letter-spacing="0px" word-spacing="0px" style="line-height:125%" xml:space="preserve"><tspan x="0" y="0" fill="#000000" font-family="Calibri" font-size="14.688px" font-weight="400"><tspan dx="0" dy="0">27</tspan><tspan dx="0" dy="0"/></tspan></text>
  </g>
  <g transform="matrix(.26458 0 0 .26458 -546.52 431.34)" clip-path="url(#clipEmfPath4-76)">
   <text transform="translate(199.69 126.14)" fill="#000000" font-family="Calibri" font-size="14.688px" font-weight="400" letter-spacing="0px" word-spacing="0px" style="line-height:125%" xml:space="preserve"><tspan x="0" y="0" fill="#000000" font-family="Calibri" font-size="14.688px" font-weight="400"><tspan dx="0" dy="0">76</tspan><tspan dx="0" dy="0"/></tspan></text>
  </g>
  <g transform="matrix(.26458 0 0 .26458 -546.52 431.34)" clip-path="url(#clipEmfPath5-3)">
   <text transform="translate(107.76 142.13)" fill="#000000" font-family="Calibri" font-size="14.688px" font-weight="400" letter-spacing="0px" word-spacing="0px" style="line-height:125%" xml:space="preserve"><tspan x="0" y="0" fill="#000000" font-family="Calibri" font-size="14.688px" font-weight="400"><tspan dx="0" dy="0">96</tspan><tspan dx="0" dy="0"/></tspan></text>
  </g>
  <g transform="matrix(.26458 0 0 .26458 -546.52 431.34)" clip-path="url(#clipEmfPath6-6)">
   <text transform="translate(26.859 126.14)" fill="#000000" font-family="Calibri" font-size="14.688px" font-weight="400" letter-spacing="0px" word-spacing="0px" style="line-height:125%" xml:space="preserve"><tspan x="0" y="0" fill="#000000" font-family="Calibri" font-size="14.688px" font-weight="400"><tspan dx="0" dy="0">57</tspan><tspan dx="0" dy="0"/></tspan></text>
  </g>
  <g transform="matrix(.26458 0 0 .26458 -546.52 431.34)" clip-path="url(#clipEmfPath7-25)">
   <text transform="translate(33.734 69.227)" fill="#000000" font-family="Calibri" font-size="14.688px" font-weight="400" letter-spacing="0px" word-spacing="0px" style="line-height:125%" xml:space="preserve"><tspan x="0" y="0" fill="#000000" font-family="Calibri" font-size="14.688px" font-weight="400"><tspan dx="0" dy="0">20</tspan><tspan dx="0" dy="0"/></tspan></text>
  </g>
  <g transform="matrix(.26458 0 0 .26458 -546.52 431.34)" clip-path="url(#clipEmfPath8-37)">
   <text transform="translate(95.767 40.289)" fill="#000000" font-family="Calibri" font-size="14.688px" font-weight="400" letter-spacing="0px" word-spacing="0px" style="line-height:125%" xml:space="preserve"><tspan x="0" y="0" fill="#000000" font-family="Calibri" font-size="14.688px" font-weight="400"><tspan dx="0" dy="0">36</tspan><tspan dx="0" dy="0"/></tspan></text>
  </g>
  <g transform="matrix(.26458 0 0 .26458 -546.52 431.34)" clip-path="url(#clipEmfPath9-2)">
   <text transform="translate(209.6 52.28)" fill="#000000" font-family="Calibri" font-size="14.688px" font-weight="400" letter-spacing="0px" word-spacing="0px" style="line-height:125%" xml:space="preserve"><tspan x="0" y="0" fill="#000000" font-family="Calibri" font-size="14.688px" font-weight="400"><tspan dx="0" dy="0">104</tspan><tspan dx="0" dy="0"/></tspan></text>
  </g>
  <g transform="matrix(.26458 0 0 .26458 -546.52 431.34)" clip-path="url(#clipEmfPath10-1)">
   <text transform="translate(9.7525 78.18)" fill="#000000" font-family="Calibri" font-size="14.688px" font-weight="400" letter-spacing="0px" word-spacing="0px" style="line-height:125%" xml:space="preserve"><tspan x="0" y="0" fill="#000000" font-family="Calibri" font-size="14.688px" font-weight="400"><tspan dx="0" dy="0">T</tspan><tspan dx="0" dy="0"/></tspan></text>
  </g>
  <path d="m-506.3 462.45 42.565-3.7013" fill="none" stroke="#000" stroke-linejoin="round" stroke-width=".52876px"/>
  <path d="m-463.53 457.42c-0.69532 0-1.2611 0.56312-1.2611 1.2584 0 0.69796 0.56578 1.2611 1.2611 1.2611s1.2611-0.56313 1.2611-1.2611c0-0.69533-0.56577-1.2584-1.2611-1.2584z" fill="#fff" fill-rule="evenodd"/>
  <path d="m-463.53 457.42c-0.69532 0-1.2611 0.56312-1.2611 1.2584 0 0.69796 0.56578 1.2611 1.2611 1.2611s1.2611-0.56313 1.2611-1.2611c0-0.69533-0.56577-1.2584-1.2611-1.2584" fill="none" stroke="#000" stroke-linecap="round" stroke-linejoin="round" stroke-width=".26438px"/>
  <path d="m-506.1 461.39c-0.69532 0-1.2611 0.56313-1.2611 1.2584 0 0.69797 0.56577 1.2611 1.2611 1.2611s1.2611-0.56313 1.2611-1.2611c0-0.69532-0.56577-1.2584-1.2611-1.2584z" fill="#fff" fill-rule="evenodd"/>
  <path d="m-506.1 461.39c-0.69532 0-1.2611 0.56313-1.2611 1.2584 0 0.69797 0.56577 1.2611 1.2611 1.2611s1.2611-0.56313 1.2611-1.2611c0-0.69532-0.56577-1.2584-1.2611-1.2584" fill="none" stroke="#000" stroke-linecap="round" stroke-linejoin="round" stroke-width=".26438px"/>
  <path d="m-526.19 465.09c-0.69532 0-1.2611 0.56313-1.2611 1.2584 0 0.69797 0.56577 1.2611 1.2611 1.2611s1.2611-0.56313 1.2611-1.2611c0-0.69532-0.56578-1.2584-1.2611-1.2584z" fill="#fff" fill-rule="evenodd"/>
  <path d="m-526.19 465.09c-0.69532 0-1.2611 0.56313-1.2611 1.2584 0 0.69797 0.56577 1.2611 1.2611 1.2611s1.2611-0.56313 1.2611-1.2611c0-0.69532-0.56578-1.2584-1.2611-1.2584" fill="none" stroke="#000" stroke-linecap="round" stroke-linejoin="round" stroke-width=".26438px"/>
  <path d="m-542.58 453.19c-0.69532 0-1.2611 0.56313-1.2611 1.2584 0 0.69796 0.56578 1.2611 1.2611 1.2611s1.2611-0.56313 1.2611-1.2611c0-0.69532-0.56577-1.2584-1.2611-1.2584z" fill="#fff" fill-rule="evenodd"/>
  <path d="m-542.58 453.19c-0.69532 0-1.2611 0.56313-1.2611 1.2584 0 0.69796 0.56578 1.2611 1.2611 1.2611s1.2611-0.56313 1.2611-1.2611c0-0.69532-0.56577-1.2584-1.2611-1.2584" fill="none" stroke="#000" stroke-linecap="round" stroke-linejoin="round" stroke-width=".26438px"/>
  <path d="m-525.13 445.26c-0.69532 0-1.2611 0.56313-1.2611 1.2584 0 0.69797 0.56577 1.2611 1.2611 1.2611s1.2611-0.56313 1.2611-1.2611c0-0.69532-0.56578-1.2584-1.2611-1.2584z" fill="#fff" fill-rule="evenodd"/>
  <path d="m-525.13 445.26c-0.69532 0-1.2611 0.56313-1.2611 1.2584 0 0.69797 0.56577 1.2611 1.2611 1.2611s1.2611-0.56313 1.2611-1.2611c0-0.69532-0.56578-1.2584-1.2611-1.2584" fill="none" stroke="#000" stroke-linecap="round" stroke-linejoin="round" stroke-width=".26438px"/>
  <path d="m-507.68 437.33c-0.69532 0-1.2611 0.56313-1.2611 1.2584 0 0.69796 0.56578 1.2611 1.2611 1.2611s1.2611-0.56313 1.2611-1.2611c0-0.69532-0.56577-1.2584-1.2611-1.2584z" fill="#fff" fill-rule="evenodd"/>
  <path d="m-507.68 437.33c-0.69532 0-1.2611 0.56313-1.2611 1.2584 0 0.69796 0.56578 1.2611 1.2611 1.2611s1.2611-0.56313 1.2611-1.2611c0-0.69532-0.56577-1.2584-1.2611-1.2584" fill="none" stroke="#000" stroke-linecap="round" stroke-linejoin="round" stroke-width=".26438px"/>
  <path d="m-506.36 452.13c-0.69532 0-1.2611 0.56314-1.2611 1.2585 0 0.69796 0.56578 1.2611 1.2611 1.2611s1.2611-0.56313 1.2611-1.2611c0-0.69532-0.56578-1.2585-1.2611-1.2585z" fill="#fff" fill-rule="evenodd"/>
  <path d="m-506.36 452.13c-0.69532 0-1.2611 0.56314-1.2611 1.2585 0 0.69796 0.56578 1.2611 1.2611 1.2611s1.2611-0.56313 1.2611-1.2611c0-0.69532-0.56578-1.2585-1.2611-1.2585" fill="none" stroke="#000" stroke-linecap="round" stroke-linejoin="round" stroke-width=".26438px"/>
  <g transform="matrix(.26458 0 0 .26458 -546.52 431.34)" clip-path="url(#clipEmfPath11-4)">
   <text transform="translate(39.809 46.205)" fill="#000000" font-family="Calibri" font-size="14.688px" font-weight="400" letter-spacing="0px" word-spacing="0px" style="line-height:125%" xml:space="preserve"><tspan x="0" y="0" font-family="Calibri" font-size="14.688px" font-weight="400"><tspan dx="0" dy="0" fill="#000000">A </tspan><tspan dx="0" dy="0" fill="#ff0000">[175]</tspan><tspan dx="0" dy="0" fill="#000000"/></tspan></text>
  </g>
  <g transform="matrix(.26458 0 0 .26458 -546.52 431.34)" clip-path="url(#clipEmfPath12-4)">
   <text transform="translate(136.7 18.546)" fill="#000000" font-family="Calibri" font-size="14.688px" font-weight="400" letter-spacing="0px" word-spacing="0px" style="line-height:125%" xml:space="preserve"><tspan x="0" y="0" font-family="Calibri" font-size="14.688px" font-weight="400"><tspan dx="0" dy="0" fill="#000000">NB </tspan><tspan dx="0" dy="0" fill="#ff0000">[104]</tspan><tspan dx="0" dy="0" fill="#ff0000"/></tspan></text>
  </g>
  <g transform="matrix(.26458 0 0 .26458 -546.52 431.34)" clip-path="url(#clipEmfPath13-80)">
   <text transform="translate(140.69 72.265)" fill="#000000" font-family="Calibri" font-size="14.688px" font-weight="400" letter-spacing="0px" word-spacing="0px" style="line-height:125%" xml:space="preserve"><tspan x="0" y="0" font-family="Calibri" font-size="14.688px" font-weight="400"><tspan dx="0" dy="0" fill="#000000">MR </tspan><tspan dx="0" dy="0" fill="#ff0000">[96]</tspan><tspan dx="0" dy="0" fill="#000000"/></tspan></text>
  </g>
  <g transform="matrix(.26458 0 0 .26458 -546.52 431.34)" clip-path="url(#clipEmfPath14-1)">
   <text transform="translate(49.722 152.2)" fill="#000000" font-family="Calibri" font-size="14.688px" font-weight="400" letter-spacing="0px" word-spacing="0px" style="line-height:125%" xml:space="preserve"><tspan x="0" y="0" font-family="Calibri" font-size="14.688px" font-weight="400"><tspan dx="0" dy="0" fill="#000000">E </tspan><tspan dx="0" dy="0" fill="#ff0000">[172]</tspan><tspan dx="0" dy="0" fill="#000000"/></tspan></text>
  </g>
  <g transform="matrix(.26458 0 0 .26458 -546.52 431.34)" clip-path="url(#clipEmfPath15-4)">
   <text transform="translate(150.76 139.09)" fill="#000000" font-family="Calibri" font-size="14.688px" font-weight="400" letter-spacing="0px" word-spacing="0px" style="line-height:125%" xml:space="preserve"><tspan x="0" y="0" font-family="Calibri" font-size="14.688px" font-weight="400"><tspan dx="0" dy="0" fill="#999999">P</tspan><tspan dx="0" dy="0" fill="#000000"/><tspan dx="0" dy="0" fill="#ff0000">[76]</tspan><tspan dx="0" dy="0" fill="#000000"/></tspan></text>
  </g>
  <path transform="matrix(.26458 0 0 .26458 -546.52 431.34)" d="m150.76 135.42h7.6741v0.95927h-7.6741z" clip-path="url(#clipEmfPath15-4)" fill="#999" fill-rule="evenodd"/>
  <g transform="matrix(.26458 0 0 .26458 -546.52 431.34)" clip-path="url(#clipEmfPath16-64)">
   <text transform="translate(308.56 93.209)" fill="#000000" font-family="Calibri" font-size="14.688px" font-weight="400" letter-spacing="0px" word-spacing="0px" style="line-height:125%" xml:space="preserve"><tspan x="0" y="0" font-family="Calibri" font-size="14.688px" font-weight="400"><tspan dx="0" dy="0" fill="#999999">Y</tspan><tspan dx="0" dy="0" fill="#000000"/><tspan dx="0" dy="0" fill="#ff0000">[0]</tspan><tspan dx="0" dy="0" fill="#ff0000"/></tspan></text>
  </g>
  <path transform="matrix(.26458 0 0 .26458 -546.52 431.34)" d="m308.56 89.531h7.1945v0.95926h-7.1945z" clip-path="url(#clipEmfPath16-64)" fill="#999" fill-rule="evenodd"/>
 </g>
</svg>
