<?xml version="1.0" encoding="UTF-8"?>
<!-- Created with Inkscape (http://www.inkscape.org/) -->
<svg width="84.991mm" height="38.625mm" version="1.1" viewBox="0 0 84.991406 38.625272" xmlns="http://www.w3.org/2000/svg" xmlns:cc="http://creativecommons.org/ns#" xmlns:dc="http://purl.org/dc/elements/1.1/" xmlns:rdf="http://www.w3.org/1999/02/22-rdf-syntax-ns#">
 <defs>
  <clipPath id="clipEmfPath1-0">
   <path d="m199.05 70.666h44.926v16.467h-44.926z"/>
  </clipPath>
  <clipPath id="clipEmfPath2-0">
   <path d="m110.16 49.722h44.926v16.307h-44.926z"/>
  </clipPath>
  <clipPath id="clipEmfPath3-0">
   <path d="m123.11 88.572h44.926v16.467h-44.926z"/>
  </clipPath>
  <clipPath id="clipEmfPath4-8">
   <path d="m190.09 107.6h44.926v16.467h-44.926z"/>
  </clipPath>
  <clipPath id="clipEmfPath5-80">
   <path d="m98.165 123.59h44.926v16.467h-44.926z"/>
  </clipPath>
  <clipPath id="clipEmfPath6-34">
   <path d="m17.267 107.6h44.926v16.467h-44.926z"/>
  </clipPath>
  <clipPath id="clipEmfPath7-34">
   <path d="m24.141 50.681h45.085v16.467h-45.085z"/>
  </clipPath>
  <clipPath id="clipEmfPath8-03">
   <path d="m86.174 21.743h44.926v16.307h-44.926z"/>
  </clipPath>
  <clipPath id="clipEmfPath9-52">
   <path d="m200.01 33.734h45.085v16.307h-45.085z"/>
  </clipPath>
  <clipPath id="clipEmfPath10-0">
   <path d="m0.15988 59.634h45.085v16.467h-45.085z"/>
  </clipPath>
  <clipPath id="clipEmfPath11-46">
   <path d="m30.217 27.659h98.964v21.424h-98.964z"/>
  </clipPath>
  <clipPath id="clipEmfPath12-21">
   <path d="m127.1 0h125.98v19.345h-125.98z"/>
  </clipPath>
  <clipPath id="clipEmfPath13-974">
   <path d="m131.1 53.719h82.976v18.386h-82.976z"/>
  </clipPath>
  <clipPath id="clipEmfPath14-08">
   <path d="m40.129 133.66h117.03v20.304h-117.03z"/>
  </clipPath>
  <clipPath id="clipEmfPath15-19">
   <path d="m141.17 120.55h62.832v19.505h-62.832z"/>
  </clipPath>
  <clipPath id="clipEmfPath16-4">
   <path d="m298.97 74.663h66.029v20.464h-66.029z"/>
  </clipPath>
 </defs>
 <metadata>
  <rdf:RDF>
   <cc:Work rdf:about="">
    <dc:format>image/svg+xml</dc:format>
    <dc:type rdf:resource="http://purl.org/dc/dcmitype/StillImage"/>
    <dc:title/>
   </cc:Work>
  </rdf:RDF>
 </metadata>
 <g transform="matrix(1 0 0 1 556.92 -480.31)">
  <text x="-559.46246" y="524.96436" fill="#000000" font-family="Calibri" font-size="3.8861px" font-weight="400" letter-spacing="0px" stroke-width=".26458" word-spacing="0px" style="line-height:125%" xml:space="preserve"><tspan x="0" y="0" stroke-width=".26458"><tspan dx="0" dy="0" fill="#000000" font-family="Calibri" font-size="3.8861px" font-weight="400" stroke-width=".26458"/></tspan></text>
  <g fill="none" stroke="#000" stroke-linejoin="round">
   <path d="m-555.2 500.96 16.92-7.4027" stroke-width=".26438px"/>
   <path d="m-538.54 493.3 17.978-8.1958" stroke-width=".52876px"/>
   <path d="m-520.83 485.1 44.416 20.093" stroke-width=".52876px"/>
   <path d="m-538.28 493.03 18.771 7.1383" stroke-width=".26438px"/>
   <path d="m-519.51 500.17 43.094 5.2876" stroke-width=".52876px"/>
   <path d="m-555.73 500.7 16.656 12.426" stroke-width=".26438px"/>
   <path d="m-539.07 512.86 20.093-3.7013" stroke-width=".52876px"/>
   <path d="m-519.51 508.63v-8.1958" stroke-width=".26438px"/>
  </g>
  <g transform="matrix(.26458 0 0 .26458 -559.46 479.32)" clip-path="url(#clipEmfPath1-0)">
   <text transform="translate(208.64 84.415)" fill="#000000" font-family="Calibri" font-size="14.688px" font-weight="400" letter-spacing="0px" word-spacing="0px" style="line-height:125%" xml:space="preserve"><tspan x="0" y="0" fill="#000000" font-family="Calibri" font-size="14.688px" font-weight="400"><tspan dx="0" dy="0">96</tspan><tspan dx="0" dy="0"/></tspan></text>
  </g>
  <g transform="matrix(.26458 0 0 .26458 -559.46 479.32)" clip-path="url(#clipEmfPath2-0)">
   <text transform="translate(119.75 63.471)" fill="#000000" font-family="Calibri" font-size="14.688px" font-weight="400" letter-spacing="0px" word-spacing="0px" style="line-height:125%" xml:space="preserve"><tspan x="0" y="0" fill="#000000" font-family="Calibri" font-size="14.688px" font-weight="400"><tspan dx="0" dy="0">79</tspan><tspan dx="0" dy="0"/></tspan></text>
  </g>
  <g transform="matrix(.26458 0 0 .26458 -559.46 479.32)" clip-path="url(#clipEmfPath3-0)">
   <text transform="translate(132.7 102.32)" fill="#000000" font-family="Calibri" font-size="14.688px" font-weight="400" letter-spacing="0px" word-spacing="0px" style="line-height:125%" xml:space="preserve"><tspan x="0" y="0" fill="#000000" font-family="Calibri" font-size="14.688px" font-weight="400"><tspan dx="0" dy="0">27</tspan><tspan dx="0" dy="0"/></tspan></text>
  </g>
  <g transform="matrix(.26458 0 0 .26458 -559.46 479.32)" clip-path="url(#clipEmfPath4-8)">
   <text transform="translate(199.69 121.35)" fill="#000000" font-family="Calibri" font-size="14.688px" font-weight="400" letter-spacing="0px" word-spacing="0px" style="line-height:125%" xml:space="preserve"><tspan x="0" y="0" fill="#000000" font-family="Calibri" font-size="14.688px" font-weight="400"><tspan dx="0" dy="0">76</tspan><tspan dx="0" dy="0"/></tspan></text>
  </g>
  <g transform="matrix(.26458 0 0 .26458 -559.46 479.32)" clip-path="url(#clipEmfPath5-80)">
   <text transform="translate(107.76 137.33)" fill="#000000" font-family="Calibri" font-size="14.688px" font-weight="400" letter-spacing="0px" word-spacing="0px" style="line-height:125%" xml:space="preserve"><tspan x="0" y="0" fill="#000000" font-family="Calibri" font-size="14.688px" font-weight="400"><tspan dx="0" dy="0">96</tspan><tspan dx="0" dy="0"/></tspan></text>
  </g>
  <g transform="matrix(.26458 0 0 .26458 -559.46 479.32)" clip-path="url(#clipEmfPath6-34)">
   <text transform="translate(26.859 121.35)" fill="#000000" font-family="Calibri" font-size="14.688px" font-weight="400" letter-spacing="0px" word-spacing="0px" style="line-height:125%" xml:space="preserve"><tspan x="0" y="0" fill="#000000" font-family="Calibri" font-size="14.688px" font-weight="400"><tspan dx="0" dy="0">57</tspan><tspan dx="0" dy="0"/></tspan></text>
  </g>
  <g transform="matrix(.26458 0 0 .26458 -559.46 479.32)" clip-path="url(#clipEmfPath7-34)">
   <text transform="translate(33.734 64.431)" fill="#000000" font-family="Calibri" font-size="14.688px" font-weight="400" letter-spacing="0px" word-spacing="0px" style="line-height:125%" xml:space="preserve"><tspan x="0" y="0" fill="#000000" font-family="Calibri" font-size="14.688px" font-weight="400"><tspan dx="0" dy="0">20</tspan><tspan dx="0" dy="0"/></tspan></text>
  </g>
  <g transform="matrix(.26458 0 0 .26458 -559.46 479.32)" clip-path="url(#clipEmfPath8-03)">
   <text transform="translate(95.767 35.493)" fill="#000000" font-family="Calibri" font-size="14.688px" font-weight="400" letter-spacing="0px" word-spacing="0px" style="line-height:125%" xml:space="preserve"><tspan x="0" y="0" fill="#000000" font-family="Calibri" font-size="14.688px" font-weight="400"><tspan dx="0" dy="0">36</tspan><tspan dx="0" dy="0"/></tspan></text>
  </g>
  <g transform="matrix(.26458 0 0 .26458 -559.46 479.32)" clip-path="url(#clipEmfPath9-52)">
   <text transform="translate(209.6 47.484)" fill="#000000" font-family="Calibri" font-size="14.688px" font-weight="400" letter-spacing="0px" word-spacing="0px" style="line-height:125%" xml:space="preserve"><tspan x="0" y="0" fill="#000000" font-family="Calibri" font-size="14.688px" font-weight="400"><tspan dx="0" dy="0">104</tspan><tspan dx="0" dy="0"/></tspan></text>
  </g>
  <g transform="matrix(.26458 0 0 .26458 -559.46 479.32)" clip-path="url(#clipEmfPath10-0)">
   <text transform="translate(9.7525 73.384)" fill="#000000" font-family="Calibri" font-size="14.688px" font-weight="400" letter-spacing="0px" word-spacing="0px" style="line-height:125%" xml:space="preserve"><tspan x="0" y="0" fill="#000000" font-family="Calibri" font-size="14.688px" font-weight="400"><tspan dx="0" dy="0">T</tspan><tspan dx="0" dy="0"/></tspan></text>
  </g>
  <path d="m-519.24 509.16 42.565-3.7013" fill="none" stroke="#000" stroke-linejoin="round" stroke-width=".52876px"/>
  <path d="m-476.48 504.14c-0.69532 0-1.2611 0.56313-1.2611 1.2584 0 0.69796 0.56577 1.2611 1.2611 1.2611s1.2611-0.56313 1.2611-1.2611c0-0.69532-0.56578-1.2584-1.2611-1.2584z" fill="#fff" fill-rule="evenodd"/>
  <path d="m-476.48 504.14c-0.69532 0-1.2611 0.56313-1.2611 1.2584 0 0.69796 0.56577 1.2611 1.2611 1.2611s1.2611-0.56313 1.2611-1.2611c0-0.69532-0.56578-1.2584-1.2611-1.2584" fill="none" stroke="#000" stroke-linecap="round" stroke-linejoin="round" stroke-width=".26438px"/>
  <path d="m-519.04 508.1c-0.69532 0-1.2611 0.56313-1.2611 1.2584 0 0.69797 0.56578 1.2611 1.2611 1.2611s1.2611-0.56313 1.2611-1.2611c0-0.69532-0.56577-1.2584-1.2611-1.2584z" fill="#fff" fill-rule="evenodd"/>
  <path d="m-519.04 508.1c-0.69532 0-1.2611 0.56313-1.2611 1.2584 0 0.69797 0.56578 1.2611 1.2611 1.2611s1.2611-0.56313 1.2611-1.2611c0-0.69532-0.56577-1.2584-1.2611-1.2584" fill="none" stroke="#000" stroke-linecap="round" stroke-linejoin="round" stroke-width=".26438px"/>
  <path d="m-539.13 511.8c-0.69533 0-1.2611 0.56313-1.2611 1.2584 0 0.69797 0.56577 1.2611 1.2611 1.2611 0.69532 0 1.2611-0.56313 1.2611-1.2611 0-0.69532-0.56577-1.2584-1.2611-1.2584z" fill="#fff" fill-rule="evenodd"/>
  <path d="m-539.13 511.8c-0.69533 0-1.2611 0.56313-1.2611 1.2584 0 0.69797 0.56577 1.2611 1.2611 1.2611 0.69532 0 1.2611-0.56313 1.2611-1.2611 0-0.69532-0.56577-1.2584-1.2611-1.2584" fill="none" stroke="#000" stroke-linecap="round" stroke-linejoin="round" stroke-width=".26438px"/>
  <path d="m-555.53 499.91c-0.69532 0-1.2611 0.56313-1.2611 1.2584 0 0.69796 0.56577 1.2611 1.2611 1.2611s1.2611-0.56313 1.2611-1.2611c0-0.69532-0.56578-1.2584-1.2611-1.2584z" fill="#fff" fill-rule="evenodd"/>
  <path d="m-555.53 499.91c-0.69532 0-1.2611 0.56313-1.2611 1.2584 0 0.69796 0.56577 1.2611 1.2611 1.2611s1.2611-0.56313 1.2611-1.2611c0-0.69532-0.56578-1.2584-1.2611-1.2584" fill="none" stroke="#000" stroke-linecap="round" stroke-linejoin="round" stroke-width=".26438px"/>
  <path d="m-538.08 491.97c-0.69532 0-1.2611 0.56313-1.2611 1.2584 0 0.69797 0.56578 1.2611 1.2611 1.2611s1.2611-0.56313 1.2611-1.2611c0-0.69532-0.56577-1.2584-1.2611-1.2584z" fill="#fff" fill-rule="evenodd"/>
  <path d="m-538.08 491.97c-0.69532 0-1.2611 0.56313-1.2611 1.2584 0 0.69797 0.56578 1.2611 1.2611 1.2611s1.2611-0.56313 1.2611-1.2611c0-0.69532-0.56577-1.2584-1.2611-1.2584" fill="none" stroke="#000" stroke-linecap="round" stroke-linejoin="round" stroke-width=".26438px"/>
  <path d="m-520.63 484.04c-0.69532 0-1.2611 0.56314-1.2611 1.2585 0 0.69796 0.56577 1.2611 1.2611 1.2611s1.2611-0.56313 1.2611-1.2611c0-0.69532-0.56578-1.2585-1.2611-1.2585z" fill="#fff" fill-rule="evenodd"/>
  <path d="m-520.63 484.04c-0.69532 0-1.2611 0.56314-1.2611 1.2585 0 0.69796 0.56577 1.2611 1.2611 1.2611s1.2611-0.56313 1.2611-1.2611c0-0.69532-0.56578-1.2585-1.2611-1.2585" fill="none" stroke="#000" stroke-linecap="round" stroke-linejoin="round" stroke-width=".26438px"/>
  <path d="m-519.31 498.85c-0.69533 0-1.2611 0.56314-1.2611 1.2585 0 0.69796 0.56577 1.2611 1.2611 1.2611 0.69532 0 1.2611-0.56313 1.2611-1.2611 0-0.69532-0.56577-1.2585-1.2611-1.2585z" fill="#fff" fill-rule="evenodd"/>
  <path d="m-519.31 498.85c-0.69533 0-1.2611 0.56314-1.2611 1.2585 0 0.69796 0.56577 1.2611 1.2611 1.2611 0.69532 0 1.2611-0.56313 1.2611-1.2611 0-0.69532-0.56577-1.2585-1.2611-1.2585" fill="none" stroke="#000" stroke-linecap="round" stroke-linejoin="round" stroke-width=".26438px"/>
  <g transform="matrix(.26458 0 0 .26458 -559.46 479.32)" clip-path="url(#clipEmfPath11-46)">
   <text transform="translate(39.809 41.408)" fill="#000000" font-family="Calibri" font-size="14.688px" font-weight="400" letter-spacing="0px" word-spacing="0px" style="line-height:125%" xml:space="preserve"><tspan x="0" y="0" font-family="Calibri" font-size="14.688px" font-weight="400"><tspan dx="0" dy="0" fill="#000000">A </tspan><tspan dx="0" dy="0" fill="#ff0000">[1</tspan><tspan dx="0" dy="0" fill="#ff0000">40</tspan><tspan dx="0" dy="0" fill="#ff0000">]</tspan><tspan dx="0" dy="0" fill="#000000"/></tspan></text>
  </g>
  <g transform="matrix(.26458 0 0 .26458 -559.46 479.32)" clip-path="url(#clipEmfPath12-21)">
   <text transform="translate(136.7 13.749)" fill="#000000" font-family="Calibri" font-size="14.688px" font-weight="400" letter-spacing="0px" word-spacing="0px" style="line-height:125%" xml:space="preserve"><tspan x="0" y="0" font-family="Calibri" font-size="14.688px" font-weight="400"><tspan dx="0" dy="0" fill="#000000">NB </tspan><tspan dx="0" dy="0" fill="#ff0000">[104]</tspan><tspan dx="0" dy="0" fill="#ff0000"/></tspan></text>
  </g>
  <g transform="matrix(.26458 0 0 .26458 -559.46 479.32)" clip-path="url(#clipEmfPath13-974)">
   <text transform="translate(140.69 67.468)" fill="#000000" font-family="Calibri" font-size="14.688px" font-weight="400" letter-spacing="0px" word-spacing="0px" style="line-height:125%" xml:space="preserve"><tspan x="0" y="0" font-family="Calibri" font-size="14.688px" font-weight="400"><tspan dx="0" dy="0" fill="#999999">MR</tspan><tspan dx="0" dy="0" fill="#000000"/><tspan dx="0" dy="0" fill="#ff0000">[96]</tspan><tspan dx="0" dy="0" fill="#000000"/></tspan></text>
  </g>
  <path transform="matrix(.26458 0 0 .26458 -559.46 479.32)" d="m140.69 63.791h20.624v0.95926h-20.624z" clip-path="url(#clipEmfPath13-974)" fill="#999" fill-rule="evenodd"/>
  <g transform="matrix(.26458 0 0 .26458 -559.46 479.32)" clip-path="url(#clipEmfPath14-08)">
   <text transform="translate(49.722 147.41)" fill="#000000" font-family="Calibri" font-size="14.688px" font-weight="400" letter-spacing="0px" word-spacing="0px" style="line-height:125%" xml:space="preserve"><tspan x="0" y="0" font-family="Calibri" font-size="14.688px" font-weight="400"><tspan dx="0" dy="0" fill="#000000">E </tspan><tspan dx="0" dy="0" fill="#ff0000">[172]</tspan><tspan dx="0" dy="0" fill="#000000"/></tspan></text>
  </g>
  <g transform="matrix(.26458 0 0 .26458 -559.46 479.32)" clip-path="url(#clipEmfPath15-19)">
   <text transform="translate(150.76 134.3)" fill="#000000" font-family="Calibri" font-size="14.688px" font-weight="400" letter-spacing="0px" word-spacing="0px" style="line-height:125%" xml:space="preserve"><tspan x="0" y="0" font-family="Calibri" font-size="14.688px" font-weight="400"><tspan dx="0" dy="0" fill="#999999">P</tspan><tspan dx="0" dy="0" fill="#000000"/><tspan dx="0" dy="0" fill="#ff0000">[76]</tspan><tspan dx="0" dy="0" fill="#000000"/></tspan></text>
  </g>
  <path transform="matrix(.26458 0 0 .26458 -559.46 479.32)" d="m150.76 130.62h7.6741v0.95927h-7.6741z" clip-path="url(#clipEmfPath15-19)" fill="#999" fill-rule="evenodd"/>
  <g transform="matrix(.26458 0 0 .26458 -559.46 479.32)" clip-path="url(#clipEmfPath16-4)">
   <text transform="translate(308.56 88.412)" fill="#000000" font-family="Calibri" font-size="14.688px" font-weight="400" letter-spacing="0px" word-spacing="0px" style="line-height:125%" xml:space="preserve"><tspan x="0" y="0" font-family="Calibri" font-size="14.688px" font-weight="400"><tspan dx="0" dy="0" fill="#999999">Y</tspan><tspan dx="0" dy="0" fill="#000000"/><tspan dx="0" dy="0" fill="#ff0000">[0]</tspan><tspan dx="0" dy="0" fill="#ff0000"/></tspan></text>
  </g>
  <path transform="matrix(.26458 0 0 .26458 -559.46 479.32)" d="m308.56 84.735h7.1945v0.95926h-7.1945z" clip-path="url(#clipEmfPath16-4)" fill="#999" fill-rule="evenodd"/>
 </g>
</svg>
