<?xml version="1.0" encoding="UTF-8"?>
<!-- Created with Inkscape (http://www.inkscape.org/) -->
<svg width="93.386mm" height="38.625mm" version="1.1" viewBox="0 0 93.386146 38.625272" xmlns="http://www.w3.org/2000/svg" xmlns:cc="http://creativecommons.org/ns#" xmlns:dc="http://purl.org/dc/elements/1.1/" xmlns:rdf="http://www.w3.org/1999/02/22-rdf-syntax-ns#">
 <defs>
  <clipPath id="clipEmfPath1-27">
   <path d="m231.02 70.666h44.926v16.467h-44.926z"/>
  </clipPath>
  <clipPath id="clipEmfPath2-36">
   <path d="m141.97 49.722h45.085v16.467h-45.085z"/>
  </clipPath>
  <clipPath id="clipEmfPath3-74">
   <path d="m155.08 88.732h44.926v16.307h-44.926z"/>
  </clipPath>
  <clipPath id="clipEmfPath4-5">
   <path d="m221.91 107.76h45.085v16.307h-45.085z"/>
  </clipPath>
  <clipPath id="clipEmfPath5-50">
   <path d="m129.98 123.75h45.085v16.307h-45.085z"/>
  </clipPath>
  <clipPath id="clipEmfPath6-86">
   <path d="m49.082 107.76h44.926v16.307h-44.926z"/>
  </clipPath>
  <clipPath id="clipEmfPath7-129">
   <path d="m56.117 50.681h44.926v16.467h-44.926z"/>
  </clipPath>
  <clipPath id="clipEmfPath8-13">
   <path d="m117.99 21.743h45.085v16.467h-45.085z"/>
  </clipPath>
  <clipPath id="clipEmfPath9-8">
   <path d="m231.98 33.734h44.926v16.467h-44.926z"/>
  </clipPath>
  <clipPath id="clipEmfPath10-98">
   <path d="m0.15988 58.675h89.851v16.467h-89.851z"/>
  </clipPath>
  <clipPath id="clipEmfPath11-8">
   <path d="m62.032 27.819h98.964v21.264h-98.964z"/>
  </clipPath>
  <clipPath id="clipEmfPath12-80">
   <path d="m159.08 0h125.82v19.345h-125.82z"/>
  </clipPath>
  <clipPath id="clipEmfPath13-0">
   <path d="m163.07 53.719h82.816v18.386h-82.816z"/>
  </clipPath>
  <clipPath id="clipEmfPath14-66">
   <path d="m72.105 133.66h116.87v20.464h-116.87z"/>
  </clipPath>
  <clipPath id="clipEmfPath15-51">
   <path d="m172.99 120.71h62.992v19.345h-62.992z"/>
  </clipPath>
  <clipPath id="clipEmfPath16-60">
   <path d="m330.95 74.823h65.869v20.304h-65.869z"/>
  </clipPath>
 </defs>
 <metadata>
  <rdf:RDF>
   <cc:Work rdf:about="">
    <dc:format>image/svg+xml</dc:format>
    <dc:type rdf:resource="http://purl.org/dc/dcmitype/StillImage"/>
    <dc:title/>
   </cc:Work>
  </rdf:RDF>
 </metadata>
 <g transform="matrix(1 0 0 1 512.72 -601.88)">
  <text x="-515.3222" y="646.57721" fill="#000000" font-family="Calibri" font-size="3.8861px" font-weight="400" letter-spacing="0px" stroke-width=".26458" word-spacing="0px" style="line-height:125%" xml:space="preserve"><tspan x="0" y="0" stroke-width=".26458"><tspan dx="0" dy="0" fill="#000000" font-family="Calibri" font-size="3.8861px" font-weight="400" stroke-width=".26458"/></tspan></text>
  <g fill="none" stroke="#000" stroke-linejoin="round">
   <g stroke-width=".52876px">
    <path d="m-502.62 622.55 16.92-7.4026"/>
    <path d="m-485.96 614.88 17.978-8.1958"/>
    <path d="m-468.25 606.68 44.416 20.093"/>
   </g>
   <path d="m-485.7 614.61 18.771 7.1383" stroke-width=".26438px"/>
   <path d="m-466.92 621.75 43.094 5.2876" stroke-width=".52876px"/>
   <path d="m-503.14 622.28 16.656 12.426" stroke-width=".26438px"/>
   <path d="m-486.49 634.44 20.093-3.7013" stroke-width=".52876px"/>
   <path d="m-466.92 630.21v-8.1958" stroke-width=".26438px"/>
  </g>
  <g transform="matrix(.26458 0 0 .26458 -515.32 600.89)" clip-path="url(#clipEmfPath1-27)">
   <text transform="translate(240.62 84.415)" fill="#000000" font-family="Calibri" font-size="14.688px" font-weight="400" letter-spacing="0px" word-spacing="0px" style="line-height:125%" xml:space="preserve"><tspan x="0" y="0" fill="#000000" font-family="Calibri" font-size="14.688px" font-weight="400"><tspan dx="0" dy="0">96</tspan><tspan dx="0" dy="0"/></tspan></text>
  </g>
  <g transform="matrix(.26458 0 0 .26458 -515.32 600.89)" clip-path="url(#clipEmfPath2-36)">
   <text transform="translate(151.56 63.471)" fill="#000000" font-family="Calibri" font-size="14.688px" font-weight="400" letter-spacing="0px" word-spacing="0px" style="line-height:125%" xml:space="preserve"><tspan x="0" y="0" fill="#000000" font-family="Calibri" font-size="14.688px" font-weight="400"><tspan dx="0" dy="0">79</tspan><tspan dx="0" dy="0"/></tspan></text>
  </g>
  <g transform="matrix(.26458 0 0 .26458 -515.32 600.89)" clip-path="url(#clipEmfPath3-74)">
   <text transform="translate(164.67 102.48)" fill="#000000" font-family="Calibri" font-size="14.688px" font-weight="400" letter-spacing="0px" word-spacing="0px" style="line-height:125%" xml:space="preserve"><tspan x="0" y="0" fill="#000000" font-family="Calibri" font-size="14.688px" font-weight="400"><tspan dx="0" dy="0">27</tspan><tspan dx="0" dy="0"/></tspan></text>
  </g>
  <g transform="matrix(.26458 0 0 .26458 -515.32 600.89)" clip-path="url(#clipEmfPath4-5)">
   <text transform="translate(231.5 121.51)" fill="#000000" font-family="Calibri" font-size="14.688px" font-weight="400" letter-spacing="0px" word-spacing="0px" style="line-height:125%" xml:space="preserve"><tspan x="0" y="0" fill="#000000" font-family="Calibri" font-size="14.688px" font-weight="400"><tspan dx="0" dy="0">76</tspan><tspan dx="0" dy="0"/></tspan></text>
  </g>
  <g transform="matrix(.26458 0 0 .26458 -515.32 600.89)" clip-path="url(#clipEmfPath5-50)">
   <text transform="translate(139.57 137.49)" fill="#000000" font-family="Calibri" font-size="14.688px" font-weight="400" letter-spacing="0px" word-spacing="0px" style="line-height:125%" xml:space="preserve"><tspan x="0" y="0" fill="#000000" font-family="Calibri" font-size="14.688px" font-weight="400"><tspan dx="0" dy="0">96</tspan><tspan dx="0" dy="0"/></tspan></text>
  </g>
  <g transform="matrix(.26458 0 0 .26458 -515.32 600.89)" clip-path="url(#clipEmfPath6-86)">
   <text transform="translate(58.675 121.51)" fill="#000000" font-family="Calibri" font-size="14.688px" font-weight="400" letter-spacing="0px" word-spacing="0px" style="line-height:125%" xml:space="preserve"><tspan x="0" y="0" fill="#000000" font-family="Calibri" font-size="14.688px" font-weight="400"><tspan dx="0" dy="0">57</tspan><tspan dx="0" dy="0"/></tspan></text>
  </g>
  <g transform="matrix(.26458 0 0 .26458 -515.32 600.89)" clip-path="url(#clipEmfPath7-129)">
   <text transform="translate(65.71 64.431)" fill="#000000" font-family="Calibri" font-size="14.688px" font-weight="400" letter-spacing="0px" word-spacing="0px" style="line-height:125%" xml:space="preserve"><tspan x="0" y="0" fill="#000000" font-family="Calibri" font-size="14.688px" font-weight="400"><tspan dx="0" dy="0">20</tspan><tspan dx="0" dy="0"/></tspan></text>
  </g>
  <g transform="matrix(.26458 0 0 .26458 -515.32 600.89)" clip-path="url(#clipEmfPath8-13)">
   <text transform="translate(127.58 35.493)" fill="#000000" font-family="Calibri" font-size="14.688px" font-weight="400" letter-spacing="0px" word-spacing="0px" style="line-height:125%" xml:space="preserve"><tspan x="0" y="0" fill="#000000" font-family="Calibri" font-size="14.688px" font-weight="400"><tspan dx="0" dy="0">36</tspan><tspan dx="0" dy="0"/></tspan></text>
  </g>
  <g transform="matrix(.26458 0 0 .26458 -515.32 600.89)" clip-path="url(#clipEmfPath9-8)">
   <text transform="translate(241.57 47.484)" fill="#000000" font-family="Calibri" font-size="14.688px" font-weight="400" letter-spacing="0px" word-spacing="0px" style="line-height:125%" xml:space="preserve"><tspan x="0" y="0" fill="#000000" font-family="Calibri" font-size="14.688px" font-weight="400"><tspan dx="0" dy="0">104</tspan><tspan dx="0" dy="0"/></tspan></text>
  </g>
  <g transform="matrix(.26458 0 0 .26458 -515.32 600.89)" clip-path="url(#clipEmfPath10-98)">
   <text transform="translate(9.7525 72.424)" fill="#000000" font-family="Calibri" font-size="14.688px" font-weight="400" letter-spacing="0px" word-spacing="0px" style="line-height:125%" xml:space="preserve"><tspan x="0" y="0" font-family="Calibri" font-size="14.688px" font-weight="400"><tspan dx="0" dy="0" fill="#000000">T </tspan><tspan dx="0" dy="0" fill="#ff0000">[160]</tspan><tspan dx="0" dy="0" fill="#000000"/></tspan></text>
  </g>
  <path d="m-466.66 630.74 42.565-3.7013" fill="none" stroke="#000" stroke-linejoin="round" stroke-width=".52876px"/>
  <path d="m-423.89 625.72c-0.69268 0-1.2585 0.56577-1.2585 1.2584 0 0.69796 0.56578 1.2637 1.2585 1.2637 0.69796 0 1.2637-0.56578 1.2637-1.2637 0-0.69268-0.56578-1.2584-1.2637-1.2584z" fill="#fff" fill-rule="evenodd"/>
  <path d="m-423.89 625.72c-0.69268 0-1.2585 0.56577-1.2585 1.2584 0 0.69796 0.56578 1.2637 1.2585 1.2637 0.69796 0 1.2637-0.56578 1.2637-1.2637 0-0.69268-0.56578-1.2584-1.2637-1.2584" fill="none" stroke="#000" stroke-linecap="round" stroke-linejoin="round" stroke-width=".26438px"/>
  <path d="m-466.46 629.68c-0.69532 0-1.2584 0.56314-1.2584 1.2585 0 0.69796 0.56313 1.2611 1.2584 1.2611 0.69796 0 1.2611-0.56313 1.2611-1.2611 0-0.69532-0.56314-1.2585-1.2611-1.2585z" fill="#fff" fill-rule="evenodd"/>
  <path d="m-466.46 629.68c-0.69532 0-1.2584 0.56314-1.2584 1.2585 0 0.69796 0.56313 1.2611 1.2584 1.2611 0.69796 0 1.2611-0.56313 1.2611-1.2611 0-0.69532-0.56314-1.2585-1.2611-1.2585" fill="none" stroke="#000" stroke-linecap="round" stroke-linejoin="round" stroke-width=".26438px"/>
  <path d="m-486.55 633.38c-0.69532 0-1.2584 0.56313-1.2584 1.2584 0 0.69797 0.56313 1.2611 1.2584 1.2611 0.69797 0 1.2611-0.56313 1.2611-1.2611 0-0.69532-0.56312-1.2584-1.2611-1.2584z" fill="#fff" fill-rule="evenodd"/>
  <path d="m-486.55 633.38c-0.69532 0-1.2584 0.56313-1.2584 1.2584 0 0.69797 0.56313 1.2611 1.2584 1.2611 0.69797 0 1.2611-0.56313 1.2611-1.2611 0-0.69532-0.56312-1.2584-1.2611-1.2584" fill="none" stroke="#000" stroke-linecap="round" stroke-linejoin="round" stroke-width=".26438px"/>
  <path d="m-502.94 621.49c-0.69532 0-1.2584 0.56313-1.2584 1.2584 0 0.69796 0.56313 1.2611 1.2584 1.2611 0.69796 0 1.2611-0.56313 1.2611-1.2611 0-0.69532-0.56313-1.2584-1.2611-1.2584z" fill="#fff" fill-rule="evenodd"/>
  <path d="m-502.94 621.49c-0.69532 0-1.2584 0.56313-1.2584 1.2584 0 0.69796 0.56313 1.2611 1.2584 1.2611 0.69796 0 1.2611-0.56313 1.2611-1.2611 0-0.69532-0.56313-1.2584-1.2611-1.2584" fill="none" stroke="#000" stroke-linecap="round" stroke-linejoin="round" stroke-width=".26438px"/>
  <path d="m-485.49 613.56c-0.69532 0-1.2584 0.56313-1.2584 1.2584 0 0.69797 0.56313 1.2611 1.2584 1.2611 0.69797 0 1.2611-0.56313 1.2611-1.2611 0-0.69532-0.56313-1.2584-1.2611-1.2584z" fill="#fff" fill-rule="evenodd"/>
  <path d="m-485.49 613.56c-0.69532 0-1.2584 0.56313-1.2584 1.2584 0 0.69797 0.56313 1.2611 1.2584 1.2611 0.69797 0 1.2611-0.56313 1.2611-1.2611 0-0.69532-0.56313-1.2584-1.2611-1.2584" fill="none" stroke="#000" stroke-linecap="round" stroke-linejoin="round" stroke-width=".26438px"/>
  <path d="m-468.05 605.62c-0.69532 0-1.2585 0.56313-1.2585 1.2584 0 0.69796 0.56314 1.2611 1.2585 1.2611 0.69796 0 1.2611-0.56313 1.2611-1.2611 0-0.69532-0.56313-1.2584-1.2611-1.2584z" fill="#fff" fill-rule="evenodd"/>
  <path d="m-468.05 605.62c-0.69532 0-1.2585 0.56313-1.2585 1.2584 0 0.69796 0.56314 1.2611 1.2585 1.2611 0.69796 0 1.2611-0.56313 1.2611-1.2611 0-0.69532-0.56313-1.2584-1.2611-1.2584" fill="none" stroke="#000" stroke-linecap="round" stroke-linejoin="round" stroke-width=".26438px"/>
  <path d="m-466.72 620.43c-0.69532 0-1.2584 0.56313-1.2584 1.2584 0 0.69796 0.56313 1.2611 1.2584 1.2611 0.69796 0 1.2611-0.56313 1.2611-1.2611 0-0.69532-0.56314-1.2584-1.2611-1.2584z" fill="#fff" fill-rule="evenodd"/>
  <path d="m-466.72 620.43c-0.69532 0-1.2584 0.56313-1.2584 1.2584 0 0.69796 0.56313 1.2611 1.2584 1.2611 0.69796 0 1.2611-0.56313 1.2611-1.2611 0-0.69532-0.56314-1.2584-1.2611-1.2584" fill="none" stroke="#000" stroke-linecap="round" stroke-linejoin="round" stroke-width=".26438px"/>
  <g transform="matrix(.26458 0 0 .26458 -515.32 600.89)" clip-path="url(#clipEmfPath11-8)">
   <text transform="translate(71.625 41.568)" fill="#000000" font-family="Calibri" font-size="14.688px" font-weight="400" letter-spacing="0px" word-spacing="0px" style="line-height:125%" xml:space="preserve"><tspan x="0" y="0" font-family="Calibri" font-size="14.688px" font-weight="400"><tspan dx="0" dy="0" fill="#000000">A </tspan><tspan dx="0" dy="0" fill="#ff0000">[1</tspan><tspan dx="0" dy="0" fill="#ff0000">40</tspan><tspan dx="0" dy="0" fill="#ff0000">]</tspan><tspan dx="0" dy="0" fill="#000000"/></tspan></text>
  </g>
  <g transform="matrix(.26458 0 0 .26458 -515.32 600.89)" clip-path="url(#clipEmfPath12-80)">
   <text transform="translate(168.67 13.749)" fill="#000000" font-family="Calibri" font-size="14.688px" font-weight="400" letter-spacing="0px" word-spacing="0px" style="line-height:125%" xml:space="preserve"><tspan x="0" y="0" font-family="Calibri" font-size="14.688px" font-weight="400"><tspan dx="0" dy="0" fill="#999999">NB</tspan><tspan dx="0" dy="0" fill="#000000"/><tspan dx="0" dy="0" fill="#ff0000">[104]</tspan><tspan dx="0" dy="0" fill="#ff0000"/></tspan></text>
  </g>
  <path transform="matrix(.26458 0 0 .26458 -515.32 600.89)" d="m168.67 10.072h17.427v0.95926h-17.427z" clip-path="url(#clipEmfPath12-80)" fill="#999" fill-rule="evenodd"/>
  <g transform="matrix(.26458 0 0 .26458 -515.32 600.89)" clip-path="url(#clipEmfPath13-0)">
   <text transform="translate(172.67 67.468)" fill="#000000" font-family="Calibri" font-size="14.688px" font-weight="400" letter-spacing="0px" word-spacing="0px" style="line-height:125%" xml:space="preserve"><tspan x="0" y="0" font-family="Calibri" font-size="14.688px" font-weight="400"><tspan dx="0" dy="0" fill="#999999">MR</tspan><tspan dx="0" dy="0" fill="#000000"/><tspan dx="0" dy="0" fill="#ff0000">[96]</tspan><tspan dx="0" dy="0" fill="#000000"/></tspan></text>
  </g>
  <path transform="matrix(.26458 0 0 .26458 -515.32 600.89)" d="m172.67 63.791h20.624v0.95926h-20.624z" clip-path="url(#clipEmfPath13-0)" fill="#999" fill-rule="evenodd"/>
  <g transform="matrix(.26458 0 0 .26458 -515.32 600.89)" clip-path="url(#clipEmfPath14-66)">
   <text transform="translate(81.697 147.41)" fill="#000000" font-family="Calibri" font-size="14.688px" font-weight="400" letter-spacing="0px" word-spacing="0px" style="line-height:125%" xml:space="preserve"><tspan x="0" y="0" font-family="Calibri" font-size="14.688px" font-weight="400"><tspan dx="0" dy="0" fill="#000000">E </tspan><tspan dx="0" dy="0" fill="#ff0000">[172]</tspan><tspan dx="0" dy="0" fill="#000000"/></tspan></text>
  </g>
  <g transform="matrix(.26458 0 0 .26458 -515.32 600.89)" clip-path="url(#clipEmfPath15-51)">
   <text transform="translate(182.58 134.46)" fill="#000000" font-family="Calibri" font-size="14.688px" font-weight="400" letter-spacing="0px" word-spacing="0px" style="line-height:125%" xml:space="preserve"><tspan x="0" y="0" font-family="Calibri" font-size="14.688px" font-weight="400"><tspan dx="0" dy="0" fill="#999999">P</tspan><tspan dx="0" dy="0" fill="#000000"/><tspan dx="0" dy="0" fill="#ff0000">[76]</tspan><tspan dx="0" dy="0" fill="#000000"/></tspan></text>
  </g>
  <path transform="matrix(.26458 0 0 .26458 -515.32 600.89)" d="m182.58 130.78h7.6741v0.95927h-7.6741z" clip-path="url(#clipEmfPath15-51)" fill="#999" fill-rule="evenodd"/>
  <g transform="matrix(.26458 0 0 .26458 -515.32 600.89)" clip-path="url(#clipEmfPath16-60)">
   <text transform="translate(340.54 88.572)" fill="#000000" font-family="Calibri" font-size="14.688px" font-weight="400" letter-spacing="0px" word-spacing="0px" style="line-height:125%" xml:space="preserve"><tspan x="0" y="0" font-family="Calibri" font-size="14.688px" font-weight="400"><tspan dx="0" dy="0" fill="#999999">Y</tspan><tspan dx="0" dy="0" fill="#000000"/><tspan dx="0" dy="0" fill="#ff0000">[0]</tspan><tspan dx="0" dy="0" fill="#ff0000"/></tspan></text>
  </g>
  <path transform="matrix(.26458 0 0 .26458 -515.32 600.89)" d="m340.54 84.895h7.1945v0.95926h-7.1945z" clip-path="url(#clipEmfPath16-60)" fill="#999" fill-rule="evenodd"/>
 </g>
</svg>
