<?xml version="1.0" encoding="UTF-8"?>
<!-- Created with Inkscape (http://www.inkscape.org/) -->
<svg width="70.857mm" height="42.799mm" version="1.1" viewBox="0 0 70.857425 42.798975" xmlns="http://www.w3.org/2000/svg" xmlns:cc="http://creativecommons.org/ns#" xmlns:dc="http://purl.org/dc/elements/1.1/" xmlns:rdf="http://www.w3.org/1999/02/22-rdf-syntax-ns#">
 <defs>
  <clipPath id="clipEmfPath2-33">
   <path d="m214.08 38.051h44.926v16.467h-44.926z"/>
  </clipPath>
  <clipPath id="clipEmfPath3-20">
   <path d="m138.29 108.24h44.926v16.307h-44.926z"/>
  </clipPath>
  <clipPath id="clipEmfPath4-47">
   <path d="m19.665 117.67h45.085v16.307h-45.085z"/>
  </clipPath>
  <clipPath id="clipEmfPath5-70">
   <path d="m113.99 144.85h44.926v16.467h-44.926z"/>
  </clipPath>
  <clipPath id="clipEmfPath6-340">
   <path d="m78.02 95.607h44.926v16.307h-44.926z"/>
  </clipPath>
  <clipPath id="clipEmfPath7-7">
   <path d="m18.546 37.411h44.926v16.307h-44.926z"/>
  </clipPath>
  <clipPath id="clipEmfPath8-11">
   <path d="m139.57 42.368h44.926v16.467h-44.926z"/>
  </clipPath>
  <clipPath id="clipEmfPath9-65">
   <path d="m117.83 7.6741h44.926v16.307h-44.926z"/>
  </clipPath>
  <clipPath id="clipEmfPath10-22">
   <path d="m214.72 111.11h44.926v16.148h-44.926z"/>
  </clipPath>
  <clipPath id="clipEmfPath11-62">
   <path d="m-9.5926 57.876h44.926v16.467h-44.926z"/>
  </clipPath>
  <clipPath id="clipEmfPath12-81">
   <path d="m54.998 1.4389h26.859v16.307h-26.859z"/>
  </clipPath>
  <clipPath id="clipEmfPath13-6">
   <path d="m247.01 65.869h44.926v16.307h-44.926z"/>
  </clipPath>
  <clipPath id="clipEmfPath14-41">
   <path d="m179.7 149.49h44.926v16.307h-44.926z"/>
  </clipPath>
  <clipPath id="clipEmfPath15-46">
   <path d="m56.756 150.92h44.926v16.307h-44.926z"/>
  </clipPath>
  <clipPath id="clipEmfPath16-9">
   <path d="m134.62 71.785h44.926v16.467h-44.926z"/>
  </clipPath>
  <clipPath id="clipEmfPath17-7">
   <path d="m173.31-0.15988h44.926v16.627h-44.926z"/>
  </clipPath>
  <clipPath id="clipEmfPath18-2">
   <path d="m82.497 54.039h34.054v16.307h-34.054z"/>
  </clipPath>
  <clipPath id="clipEmfPath19-5">
   <path d="m183.86 74.503h44.926v16.467h-44.926z"/>
  </clipPath>
 </defs>
 <metadata>
  <rdf:RDF>
   <cc:Work rdf:about="">
    <dc:format>image/svg+xml</dc:format>
    <dc:type rdf:resource="http://purl.org/dc/dcmitype/StillImage"/>
    <dc:title/>
   </cc:Work>
  </rdf:RDF>
 </metadata>
 <g transform="matrix(1 0 0 1 580.81 -561.52)">
  <text x="-503.55701" y="606.15497" fill="#000000" font-family="'Times New Roman'" font-size="4.2333px" font-weight="400" letter-spacing="0px" stroke-width=".26458" word-spacing="0px" style="line-height:125%" xml:space="preserve"><tspan x="0" y="0" stroke-width=".26458"><tspan dx="0" dy="0" fill="#000000" font-family="'Times New Roman'" font-size="4.2333px" font-weight="400" stroke-width=".26458"/></tspan></text>
  <g fill="none" stroke="#000" stroke-linejoin="round" stroke-width=".26438px">
   <path d="m-530.9 568.17 0.0185 30.457"/>
   <path d="m-561.38 567.3 30.457 0.0185"/>
   <path d="m-576.94 582.73 16.109-15.564"/>
   <path d="m-561.73 597.35 30.774-29.486"/>
   <path d="m-530.39 568.06 14.98 14.824"/>
   <path d="m-561.45 567.44 30.351 29.909"/>
   <path d="m-531.29 597.97 15.07-14.805"/>
   <path d="m-576.57 582.71 15.157 15.07"/>
  </g>
  <g transform="matrix(.26458 0 0 .26458 -580.84 560.51)" clip-path="url(#clipEmfPath2-33)">
   <text transform="translate(223.51 52.6)" fill="#000000" font-family="'Times New Roman'" font-size="16px" font-weight="400" letter-spacing="0px" word-spacing="0px" style="line-height:125%" xml:space="preserve"><tspan x="0" y="0" fill="#000000" font-family="'Times New Roman'" font-size="16px" font-weight="400"><tspan dx="0" dy="0">7</tspan><tspan dx="0" dy="0"/></tspan></text>
  </g>
  <g transform="matrix(.26458 0 0 .26458 -580.84 560.51)" clip-path="url(#clipEmfPath3-20)">
   <text transform="translate(147.89 122.79)" fill="#000000" font-family="'Times New Roman'" font-size="16px" font-weight="400" letter-spacing="0px" word-spacing="0px" style="line-height:125%" xml:space="preserve"><tspan x="0" y="0" fill="#000000" font-family="'Times New Roman'" font-size="16px" font-weight="400"><tspan dx="0" dy="0">4</tspan><tspan dx="0" dy="0"/></tspan></text>
  </g>
  <g transform="matrix(.26458 0 0 .26458 -580.84 560.51)" clip-path="url(#clipEmfPath4-47)">
   <text transform="translate(29.258 132.22)" fill="#000000" font-family="'Times New Roman'" font-size="16px" font-weight="400" letter-spacing="0px" word-spacing="0px" style="line-height:125%" xml:space="preserve"><tspan x="0" y="0" fill="#000000" font-family="'Times New Roman'" font-size="16px" font-weight="400"><tspan dx="0" dy="0">4</tspan><tspan dx="0" dy="0"/></tspan></text>
  </g>
  <g transform="matrix(.26458 0 0 .26458 -580.84 560.51)" clip-path="url(#clipEmfPath5-70)">
   <text transform="translate(123.59 159.4)" fill="#000000" font-family="'Times New Roman'" font-size="16px" font-weight="400" letter-spacing="0px" word-spacing="0px" style="line-height:125%" xml:space="preserve"><tspan x="0" y="0" fill="#000000" font-family="'Times New Roman'" font-size="16px" font-weight="400"><tspan dx="0" dy="0">5</tspan><tspan dx="0" dy="0"/></tspan></text>
  </g>
  <g transform="matrix(.26458 0 0 .26458 -580.84 560.51)" clip-path="url(#clipEmfPath6-340)">
   <text transform="translate(87.613 110.16)" fill="#000000" font-family="'Times New Roman'" font-size="16px" font-weight="400" letter-spacing="0px" word-spacing="0px" style="line-height:125%" xml:space="preserve"><tspan x="0" y="0" fill="#000000" font-family="'Times New Roman'" font-size="16px" font-weight="400"><tspan dx="0" dy="0">2</tspan><tspan dx="0" dy="0"/></tspan></text>
  </g>
  <g transform="matrix(.26458 0 0 .26458 -580.84 560.51)" clip-path="url(#clipEmfPath7-7)">
   <text transform="translate(28.138 51.8)" fill="#000000" font-family="'Times New Roman'" font-size="16px" font-weight="400" letter-spacing="0px" word-spacing="0px" style="line-height:125%" xml:space="preserve"><tspan x="0" y="0" fill="#000000" font-family="'Times New Roman'" font-size="16px" font-weight="400"><tspan dx="0" dy="0">1</tspan><tspan dx="0" dy="0"/></tspan></text>
  </g>
  <g transform="matrix(.26458 0 0 .26458 -580.84 560.51)" clip-path="url(#clipEmfPath8-11)">
   <text transform="translate(149.17 56.916)" fill="#000000" font-family="'Times New Roman'" font-size="16px" font-weight="400" letter-spacing="0px" word-spacing="0px" style="line-height:125%" xml:space="preserve"><tspan x="0" y="0" fill="#000000" font-family="'Times New Roman'" font-size="16px" font-weight="400"><tspan dx="0" dy="0">2</tspan><tspan dx="0" dy="0"/></tspan></text>
  </g>
  <g transform="matrix(.26458 0 0 .26458 -580.84 560.51)" clip-path="url(#clipEmfPath9-65)">
   <text transform="translate(127.42 22.223)" fill="#000000" font-family="'Times New Roman'" font-size="16px" font-weight="400" letter-spacing="0px" word-spacing="0px" style="line-height:125%" xml:space="preserve"><tspan x="0" y="0" fill="#000000" font-family="'Times New Roman'" font-size="16px" font-weight="400"><tspan dx="0" dy="0">6</tspan><tspan dx="0" dy="0"/></tspan></text>
  </g>
  <g transform="matrix(.26458 0 0 .26458 -580.84 560.51)" clip-path="url(#clipEmfPath10-22)">
   <text transform="translate(224.31 125.66)" fill="#000000" font-family="'Times New Roman'" font-size="16px" font-weight="400" letter-spacing="0px" word-spacing="0px" style="line-height:125%" xml:space="preserve"><tspan x="0" y="0" fill="#000000" font-family="'Times New Roman'" font-size="16px" font-weight="400"><tspan dx="0" dy="0">6</tspan><tspan dx="0" dy="0"/></tspan></text>
  </g>
  <g transform="matrix(.26458 0 0 .26458 -580.84 560.51)" clip-path="url(#clipEmfPath11-62)">
   <text transform="translate(0 72.424)" fill="#000000" font-family="'Times New Roman'" font-size="16px" font-weight="400" letter-spacing="0px" word-spacing="0px" style="line-height:125%" xml:space="preserve"><tspan x="0" y="0" fill="#000000" font-family="'Times New Roman'" font-size="16px" font-weight="400"><tspan dx="0" dy="0">A</tspan><tspan dx="0" dy="0"/></tspan></text>
  </g>
  <path d="m-561.34 598.02 30.457 0.0185" fill="none" stroke="#000" stroke-linejoin="round" stroke-width=".26438px"/>
  <path d="m-515.95 581.3c-0.69532 0-1.2611 0.56313-1.2611 1.2584 0 0.69797 0.56578 1.2611 1.2611 1.2611s1.2611-0.56313 1.2611-1.2611c0-0.69532-0.56577-1.2584-1.2611-1.2584z" fill="#fff" fill-rule="evenodd"/>
  <path d="m-515.95 581.3c-0.69532 0-1.2611 0.56313-1.2611 1.2584 0 0.69797 0.56578 1.2611 1.2611 1.2611s1.2611-0.56313 1.2611-1.2611c0-0.69532-0.56577-1.2584-1.2611-1.2584" fill="none" stroke="#000" stroke-linecap="round" stroke-linejoin="round" stroke-width=".26438px"/>
  <path d="m-531.18 596.53c-0.69268 0-1.2532 0.56048-1.2532 1.2505 0 0.69267 0.56049 1.2505 1.2532 1.2505 0.69003 0 1.2505-0.55785 1.2505-1.2505 0-0.69004-0.56049-1.2505-1.2505-1.2505z" fill="#fff" fill-rule="evenodd"/>
  <path d="m-531.18 596.53c-0.69268 0-1.2532 0.56048-1.2532 1.2505 0 0.69267 0.56049 1.2505 1.2532 1.2505 0.69003 0 1.2505-0.55785 1.2505-1.2505 0-0.69004-0.56049-1.2505-1.2505-1.2505" fill="none" stroke="#000" stroke-linecap="round" stroke-linejoin="round" stroke-width=".26438px"/>
  <path d="m-561.63 596.53c-0.69532 0-1.2611 0.56048-1.2611 1.2505 0 0.69267 0.56577 1.2505 1.2611 1.2505s1.2611-0.55785 1.2611-1.2505c0-0.69004-0.56578-1.2505-1.2611-1.2505z" fill="#fff" fill-rule="evenodd"/>
  <path d="m-561.63 596.53c-0.69532 0-1.2611 0.56048-1.2611 1.2505 0 0.69267 0.56577 1.2505 1.2611 1.2505s1.2611-0.55785 1.2611-1.2505c0-0.69004-0.56578-1.2505-1.2611-1.2505" fill="none" stroke="#000" stroke-linecap="round" stroke-linejoin="round" stroke-width=".26438px"/>
  <path d="m-576.86 581.3c-0.69532 0-1.2611 0.56313-1.2611 1.2584 0 0.69797 0.56577 1.2611 1.2611 1.2611s1.2611-0.56313 1.2611-1.2611c0-0.69532-0.56578-1.2584-1.2611-1.2584z" fill="#fff" fill-rule="evenodd"/>
  <path d="m-576.86 581.3c-0.69532 0-1.2611 0.56313-1.2611 1.2584 0 0.69797 0.56577 1.2611 1.2611 1.2611s1.2611-0.56313 1.2611-1.2611c0-0.69532-0.56578-1.2584-1.2611-1.2584" fill="none" stroke="#000" stroke-linecap="round" stroke-linejoin="round" stroke-width=".26438px"/>
  <path d="m-561.63 566.07c-0.7006 0-1.269 0.56313-1.269 1.2584 0 0.69797 0.56842 1.2611 1.269 1.2611 0.70326 0 1.269-0.56313 1.269-1.2611 0-0.69532-0.56577-1.2584-1.269-1.2584z" fill="#fff" fill-rule="evenodd"/>
  <path d="m-561.63 566.07c-0.7006 0-1.269 0.56313-1.269 1.2584 0 0.69797 0.56842 1.2611 1.269 1.2611 0.70326 0 1.269-0.56313 1.269-1.2611 0-0.69532-0.56577-1.2584-1.269-1.2584" fill="none" stroke="#000" stroke-linecap="round" stroke-linejoin="round" stroke-width=".26438px"/>
  <path d="m-546.4 581.3c-0.70061 0-1.269 0.56313-1.269 1.2584 0 0.69797 0.56841 1.2611 1.269 1.2611 0.70325 0 1.269-0.56313 1.269-1.2611 0-0.69532-0.56578-1.2584-1.269-1.2584z" fill="#fff" fill-rule="evenodd"/>
  <path d="m-546.4 581.3c-0.70061 0-1.269 0.56313-1.269 1.2584 0 0.69797 0.56841 1.2611 1.269 1.2611 0.70325 0 1.269-0.56313 1.269-1.2611 0-0.69532-0.56578-1.2584-1.269-1.2584" fill="none" stroke="#000" stroke-linecap="round" stroke-linejoin="round" stroke-width=".26438px"/>
  <path d="m-531.18 566.07c-0.69268 0-1.2532 0.57106-1.2532 1.277s0.56049 1.277 1.2532 1.277c0.69003 0 1.2505-0.57106 1.2505-1.277s-0.56049-1.277-1.2505-1.277z" fill="#fff" fill-rule="evenodd"/>
  <path d="m-531.18 566.07c-0.69268 0-1.2532 0.57106-1.2532 1.277s0.56049 1.277 1.2532 1.277c0.69003 0 1.2505-0.57106 1.2505-1.277s-0.56049-1.277-1.2505-1.277" fill="none" stroke="#000" stroke-linecap="round" stroke-linejoin="round" stroke-width=".26438px"/>
  <g transform="matrix(.26458 0 0 .26458 -580.84 560.51)" clip-path="url(#clipEmfPath12-81)">
   <text transform="translate(64.59 15.988)" fill="#000000" font-family="'Times New Roman'" font-size="16px" font-weight="400" letter-spacing="0px" word-spacing="0px" style="line-height:125%" xml:space="preserve"><tspan x="0" y="0" fill="#000000" font-family="'Times New Roman'" font-size="16px" font-weight="400"><tspan dx="0" dy="0">B</tspan><tspan dx="0" dy="0"/></tspan></text>
  </g>
  <g transform="matrix(.26458 0 0 .26458 -580.84 560.51)" clip-path="url(#clipEmfPath13-6)">
   <text transform="translate(256.6 80.418)" fill="#000000" font-family="'Times New Roman'" font-size="16px" font-weight="400" letter-spacing="0px" word-spacing="0px" style="line-height:125%" xml:space="preserve"><tspan x="0" y="0" fill="#000000" font-family="'Times New Roman'" font-size="16px" font-weight="400"><tspan dx="0" dy="0">G</tspan><tspan dx="0" dy="0"/></tspan></text>
  </g>
  <g transform="matrix(.26458 0 0 .26458 -580.84 560.51)" clip-path="url(#clipEmfPath14-41)">
   <text transform="translate(189.29 164.03)" fill="#000000" font-family="'Times New Roman'" font-size="16px" font-weight="400" letter-spacing="0px" word-spacing="0px" style="line-height:125%" xml:space="preserve"><tspan x="0" y="0" fill="#000000" font-family="'Times New Roman'" font-size="16px" font-weight="400"><tspan dx="0" dy="0">F</tspan><tspan dx="0" dy="0"/></tspan></text>
  </g>
  <g transform="matrix(.26458 0 0 .26458 -580.84 560.51)" clip-path="url(#clipEmfPath15-46)">
   <text transform="translate(66.349 165.31)" fill="#000000" font-family="'Times New Roman'" font-size="16px" font-weight="400" letter-spacing="0px" word-spacing="0px" style="line-height:125%" xml:space="preserve"><tspan x="0" y="0" fill="#000000" font-family="'Times New Roman'" font-size="16px" font-weight="400"><tspan dx="0" dy="0">C</tspan><tspan dx="0" dy="0"/></tspan></text>
  </g>
  <g transform="matrix(.26458 0 0 .26458 -580.84 560.51)" clip-path="url(#clipEmfPath16-9)">
   <text transform="translate(144.21 86.334)" fill="#000000" font-family="'Times New Roman'" font-size="16px" font-weight="400" letter-spacing="0px" word-spacing="0px" style="line-height:125%" xml:space="preserve"><tspan x="0" y="0" fill="#000000" font-family="'Times New Roman'" font-size="16px" font-weight="400"><tspan dx="0" dy="0">D</tspan><tspan dx="0" dy="0"/></tspan></text>
  </g>
  <g transform="matrix(.26458 0 0 .26458 -580.84 560.51)" clip-path="url(#clipEmfPath17-7)">
   <text transform="translate(182.9 14.389)" fill="#000000" font-family="'Times New Roman'" font-size="16px" font-weight="400" letter-spacing="0px" word-spacing="0px" style="line-height:125%" xml:space="preserve"><tspan x="0" y="0" fill="#000000" font-family="'Times New Roman'" font-size="16px" font-weight="400"><tspan dx="0" dy="0">E</tspan><tspan dx="0" dy="0"/></tspan></text>
  </g>
  <g transform="matrix(.26458 0 0 .26458 -580.84 560.51)" clip-path="url(#clipEmfPath18-2)">
   <text transform="translate(92.089 68.587)" fill="#000000" font-family="'Times New Roman'" font-size="16px" font-weight="400" letter-spacing="0px" word-spacing="0px" style="line-height:125%" xml:space="preserve"><tspan x="0" y="0" fill="#000000" font-family="'Times New Roman'" font-size="16px" font-weight="400"><tspan dx="0" dy="0">3</tspan><tspan dx="0" dy="0"/></tspan></text>
  </g>
  <g transform="matrix(.26458 0 0 .26458 -580.84 560.51)" clip-path="url(#clipEmfPath19-5)">
   <text transform="translate(193.45 89.052)" fill="#000000" font-family="'Times New Roman'" font-size="16px" font-weight="400" letter-spacing="0px" word-spacing="0px" style="line-height:125%" xml:space="preserve"><tspan x="0" y="0" fill="#000000" font-family="'Times New Roman'" font-size="16px" font-weight="400"><tspan dx="0" dy="0">2</tspan><tspan dx="0" dy="0"/></tspan></text>
  </g>
 </g>
</svg>
