<?xml version="1.0" encoding="UTF-8"?>
<!-- Created with Inkscape (http://www.inkscape.org/) -->
<svg width="27.528mm" height="25.626mm" version="1.1" viewBox="0 0 27.527711 25.626434" xmlns="http://www.w3.org/2000/svg" xmlns:cc="http://creativecommons.org/ns#" xmlns:dc="http://purl.org/dc/elements/1.1/" xmlns:rdf="http://www.w3.org/1999/02/22-rdf-syntax-ns#">
 <defs>
  <clipPath id="clipEmfPath1-16">
   <path d="m38.051 0h15.028v20.944h-15.028z"/>
  </clipPath>
  <clipPath id="clipEmfPath2-42">
   <path d="m0.15988 73.384h15.028v20.944h-15.028z"/>
  </clipPath>
  <clipPath id="clipEmfPath3-22">
   <path d="m98.005 73.384h15.028v20.944h-15.028z"/>
  </clipPath>
  <clipPath id="clipEmfPath4-80">
   <path d="m50.042 45.405h15.028v20.944h-15.028z"/>
  </clipPath>
 </defs>
 <metadata>
  <rdf:RDF>
   <cc:Work rdf:about="">
    <dc:format>image/svg+xml</dc:format>
    <dc:type rdf:resource="http://purl.org/dc/dcmitype/StillImage"/>
    <dc:title/>
   </cc:Work>
  </rdf:RDF>
 </metadata>
 <g transform="matrix(1 0 0 1 416.19 297.78)">
  <text x="-416.55359" y="-295.30936" fill="#000000" font-family="Calibri" font-size="3.8861px" font-weight="400" letter-spacing="0px" stroke-width=".26458" word-spacing="0px" style="line-height:125%" xml:space="preserve"><tspan x="0" y="0" stroke-width=".26458"><tspan dx="0" dy="0" fill="#000000" font-family="Calibri" font-size="3.8861px" font-weight="400" stroke-width=".26458"/></tspan></text>
  <g fill="none" stroke="#000" stroke-linejoin="round" stroke-width=".26438px">
   <path d="m-401.47-294.91-11.897 20.886"/>
   <path d="m-413.1-273.75h22.472"/>
   <path d="m-401.47-295.43 10.311 21.415"/>
   <path d="m-413.37-273.48 11.633-7.4026"/>
   <path d="m-401.73-280.88 10.575 7.1383"/>
  </g>
  <path d="m-401.53-296.59c-0.69532 0-1.2584 0.56578-1.2584 1.2611s0.56313 1.2611 1.2584 1.2611c0.69797 0 1.2611-0.56577 1.2611-1.2611s-0.56313-1.2611-1.2611-1.2611z" fill="#fff" fill-rule="evenodd"/>
  <path d="m-401.53-296.59c-0.69532 0-1.2584 0.56578-1.2584 1.2611s0.56313 1.2611 1.2584 1.2611c0.69797 0 1.2611-0.56577 1.2611-1.2611s-0.56313-1.2611-1.2611-1.2611" fill="none" stroke="#000" stroke-linecap="round" stroke-linejoin="round" stroke-width=".26438px"/>
  <path d="m-413.16-274.8c-0.69532 0-1.2584 0.56577-1.2584 1.2611s0.56313 1.2611 1.2584 1.2611c0.69797 0 1.2611-0.56578 1.2611-1.2611s-0.56313-1.2611-1.2611-1.2611z" fill="#fff" fill-rule="evenodd"/>
  <path d="m-413.16-274.8c-0.69532 0-1.2584 0.56577-1.2584 1.2611s0.56313 1.2611 1.2584 1.2611c0.69797 0 1.2611-0.56578 1.2611-1.2611s-0.56313-1.2611-1.2611-1.2611" fill="none" stroke="#000" stroke-linecap="round" stroke-linejoin="round" stroke-width=".26438px"/>
  <path d="m-391.22-275.05c-0.69532 0-1.2584 0.56578-1.2584 1.2611s0.56313 1.2584 1.2584 1.2584c0.69797 0 1.2611-0.56313 1.2611-1.2584s-0.56313-1.2611-1.2611-1.2611z" fill="#fff" fill-rule="evenodd"/>
  <path d="m-391.22-275.05c-0.69532 0-1.2584 0.56578-1.2584 1.2611s0.56313 1.2584 1.2584 1.2584c0.69797 0 1.2611-0.56313 1.2611-1.2584s-0.56313-1.2611-1.2611-1.2611" fill="none" stroke="#000" stroke-linecap="round" stroke-linejoin="round" stroke-width=".26438px"/>
  <path d="m-401.8-281.94c-0.69532 0-1.2584 0.56578-1.2584 1.2611s0.56313 1.2611 1.2584 1.2611c0.69797 0 1.2611-0.56577 1.2611-1.2611s-0.56313-1.2611-1.2611-1.2611z" fill="#fff" fill-rule="evenodd"/>
  <path d="m-401.8-281.94c-0.69532 0-1.2584 0.56578-1.2584 1.2611s0.56313 1.2611 1.2584 1.2611c0.69797 0 1.2611-0.56577 1.2611-1.2611s-0.56313-1.2611-1.2611-1.2611" fill="none" stroke="#000" stroke-linecap="round" stroke-linejoin="round" stroke-width=".26438px"/>
  <g transform="matrix(.26458 0 0 .26458 -416.55 -298.95)" clip-path="url(#clipEmfPath1-16)">
   <text transform="translate(38.051 13.749)" fill="#000000" font-family="Calibri" font-size="14.688px" font-weight="400" letter-spacing="0px" word-spacing="0px" style="line-height:125%" xml:space="preserve"><tspan x="0" y="0" fill="#000000" font-family="Calibri" font-size="14.688px" font-weight="400"><tspan dx="0" dy="0">A</tspan><tspan dx="0" dy="0"/></tspan></text>
  </g>
  <g transform="matrix(.26458 0 0 .26458 -416.55 -298.95)" clip-path="url(#clipEmfPath2-42)">
   <text transform="translate(.15988 87.133)" fill="#000000" font-family="Calibri" font-size="14.688px" font-weight="400" letter-spacing="0px" word-spacing="0px" style="line-height:125%" xml:space="preserve"><tspan x="0" y="0" fill="#000000" font-family="Calibri" font-size="14.688px" font-weight="400"><tspan dx="0" dy="0">B</tspan><tspan dx="0" dy="0"/></tspan></text>
  </g>
  <g transform="matrix(.26458 0 0 .26458 -416.55 -298.95)" clip-path="url(#clipEmfPath3-22)">
   <text transform="translate(98.005 87.133)" fill="#000000" font-family="Calibri" font-size="14.688px" font-weight="400" letter-spacing="0px" word-spacing="0px" style="line-height:125%" xml:space="preserve"><tspan x="0" y="0" fill="#000000" font-family="Calibri" font-size="14.688px" font-weight="400"><tspan dx="0" dy="0">C</tspan><tspan dx="0" dy="0"/></tspan></text>
  </g>
  <g transform="matrix(.26458 0 0 .26458 -416.55 -298.95)" clip-path="url(#clipEmfPath4-80)">
   <text transform="translate(50.042 59.155)" fill="#000000" font-family="Calibri" font-size="14.688px" font-weight="400" letter-spacing="0px" word-spacing="0px" style="line-height:125%" xml:space="preserve"><tspan x="0" y="0" fill="#000000" font-family="Calibri" font-size="14.688px" font-weight="400"><tspan dx="0" dy="0">D</tspan><tspan dx="0" dy="0"/></tspan></text>
  </g>
 </g>
</svg>
