<?xml version="1.0" encoding="UTF-8"?>
<!-- Created with Inkscape (http://www.inkscape.org/) -->
<svg width="27.528mm" height="25.626mm" version="1.1" viewBox="0 0 27.527711 25.626436" xmlns="http://www.w3.org/2000/svg" xmlns:cc="http://creativecommons.org/ns#" xmlns:dc="http://purl.org/dc/elements/1.1/" xmlns:rdf="http://www.w3.org/1999/02/22-rdf-syntax-ns#">
 <defs>
  <clipPath id="clipEmfPath1-78-6">
   <path d="m38.051 0h15.028v20.944h-15.028z"/>
  </clipPath>
  <clipPath id="clipEmfPath2-83-6">
   <path d="m0.15988 73.384h15.028v20.944h-15.028z"/>
  </clipPath>
  <clipPath id="clipEmfPath3-78-4">
   <path d="m98.005 73.384h15.028v20.944h-15.028z"/>
  </clipPath>
  <clipPath id="clipEmfPath4-3-7">
   <path d="m50.042 45.405h15.028v20.944h-15.028z"/>
  </clipPath>
  <clipPath id="clipEmfPath5-61-0">
   <path d="m76.102 37.092h11.032v15.988h-11.032z"/>
  </clipPath>
  <clipPath id="clipEmfPath6-1-9">
   <path d="m27.179 39.01h10.872v15.988h-10.872z"/>
  </clipPath>
  <clipPath id="clipEmfPath7-52-0">
   <path d="m33.095 66.989h11.032v15.988h-11.032z"/>
  </clipPath>
  <clipPath id="clipEmfPath8-25-1">
   <path d="m67.148 63.951h10.872v15.988h-10.872z"/>
  </clipPath>
  <clipPath id="clipEmfPath9-47-7">
   <path d="m51.161 81.058h10.872v15.988h-10.872z"/>
  </clipPath>
 </defs>
 <metadata>
  <rdf:RDF>
   <cc:Work rdf:about="">
    <dc:format>image/svg+xml</dc:format>
    <dc:type rdf:resource="http://purl.org/dc/dcmitype/StillImage"/>
    <dc:title/>
   </cc:Work>
  </rdf:RDF>
 </metadata>
 <g transform="matrix(1 0 0 1 394.24 189.15)">
  <text x="-394.60333" y="-186.68379" fill="#000000" font-family="Calibri" font-size="3.8861px" font-weight="400" letter-spacing="0px" stroke-width=".26458" word-spacing="0px" style="line-height:125%" xml:space="preserve"><tspan x="0" y="0" stroke-width=".26458"><tspan dx="0" dy="0" fill="#000000" font-family="Calibri" font-size="3.8861px" font-weight="400" stroke-width=".26458"/></tspan></text>
  <path d="m-379.58-187.96c-0.69532 0-1.2584 0.56578-1.2584 1.2611s0.56313 1.2611 1.2584 1.2611c0.69796 0 1.2611-0.56577 1.2611-1.2611s-0.56313-1.2611-1.2611-1.2611z" fill="#fff" fill-rule="evenodd"/>
  <path d="m-379.58-187.96c-0.69532 0-1.2584 0.56578-1.2584 1.2611s0.56313 1.2611 1.2584 1.2611c0.69796 0 1.2611-0.56577 1.2611-1.2611s-0.56313-1.2611-1.2611-1.2611" fill="none" stroke="#000" stroke-linecap="round" stroke-linejoin="round" stroke-width=".26438px"/>
  <path d="m-391.21-166.18c-0.69532 0-1.2584 0.56577-1.2584 1.2611 0 0.69533 0.56313 1.2611 1.2584 1.2611 0.69797 0 1.2611-0.56577 1.2611-1.2611 0-0.69532-0.56313-1.2611-1.2611-1.2611z" fill="#fff" fill-rule="evenodd"/>
  <path d="m-391.21-166.18c-0.69532 0-1.2584 0.56577-1.2584 1.2611 0 0.69533 0.56313 1.2611 1.2584 1.2611 0.69797 0 1.2611-0.56577 1.2611-1.2611 0-0.69532-0.56313-1.2611-1.2611-1.2611" fill="none" stroke="#000" stroke-linecap="round" stroke-linejoin="round" stroke-width=".26438px"/>
  <path d="m-369.27-166.44c-0.69532 0-1.2584 0.56577-1.2584 1.2611 0 0.69533 0.56313 1.2611 1.2584 1.2611 0.69796 0 1.2611-0.56577 1.2611-1.2611 0-0.69532-0.56313-1.2611-1.2611-1.2611z" fill="#fff" fill-rule="evenodd"/>
  <path d="m-369.27-166.44c-0.69532 0-1.2584 0.56577-1.2584 1.2611 0 0.69533 0.56313 1.2611 1.2584 1.2611 0.69796 0 1.2611-0.56577 1.2611-1.2611 0-0.69532-0.56313-1.2611-1.2611-1.2611" fill="none" stroke="#000" stroke-linecap="round" stroke-linejoin="round" stroke-width=".26438px"/>
  <path d="m-379.85-173.32c-0.69532 0-1.2584 0.56577-1.2584 1.2611s0.56313 1.2611 1.2584 1.2611c0.69796 0 1.2611-0.56578 1.2611-1.2611s-0.56313-1.2611-1.2611-1.2611z" fill="#fff" fill-rule="evenodd"/>
  <path d="m-379.85-173.32c-0.69532 0-1.2584 0.56577-1.2584 1.2611s0.56313 1.2611 1.2584 1.2611c0.69796 0 1.2611-0.56578 1.2611-1.2611s-0.56313-1.2611-1.2611-1.2611" fill="none" stroke="#000" stroke-linecap="round" stroke-linejoin="round" stroke-width=".26438px"/>
  <g transform="matrix(.26458 0 0 .26458 -394.6 -190.32)" clip-path="url(#clipEmfPath1-78-6)">
   <text transform="translate(38.051 13.749)" fill="#000000" font-family="Calibri" font-size="14.688px" font-weight="400" letter-spacing="0px" word-spacing="0px" style="line-height:125%" xml:space="preserve"><tspan x="0" y="0" fill="#000000" font-family="Calibri" font-size="14.688px" font-weight="400"><tspan dx="0" dy="0">A</tspan><tspan dx="0" dy="0"/></tspan></text>
  </g>
  <g transform="matrix(.26458 0 0 .26458 -394.6 -190.32)" clip-path="url(#clipEmfPath2-83-6)">
   <text transform="translate(.15988 87.133)" fill="#000000" font-family="Calibri" font-size="14.688px" font-weight="400" letter-spacing="0px" word-spacing="0px" style="line-height:125%" xml:space="preserve"><tspan x="0" y="0" fill="#000000" font-family="Calibri" font-size="14.688px" font-weight="400"><tspan dx="0" dy="0">B</tspan><tspan dx="0" dy="0"/></tspan></text>
  </g>
  <g transform="matrix(.26458 0 0 .26458 -394.6 -190.32)" clip-path="url(#clipEmfPath3-78-4)">
   <text transform="translate(98.005 87.133)" fill="#000000" font-family="Calibri" font-size="14.688px" font-weight="400" letter-spacing="0px" word-spacing="0px" style="line-height:125%" xml:space="preserve"><tspan x="0" y="0" fill="#000000" font-family="Calibri" font-size="14.688px" font-weight="400"><tspan dx="0" dy="0">C</tspan><tspan dx="0" dy="0"/></tspan></text>
  </g>
  <g transform="matrix(.26458 0 0 .26458 -394.6 -190.32)" clip-path="url(#clipEmfPath4-3-7)">
   <text transform="translate(50.042 59.155)" fill="#000000" font-family="Calibri" font-size="14.688px" font-weight="400" letter-spacing="0px" word-spacing="0px" style="line-height:125%" xml:space="preserve"><tspan x="0" y="0" fill="#000000" font-family="Calibri" font-size="14.688px" font-weight="400"><tspan dx="0" dy="0">D</tspan><tspan dx="0" dy="0"/></tspan></text>
  </g>
  <g stroke="#000" stroke-linejoin="bevel" stroke-width=".042301px">
   <path d="m-370.16-166.56-8.484-17.449 0.31725-0.15334 8.484 17.449zm-9.1211-16.746 0.0264-2.3662 1.8745 1.4409z"/>
   <path d="m-380.16-185.59-9.7266 17.756-0.30933-0.17185 9.7266-17.753zm-8.7854 17.869-1.9432 1.3457 0.0872-2.3636z"/>
   <path d="m-390.45-165.73 7.7622-4.8805 0.18771 0.29875-7.7622 4.8805zm6.9955-5.4383 2.353-0.23001-1.2294 2.0225z"/>
   <path d="m-378.62-172.06 6.7787 5.0285-0.20886 0.28288-6.7814-5.0285zm7.022 4.1111 1.0681 2.1098-2.3292-0.40979z"/>
   <path d="m-371.59-165.14h-16.481v-0.35427h16.481zm-16.127 0.88039-2.115-1.0575 2.115-1.0575z"/>
  </g>
  <g transform="matrix(.26458 0 0 .26458 -394.6 -190.32)" clip-path="url(#clipEmfPath5-61-0)">
   <text transform="translate(76.102 49.722)" fill="#000000" font-family="Calibri" font-size="13.25px" font-weight="400" letter-spacing="0px" word-spacing="0px" style="line-height:125%" xml:space="preserve"><tspan x="0" y="0" fill="#000000" font-family="Calibri" font-size="13.25px" font-weight="400"><tspan dx="0" dy="0">1</tspan><tspan dx="0" dy="0"/></tspan></text>
  </g>
  <g transform="matrix(.26458 0 0 .26458 -394.6 -190.32)" clip-path="url(#clipEmfPath6-1-9)">
   <text transform="translate(27.179 51.64)" fill="#000000" font-family="Calibri" font-size="13.25px" font-weight="400" letter-spacing="0px" word-spacing="0px" style="line-height:125%" xml:space="preserve"><tspan x="0" y="0" fill="#000000" font-family="Calibri" font-size="13.25px" font-weight="400"><tspan dx="0" dy="0">2</tspan><tspan dx="0" dy="0"/></tspan></text>
  </g>
  <g transform="matrix(.26458 0 0 .26458 -394.6 -190.32)" clip-path="url(#clipEmfPath7-52-0)">
   <text transform="translate(33.095 79.619)" fill="#000000" font-family="Calibri" font-size="13.25px" font-weight="400" letter-spacing="0px" word-spacing="0px" style="line-height:125%" xml:space="preserve"><tspan x="0" y="0" fill="#000000" font-family="Calibri" font-size="13.25px" font-weight="400"><tspan dx="0" dy="0">3</tspan><tspan dx="0" dy="0"/></tspan></text>
  </g>
  <g transform="matrix(.26458 0 0 .26458 -394.6 -190.32)" clip-path="url(#clipEmfPath8-25-1)">
   <text transform="translate(67.148 76.581)" fill="#000000" font-family="Calibri" font-size="13.25px" font-weight="400" letter-spacing="0px" word-spacing="0px" style="line-height:125%" xml:space="preserve"><tspan x="0" y="0" fill="#000000" font-family="Calibri" font-size="13.25px" font-weight="400"><tspan dx="0" dy="0">4</tspan><tspan dx="0" dy="0"/></tspan></text>
  </g>
  <g transform="matrix(.26458 0 0 .26458 -394.6 -190.32)" clip-path="url(#clipEmfPath9-47-7)">
   <text transform="translate(51.161 93.688)" fill="#000000" font-family="Calibri" font-size="13.25px" font-weight="400" letter-spacing="0px" word-spacing="0px" style="line-height:125%" xml:space="preserve"><tspan x="0" y="0" fill="#000000" font-family="Calibri" font-size="13.25px" font-weight="400"><tspan dx="0" dy="0">5</tspan><tspan dx="0" dy="0"/></tspan></text>
  </g>
 </g>
</svg>
