<?xml version="1.0" encoding="UTF-8"?>
<!-- Created with Inkscape (http://www.inkscape.org/) -->
<svg width="30.357mm" height="25.751mm" version="1.1" viewBox="0 0 30.357305 25.751163" xmlns="http://www.w3.org/2000/svg" xmlns:cc="http://creativecommons.org/ns#" xmlns:dc="http://purl.org/dc/elements/1.1/" xmlns:rdf="http://www.w3.org/1999/02/22-rdf-syntax-ns#">
 <defs>
  <clipPath id="clipEmfPath1-88">
   <path d="m0.15988 33.574h14.869v20.944h-14.869z"/>
  </clipPath>
  <clipPath id="clipEmfPath2-35">
   <path d="m0.15988 87.933h14.869v20.944h-14.869z"/>
  </clipPath>
  <clipPath id="clipEmfPath3-55">
   <path d="m105.04 28.138h15.028v20.944h-15.028z"/>
  </clipPath>
  <clipPath id="clipEmfPath4-46">
   <path d="m57.076 0.15988h15.028v20.944h-15.028z"/>
  </clipPath>
  <clipPath id="clipEmfPath5-13">
   <path d="m43.007 88.092h15.028v20.944h-15.028z"/>
  </clipPath>
  <clipPath id="clipEmfPath6-7">
   <path d="m109.04 86.014h15.028v20.944h-15.028z"/>
  </clipPath>
 </defs>
 <metadata>
  <rdf:RDF>
   <cc:Work rdf:about="">
    <dc:format>image/svg+xml</dc:format>
    <dc:type rdf:resource="http://purl.org/dc/dcmitype/StillImage"/>
    <dc:title/>
   </cc:Work>
  </rdf:RDF>
 </metadata>
 <g transform="matrix(1 0 0 1 261.7 103.66)">
  <text x="-261.80539" y="-101.25017" fill="#000000" font-family="Calibri" font-size="3.8861px" font-weight="400" letter-spacing="0px" stroke-width=".26458" word-spacing="0px" style="line-height:125%" xml:space="preserve"><tspan x="0" y="0" stroke-width=".26458"><tspan dx="0" dy="0" fill="#000000" font-family="Calibri" font-size="3.8861px" font-weight="400" stroke-width=".26458"/></tspan></text>
  <g fill="none" stroke="#000" stroke-linejoin="round" stroke-width=".26438px">
   <path d="m-256.5-91.69h22.472"/>
   <path d="m-256.77-91.426 11.633-7.4027"/>
   <path d="m-245.13-98.828 10.575 7.1383"/>
  </g>
  <path d="m-245.2-99.886c-0.69532 0-1.2584 0.56577-1.2584 1.2611s0.56313 1.2611 1.2584 1.2611c0.69797 0 1.2611-0.56577 1.2611-1.2611s-0.56313-1.2611-1.2611-1.2611z" fill="#fff" fill-rule="evenodd"/>
  <path d="m-245.2-99.886c-0.69532 0-1.2584 0.56577-1.2584 1.2611s0.56313 1.2611 1.2584 1.2611c0.69797 0 1.2611-0.56577 1.2611-1.2611s-0.56313-1.2611-1.2611-1.2611" fill="none" stroke="#000" stroke-linecap="round" stroke-linejoin="round" stroke-width=".26438px"/>
  <g transform="matrix(.26458 0 0 .26458 -261.81 -104.89)" clip-path="url(#clipEmfPath1-88)">
   <text transform="translate(.15988 47.324)" fill="#000000" font-family="Calibri" font-size="14.688px" font-weight="400" letter-spacing="0px" word-spacing="0px" style="line-height:125%" xml:space="preserve"><tspan x="0" y="0" fill="#000000" font-family="Calibri" font-size="14.688px" font-weight="400"><tspan dx="0" dy="0">A</tspan><tspan dx="0" dy="0"/></tspan></text>
  </g>
  <g transform="matrix(.26458 0 0 .26458 -261.81 -104.89)" clip-path="url(#clipEmfPath2-35)">
   <text transform="translate(.15988 101.68)" fill="#000000" font-family="Calibri" font-size="14.688px" font-weight="400" letter-spacing="0px" word-spacing="0px" style="line-height:125%" xml:space="preserve"><tspan x="0" y="0" fill="#000000" font-family="Calibri" font-size="14.688px" font-weight="400"><tspan dx="0" dy="0">B</tspan><tspan dx="0" dy="0"/></tspan></text>
  </g>
  <g transform="matrix(.26458 0 0 .26458 -261.81 -104.89)" clip-path="url(#clipEmfPath3-55)">
   <text transform="translate(105.04 41.888)" fill="#000000" font-family="Calibri" font-size="14.688px" font-weight="400" letter-spacing="0px" word-spacing="0px" style="line-height:125%" xml:space="preserve"><tspan x="0" y="0" fill="#000000" font-family="Calibri" font-size="14.688px" font-weight="400"><tspan dx="0" dy="0">E</tspan><tspan dx="0" dy="0"/></tspan></text>
  </g>
  <g transform="matrix(.26458 0 0 .26458 -261.81 -104.89)" clip-path="url(#clipEmfPath4-46)">
   <text transform="translate(57.076 13.909)" fill="#000000" font-family="Calibri" font-size="14.688px" font-weight="400" letter-spacing="0px" word-spacing="0px" style="line-height:125%" xml:space="preserve"><tspan x="0" y="0" fill="#000000" font-family="Calibri" font-size="14.688px" font-weight="400"><tspan dx="0" dy="0">D</tspan><tspan dx="0" dy="0"/></tspan></text>
  </g>
  <g transform="matrix(.26458 0 0 .26458 -261.81 -104.89)" clip-path="url(#clipEmfPath5-13)">
   <text transform="translate(43.007 101.84)" fill="#000000" font-family="Calibri" font-size="14.688px" font-weight="400" letter-spacing="0px" word-spacing="0px" style="line-height:125%" xml:space="preserve"><tspan x="0" y="0" fill="#000000" font-family="Calibri" font-size="14.688px" font-weight="400"><tspan dx="0" dy="0">C</tspan><tspan dx="0" dy="0"/></tspan></text>
  </g>
  <g transform="matrix(.26458 0 0 .26458 -261.81 -104.89)" clip-path="url(#clipEmfPath6-7)">
   <text transform="translate(109.04 99.763)" fill="#000000" font-family="Calibri" font-size="14.688px" font-weight="400" letter-spacing="0px" word-spacing="0px" style="line-height:125%" xml:space="preserve"><tspan x="0" y="0" fill="#000000" font-family="Calibri" font-size="14.688px" font-weight="400"><tspan dx="0" dy="0">F</tspan><tspan dx="0" dy="0"/></tspan></text>
  </g>
  <g fill="none" stroke="#000" stroke-linejoin="round" stroke-width=".26438px">
   <path d="m-256.5-91.566v9.7821"/>
   <path d="m-256.5-81.644h22.472"/>
   <path d="m-234.82-91.83v9.7821"/>
   <path d="m-256.24-91.426 11.104 10.046"/>
   <path d="m-245.66-81.908 10.84-10.046"/>
  </g>
  <path d="m-245.46-82.807c-0.69532 0-1.2584 0.56577-1.2584 1.2611s0.56313 1.2611 1.2584 1.2611c0.69797 0 1.2611-0.56577 1.2611-1.2611s-0.56313-1.2611-1.2611-1.2611z" fill="#fff" fill-rule="evenodd"/>
  <path d="m-245.46-82.807c-0.69532 0-1.2584 0.56577-1.2584 1.2611s0.56313 1.2611 1.2584 1.2611c0.69797 0 1.2611-0.56577 1.2611-1.2611s-0.56313-1.2611-1.2611-1.2611" fill="none" stroke="#000" stroke-linecap="round" stroke-linejoin="round" stroke-width=".26438px"/>
  <path d="m-256.57-92.748c-0.69532 0-1.2584 0.56577-1.2584 1.2611s0.56313 1.2611 1.2584 1.2611c0.69796 0 1.2611-0.56577 1.2611-1.2611s-0.56313-1.2611-1.2611-1.2611z" fill="#fff" fill-rule="evenodd"/>
  <path d="m-256.57-92.748c-0.69532 0-1.2584 0.56577-1.2584 1.2611s0.56313 1.2611 1.2584 1.2611c0.69796 0 1.2611-0.56577 1.2611-1.2611s-0.56313-1.2611-1.2611-1.2611" fill="none" stroke="#000" stroke-linecap="round" stroke-linejoin="round" stroke-width=".26438px"/>
  <path d="m-234.62-92.994c-0.69532 0-1.2584 0.56577-1.2584 1.2611s0.56313 1.2585 1.2584 1.2585c0.69797 0 1.2611-0.56313 1.2611-1.2585s-0.56313-1.2611-1.2611-1.2611z" fill="#fff" fill-rule="evenodd"/>
  <path d="m-234.62-92.994c-0.69532 0-1.2584 0.56577-1.2584 1.2611s0.56313 1.2585 1.2584 1.2585c0.69797 0 1.2611-0.56313 1.2611-1.2585s-0.56313-1.2611-1.2611-1.2611" fill="none" stroke="#000" stroke-linecap="round" stroke-linejoin="round" stroke-width=".26438px"/>
  <path d="m-234.62-83.071c-0.69532 0-1.2584 0.56577-1.2584 1.2611 0 0.69532 0.56313 1.2611 1.2584 1.2611 0.69797 0 1.2611-0.56578 1.2611-1.2611 0-0.69532-0.56313-1.2611-1.2611-1.2611z" fill="#fff" fill-rule="evenodd"/>
  <path d="m-234.62-83.071c-0.69532 0-1.2584 0.56577-1.2584 1.2611 0 0.69532 0.56313 1.2611 1.2584 1.2611 0.69797 0 1.2611-0.56578 1.2611-1.2611 0-0.69532-0.56313-1.2611-1.2611-1.2611" fill="none" stroke="#000" stroke-linecap="round" stroke-linejoin="round" stroke-width=".26438px"/>
  <path d="m-256.3-82.807c-0.69532 0-1.2584 0.56577-1.2584 1.2611s0.56313 1.2611 1.2584 1.2611c0.69796 0 1.2611-0.56577 1.2611-1.2611s-0.56313-1.2611-1.2611-1.2611z" fill="#fff" fill-rule="evenodd"/>
  <path d="m-256.3-82.807c-0.69532 0-1.2584 0.56577-1.2584 1.2611s0.56313 1.2611 1.2584 1.2611c0.69796 0 1.2611-0.56577 1.2611-1.2611s-0.56313-1.2611-1.2611-1.2611" fill="none" stroke="#000" stroke-linecap="round" stroke-linejoin="round" stroke-width=".26438px"/>
 </g>
</svg>
