<?xml version="1.0" encoding="UTF-8"?>
<!-- Created with Inkscape (http://www.inkscape.org/) -->
<svg width="30.357mm" height="25.751mm" version="1.1" viewBox="0 0 30.357303 25.751161" xmlns="http://www.w3.org/2000/svg" xmlns:cc="http://creativecommons.org/ns#" xmlns:dc="http://purl.org/dc/elements/1.1/" xmlns:rdf="http://www.w3.org/1999/02/22-rdf-syntax-ns#">
 <defs>
  <clipPath id="clipEmfPath1-85">
   <path d="m0.15988 33.574h14.869v20.944h-14.869z"/>
  </clipPath>
  <clipPath id="clipEmfPath2-315">
   <path d="m0.15988 87.933h14.869v20.944h-14.869z"/>
  </clipPath>
  <clipPath id="clipEmfPath3-32">
   <path d="m105.04 28.138h15.028v20.944h-15.028z"/>
  </clipPath>
  <clipPath id="clipEmfPath4-27">
   <path d="m57.076 0.15988h15.028v20.944h-15.028z"/>
  </clipPath>
  <clipPath id="clipEmfPath5-2">
   <path d="m43.007 88.092h15.028v20.944h-15.028z"/>
  </clipPath>
  <clipPath id="clipEmfPath6-11">
   <path d="m109.04 86.014h15.028v20.944h-15.028z"/>
  </clipPath>
  <clipPath id="clipEmfPath7-72">
   <path d="m58.035 36.132h11.032v15.988h-11.032z"/>
  </clipPath>
  <clipPath id="clipEmfPath8-4">
   <path d="m74.982 58.035h11.032v15.988h-11.032z"/>
  </clipPath>
  <clipPath id="clipEmfPath9-67">
   <path d="m44.126 58.995h10.872v15.988h-10.872z"/>
  </clipPath>
  <clipPath id="clipEmfPath10-13">
   <path d="m11.032 60.114h11.032v15.988h-11.032z"/>
  </clipPath>
  <clipPath id="clipEmfPath11-03">
   <path d="m32.135 74.982h10.872v15.988h-10.872z"/>
  </clipPath>
  <clipPath id="clipEmfPath12-86">
   <path d="m82.976 73.064h11.032v15.988h-11.032z"/>
  </clipPath>
  <clipPath id="clipEmfPath13-12">
   <path d="m106 66.989h11.032v15.988h-11.032z"/>
  </clipPath>
  <clipPath id="clipEmfPath14-04">
   <path d="m84.095 22.063h10.872v15.988h-10.872z"/>
  </clipPath>
  <clipPath id="clipEmfPath15-57">
   <path d="m39.01 21.104h11.032v15.988h-11.032z"/>
  </clipPath>
 </defs>
 <metadata>
  <rdf:RDF>
   <cc:Work rdf:about="">
    <dc:format>image/svg+xml</dc:format>
    <dc:type rdf:resource="http://purl.org/dc/dcmitype/StillImage"/>
    <dc:title/>
   </cc:Work>
  </rdf:RDF>
 </metadata>
 <g transform="matrix(1 0 0 1 355.13 69.331)">
  <text x="-355.23465" y="-66.91774" fill="#000000" font-family="Calibri" font-size="3.8861px" font-weight="400" letter-spacing="0px" stroke-width=".26458" word-spacing="0px" style="line-height:125%" xml:space="preserve"><tspan x="0" y="0" stroke-width=".26458"><tspan dx="0" dy="0" fill="#000000" font-family="Calibri" font-size="3.8861px" font-weight="400" stroke-width=".26458"/></tspan></text>
  <path d="m-338.63-65.554c-0.69532 0-1.2584 0.56578-1.2584 1.2611 0 0.69532 0.56313 1.2611 1.2584 1.2611 0.69797 0 1.2611-0.56577 1.2611-1.2611 0-0.69532-0.56313-1.2611-1.2611-1.2611z" fill="#fff" fill-rule="evenodd"/>
  <path d="m-338.63-65.554c-0.69532 0-1.2584 0.56578-1.2584 1.2611 0 0.69532 0.56313 1.2611 1.2584 1.2611 0.69797 0 1.2611-0.56577 1.2611-1.2611 0-0.69532-0.56313-1.2611-1.2611-1.2611" fill="none" stroke="#000" stroke-linecap="round" stroke-linejoin="round" stroke-width=".26438px"/>
  <g transform="matrix(.26458 0 0 .26458 -355.23 -70.556)" clip-path="url(#clipEmfPath1-85)">
   <text transform="translate(.15988 47.324)" fill="#000000" font-family="Calibri" font-size="14.688px" font-weight="400" letter-spacing="0px" word-spacing="0px" style="line-height:125%" xml:space="preserve"><tspan x="0" y="0" fill="#000000" font-family="Calibri" font-size="14.688px" font-weight="400"><tspan dx="0" dy="0">A</tspan><tspan dx="0" dy="0"/></tspan></text>
  </g>
  <g transform="matrix(.26458 0 0 .26458 -355.23 -70.556)" clip-path="url(#clipEmfPath2-315)">
   <text transform="translate(.15988 101.68)" fill="#000000" font-family="Calibri" font-size="14.688px" font-weight="400" letter-spacing="0px" word-spacing="0px" style="line-height:125%" xml:space="preserve"><tspan x="0" y="0" fill="#000000" font-family="Calibri" font-size="14.688px" font-weight="400"><tspan dx="0" dy="0">B</tspan><tspan dx="0" dy="0"/></tspan></text>
  </g>
  <g transform="matrix(.26458 0 0 .26458 -355.23 -70.556)" clip-path="url(#clipEmfPath3-32)">
   <text transform="translate(105.04 41.888)" fill="#000000" font-family="Calibri" font-size="14.688px" font-weight="400" letter-spacing="0px" word-spacing="0px" style="line-height:125%" xml:space="preserve"><tspan x="0" y="0" fill="#000000" font-family="Calibri" font-size="14.688px" font-weight="400"><tspan dx="0" dy="0">E</tspan><tspan dx="0" dy="0"/></tspan></text>
  </g>
  <g transform="matrix(.26458 0 0 .26458 -355.23 -70.556)" clip-path="url(#clipEmfPath4-27)">
   <text transform="translate(57.076 13.909)" fill="#000000" font-family="Calibri" font-size="14.688px" font-weight="400" letter-spacing="0px" word-spacing="0px" style="line-height:125%" xml:space="preserve"><tspan x="0" y="0" fill="#000000" font-family="Calibri" font-size="14.688px" font-weight="400"><tspan dx="0" dy="0">D</tspan><tspan dx="0" dy="0"/></tspan></text>
  </g>
  <g transform="matrix(.26458 0 0 .26458 -355.23 -70.556)" clip-path="url(#clipEmfPath5-2)">
   <text transform="translate(43.007 101.84)" fill="#000000" font-family="Calibri" font-size="14.688px" font-weight="400" letter-spacing="0px" word-spacing="0px" style="line-height:125%" xml:space="preserve"><tspan x="0" y="0" fill="#000000" font-family="Calibri" font-size="14.688px" font-weight="400"><tspan dx="0" dy="0">C</tspan><tspan dx="0" dy="0"/></tspan></text>
  </g>
  <g transform="matrix(.26458 0 0 .26458 -355.23 -70.556)" clip-path="url(#clipEmfPath6-11)">
   <text transform="translate(109.04 99.763)" fill="#000000" font-family="Calibri" font-size="14.688px" font-weight="400" letter-spacing="0px" word-spacing="0px" style="line-height:125%" xml:space="preserve"><tspan x="0" y="0" fill="#000000" font-family="Calibri" font-size="14.688px" font-weight="400"><tspan dx="0" dy="0">F</tspan><tspan dx="0" dy="0"/></tspan></text>
  </g>
  <path d="m-338.89-48.475c-0.69532 0-1.2584 0.56577-1.2584 1.2611s0.56313 1.2611 1.2584 1.2611c0.69797 0 1.2611-0.56577 1.2611-1.2611s-0.56313-1.2611-1.2611-1.2611z" fill="#fff" fill-rule="evenodd"/>
  <path d="m-338.89-48.475c-0.69532 0-1.2584 0.56577-1.2584 1.2611s0.56313 1.2611 1.2584 1.2611c0.69797 0 1.2611-0.56577 1.2611-1.2611s-0.56313-1.2611-1.2611-1.2611" fill="none" stroke="#000" stroke-linecap="round" stroke-linejoin="round" stroke-width=".26438px"/>
  <path d="m-349.99-58.415c-0.69532 0-1.2584 0.56577-1.2584 1.2611s0.56313 1.2611 1.2584 1.2611c0.69796 0 1.2611-0.56577 1.2611-1.2611s-0.56314-1.2611-1.2611-1.2611z" fill="#fff" fill-rule="evenodd"/>
  <path d="m-349.99-58.415c-0.69532 0-1.2584 0.56577-1.2584 1.2611s0.56313 1.2611 1.2584 1.2611c0.69796 0 1.2611-0.56577 1.2611-1.2611s-0.56314-1.2611-1.2611-1.2611" fill="none" stroke="#000" stroke-linecap="round" stroke-linejoin="round" stroke-width=".26438px"/>
  <path d="m-328.05-58.661c-0.69533 0-1.2585 0.56577-1.2585 1.2611s0.56313 1.2585 1.2585 1.2585c0.69796 0 1.2611-0.56313 1.2611-1.2585s-0.56313-1.2611-1.2611-1.2611z" fill="#fff" fill-rule="evenodd"/>
  <path d="m-328.05-58.661c-0.69533 0-1.2585 0.56577-1.2585 1.2611s0.56313 1.2585 1.2585 1.2585c0.69796 0 1.2611-0.56313 1.2611-1.2585s-0.56313-1.2611-1.2611-1.2611" fill="none" stroke="#000" stroke-linecap="round" stroke-linejoin="round" stroke-width=".26438px"/>
  <path d="m-328.05-48.739c-0.69533 0-1.2585 0.56577-1.2585 1.2611 0 0.69532 0.56313 1.2611 1.2585 1.2611 0.69796 0 1.2611-0.56578 1.2611-1.2611 0-0.69532-0.56313-1.2611-1.2611-1.2611z" fill="#fff" fill-rule="evenodd"/>
  <path d="m-328.05-48.739c-0.69533 0-1.2585 0.56577-1.2585 1.2611 0 0.69532 0.56313 1.2611 1.2585 1.2611 0.69796 0 1.2611-0.56578 1.2611-1.2611 0-0.69532-0.56313-1.2611-1.2611-1.2611" fill="none" stroke="#000" stroke-linecap="round" stroke-linejoin="round" stroke-width=".26438px"/>
  <path d="m-349.73-48.475c-0.69532 0-1.2584 0.56577-1.2584 1.2611s0.56313 1.2611 1.2584 1.2611c0.69797 0 1.2611-0.56577 1.2611-1.2611s-0.56313-1.2611-1.2611-1.2611z" fill="#fff" fill-rule="evenodd"/>
  <path d="m-349.73-48.475c-0.69532 0-1.2584 0.56577-1.2584 1.2611s0.56313 1.2611 1.2584 1.2611c0.69797 0 1.2611-0.56577 1.2611-1.2611s-0.56313-1.2611-1.2611-1.2611" fill="none" stroke="#000" stroke-linecap="round" stroke-linejoin="round" stroke-width=".26438px"/>
  <g stroke="#000" stroke-linejoin="bevel" stroke-width=".042301px">
   <path d="m-348.87-57.358h17.272v0.35427h-17.272zm16.92-0.88039 2.115 1.0575-2.115 1.0575z"/>
   <path d="m-329.19-55.994-7.6882 7.0087-0.2353-0.25909 7.6855-7.0087zm-6.8342 7.4238-2.2737 0.64244 0.84866-2.2049z"/>
   <path d="m-340.27-48.062-7.704-7.252 0.24058-0.25909 7.704 7.2546zm-8.053-6.3689-0.8143-2.2208 2.2657 0.67946z"/>
   <path d="m-349.76-55.594v5.1105h-0.35162v-5.1105zm0.88303 4.7588-1.0575 2.115-1.0575-2.115z"/>
   <path d="m-348.34-47.311h5.9036v0.35427h-5.9036zm5.552-0.88039 2.115 1.0575-2.115 1.0575z"/>
   <path d="m-337.24-47.576h5.9036v0.35427h-5.9036zm5.552-0.88039 2.115 1.0575-2.115 1.0575z"/>
   <path d="m-328.16-49.249v-4.8461h0.35163v4.8461zm-0.88039-4.4945 1.0575-2.115 1.0575 2.115z"/>
   <path d="m-329.67-58.619-6.1918-4.0582 0.193-0.29346 6.1918 4.0556zm-6.3795-3.1276-1.1897-2.0437 2.3477 0.27496z"/>
   <path d="m-340.33-63.372-7.1964 4.1428-0.17714-0.30404 7.1991-4.1455zm-6.4509 4.7324-2.3609 0.13748 1.306-1.9723z"/>
  </g>
  <g transform="matrix(.26458 0 0 .26458 -355.23 -70.556)" clip-path="url(#clipEmfPath7-72)">
   <text transform="translate(58.035 48.763)" fill="#000000" font-family="Calibri" font-size="13.25px" font-weight="400" letter-spacing="0px" word-spacing="0px" style="line-height:125%" xml:space="preserve"><tspan x="0" y="0" fill="#000000" font-family="Calibri" font-size="13.25px" font-weight="400"><tspan dx="0" dy="0">1</tspan><tspan dx="0" dy="0"/></tspan></text>
  </g>
  <g transform="matrix(.26458 0 0 .26458 -355.23 -70.556)" clip-path="url(#clipEmfPath8-4)">
   <text transform="translate(74.982 70.666)" fill="#000000" font-family="Calibri" font-size="13.25px" font-weight="400" letter-spacing="0px" word-spacing="0px" style="line-height:125%" xml:space="preserve"><tspan x="0" y="0" fill="#000000" font-family="Calibri" font-size="13.25px" font-weight="400"><tspan dx="0" dy="0">2</tspan><tspan dx="0" dy="0"/></tspan></text>
  </g>
  <g transform="matrix(.26458 0 0 .26458 -355.23 -70.556)" clip-path="url(#clipEmfPath9-67)">
   <text transform="translate(44.126 71.625)" fill="#000000" font-family="Calibri" font-size="13.25px" font-weight="400" letter-spacing="0px" word-spacing="0px" style="line-height:125%" xml:space="preserve"><tspan x="0" y="0" fill="#000000" font-family="Calibri" font-size="13.25px" font-weight="400"><tspan dx="0" dy="0">3</tspan><tspan dx="0" dy="0"/></tspan></text>
  </g>
  <g transform="matrix(.26458 0 0 .26458 -355.23 -70.556)" clip-path="url(#clipEmfPath10-13)">
   <text transform="translate(11.032 72.744)" fill="#000000" font-family="Calibri" font-size="13.25px" font-weight="400" letter-spacing="0px" word-spacing="0px" style="line-height:125%" xml:space="preserve"><tspan x="0" y="0" fill="#000000" font-family="Calibri" font-size="13.25px" font-weight="400"><tspan dx="0" dy="0">4</tspan><tspan dx="0" dy="0"/></tspan></text>
  </g>
  <g transform="matrix(.26458 0 0 .26458 -355.23 -70.556)" clip-path="url(#clipEmfPath11-03)">
   <text transform="translate(32.135 87.613)" fill="#000000" font-family="Calibri" font-size="13.25px" font-weight="400" letter-spacing="0px" word-spacing="0px" style="line-height:125%" xml:space="preserve"><tspan x="0" y="0" fill="#000000" font-family="Calibri" font-size="13.25px" font-weight="400"><tspan dx="0" dy="0">5</tspan><tspan dx="0" dy="0"/></tspan></text>
  </g>
  <g transform="matrix(.26458 0 0 .26458 -355.23 -70.556)" clip-path="url(#clipEmfPath12-86)">
   <text transform="translate(82.976 85.694)" fill="#000000" font-family="Calibri" font-size="13.25px" font-weight="400" letter-spacing="0px" word-spacing="0px" style="line-height:125%" xml:space="preserve"><tspan x="0" y="0" fill="#000000" font-family="Calibri" font-size="13.25px" font-weight="400"><tspan dx="0" dy="0">6</tspan><tspan dx="0" dy="0"/></tspan></text>
  </g>
  <g transform="matrix(.26458 0 0 .26458 -355.23 -70.556)" clip-path="url(#clipEmfPath13-12)">
   <text transform="translate(106 79.619)" fill="#000000" font-family="Calibri" font-size="13.25px" font-weight="400" letter-spacing="0px" word-spacing="0px" style="line-height:125%" xml:space="preserve"><tspan x="0" y="0" fill="#000000" font-family="Calibri" font-size="13.25px" font-weight="400"><tspan dx="0" dy="0">7</tspan><tspan dx="0" dy="0"/></tspan></text>
  </g>
  <g transform="matrix(.26458 0 0 .26458 -355.23 -70.556)" clip-path="url(#clipEmfPath14-04)">
   <text transform="translate(84.095 34.693)" fill="#000000" font-family="Calibri" font-size="13.25px" font-weight="400" letter-spacing="0px" word-spacing="0px" style="line-height:125%" xml:space="preserve"><tspan x="0" y="0" fill="#000000" font-family="Calibri" font-size="13.25px" font-weight="400"><tspan dx="0" dy="0">8</tspan><tspan dx="0" dy="0"/></tspan></text>
  </g>
  <g transform="matrix(.26458 0 0 .26458 -355.23 -70.556)" clip-path="url(#clipEmfPath15-57)">
   <text transform="translate(39.01 33.734)" fill="#000000" font-family="Calibri" font-size="13.25px" font-weight="400" letter-spacing="0px" word-spacing="0px" style="line-height:125%" xml:space="preserve"><tspan x="0" y="0" fill="#000000" font-family="Calibri" font-size="13.25px" font-weight="400"><tspan dx="0" dy="0">9</tspan><tspan dx="0" dy="0"/></tspan></text>
  </g>
 </g>
</svg>
