<?xml version="1.0" encoding="UTF-8"?>
<!-- Created with Inkscape (http://www.inkscape.org/) -->
<svg width="33.224mm" height="25.605mm" version="1.1" viewBox="0 0 33.223681 25.605283" xmlns="http://www.w3.org/2000/svg" xmlns:cc="http://creativecommons.org/ns#" xmlns:dc="http://purl.org/dc/elements/1.1/" xmlns:rdf="http://www.w3.org/1999/02/22-rdf-syntax-ns#">
 <defs>
  <clipPath id="clipEmfPath1-22">
   <path d="m38.211 0h15.028v20.944h-15.028z"/>
  </clipPath>
  <clipPath id="clipEmfPath2-12">
   <path d="m0.31975 73.224h14.869v21.104h-14.869z"/>
  </clipPath>
  <clipPath id="clipEmfPath3-48">
   <path d="m102.16 86.334h15.028v20.944h-15.028z"/>
  </clipPath>
  <clipPath id="clipEmfPath4-69">
   <path d="m59.155 51.321h15.028v20.944h-15.028z"/>
  </clipPath>
  <clipPath id="clipEmfPath5-59">
   <path d="m116.23 33.734h14.869v20.944h-14.869z"/>
  </clipPath>
 </defs>
 <metadata>
  <rdf:RDF>
   <cc:Work rdf:about="">
    <dc:format>image/svg+xml</dc:format>
    <dc:type rdf:resource="http://purl.org/dc/dcmitype/StillImage"/>
    <dc:title/>
   </cc:Work>
  </rdf:RDF>
 </metadata>
 <g transform="matrix(1 0 0 1 417.91 38.302)">
  <text x="-418.31821" y="-35.751041" fill="#000000" font-family="Calibri" font-size="3.8861px" font-weight="400" letter-spacing="0px" stroke-width=".26458" word-spacing="0px" style="line-height:125%" xml:space="preserve"><tspan x="0" y="0" stroke-width=".26458"><tspan dx="0" dy="0" fill="#000000" font-family="Calibri" font-size="3.8861px" font-weight="400" stroke-width=".26458"/></tspan></text>
  <g fill="none" stroke="#000" stroke-linejoin="round" stroke-width=".26438px">
   <path d="m-393.15-14.804 7.1383-8.9889"/>
   <path d="m-402.93-35.584c5.6392 3.2439 11.281 6.4853 10.046 21.944"/>
   <path d="m-403.46-36.238v14.541"/>
   <path d="m-403.2-35.46-11.897 20.886"/>
   <path d="m-403.2-35.973 10.311 21.415"/>
   <path d="m-415.1-14.03 11.633-7.4027"/>
   <path d="m-403.46-21.432 10.575 7.1383"/>
  </g>
  <path d="m-403.26-37.136c-0.69532 0-1.2611 0.56578-1.2611 1.2611 0 0.69532 0.56578 1.2611 1.2611 1.2611s1.2584-0.56577 1.2584-1.2611c0-0.69532-0.56313-1.2611-1.2584-1.2611z" fill="#fff" fill-rule="evenodd"/>
  <path d="m-403.26-37.136c-0.69532 0-1.2611 0.56578-1.2611 1.2611 0 0.69532 0.56578 1.2611 1.2611 1.2611s1.2584-0.56577 1.2584-1.2611c0-0.69532-0.56313-1.2611-1.2584-1.2611" fill="none" stroke="#000" stroke-linecap="round" stroke-linejoin="round" stroke-width=".26438px"/>
  <path d="m-414.89-15.351c-0.69532 0-1.2611 0.56577-1.2611 1.2611s0.56577 1.2611 1.2611 1.2611c0.69533 0 1.2585-0.56577 1.2585-1.2611s-0.56313-1.2611-1.2585-1.2611z" fill="#fff" fill-rule="evenodd"/>
  <path d="m-414.89-15.351c-0.69532 0-1.2611 0.56577-1.2611 1.2611s0.56577 1.2611 1.2611 1.2611c0.69533 0 1.2585-0.56577 1.2585-1.2611s-0.56313-1.2611-1.2585-1.2611" fill="none" stroke="#000" stroke-linecap="round" stroke-linejoin="round" stroke-width=".26438px"/>
  <path d="m-392.95-15.597c-0.69532 0-1.2611 0.56577-1.2611 1.2611s0.56578 1.2585 1.2611 1.2585 1.2584-0.56313 1.2584-1.2585-0.56313-1.2611-1.2584-1.2611z" fill="#fff" fill-rule="evenodd"/>
  <path d="m-392.95-15.597c-0.69532 0-1.2611 0.56577-1.2611 1.2611s0.56578 1.2585 1.2611 1.2585 1.2584-0.56313 1.2584-1.2585-0.56313-1.2611-1.2584-1.2611" fill="none" stroke="#000" stroke-linecap="round" stroke-linejoin="round" stroke-width=".26438px"/>
  <path d="m-403.52-22.49c-0.69532 0-1.2611 0.56578-1.2611 1.2611 0 0.69532 0.56578 1.2611 1.2611 1.2611s1.2584-0.56578 1.2584-1.2611c0-0.69532-0.56313-1.2611-1.2584-1.2611z" fill="#fff" fill-rule="evenodd"/>
  <path d="m-403.52-22.49c-0.69532 0-1.2611 0.56578-1.2611 1.2611 0 0.69532 0.56578 1.2611 1.2611 1.2611s1.2584-0.56578 1.2584-1.2611c0-0.69532-0.56313-1.2611-1.2584-1.2611" fill="none" stroke="#000" stroke-linecap="round" stroke-linejoin="round" stroke-width=".26438px"/>
  <g transform="matrix(.26458 0 0 .26458 -418.32 -39.474)" clip-path="url(#clipEmfPath1-22)">
   <text transform="translate(38.211 13.749)" fill="#000000" font-family="Calibri" font-size="14.688px" font-weight="400" letter-spacing="0px" word-spacing="0px" style="line-height:125%" xml:space="preserve"><tspan x="0" y="0" fill="#000000" font-family="Calibri" font-size="14.688px" font-weight="400"><tspan dx="0" dy="0">A</tspan><tspan dx="0" dy="0"/></tspan></text>
  </g>
  <g transform="matrix(.26458 0 0 .26458 -418.32 -39.474)" clip-path="url(#clipEmfPath2-12)">
   <text transform="translate(.31976 86.973)" fill="#000000" font-family="Calibri" font-size="14.688px" font-weight="400" letter-spacing="0px" word-spacing="0px" style="line-height:125%" xml:space="preserve"><tspan x="0" y="0" fill="#000000" font-family="Calibri" font-size="14.688px" font-weight="400"><tspan dx="0" dy="0">B</tspan><tspan dx="0" dy="0"/></tspan></text>
  </g>
  <g transform="matrix(.26458 0 0 .26458 -418.32 -39.474)" clip-path="url(#clipEmfPath3-48)">
   <text transform="translate(102.16 100.08)" fill="#000000" font-family="Calibri" font-size="14.688px" font-weight="400" letter-spacing="0px" word-spacing="0px" style="line-height:125%" xml:space="preserve"><tspan x="0" y="0" fill="#000000" font-family="Calibri" font-size="14.688px" font-weight="400"><tspan dx="0" dy="0">C</tspan><tspan dx="0" dy="0"/></tspan></text>
  </g>
  <g transform="matrix(.26458 0 0 .26458 -418.32 -39.474)" clip-path="url(#clipEmfPath4-69)">
   <text transform="translate(59.155 65.07)" fill="#000000" font-family="Calibri" font-size="14.688px" font-weight="400" letter-spacing="0px" word-spacing="0px" style="line-height:125%" xml:space="preserve"><tspan x="0" y="0" fill="#000000" font-family="Calibri" font-size="14.688px" font-weight="400"><tspan dx="0" dy="0">D</tspan><tspan dx="0" dy="0"/></tspan></text>
  </g>
  <path d="m-386.07-24.975c-0.69532 0-1.2611 0.56578-1.2611 1.2611 0 0.69532 0.56577 1.2611 1.2611 1.2611s1.2584-0.56578 1.2584-1.2611c0-0.69532-0.56313-1.2611-1.2584-1.2611z" fill="#fff" fill-rule="evenodd"/>
  <path d="m-386.07-24.975c-0.69532 0-1.2611 0.56578-1.2611 1.2611 0 0.69532 0.56577 1.2611 1.2611 1.2611s1.2584-0.56578 1.2584-1.2611c0-0.69532-0.56313-1.2611-1.2584-1.2611" fill="none" stroke="#000" stroke-linecap="round" stroke-linejoin="round" stroke-width=".26438px"/>
  <g transform="matrix(.26458 0 0 .26458 -418.32 -39.474)" clip-path="url(#clipEmfPath5-59)">
   <text transform="translate(116.23 47.484)" fill="#000000" font-family="Calibri" font-size="14.688px" font-weight="400" letter-spacing="0px" word-spacing="0px" style="line-height:125%" xml:space="preserve"><tspan x="0" y="0" fill="#000000" font-family="Calibri" font-size="14.688px" font-weight="400"><tspan dx="0" dy="0">E</tspan><tspan dx="0" dy="0"/></tspan></text>
  </g>
 </g>
</svg>
