<?xml version="1.0" encoding="UTF-8"?>
<!-- Created with Inkscape (http://www.inkscape.org/) -->
<svg width="37.153mm" height="31.866mm" version="1.1" viewBox="0 0 37.153582 31.865746" xmlns="http://www.w3.org/2000/svg" xmlns:cc="http://creativecommons.org/ns#" xmlns:dc="http://purl.org/dc/elements/1.1/" xmlns:rdf="http://www.w3.org/1999/02/22-rdf-syntax-ns#">
 <metadata>
  <rdf:RDF>
   <cc:Work rdf:about="">
    <dc:format>image/svg+xml</dc:format>
    <dc:type rdf:resource="http://purl.org/dc/dcmitype/StillImage"/>
    <dc:title/>
   </cc:Work>
  </rdf:RDF>
 </metadata>
 <g transform="matrix(1 0 0 1 415.37 99.967)">
  <text x="-415.55197" y="-96.299629" fill="#000000" font-family="Calibri" font-size="3.8861px" font-weight="400" letter-spacing="0px" stroke-width=".26458" word-spacing="0px" style="line-height:125%" xml:space="preserve"><tspan x="0" y="0" stroke-width=".26458"><tspan dx="0" dy="0" fill="#000000" font-family="Calibri" font-size="3.8861px" font-weight="400" stroke-width=".26458"/></tspan></text>
  <g fill="none" stroke="#000" stroke-linejoin="round" stroke-width=".26438px">
   <path d="m-406.43-92.82h6.6994"/>
   <path d="m-393.03-69.555v-29.082"/>
   <path d="m-379.63-69.465h-13.838"/>
   <path d="m-379.46-75.459h-20.18"/>
   <path d="m-399.55-75.546v-17.275"/>
   <path d="m-399.73-81.188h6.6968"/>
   <path d="m-392.68-87.004h6.6994"/>
   <path d="m-393.03-92.82h6.6968"/>
   <path d="m-399.9-86.914h-13.835"/>
   <path d="m-386.51-75.723v-17.272"/>
   <path d="m-406.6-87.004 7.0484-5.9909"/>
   <path d="m-414-87.004 7.0484-5.9909"/>
   <path d="m-399.37-92.995h6.6968"/>
   <path d="m-406.95-93.172 14.631-5.8164"/>
   <path d="m-379.81-69.555v-6.168"/>
  </g>
  <path d="m-392.83-70.753c-0.69532 0-1.2611 0.56577-1.2611 1.2611 0 0.69532 0.56578 1.2585 1.2611 1.2585s1.2584-0.56313 1.2584-1.2585c0-0.69532-0.56313-1.2611-1.2584-1.2611z" fill="#fff" fill-rule="evenodd"/>
  <path d="m-392.83-70.753c-0.69532 0-1.2611 0.56577-1.2611 1.2611 0 0.69532 0.56578 1.2585 1.2611 1.2585s1.2584-0.56313 1.2584-1.2585c0-0.69532-0.56313-1.2611-1.2584-1.2611" fill="none" stroke="#000" stroke-linecap="round" stroke-linejoin="round" stroke-width=".26438px"/>
  <path d="m-379.61-70.753c-0.69533 0-1.2611 0.56577-1.2611 1.2611 0 0.69532 0.56577 1.2585 1.2611 1.2585 0.69531 0 1.2584-0.56313 1.2584-1.2585 0-0.69532-0.56314-1.2611-1.2584-1.2611z" fill="#fff" fill-rule="evenodd"/>
  <path d="m-379.61-70.753c-0.69533 0-1.2611 0.56577-1.2611 1.2611 0 0.69532 0.56577 1.2585 1.2611 1.2585 0.69531 0 1.2584-0.56313 1.2584-1.2585 0-0.69532-0.56314-1.2611-1.2584-1.2611" fill="none" stroke="#000" stroke-linecap="round" stroke-linejoin="round" stroke-width=".26438px"/>
  <path d="m-399.44-76.569c-0.69532 0-1.2611 0.56577-1.2611 1.2611s0.56577 1.2585 1.2611 1.2585c0.69533 0 1.2585-0.56313 1.2585-1.2585s-0.56313-1.2611-1.2585-1.2611z" fill="#fff" fill-rule="evenodd"/>
  <path d="m-399.44-76.569c-0.69532 0-1.2611 0.56577-1.2611 1.2611s0.56577 1.2585 1.2611 1.2585c0.69533 0 1.2585-0.56313 1.2585-1.2585s-0.56313-1.2611-1.2585-1.2611" fill="none" stroke="#000" stroke-linecap="round" stroke-linejoin="round" stroke-width=".26438px"/>
  <path d="m-392.83-76.569c-0.69532 0-1.2611 0.56577-1.2611 1.2611s0.56578 1.2585 1.2611 1.2585 1.2584-0.56313 1.2584-1.2585-0.56313-1.2611-1.2584-1.2611z" fill="#fff" fill-rule="evenodd"/>
  <path d="m-392.83-76.569c-0.69532 0-1.2611 0.56577-1.2611 1.2611s0.56578 1.2585 1.2611 1.2585 1.2584-0.56313 1.2584-1.2585-0.56313-1.2611-1.2584-1.2611" fill="none" stroke="#000" stroke-linecap="round" stroke-linejoin="round" stroke-width=".26438px"/>
  <path d="m-386.22-76.569c-0.69532 0-1.2611 0.56577-1.2611 1.2611s0.56577 1.2585 1.2611 1.2585 1.2584-0.56313 1.2584-1.2585-0.56313-1.2611-1.2584-1.2611z" fill="#fff" fill-rule="evenodd"/>
  <path d="m-386.22-76.569c-0.69532 0-1.2611 0.56577-1.2611 1.2611s0.56577 1.2585 1.2611 1.2585 1.2584-0.56313 1.2584-1.2585-0.56313-1.2611-1.2584-1.2611" fill="none" stroke="#000" stroke-linecap="round" stroke-linejoin="round" stroke-width=".26438px"/>
  <path d="m-379.61-76.569c-0.69533 0-1.2611 0.56577-1.2611 1.2611s0.56577 1.2585 1.2611 1.2585c0.69531 0 1.2584-0.56313 1.2584-1.2585s-0.56314-1.2611-1.2584-1.2611z" fill="#fff" fill-rule="evenodd"/>
  <path d="m-379.61-76.569c-0.69533 0-1.2611 0.56577-1.2611 1.2611s0.56577 1.2585 1.2611 1.2585c0.69531 0 1.2584-0.56313 1.2584-1.2585s-0.56314-1.2611-1.2584-1.2611" fill="none" stroke="#000" stroke-linecap="round" stroke-linejoin="round" stroke-width=".26438px"/>
  <path d="m-399.44-82.385c-0.69532 0-1.2611 0.56577-1.2611 1.2611s0.56577 1.2585 1.2611 1.2585c0.69533 0 1.2585-0.56313 1.2585-1.2585s-0.56313-1.2611-1.2585-1.2611z" fill="#fff" fill-rule="evenodd"/>
  <path d="m-399.44-82.385c-0.69532 0-1.2611 0.56577-1.2611 1.2611s0.56577 1.2585 1.2611 1.2585c0.69533 0 1.2585-0.56313 1.2585-1.2585s-0.56313-1.2611-1.2585-1.2611" fill="none" stroke="#000" stroke-linecap="round" stroke-linejoin="round" stroke-width=".26438px"/>
  <path d="m-392.83-82.385c-0.69532 0-1.2611 0.56577-1.2611 1.2611s0.56578 1.2585 1.2611 1.2585 1.2584-0.56313 1.2584-1.2585-0.56313-1.2611-1.2584-1.2611z" fill="#fff" fill-rule="evenodd"/>
  <path d="m-392.83-82.385c-0.69532 0-1.2611 0.56577-1.2611 1.2611s0.56578 1.2585 1.2611 1.2585 1.2584-0.56313 1.2584-1.2585-0.56313-1.2611-1.2584-1.2611" fill="none" stroke="#000" stroke-linecap="round" stroke-linejoin="round" stroke-width=".26438px"/>
  <path d="m-406.57-88.202c-0.69532 0-1.2611 0.56578-1.2611 1.2611 0 0.69532 0.56578 1.2585 1.2611 1.2585s1.2584-0.56313 1.2584-1.2585c0-0.69532-0.56313-1.2611-1.2584-1.2611z" fill="#fff" fill-rule="evenodd"/>
  <path d="m-406.57-88.202c-0.69532 0-1.2611 0.56578-1.2611 1.2611 0 0.69532 0.56578 1.2585 1.2611 1.2585s1.2584-0.56313 1.2584-1.2585c0-0.69532-0.56313-1.2611-1.2584-1.2611" fill="none" stroke="#000" stroke-linecap="round" stroke-linejoin="round" stroke-width=".26438px"/>
  <path d="m-399.44-88.202c-0.69532 0-1.2611 0.56578-1.2611 1.2611 0 0.69532 0.56577 1.2585 1.2611 1.2585 0.69533 0 1.2585-0.56313 1.2585-1.2585 0-0.69532-0.56313-1.2611-1.2585-1.2611z" fill="#fff" fill-rule="evenodd"/>
  <path d="m-399.44-88.202c-0.69532 0-1.2611 0.56578-1.2611 1.2611 0 0.69532 0.56577 1.2585 1.2611 1.2585 0.69533 0 1.2585-0.56313 1.2585-1.2585 0-0.69532-0.56313-1.2611-1.2585-1.2611" fill="none" stroke="#000" stroke-linecap="round" stroke-linejoin="round" stroke-width=".26438px"/>
  <path d="m-392.83-88.202c-0.69532 0-1.2611 0.56578-1.2611 1.2611 0 0.69532 0.56578 1.2585 1.2611 1.2585s1.2584-0.56313 1.2584-1.2585c0-0.69532-0.56313-1.2611-1.2584-1.2611z" fill="#fff" fill-rule="evenodd"/>
  <path d="m-392.83-88.202c-0.69532 0-1.2611 0.56578-1.2611 1.2611 0 0.69532 0.56578 1.2585 1.2611 1.2585s1.2584-0.56313 1.2584-1.2585c0-0.69532-0.56313-1.2611-1.2584-1.2611" fill="none" stroke="#000" stroke-linecap="round" stroke-linejoin="round" stroke-width=".26438px"/>
  <path d="m-386.22-88.202c-0.69532 0-1.2611 0.56578-1.2611 1.2611 0 0.69532 0.56577 1.2585 1.2611 1.2585s1.2584-0.56313 1.2584-1.2585c0-0.69532-0.56313-1.2611-1.2584-1.2611z" fill="#fff" fill-rule="evenodd"/>
  <path d="m-386.22-88.202c-0.69532 0-1.2611 0.56578-1.2611 1.2611 0 0.69532 0.56577 1.2585 1.2611 1.2585s1.2584-0.56313 1.2584-1.2585c0-0.69532-0.56313-1.2611-1.2584-1.2611" fill="none" stroke="#000" stroke-linecap="round" stroke-linejoin="round" stroke-width=".26438px"/>
  <path d="m-406.57-94.018c-0.69532 0-1.2611 0.56577-1.2611 1.2611s0.56578 1.2585 1.2611 1.2585 1.2584-0.56313 1.2584-1.2585-0.56313-1.2611-1.2584-1.2611z" fill="#fff" fill-rule="evenodd"/>
  <path d="m-406.57-94.018c-0.69532 0-1.2611 0.56577-1.2611 1.2611s0.56578 1.2585 1.2611 1.2585 1.2584-0.56313 1.2584-1.2585-0.56313-1.2611-1.2584-1.2611" fill="none" stroke="#000" stroke-linecap="round" stroke-linejoin="round" stroke-width=".26438px"/>
  <path d="m-399.44-94.018c-0.69532 0-1.2611 0.56577-1.2611 1.2611s0.56577 1.2585 1.2611 1.2585c0.69533 0 1.2585-0.56313 1.2585-1.2585s-0.56313-1.2611-1.2585-1.2611z" fill="#fff" fill-rule="evenodd"/>
  <path d="m-399.44-94.018c-0.69532 0-1.2611 0.56577-1.2611 1.2611s0.56577 1.2585 1.2611 1.2585c0.69533 0 1.2585-0.56313 1.2585-1.2585s-0.56313-1.2611-1.2585-1.2611" fill="none" stroke="#000" stroke-linecap="round" stroke-linejoin="round" stroke-width=".26438px"/>
  <path d="m-392.83-94.018c-0.69532 0-1.2611 0.56577-1.2611 1.2611s0.56578 1.2585 1.2611 1.2585 1.2584-0.56313 1.2584-1.2585-0.56313-1.2611-1.2584-1.2611z" fill="#fff" fill-rule="evenodd"/>
  <path d="m-392.83-94.018c-0.69532 0-1.2611 0.56577-1.2611 1.2611s0.56578 1.2585 1.2611 1.2585 1.2584-0.56313 1.2584-1.2585-0.56313-1.2611-1.2584-1.2611" fill="none" stroke="#000" stroke-linecap="round" stroke-linejoin="round" stroke-width=".26438px"/>
  <path d="m-386.22-94.018c-0.69532 0-1.2611 0.56577-1.2611 1.2611s0.56577 1.2585 1.2611 1.2585 1.2584-0.56313 1.2584-1.2585-0.56313-1.2611-1.2584-1.2611z" fill="#fff" fill-rule="evenodd"/>
  <path d="m-386.22-94.018c-0.69532 0-1.2611 0.56577-1.2611 1.2611s0.56577 1.2585 1.2611 1.2585 1.2584-0.56313 1.2584-1.2585-0.56313-1.2611-1.2584-1.2611" fill="none" stroke="#000" stroke-linecap="round" stroke-linejoin="round" stroke-width=".26438px"/>
  <path d="m-392.83-99.834c-0.69532 0-1.2611 0.56578-1.2611 1.2611 0 0.69532 0.56578 1.2585 1.2611 1.2585s1.2584-0.56313 1.2584-1.2585c0-0.69532-0.56313-1.2611-1.2584-1.2611z" fill="#fff" fill-rule="evenodd"/>
  <path d="m-392.83-99.834c-0.69532 0-1.2611 0.56578-1.2611 1.2611 0 0.69532 0.56578 1.2585 1.2611 1.2585s1.2584-0.56313 1.2584-1.2585c0-0.69532-0.56313-1.2611-1.2584-1.2611" fill="none" stroke="#000" stroke-linecap="round" stroke-linejoin="round" stroke-width=".26438px"/>
  <path d="m-413.98-88.202c-0.69533 0-1.2611 0.56578-1.2611 1.2611 0 0.69532 0.56577 1.2585 1.2611 1.2585 0.69532 0 1.2584-0.56313 1.2584-1.2585 0-0.69532-0.56313-1.2611-1.2584-1.2611z" fill="#fff" fill-rule="evenodd"/>
  <path d="m-413.98-88.202c-0.69533 0-1.2611 0.56578-1.2611 1.2611 0 0.69532 0.56577 1.2585 1.2611 1.2585 0.69532 0 1.2584-0.56313 1.2584-1.2585 0-0.69532-0.56313-1.2611-1.2584-1.2611" fill="none" stroke="#000" stroke-linecap="round" stroke-linejoin="round" stroke-width=".26438px"/>
 </g>
</svg>
