<?xml version="1.0" encoding="UTF-8"?>
<!-- Created with Inkscape (http://www.inkscape.org/) -->
<svg width="37.153mm" height="31.866mm" version="1.1" viewBox="0 0 37.153582 31.865746" xmlns="http://www.w3.org/2000/svg" xmlns:cc="http://creativecommons.org/ns#" xmlns:dc="http://purl.org/dc/elements/1.1/" xmlns:rdf="http://www.w3.org/1999/02/22-rdf-syntax-ns#">
 <metadata>
  <rdf:RDF>
   <cc:Work rdf:about="">
    <dc:format>image/svg+xml</dc:format>
    <dc:type rdf:resource="http://purl.org/dc/dcmitype/StillImage"/>
    <dc:title/>
   </cc:Work>
  </rdf:RDF>
 </metadata>
 <g transform="matrix(1 0 0 1 359.09 70.7)">
  <text x="-359.26929" y="-67.032639" fill="#000000" font-family="Calibri" font-size="3.8861px" font-weight="400" letter-spacing="0px" stroke-width=".26458" word-spacing="0px" style="line-height:125%" xml:space="preserve"><tspan x="0" y="0" stroke-width=".26458"><tspan dx="0" dy="0" fill="#000000" font-family="Calibri" font-size="3.8861px" font-weight="400" stroke-width=".26458"/></tspan></text>
  <g fill="none" stroke="#000" stroke-linejoin="round" stroke-width=".26438px">
   <path d="m-350.14-63.728h6.6994"/>
   <path d="m-336.75-40.288v-29.082"/>
   <path d="m-323.35-40.198h-13.838"/>
   <path d="m-323.18-46.192h-20.18"/>
   <path d="m-343.27-46.279v-17.275"/>
   <path d="m-343.44-51.921h6.6968"/>
   <path d="m-336.4-57.737h6.6994"/>
   <path d="m-336.75-63.553h6.6968"/>
   <path d="m-343.62-57.647h-13.835"/>
   <path d="m-330.22-46.456v-17.272"/>
   <path d="m-350.32-57.737 7.0484-5.9909"/>
   <path d="m-357.72-57.737 7.0484-5.9909"/>
   <path d="m-343.09-63.728h6.6968"/>
   <path d="m-350.67-63.905 14.631-5.8164"/>
   <path d="m-323.53-40.288v-6.168"/>
  </g>
  <path d="m-336.54-41.486c-0.69532 0-1.2611 0.56577-1.2611 1.2611 0 0.69532 0.56577 1.2585 1.2611 1.2585s1.2584-0.56313 1.2584-1.2585c0-0.69532-0.56313-1.2611-1.2584-1.2611z" fill="#fff" fill-rule="evenodd"/>
  <path d="m-336.54-41.486c-0.69532 0-1.2611 0.56577-1.2611 1.2611 0 0.69532 0.56577 1.2585 1.2611 1.2585s1.2584-0.56313 1.2584-1.2585c0-0.69532-0.56313-1.2611-1.2584-1.2611" fill="none" stroke="#000" stroke-linecap="round" stroke-linejoin="round" stroke-width=".26438px"/>
  <path d="m-323.32-41.486c-0.69532 0-1.2611 0.56577-1.2611 1.2611 0 0.69532 0.56578 1.2585 1.2611 1.2585s1.2584-0.56313 1.2584-1.2585c0-0.69532-0.56313-1.2611-1.2584-1.2611z" fill="#fff" fill-rule="evenodd"/>
  <path d="m-323.32-41.486c-0.69532 0-1.2611 0.56577-1.2611 1.2611 0 0.69532 0.56578 1.2585 1.2611 1.2585s1.2584-0.56313 1.2584-1.2585c0-0.69532-0.56313-1.2611-1.2584-1.2611" fill="none" stroke="#000" stroke-linecap="round" stroke-linejoin="round" stroke-width=".26438px"/>
  <path d="m-343.15-47.302c-0.69532 0-1.2611 0.56577-1.2611 1.2611s0.56578 1.2585 1.2611 1.2585 1.2584-0.56313 1.2584-1.2585-0.56313-1.2611-1.2584-1.2611z" fill="#fff" fill-rule="evenodd"/>
  <path d="m-343.15-47.302c-0.69532 0-1.2611 0.56577-1.2611 1.2611s0.56578 1.2585 1.2611 1.2585 1.2584-0.56313 1.2584-1.2585-0.56313-1.2611-1.2584-1.2611" fill="none" stroke="#000" stroke-linecap="round" stroke-linejoin="round" stroke-width=".26438px"/>
  <path d="m-336.54-47.302c-0.69532 0-1.2611 0.56577-1.2611 1.2611s0.56577 1.2585 1.2611 1.2585 1.2584-0.56313 1.2584-1.2585-0.56313-1.2611-1.2584-1.2611z" fill="#fff" fill-rule="evenodd"/>
  <path d="m-336.54-47.302c-0.69532 0-1.2611 0.56577-1.2611 1.2611s0.56577 1.2585 1.2611 1.2585 1.2584-0.56313 1.2584-1.2585-0.56313-1.2611-1.2584-1.2611" fill="none" stroke="#000" stroke-linecap="round" stroke-linejoin="round" stroke-width=".26438px"/>
  <path d="m-329.93-47.302c-0.69532 0-1.2611 0.56577-1.2611 1.2611s0.56578 1.2585 1.2611 1.2585 1.2584-0.56313 1.2584-1.2585-0.56313-1.2611-1.2584-1.2611z" fill="#808080" fill-rule="evenodd"/>
  <path d="m-329.93-47.302c-0.69532 0-1.2611 0.56577-1.2611 1.2611s0.56578 1.2585 1.2611 1.2585 1.2584-0.56313 1.2584-1.2585-0.56313-1.2611-1.2584-1.2611" fill="none" stroke="#000" stroke-linecap="round" stroke-linejoin="round" stroke-width=".26438px"/>
  <path d="m-323.32-47.302c-0.69532 0-1.2611 0.56577-1.2611 1.2611s0.56578 1.2585 1.2611 1.2585 1.2584-0.56313 1.2584-1.2585-0.56313-1.2611-1.2584-1.2611z" fill="#fff" fill-rule="evenodd"/>
  <path d="m-323.32-47.302c-0.69532 0-1.2611 0.56577-1.2611 1.2611s0.56578 1.2585 1.2611 1.2585 1.2584-0.56313 1.2584-1.2585-0.56313-1.2611-1.2584-1.2611" fill="none" stroke="#000" stroke-linecap="round" stroke-linejoin="round" stroke-width=".26438px"/>
  <path d="m-343.15-53.118c-0.69532 0-1.2611 0.56577-1.2611 1.2611s0.56578 1.2585 1.2611 1.2585 1.2584-0.56313 1.2584-1.2585-0.56313-1.2611-1.2584-1.2611z" fill="#808080" fill-rule="evenodd"/>
  <path d="m-343.15-53.118c-0.69532 0-1.2611 0.56577-1.2611 1.2611s0.56578 1.2585 1.2611 1.2585 1.2584-0.56313 1.2584-1.2585-0.56313-1.2611-1.2584-1.2611" fill="none" stroke="#000" stroke-linecap="round" stroke-linejoin="round" stroke-width=".26438px"/>
  <path d="m-336.54-53.118c-0.69532 0-1.2611 0.56577-1.2611 1.2611s0.56577 1.2585 1.2611 1.2585 1.2584-0.56313 1.2584-1.2585-0.56313-1.2611-1.2584-1.2611z" fill="#808080" fill-rule="evenodd"/>
  <path d="m-336.54-53.118c-0.69532 0-1.2611 0.56577-1.2611 1.2611s0.56577 1.2585 1.2611 1.2585 1.2584-0.56313 1.2584-1.2585-0.56313-1.2611-1.2584-1.2611" fill="none" stroke="#000" stroke-linecap="round" stroke-linejoin="round" stroke-width=".26438px"/>
  <path d="m-350.29-58.935c-0.69532 0-1.2611 0.56578-1.2611 1.2611 0 0.69532 0.56577 1.2585 1.2611 1.2585s1.2585-0.56313 1.2585-1.2585c0-0.69532-0.56314-1.2611-1.2585-1.2611z" fill="#808080" fill-rule="evenodd"/>
  <path d="m-350.29-58.935c-0.69532 0-1.2611 0.56578-1.2611 1.2611 0 0.69532 0.56577 1.2585 1.2611 1.2585s1.2585-0.56313 1.2585-1.2585c0-0.69532-0.56314-1.2611-1.2585-1.2611" fill="none" stroke="#000" stroke-linecap="round" stroke-linejoin="round" stroke-width=".26438px"/>
  <path d="m-343.15-58.935c-0.69532 0-1.2611 0.56578-1.2611 1.2611 0 0.69532 0.56578 1.2585 1.2611 1.2585s1.2584-0.56313 1.2584-1.2585c0-0.69532-0.56313-1.2611-1.2584-1.2611z" fill="#808080" fill-rule="evenodd"/>
  <path d="m-343.15-58.935c-0.69532 0-1.2611 0.56578-1.2611 1.2611 0 0.69532 0.56578 1.2585 1.2611 1.2585s1.2584-0.56313 1.2584-1.2585c0-0.69532-0.56313-1.2611-1.2584-1.2611" fill="none" stroke="#000" stroke-linecap="round" stroke-linejoin="round" stroke-width=".26438px"/>
  <path d="m-336.54-58.935c-0.69532 0-1.2611 0.56578-1.2611 1.2611 0 0.69532 0.56577 1.2585 1.2611 1.2585s1.2584-0.56313 1.2584-1.2585c0-0.69532-0.56313-1.2611-1.2584-1.2611z" fill="#808080" fill-rule="evenodd"/>
  <path d="m-336.54-58.935c-0.69532 0-1.2611 0.56578-1.2611 1.2611 0 0.69532 0.56577 1.2585 1.2611 1.2585s1.2584-0.56313 1.2584-1.2585c0-0.69532-0.56313-1.2611-1.2584-1.2611" fill="none" stroke="#000" stroke-linecap="round" stroke-linejoin="round" stroke-width=".26438px"/>
  <path d="m-329.93-58.935c-0.69532 0-1.2611 0.56578-1.2611 1.2611 0 0.69532 0.56578 1.2585 1.2611 1.2585s1.2584-0.56313 1.2584-1.2585c0-0.69532-0.56313-1.2611-1.2584-1.2611z" fill="#808080" fill-rule="evenodd"/>
  <path d="m-329.93-58.935c-0.69532 0-1.2611 0.56578-1.2611 1.2611 0 0.69532 0.56578 1.2585 1.2611 1.2585s1.2584-0.56313 1.2584-1.2585c0-0.69532-0.56313-1.2611-1.2584-1.2611" fill="none" stroke="#000" stroke-linecap="round" stroke-linejoin="round" stroke-width=".26438px"/>
  <path d="m-350.29-64.751c-0.69532 0-1.2611 0.56577-1.2611 1.2611 0 0.69532 0.56577 1.2585 1.2611 1.2585s1.2585-0.56313 1.2585-1.2585c0-0.69532-0.56314-1.2611-1.2585-1.2611z" fill="#808080" fill-rule="evenodd"/>
  <path d="m-350.29-64.751c-0.69532 0-1.2611 0.56577-1.2611 1.2611 0 0.69532 0.56577 1.2585 1.2611 1.2585s1.2585-0.56313 1.2585-1.2585c0-0.69532-0.56314-1.2611-1.2585-1.2611" fill="none" stroke="#000" stroke-linecap="round" stroke-linejoin="round" stroke-width=".26438px"/>
  <path d="m-343.15-64.751c-0.69532 0-1.2611 0.56577-1.2611 1.2611 0 0.69532 0.56578 1.2585 1.2611 1.2585s1.2584-0.56313 1.2584-1.2585c0-0.69532-0.56313-1.2611-1.2584-1.2611z" fill="#fff" fill-rule="evenodd"/>
  <path d="m-343.15-64.751c-0.69532 0-1.2611 0.56577-1.2611 1.2611 0 0.69532 0.56578 1.2585 1.2611 1.2585s1.2584-0.56313 1.2584-1.2585c0-0.69532-0.56313-1.2611-1.2584-1.2611" fill="none" stroke="#000" stroke-linecap="round" stroke-linejoin="round" stroke-width=".26438px"/>
  <path d="m-336.54-64.751c-0.69532 0-1.2611 0.56577-1.2611 1.2611 0 0.69532 0.56577 1.2585 1.2611 1.2585s1.2584-0.56313 1.2584-1.2585c0-0.69532-0.56313-1.2611-1.2584-1.2611z" fill="#fff" fill-rule="evenodd"/>
  <path d="m-336.54-64.751c-0.69532 0-1.2611 0.56577-1.2611 1.2611 0 0.69532 0.56577 1.2585 1.2611 1.2585s1.2584-0.56313 1.2584-1.2585c0-0.69532-0.56313-1.2611-1.2584-1.2611" fill="none" stroke="#000" stroke-linecap="round" stroke-linejoin="round" stroke-width=".26438px"/>
  <path d="m-329.93-64.751c-0.69532 0-1.2611 0.56577-1.2611 1.2611 0 0.69532 0.56578 1.2585 1.2611 1.2585s1.2584-0.56313 1.2584-1.2585c0-0.69532-0.56313-1.2611-1.2584-1.2611z" fill="#fff" fill-rule="evenodd"/>
  <path d="m-329.93-64.751c-0.69532 0-1.2611 0.56577-1.2611 1.2611 0 0.69532 0.56578 1.2585 1.2611 1.2585s1.2584-0.56313 1.2584-1.2585c0-0.69532-0.56313-1.2611-1.2584-1.2611" fill="none" stroke="#000" stroke-linecap="round" stroke-linejoin="round" stroke-width=".26438px"/>
  <path d="m-336.54-70.567c-0.69532 0-1.2611 0.56577-1.2611 1.2611s0.56577 1.2585 1.2611 1.2585 1.2584-0.56313 1.2584-1.2585-0.56313-1.2611-1.2584-1.2611z" fill="#fff" fill-rule="evenodd"/>
  <path d="m-336.54-70.567c-0.69532 0-1.2611 0.56577-1.2611 1.2611s0.56577 1.2585 1.2611 1.2585 1.2584-0.56313 1.2584-1.2585-0.56313-1.2611-1.2584-1.2611" fill="none" stroke="#000" stroke-linecap="round" stroke-linejoin="round" stroke-width=".26438px"/>
  <path d="m-357.69-58.935c-0.69532 0-1.2611 0.56578-1.2611 1.2611 0 0.69532 0.56578 1.2585 1.2611 1.2585s1.2584-0.56313 1.2584-1.2585c0-0.69532-0.56313-1.2611-1.2584-1.2611z" fill="#fff" fill-rule="evenodd"/>
  <path d="m-357.69-58.935c-0.69532 0-1.2611 0.56578-1.2611 1.2611 0 0.69532 0.56578 1.2585 1.2611 1.2585s1.2584-0.56313 1.2584-1.2585c0-0.69532-0.56313-1.2611-1.2584-1.2611" fill="none" stroke="#000" stroke-linecap="round" stroke-linejoin="round" stroke-width=".26438px"/>
 </g>
</svg>
