<?xml version="1.0" encoding="UTF-8"?>
<!-- Created with Inkscape (http://www.inkscape.org/) -->
<svg width="140.72" height="123.1" version="1.1" viewBox="0 0 140.71565 123.09941" xmlns="http://www.w3.org/2000/svg" xmlns:cc="http://creativecommons.org/ns#" xmlns:dc="http://purl.org/dc/elements/1.1/" xmlns:rdf="http://www.w3.org/1999/02/22-rdf-syntax-ns#">
 <metadata>
  <rdf:RDF>
   <cc:Work rdf:about="">
    <dc:format>image/svg+xml</dc:format>
    <dc:type rdf:resource="http://purl.org/dc/dcmitype/StillImage"/>
    <dc:title/>
   </cc:Work>
  </rdf:RDF>
 </metadata>
 <g transform="matrix(3.7795 0 0 3.7795 1282.9 104.75)">
  <text x="-339.5748" y="-24.099985" fill="#000000" font-family="Calibri" font-size="3.8861px" font-weight="400" letter-spacing="0px" stroke-width=".26458" word-spacing="0px" style="line-height:125%" xml:space="preserve"><tspan x="0" y="0" stroke-width=".26458"><tspan dx="0" dy="0" fill="#000000" font-family="Calibri" font-size="3.8861px" font-weight="400" stroke-width=".26458"/></tspan></text>
  <g fill="none" stroke="#000" stroke-linejoin="round" stroke-width=".26438px">
   <path d="m-329.94-20.655c1.4964-0.93326 2.9954-1.8507 6.3451 0"/>
   <path d="m-330.2-20.742h6.6968"/>
   <path d="m-317.09 2.6976v-29.082"/>
   <path d="m-303.69 2.7875h-13.835"/>
   <path d="m-323.61-3.2932v-17.275"/>
   <path d="m-310.57-3.4704v-17.272"/>
   <path d="m-330.66-14.751 7.051-5.9909"/>
   <path d="m-338.06-14.751 7.051-5.9909"/>
   <path d="m-331.01-20.919 14.628-5.8164"/>
   <path d="m-303.87 2.6976v-6.168"/>
   <path d="m-338.5-15.243c0.77463-2.3451 1.5493-4.6716 7.667-5.552"/>
   <path d="m-330.57-20.795c2.0622-2.8738 4.1402-5.7291 13.748-5.8164"/>
   <path d="m-323.43-9.1625c1.4964-0.93591 2.9954-1.8507 6.3451 0"/>
   <path d="m-337.18-14.45c1.4964 1.8665 2.9954 3.7013 6.3451 0"/>
   <path d="m-330.31-14.186c1.4964 1.8665 2.9954 3.7013 6.3451 0"/>
   <path d="m-316.82-13.921c1.4964 1.8665 2.9954 3.7013 6.3451 0"/>
   <path d="m-316.56-20.531c1.4964 1.8665 2.9954 3.7013 6.3451 0"/>
   <path d="m-323.17-20.795c1.4964 1.8665 2.9954 3.7013 6.3451 0"/>
   <path d="m-316.03 2.7346c2.8712 1.7343 5.7424 3.4369 12.162 0"/>
   <path d="m-303.6-3.0817c1.0575 1.269 2.115 2.5539 0.26438 5.8164"/>
   <path d="m-310.21-20.266c1.0575 1.269 2.115 2.5539 0.26438 5.8164"/>
   <path d="m-316.82-26.347c1.0575 1.269 2.115 2.5539 0.26438 5.8164"/>
   <path d="m-316.82-13.921c1.0575 1.269 2.115 2.5539 0.26438 5.8164"/>
   <path d="m-317.09-8.105c1.0575 1.269 2.115 2.5539 0.26438 5.8164"/>
   <path d="m-316.56-3.6105c1.0575 1.5572 2.115 3.1356 0.26438 7.1383"/>
   <path d="m-323.43-20.266c1.0575 1.269 2.115 2.5539 0.26438 5.8164"/>
   <path d="m-323.43-14.45c1.0575 1.269 2.115 2.5539 0.26438 5.8164"/>
   <path d="m-323.7-8.6337c1.0575 1.269 2.115 2.5539 0.26438 5.8164"/>
   <path d="m-310.21-14.45c1.0575 2.2499 2.115 4.5288 0.26438 10.311"/>
   <path d="m-330.57-15.243c0.96763-2.4323 1.9379-4.8487 6.6095-5.552"/>
   <path d="m-317.09-20.568h6.6968"/>
   <path d="m-323.43-20.742h6.6968"/>
  </g>
  <path d="m-330.63-21.766c-0.69532 0-1.2584 0.56577-1.2584 1.2611 0 0.69532 0.56313 1.2585 1.2584 1.2585 0.69796 0 1.2611-0.56313 1.2611-1.2585 0-0.69532-0.56314-1.2611-1.2611-1.2611z" fill="#fff" fill-rule="evenodd"/>
  <path d="m-330.63-21.766c-0.69532 0-1.2584 0.56577-1.2584 1.2611 0 0.69532 0.56313 1.2585 1.2584 1.2585 0.69796 0 1.2611-0.56313 1.2611-1.2585 0-0.69532-0.56314-1.2611-1.2611-1.2611" fill="none" stroke="#000" stroke-linecap="round" stroke-linejoin="round" stroke-width=".26438px"/>
  <path d="m-323.5-21.766c-0.69532 0-1.2584 0.56577-1.2584 1.2611 0 0.69532 0.56313 1.2585 1.2584 1.2585 0.69797 0 1.2611-0.56313 1.2611-1.2585 0-0.69532-0.56313-1.2611-1.2611-1.2611z" fill="#fff" fill-rule="evenodd"/>
  <path d="m-323.5-21.766c-0.69532 0-1.2584 0.56577-1.2584 1.2611 0 0.69532 0.56313 1.2585 1.2584 1.2585 0.69797 0 1.2611-0.56313 1.2611-1.2585 0-0.69532-0.56313-1.2611-1.2611-1.2611" fill="none" stroke="#000" stroke-linecap="round" stroke-linejoin="round" stroke-width=".26438px"/>
  <path d="m-310.28-21.766c-0.69532 0-1.2584 0.56577-1.2584 1.2611 0 0.69532 0.56313 1.2585 1.2584 1.2585 0.69796 0 1.2611-0.56313 1.2611-1.2585 0-0.69532-0.56314-1.2611-1.2611-1.2611z" fill="#fff" fill-rule="evenodd"/>
  <g fill="none" stroke="#000" stroke-linejoin="round" stroke-width=".26438px">
   <path d="m-310.28-21.766c-0.69532 0-1.2584 0.56577-1.2584 1.2611 0 0.69532 0.56313 1.2585 1.2584 1.2585 0.69796 0 1.2611-0.56313 1.2611-1.2585 0-0.69532-0.56314-1.2611-1.2611-1.2611" stroke-linecap="round"/>
   <g>
    <path d="m-316.82-20.266c1.0575 1.269 2.115 2.5539 0.26438 5.8164"/>
    <path d="m-316.73-13.958h6.6968"/>
    <path d="m-323.96-14.397h-13.838"/>
   </g>
  </g>
  <path d="m-330.63-15.949c-0.69532 0-1.2584 0.56577-1.2584 1.2611s0.56313 1.2585 1.2584 1.2585c0.69796 0 1.2611-0.56313 1.2611-1.2585s-0.56314-1.2611-1.2611-1.2611z" fill="#fff" fill-rule="evenodd"/>
  <path d="m-330.63-15.949c-0.69532 0-1.2584 0.56577-1.2584 1.2611s0.56313 1.2585 1.2584 1.2585c0.69796 0 1.2611-0.56313 1.2611-1.2585s-0.56314-1.2611-1.2611-1.2611" fill="none" stroke="#000" stroke-linecap="round" stroke-linejoin="round" stroke-width=".26438px"/>
  <path d="m-323.5-15.949c-0.69532 0-1.2584 0.56577-1.2584 1.2611s0.56313 1.2585 1.2584 1.2585c0.69797 0 1.2611-0.56313 1.2611-1.2585s-0.56313-1.2611-1.2611-1.2611z" fill="#fff" fill-rule="evenodd"/>
  <path d="m-323.5-15.949c-0.69532 0-1.2584 0.56577-1.2584 1.2611s0.56313 1.2585 1.2584 1.2585c0.69797 0 1.2611-0.56313 1.2611-1.2585s-0.56313-1.2611-1.2611-1.2611" fill="none" stroke="#000" stroke-linecap="round" stroke-linejoin="round" stroke-width=".26438px"/>
  <path d="m-316.89-15.949c-0.69532 0-1.2584 0.56577-1.2584 1.2611s0.56313 1.2585 1.2584 1.2585c0.69796 0 1.2611-0.56313 1.2611-1.2585s-0.56313-1.2611-1.2611-1.2611z" fill="#fff" fill-rule="evenodd"/>
  <path d="m-316.89-15.949c-0.69532 0-1.2584 0.56577-1.2584 1.2611s0.56313 1.2585 1.2584 1.2585c0.69796 0 1.2611-0.56313 1.2611-1.2585s-0.56313-1.2611-1.2611-1.2611" fill="none" stroke="#000" stroke-linecap="round" stroke-linejoin="round" stroke-width=".26438px"/>
  <path d="m-310.28-15.949c-0.69532 0-1.2584 0.56577-1.2584 1.2611s0.56313 1.2585 1.2584 1.2585c0.69796 0 1.2611-0.56313 1.2611-1.2585s-0.56314-1.2611-1.2611-1.2611z" fill="#fff" fill-rule="evenodd"/>
  <path d="m-310.28-15.949c-0.69532 0-1.2584 0.56577-1.2584 1.2611s0.56313 1.2585 1.2584 1.2585c0.69796 0 1.2611-0.56313 1.2611-1.2585s-0.56314-1.2611-1.2611-1.2611" fill="none" stroke="#000" stroke-linecap="round" stroke-linejoin="round" stroke-width=".26438px"/>
  <path d="m-338.04-15.949c-0.69533 0-1.2585 0.56577-1.2585 1.2611s0.56313 1.2585 1.2585 1.2585c0.69796 0 1.2611-0.56313 1.2611-1.2585s-0.56313-1.2611-1.2611-1.2611z" fill="#fff" fill-rule="evenodd"/>
  <path d="m-338.04-15.949c-0.69533 0-1.2585 0.56577-1.2585 1.2611s0.56313 1.2585 1.2585 1.2585c0.69796 0 1.2611-0.56313 1.2611-1.2585s-0.56313-1.2611-1.2611-1.2611" fill="none" stroke="#000" stroke-linecap="round" stroke-linejoin="round" stroke-width=".26438px"/>
  <path d="m-323.79-8.142h6.6994" fill="none" stroke="#000" stroke-linejoin="round" stroke-width=".26438px"/>
  <path d="m-323.5-9.604c-0.69532 0-1.2584 0.56578-1.2584 1.2611 0 0.69532 0.56313 1.2585 1.2584 1.2585 0.69797 0 1.2611-0.56313 1.2611-1.2585 0-0.69532-0.56313-1.2611-1.2611-1.2611z" fill="#fff" fill-rule="evenodd"/>
  <path d="m-323.5-9.604c-0.69532 0-1.2584 0.56578-1.2584 1.2611 0 0.69532 0.56313 1.2585 1.2584 1.2585 0.69797 0 1.2611-0.56313 1.2611-1.2585 0-0.69532-0.56313-1.2611-1.2611-1.2611" fill="none" stroke="#000" stroke-linecap="round" stroke-linejoin="round" stroke-width=".26438px"/>
  <path d="m-316.89-10.133c-0.69532 0-1.2584 0.56577-1.2584 1.2611 0 0.69532 0.56313 1.2585 1.2584 1.2585 0.69796 0 1.2611-0.56313 1.2611-1.2585 0-0.69532-0.56313-1.2611-1.2611-1.2611z" fill="#fff" fill-rule="evenodd"/>
  <g fill="none" stroke="#000" stroke-linejoin="round" stroke-width=".26438px">
   <path d="m-316.89-10.133c-0.69532 0-1.2584 0.56577-1.2584 1.2611 0 0.69532 0.56313 1.2585 1.2584 1.2585 0.69796 0 1.2611-0.56313 1.2611-1.2585 0-0.69532-0.56313-1.2611-1.2611-1.2611" stroke-linecap="round"/>
   <g>
    <path d="m-303.52-3.206h-20.18"/>
    <path d="m-323.17-3.6105c1.4964-0.93591 2.9954-1.8507 6.3451 0"/>
    <path d="m-316.82-3.8749c1.4964-0.93591 2.9954-1.8507 6.3451 0"/>
    <path d="m-310.21-3.6105c1.4964-0.93591 2.9954-1.8507 6.3451 0"/>
   </g>
  </g>
  <path d="m-316.89 1.5c-0.69532 0-1.2584 0.56578-1.2584 1.2611 0 0.69532 0.56313 1.2585 1.2584 1.2585 0.69796 0 1.2611-0.56313 1.2611-1.2585 0-0.69532-0.56313-1.2611-1.2611-1.2611z" fill="#fff" fill-rule="evenodd"/>
  <path d="m-316.89 1.5c-0.69532 0-1.2584 0.56578-1.2584 1.2611 0 0.69532 0.56313 1.2585 1.2584 1.2585 0.69796 0 1.2611-0.56313 1.2611-1.2585 0-0.69532-0.56313-1.2611-1.2611-1.2611" fill="none" stroke="#000" stroke-linecap="round" stroke-linejoin="round" stroke-width=".26438px"/>
  <path d="m-303.67 1.5c-0.69532 0-1.2584 0.56578-1.2584 1.2611 0 0.69532 0.56313 1.2585 1.2584 1.2585 0.69797 0 1.2611-0.56313 1.2611-1.2585 0-0.69532-0.56313-1.2611-1.2611-1.2611z" fill="#fff" fill-rule="evenodd"/>
  <path d="m-303.67 1.5c-0.69532 0-1.2584 0.56578-1.2584 1.2611 0 0.69532 0.56313 1.2585 1.2584 1.2585 0.69797 0 1.2611-0.56313 1.2611-1.2585 0-0.69532-0.56313-1.2611-1.2611-1.2611" fill="none" stroke="#000" stroke-linecap="round" stroke-linejoin="round" stroke-width=".26438px"/>
  <path d="m-316.89-27.582c-0.69532 0-1.2584 0.56577-1.2584 1.2611s0.56313 1.2585 1.2584 1.2585c0.69796 0 1.2611-0.56313 1.2611-1.2585s-0.56313-1.2611-1.2611-1.2611z" fill="#fff" fill-rule="evenodd"/>
  <path d="m-316.89-27.582c-0.69532 0-1.2584 0.56577-1.2584 1.2611s0.56313 1.2585 1.2584 1.2585c0.69796 0 1.2611-0.56313 1.2611-1.2585s-0.56313-1.2611-1.2611-1.2611" fill="none" stroke="#000" stroke-linecap="round" stroke-linejoin="round" stroke-width=".26438px"/>
  <path d="m-323.5-4.3164c-0.69532 0-1.2584 0.56577-1.2584 1.2611s0.56313 1.2585 1.2584 1.2585c0.69797 0 1.2611-0.56313 1.2611-1.2585s-0.56313-1.2611-1.2611-1.2611z" fill="#fff" fill-rule="evenodd"/>
  <path d="m-323.5-4.3164c-0.69532 0-1.2584 0.56577-1.2584 1.2611s0.56313 1.2585 1.2584 1.2585c0.69797 0 1.2611-0.56313 1.2611-1.2585s-0.56313-1.2611-1.2611-1.2611" fill="none" stroke="#000" stroke-linecap="round" stroke-linejoin="round" stroke-width=".26438px"/>
  <path d="m-316.89-4.3164c-0.69532 0-1.2584 0.56577-1.2584 1.2611s0.56313 1.2585 1.2584 1.2585c0.69796 0 1.2611-0.56313 1.2611-1.2585s-0.56313-1.2611-1.2611-1.2611z" fill="#fff" fill-rule="evenodd"/>
  <path d="m-316.89-4.3164c-0.69532 0-1.2584 0.56577-1.2584 1.2611s0.56313 1.2585 1.2584 1.2585c0.69796 0 1.2611-0.56313 1.2611-1.2585s-0.56313-1.2611-1.2611-1.2611" fill="none" stroke="#000" stroke-linecap="round" stroke-linejoin="round" stroke-width=".26438px"/>
  <path d="m-310.28-4.3164c-0.69532 0-1.2584 0.56577-1.2584 1.2611s0.56313 1.2585 1.2584 1.2585c0.69796 0 1.2611-0.56313 1.2611-1.2585s-0.56314-1.2611-1.2611-1.2611z" fill="#fff" fill-rule="evenodd"/>
  <path d="m-310.28-4.3164c-0.69532 0-1.2584 0.56577-1.2584 1.2611s0.56313 1.2585 1.2584 1.2585c0.69796 0 1.2611-0.56313 1.2611-1.2585s-0.56314-1.2611-1.2611-1.2611" fill="none" stroke="#000" stroke-linecap="round" stroke-linejoin="round" stroke-width=".26438px"/>
  <path d="m-303.67-4.3164c-0.69532 0-1.2584 0.56577-1.2584 1.2611s0.56313 1.2585 1.2584 1.2585c0.69797 0 1.2611-0.56313 1.2611-1.2585s-0.56313-1.2611-1.2611-1.2611z" fill="#fff" fill-rule="evenodd"/>
  <path d="m-303.67-4.3164c-0.69532 0-1.2584 0.56577-1.2584 1.2611s0.56313 1.2585 1.2584 1.2585c0.69797 0 1.2611-0.56313 1.2611-1.2585s-0.56313-1.2611-1.2611-1.2611" fill="none" stroke="#000" stroke-linecap="round" stroke-linejoin="round" stroke-width=".26438px"/>
  <path d="m-316.89-21.766c-0.69532 0-1.2584 0.56577-1.2584 1.2611 0 0.69532 0.56313 1.2585 1.2584 1.2585 0.69796 0 1.2611-0.56313 1.2611-1.2585 0-0.69532-0.56313-1.2611-1.2611-1.2611z" fill="#fff" fill-rule="evenodd"/>
  <path d="m-316.89-21.766c-0.69532 0-1.2584 0.56577-1.2584 1.2611 0 0.69532 0.56313 1.2585 1.2584 1.2585 0.69796 0 1.2611-0.56313 1.2611-1.2585 0-0.69532-0.56313-1.2611-1.2611-1.2611" fill="none" stroke="#000" stroke-linecap="round" stroke-linejoin="round" stroke-width=".26438px"/>
 </g>
</svg>
