<?xml version="1.0" encoding="UTF-8"?>
<!-- Created with Inkscape (http://www.inkscape.org/) -->
<svg width="109.08" height="99.769" version="1.1" viewBox="0 0 109.08385 99.768569" xmlns="http://www.w3.org/2000/svg" xmlns:cc="http://creativecommons.org/ns#" xmlns:dc="http://purl.org/dc/elements/1.1/" xmlns:rdf="http://www.w3.org/1999/02/22-rdf-syntax-ns#">
 <defs>
  <clipPath id="clipEmfPath1-28">
   <path d="m23.182 0h15.028v20.944h-15.028z"/>
  </clipPath>
  <clipPath id="clipEmfPath2-16">
   <path d="m0.15988 48.283h15.028v20.944h-15.028z"/>
  </clipPath>
  <clipPath id="clipEmfPath3-42">
   <path d="m25.101 90.331h15.028v20.944h-15.028z"/>
  </clipPath>
  <clipPath id="clipEmfPath4-36">
   <path d="m99.124 17.427h15.028v20.944h-15.028z"/>
  </clipPath>
  <clipPath id="clipEmfPath5-08">
   <path d="m104.08 60.274h15.028v21.104h-15.028z"/>
  </clipPath>
 </defs>
 <metadata>
  <rdf:RDF>
   <cc:Work rdf:about="">
    <dc:format>image/svg+xml</dc:format>
    <dc:type rdf:resource="http://purl.org/dc/dcmitype/StillImage"/>
    <dc:title/>
   </cc:Work>
  </rdf:RDF>
 </metadata>
 <g transform="matrix(3.7795 0 0 3.7795 1186.2 -9.0258)">
  <text x="-314.22339" y="4.8548212" fill="#000000" font-family="Calibri" font-size="3.8861px" font-weight="400" letter-spacing="0px" stroke-width=".26458" word-spacing="0px" style="line-height:125%" xml:space="preserve"><tspan x="0" y="0" stroke-width=".26458"><tspan dx="0" dy="0" fill="#000000" font-family="Calibri" font-size="3.8861px" font-weight="400" stroke-width=".26458"/></tspan></text>
  <path d="m-289.34 18.981-20.357-2.6438" fill="none" stroke="#000" stroke-linejoin="round" stroke-width=".26438px"/>
  <g transform="matrix(.26458 0 0 .26458 -314.22 1.2169)" clip-path="url(#clipEmfPath1-28)">
   <text transform="translate(23.182 13.749)" fill="#000000" font-family="Calibri" font-size="14.688px" font-weight="400" letter-spacing="0px" word-spacing="0px" style="line-height:125%" xml:space="preserve"><tspan x="0" y="0" fill="#000000" font-family="Calibri" font-size="14.688px" font-weight="400"><tspan dx="0" dy="0">A</tspan><tspan dx="0" dy="0"/></tspan></text>
  </g>
  <g transform="matrix(.26458 0 0 .26458 -314.22 1.2169)" clip-path="url(#clipEmfPath2-16)">
   <text transform="translate(.15988 62.032)" fill="#000000" font-family="Calibri" font-size="14.688px" font-weight="400" letter-spacing="0px" word-spacing="0px" style="line-height:125%" xml:space="preserve"><tspan x="0" y="0" fill="#000000" font-family="Calibri" font-size="14.688px" font-weight="400"><tspan dx="0" dy="0">B</tspan><tspan dx="0" dy="0"/></tspan></text>
  </g>
  <g transform="matrix(.26458 0 0 .26458 -314.22 1.2169)" clip-path="url(#clipEmfPath3-42)">
   <text transform="translate(25.101 104.08)" fill="#000000" font-family="Calibri" font-size="14.688px" font-weight="400" letter-spacing="0px" word-spacing="0px" style="line-height:125%" xml:space="preserve"><tspan x="0" y="0" fill="#000000" font-family="Calibri" font-size="14.688px" font-weight="400"><tspan dx="0" dy="0">C</tspan><tspan dx="0" dy="0"/></tspan></text>
  </g>
  <g transform="matrix(.26458 0 0 .26458 -314.22 1.2169)" clip-path="url(#clipEmfPath4-36)">
   <text transform="translate(99.124 31.176)" fill="#000000" font-family="Calibri" font-size="14.688px" font-weight="400" letter-spacing="0px" word-spacing="0px" style="line-height:125%" xml:space="preserve"><tspan x="0" y="0" fill="#000000" font-family="Calibri" font-size="14.688px" font-weight="400"><tspan dx="0" dy="0">D</tspan><tspan dx="0" dy="0"/></tspan></text>
  </g>
  <g transform="matrix(.26458 0 0 .26458 -314.22 1.2169)" clip-path="url(#clipEmfPath5-08)">
   <text transform="translate(104.08 74.023)" fill="#000000" font-family="Calibri" font-size="14.688px" font-weight="400" letter-spacing="0px" word-spacing="0px" style="line-height:125%" xml:space="preserve"><tspan x="0" y="0" fill="#000000" font-family="Calibri" font-size="14.688px" font-weight="400"><tspan dx="0" dy="0">E</tspan><tspan dx="0" dy="0"/></tspan></text>
  </g>
  <g fill="none" stroke="#000" stroke-linejoin="round" stroke-width=".26438px">
   <path d="m-290.13 10.785-19.3 5.552"/>
   <path d="m-303.09 4.7226v21.15"/>
   <path d="m-289.6 10.539-12.955 15.598"/>
   <path d="m-289.6 10.01v9.2533"/>
  </g>
  <path d="m-303.15 3.5594c-0.69532 0-1.2611 0.56313-1.2611 1.2585 0 0.69796 0.56578 1.2611 1.2611 1.2611s1.2611-0.56313 1.2611-1.2611c0-0.69532-0.56578-1.2585-1.2611-1.2585z" fill="#fff" fill-rule="evenodd"/>
  <path d="m-303.15 3.5594c-0.69532 0-1.2611 0.56313-1.2611 1.2585 0 0.69796 0.56578 1.2611 1.2611 1.2611s1.2611-0.56313 1.2611-1.2611c0-0.69532-0.56578-1.2585-1.2611-1.2585" fill="none" stroke="#000" stroke-linecap="round" stroke-linejoin="round" stroke-width=".26438px"/>
  <path d="m-302.88 24.551c-0.69532 0-1.2611 0.56313-1.2611 1.2585 0 0.69796 0.56577 1.2611 1.2611 1.2611s1.2611-0.56313 1.2611-1.2611c0-0.69532-0.56578-1.2585-1.2611-1.2585z" fill="#fff" fill-rule="evenodd"/>
  <path d="m-302.88 24.551c-0.69532 0-1.2611 0.56313-1.2611 1.2585 0 0.69796 0.56577 1.2611 1.2611 1.2611s1.2611-0.56313 1.2611-1.2611c0-0.69532-0.56578-1.2585-1.2611-1.2585" fill="none" stroke="#000" stroke-linecap="round" stroke-linejoin="round" stroke-width=".26438px"/>
  <path d="m-289.4 17.958c-0.69532 0-1.2611 0.56578-1.2611 1.2611 0 0.69532 0.56578 1.2611 1.2611 1.2611s1.2611-0.56577 1.2611-1.2611c0-0.69532-0.56577-1.2611-1.2611-1.2611z" fill="#fff" fill-rule="evenodd"/>
  <path d="m-289.4 17.958c-0.69532 0-1.2611 0.56578-1.2611 1.2611 0 0.69532 0.56578 1.2611 1.2611 1.2611s1.2611-0.56577 1.2611-1.2611c0-0.69532-0.56577-1.2611-1.2611-1.2611" fill="none" stroke="#000" stroke-linecap="round" stroke-linejoin="round" stroke-width=".26438px"/>
  <path d="m-309.23 15.033c-0.69532 0-1.2611 0.56313-1.2611 1.2585 0 0.69796 0.56578 1.2611 1.2611 1.2611s1.2611-0.56313 1.2611-1.2611c0-0.69532-0.56577-1.2585-1.2611-1.2585z" fill="#fff" fill-rule="evenodd"/>
  <path d="m-309.23 15.033c-0.69532 0-1.2611 0.56313-1.2611 1.2585 0 0.69796 0.56578 1.2611 1.2611 1.2611s1.2611-0.56313 1.2611-1.2611c0-0.69532-0.56577-1.2585-1.2611-1.2585" fill="none" stroke="#000" stroke-linecap="round" stroke-linejoin="round" stroke-width=".26438px"/>
  <path d="m-289.4 8.9527c-0.69532 0-1.2611 0.56313-1.2611 1.2585 0 0.69796 0.56578 1.2611 1.2611 1.2611s1.2611-0.56313 1.2611-1.2611c0-0.69532-0.56577-1.2585-1.2611-1.2585z" fill="#fff" fill-rule="evenodd"/>
  <path d="m-289.4 8.9527c-0.69532 0-1.2611 0.56313-1.2611 1.2585 0 0.69796 0.56578 1.2611 1.2611 1.2611s1.2611-0.56313 1.2611-1.2611c0-0.69532-0.56577-1.2585-1.2611-1.2585" fill="none" stroke="#000" stroke-linecap="round" stroke-linejoin="round" stroke-width=".26438px"/>
 </g>
</svg>
