<?xml version="1.0" encoding="UTF-8"?>
<!-- Created with Inkscape (http://www.inkscape.org/) -->
<svg width="109.08" height="99.769" version="1.1" viewBox="0 0 109.08386 99.768569" xmlns="http://www.w3.org/2000/svg" xmlns:cc="http://creativecommons.org/ns#" xmlns:dc="http://purl.org/dc/elements/1.1/" xmlns:rdf="http://www.w3.org/1999/02/22-rdf-syntax-ns#">
 <defs>
  <clipPath id="clipEmfPath1-41">
   <path d="m23.022 0h14.869v20.944h-14.869z"/>
  </clipPath>
  <clipPath id="clipEmfPath2-23">
   <path d="m0 48.283h15.028v20.944h-15.028z"/>
  </clipPath>
  <clipPath id="clipEmfPath3-15">
   <path d="m24.941 90.331h15.028v20.944h-15.028z"/>
  </clipPath>
  <clipPath id="clipEmfPath4-695">
   <path d="m98.964 17.427h14.869v20.944h-14.869z"/>
  </clipPath>
  <clipPath id="clipEmfPath5-17">
   <path d="m103.92 60.274h15.028v21.104h-15.028z"/>
  </clipPath>
 </defs>
 <metadata>
  <rdf:RDF>
   <cc:Work rdf:about="">
    <dc:format>image/svg+xml</dc:format>
    <dc:type rdf:resource="http://purl.org/dc/dcmitype/StillImage"/>
    <dc:title/>
   </cc:Work>
  </rdf:RDF>
 </metadata>
 <g transform="matrix(3.7795 0 0 3.7795 1201.1 116.48)">
  <text x="-318.12088" y="-28.351955" fill="#000000" font-family="Calibri" font-size="3.8861px" font-weight="400" letter-spacing="0px" stroke-width=".26458" word-spacing="0px" style="line-height:125%" xml:space="preserve"><tspan x="0" y="0" stroke-width=".26458"><tspan dx="0" dy="0" fill="#000000" font-family="Calibri" font-size="3.8861px" font-weight="400" stroke-width=".26458"/></tspan></text>
  <path d="m-293.29-14.226-20.357-2.6438" fill="none" stroke="#000" stroke-linejoin="round" stroke-width=".26438px"/>
  <g transform="matrix(.26458 0 0 .26458 -318.12 -31.99)" clip-path="url(#clipEmfPath1-41)">
   <text transform="translate(23.022 13.749)" fill="#000000" font-family="Calibri" font-size="14.688px" font-weight="400" letter-spacing="0px" word-spacing="0px" style="line-height:125%" xml:space="preserve"><tspan x="0" y="0" fill="#000000" font-family="Calibri" font-size="14.688px" font-weight="400"><tspan dx="0" dy="0">A</tspan><tspan dx="0" dy="0"/></tspan></text>
  </g>
  <g transform="matrix(.26458 0 0 .26458 -318.12 -31.99)" clip-path="url(#clipEmfPath2-23)">
   <text transform="translate(0 62.032)" fill="#000000" font-family="Calibri" font-size="14.688px" font-weight="400" letter-spacing="0px" word-spacing="0px" style="line-height:125%" xml:space="preserve"><tspan x="0" y="0" fill="#000000" font-family="Calibri" font-size="14.688px" font-weight="400"><tspan dx="0" dy="0">B</tspan><tspan dx="0" dy="0"/></tspan></text>
  </g>
  <g transform="matrix(.26458 0 0 .26458 -318.12 -31.99)" clip-path="url(#clipEmfPath3-15)">
   <text transform="translate(24.941 104.08)" fill="#000000" font-family="Calibri" font-size="14.688px" font-weight="400" letter-spacing="0px" word-spacing="0px" style="line-height:125%" xml:space="preserve"><tspan x="0" y="0" fill="#000000" font-family="Calibri" font-size="14.688px" font-weight="400"><tspan dx="0" dy="0">C</tspan><tspan dx="0" dy="0"/></tspan></text>
  </g>
  <g transform="matrix(.26458 0 0 .26458 -318.12 -31.99)" clip-path="url(#clipEmfPath4-695)">
   <text transform="translate(98.964 31.176)" fill="#000000" font-family="Calibri" font-size="14.688px" font-weight="400" letter-spacing="0px" word-spacing="0px" style="line-height:125%" xml:space="preserve"><tspan x="0" y="0" fill="#000000" font-family="Calibri" font-size="14.688px" font-weight="400"><tspan dx="0" dy="0">D</tspan><tspan dx="0" dy="0"/></tspan></text>
  </g>
  <g transform="matrix(.26458 0 0 .26458 -318.12 -31.99)" clip-path="url(#clipEmfPath5-17)">
   <text transform="translate(103.92 74.023)" fill="#000000" font-family="Calibri" font-size="14.688px" font-weight="400" letter-spacing="0px" word-spacing="0px" style="line-height:125%" xml:space="preserve"><tspan x="0" y="0" fill="#000000" font-family="Calibri" font-size="14.688px" font-weight="400"><tspan dx="0" dy="0">E</tspan><tspan dx="0" dy="0"/></tspan></text>
  </g>
  <g fill="none" stroke="#000" stroke-linejoin="round" stroke-width=".26438px">
   <path d="m-294.08-22.422-19.3 5.552"/>
   <path d="m-307.04-28.484v21.15"/>
   <path d="m-293.55-22.668-12.955 15.598"/>
  </g>
  <path d="m-307.1-29.647c-0.69532 0-1.2611 0.56313-1.2611 1.2585 0 0.69796 0.56578 1.2611 1.2611 1.2611s1.2611-0.56313 1.2611-1.2611c0-0.69532-0.56577-1.2585-1.2611-1.2585z" fill="#fff" fill-rule="evenodd"/>
  <path d="m-307.1-29.647c-0.69532 0-1.2611 0.56313-1.2611 1.2585 0 0.69796 0.56578 1.2611 1.2611 1.2611s1.2611-0.56313 1.2611-1.2611c0-0.69532-0.56577-1.2585-1.2611-1.2585" fill="none" stroke="#000" stroke-linecap="round" stroke-linejoin="round" stroke-width=".26438px"/>
  <path d="m-306.83-8.6556c-0.69532 0-1.2611 0.56313-1.2611 1.2585 0 0.69796 0.56578 1.2611 1.2611 1.2611s1.2611-0.56313 1.2611-1.2611c0-0.69532-0.56577-1.2585-1.2611-1.2585z" fill="#fff" fill-rule="evenodd"/>
  <path d="m-306.83-8.6556c-0.69532 0-1.2611 0.56313-1.2611 1.2585 0 0.69796 0.56578 1.2611 1.2611 1.2611s1.2611-0.56313 1.2611-1.2611c0-0.69532-0.56577-1.2585-1.2611-1.2585" fill="none" stroke="#000" stroke-linecap="round" stroke-linejoin="round" stroke-width=".26438px"/>
  <path d="m-293.35-15.249c-0.69533 0-1.2611 0.56578-1.2611 1.2611 0 0.69532 0.56577 1.2611 1.2611 1.2611 0.69532 0 1.2611-0.56577 1.2611-1.2611 0-0.69532-0.56577-1.2611-1.2611-1.2611z" fill="#fff" fill-rule="evenodd"/>
  <path d="m-293.35-15.249c-0.69533 0-1.2611 0.56578-1.2611 1.2611 0 0.69532 0.56577 1.2611 1.2611 1.2611 0.69532 0 1.2611-0.56577 1.2611-1.2611 0-0.69532-0.56577-1.2611-1.2611-1.2611" fill="none" stroke="#000" stroke-linecap="round" stroke-linejoin="round" stroke-width=".26438px"/>
  <path d="m-313.37-18.105c-0.69532 0-1.2611 0.56577-1.2611 1.2611 0 0.69532 0.56578 1.2611 1.2611 1.2611s1.2584-0.56578 1.2584-1.2611c0-0.69532-0.56313-1.2611-1.2584-1.2611z" fill="#fff" fill-rule="evenodd"/>
  <path d="m-313.37-18.105c-0.69532 0-1.2611 0.56577-1.2611 1.2611 0 0.69532 0.56578 1.2611 1.2611 1.2611s1.2584-0.56578 1.2584-1.2611c0-0.69532-0.56313-1.2611-1.2584-1.2611" fill="none" stroke="#000" stroke-linecap="round" stroke-linejoin="round" stroke-width=".26438px"/>
  <path d="m-293.35-24.254c-0.69533 0-1.2611 0.56313-1.2611 1.2585 0 0.69796 0.56577 1.2611 1.2611 1.2611 0.69532 0 1.2611-0.56313 1.2611-1.2611 0-0.69532-0.56577-1.2585-1.2611-1.2585z" fill="#fff" fill-rule="evenodd"/>
  <path d="m-293.35-24.254c-0.69533 0-1.2611 0.56313-1.2611 1.2585 0 0.69796 0.56577 1.2611 1.2611 1.2611 0.69532 0 1.2611-0.56313 1.2611-1.2611 0-0.69532-0.56577-1.2585-1.2611-1.2585" fill="none" stroke="#000" stroke-linecap="round" stroke-linejoin="round" stroke-width=".26438px"/>
 </g>
</svg>
