<?xml version="1.0" encoding="UTF-8"?>
<!-- Created with Inkscape (http://www.inkscape.org/) -->
<svg width="267.81" height="161.76" version="1.1" viewBox="0 0 267.80629 161.76016" xmlns="http://www.w3.org/2000/svg" xmlns:cc="http://creativecommons.org/ns#" xmlns:dc="http://purl.org/dc/elements/1.1/" xmlns:rdf="http://www.w3.org/1999/02/22-rdf-syntax-ns#">
 <defs>
  <clipPath id="clipEmfPath2-95">
   <path d="m-9.5926 57.876h44.926v16.467h-44.926z"/>
  </clipPath>
  <clipPath id="clipEmfPath3-51">
   <path d="m54.998 1.4389h26.859v16.307h-26.859z"/>
  </clipPath>
  <clipPath id="clipEmfPath4-01">
   <path d="m247.01 65.869h44.926v16.307h-44.926z"/>
  </clipPath>
  <clipPath id="clipEmfPath5-36">
   <path d="m179.7 149.49h44.926v16.307h-44.926z"/>
  </clipPath>
  <clipPath id="clipEmfPath6-54">
   <path d="m56.756 150.92h44.926v16.307h-44.926z"/>
  </clipPath>
  <clipPath id="clipEmfPath7-19">
   <path d="m134.62 71.785h44.926v16.467h-44.926z"/>
  </clipPath>
  <clipPath id="clipEmfPath8-80">
   <path d="m173.31-0.15988h44.926v16.627h-44.926z"/>
  </clipPath>
 </defs>
 <metadata>
  <rdf:RDF>
   <cc:Work rdf:about="">
    <dc:format>image/svg+xml</dc:format>
    <dc:type rdf:resource="http://purl.org/dc/dcmitype/StillImage"/>
    <dc:title/>
   </cc:Work>
  </rdf:RDF>
 </metadata>
 <g transform="matrix(3.7795 0 0 3.7795 1374.1 -31.21)">
  <text x="-286.30588" y="52.896282" fill="#000000" font-family="'Times New Roman'" font-size="4.2333px" font-weight="400" letter-spacing="0px" stroke-width=".26458" word-spacing="0px" style="line-height:125%" xml:space="preserve"><tspan x="0" y="0" stroke-width=".26458"><tspan dx="0" dy="0" fill="#000000" font-family="'Times New Roman'" font-size="4.2333px" font-weight="400" stroke-width=".26458"/></tspan></text>
  <g fill="none" stroke="#000" stroke-linejoin="round" stroke-width=".26438px">
   <path d="m-344.32 14.379 0.0185 30.457"/>
   <path d="m-313.65 14.907 0.0185 30.457"/>
   <path d="m-344.13 14.043 30.457 0.01851"/>
   <path d="m-359.69 29.467 16.109-15.564"/>
   <path d="m-344.48 44.095 30.774-29.486"/>
   <path d="m-313.14 14.802 14.98 14.824"/>
   <path d="m-344.2 14.186 30.351 29.909"/>
   <path d="m-314.04 44.711 15.07-14.805"/>
   <path d="m-359.32 29.448 15.157 15.07"/>
  </g>
  <g transform="matrix(.26458 0 0 .26458 -363.59 7.2536)" clip-path="url(#clipEmfPath2-95)">
   <text transform="translate(0 72.424)" fill="#000000" font-family="'Times New Roman'" font-size="16px" font-weight="400" letter-spacing="0px" word-spacing="0px" style="line-height:125%" xml:space="preserve"><tspan x="0" y="0" fill="#000000" font-family="'Times New Roman'" font-size="16px" font-weight="400"><tspan dx="0" dy="0">A</tspan><tspan dx="0" dy="0"/></tspan></text>
  </g>
  <path d="m-344.09 44.764 30.457 0.01851" fill="none" stroke="#000" stroke-linejoin="round" stroke-width=".26438px"/>
  <path d="m-298.7 28.039c-0.69532 0-1.2611 0.56313-1.2611 1.2585 0 0.69796 0.56578 1.2611 1.2611 1.2611s1.2611-0.56313 1.2611-1.2611c0-0.69532-0.56578-1.2585-1.2611-1.2585z" fill="#fff" fill-rule="evenodd"/>
  <path d="m-298.7 28.039c-0.69532 0-1.2611 0.56313-1.2611 1.2585 0 0.69796 0.56578 1.2611 1.2611 1.2611s1.2611-0.56313 1.2611-1.2611c0-0.69532-0.56578-1.2585-1.2611-1.2585" fill="none" stroke="#000" stroke-linecap="round" stroke-linejoin="round" stroke-width=".26438px"/>
  <path d="m-313.93 43.268c-0.69268 0-1.2532 0.56048-1.2532 1.2505 0 0.69268 0.56048 1.2505 1.2532 1.2505 0.69003 0 1.2505-0.55784 1.2505-1.2505 0-0.69003-0.56049-1.2505-1.2505-1.2505z" fill="#fff" fill-rule="evenodd"/>
  <path d="m-313.93 43.268c-0.69268 0-1.2532 0.56048-1.2532 1.2505 0 0.69268 0.56048 1.2505 1.2532 1.2505 0.69003 0 1.2505-0.55784 1.2505-1.2505 0-0.69003-0.56049-1.2505-1.2505-1.2505" fill="none" stroke="#000" stroke-linecap="round" stroke-linejoin="round" stroke-width=".26438px"/>
  <path d="m-344.38 43.268c-0.69532 0-1.2611 0.56048-1.2611 1.2505 0 0.69268 0.56577 1.2505 1.2611 1.2505s1.2611-0.55784 1.2611-1.2505c0-0.69003-0.56578-1.2505-1.2611-1.2505z" fill="#fff" fill-rule="evenodd"/>
  <path d="m-344.38 43.268c-0.69532 0-1.2611 0.56048-1.2611 1.2505 0 0.69268 0.56577 1.2505 1.2611 1.2505s1.2611-0.55784 1.2611-1.2505c0-0.69003-0.56578-1.2505-1.2611-1.2505" fill="none" stroke="#000" stroke-linecap="round" stroke-linejoin="round" stroke-width=".26438px"/>
  <path d="m-359.61 28.039c-0.69533 0-1.2611 0.56313-1.2611 1.2585 0 0.69796 0.56577 1.2611 1.2611 1.2611 0.69532 0 1.2611-0.56313 1.2611-1.2611 0-0.69532-0.56577-1.2585-1.2611-1.2585z" fill="#fff" fill-rule="evenodd"/>
  <path d="m-359.61 28.039c-0.69533 0-1.2611 0.56313-1.2611 1.2585 0 0.69796 0.56577 1.2611 1.2611 1.2611 0.69532 0 1.2611-0.56313 1.2611-1.2611 0-0.69532-0.56577-1.2585-1.2611-1.2585" fill="none" stroke="#000" stroke-linecap="round" stroke-linejoin="round" stroke-width=".26438px"/>
  <path d="m-344.37 12.811c-0.70061 0-1.269 0.56313-1.269 1.2585 0 0.69796 0.56842 1.2611 1.269 1.2611 0.70325 0 1.269-0.56313 1.269-1.2611 0-0.69532-0.56577-1.2585-1.269-1.2585z" fill="#fff" fill-rule="evenodd"/>
  <path d="m-344.37 12.811c-0.70061 0-1.269 0.56313-1.269 1.2585 0 0.69796 0.56842 1.2611 1.269 1.2611 0.70325 0 1.269-0.56313 1.269-1.2611 0-0.69532-0.56577-1.2585-1.269-1.2585" fill="none" stroke="#000" stroke-linecap="round" stroke-linejoin="round" stroke-width=".26438px"/>
  <path d="m-329.15 28.039c-0.7006 0-1.269 0.56313-1.269 1.2585 0 0.69796 0.56842 1.2611 1.269 1.2611 0.70326 0 1.269-0.56313 1.269-1.2611 0-0.69532-0.56577-1.2585-1.269-1.2585z" fill="#fff" fill-rule="evenodd"/>
  <path d="m-329.15 28.039c-0.7006 0-1.269 0.56313-1.269 1.2585 0 0.69796 0.56842 1.2611 1.269 1.2611 0.70326 0 1.269-0.56313 1.269-1.2611 0-0.69532-0.56577-1.2585-1.269-1.2585" fill="none" stroke="#000" stroke-linecap="round" stroke-linejoin="round" stroke-width=".26438px"/>
  <path d="m-313.93 12.811c-0.69268 0-1.2532 0.57106-1.2532 1.277s0.56048 1.277 1.2532 1.277c0.69003 0 1.2505-0.57106 1.2505-1.277s-0.56049-1.277-1.2505-1.277z" fill="#fff" fill-rule="evenodd"/>
  <path d="m-313.93 12.811c-0.69268 0-1.2532 0.57106-1.2532 1.277s0.56048 1.277 1.2532 1.277c0.69003 0 1.2505-0.57106 1.2505-1.277s-0.56049-1.277-1.2505-1.277" fill="none" stroke="#000" stroke-linecap="round" stroke-linejoin="round" stroke-width=".26438px"/>
  <g transform="matrix(.26458 0 0 .26458 -363.59 7.2536)" clip-path="url(#clipEmfPath3-51)">
   <text transform="translate(64.59 15.988)" fill="#000000" font-family="'Times New Roman'" font-size="16px" font-weight="400" letter-spacing="0px" word-spacing="0px" style="line-height:125%" xml:space="preserve"><tspan x="0" y="0" fill="#000000" font-family="'Times New Roman'" font-size="16px" font-weight="400"><tspan dx="0" dy="0">B</tspan><tspan dx="0" dy="0"/></tspan></text>
  </g>
  <g transform="matrix(.26458 0 0 .26458 -363.59 7.2536)" clip-path="url(#clipEmfPath4-01)">
   <text transform="translate(256.6 80.418)" fill="#000000" font-family="'Times New Roman'" font-size="16px" font-weight="400" letter-spacing="0px" word-spacing="0px" style="line-height:125%" xml:space="preserve"><tspan x="0" y="0" fill="#000000" font-family="'Times New Roman'" font-size="16px" font-weight="400"><tspan dx="0" dy="0">G</tspan><tspan dx="0" dy="0"/></tspan></text>
  </g>
  <g transform="matrix(.26458 0 0 .26458 -363.59 7.2536)" clip-path="url(#clipEmfPath5-36)">
   <text transform="translate(189.29 164.03)" fill="#000000" font-family="'Times New Roman'" font-size="16px" font-weight="400" letter-spacing="0px" word-spacing="0px" style="line-height:125%" xml:space="preserve"><tspan x="0" y="0" fill="#000000" font-family="'Times New Roman'" font-size="16px" font-weight="400"><tspan dx="0" dy="0">F</tspan><tspan dx="0" dy="0"/></tspan></text>
  </g>
  <g transform="matrix(.26458 0 0 .26458 -363.59 7.2536)" clip-path="url(#clipEmfPath6-54)">
   <text transform="translate(66.349 165.31)" fill="#000000" font-family="'Times New Roman'" font-size="16px" font-weight="400" letter-spacing="0px" word-spacing="0px" style="line-height:125%" xml:space="preserve"><tspan x="0" y="0" fill="#000000" font-family="'Times New Roman'" font-size="16px" font-weight="400"><tspan dx="0" dy="0">C</tspan><tspan dx="0" dy="0"/></tspan></text>
  </g>
  <g transform="matrix(.26458 0 0 .26458 -363.59 7.2536)" clip-path="url(#clipEmfPath7-19)">
   <text transform="translate(144.21 86.334)" fill="#000000" font-family="'Times New Roman'" font-size="16px" font-weight="400" letter-spacing="0px" word-spacing="0px" style="line-height:125%" xml:space="preserve"><tspan x="0" y="0" fill="#000000" font-family="'Times New Roman'" font-size="16px" font-weight="400"><tspan dx="0" dy="0">D</tspan><tspan dx="0" dy="0"/></tspan></text>
  </g>
  <g transform="matrix(.26458 0 0 .26458 -363.59 7.2536)" clip-path="url(#clipEmfPath8-80)">
   <text transform="translate(182.9 14.389)" fill="#000000" font-family="'Times New Roman'" font-size="16px" font-weight="400" letter-spacing="0px" word-spacing="0px" style="line-height:125%" xml:space="preserve"><tspan x="0" y="0" fill="#000000" font-family="'Times New Roman'" font-size="16px" font-weight="400"><tspan dx="0" dy="0">E</tspan><tspan dx="0" dy="0"/></tspan></text>
  </g>
 </g>
</svg>
