<?xml version="1.0" encoding="UTF-8"?>
<!-- Created with Inkscape (http://www.inkscape.org/) -->
<svg width="181.4" height="68.477" version="1.1" viewBox="0 0 181.40086 68.477492" xmlns="http://www.w3.org/2000/svg" xmlns:cc="http://creativecommons.org/ns#" xmlns:dc="http://purl.org/dc/elements/1.1/" xmlns:rdf="http://www.w3.org/1999/02/22-rdf-syntax-ns#">
 <metadata>
  <rdf:RDF>
   <cc:Work rdf:about="">
    <dc:format>image/svg+xml</dc:format>
    <dc:type rdf:resource="http://purl.org/dc/dcmitype/StillImage"/>
    <dc:title/>
   </cc:Work>
  </rdf:RDF>
 </metadata>
 <g transform="matrix(3.7795 0 0 3.7795 1467 -443.73)">
  <text x="-388.36353" y="121.05296" fill="#000000" font-family="Calibri" font-size="3.8861px" font-weight="400" letter-spacing="0px" stroke-width=".26458" word-spacing="0px" style="line-height:125%" xml:space="preserve"><tspan x="0" y="0" stroke-width=".26458"><tspan dx="0" dy="0" fill="#000000" font-family="Calibri" font-size="3.8861px" font-weight="400" stroke-width=".26458"/></tspan></text>
  <g fill="none" stroke="#000" stroke-linejoin="round" stroke-width=".26438px">
   <path d="m-387.01 118.65h15.07"/>
   <path d="m-371.68 118.65h15.07"/>
   <path d="m-387.01 118.65v7.9314"/>
   <path d="m-371.94 118.65v7.9314"/>
  </g>
  <path d="m-386.75 117.54c-0.69532 0-1.2611 0.56313-1.2611 1.2584 0 0.69796 0.56577 1.2611 1.2611 1.2611 0.69533 0 1.2611-0.56313 1.2611-1.2611 0-0.69532-0.56577-1.2584-1.2611-1.2584z" fill="#fff" fill-rule="evenodd"/>
  <path d="m-386.75 117.54c-0.69532 0-1.2611 0.56313-1.2611 1.2584 0 0.69796 0.56577 1.2611 1.2611 1.2611 0.69533 0 1.2611-0.56313 1.2611-1.2611 0-0.69532-0.56577-1.2584-1.2611-1.2584" fill="none" stroke="#000" stroke-linecap="round" stroke-linejoin="round" stroke-width=".26438px"/>
  <path d="m-371.95 117.54c-0.69532 0-1.2611 0.56313-1.2611 1.2584 0 0.69796 0.56577 1.2611 1.2611 1.2611s1.2611-0.56313 1.2611-1.2611c0-0.69532-0.56578-1.2584-1.2611-1.2584z" fill="#fff" fill-rule="evenodd"/>
  <g fill="none" stroke="#000" stroke-linejoin="round" stroke-width=".26438px">
   <path d="m-371.95 117.54c-0.69532 0-1.2611 0.56313-1.2611 1.2584 0 0.69796 0.56577 1.2611 1.2611 1.2611s1.2611-0.56313 1.2611-1.2611c0-0.69532-0.56578-1.2584-1.2611-1.2584" stroke-linecap="round"/>
   <g>
    <path d="m-387.01 126.31h15.07"/>
    <path d="m-371.68 126.31h15.07"/>
    <path d="m-387.01 126.31v7.9314"/>
    <path d="m-371.94 126.31v7.9314"/>
   </g>
  </g>
  <path d="m-386.75 125.2c-0.69532 0-1.2611 0.56313-1.2611 1.2584 0 0.69797 0.56577 1.2611 1.2611 1.2611 0.69533 0 1.2611-0.56313 1.2611-1.2611 0-0.69532-0.56577-1.2584-1.2611-1.2584z" fill="#fff" fill-rule="evenodd"/>
  <path d="m-386.75 125.2c-0.69532 0-1.2611 0.56313-1.2611 1.2584 0 0.69797 0.56577 1.2611 1.2611 1.2611 0.69533 0 1.2611-0.56313 1.2611-1.2611 0-0.69532-0.56577-1.2584-1.2611-1.2584" fill="none" stroke="#000" stroke-linecap="round" stroke-linejoin="round" stroke-width=".26438px"/>
  <path d="m-371.95 125.2c-0.69532 0-1.2611 0.56313-1.2611 1.2584 0 0.69797 0.56577 1.2611 1.2611 1.2611s1.2611-0.56313 1.2611-1.2611c0-0.69532-0.56578-1.2584-1.2611-1.2584z" fill="#fff" fill-rule="evenodd"/>
  <g fill="none" stroke="#000" stroke-linejoin="round" stroke-width=".26438px">
   <path d="m-371.95 125.2c-0.69532 0-1.2611 0.56313-1.2611 1.2584 0 0.69797 0.56577 1.2611 1.2611 1.2611s1.2611-0.56313 1.2611-1.2611c0-0.69532-0.56578-1.2584-1.2611-1.2584" stroke-linecap="round"/>
   <path d="m-387.01 133.98h15.07"/>
   <path d="m-371.68 133.98h15.07"/>
  </g>
  <path d="m-386.75 132.87c-0.69532 0-1.2611 0.56313-1.2611 1.2584 0 0.69796 0.56577 1.2611 1.2611 1.2611 0.69533 0 1.2611-0.56313 1.2611-1.2611 0-0.69532-0.56577-1.2584-1.2611-1.2584z" fill="#fff" fill-rule="evenodd"/>
  <path d="m-386.75 132.87c-0.69532 0-1.2611 0.56313-1.2611 1.2584 0 0.69796 0.56577 1.2611 1.2611 1.2611 0.69533 0 1.2611-0.56313 1.2611-1.2611 0-0.69532-0.56577-1.2584-1.2611-1.2584" fill="none" stroke="#000" stroke-linecap="round" stroke-linejoin="round" stroke-width=".26438px"/>
  <path d="m-371.95 132.87c-0.69532 0-1.2611 0.56313-1.2611 1.2584 0 0.69796 0.56577 1.2611 1.2611 1.2611s1.2611-0.56313 1.2611-1.2611c0-0.69532-0.56578-1.2584-1.2611-1.2584z" fill="#fff" fill-rule="evenodd"/>
  <g fill="none" stroke="#000" stroke-linejoin="round" stroke-width=".26438px">
   <path d="m-371.95 132.87c-0.69532 0-1.2611 0.56313-1.2611 1.2584 0 0.69796 0.56577 1.2611 1.2611 1.2611s1.2611-0.56313 1.2611-1.2611c0-0.69532-0.56578-1.2584-1.2611-1.2584" stroke-linecap="round"/>
   <path d="m-356.61 118.65h15.07"/>
   <path d="m-341.8 118.65v7.9314"/>
  </g>
  <path d="m-341.54 117.54c-0.69532 0-1.2611 0.56313-1.2611 1.2584 0 0.69796 0.56577 1.2611 1.2611 1.2611 0.69533 0 1.2611-0.56313 1.2611-1.2611 0-0.69532-0.56577-1.2584-1.2611-1.2584z" fill="#fff" fill-rule="evenodd"/>
  <g fill="none" stroke="#000" stroke-linejoin="round" stroke-width=".26438px">
   <path d="m-341.54 117.54c-0.69532 0-1.2611 0.56313-1.2611 1.2584 0 0.69796 0.56577 1.2611 1.2611 1.2611 0.69533 0 1.2611-0.56313 1.2611-1.2611 0-0.69532-0.56577-1.2584-1.2611-1.2584" stroke-linecap="round"/>
   <path d="m-356.61 126.31h15.07"/>
   <path d="m-341.8 126.31v7.9314"/>
  </g>
  <path d="m-341.54 125.2c-0.69532 0-1.2611 0.56313-1.2611 1.2584 0 0.69797 0.56577 1.2611 1.2611 1.2611 0.69533 0 1.2611-0.56313 1.2611-1.2611 0-0.69532-0.56577-1.2584-1.2611-1.2584z" fill="#fff" fill-rule="evenodd"/>
  <path d="m-341.54 125.2c-0.69532 0-1.2611 0.56313-1.2611 1.2584 0 0.69797 0.56577 1.2611 1.2611 1.2611 0.69533 0 1.2611-0.56313 1.2611-1.2611 0-0.69532-0.56577-1.2584-1.2611-1.2584" fill="none" stroke="#000" stroke-linecap="round" stroke-linejoin="round" stroke-width=".26438px"/>
  <path d="m-356.61 133.98h15.07" fill="none" stroke="#000" stroke-linejoin="round" stroke-width=".26438px"/>
  <path d="m-341.54 132.87c-0.69532 0-1.2611 0.56313-1.2611 1.2584 0 0.69796 0.56577 1.2611 1.2611 1.2611 0.69533 0 1.2611-0.56313 1.2611-1.2611 0-0.69532-0.56577-1.2584-1.2611-1.2584z" fill="#fff" fill-rule="evenodd"/>
  <path d="m-341.54 132.87c-0.69532 0-1.2611 0.56313-1.2611 1.2584 0 0.69796 0.56577 1.2611 1.2611 1.2611 0.69533 0 1.2611-0.56313 1.2611-1.2611 0-0.69532-0.56577-1.2584-1.2611-1.2584" fill="none" stroke="#000" stroke-linecap="round" stroke-linejoin="round" stroke-width=".26438px"/>
  <path d="m-356.87 118.65v7.9314" fill="none" stroke="#000" stroke-linejoin="round" stroke-width=".26438px"/>
  <path d="m-356.61 117.54c-0.69532 0-1.2611 0.56313-1.2611 1.2584 0 0.69796 0.56577 1.2611 1.2611 1.2611 0.69533 0 1.2611-0.56313 1.2611-1.2611 0-0.69532-0.56577-1.2584-1.2611-1.2584z" fill="#fff" fill-rule="evenodd"/>
  <path d="m-356.61 117.54c-0.69532 0-1.2611 0.56313-1.2611 1.2584 0 0.69796 0.56577 1.2611 1.2611 1.2611 0.69533 0 1.2611-0.56313 1.2611-1.2611 0-0.69532-0.56577-1.2584-1.2611-1.2584" fill="none" stroke="#000" stroke-linecap="round" stroke-linejoin="round" stroke-width=".26438px"/>
  <path d="m-356.87 126.31v7.9314" fill="none" stroke="#000" stroke-linejoin="round" stroke-width=".26438px"/>
  <path d="m-356.61 125.2c-0.69532 0-1.2611 0.56313-1.2611 1.2584 0 0.69797 0.56577 1.2611 1.2611 1.2611 0.69533 0 1.2611-0.56313 1.2611-1.2611 0-0.69532-0.56577-1.2584-1.2611-1.2584z" fill="#fff" fill-rule="evenodd"/>
  <path d="m-356.61 125.2c-0.69532 0-1.2611 0.56313-1.2611 1.2584 0 0.69797 0.56577 1.2611 1.2611 1.2611 0.69533 0 1.2611-0.56313 1.2611-1.2611 0-0.69532-0.56577-1.2584-1.2611-1.2584" fill="none" stroke="#000" stroke-linecap="round" stroke-linejoin="round" stroke-width=".26438px"/>
  <path d="m-356.61 132.87c-0.69532 0-1.2611 0.56313-1.2611 1.2584 0 0.69796 0.56577 1.2611 1.2611 1.2611 0.69533 0 1.2611-0.56313 1.2611-1.2611 0-0.69532-0.56577-1.2584-1.2611-1.2584z" fill="#fff" fill-rule="evenodd"/>
  <path d="m-356.61 132.87c-0.69532 0-1.2611 0.56313-1.2611 1.2584 0 0.69796 0.56577 1.2611 1.2611 1.2611 0.69533 0 1.2611-0.56313 1.2611-1.2611 0-0.69532-0.56577-1.2584-1.2611-1.2584" fill="none" stroke="#000" stroke-linecap="round" stroke-linejoin="round" stroke-width=".26438px"/>
 </g>
</svg>
