<?xml version="1.0" encoding="UTF-8"?>
<!-- Created with Inkscape (http://www.inkscape.org/) -->
<svg width="181.4" height="72.817" version="1.1" viewBox="0 0 181.40086 72.817427" xmlns="http://www.w3.org/2000/svg" xmlns:cc="http://creativecommons.org/ns#" xmlns:dc="http://purl.org/dc/elements/1.1/" xmlns:rdf="http://www.w3.org/1999/02/22-rdf-syntax-ns#">
 <metadata>
  <rdf:RDF>
   <cc:Work rdf:about="">
    <dc:format>image/svg+xml</dc:format>
    <dc:type rdf:resource="http://purl.org/dc/dcmitype/StillImage"/>
    <dc:title/>
   </cc:Work>
  </rdf:RDF>
 </metadata>
 <g transform="matrix(3.7795 0 0 3.7795 1028.8 -588.34)">
  <text x="-272.4212" y="157.62534" fill="#000000" font-family="Calibri" font-size="3.8861px" font-weight="400" letter-spacing="0px" stroke-width=".26458" word-spacing="0px" style="line-height:125%" xml:space="preserve"><tspan x="0" y="0" stroke-width=".26458"><tspan dx="0" dy="0" fill="#000000" font-family="Calibri" font-size="3.8861px" font-weight="400" stroke-width=".26458"/></tspan></text>
  <g fill="none" stroke-linejoin="round" stroke-width=".26438px">
   <g stroke="#f00">
    <path d="m-256 158.11c3.8785-1.9564 7.7569-3.9128 15.07-0.26438"/>
    <path d="m-256 173.44c3.8785-1.9564 7.7569-3.9128 15.07-0.26438"/>
    <path d="m-270.8 165.51c3.8785-1.9564 7.7569-3.9128 15.07-0.26438"/>
    <path d="m-255.73 165.25c3.8785-1.9564 7.7569-3.9128 15.07-0.26438"/>
    <path d="m-240.66 165.25c3.8785-1.9564 7.7569-3.9128 15.07-0.26438"/>
   </g>
   <g stroke="#000">
    <path d="m-271.07 158.06h15.07"/>
    <path d="m-255.73 158.06h15.07"/>
    <path d="m-271.07 158.06v7.9314"/>
    <path d="m-256 158.06v7.9314"/>
   </g>
  </g>
  <path d="m-270.81 156.95c-0.69532 0-1.2611 0.56577-1.2611 1.2611s0.56577 1.2584 1.2611 1.2584 1.2611-0.56313 1.2611-1.2584-0.56578-1.2611-1.2611-1.2611z" fill="#fff" fill-rule="evenodd"/>
  <path d="m-270.81 156.95c-0.69532 0-1.2611 0.56577-1.2611 1.2611s0.56577 1.2584 1.2611 1.2584 1.2611-0.56313 1.2611-1.2584-0.56578-1.2611-1.2611-1.2611" fill="none" stroke="#000" stroke-linecap="round" stroke-linejoin="round" stroke-width=".26438px"/>
  <path d="m-256.01 156.95c-0.69532 0-1.2611 0.56577-1.2611 1.2611s0.56577 1.2584 1.2611 1.2584 1.2611-0.56313 1.2611-1.2584-0.56578-1.2611-1.2611-1.2611z" fill="#fff" fill-rule="evenodd"/>
  <g fill="none" stroke="#000" stroke-linejoin="round" stroke-width=".26438px">
   <path d="m-256.01 156.95c-0.69532 0-1.2611 0.56577-1.2611 1.2611s0.56577 1.2584 1.2611 1.2584 1.2611-0.56313 1.2611-1.2584-0.56578-1.2611-1.2611-1.2611" stroke-linecap="round"/>
   <g>
    <path d="m-271.07 165.72h15.07"/>
    <path d="m-255.73 165.72h15.07"/>
    <path d="m-271.07 165.72v7.9314"/>
    <path d="m-256 165.72v7.9314"/>
   </g>
  </g>
  <path d="m-270.81 164.61c-0.69532 0-1.2611 0.56578-1.2611 1.2611s0.56577 1.2584 1.2611 1.2584 1.2611-0.56313 1.2611-1.2584-0.56578-1.2611-1.2611-1.2611z" fill="#fff" fill-rule="evenodd"/>
  <path d="m-270.81 164.61c-0.69532 0-1.2611 0.56578-1.2611 1.2611s0.56577 1.2584 1.2611 1.2584 1.2611-0.56313 1.2611-1.2584-0.56578-1.2611-1.2611-1.2611" fill="none" stroke="#000" stroke-linecap="round" stroke-linejoin="round" stroke-width=".26438px"/>
  <path d="m-256.01 164.61c-0.69532 0-1.2611 0.56578-1.2611 1.2611s0.56577 1.2584 1.2611 1.2584 1.2611-0.56313 1.2611-1.2584-0.56578-1.2611-1.2611-1.2611z" fill="#fff" fill-rule="evenodd"/>
  <g fill="none" stroke="#000" stroke-linejoin="round" stroke-width=".26438px">
   <path d="m-256.01 164.61c-0.69532 0-1.2611 0.56578-1.2611 1.2611s0.56577 1.2584 1.2611 1.2584 1.2611-0.56313 1.2611-1.2584-0.56578-1.2611-1.2611-1.2611" stroke-linecap="round"/>
   <path d="m-271.07 173.39h15.07"/>
   <path d="m-255.73 173.39h15.07"/>
  </g>
  <path d="m-270.81 172.28c-0.69532 0-1.2611 0.56577-1.2611 1.2611s0.56577 1.2584 1.2611 1.2584 1.2611-0.56313 1.2611-1.2584-0.56578-1.2611-1.2611-1.2611z" fill="#fff" fill-rule="evenodd"/>
  <path d="m-270.81 172.28c-0.69532 0-1.2611 0.56577-1.2611 1.2611s0.56577 1.2584 1.2611 1.2584 1.2611-0.56313 1.2611-1.2584-0.56578-1.2611-1.2611-1.2611" fill="none" stroke="#000" stroke-linecap="round" stroke-linejoin="round" stroke-width=".26438px"/>
  <path d="m-256.01 172.28c-0.69532 0-1.2611 0.56577-1.2611 1.2611s0.56577 1.2584 1.2611 1.2584 1.2611-0.56313 1.2611-1.2584-0.56578-1.2611-1.2611-1.2611z" fill="#fff" fill-rule="evenodd"/>
  <g fill="none" stroke="#000" stroke-linejoin="round" stroke-width=".26438px">
   <path d="m-256.01 172.28c-0.69532 0-1.2611 0.56577-1.2611 1.2611s0.56577 1.2584 1.2611 1.2584 1.2611-0.56313 1.2611-1.2584-0.56578-1.2611-1.2611-1.2611" stroke-linecap="round"/>
   <path d="m-240.66 158.06h15.07"/>
   <path d="m-225.86 158.06v7.9314"/>
  </g>
  <path d="m-225.6 156.95c-0.69532 0-1.2611 0.56577-1.2611 1.2611s0.56577 1.2584 1.2611 1.2584c0.69533 0 1.2611-0.56313 1.2611-1.2584s-0.56577-1.2611-1.2611-1.2611z" fill="#fff" fill-rule="evenodd"/>
  <g fill="none" stroke="#000" stroke-linejoin="round" stroke-width=".26438px">
   <path d="m-225.6 156.95c-0.69532 0-1.2611 0.56577-1.2611 1.2611s0.56577 1.2584 1.2611 1.2584c0.69533 0 1.2611-0.56313 1.2611-1.2584s-0.56577-1.2611-1.2611-1.2611" stroke-linecap="round"/>
   <path d="m-240.66 165.72h15.07"/>
   <path d="m-225.86 165.72v7.9314"/>
  </g>
  <path d="m-225.6 164.61c-0.69532 0-1.2611 0.56578-1.2611 1.2611s0.56577 1.2584 1.2611 1.2584c0.69533 0 1.2611-0.56313 1.2611-1.2584s-0.56577-1.2611-1.2611-1.2611z" fill="#fff" fill-rule="evenodd"/>
  <path d="m-225.6 164.61c-0.69532 0-1.2611 0.56578-1.2611 1.2611s0.56577 1.2584 1.2611 1.2584c0.69533 0 1.2611-0.56313 1.2611-1.2584s-0.56577-1.2611-1.2611-1.2611" fill="none" stroke="#000" stroke-linecap="round" stroke-linejoin="round" stroke-width=".26438px"/>
  <path d="m-240.66 173.39h15.07" fill="none" stroke="#000" stroke-linejoin="round" stroke-width=".26438px"/>
  <path d="m-225.6 172.28c-0.69532 0-1.2611 0.56577-1.2611 1.2611s0.56577 1.2584 1.2611 1.2584c0.69533 0 1.2611-0.56313 1.2611-1.2584s-0.56577-1.2611-1.2611-1.2611z" fill="#fff" fill-rule="evenodd"/>
  <path d="m-225.6 172.28c-0.69532 0-1.2611 0.56577-1.2611 1.2611s0.56577 1.2584 1.2611 1.2584c0.69533 0 1.2611-0.56313 1.2611-1.2584s-0.56577-1.2611-1.2611-1.2611" fill="none" stroke="#000" stroke-linecap="round" stroke-linejoin="round" stroke-width=".26438px"/>
  <path d="m-240.93 158.06v7.9314" fill="none" stroke="#000" stroke-linejoin="round" stroke-width=".26438px"/>
  <path d="m-240.67 156.95c-0.69532 0-1.2611 0.56577-1.2611 1.2611s0.56577 1.2584 1.2611 1.2584c0.69533 0 1.2611-0.56313 1.2611-1.2584s-0.56577-1.2611-1.2611-1.2611z" fill="#fff" fill-rule="evenodd"/>
  <path d="m-240.67 156.95c-0.69532 0-1.2611 0.56577-1.2611 1.2611s0.56577 1.2584 1.2611 1.2584c0.69533 0 1.2611-0.56313 1.2611-1.2584s-0.56577-1.2611-1.2611-1.2611" fill="none" stroke="#000" stroke-linecap="round" stroke-linejoin="round" stroke-width=".26438px"/>
  <path d="m-240.93 165.72v7.9314" fill="none" stroke="#000" stroke-linejoin="round" stroke-width=".26438px"/>
  <path d="m-240.67 164.61c-0.69532 0-1.2611 0.56578-1.2611 1.2611s0.56577 1.2584 1.2611 1.2584c0.69533 0 1.2611-0.56313 1.2611-1.2584s-0.56577-1.2611-1.2611-1.2611z" fill="#fff" fill-rule="evenodd"/>
  <path d="m-240.67 164.61c-0.69532 0-1.2611 0.56578-1.2611 1.2611s0.56577 1.2584 1.2611 1.2584c0.69533 0 1.2611-0.56313 1.2611-1.2584s-0.56577-1.2611-1.2611-1.2611" fill="none" stroke="#000" stroke-linecap="round" stroke-linejoin="round" stroke-width=".26438px"/>
  <path d="m-240.67 172.28c-0.69532 0-1.2611 0.56577-1.2611 1.2611s0.56577 1.2584 1.2611 1.2584c0.69533 0 1.2611-0.56313 1.2611-1.2584s-0.56577-1.2611-1.2611-1.2611z" fill="#fff" fill-rule="evenodd"/>
  <path d="m-240.67 172.28c-0.69532 0-1.2611 0.56577-1.2611 1.2611s0.56577 1.2584 1.2611 1.2584c0.69533 0 1.2611-0.56313 1.2611-1.2584s-0.56577-1.2611-1.2611-1.2611" fill="none" stroke="#000" stroke-linecap="round" stroke-linejoin="round" stroke-width=".26438px"/>
 </g>
</svg>
