<?xml version="1.0" encoding="UTF-8"?>
<!-- Created with Inkscape (http://www.inkscape.org/) -->
<svg width="184.54" height="74.816" version="1.1" viewBox="0 0 184.53988 74.815932" xmlns="http://www.w3.org/2000/svg" xmlns:cc="http://creativecommons.org/ns#" xmlns:dc="http://purl.org/dc/elements/1.1/" xmlns:rdf="http://www.w3.org/1999/02/22-rdf-syntax-ns#">
 <metadata>
  <rdf:RDF>
   <cc:Work rdf:about="">
    <dc:format>image/svg+xml</dc:format>
    <dc:type rdf:resource="http://purl.org/dc/dcmitype/StillImage"/>
    <dc:title/>
   </cc:Work>
  </rdf:RDF>
 </metadata>
 <g transform="matrix(3.7795 0 0 3.7795 1487.7 -742.63)">
  <text x="-393.84421" y="198.53455" fill="#000000" font-family="Calibri" font-size="3.8861px" font-weight="400" letter-spacing="0px" stroke-width=".26458" word-spacing="0px" style="line-height:125%" xml:space="preserve"><tspan x="0" y="0" stroke-width=".26458"><tspan dx="0" dy="0" fill="#000000" font-family="Calibri" font-size="3.8861px" font-weight="400" stroke-width=".26458"/></tspan></text>
  <g fill="none" stroke-linejoin="round" stroke-width=".26438px">
   <g stroke="#f00">
    <path d="m-362.09 198.93c3.8785-1.9564 7.7569-3.9128 15.07-0.26438"/>
    <path d="m-391.96 207.13c3.8785-1.9564 7.7569-3.9128 15.07-0.26438"/>
    <path d="m-377.42 214.53c3.8785-1.9564 7.7569-3.9128 15.07-0.26438"/>
    <path d="m-347.24 199.48c1.9564 2.1098 3.9128 4.2195 0.26438 8.1958"/>
    <path d="m-377.65 198.95c1.9564 2.1098 3.9128 4.2195 0.26438 8.1958"/>
   </g>
   <g stroke="#000">
    <path d="m-392.49 199.41h15.07"/>
    <path d="m-377.16 199.41h15.07"/>
    <path d="m-392.49 199.41v7.9314"/>
    <path d="m-377.42 199.41v7.9314"/>
   </g>
  </g>
  <path d="m-392.23 198.3c-0.69532 0-1.2611 0.56313-1.2611 1.2584 0 0.69797 0.56578 1.2611 1.2611 1.2611s1.2611-0.56313 1.2611-1.2611c0-0.69532-0.56577-1.2584-1.2611-1.2584z" fill="#fff" fill-rule="evenodd"/>
  <path d="m-392.23 198.3c-0.69532 0-1.2611 0.56313-1.2611 1.2584 0 0.69797 0.56578 1.2611 1.2611 1.2611s1.2611-0.56313 1.2611-1.2611c0-0.69532-0.56577-1.2584-1.2611-1.2584" fill="none" stroke="#000" stroke-linecap="round" stroke-linejoin="round" stroke-width=".26438px"/>
  <path d="m-377.43 198.3c-0.69532 0-1.2611 0.56313-1.2611 1.2584 0 0.69797 0.56578 1.2611 1.2611 1.2611s1.2611-0.56313 1.2611-1.2611c0-0.69532-0.56577-1.2584-1.2611-1.2584z" fill="#fff" fill-rule="evenodd"/>
  <g fill="none" stroke="#000" stroke-linejoin="round" stroke-width=".26438px">
   <path d="m-377.43 198.3c-0.69532 0-1.2611 0.56313-1.2611 1.2584 0 0.69797 0.56578 1.2611 1.2611 1.2611s1.2611-0.56313 1.2611-1.2611c0-0.69532-0.56577-1.2584-1.2611-1.2584" stroke-linecap="round"/>
   <g>
    <path d="m-392.49 207.07h15.07"/>
    <path d="m-377.16 207.07h15.07"/>
    <path d="m-392.49 207.07v7.9314"/>
    <path d="m-377.42 207.07v7.9314"/>
   </g>
  </g>
  <path d="m-392.23 205.96c-0.69532 0-1.2611 0.56313-1.2611 1.2584 0 0.69796 0.56578 1.2611 1.2611 1.2611s1.2611-0.56313 1.2611-1.2611c0-0.69532-0.56577-1.2584-1.2611-1.2584z" fill="#fff" fill-rule="evenodd"/>
  <path d="m-392.23 205.96c-0.69532 0-1.2611 0.56313-1.2611 1.2584 0 0.69796 0.56578 1.2611 1.2611 1.2611s1.2611-0.56313 1.2611-1.2611c0-0.69532-0.56577-1.2584-1.2611-1.2584" fill="none" stroke="#000" stroke-linecap="round" stroke-linejoin="round" stroke-width=".26438px"/>
  <path d="m-377.43 205.96c-0.69532 0-1.2611 0.56313-1.2611 1.2584 0 0.69796 0.56578 1.2611 1.2611 1.2611s1.2611-0.56313 1.2611-1.2611c0-0.69532-0.56577-1.2584-1.2611-1.2584z" fill="#fff" fill-rule="evenodd"/>
  <g fill="none" stroke="#000" stroke-linejoin="round" stroke-width=".26438px">
   <path d="m-377.43 205.96c-0.69532 0-1.2611 0.56313-1.2611 1.2584 0 0.69796 0.56578 1.2611 1.2611 1.2611s1.2611-0.56313 1.2611-1.2611c0-0.69532-0.56577-1.2584-1.2611-1.2584" stroke-linecap="round"/>
   <path d="m-392.49 214.74h15.07"/>
   <path d="m-377.16 214.74h15.07"/>
  </g>
  <path d="m-392.23 213.63c-0.69532 0-1.2611 0.56313-1.2611 1.2584 0 0.69797 0.56578 1.2611 1.2611 1.2611s1.2611-0.56313 1.2611-1.2611c0-0.69532-0.56577-1.2584-1.2611-1.2584z" fill="#fff" fill-rule="evenodd"/>
  <path d="m-392.23 213.63c-0.69532 0-1.2611 0.56313-1.2611 1.2584 0 0.69797 0.56578 1.2611 1.2611 1.2611s1.2611-0.56313 1.2611-1.2611c0-0.69532-0.56577-1.2584-1.2611-1.2584" fill="none" stroke="#000" stroke-linecap="round" stroke-linejoin="round" stroke-width=".26438px"/>
  <path d="m-377.43 213.63c-0.69532 0-1.2611 0.56313-1.2611 1.2584 0 0.69797 0.56578 1.2611 1.2611 1.2611s1.2611-0.56313 1.2611-1.2611c0-0.69532-0.56577-1.2584-1.2611-1.2584z" fill="#fff" fill-rule="evenodd"/>
  <g fill="none" stroke="#000" stroke-linejoin="round" stroke-width=".26438px">
   <path d="m-377.43 213.63c-0.69532 0-1.2611 0.56313-1.2611 1.2584 0 0.69797 0.56578 1.2611 1.2611 1.2611s1.2611-0.56313 1.2611-1.2611c0-0.69532-0.56577-1.2584-1.2611-1.2584" stroke-linecap="round"/>
   <path d="m-362.09 199.41h15.07"/>
   <path d="m-347.28 199.41v7.9314"/>
  </g>
  <path d="m-347.03 198.3c-0.69532 0-1.2611 0.56313-1.2611 1.2584 0 0.69797 0.56578 1.2611 1.2611 1.2611s1.2611-0.56313 1.2611-1.2611c0-0.69532-0.56577-1.2584-1.2611-1.2584z" fill="#fff" fill-rule="evenodd"/>
  <g fill="none" stroke="#000" stroke-linejoin="round" stroke-width=".26438px">
   <path d="m-347.03 198.3c-0.69532 0-1.2611 0.56313-1.2611 1.2584 0 0.69797 0.56578 1.2611 1.2611 1.2611s1.2611-0.56313 1.2611-1.2611c0-0.69532-0.56577-1.2584-1.2611-1.2584" stroke-linecap="round"/>
   <path d="m-362.09 207.07h15.07"/>
   <path d="m-347.28 207.07v7.9314"/>
  </g>
  <path d="m-347.03 205.96c-0.69532 0-1.2611 0.56313-1.2611 1.2584 0 0.69796 0.56578 1.2611 1.2611 1.2611s1.2611-0.56313 1.2611-1.2611c0-0.69532-0.56577-1.2584-1.2611-1.2584z" fill="#fff" fill-rule="evenodd"/>
  <path d="m-347.03 205.96c-0.69532 0-1.2611 0.56313-1.2611 1.2584 0 0.69796 0.56578 1.2611 1.2611 1.2611s1.2611-0.56313 1.2611-1.2611c0-0.69532-0.56577-1.2584-1.2611-1.2584" fill="none" stroke="#000" stroke-linecap="round" stroke-linejoin="round" stroke-width=".26438px"/>
  <path d="m-362.09 214.74h15.07" fill="none" stroke="#000" stroke-linejoin="round" stroke-width=".26438px"/>
  <path d="m-347.03 213.63c-0.69532 0-1.2611 0.56313-1.2611 1.2584 0 0.69797 0.56578 1.2611 1.2611 1.2611s1.2611-0.56313 1.2611-1.2611c0-0.69532-0.56577-1.2584-1.2611-1.2584z" fill="#fff" fill-rule="evenodd"/>
  <path d="m-347.03 213.63c-0.69532 0-1.2611 0.56313-1.2611 1.2584 0 0.69797 0.56578 1.2611 1.2611 1.2611s1.2611-0.56313 1.2611-1.2611c0-0.69532-0.56577-1.2584-1.2611-1.2584" fill="none" stroke="#000" stroke-linecap="round" stroke-linejoin="round" stroke-width=".26438px"/>
  <path d="m-362.35 199.41v7.9314" fill="none" stroke="#000" stroke-linejoin="round" stroke-width=".26438px"/>
  <path d="m-362.09 198.3c-0.69532 0-1.2611 0.56313-1.2611 1.2584 0 0.69797 0.56578 1.2611 1.2611 1.2611s1.2611-0.56313 1.2611-1.2611c0-0.69532-0.56577-1.2584-1.2611-1.2584z" fill="#fff" fill-rule="evenodd"/>
  <path d="m-362.09 198.3c-0.69532 0-1.2611 0.56313-1.2611 1.2584 0 0.69797 0.56578 1.2611 1.2611 1.2611s1.2611-0.56313 1.2611-1.2611c0-0.69532-0.56577-1.2584-1.2611-1.2584" fill="none" stroke="#000" stroke-linecap="round" stroke-linejoin="round" stroke-width=".26438px"/>
  <path d="m-362.35 207.07v7.9314" fill="none" stroke="#000" stroke-linejoin="round" stroke-width=".26438px"/>
  <path d="m-362.09 205.96c-0.69532 0-1.2611 0.56313-1.2611 1.2584 0 0.69796 0.56578 1.2611 1.2611 1.2611s1.2611-0.56313 1.2611-1.2611c0-0.69532-0.56577-1.2584-1.2611-1.2584z" fill="#fff" fill-rule="evenodd"/>
  <path d="m-362.09 205.96c-0.69532 0-1.2611 0.56313-1.2611 1.2584 0 0.69796 0.56578 1.2611 1.2611 1.2611s1.2611-0.56313 1.2611-1.2611c0-0.69532-0.56577-1.2584-1.2611-1.2584" fill="none" stroke="#000" stroke-linecap="round" stroke-linejoin="round" stroke-width=".26438px"/>
  <path d="m-362.09 213.63c-0.69532 0-1.2611 0.56313-1.2611 1.2584 0 0.69797 0.56578 1.2611 1.2611 1.2611s1.2611-0.56313 1.2611-1.2611c0-0.69532-0.56577-1.2584-1.2611-1.2584z" fill="#fff" fill-rule="evenodd"/>
  <path d="m-362.09 213.63c-0.69532 0-1.2611 0.56313-1.2611 1.2584 0 0.69797 0.56578 1.2611 1.2611 1.2611s1.2611-0.56313 1.2611-1.2611c0-0.69532-0.56577-1.2584-1.2611-1.2584" fill="none" stroke="#000" stroke-linecap="round" stroke-linejoin="round" stroke-width=".26438px"/>
 </g>
</svg>
