<?xml version="1.0" encoding="UTF-8"?>
<!-- Created with Inkscape (http://www.inkscape.org/) -->
<svg width="181.4" height="68.477" version="1.1" viewBox="0 0 181.40086 68.477492" xmlns="http://www.w3.org/2000/svg" xmlns:cc="http://creativecommons.org/ns#" xmlns:dc="http://purl.org/dc/elements/1.1/" xmlns:rdf="http://www.w3.org/1999/02/22-rdf-syntax-ns#">
 <metadata>
  <rdf:RDF>
   <cc:Work rdf:about="">
    <dc:format>image/svg+xml</dc:format>
    <dc:type rdf:resource="http://purl.org/dc/dcmitype/StillImage"/>
    <dc:title/>
   </cc:Work>
  </rdf:RDF>
 </metadata>
 <g transform="matrix(3.7795 0 0 3.7795 1333 -664.96)">
  <text x="-352.90543" y="179.39394" fill="#000000" font-family="Calibri" font-size="3.8861px" font-weight="400" letter-spacing="0px" stroke-width=".26458" word-spacing="0px" style="line-height:125%" xml:space="preserve"><tspan x="0" y="0" stroke-width=".26458"><tspan dx="0" dy="0" fill="#000000" font-family="Calibri" font-size="3.8861px" font-weight="400" stroke-width=".26458"/></tspan></text>
  <g fill="none" stroke-linejoin="round" stroke-width=".26438px">
   <g stroke="#f00">
    <path d="m-336.45 177.25c1.9564 2.1071 3.9128 4.2169 0.26438 8.1958"/>
    <path d="m-336.18 184.66c1.9564 2.1071 3.9128 4.2169 0.26438 8.1958"/>
    <path d="m-321.11 176.99c1.9564 2.1071 3.9128 4.2169 0.26438 8.1958"/>
    <path d="m-321.38 184.92c1.9564 2.1071 3.9128 4.2169 0.26438 8.1958"/>
    <path d="m-351.55 184.37c3.8785-1.9564 7.7569-3.9128 15.07-0.26439"/>
    <path d="m-336.48 184.64c3.8785-1.9564 7.7569-3.9128 15.07-0.26438"/>
    <path d="m-321.41 184.9c3.8785-1.9564 7.7569-3.9128 15.07-0.26438"/>
   </g>
   <g stroke="#000">
    <path d="m-351.55 177.18h15.07"/>
    <path d="m-336.22 177.18h15.07"/>
    <path d="m-351.55 177.18v7.9314"/>
    <path d="m-336.48 177.18v7.9314"/>
   </g>
  </g>
  <path d="m-351.3 176.07c-0.69532 0-1.2611 0.56577-1.2611 1.2611s0.56578 1.2584 1.2611 1.2584 1.2611-0.56313 1.2611-1.2584-0.56577-1.2611-1.2611-1.2611z" fill="#fff" fill-rule="evenodd"/>
  <path d="m-351.3 176.07c-0.69532 0-1.2611 0.56577-1.2611 1.2611s0.56578 1.2584 1.2611 1.2584 1.2611-0.56313 1.2611-1.2584-0.56577-1.2611-1.2611-1.2611" fill="none" stroke="#000" stroke-linecap="round" stroke-linejoin="round" stroke-width=".26438px"/>
  <path d="m-336.49 176.07c-0.69532 0-1.2611 0.56577-1.2611 1.2611s0.56578 1.2584 1.2611 1.2584 1.2611-0.56313 1.2611-1.2584-0.56577-1.2611-1.2611-1.2611z" fill="#fff" fill-rule="evenodd"/>
  <g fill="none" stroke="#000" stroke-linejoin="round" stroke-width=".26438px">
   <path d="m-336.49 176.07c-0.69532 0-1.2611 0.56577-1.2611 1.2611s0.56578 1.2584 1.2611 1.2584 1.2611-0.56313 1.2611-1.2584-0.56577-1.2611-1.2611-1.2611" stroke-linecap="round"/>
   <g>
    <path d="m-351.55 184.85h15.07"/>
    <path d="m-336.22 184.85h15.07"/>
    <path d="m-351.55 184.85v7.9314"/>
    <path d="m-336.48 184.85v7.9314"/>
   </g>
  </g>
  <path d="m-351.3 183.74c-0.69532 0-1.2611 0.56578-1.2611 1.2611s0.56578 1.2584 1.2611 1.2584 1.2611-0.56313 1.2611-1.2584-0.56577-1.2611-1.2611-1.2611z" fill="#fff" fill-rule="evenodd"/>
  <path d="m-351.3 183.74c-0.69532 0-1.2611 0.56578-1.2611 1.2611s0.56578 1.2584 1.2611 1.2584 1.2611-0.56313 1.2611-1.2584-0.56577-1.2611-1.2611-1.2611" fill="none" stroke="#000" stroke-linecap="round" stroke-linejoin="round" stroke-width=".26438px"/>
  <path d="m-336.49 183.74c-0.69532 0-1.2611 0.56578-1.2611 1.2611s0.56578 1.2584 1.2611 1.2584 1.2611-0.56313 1.2611-1.2584-0.56577-1.2611-1.2611-1.2611z" fill="#fff" fill-rule="evenodd"/>
  <g fill="none" stroke="#000" stroke-linejoin="round" stroke-width=".26438px">
   <path d="m-336.49 183.74c-0.69532 0-1.2611 0.56578-1.2611 1.2611s0.56578 1.2584 1.2611 1.2584 1.2611-0.56313 1.2611-1.2584-0.56577-1.2611-1.2611-1.2611" stroke-linecap="round"/>
   <path d="m-351.55 192.52h15.07"/>
   <path d="m-336.22 192.52h15.07"/>
  </g>
  <path d="m-351.3 191.4c-0.69532 0-1.2611 0.56577-1.2611 1.2611s0.56578 1.2584 1.2611 1.2584 1.2611-0.56313 1.2611-1.2584-0.56577-1.2611-1.2611-1.2611z" fill="#fff" fill-rule="evenodd"/>
  <path d="m-351.3 191.4c-0.69532 0-1.2611 0.56577-1.2611 1.2611s0.56578 1.2584 1.2611 1.2584 1.2611-0.56313 1.2611-1.2584-0.56577-1.2611-1.2611-1.2611" fill="none" stroke="#000" stroke-linecap="round" stroke-linejoin="round" stroke-width=".26438px"/>
  <path d="m-336.49 191.4c-0.69532 0-1.2611 0.56577-1.2611 1.2611s0.56578 1.2584 1.2611 1.2584 1.2611-0.56313 1.2611-1.2584-0.56577-1.2611-1.2611-1.2611z" fill="#fff" fill-rule="evenodd"/>
  <g fill="none" stroke="#000" stroke-linejoin="round" stroke-width=".26438px">
   <path d="m-336.49 191.4c-0.69532 0-1.2611 0.56577-1.2611 1.2611s0.56578 1.2584 1.2611 1.2584 1.2611-0.56313 1.2611-1.2584-0.56577-1.2611-1.2611-1.2611" stroke-linecap="round"/>
   <path d="m-321.15 177.18h15.07"/>
   <path d="m-306.34 177.18v7.9314"/>
  </g>
  <path d="m-306.09 176.07c-0.69532 0-1.2611 0.56577-1.2611 1.2611s0.56577 1.2584 1.2611 1.2584 1.2611-0.56313 1.2611-1.2584-0.56577-1.2611-1.2611-1.2611z" fill="#fff" fill-rule="evenodd"/>
  <g fill="none" stroke="#000" stroke-linejoin="round" stroke-width=".26438px">
   <path d="m-306.09 176.07c-0.69532 0-1.2611 0.56577-1.2611 1.2611s0.56577 1.2584 1.2611 1.2584 1.2611-0.56313 1.2611-1.2584-0.56577-1.2611-1.2611-1.2611" stroke-linecap="round"/>
   <path d="m-321.15 184.85h15.07"/>
   <path d="m-306.34 184.85v7.9314"/>
  </g>
  <path d="m-306.09 183.74c-0.69532 0-1.2611 0.56578-1.2611 1.2611s0.56577 1.2584 1.2611 1.2584 1.2611-0.56313 1.2611-1.2584-0.56577-1.2611-1.2611-1.2611z" fill="#fff" fill-rule="evenodd"/>
  <path d="m-306.09 183.74c-0.69532 0-1.2611 0.56578-1.2611 1.2611s0.56577 1.2584 1.2611 1.2584 1.2611-0.56313 1.2611-1.2584-0.56577-1.2611-1.2611-1.2611" fill="none" stroke="#000" stroke-linecap="round" stroke-linejoin="round" stroke-width=".26438px"/>
  <path d="m-321.15 192.52h15.07" fill="none" stroke="#000" stroke-linejoin="round" stroke-width=".26438px"/>
  <path d="m-306.09 191.4c-0.69532 0-1.2611 0.56577-1.2611 1.2611s0.56577 1.2584 1.2611 1.2584 1.2611-0.56313 1.2611-1.2584-0.56577-1.2611-1.2611-1.2611z" fill="#fff" fill-rule="evenodd"/>
  <path d="m-306.09 191.4c-0.69532 0-1.2611 0.56577-1.2611 1.2611s0.56577 1.2584 1.2611 1.2584 1.2611-0.56313 1.2611-1.2584-0.56577-1.2611-1.2611-1.2611" fill="none" stroke="#000" stroke-linecap="round" stroke-linejoin="round" stroke-width=".26438px"/>
  <path d="m-321.41 177.18v7.9314" fill="none" stroke="#000" stroke-linejoin="round" stroke-width=".26438px"/>
  <path d="m-321.16 176.07c-0.69532 0-1.2611 0.56577-1.2611 1.2611s0.56578 1.2584 1.2611 1.2584 1.2611-0.56313 1.2611-1.2584-0.56578-1.2611-1.2611-1.2611z" fill="#fff" fill-rule="evenodd"/>
  <path d="m-321.16 176.07c-0.69532 0-1.2611 0.56577-1.2611 1.2611s0.56578 1.2584 1.2611 1.2584 1.2611-0.56313 1.2611-1.2584-0.56578-1.2611-1.2611-1.2611" fill="none" stroke="#000" stroke-linecap="round" stroke-linejoin="round" stroke-width=".26438px"/>
  <path d="m-321.41 184.85v7.9314" fill="none" stroke="#000" stroke-linejoin="round" stroke-width=".26438px"/>
  <path d="m-321.16 183.74c-0.69532 0-1.2611 0.56578-1.2611 1.2611s0.56578 1.2584 1.2611 1.2584 1.2611-0.56313 1.2611-1.2584-0.56578-1.2611-1.2611-1.2611z" fill="#fff" fill-rule="evenodd"/>
  <path d="m-321.16 183.74c-0.69532 0-1.2611 0.56578-1.2611 1.2611s0.56578 1.2584 1.2611 1.2584 1.2611-0.56313 1.2611-1.2584-0.56578-1.2611-1.2611-1.2611" fill="none" stroke="#000" stroke-linecap="round" stroke-linejoin="round" stroke-width=".26438px"/>
  <path d="m-321.16 191.4c-0.69532 0-1.2611 0.56577-1.2611 1.2611s0.56578 1.2584 1.2611 1.2584 1.2611-0.56313 1.2611-1.2584-0.56578-1.2611-1.2611-1.2611z" fill="#fff" fill-rule="evenodd"/>
  <path d="m-321.16 191.4c-0.69532 0-1.2611 0.56577-1.2611 1.2611s0.56578 1.2584 1.2611 1.2584 1.2611-0.56313 1.2611-1.2584-0.56578-1.2611-1.2611-1.2611" fill="none" stroke="#000" stroke-linecap="round" stroke-linejoin="round" stroke-width=".26438px"/>
 </g>
</svg>
