<?xml version="1.0" encoding="UTF-8"?>
<!-- Created with Inkscape (http://www.inkscape.org/) -->
<svg width="140.42" height="120.44" version="1.1" viewBox="0 0 140.42231 120.43764" xmlns="http://www.w3.org/2000/svg" xmlns:cc="http://creativecommons.org/ns#" xmlns:dc="http://purl.org/dc/elements/1.1/" xmlns:rdf="http://www.w3.org/1999/02/22-rdf-syntax-ns#">
 <metadata>
  <rdf:RDF>
   <cc:Work rdf:about="">
    <dc:format>image/svg+xml</dc:format>
    <dc:type rdf:resource="http://purl.org/dc/dcmitype/StillImage"/>
    <dc:title/>
   </cc:Work>
  </rdf:RDF>
 </metadata>
 <g transform="matrix(3.7795 0 0 3.7795 1344.4 -830.43)">
  <text x="-355.89233" y="223.36745" fill="#000000" font-family="Calibri" font-size="3.8861px" font-weight="400" letter-spacing="0px" stroke-width=".26458" word-spacing="0px" style="line-height:125%" xml:space="preserve"><tspan x="0" y="0" stroke-width=".26458"><tspan dx="0" dy="0" fill="#000000" font-family="Calibri" font-size="3.8861px" font-weight="400" stroke-width=".26458"/></tspan></text>
  <g fill="none" stroke-linejoin="round" stroke-width=".26438px">
   <path d="m-346.08 226.7c1.7026-1.0787 3.4026-2.16 5.8164 0.29082" stroke="#f00"/>
   <path d="m-346.59 226.81h6.6968" stroke="#000"/>
   <g stroke="#f00">
    <path d="m-326.04 232.45c0.98878 3.5559 1.9749 7.1118-0.26438 12.162"/>
    <path d="m-346.65 232.02c0.85923-2.4429 1.7185-4.8858 5.9724-5.0682"/>
    <path d="m-333.06 233.24c1.4303 1.7026 2.8606 3.4026-0.38335 5.8164"/>
    <path d="m-339.67 232.72c1.4303 1.7026 2.8606 3.4026-0.38335 5.8164"/>
   </g>
   <g stroke="#000">
    <path d="m-333.37 250.13v-29.082"/>
    <path d="m-319.97 250.22h-13.838"/>
    <path d="m-319.8 244.23h-20.18"/>
    <path d="m-339.89 244.14v-17.272"/>
    <path d="m-340.07 238.5h6.6968"/>
    <path d="m-333.02 232.68h6.6994"/>
    <path d="m-333.37 226.87h6.6968"/>
    <path d="m-340.24 232.77h-13.835"/>
    <path d="m-326.85 243.96v-17.275"/>
    <path d="m-346.94 232.68 7.0484-5.9935"/>
    <path d="m-354.34 232.68 7.0484-5.9935"/>
    <path d="m-339.71 226.69h6.6968"/>
    <path d="m-347.29 226.51 14.631-5.8164"/>
    <path d="m-320.15 250.13v-6.168"/>
   </g>
  </g>
  <path d="m-333.17 248.93c-0.69532 0-1.2611 0.56313-1.2611 1.2584 0 0.69796 0.56577 1.2611 1.2611 1.2611s1.2584-0.56313 1.2584-1.2611c0-0.69532-0.56313-1.2584-1.2584-1.2584z" fill="#fff" fill-rule="evenodd"/>
  <path d="m-333.17 248.93c-0.69532 0-1.2611 0.56313-1.2611 1.2584 0 0.69796 0.56577 1.2611 1.2611 1.2611s1.2584-0.56313 1.2584-1.2611c0-0.69532-0.56313-1.2584-1.2584-1.2584" fill="none" stroke="#000" stroke-linecap="round" stroke-linejoin="round" stroke-width=".26438px"/>
  <path d="m-319.95 248.93c-0.69532 0-1.2611 0.56313-1.2611 1.2584 0 0.69796 0.56578 1.2611 1.2611 1.2611s1.2584-0.56313 1.2584-1.2611c0-0.69532-0.56313-1.2584-1.2584-1.2584z" fill="#fff" fill-rule="evenodd"/>
  <path d="m-319.95 248.93c-0.69532 0-1.2611 0.56313-1.2611 1.2584 0 0.69796 0.56578 1.2611 1.2611 1.2611s1.2584-0.56313 1.2584-1.2611c0-0.69532-0.56313-1.2584-1.2584-1.2584" fill="none" stroke="#000" stroke-linecap="round" stroke-linejoin="round" stroke-width=".26438px"/>
  <path d="m-339.78 243.12c-0.69532 0-1.2611 0.56313-1.2611 1.2584 0 0.69796 0.56578 1.2611 1.2611 1.2611s1.2584-0.56313 1.2584-1.2611c0-0.69532-0.56313-1.2584-1.2584-1.2584z" fill="#fff" fill-rule="evenodd"/>
  <path d="m-339.78 243.12c-0.69532 0-1.2611 0.56313-1.2611 1.2584 0 0.69796 0.56578 1.2611 1.2611 1.2611s1.2584-0.56313 1.2584-1.2611c0-0.69532-0.56313-1.2584-1.2584-1.2584" fill="none" stroke="#000" stroke-linecap="round" stroke-linejoin="round" stroke-width=".26438px"/>
  <path d="m-333.17 243.12c-0.69532 0-1.2611 0.56313-1.2611 1.2584 0 0.69796 0.56577 1.2611 1.2611 1.2611s1.2584-0.56313 1.2584-1.2611c0-0.69532-0.56313-1.2584-1.2584-1.2584z" fill="#fff" fill-rule="evenodd"/>
  <path d="m-333.17 243.12c-0.69532 0-1.2611 0.56313-1.2611 1.2584 0 0.69796 0.56577 1.2611 1.2611 1.2611s1.2584-0.56313 1.2584-1.2611c0-0.69532-0.56313-1.2584-1.2584-1.2584" fill="none" stroke="#000" stroke-linecap="round" stroke-linejoin="round" stroke-width=".26438px"/>
  <path d="m-326.56 243.12c-0.69532 0-1.2611 0.56313-1.2611 1.2584 0 0.69796 0.56578 1.2611 1.2611 1.2611s1.2584-0.56313 1.2584-1.2611c0-0.69532-0.56313-1.2584-1.2584-1.2584z" fill="#fff" fill-rule="evenodd"/>
  <path d="m-326.56 243.12c-0.69532 0-1.2611 0.56313-1.2611 1.2584 0 0.69796 0.56578 1.2611 1.2611 1.2611s1.2584-0.56313 1.2584-1.2611c0-0.69532-0.56313-1.2584-1.2584-1.2584" fill="none" stroke="#000" stroke-linecap="round" stroke-linejoin="round" stroke-width=".26438px"/>
  <path d="m-319.95 243.12c-0.69532 0-1.2611 0.56313-1.2611 1.2584 0 0.69796 0.56578 1.2611 1.2611 1.2611s1.2584-0.56313 1.2584-1.2611c0-0.69532-0.56313-1.2584-1.2584-1.2584z" fill="#fff" fill-rule="evenodd"/>
  <path d="m-319.95 243.12c-0.69532 0-1.2611 0.56313-1.2611 1.2584 0 0.69796 0.56578 1.2611 1.2611 1.2611s1.2584-0.56313 1.2584-1.2611c0-0.69532-0.56313-1.2584-1.2584-1.2584" fill="none" stroke="#000" stroke-linecap="round" stroke-linejoin="round" stroke-width=".26438px"/>
  <path d="m-339.78 237.3c-0.69532 0-1.2611 0.56313-1.2611 1.2585 0 0.69796 0.56578 1.2611 1.2611 1.2611s1.2584-0.56313 1.2584-1.2611c0-0.69533-0.56313-1.2585-1.2584-1.2585z" fill="#fff" fill-rule="evenodd"/>
  <path d="m-339.78 237.3c-0.69532 0-1.2611 0.56313-1.2611 1.2585 0 0.69796 0.56578 1.2611 1.2611 1.2611s1.2584-0.56313 1.2584-1.2611c0-0.69533-0.56313-1.2585-1.2584-1.2585" fill="none" stroke="#000" stroke-linecap="round" stroke-linejoin="round" stroke-width=".26438px"/>
  <path d="m-333.17 237.3c-0.69532 0-1.2611 0.56313-1.2611 1.2585 0 0.69796 0.56577 1.2611 1.2611 1.2611s1.2584-0.56313 1.2584-1.2611c0-0.69533-0.56313-1.2585-1.2584-1.2585z" fill="#fff" fill-rule="evenodd"/>
  <path d="m-333.17 237.3c-0.69532 0-1.2611 0.56313-1.2611 1.2585 0 0.69796 0.56577 1.2611 1.2611 1.2611s1.2584-0.56313 1.2584-1.2611c0-0.69533-0.56313-1.2585-1.2584-1.2585" fill="none" stroke="#000" stroke-linecap="round" stroke-linejoin="round" stroke-width=".26438px"/>
  <path d="m-346.91 231.48c-0.69532 0-1.2611 0.56313-1.2611 1.2584 0 0.69797 0.56577 1.2611 1.2611 1.2611 0.69533 0 1.2585-0.56313 1.2585-1.2611 0-0.69532-0.56313-1.2584-1.2585-1.2584z" fill="#fff" fill-rule="evenodd"/>
  <path d="m-346.91 231.48c-0.69532 0-1.2611 0.56313-1.2611 1.2584 0 0.69797 0.56577 1.2611 1.2611 1.2611 0.69533 0 1.2585-0.56313 1.2585-1.2611 0-0.69532-0.56313-1.2584-1.2585-1.2584" fill="none" stroke="#000" stroke-linecap="round" stroke-linejoin="round" stroke-width=".26438px"/>
  <path d="m-339.78 231.48c-0.69532 0-1.2611 0.56313-1.2611 1.2584 0 0.69797 0.56578 1.2611 1.2611 1.2611s1.2584-0.56313 1.2584-1.2611c0-0.69532-0.56313-1.2584-1.2584-1.2584z" fill="#fff" fill-rule="evenodd"/>
  <path d="m-339.78 231.48c-0.69532 0-1.2611 0.56313-1.2611 1.2584 0 0.69797 0.56578 1.2611 1.2611 1.2611s1.2584-0.56313 1.2584-1.2611c0-0.69532-0.56313-1.2584-1.2584-1.2584" fill="none" stroke="#000" stroke-linecap="round" stroke-linejoin="round" stroke-width=".26438px"/>
  <path d="m-333.17 231.48c-0.69532 0-1.2611 0.56313-1.2611 1.2584 0 0.69797 0.56577 1.2611 1.2611 1.2611s1.2584-0.56313 1.2584-1.2611c0-0.69532-0.56313-1.2584-1.2584-1.2584z" fill="#fff" fill-rule="evenodd"/>
  <path d="m-333.17 231.48c-0.69532 0-1.2611 0.56313-1.2611 1.2584 0 0.69797 0.56577 1.2611 1.2611 1.2611s1.2584-0.56313 1.2584-1.2611c0-0.69532-0.56313-1.2584-1.2584-1.2584" fill="none" stroke="#000" stroke-linecap="round" stroke-linejoin="round" stroke-width=".26438px"/>
  <path d="m-326.56 231.48c-0.69532 0-1.2611 0.56313-1.2611 1.2584 0 0.69797 0.56578 1.2611 1.2611 1.2611s1.2584-0.56313 1.2584-1.2611c0-0.69532-0.56313-1.2584-1.2584-1.2584z" fill="#fff" fill-rule="evenodd"/>
  <path d="m-326.56 231.48c-0.69532 0-1.2611 0.56313-1.2611 1.2584 0 0.69797 0.56578 1.2611 1.2611 1.2611s1.2584-0.56313 1.2584-1.2611c0-0.69532-0.56313-1.2584-1.2584-1.2584" fill="none" stroke="#000" stroke-linecap="round" stroke-linejoin="round" stroke-width=".26438px"/>
  <path d="m-346.91 225.67c-0.69532 0-1.2611 0.56313-1.2611 1.2584 0 0.69797 0.56577 1.2611 1.2611 1.2611 0.69533 0 1.2585-0.56313 1.2585-1.2611 0-0.69532-0.56313-1.2584-1.2585-1.2584z" fill="#fff" fill-rule="evenodd"/>
  <path d="m-346.91 225.67c-0.69532 0-1.2611 0.56313-1.2611 1.2584 0 0.69797 0.56577 1.2611 1.2611 1.2611 0.69533 0 1.2585-0.56313 1.2585-1.2611 0-0.69532-0.56313-1.2584-1.2585-1.2584" fill="none" stroke="#000" stroke-linecap="round" stroke-linejoin="round" stroke-width=".26438px"/>
  <path d="m-339.78 225.67c-0.69532 0-1.2611 0.56313-1.2611 1.2584 0 0.69797 0.56578 1.2611 1.2611 1.2611s1.2584-0.56313 1.2584-1.2611c0-0.69532-0.56313-1.2584-1.2584-1.2584z" fill="#fff" fill-rule="evenodd"/>
  <path d="m-339.78 225.67c-0.69532 0-1.2611 0.56313-1.2611 1.2584 0 0.69797 0.56578 1.2611 1.2611 1.2611s1.2584-0.56313 1.2584-1.2611c0-0.69532-0.56313-1.2584-1.2584-1.2584" fill="none" stroke="#000" stroke-linecap="round" stroke-linejoin="round" stroke-width=".26438px"/>
  <path d="m-333.17 225.67c-0.69532 0-1.2611 0.56313-1.2611 1.2584 0 0.69797 0.56577 1.2611 1.2611 1.2611s1.2584-0.56313 1.2584-1.2611c0-0.69532-0.56313-1.2584-1.2584-1.2584z" fill="#fff" fill-rule="evenodd"/>
  <path d="m-333.17 225.67c-0.69532 0-1.2611 0.56313-1.2611 1.2584 0 0.69797 0.56577 1.2611 1.2611 1.2611s1.2584-0.56313 1.2584-1.2611c0-0.69532-0.56313-1.2584-1.2584-1.2584" fill="none" stroke="#000" stroke-linecap="round" stroke-linejoin="round" stroke-width=".26438px"/>
  <path d="m-326.56 225.67c-0.69532 0-1.2611 0.56313-1.2611 1.2584 0 0.69797 0.56578 1.2611 1.2611 1.2611s1.2584-0.56313 1.2584-1.2611c0-0.69532-0.56313-1.2584-1.2584-1.2584z" fill="#fff" fill-rule="evenodd"/>
  <path d="m-326.56 225.67c-0.69532 0-1.2611 0.56313-1.2611 1.2584 0 0.69797 0.56578 1.2611 1.2611 1.2611s1.2584-0.56313 1.2584-1.2611c0-0.69532-0.56313-1.2584-1.2584-1.2584" fill="none" stroke="#000" stroke-linecap="round" stroke-linejoin="round" stroke-width=".26438px"/>
  <path d="m-333.17 219.85c-0.69532 0-1.2611 0.56313-1.2611 1.2584 0 0.69797 0.56577 1.2611 1.2611 1.2611s1.2584-0.56313 1.2584-1.2611c0-0.69532-0.56313-1.2584-1.2584-1.2584z" fill="#fff" fill-rule="evenodd"/>
  <path d="m-333.17 219.85c-0.69532 0-1.2611 0.56313-1.2611 1.2584 0 0.69797 0.56577 1.2611 1.2611 1.2611s1.2584-0.56313 1.2584-1.2611c0-0.69532-0.56313-1.2584-1.2584-1.2584" fill="none" stroke="#000" stroke-linecap="round" stroke-linejoin="round" stroke-width=".26438px"/>
  <path d="m-354.32 231.48c-0.69532 0-1.2611 0.56313-1.2611 1.2584 0 0.69797 0.56578 1.2611 1.2611 1.2611s1.2584-0.56313 1.2584-1.2611c0-0.69532-0.56313-1.2584-1.2584-1.2584z" fill="#fff" fill-rule="evenodd"/>
  <path d="m-354.32 231.48c-0.69532 0-1.2611 0.56313-1.2611 1.2584 0 0.69797 0.56578 1.2611 1.2611 1.2611s1.2584-0.56313 1.2584-1.2611c0-0.69532-0.56313-1.2584-1.2584-1.2584" fill="none" stroke="#000" stroke-linecap="round" stroke-linejoin="round" stroke-width=".26438px"/>
 </g>
</svg>
