<?xml version="1.0" encoding="UTF-8"?>
<!-- Created with Inkscape (http://www.inkscape.org/) -->
<svg width="104.04" height="99.454" version="1.1" viewBox="0 0 104.04124 99.453982" xmlns="http://www.w3.org/2000/svg" xmlns:cc="http://creativecommons.org/ns#" xmlns:dc="http://purl.org/dc/elements/1.1/" xmlns:rdf="http://www.w3.org/1999/02/22-rdf-syntax-ns#">
 <defs>
  <clipPath id="clipEmfPath1-89">
   <path d="m38.051 0.15988h15.028v20.944h-15.028z"/>
  </clipPath>
  <clipPath id="clipEmfPath2-98">
   <path d="m0.15988 73.544h15.028v20.944h-15.028z"/>
  </clipPath>
  <clipPath id="clipEmfPath3-75">
   <path d="m98.005 73.544h15.028v21.104h-15.028z"/>
  </clipPath>
  <clipPath id="clipEmfPath4-1818">
   <path d="m59.155 51.64h14.869v20.944h-14.869z"/>
  </clipPath>
  <clipPath id="clipEmfPath5-44">
   <path d="m27.179 47.164h9.2729v15.028h-9.2729z"/>
  </clipPath>
  <clipPath id="clipEmfPath6-42">
   <path d="m72.105 44.126h12.95v15.028h-12.95z"/>
  </clipPath>
  <clipPath id="clipEmfPath7-22">
   <path d="m52.12 34.214h12.95v14.869h-12.95z"/>
  </clipPath>
  <clipPath id="clipEmfPath8-17">
   <path d="m31.176 73.064h9.9124v15.028h-9.9124z"/>
  </clipPath>
  <clipPath id="clipEmfPath9-9">
   <path d="m68.108 74.183h11.032v14.869h-11.032z"/>
  </clipPath>
  <clipPath id="clipEmfPath10-57">
   <path d="m48.123 89.052h15.668v15.028h-15.668z"/>
  </clipPath>
 </defs>
 <metadata>
  <rdf:RDF>
   <cc:Work rdf:about="">
    <dc:format>image/svg+xml</dc:format>
    <dc:type rdf:resource="http://purl.org/dc/dcmitype/StillImage"/>
    <dc:title/>
   </cc:Work>
  </rdf:RDF>
 </metadata>
 <g transform="matrix(3.7795 0 0 3.7795 1456 -1725.8)">
  <text x="-385.59811" y="459.05533" fill="#000000" font-family="Calibri" font-size="3.8861px" font-weight="400" letter-spacing="0px" stroke-width=".26458" word-spacing="0px" style="line-height:125%" xml:space="preserve"><tspan x="0" y="0" stroke-width=".26458"><tspan dx="0" dy="0" fill="#000000" font-family="Calibri" font-size="3.8861px" font-weight="400" stroke-width=".26458"/></tspan></text>
  <g fill="none" stroke="#000" stroke-linejoin="round" stroke-width=".26438px">
   <path d="m-370.78 473.39v-14.541"/>
   <path d="m-370.51 459.5-11.897 20.886"/>
   <path d="m-382.15 480.67h22.472"/>
   <path d="m-370.51 458.99 10.311 21.415"/>
   <path d="m-382.41 480.94 11.633-7.4026"/>
   <path d="m-370.78 473.53 10.575 7.1383"/>
  </g>
  <path d="m-370.58 457.83c-0.69533 0-1.2585 0.56578-1.2585 1.2611s0.56313 1.2611 1.2585 1.2611c0.69796 0 1.2611-0.56577 1.2611-1.2611s-0.56313-1.2611-1.2611-1.2611z" fill="#fff" fill-rule="evenodd"/>
  <path d="m-370.58 457.83c-0.69533 0-1.2585 0.56578-1.2585 1.2611s0.56313 1.2611 1.2585 1.2611c0.69796 0 1.2611-0.56577 1.2611-1.2611s-0.56313-1.2611-1.2611-1.2611" fill="none" stroke="#000" stroke-linecap="round" stroke-linejoin="round" stroke-width=".26438px"/>
  <path d="m-382.21 479.61c-0.69532 0-1.2584 0.56577-1.2584 1.2611s0.56313 1.2611 1.2584 1.2611c0.69797 0 1.2611-0.56578 1.2611-1.2611s-0.56313-1.2611-1.2611-1.2611z" fill="#fff" fill-rule="evenodd"/>
  <path d="m-382.21 479.61c-0.69532 0-1.2584 0.56577-1.2584 1.2611s0.56313 1.2611 1.2584 1.2611c0.69797 0 1.2611-0.56578 1.2611-1.2611s-0.56313-1.2611-1.2611-1.2611" fill="none" stroke="#000" stroke-linecap="round" stroke-linejoin="round" stroke-width=".26438px"/>
  <path d="m-360.27 479.37c-0.69532 0-1.2585 0.56578-1.2585 1.2611s0.56314 1.2584 1.2585 1.2584c0.69796 0 1.2611-0.56313 1.2611-1.2584s-0.56313-1.2611-1.2611-1.2611z" fill="#fff" fill-rule="evenodd"/>
  <path d="m-360.27 479.37c-0.69532 0-1.2585 0.56578-1.2585 1.2611s0.56314 1.2584 1.2585 1.2584c0.69796 0 1.2611-0.56313 1.2611-1.2584s-0.56313-1.2611-1.2611-1.2611" fill="none" stroke="#000" stroke-linecap="round" stroke-linejoin="round" stroke-width=".26438px"/>
  <path d="m-370.84 472.48c-0.69532 0-1.2584 0.56578-1.2584 1.2611s0.56313 1.2611 1.2584 1.2611c0.69797 0 1.2611-0.56577 1.2611-1.2611s-0.56313-1.2611-1.2611-1.2611z" fill="#fff" fill-rule="evenodd"/>
  <path d="m-370.84 472.48c-0.69532 0-1.2584 0.56578-1.2584 1.2611s0.56313 1.2611 1.2584 1.2611c0.69797 0 1.2611-0.56577 1.2611-1.2611s-0.56313-1.2611-1.2611-1.2611" fill="none" stroke="#000" stroke-linecap="round" stroke-linejoin="round" stroke-width=".26438px"/>
  <g transform="matrix(.26458 0 0 .26458 -385.6 455.42)" clip-path="url(#clipEmfPath1-89)">
   <text transform="translate(38.051 13.909)" fill="#000000" font-family="Calibri" font-size="14.688px" font-weight="400" letter-spacing="0px" word-spacing="0px" style="line-height:125%" xml:space="preserve"><tspan x="0" y="0" fill="#000000" font-family="Calibri" font-size="14.688px" font-weight="400"><tspan dx="0" dy="0">A</tspan><tspan dx="0" dy="0"/></tspan></text>
  </g>
  <g transform="matrix(.26458 0 0 .26458 -385.6 455.42)" clip-path="url(#clipEmfPath2-98)">
   <text transform="translate(.15988 87.293)" fill="#000000" font-family="Calibri" font-size="14.688px" font-weight="400" letter-spacing="0px" word-spacing="0px" style="line-height:125%" xml:space="preserve"><tspan x="0" y="0" fill="#000000" font-family="Calibri" font-size="14.688px" font-weight="400"><tspan dx="0" dy="0">B</tspan><tspan dx="0" dy="0"/></tspan></text>
  </g>
  <g transform="matrix(.26458 0 0 .26458 -385.6 455.42)" clip-path="url(#clipEmfPath3-75)">
   <text transform="translate(98.005 87.293)" fill="#000000" font-family="Calibri" font-size="14.688px" font-weight="400" letter-spacing="0px" word-spacing="0px" style="line-height:125%" xml:space="preserve"><tspan x="0" y="0" fill="#000000" font-family="Calibri" font-size="14.688px" font-weight="400"><tspan dx="0" dy="0">C</tspan><tspan dx="0" dy="0"/></tspan></text>
  </g>
  <g transform="matrix(.26458 0 0 .26458 -385.6 455.42)" clip-path="url(#clipEmfPath4-1818)">
   <text transform="translate(59.155 65.39)" fill="#000000" font-family="Calibri" font-size="14.688px" font-weight="400" letter-spacing="0px" word-spacing="0px" style="line-height:125%" xml:space="preserve"><tspan x="0" y="0" fill="#000000" font-family="Calibri" font-size="14.688px" font-weight="400"><tspan dx="0" dy="0">D</tspan><tspan dx="0" dy="0"/></tspan></text>
  </g>
  <path d="m-378.44 467.88v3.9657h2.4667v-3.9657z" fill="#fff" fill-rule="evenodd"/>
  <g transform="matrix(.26458 0 0 .26458 -385.6 455.42)" clip-path="url(#clipEmfPath5-44)">
   <text transform="translate(29.098 59.794)" fill="#000000" font-family="Calibri" font-size="13.25px" font-weight="400" letter-spacing="0px" word-spacing="0px" style="line-height:125%" xml:space="preserve"><tspan x="0" y="0" fill="#000000" font-family="Calibri" font-size="13.25px" font-weight="400"><tspan dx="0" dy="0">4</tspan><tspan dx="0" dy="0"/></tspan></text>
  </g>
  <path d="m-366.55 467.08v3.9657h3.437v-3.9657z" fill="#fff" fill-rule="evenodd"/>
  <g transform="matrix(.26458 0 0 .26458 -385.6 455.42)" clip-path="url(#clipEmfPath6-42)">
   <text transform="translate(74.023 56.756)" fill="#000000" font-family="Calibri" font-size="13.25px" font-weight="400" letter-spacing="0px" word-spacing="0px" style="line-height:125%" xml:space="preserve"><tspan x="0" y="0" fill="#000000" font-family="Calibri" font-size="13.25px" font-weight="400"><tspan dx="0" dy="0">2</tspan><tspan dx="0" dy="0"/></tspan></text>
  </g>
  <path d="m-371.83 464.44v3.9657h3.437v-3.9657z" fill="#fff" fill-rule="evenodd"/>
  <g transform="matrix(.26458 0 0 .26458 -385.6 455.42)" clip-path="url(#clipEmfPath7-22)">
   <text transform="translate(54.039 46.844)" fill="#000000" font-family="Calibri" font-size="13.25px" font-weight="400" letter-spacing="0px" word-spacing="0px" style="line-height:125%" xml:space="preserve"><tspan x="0" y="0" fill="#000000" font-family="Calibri" font-size="13.25px" font-weight="400"><tspan dx="0" dy="0">1</tspan><tspan dx="0" dy="0"/></tspan></text>
  </g>
  <path d="m-377.39 474.75v3.9657h2.6438v-3.9657z" fill="#fff" fill-rule="evenodd"/>
  <g transform="matrix(.26458 0 0 .26458 -385.6 455.42)" clip-path="url(#clipEmfPath8-17)">
   <text transform="translate(33.095 85.694)" fill="#000000" font-family="Calibri" font-size="13.25px" font-weight="400" letter-spacing="0px" word-spacing="0px" style="line-height:125%" xml:space="preserve"><tspan x="0" y="0" fill="#000000" font-family="Calibri" font-size="13.25px" font-weight="400"><tspan dx="0" dy="0">9</tspan><tspan dx="0" dy="0"/></tspan></text>
  </g>
  <path d="m-367.6 475.01v3.9657h2.9082v-3.9657z" fill="#fff" fill-rule="evenodd"/>
  <g transform="matrix(.26458 0 0 .26458 -385.6 455.42)" clip-path="url(#clipEmfPath9-9)">
   <text transform="translate(70.026 86.813)" fill="#000000" font-family="Calibri" font-size="13.25px" font-weight="400" letter-spacing="0px" word-spacing="0px" style="line-height:125%" xml:space="preserve"><tspan x="0" y="0" fill="#000000" font-family="Calibri" font-size="13.25px" font-weight="400"><tspan dx="0" dy="0">8</tspan><tspan dx="0" dy="0"/></tspan></text>
  </g>
  <path d="m-372.89 478.98v3.9657h4.1402v-3.9657z" fill="#fff" fill-rule="evenodd"/>
  <g transform="matrix(.26458 0 0 .26458 -385.6 455.42)" clip-path="url(#clipEmfPath10-57)">
   <text transform="translate(50.042 101.68)" fill="#000000" font-family="Calibri" font-size="13.25px" font-weight="400" letter-spacing="0px" word-spacing="0px" style="line-height:125%" xml:space="preserve"><tspan x="0" y="0" fill="#000000" font-family="Calibri" font-size="13.25px" font-weight="400"><tspan dx="0" dy="0">13</tspan><tspan dx="0" dy="0"/></tspan></text>
  </g>
 </g>
</svg>
