<?xml version="1.0" encoding="UTF-8"?>
<!-- Created with Inkscape (http://www.inkscape.org/) -->
<svg width="579.56" height="155.83" version="1.1" viewBox="0 0 579.56038 155.82691" xmlns="http://www.w3.org/2000/svg" xmlns:cc="http://creativecommons.org/ns#" xmlns:dc="http://purl.org/dc/elements/1.1/" xmlns:rdf="http://www.w3.org/1999/02/22-rdf-syntax-ns#">
 <defs>
  <clipPath id="clipEmfPath1-99">
   <path d="m249.73 0.31975h102v19.025h-102z"/>
  </clipPath>
  <clipPath id="clipEmfPath2-210">
   <path d="m66.829 43.327h22.063v20.944h-22.063z"/>
  </clipPath>
  <clipPath id="clipEmfPath3-02">
   <path d="m343.74 47.324h59.954v19.025h-59.954z"/>
  </clipPath>
  <clipPath id="clipEmfPath4-99">
   <path d="m198.73 44.446h42.048v17.906h-42.048z"/>
  </clipPath>
  <clipPath id="clipEmfPath5-60">
   <path d="m513.53 48.443h51.001v19.985h-51.001z"/>
  </clipPath>
  <clipPath id="clipEmfPath6-47">
   <path d="m16.947 78.34h15.028v15.988h-15.028z"/>
  </clipPath>
  <clipPath id="clipEmfPath7-63">
   <path d="m108.88 78.34h15.988v15.988h-15.988z"/>
  </clipPath>
  <clipPath id="clipEmfPath8-48">
   <path d="m62.832 78.34h11.991v16.947h-11.991z"/>
  </clipPath>
  <clipPath id="clipEmfPath9-45">
   <path d="m3.9969 112.39h11.991v16.947h-11.991z"/>
  </clipPath>
  <clipPath id="clipEmfPath10-91">
   <path d="m22.862 112.39h15.988v15.988h-15.988z"/>
  </clipPath>
  <clipPath id="clipEmfPath11-86">
   <path d="m49.882 112.39h11.991v16.947h-11.991z"/>
  </clipPath>
  <clipPath id="clipEmfPath12-26">
   <path d="m68.907 112.39h15.988v15.988h-15.988z"/>
  </clipPath>
  <clipPath id="clipEmfPath13-17">
   <path d="m96.886 112.39h11.991v16.947h-11.991z"/>
  </clipPath>
  <clipPath id="clipEmfPath14-98">
   <path d="m115.91 112.39h15.988v15.988h-15.988z"/>
  </clipPath>
  <clipPath id="clipEmfPath15-76">
   <path d="m159.88 78.34h14.869v15.988h-14.869z"/>
  </clipPath>
  <clipPath id="clipEmfPath16-46">
   <path d="m251.81 78.34h15.988v15.988h-15.988z"/>
  </clipPath>
  <clipPath id="clipEmfPath17-2">
   <path d="m205.76 78.34h11.991v16.947h-11.991z"/>
  </clipPath>
  <clipPath id="clipEmfPath18-7">
   <path d="m146.77 112.39h11.991v16.947h-11.991z"/>
  </clipPath>
  <clipPath id="clipEmfPath19-0">
   <path d="m165.79 112.39h15.988v15.988h-15.988z"/>
  </clipPath>
  <clipPath id="clipEmfPath20-7">
   <path d="m192.81 112.39h11.991v16.947h-11.991z"/>
  </clipPath>
  <clipPath id="clipEmfPath21-3">
   <path d="m211.84 112.39h15.988v15.988h-15.988z"/>
  </clipPath>
  <clipPath id="clipEmfPath22-7">
   <path d="m239.82 112.39h11.991v16.947h-11.991z"/>
  </clipPath>
  <clipPath id="clipEmfPath23-8">
   <path d="m258.68 112.39h15.988v15.988h-15.988z"/>
  </clipPath>
  <clipPath id="clipEmfPath24-4">
   <path d="m311.76 80.418h14.869v15.988h-14.869z"/>
  </clipPath>
  <clipPath id="clipEmfPath25-6">
   <path d="m403.69 80.418h15.988v15.988h-15.988z"/>
  </clipPath>
  <clipPath id="clipEmfPath26-26">
   <path d="m357.65 80.418h11.991v16.947h-11.991z"/>
  </clipPath>
  <clipPath id="clipEmfPath27-6">
   <path d="m298.65 114.31h11.991v16.947h-11.991z"/>
  </clipPath>
  <clipPath id="clipEmfPath28-8">
   <path d="m317.68 114.31h15.988v15.988h-15.988z"/>
  </clipPath>
  <clipPath id="clipEmfPath29-2">
   <path d="m344.7 114.31h11.991v16.947h-11.991z"/>
  </clipPath>
  <clipPath id="clipEmfPath30-9">
   <path d="m363.72 114.31h15.988v15.988h-15.988z"/>
  </clipPath>
  <clipPath id="clipEmfPath31-87">
   <path d="m391.7 114.31h11.991v16.947h-11.991z"/>
  </clipPath>
  <clipPath id="clipEmfPath32-7">
   <path d="m410.57 114.31h15.988v15.988h-15.988z"/>
  </clipPath>
  <clipPath id="clipEmfPath33-5">
   <path d="m476.59 80.418h15.028v15.988h-15.028z"/>
  </clipPath>
  <clipPath id="clipEmfPath34-12">
   <path d="m568.52 80.418h15.988v15.988h-15.988z"/>
  </clipPath>
  <clipPath id="clipEmfPath35-5">
   <path d="m522.48 80.418h11.991v16.947h-11.991z"/>
  </clipPath>
  <clipPath id="clipEmfPath36-2">
   <path d="m463.64 114.31h11.991v16.947h-11.991z"/>
  </clipPath>
  <clipPath id="clipEmfPath37-3">
   <path d="m482.51 114.31h15.988v15.988h-15.988z"/>
  </clipPath>
  <clipPath id="clipEmfPath38">
   <path d="m509.53 114.31h11.991v16.947h-11.991z"/>
  </clipPath>
  <clipPath id="clipEmfPath39">
   <path d="m528.55 114.31h15.988v15.988h-15.988z"/>
  </clipPath>
  <clipPath id="clipEmfPath40">
   <path d="m556.53 114.31h11.991v16.947h-11.991z"/>
  </clipPath>
  <clipPath id="clipEmfPath41">
   <path d="m575.56 114.31h15.988v15.988h-15.988z"/>
  </clipPath>
  <clipPath id="clipEmfPath42">
   <path d="m3.9969 145.01h15.988v15.988h-15.988z"/>
  </clipPath>
  <clipPath id="clipEmfPath43">
   <path d="m21.903 145.01h15.988v15.988h-15.988z"/>
  </clipPath>
  <clipPath id="clipEmfPath44">
   <path d="m48.603 145.01h15.988v15.988h-15.988z"/>
  </clipPath>
  <clipPath id="clipEmfPath45">
   <path d="m68.587 145.01h15.988v15.988h-15.988z"/>
  </clipPath>
  <clipPath id="clipEmfPath46">
   <path d="m95.926 145.01h15.988v15.988h-15.988z"/>
  </clipPath>
  <clipPath id="clipEmfPath47">
   <path d="m115.91 145.01h15.988v15.988h-15.988z"/>
  </clipPath>
  <clipPath id="clipEmfPath48">
   <path d="m145.81 145.01h15.988v15.988h-15.988z"/>
  </clipPath>
  <clipPath id="clipEmfPath49">
   <path d="m165.79 145.01h15.988v15.988h-15.988z"/>
  </clipPath>
  <clipPath id="clipEmfPath50">
   <path d="m191.05 145.01h15.988v15.988h-15.988z"/>
  </clipPath>
  <clipPath id="clipEmfPath51">
   <path d="m211.04 145.01h15.988v15.988h-15.988z"/>
  </clipPath>
  <clipPath id="clipEmfPath52">
   <path d="m237.74 145.01h15.988v15.988h-15.988z"/>
  </clipPath>
  <clipPath id="clipEmfPath53">
   <path d="m257.72 145.01h15.988v15.988h-15.988z"/>
  </clipPath>
  <clipPath id="clipEmfPath54">
   <path d="m297.69 146.93h15.988v15.988h-15.988z"/>
  </clipPath>
  <clipPath id="clipEmfPath55">
   <path d="m315.76 146.93h15.988v15.988h-15.988z"/>
  </clipPath>
  <clipPath id="clipEmfPath56">
   <path d="m342.3 146.93h15.988v15.988h-15.988z"/>
  </clipPath>
  <clipPath id="clipEmfPath57">
   <path d="m362.28 146.93h15.988v15.988h-15.988z"/>
  </clipPath>
  <clipPath id="clipEmfPath58">
   <path d="m389.62 146.93h15.988v15.988h-15.988z"/>
  </clipPath>
  <clipPath id="clipEmfPath59">
   <path d="m409.61 146.93h15.988v15.988h-15.988z"/>
  </clipPath>
  <clipPath id="clipEmfPath60">
   <path d="m462.84 146.29h15.988v15.988h-15.988z"/>
  </clipPath>
  <clipPath id="clipEmfPath61">
   <path d="m480.91 146.29h15.988v15.988h-15.988z"/>
  </clipPath>
  <clipPath id="clipEmfPath62">
   <path d="m507.61 146.29h15.988v15.988h-15.988z"/>
  </clipPath>
  <clipPath id="clipEmfPath63">
   <path d="m527.6 146.29h15.988v15.988h-15.988z"/>
  </clipPath>
  <clipPath id="clipEmfPath64">
   <path d="m554.77 146.29h15.988v15.988h-15.988z"/>
  </clipPath>
  <clipPath id="clipEmfPath65">
   <path d="m574.76 146.29h15.988v15.988h-15.988z"/>
  </clipPath>
 </defs>
 <metadata>
  <rdf:RDF>
   <cc:Work rdf:about="">
    <dc:format>image/svg+xml</dc:format>
    <dc:type rdf:resource="http://purl.org/dc/dcmitype/StillImage"/>
    <dc:title/>
   </cc:Work>
  </rdf:RDF>
 </metadata>
 <g transform="matrix(3.7795 0 0 3.7795 1587.4 -1840.2)">
  <text x="-420.22443" y="489.52313" fill="#000000" font-family="Calibri" font-size="3.8861px" font-weight="400" letter-spacing="0px" stroke-width=".26458" word-spacing="0px" style="line-height:125%" xml:space="preserve"><tspan x="0" y="0" stroke-width=".26458"><tspan dx="0" dy="0" fill="#000000" font-family="Calibri" font-size="3.8861px" font-weight="400" stroke-width=".26458"/></tspan></text>
  <g transform="matrix(.26458 0 0 .26458 -421.11 485.89)" clip-path="url(#clipEmfPath1-99)">
   <text transform="translate(249.73 12.95)" fill="#000000" font-family="Calibri" font-size="13.25px" font-weight="400" letter-spacing="0px" word-spacing="0px" style="line-height:125%" xml:space="preserve"><tspan x="0" y="0" fill="#000000" font-family="Calibri" font-size="13.25px" font-weight="400"><tspan dx="0" dy="0">Home (Seattle)</tspan><tspan dx="0" dy="0"/></tspan></text>
  </g>
  <g transform="matrix(.26458 0 0 .26458 -421.11 485.89)" clip-path="url(#clipEmfPath2-210)">
   <text transform="translate(66.829 55.957)" fill="#000000" font-family="Calibri" font-size="13.25px" font-weight="400" letter-spacing="0px" word-spacing="0px" style="line-height:125%" xml:space="preserve"><tspan x="0" y="0" fill="#000000" font-family="Calibri" font-size="13.25px" font-weight="400"><tspan dx="0" dy="0">LA</tspan><tspan dx="0" dy="0"/></tspan></text>
  </g>
  <g transform="matrix(.26458 0 0 .26458 -421.11 485.89)" clip-path="url(#clipEmfPath3-02)">
   <text transform="translate(343.74 59.954)" fill="#000000" font-family="Calibri" font-size="13.25px" font-weight="400" letter-spacing="0px" word-spacing="0px" style="line-height:125%" xml:space="preserve"><tspan x="0" y="0" fill="#000000" font-family="Calibri" font-size="13.25px" font-weight="400"><tspan dx="0" dy="0">Chicago</tspan><tspan dx="0" dy="0"/></tspan></text>
  </g>
  <g transform="matrix(.26458 0 0 .26458 -421.11 485.89)" clip-path="url(#clipEmfPath4-99)">
   <text transform="translate(198.73 57.076)" fill="#000000" font-family="Calibri" font-size="13.25px" font-weight="400" letter-spacing="0px" word-spacing="0px" style="line-height:125%" xml:space="preserve"><tspan x="0" y="0" fill="#000000" font-family="Calibri" font-size="13.25px" font-weight="400"><tspan dx="0" dy="0">Dallas</tspan><tspan dx="0" dy="0"/></tspan></text>
  </g>
  <g transform="matrix(.26458 0 0 .26458 -421.11 485.89)" clip-path="url(#clipEmfPath5-60)">
   <text transform="translate(513.53 61.073)" fill="#000000" font-family="Calibri" font-size="13.25px" font-weight="400" letter-spacing="0px" word-spacing="0px" style="line-height:125%" xml:space="preserve"><tspan x="0" y="0" fill="#000000" font-family="Calibri" font-size="13.25px" font-weight="400"><tspan dx="0" dy="0">Atlanta</tspan><tspan dx="0.58724201" dy="0"/></tspan></text>
  </g>
  <g stroke="#000" stroke-linejoin="bevel" stroke-width=".042301px">
   <path d="m-357.67 488.79-39.258 8.6109-0.074-0.3437 39.258-8.6135zm-38.724 9.3961-2.2922-0.58164 1.8401-1.4858z"/>
   <path d="m-353.11 491.14-7.8204 5.5837-0.20358-0.28554 7.8177-5.5864zm-7.0219 6.0966-2.3345 0.36749 1.1051-2.0886z"/>
   <path d="m-335.95 491.1 10.612 5.7688-0.16921 0.31197-10.612-5.7688zm10.723 4.8276 1.3536 1.9353-2.3636-0.0793z"/>
   <path d="m-327.8 491.09 36.606 7.5718-0.0687 0.34899-36.611-7.5772zm36.442 6.6412 1.856 1.4594-2.2842 0.60807z"/>
  </g>
  <g transform="matrix(.26458 0 0 .26458 -421.11 485.89)" clip-path="url(#clipEmfPath6-47)">
   <text transform="translate(16.947 90.97)" fill="#000000" font-family="Calibri" font-size="13.25px" font-weight="400" letter-spacing="0px" word-spacing="0px" style="line-height:125%" xml:space="preserve"><tspan x="0" y="0" fill="#000000" font-family="Calibri" font-size="13.25px" font-weight="400"><tspan dx="0" dy="0">D</tspan><tspan dx="0" dy="0"/></tspan></text>
  </g>
  <g transform="matrix(.26458 0 0 .26458 -421.11 485.89)" clip-path="url(#clipEmfPath7-63)">
   <text transform="translate(108.88 90.97)" fill="#000000" font-family="Calibri" font-size="13.25px" font-weight="400" letter-spacing="0px" word-spacing="0px" style="line-height:125%" xml:space="preserve"><tspan x="0" y="0" fill="#000000" font-family="Calibri" font-size="13.25px" font-weight="400"><tspan dx="0" dy="0">A</tspan><tspan dx="0" dy="0"/></tspan></text>
  </g>
  <g transform="matrix(.26458 0 0 .26458 -421.11 485.89)" clip-path="url(#clipEmfPath8-48)">
   <text transform="translate(62.832 90.97)" fill="#000000" font-family="Calibri" font-size="13.25px" font-weight="400" letter-spacing="0px" word-spacing="0px" style="line-height:125%" xml:space="preserve"><tspan x="0" y="0" fill="#000000" font-family="Calibri" font-size="13.25px" font-weight="400"><tspan dx="0" dy="0">C</tspan><tspan dx="0" dy="0"/></tspan></text>
  </g>
  <g stroke="#000" stroke-linejoin="bevel" stroke-width=".042301px">
   <path d="m-404.42 501.46-7.4502 4.1614-0.17185-0.30668 7.4502-4.164zm-6.7126 4.7588-2.3609 0.1084 1.3298-1.9538z"/>
   <path d="m-401.69 502.14-0.62922 2.5195-0.34106-0.0846 0.62923-2.5222zm0.31197 2.39-1.5387 1.7951-0.5129-2.308z"/>
   <path d="m-399.39 502.21 5.3722 3.3048-0.18507 0.30139-5.3722-3.3074zm5.5335 2.3715 1.2479 2.0066-2.3556-0.20622z"/>
   <path d="m-416.5 510.36-1.2399 3.3682-0.33048-0.12162 1.24-3.3708zm-0.29081 3.3418-1.7238 1.618-0.26173-2.3477z"/>
   <path d="m-414.91 509.99 0.71118 3.5612-0.34369 0.0687-0.71383-3.5586zm1.507 3.043-0.6213 2.279-1.4514-1.8665z"/>
  </g>
  <g transform="matrix(.26458 0 0 .26458 -421.11 485.89)" clip-path="url(#clipEmfPath9-45)">
   <text transform="translate(3.9969 125.02)" fill="#000000" font-family="Calibri" font-size="13.25px" font-weight="400" letter-spacing="0px" word-spacing="0px" style="line-height:125%" xml:space="preserve"><tspan x="0" y="0" fill="#000000" font-family="Calibri" font-size="13.25px" font-weight="400"><tspan dx="0" dy="0">C</tspan><tspan dx="0" dy="0"/></tspan></text>
  </g>
  <g transform="matrix(.26458 0 0 .26458 -421.11 485.89)" clip-path="url(#clipEmfPath10-91)">
   <text transform="translate(22.862 125.02)" fill="#000000" font-family="Calibri" font-size="13.25px" font-weight="400" letter-spacing="0px" word-spacing="0px" style="line-height:125%" xml:space="preserve"><tspan x="0" y="0" fill="#000000" font-family="Calibri" font-size="13.25px" font-weight="400"><tspan dx="0" dy="0">A</tspan><tspan dx="0" dy="0"/></tspan></text>
  </g>
  <path d="m-404.34 510.36-1.24 3.3682-0.33047-0.12162 1.2399-3.3708zm-0.29082 3.3418-1.7238 1.618-0.26174-2.3477z" stroke="#000" stroke-linejoin="bevel" stroke-width=".042301px"/>
  <path d="m-402.75 509.99 0.71119 3.5612-0.3437 0.0687-0.71383-3.5586zm1.507 3.043-0.62129 2.279-1.4514-1.8665z" stroke="#000" stroke-linejoin="bevel" stroke-width=".042301px"/>
  <g transform="matrix(.26458 0 0 .26458 -421.11 485.89)" clip-path="url(#clipEmfPath11-86)">
   <text transform="translate(49.882 125.02)" fill="#000000" font-family="Calibri" font-size="13.25px" font-weight="400" letter-spacing="0px" word-spacing="0px" style="line-height:125%" xml:space="preserve"><tspan x="0" y="0" fill="#000000" font-family="Calibri" font-size="13.25px" font-weight="400"><tspan dx="0" dy="0">D</tspan><tspan dx="0" dy="0"/></tspan></text>
  </g>
  <g transform="matrix(.26458 0 0 .26458 -421.11 485.89)" clip-path="url(#clipEmfPath12-26)">
   <text transform="translate(68.907 125.02)" fill="#000000" font-family="Calibri" font-size="13.25px" font-weight="400" letter-spacing="0px" word-spacing="0px" style="line-height:125%" xml:space="preserve"><tspan x="0" y="0" fill="#000000" font-family="Calibri" font-size="13.25px" font-weight="400"><tspan dx="0" dy="0">A</tspan><tspan dx="0" dy="0"/></tspan></text>
  </g>
  <path d="m-391.91 510.36-1.2399 3.3682-0.33048-0.12162 1.24-3.3708zm-0.29082 3.3418-1.7238 1.618-0.26173-2.3477z" stroke="#000" stroke-linejoin="bevel" stroke-width=".042301px"/>
  <path d="m-390.32 509.99 0.71118 3.5612-0.34369 0.0687-0.71383-3.5586zm1.507 3.043-0.6213 2.279-1.4514-1.8665z" stroke="#000" stroke-linejoin="bevel" stroke-width=".042301px"/>
  <g transform="matrix(.26458 0 0 .26458 -421.11 485.89)" clip-path="url(#clipEmfPath13-17)">
   <text transform="translate(96.886 125.02)" fill="#000000" font-family="Calibri" font-size="13.25px" font-weight="400" letter-spacing="0px" word-spacing="0px" style="line-height:125%" xml:space="preserve"><tspan x="0" y="0" fill="#000000" font-family="Calibri" font-size="13.25px" font-weight="400"><tspan dx="0" dy="0">C</tspan><tspan dx="0" dy="0"/></tspan></text>
  </g>
  <g transform="matrix(.26458 0 0 .26458 -421.11 485.89)" clip-path="url(#clipEmfPath14-98)">
   <text transform="translate(115.91 125.02)" fill="#000000" font-family="Calibri" font-size="13.25px" font-weight="400" letter-spacing="0px" word-spacing="0px" style="line-height:125%" xml:space="preserve"><tspan x="0" y="0" fill="#000000" font-family="Calibri" font-size="13.25px" font-weight="400"><tspan dx="0" dy="0">D</tspan><tspan dx="0" dy="0"/></tspan></text>
  </g>
  <g transform="matrix(.26458 0 0 .26458 -421.11 485.89)" clip-path="url(#clipEmfPath15-76)">
   <text transform="translate(159.88 90.97)" fill="#000000" font-family="Calibri" font-size="13.25px" font-weight="400" letter-spacing="0px" word-spacing="0px" style="line-height:125%" xml:space="preserve"><tspan x="0" y="0" fill="#000000" font-family="Calibri" font-size="13.25px" font-weight="400"><tspan dx="0" dy="0">L</tspan><tspan dx="0" dy="0"/></tspan></text>
  </g>
  <g transform="matrix(.26458 0 0 .26458 -421.11 485.89)" clip-path="url(#clipEmfPath16-46)">
   <text transform="translate(251.81 90.97)" fill="#000000" font-family="Calibri" font-size="13.25px" font-weight="400" letter-spacing="0px" word-spacing="0px" style="line-height:125%" xml:space="preserve"><tspan x="0" y="0" fill="#000000" font-family="Calibri" font-size="13.25px" font-weight="400"><tspan dx="0" dy="0">A</tspan><tspan dx="0" dy="0"/></tspan></text>
  </g>
  <g transform="matrix(.26458 0 0 .26458 -421.11 485.89)" clip-path="url(#clipEmfPath17-2)">
   <text transform="translate(205.76 90.97)" fill="#000000" font-family="Calibri" font-size="13.25px" font-weight="400" letter-spacing="0px" word-spacing="0px" style="line-height:125%" xml:space="preserve"><tspan x="0" y="0" fill="#000000" font-family="Calibri" font-size="13.25px" font-weight="400"><tspan dx="0" dy="0">C</tspan><tspan dx="0" dy="0"/></tspan></text>
  </g>
  <g stroke="#000" stroke-linejoin="bevel" stroke-width=".042301px">
   <path d="m-366.89 502.26-7.1383 3.4634-0.15334-0.31725 7.1383-3.4634zm-6.4377 4.1005-2.3636-0.0291 1.4409-1.8718z"/>
   <path d="m-363.88 502.14-0.62923 2.5195-0.34105-0.0846 0.62923-2.5222zm0.31197 2.39-1.5387 1.7951-0.5129-2.308z"/>
   <path d="m-361.58 502.21 5.3722 3.3048-0.18506 0.30139-5.3722-3.3074zm5.5335 2.3715 1.2479 2.0066-2.3556-0.20622z"/>
   <path d="m-378.7 510.36-1.2399 3.3682-0.33048-0.12162 1.2399-3.3708zm-0.29082 3.3418-1.7238 1.618-0.26174-2.3477z"/>
   <path d="m-377.1 509.99 0.71119 3.5612-0.3437 0.0687-0.71382-3.5586zm1.507 3.043-0.62129 2.279-1.4514-1.8665z"/>
  </g>
  <g transform="matrix(.26458 0 0 .26458 -421.11 485.89)" clip-path="url(#clipEmfPath18-7)">
   <text transform="translate(146.77 125.02)" fill="#000000" font-family="Calibri" font-size="13.25px" font-weight="400" letter-spacing="0px" word-spacing="0px" style="line-height:125%" xml:space="preserve"><tspan x="0" y="0" fill="#000000" font-family="Calibri" font-size="13.25px" font-weight="400"><tspan dx="0" dy="0">C</tspan><tspan dx="0" dy="0"/></tspan></text>
  </g>
  <g transform="matrix(.26458 0 0 .26458 -421.11 485.89)" clip-path="url(#clipEmfPath19-0)">
   <text transform="translate(165.79 125.02)" fill="#000000" font-family="Calibri" font-size="13.25px" font-weight="400" letter-spacing="0px" word-spacing="0px" style="line-height:125%" xml:space="preserve"><tspan x="0" y="0" fill="#000000" font-family="Calibri" font-size="13.25px" font-weight="400"><tspan dx="0" dy="0">A</tspan><tspan dx="0" dy="0"/></tspan></text>
  </g>
  <path d="m-366.53 510.36-1.2399 3.3682-0.33048-0.12162 1.24-3.3708zm-0.29081 3.3418-1.7238 1.618-0.26174-2.3477z" stroke="#000" stroke-linejoin="bevel" stroke-width=".042301px"/>
  <path d="m-364.94 509.99 0.71118 3.5612-0.34369 0.0687-0.71383-3.5586zm1.507 3.043-0.6213 2.279-1.4514-1.8665z" stroke="#000" stroke-linejoin="bevel" stroke-width=".042301px"/>
  <g transform="matrix(.26458 0 0 .26458 -421.11 485.89)" clip-path="url(#clipEmfPath20-7)">
   <text transform="translate(192.81 125.02)" fill="#000000" font-family="Calibri" font-size="13.25px" font-weight="400" letter-spacing="0px" word-spacing="0px" style="line-height:125%" xml:space="preserve"><tspan x="0" y="0" fill="#000000" font-family="Calibri" font-size="13.25px" font-weight="400"><tspan dx="0" dy="0">L</tspan><tspan dx="0" dy="0"/></tspan></text>
  </g>
  <g transform="matrix(.26458 0 0 .26458 -421.11 485.89)" clip-path="url(#clipEmfPath21-3)">
   <text transform="translate(211.84 125.02)" fill="#000000" font-family="Calibri" font-size="13.25px" font-weight="400" letter-spacing="0px" word-spacing="0px" style="line-height:125%" xml:space="preserve"><tspan x="0" y="0" fill="#000000" font-family="Calibri" font-size="13.25px" font-weight="400"><tspan dx="0" dy="0">A</tspan><tspan dx="0" dy="0"/></tspan></text>
  </g>
  <path d="m-354.11 510.36-1.24 3.3682-0.33047-0.12162 1.2399-3.3708zm-0.29082 3.3418-1.7238 1.618-0.26174-2.3477z" stroke="#000" stroke-linejoin="bevel" stroke-width=".042301px"/>
  <path d="m-352.51 509.99 0.71119 3.5612-0.3437 0.0687-0.71382-3.5586zm1.507 3.043-0.62129 2.279-1.4514-1.8665z" stroke="#000" stroke-linejoin="bevel" stroke-width=".042301px"/>
  <g transform="matrix(.26458 0 0 .26458 -421.11 485.89)" clip-path="url(#clipEmfPath22-7)">
   <text transform="translate(239.82 125.02)" fill="#000000" font-family="Calibri" font-size="13.25px" font-weight="400" letter-spacing="0px" word-spacing="0px" style="line-height:125%" xml:space="preserve"><tspan x="0" y="0" fill="#000000" font-family="Calibri" font-size="13.25px" font-weight="400"><tspan dx="0" dy="0">C</tspan><tspan dx="0" dy="0"/></tspan></text>
  </g>
  <g transform="matrix(.26458 0 0 .26458 -421.11 485.89)" clip-path="url(#clipEmfPath23-8)">
   <text transform="translate(258.68 125.02)" fill="#000000" font-family="Calibri" font-size="13.25px" font-weight="400" letter-spacing="0px" word-spacing="0px" style="line-height:125%" xml:space="preserve"><tspan x="0" y="0" fill="#000000" font-family="Calibri" font-size="13.25px" font-weight="400"><tspan dx="0" dy="0">L</tspan><tspan dx="0" dy="0"/></tspan></text>
  </g>
  <g transform="matrix(.26458 0 0 .26458 -421.11 485.89)" clip-path="url(#clipEmfPath24-4)">
   <text transform="translate(311.76 93.049)" fill="#000000" font-family="Calibri" font-size="13.25px" font-weight="400" letter-spacing="0px" word-spacing="0px" style="line-height:125%" xml:space="preserve"><tspan x="0" y="0" fill="#000000" font-family="Calibri" font-size="13.25px" font-weight="400"><tspan dx="0" dy="0">D</tspan><tspan dx="0" dy="0"/></tspan></text>
  </g>
  <g transform="matrix(.26458 0 0 .26458 -421.11 485.89)" clip-path="url(#clipEmfPath25-6)">
   <text transform="translate(403.69 93.049)" fill="#000000" font-family="Calibri" font-size="13.25px" font-weight="400" letter-spacing="0px" word-spacing="0px" style="line-height:125%" xml:space="preserve"><tspan x="0" y="0" fill="#000000" font-family="Calibri" font-size="13.25px" font-weight="400"><tspan dx="0" dy="0">A</tspan><tspan dx="0" dy="0"/></tspan></text>
  </g>
  <g transform="matrix(.26458 0 0 .26458 -421.11 485.89)" clip-path="url(#clipEmfPath26-26)">
   <text transform="translate(357.65 93.049)" fill="#000000" font-family="Calibri" font-size="13.25px" font-weight="400" letter-spacing="0px" word-spacing="0px" style="line-height:125%" xml:space="preserve"><tspan x="0" y="0" fill="#000000" font-family="Calibri" font-size="13.25px" font-weight="400"><tspan dx="0" dy="0">L</tspan><tspan dx="0" dy="0"/></tspan></text>
  </g>
  <g stroke="#000" stroke-linejoin="bevel" stroke-width=".042301px">
   <path d="m-328.53 502.78-5.3775 3.3048-0.17978-0.30139 5.3722-3.3048zm-4.6108 3.8705-2.3583 0.20622 1.2479-2.0093z"/>
   <path d="m-323.7 502.67-0.62923 2.5169-0.33841-0.0846 0.62923-2.5222zm0.31197 2.39-1.5387 1.7925-0.5129-2.3054z"/>
   <path d="m-321.39 502.74 5.3722 3.3048-0.18507 0.30139-5.3722-3.3048zm5.5308 2.3688 1.2479 2.0093-2.353-0.20622z"/>
   <path d="m-338.51 510.89-1.2399 3.3682-0.33048-0.12162 1.2399-3.3708zm-0.29082 3.3418-1.7238 1.618-0.26173-2.3477z"/>
   <path d="m-336.92 510.52 0.71119 3.5612-0.3437 0.0687-0.71382-3.5586zm1.507 3.043-0.62129 2.279-1.4514-1.8665z"/>
  </g>
  <g transform="matrix(.26458 0 0 .26458 -421.11 485.89)" clip-path="url(#clipEmfPath27-6)">
   <text transform="translate(298.65 126.94)" fill="#000000" font-family="Calibri" font-size="13.25px" font-weight="400" letter-spacing="0px" word-spacing="0px" style="line-height:125%" xml:space="preserve"><tspan x="0" y="0" fill="#000000" font-family="Calibri" font-size="13.25px" font-weight="400"><tspan dx="0" dy="0">L</tspan><tspan dx="0" dy="0"/></tspan></text>
  </g>
  <g transform="matrix(.26458 0 0 .26458 -421.11 485.89)" clip-path="url(#clipEmfPath28-8)">
   <text transform="translate(317.68 126.94)" fill="#000000" font-family="Calibri" font-size="13.25px" font-weight="400" letter-spacing="0px" word-spacing="0px" style="line-height:125%" xml:space="preserve"><tspan x="0" y="0" fill="#000000" font-family="Calibri" font-size="13.25px" font-weight="400"><tspan dx="0" dy="0">A</tspan><tspan dx="0" dy="0"/></tspan></text>
  </g>
  <path d="m-326.35 510.89-1.2373 3.3682-0.33312-0.12162 1.2426-3.3682zm-0.29082 3.3418-1.7238 1.618-0.2591-2.3477z" stroke="#000" stroke-linejoin="bevel" stroke-width=".042301px"/>
  <path d="m-324.75 510.53 0.70854 3.5586-0.34369 0.0687-0.71383-3.5586zm1.507 3.0404-0.62393 2.279-1.4488-1.8665z" stroke="#000" stroke-linejoin="bevel" stroke-width=".042301px"/>
  <g transform="matrix(.26458 0 0 .26458 -421.11 485.89)" clip-path="url(#clipEmfPath29-2)">
   <text transform="translate(344.7 126.94)" fill="#000000" font-family="Calibri" font-size="13.25px" font-weight="400" letter-spacing="0px" word-spacing="0px" style="line-height:125%" xml:space="preserve"><tspan x="0" y="0" fill="#000000" font-family="Calibri" font-size="13.25px" font-weight="400"><tspan dx="0" dy="0">D</tspan><tspan dx="0" dy="0"/></tspan></text>
  </g>
  <g transform="matrix(.26458 0 0 .26458 -421.11 485.89)" clip-path="url(#clipEmfPath30-9)">
   <text transform="translate(363.72 126.94)" fill="#000000" font-family="Calibri" font-size="13.25px" font-weight="400" letter-spacing="0px" word-spacing="0px" style="line-height:125%" xml:space="preserve"><tspan x="0" y="0" fill="#000000" font-family="Calibri" font-size="13.25px" font-weight="400"><tspan dx="0" dy="0">A</tspan><tspan dx="0" dy="0"/></tspan></text>
  </g>
  <path d="m-313.92 510.89-1.2373 3.3682-0.33312-0.12162 1.2426-3.3682zm-0.29082 3.3418-1.7238 1.618-0.25909-2.3477z" stroke="#000" stroke-linejoin="bevel" stroke-width=".042301px"/>
  <path d="m-312.33 510.53 0.70854 3.5586-0.3437 0.0687-0.71382-3.5586zm1.507 3.0404-0.62394 2.279-1.4488-1.8665z" stroke="#000" stroke-linejoin="bevel" stroke-width=".042301px"/>
  <g transform="matrix(.26458 0 0 .26458 -421.11 485.89)" clip-path="url(#clipEmfPath31-87)">
   <text transform="translate(391.7 126.94)" fill="#000000" font-family="Calibri" font-size="13.25px" font-weight="400" letter-spacing="0px" word-spacing="0px" style="line-height:125%" xml:space="preserve"><tspan x="0" y="0" fill="#000000" font-family="Calibri" font-size="13.25px" font-weight="400"><tspan dx="0" dy="0">L</tspan><tspan dx="0" dy="0"/></tspan></text>
  </g>
  <g transform="matrix(.26458 0 0 .26458 -421.11 485.89)" clip-path="url(#clipEmfPath32-7)">
   <text transform="translate(410.57 126.94)" fill="#000000" font-family="Calibri" font-size="13.25px" font-weight="400" letter-spacing="0px" word-spacing="0px" style="line-height:125%" xml:space="preserve"><tspan x="0" y="0" fill="#000000" font-family="Calibri" font-size="13.25px" font-weight="400"><tspan dx="0" dy="0">D</tspan><tspan dx="0" dy="0"/></tspan></text>
  </g>
  <g transform="matrix(.26458 0 0 .26458 -421.11 485.89)" clip-path="url(#clipEmfPath33-5)">
   <text transform="translate(476.59 93.049)" fill="#000000" font-family="Calibri" font-size="13.25px" font-weight="400" letter-spacing="0px" word-spacing="0px" style="line-height:125%" xml:space="preserve"><tspan x="0" y="0" fill="#000000" font-family="Calibri" font-size="13.25px" font-weight="400"><tspan dx="0" dy="0">D</tspan><tspan dx="0" dy="0"/></tspan></text>
  </g>
  <g transform="matrix(.26458 0 0 .26458 -421.11 485.89)" clip-path="url(#clipEmfPath34-12)">
   <text transform="translate(568.52 93.049)" fill="#000000" font-family="Calibri" font-size="13.25px" font-weight="400" letter-spacing="0px" word-spacing="0px" style="line-height:125%" xml:space="preserve"><tspan x="0" y="0" fill="#000000" font-family="Calibri" font-size="13.25px" font-weight="400"><tspan dx="0" dy="0">L</tspan><tspan dx="0" dy="0"/></tspan></text>
  </g>
  <g transform="matrix(.26458 0 0 .26458 -421.11 485.89)" clip-path="url(#clipEmfPath35-5)">
   <text transform="translate(522.48 93.049)" fill="#000000" font-family="Calibri" font-size="13.25px" font-weight="400" letter-spacing="0px" word-spacing="0px" style="line-height:125%" xml:space="preserve"><tspan x="0" y="0" fill="#000000" font-family="Calibri" font-size="13.25px" font-weight="400"><tspan dx="0" dy="0">C</tspan><tspan dx="0" dy="0"/></tspan></text>
  </g>
  <g stroke="#000" stroke-linejoin="bevel" stroke-width=".042301px">
   <path d="m-283.86 502.51-6.398 3.6273-0.17449-0.30668 6.398-3.6273zm-5.6578 4.2195-2.3636 0.12161 1.3219-1.9617z"/>
   <path d="m-280.08 502.67-0.62923 2.5169-0.3384-0.0846 0.62922-2.5222zm0.31197 2.39-1.5387 1.7925-0.5129-2.3054z"/>
   <path d="m-277.77 502.74 5.3722 3.3048-0.18507 0.30139-5.3722-3.3048zm5.5308 2.3688 1.2479 2.0093-2.353-0.20622z"/>
   <path d="m-294.89 510.89-1.2373 3.3682-0.33312-0.12162 1.2426-3.3682zm-0.29082 3.3418-1.7238 1.618-0.25909-2.3477z"/>
   <path d="m-293.29 510.53 0.70854 3.5586-0.34369 0.0687-0.71383-3.5586zm1.507 3.0404-0.62394 2.279-1.4488-1.8665z"/>
  </g>
  <g transform="matrix(.26458 0 0 .26458 -421.11 485.89)" clip-path="url(#clipEmfPath36-2)">
   <text transform="translate(463.64 126.94)" fill="#000000" font-family="Calibri" font-size="13.25px" font-weight="400" letter-spacing="0px" word-spacing="0px" style="line-height:125%" xml:space="preserve"><tspan x="0" y="0" fill="#000000" font-family="Calibri" font-size="13.25px" font-weight="400"><tspan dx="0" dy="0">C</tspan><tspan dx="0" dy="0"/></tspan></text>
  </g>
  <g transform="matrix(.26458 0 0 .26458 -421.11 485.89)" clip-path="url(#clipEmfPath37-3)">
   <text transform="translate(482.51 126.94)" fill="#000000" font-family="Calibri" font-size="13.25px" font-weight="400" letter-spacing="0px" word-spacing="0px" style="line-height:125%" xml:space="preserve"><tspan x="0" y="0" fill="#000000" font-family="Calibri" font-size="13.25px" font-weight="400"><tspan dx="0" dy="0">L</tspan><tspan dx="0" dy="0"/></tspan></text>
  </g>
  <path d="m-282.73 510.89-1.2373 3.3682-0.33311-0.12162 1.2426-3.3682zm-0.29081 3.3418-1.7238 1.618-0.2591-2.3477z" stroke="#000" stroke-linejoin="bevel" stroke-width=".042301px"/>
  <path d="m-281.13 510.53 0.70854 3.5586-0.34369 0.0687-0.71383-3.5586zm1.507 3.0404-0.62393 2.279-1.4488-1.8665z" stroke="#000" stroke-linejoin="bevel" stroke-width=".042301px"/>
  <g transform="matrix(.26458 0 0 .26458 -421.11 485.89)" clip-path="url(#clipEmfPath38)">
   <text transform="translate(509.53 126.94)" fill="#000000" font-family="Calibri" font-size="13.25px" font-weight="400" letter-spacing="0px" word-spacing="0px" style="line-height:125%" xml:space="preserve"><tspan x="0" y="0" fill="#000000" font-family="Calibri" font-size="13.25px" font-weight="400"><tspan dx="0" dy="0">D</tspan><tspan dx="0" dy="0"/></tspan></text>
  </g>
  <g transform="matrix(.26458 0 0 .26458 -421.11 485.89)" clip-path="url(#clipEmfPath39)">
   <text transform="translate(528.55 126.94)" fill="#000000" font-family="Calibri" font-size="13.25px" font-weight="400" letter-spacing="0px" word-spacing="0px" style="line-height:125%" xml:space="preserve"><tspan x="0" y="0" fill="#000000" font-family="Calibri" font-size="13.25px" font-weight="400"><tspan dx="0" dy="0">L</tspan><tspan dx="0" dy="0"/></tspan></text>
  </g>
  <path d="m-270.3 510.89-1.2373 3.3682-0.33312-0.12162 1.2426-3.3682zm-0.29082 3.3418-1.7238 1.618-0.25909-2.3477z" stroke="#000" stroke-linejoin="bevel" stroke-width=".042301px"/>
  <path d="m-268.7 510.53 0.70854 3.5586-0.3437 0.0687-0.71382-3.5586zm1.507 3.0404-0.62394 2.279-1.4488-1.8665z" stroke="#000" stroke-linejoin="bevel" stroke-width=".042301px"/>
  <g transform="matrix(.26458 0 0 .26458 -421.11 485.89)" clip-path="url(#clipEmfPath40)">
   <text transform="translate(556.53 126.94)" fill="#000000" font-family="Calibri" font-size="13.25px" font-weight="400" letter-spacing="0px" word-spacing="0px" style="line-height:125%" xml:space="preserve"><tspan x="0" y="0" fill="#000000" font-family="Calibri" font-size="13.25px" font-weight="400"><tspan dx="0" dy="0">C</tspan><tspan dx="0" dy="0"/></tspan></text>
  </g>
  <g transform="matrix(.26458 0 0 .26458 -421.11 485.89)" clip-path="url(#clipEmfPath41)">
   <text transform="translate(575.56 126.94)" fill="#000000" font-family="Calibri" font-size="13.25px" font-weight="400" letter-spacing="0px" word-spacing="0px" style="line-height:125%" xml:space="preserve"><tspan x="0" y="0" fill="#000000" font-family="Calibri" font-size="13.25px" font-weight="400"><tspan dx="0" dy="0">D</tspan><tspan dx="0" dy="0"/></tspan></text>
  </g>
  <g transform="matrix(.26458 0 0 .26458 -421.11 485.89)" clip-path="url(#clipEmfPath42)">
   <text transform="translate(3.9969 157.64)" fill="#000000" font-family="Calibri" font-size="13.25px" font-weight="400" letter-spacing="0px" word-spacing="0px" style="line-height:125%" xml:space="preserve"><tspan x="0" y="0" fill="#000000" font-family="Calibri" font-size="13.25px" font-weight="400"><tspan dx="0" dy="0">A</tspan><tspan dx="0" dy="0"/></tspan></text>
  </g>
  <path d="m-418.61 519.11v3.2598h-0.35162v-3.2598zm0.88304 2.9082-1.0575 2.115-1.0575-2.115z" stroke="#000" stroke-linejoin="bevel" stroke-width=".042301px"/>
  <g transform="matrix(.26458 0 0 .26458 -421.11 485.89)" clip-path="url(#clipEmfPath43)">
   <text transform="translate(21.903 157.64)" fill="#000000" font-family="Calibri" font-size="13.25px" font-weight="400" letter-spacing="0px" word-spacing="0px" style="line-height:125%" xml:space="preserve"><tspan x="0" y="0" fill="#000000" font-family="Calibri" font-size="13.25px" font-weight="400"><tspan dx="0" dy="0">C</tspan><tspan dx="0" dy="0"/></tspan></text>
  </g>
  <path d="m-413.85 519.11v3.2598h-0.35162v-3.2598zm0.88304 2.9082-1.0575 2.115-1.0575-2.115z" stroke="#000" stroke-linejoin="bevel" stroke-width=".042301px"/>
  <g transform="matrix(.26458 0 0 .26458 -421.11 485.89)" clip-path="url(#clipEmfPath44)">
   <text transform="translate(48.603 157.64)" fill="#000000" font-family="Calibri" font-size="13.25px" font-weight="400" letter-spacing="0px" word-spacing="0px" style="line-height:125%" xml:space="preserve"><tspan x="0" y="0" fill="#000000" font-family="Calibri" font-size="13.25px" font-weight="400"><tspan dx="0" dy="0">A</tspan><tspan dx="0" dy="0"/></tspan></text>
  </g>
  <path d="m-406.8 519.11v3.2598h-0.35162v-3.2598zm0.88039 2.9082-1.0575 2.115-1.0575-2.115z" stroke="#000" stroke-linejoin="bevel" stroke-width=".042301px"/>
  <g transform="matrix(.26458 0 0 .26458 -421.11 485.89)" clip-path="url(#clipEmfPath45)">
   <text transform="translate(68.587 157.64)" fill="#000000" font-family="Calibri" font-size="13.25px" font-weight="400" letter-spacing="0px" word-spacing="0px" style="line-height:125%" xml:space="preserve"><tspan x="0" y="0" fill="#000000" font-family="Calibri" font-size="13.25px" font-weight="400"><tspan dx="0" dy="0">D</tspan><tspan dx="0" dy="0"/></tspan></text>
  </g>
  <path d="m-401.51 519.11v3.2598h-0.35162v-3.2598zm0.88039 2.9082-1.0575 2.115-1.0575-2.115z" stroke="#000" stroke-linejoin="bevel" stroke-width=".042301px"/>
  <g transform="matrix(.26458 0 0 .26458 -421.11 485.89)" clip-path="url(#clipEmfPath46)">
   <text transform="translate(95.926 157.64)" fill="#000000" font-family="Calibri" font-size="13.25px" font-weight="400" letter-spacing="0px" word-spacing="0px" style="line-height:125%" xml:space="preserve"><tspan x="0" y="0" fill="#000000" font-family="Calibri" font-size="13.25px" font-weight="400"><tspan dx="0" dy="0">D</tspan><tspan dx="0" dy="0"/></tspan></text>
  </g>
  <path d="m-394.28 519.11v3.2598h-0.35162v-3.2598zm0.88304 2.9082-1.0575 2.115-1.0575-2.115z" stroke="#000" stroke-linejoin="bevel" stroke-width=".042301px"/>
  <g transform="matrix(.26458 0 0 .26458 -421.11 485.89)" clip-path="url(#clipEmfPath47)">
   <text transform="translate(115.91 157.64)" fill="#000000" font-family="Calibri" font-size="13.25px" font-weight="400" letter-spacing="0px" word-spacing="0px" style="line-height:125%" xml:space="preserve"><tspan x="0" y="0" fill="#000000" font-family="Calibri" font-size="13.25px" font-weight="400"><tspan dx="0" dy="0">C</tspan><tspan dx="0" dy="0"/></tspan></text>
  </g>
  <path d="m-389 519.11v3.2598h-0.35163v-3.2598zm0.88303 2.9082-1.0575 2.115-1.0575-2.115z" stroke="#000" stroke-linejoin="bevel" stroke-width=".042301px"/>
  <g transform="matrix(.26458 0 0 .26458 -421.11 485.89)" clip-path="url(#clipEmfPath48)">
   <text transform="translate(145.81 157.64)" fill="#000000" font-family="Calibri" font-size="13.25px" font-weight="400" letter-spacing="0px" word-spacing="0px" style="line-height:125%" xml:space="preserve"><tspan x="0" y="0" fill="#000000" font-family="Calibri" font-size="13.25px" font-weight="400"><tspan dx="0" dy="0">A</tspan><tspan dx="0" dy="0"/></tspan></text>
  </g>
  <path d="m-381.06 519.11v3.2598h-0.35163v-3.2598zm0.88303 2.9082-1.0575 2.115-1.0575-2.115z" stroke="#000" stroke-linejoin="bevel" stroke-width=".042301px"/>
  <g transform="matrix(.26458 0 0 .26458 -421.11 485.89)" clip-path="url(#clipEmfPath49)">
   <text transform="translate(165.79 157.64)" fill="#000000" font-family="Calibri" font-size="13.25px" font-weight="400" letter-spacing="0px" word-spacing="0px" style="line-height:125%" xml:space="preserve"><tspan x="0" y="0" fill="#000000" font-family="Calibri" font-size="13.25px" font-weight="400"><tspan dx="0" dy="0">C</tspan><tspan dx="0" dy="0"/></tspan></text>
  </g>
  <path d="m-375.78 519.11v3.2598h-0.35163v-3.2598zm0.88303 2.9082-1.0575 2.115-1.0575-2.115z" stroke="#000" stroke-linejoin="bevel" stroke-width=".042301px"/>
  <g transform="matrix(.26458 0 0 .26458 -421.11 485.89)" clip-path="url(#clipEmfPath50)">
   <text transform="translate(191.05 157.64)" fill="#000000" font-family="Calibri" font-size="13.25px" font-weight="400" letter-spacing="0px" word-spacing="0px" style="line-height:125%" xml:space="preserve"><tspan x="0" y="0" fill="#000000" font-family="Calibri" font-size="13.25px" font-weight="400"><tspan dx="0" dy="0">A</tspan><tspan dx="0" dy="0"/></tspan></text>
  </g>
  <path d="m-369.08 519.11v3.2598h-0.35427v-3.2598zm0.88039 2.9082-1.0575 2.115-1.0575-2.115z" stroke="#000" stroke-linejoin="bevel" stroke-width=".042301px"/>
  <g transform="matrix(.26458 0 0 .26458 -421.11 485.89)" clip-path="url(#clipEmfPath51)">
   <text transform="translate(211.04 157.64)" fill="#000000" font-family="Calibri" font-size="13.25px" font-weight="400" letter-spacing="0px" word-spacing="0px" style="line-height:125%" xml:space="preserve"><tspan x="0" y="0" fill="#000000" font-family="Calibri" font-size="13.25px" font-weight="400"><tspan dx="0" dy="0">L</tspan><tspan dx="0" dy="0"/></tspan></text>
  </g>
  <path d="m-363.79 519.11v3.2598h-0.35426v-3.2598zm0.88039 2.9082-1.0575 2.115-1.0575-2.115z" stroke="#000" stroke-linejoin="bevel" stroke-width=".042301px"/>
  <g transform="matrix(.26458 0 0 .26458 -421.11 485.89)" clip-path="url(#clipEmfPath52)">
   <text transform="translate(237.74 157.64)" fill="#000000" font-family="Calibri" font-size="13.25px" font-weight="400" letter-spacing="0px" word-spacing="0px" style="line-height:125%" xml:space="preserve"><tspan x="0" y="0" fill="#000000" font-family="Calibri" font-size="13.25px" font-weight="400"><tspan dx="0" dy="0">L</tspan><tspan dx="0" dy="0"/></tspan></text>
  </g>
  <path d="m-356.74 519.11v3.2598h-0.35163v-3.2598zm0.88303 2.9082-1.0575 2.115-1.0575-2.115z" stroke="#000" stroke-linejoin="bevel" stroke-width=".042301px"/>
  <g transform="matrix(.26458 0 0 .26458 -421.11 485.89)" clip-path="url(#clipEmfPath53)">
   <text transform="translate(257.72 157.64)" fill="#000000" font-family="Calibri" font-size="13.25px" font-weight="400" letter-spacing="0px" word-spacing="0px" style="line-height:125%" xml:space="preserve"><tspan x="0" y="0" fill="#000000" font-family="Calibri" font-size="13.25px" font-weight="400"><tspan dx="0" dy="0">C</tspan><tspan dx="0" dy="0"/></tspan></text>
  </g>
  <path d="m-351.45 519.11v3.2598h-0.35163v-3.2598zm0.88303 2.9082-1.0575 2.115-1.0575-2.115z" stroke="#000" stroke-linejoin="bevel" stroke-width=".042301px"/>
  <g transform="matrix(.26458 0 0 .26458 -421.11 485.89)" clip-path="url(#clipEmfPath54)">
   <text transform="translate(297.69 159.56)" fill="#000000" font-family="Calibri" font-size="13.25px" font-weight="400" letter-spacing="0px" word-spacing="0px" style="line-height:125%" xml:space="preserve"><tspan x="0" y="0" fill="#000000" font-family="Calibri" font-size="13.25px" font-weight="400"><tspan dx="0" dy="0">A</tspan><tspan dx="0" dy="0"/></tspan></text>
  </g>
  <path d="m-340.88 519.64v3.2598h-0.35163v-3.2598zm0.88303 2.9082-1.0575 2.115-1.0575-2.115z" stroke="#000" stroke-linejoin="bevel" stroke-width=".042301px"/>
  <g transform="matrix(.26458 0 0 .26458 -421.11 485.89)" clip-path="url(#clipEmfPath55)">
   <text transform="translate(315.76 159.56)" fill="#000000" font-family="Calibri" font-size="13.25px" font-weight="400" letter-spacing="0px" word-spacing="0px" style="line-height:125%" xml:space="preserve"><tspan x="0" y="0" fill="#000000" font-family="Calibri" font-size="13.25px" font-weight="400"><tspan dx="0" dy="0">L</tspan><tspan dx="0" dy="0"/></tspan></text>
  </g>
  <path d="m-336.12 519.64v3.2598h-0.35162v-3.2598zm0.88303 2.9082-1.0575 2.115-1.0575-2.115z" stroke="#000" stroke-linejoin="bevel" stroke-width=".042301px"/>
  <g transform="matrix(.26458 0 0 .26458 -421.11 485.89)" clip-path="url(#clipEmfPath56)">
   <text transform="translate(342.3 159.56)" fill="#000000" font-family="Calibri" font-size="13.25px" font-weight="400" letter-spacing="0px" word-spacing="0px" style="line-height:125%" xml:space="preserve"><tspan x="0" y="0" fill="#000000" font-family="Calibri" font-size="13.25px" font-weight="400"><tspan dx="0" dy="0">A</tspan><tspan dx="0" dy="0"/></tspan></text>
  </g>
  <path d="m-329.07 519.64v3.2624h-0.35427v-3.2624zm0.87775 2.9082-1.0575 2.115-1.0575-2.115z" stroke="#000" stroke-linejoin="bevel" stroke-width=".042301px"/>
  <g transform="matrix(.26458 0 0 .26458 -421.11 485.89)" clip-path="url(#clipEmfPath57)">
   <text transform="translate(362.28 159.56)" fill="#000000" font-family="Calibri" font-size="13.25px" font-weight="400" letter-spacing="0px" word-spacing="0px" style="line-height:125%" xml:space="preserve"><tspan x="0" y="0" fill="#000000" font-family="Calibri" font-size="13.25px" font-weight="400"><tspan dx="0" dy="0">D</tspan><tspan dx="0" dy="0"/></tspan></text>
  </g>
  <path d="m-323.78 519.64v3.2624h-0.35427v-3.2624zm0.87775 2.9082-1.0575 2.115-1.0575-2.115z" stroke="#000" stroke-linejoin="bevel" stroke-width=".042301px"/>
  <g transform="matrix(.26458 0 0 .26458 -421.11 485.89)" clip-path="url(#clipEmfPath58)">
   <text transform="translate(389.62 159.56)" fill="#000000" font-family="Calibri" font-size="13.25px" font-weight="400" letter-spacing="0px" word-spacing="0px" style="line-height:125%" xml:space="preserve"><tspan x="0" y="0" fill="#000000" font-family="Calibri" font-size="13.25px" font-weight="400"><tspan dx="0" dy="0">D</tspan><tspan dx="0" dy="0"/></tspan></text>
  </g>
  <path d="m-316.56 519.64v3.2624h-0.34898v-3.2624zm0.88303 2.9082-1.0575 2.115-1.0575-2.115z" stroke="#000" stroke-linejoin="bevel" stroke-width=".042301px"/>
  <g transform="matrix(.26458 0 0 .26458 -421.11 485.89)" clip-path="url(#clipEmfPath59)">
   <text transform="translate(409.61 159.56)" fill="#000000" font-family="Calibri" font-size="13.25px" font-weight="400" letter-spacing="0px" word-spacing="0px" style="line-height:125%" xml:space="preserve"><tspan x="0" y="0" fill="#000000" font-family="Calibri" font-size="13.25px" font-weight="400"><tspan dx="0" dy="0">L</tspan><tspan dx="0" dy="0"/></tspan></text>
  </g>
  <path d="m-311.27 519.64v3.2624h-0.34898v-3.2624zm0.88304 2.9082-1.0575 2.115-1.0575-2.115z" stroke="#000" stroke-linejoin="bevel" stroke-width=".042301px"/>
  <g transform="matrix(.26458 0 0 .26458 -421.11 485.89)" clip-path="url(#clipEmfPath60)">
   <text transform="translate(462.84 158.92)" fill="#000000" font-family="Calibri" font-size="13.25px" font-weight="400" letter-spacing="0px" word-spacing="0px" style="line-height:125%" xml:space="preserve"><tspan x="0" y="0" fill="#000000" font-family="Calibri" font-size="13.25px" font-weight="400"><tspan dx="0" dy="0">L</tspan><tspan dx="0" dy="0"/></tspan></text>
  </g>
  <path d="m-297.17 519.46v3.2572h-0.35427v-3.2572zm0.88303 2.9082-1.0575 2.115-1.0575-2.115z" stroke="#000" stroke-linejoin="bevel" stroke-width=".042301px"/>
  <g transform="matrix(.26458 0 0 .26458 -421.11 485.89)" clip-path="url(#clipEmfPath61)">
   <text transform="translate(480.91 158.92)" fill="#000000" font-family="Calibri" font-size="13.25px" font-weight="400" letter-spacing="0px" word-spacing="0px" style="line-height:125%" xml:space="preserve"><tspan x="0" y="0" fill="#000000" font-family="Calibri" font-size="13.25px" font-weight="400"><tspan dx="0" dy="0">C</tspan><tspan dx="0" dy="0"/></tspan></text>
  </g>
  <path d="m-292.41 519.46v3.2572h-0.35427v-3.2572zm0.88303 2.9082-1.0575 2.115-1.0575-2.115z" stroke="#000" stroke-linejoin="bevel" stroke-width=".042301px"/>
  <g transform="matrix(.26458 0 0 .26458 -421.11 485.89)" clip-path="url(#clipEmfPath62)">
   <text transform="translate(507.61 158.92)" fill="#000000" font-family="Calibri" font-size="13.25px" font-weight="400" letter-spacing="0px" word-spacing="0px" style="line-height:125%" xml:space="preserve"><tspan x="0" y="0" fill="#000000" font-family="Calibri" font-size="13.25px" font-weight="400"><tspan dx="0" dy="0">L</tspan><tspan dx="0" dy="0"/></tspan></text>
  </g>
  <path d="m-285.36 519.46v3.2572h-0.34899v-3.2572zm0.88303 2.9082-1.0575 2.115-1.0575-2.115z" stroke="#000" stroke-linejoin="bevel" stroke-width=".042301px"/>
  <g transform="matrix(.26458 0 0 .26458 -421.11 485.89)" clip-path="url(#clipEmfPath63)">
   <text transform="translate(527.6 158.92)" fill="#000000" font-family="Calibri" font-size="13.25px" font-weight="400" letter-spacing="0px" word-spacing="0px" style="line-height:125%" xml:space="preserve"><tspan x="0" y="0" fill="#000000" font-family="Calibri" font-size="13.25px" font-weight="400"><tspan dx="0" dy="0">D</tspan><tspan dx="0" dy="0"/></tspan></text>
  </g>
  <path d="m-280.07 519.46v3.2572h-0.34899v-3.2572zm0.88303 2.9082-1.0575 2.115-1.0575-2.115z" stroke="#000" stroke-linejoin="bevel" stroke-width=".042301px"/>
  <g transform="matrix(.26458 0 0 .26458 -421.11 485.89)" clip-path="url(#clipEmfPath64)">
   <text transform="translate(554.77 158.92)" fill="#000000" font-family="Calibri" font-size="13.25px" font-weight="400" letter-spacing="0px" word-spacing="0px" style="line-height:125%" xml:space="preserve"><tspan x="0" y="0" fill="#000000" font-family="Calibri" font-size="13.25px" font-weight="400"><tspan dx="0" dy="0">D</tspan><tspan dx="0" dy="0"/></tspan></text>
  </g>
  <path d="m-272.84 519.46v3.2572h-0.35427v-3.2572zm0.88303 2.9082-1.0575 2.115-1.0575-2.115z" stroke="#000" stroke-linejoin="bevel" stroke-width=".042301px"/>
  <g transform="matrix(.26458 0 0 .26458 -421.11 485.89)" clip-path="url(#clipEmfPath65)">
   <text transform="translate(574.76 158.92)" fill="#000000" font-family="Calibri" font-size="13.25px" font-weight="400" letter-spacing="0px" word-spacing="0px" style="line-height:125%" xml:space="preserve"><tspan x="0" y="0" fill="#000000" font-family="Calibri" font-size="13.25px" font-weight="400"><tspan dx="0" dy="0">C</tspan><tspan dx="0" dy="0"/></tspan></text>
  </g>
  <path d="m-267.56 519.46v3.2572h-0.35427v-3.2572zm0.88303 2.9082-1.0575 2.115-1.0575-2.115z" stroke="#000" stroke-linejoin="bevel" stroke-width=".042301px"/>
 </g>
</svg>
