<?xml version="1.0" encoding="UTF-8"?>
<!-- Created with Inkscape (http://www.inkscape.org/) -->
<svg width="266.72" height="137.18" version="1.1" viewBox="0 0 266.7197 137.17878" xmlns="http://www.w3.org/2000/svg" xmlns:cc="http://creativecommons.org/ns#" xmlns:dc="http://purl.org/dc/elements/1.1/" xmlns:rdf="http://www.w3.org/1999/02/22-rdf-syntax-ns#">
 <defs>
  <clipPath id="clipEmfPath1-97">
   <path d="m110.48 0.31975h101.84v19.025h-101.84z"/>
  </clipPath>
  <clipPath id="clipEmfPath2-73">
   <path d="m0.47963 42.687h22.063v20.944h-22.063z"/>
  </clipPath>
  <clipPath id="clipEmfPath3-73">
   <path d="m39.49 124.7h59.954v19.025h-59.954z"/>
  </clipPath>
  <clipPath id="clipEmfPath4-37">
   <path d="m233.42 36.772h41.568v20.944h-41.568z"/>
  </clipPath>
  <clipPath id="clipEmfPath5-42">
   <path d="m175.39 124.7h88.892v23.022h-88.892z"/>
  </clipPath>
  <clipPath id="clipEmfPath6-99">
   <path d="m169.47 69.547h28.938v15.988h-28.938z"/>
  </clipPath>
  <clipPath id="clipEmfPath7-8">
   <path d="m65.55 52.44h28.938v15.988h-28.938z"/>
  </clipPath>
  <clipPath id="clipEmfPath8-10">
   <path d="m160.36 28.458h29.098v15.988h-29.098z"/>
  </clipPath>
  <clipPath id="clipEmfPath9-236">
   <path d="m183.38 94.488h28.938v15.988h-28.938z"/>
  </clipPath>
  <clipPath id="clipEmfPath10-06">
   <path d="m100.4 111.43h25.101v15.988h-25.101z"/>
  </clipPath>
  <clipPath id="clipEmfPath11-840">
   <path d="m22.543 82.497h28.938v15.988h-28.938z"/>
  </clipPath>
  <clipPath id="clipEmfPath12-3">
   <path d="m65.55 32.455h28.938v15.988h-28.938z"/>
  </clipPath>
  <clipPath id="clipEmfPath13-25">
   <path d="m58.515 90.491h28.938v15.988h-28.938z"/>
  </clipPath>
  <clipPath id="clipEmfPath14-49">
   <path d="m133.5 63.471h28.938v15.988h-28.938z"/>
  </clipPath>
  <clipPath id="clipEmfPath15-6">
   <path d="m92.409 77.541h29.098v15.988h-29.098z"/>
  </clipPath>
 </defs>
 <metadata>
  <rdf:RDF>
   <cc:Work rdf:about="">
    <dc:format>image/svg+xml</dc:format>
    <dc:type rdf:resource="http://purl.org/dc/dcmitype/StillImage"/>
    <dc:title/>
   </cc:Work>
  </rdf:RDF>
 </metadata>
 <g transform="matrix(3.7795 0 0 3.7795 1384.2 -2315.4)">
  <text x="-366.68018" y="615.21661" fill="#000000" font-family="Calibri" font-size="3.8861px" font-weight="400" letter-spacing="0px" stroke-width=".26458" word-spacing="0px" style="line-height:125%" xml:space="preserve"><tspan x="0" y="0" stroke-width=".26458"><tspan dx="0" dy="0" fill="#000000" font-family="Calibri" font-size="3.8861px" font-weight="400" stroke-width=".26458"/></tspan></text>
  <path d="m-305.49 627.07h-53.934" fill="none" stroke="#000" stroke-linejoin="round" stroke-width=".26438px"/>
  <path d="m-329.55 618.1 24.059 9.2533" fill="none" stroke="#f00" stroke-linejoin="round" stroke-width=".79314px"/>
  <g transform="matrix(.26458 0 0 .26458 -366.68 611.58)" clip-path="url(#clipEmfPath1-97)">
   <text transform="translate(110.48 14.069)" fill="#000000" font-family="Calibri" font-size="14.688px" font-weight="400" letter-spacing="0px" word-spacing="0px" style="line-height:125%" xml:space="preserve"><tspan x="0" y="0" fill="#000000" font-family="Calibri" font-size="14.688px" font-weight="400"><tspan dx="0" dy="0">Home (Seattle)</tspan><tspan dx="0" dy="0"/></tspan></text>
  </g>
  <g transform="matrix(.26458 0 0 .26458 -366.68 611.58)" clip-path="url(#clipEmfPath2-73)">
   <text transform="translate(.47963 56.437)" fill="#000000" font-family="Calibri" font-size="14.688px" font-weight="400" letter-spacing="0px" word-spacing="0px" style="line-height:125%" xml:space="preserve"><tspan x="0" y="0" fill="#000000" font-family="Calibri" font-size="14.688px" font-weight="400"><tspan dx="0" dy="0">LA</tspan><tspan dx="0" dy="0"/></tspan></text>
  </g>
  <g transform="matrix(.26458 0 0 .26458 -366.68 611.58)" clip-path="url(#clipEmfPath3-73)">
   <text transform="translate(39.49 138.45)" fill="#000000" font-family="Calibri" font-size="14.688px" font-weight="400" letter-spacing="0px" word-spacing="0px" style="line-height:125%" xml:space="preserve"><tspan x="0" y="0" fill="#000000" font-family="Calibri" font-size="14.688px" font-weight="400"><tspan dx="0" dy="0">Chicago</tspan><tspan dx="0" dy="0"/></tspan></text>
  </g>
  <g transform="matrix(.26458 0 0 .26458 -366.68 611.58)" clip-path="url(#clipEmfPath4-37)">
   <text transform="translate(233.42 50.521)" fill="#000000" font-family="Calibri" font-size="14.688px" font-weight="400" letter-spacing="0px" word-spacing="0px" style="line-height:125%" xml:space="preserve"><tspan x="0" y="0" fill="#000000" font-family="Calibri" font-size="14.688px" font-weight="400"><tspan dx="0" dy="0">Dallas</tspan><tspan dx="0" dy="0"/></tspan></text>
  </g>
  <g transform="matrix(.26458 0 0 .26458 -366.68 611.58)" clip-path="url(#clipEmfPath5-42)">
   <text transform="translate(175.39 138.45)" fill="#000000" font-family="Calibri" font-size="14.688px" font-weight="400" letter-spacing="0px" word-spacing="0px" style="line-height:125%" xml:space="preserve"><tspan x="0" y="0" fill="#000000" font-family="Calibri" font-size="14.688px" font-weight="400"><tspan dx="0" dy="0">Atlanta</tspan><tspan dx="0" dy="0"/></tspan></text>
  </g>
  <g fill="none" stroke-linejoin="round">
   <path d="m-305.75 627.33-47.588 15.863" stroke="#000" stroke-width=".26438px"/>
   <path d="m-329.81 617.57-22.737 25.381" stroke="#000" stroke-width=".26438px"/>
   <g stroke="#f00" stroke-width=".79314px">
    <path d="m-321.35 642.69h-31.461"/>
    <path d="m-306.02 628.14-15.07 15.07"/>
    <path d="m-352.55 642.69-5.8164-15.598"/>
   </g>
   <path d="m-329.81 617.83 8.7246 26.702" stroke="#000" stroke-width=".26438px"/>
   <path d="m-330.34 618.1-28.289 8.4602" stroke="#f00" stroke-width=".79314px"/>
   <path d="m-358.89 627.09 38.071 15.863" stroke="#000" stroke-width=".26438px"/>
  </g>
  <path d="m-329.87 616.41c-0.69532 0-1.2584 0.56313-1.2584 1.2584 0 0.69797 0.56313 1.2611 1.2584 1.2611 0.69796 0 1.2611-0.56313 1.2611-1.2611 0-0.69532-0.56313-1.2584-1.2611-1.2584z" fill="#fff" fill-rule="evenodd"/>
  <path d="m-329.87 616.41c-0.69532 0-1.2584 0.56313-1.2584 1.2584 0 0.69797 0.56313 1.2611 1.2584 1.2611 0.69796 0 1.2611-0.56313 1.2611-1.2611 0-0.69532-0.56313-1.2584-1.2611-1.2584" fill="none" stroke="#000" stroke-linecap="round" stroke-linejoin="round" stroke-width=".26438px"/>
  <path d="m-352.35 641.63c-0.69532 0-1.2584 0.56313-1.2584 1.2584 0 0.69796 0.56313 1.2611 1.2584 1.2611 0.69797 0 1.2611-0.56313 1.2611-1.2611 0-0.69532-0.56313-1.2584-1.2611-1.2584z" fill="#fff" fill-rule="evenodd"/>
  <path d="m-352.35 641.63c-0.69532 0-1.2584 0.56313-1.2584 1.2584 0 0.69796 0.56313 1.2611 1.2584 1.2611 0.69797 0 1.2611-0.56313 1.2611-1.2611 0-0.69532-0.56313-1.2584-1.2611-1.2584" fill="none" stroke="#000" stroke-linecap="round" stroke-linejoin="round" stroke-width=".26438px"/>
  <path d="m-321.15 641.91c-0.69532 0-1.2585 0.56577-1.2585 1.2611 0 0.69533 0.56314 1.2611 1.2585 1.2611 0.69796 0 1.2611-0.56577 1.2611-1.2611 0-0.69532-0.56313-1.2611-1.2611-1.2611z" fill="#fff" fill-rule="evenodd"/>
  <path d="m-321.15 641.91c-0.69532 0-1.2585 0.56577-1.2585 1.2611 0 0.69533 0.56314 1.2611 1.2585 1.2611 0.69796 0 1.2611-0.56577 1.2611-1.2611 0-0.69532-0.56313-1.2611-1.2611-1.2611" fill="none" stroke="#000" stroke-linecap="round" stroke-linejoin="round" stroke-width=".26438px"/>
  <path d="m-358.69 626.03c-0.69532 0-1.2584 0.56313-1.2584 1.2585 0 0.69796 0.56313 1.2611 1.2584 1.2611 0.69797 0 1.2611-0.56313 1.2611-1.2611 0-0.69533-0.56313-1.2585-1.2611-1.2585z" fill="#fff" fill-rule="evenodd"/>
  <path d="m-358.69 626.03c-0.69532 0-1.2584 0.56313-1.2584 1.2585 0 0.69796 0.56313 1.2611 1.2584 1.2611 0.69797 0 1.2611-0.56313 1.2611-1.2611 0-0.69533-0.56313-1.2585-1.2611-1.2585" fill="none" stroke="#000" stroke-linecap="round" stroke-linejoin="round" stroke-width=".26438px"/>
  <path d="m-305.55 626.03c-0.69532 0-1.2584 0.56313-1.2584 1.2585 0 0.69796 0.56313 1.2611 1.2584 1.2611 0.69796 0 1.2611-0.56313 1.2611-1.2611 0-0.69533-0.56313-1.2585-1.2611-1.2585z" fill="#fff" fill-rule="evenodd"/>
  <path d="m-305.55 626.03c-0.69532 0-1.2584 0.56313-1.2584 1.2585 0 0.69796 0.56313 1.2611 1.2584 1.2611 0.69796 0 1.2611-0.56313 1.2611-1.2611 0-0.69533-0.56313-1.2585-1.2611-1.2585" fill="none" stroke="#000" stroke-linecap="round" stroke-linejoin="round" stroke-width=".26438px"/>
  <path d="m-321.88 629.94v4.2301h7.667v-4.2301z" fill="#fff" fill-rule="evenodd"/>
  <g transform="matrix(.26458 0 0 .26458 -366.68 611.58)" clip-path="url(#clipEmfPath6-99)">
   <text transform="translate(171.39 82.177)" fill="#000000" font-family="Calibri" font-size="13.25px" font-weight="400" letter-spacing="0px" word-spacing="0px" style="line-height:125%" xml:space="preserve"><tspan x="0" y="0" fill="#000000" font-family="Calibri" font-size="13.25px" font-weight="400"><tspan dx="0" dy="0">$165</tspan><tspan dx="0" dy="0"/></tspan></text>
  </g>
  <path d="m-349.37 625.45v4.2301h7.667v-4.2301z" fill="#fff" fill-rule="evenodd"/>
  <g transform="matrix(.26458 0 0 .26458 -366.68 611.58)" clip-path="url(#clipEmfPath7-8)">
   <text transform="translate(67.468 65.07)" fill="#000000" font-family="Calibri" font-size="13.25px" font-weight="400" letter-spacing="0px" word-spacing="0px" style="line-height:125%" xml:space="preserve"><tspan x="0" y="0" fill="#000000" font-family="Calibri" font-size="13.25px" font-weight="400"><tspan dx="0" dy="0">$150</tspan><tspan dx="0" dy="0"/></tspan></text>
  </g>
  <path d="m-324.26 619.1v4.2301h7.667v-4.2301z" fill="#fff" fill-rule="evenodd"/>
  <g transform="matrix(.26458 0 0 .26458 -366.68 611.58)" clip-path="url(#clipEmfPath8-10)">
   <text transform="translate(162.28 41.088)" fill="#000000" font-family="Calibri" font-size="13.25px" font-weight="400" letter-spacing="0px" word-spacing="0px" style="line-height:125%" xml:space="preserve"><tspan x="0" y="0" fill="#000000" font-family="Calibri" font-size="13.25px" font-weight="400"><tspan dx="0" dy="0">$120</tspan><tspan dx="0" dy="0"/></tspan></text>
  </g>
  <path d="m-318.18 636.55v4.2301h7.667v-4.2301z" fill="#fff" fill-rule="evenodd"/>
  <g transform="matrix(.26458 0 0 .26458 -366.68 611.58)" clip-path="url(#clipEmfPath9-236)">
   <text transform="translate(185.3 107.12)" fill="#000000" font-family="Calibri" font-size="13.25px" font-weight="400" letter-spacing="0px" word-spacing="0px" style="line-height:125%" xml:space="preserve"><tspan x="0" y="0" fill="#000000" font-family="Calibri" font-size="13.25px" font-weight="400"><tspan dx="0" dy="0">$85</tspan><tspan dx="0" dy="0"/></tspan></text>
  </g>
  <path d="m-340.12 641.05v4.2301h6.6095v-4.2301z" fill="#fff" fill-rule="evenodd"/>
  <g transform="matrix(.26458 0 0 .26458 -366.68 611.58)" clip-path="url(#clipEmfPath10-06)">
   <text transform="translate(102.32 124.06)" fill="#000000" font-family="Calibri" font-size="13.25px" font-weight="400" letter-spacing="0px" word-spacing="0px" style="line-height:125%" xml:space="preserve"><tspan x="0" y="0" fill="#000000" font-family="Calibri" font-size="13.25px" font-weight="400"><tspan dx="0" dy="0">$75</tspan><tspan dx="0" dy="0"/></tspan></text>
  </g>
  <path d="m-360.74 633.38v4.2301h7.667v-4.2301z" fill="#fff" fill-rule="evenodd"/>
  <g transform="matrix(.26458 0 0 .26458 -366.68 611.58)" clip-path="url(#clipEmfPath11-840)">
   <text transform="translate(24.461 95.127)" fill="#000000" font-family="Calibri" font-size="13.25px" font-weight="400" letter-spacing="0px" word-spacing="0px" style="line-height:125%" xml:space="preserve"><tspan x="0" y="0" fill="#000000" font-family="Calibri" font-size="13.25px" font-weight="400"><tspan dx="0" dy="0">$100</tspan><tspan dx="0" dy="0"/></tspan></text>
  </g>
  <path d="m-349.37 620.16v4.2301h7.667v-4.2301z" fill="#fff" fill-rule="evenodd"/>
  <g transform="matrix(.26458 0 0 .26458 -366.68 611.58)" clip-path="url(#clipEmfPath12-3)">
   <text transform="translate(67.468 45.085)" fill="#000000" font-family="Calibri" font-size="13.25px" font-weight="400" letter-spacing="0px" word-spacing="0px" style="line-height:125%" xml:space="preserve"><tspan x="0" y="0" fill="#000000" font-family="Calibri" font-size="13.25px" font-weight="400"><tspan dx="0" dy="0">$70</tspan><tspan dx="0" dy="0"/></tspan></text>
  </g>
  <path d="m-351.22 635.49v4.2301h7.667v-4.2301z" fill="#fff" fill-rule="evenodd"/>
  <g transform="matrix(.26458 0 0 .26458 -366.68 611.58)" clip-path="url(#clipEmfPath13-25)">
   <text transform="translate(60.434 103.12)" fill="#000000" font-family="Calibri" font-size="13.25px" font-weight="400" letter-spacing="0px" word-spacing="0px" style="line-height:125%" xml:space="preserve"><tspan x="0" y="0" fill="#000000" font-family="Calibri" font-size="13.25px" font-weight="400"><tspan dx="0" dy="0">$145</tspan><tspan dx="0" dy="0"/></tspan></text>
  </g>
  <path d="m-331.4 628.36v4.2301h7.667v-4.2301z" fill="#fff" fill-rule="evenodd"/>
  <g transform="matrix(.26458 0 0 .26458 -366.68 611.58)" clip-path="url(#clipEmfPath14-49)">
   <text transform="translate(135.42 76.102)" fill="#000000" font-family="Calibri" font-size="13.25px" font-weight="400" letter-spacing="0px" word-spacing="0px" style="line-height:125%" xml:space="preserve"><tspan x="0" y="0" fill="#000000" font-family="Calibri" font-size="13.25px" font-weight="400"><tspan dx="0" dy="0">$140</tspan><tspan dx="0" dy="0"/></tspan></text>
  </g>
  <path d="m-342.24 632.06v4.2301h7.667v-4.2301z" fill="#fff" fill-rule="evenodd"/>
  <g transform="matrix(.26458 0 0 .26458 -366.68 611.58)" clip-path="url(#clipEmfPath15-6)">
   <text transform="translate(94.328 90.171)" fill="#000000" font-family="Calibri" font-size="13.25px" font-weight="400" letter-spacing="0px" word-spacing="0px" style="line-height:125%" xml:space="preserve"><tspan x="0" y="0" fill="#000000" font-family="Calibri" font-size="13.25px" font-weight="400"><tspan dx="0" dy="0">$170</tspan><tspan dx="0" dy="0"/></tspan></text>
  </g>
 </g>
</svg>
