<?xml version="1.0" encoding="UTF-8"?>
<!-- Created with Inkscape (http://www.inkscape.org/) -->
<svg width="104.04" height="99.434" version="1.1" viewBox="0 0 104.04124 99.433989" xmlns="http://www.w3.org/2000/svg" xmlns:cc="http://creativecommons.org/ns#" xmlns:dc="http://purl.org/dc/elements/1.1/" xmlns:rdf="http://www.w3.org/1999/02/22-rdf-syntax-ns#">
 <defs>
  <clipPath id="clipEmfPath1-77">
   <path d="m37.891 0.31975h15.028v20.944h-15.028z"/>
  </clipPath>
  <clipPath id="clipEmfPath2-422">
   <path d="m0 73.703h15.028v20.944h-15.028z"/>
  </clipPath>
  <clipPath id="clipEmfPath3-76">
   <path d="m97.845 73.703h15.028v21.104h-15.028z"/>
  </clipPath>
  <clipPath id="clipEmfPath4-48">
   <path d="m58.995 51.8h14.869v20.944h-14.869z"/>
  </clipPath>
  <clipPath id="clipEmfPath5-48">
   <path d="m24.941 47.324h18.066v15.028h-18.066z"/>
  </clipPath>
  <clipPath id="clipEmfPath6-250">
   <path d="m71.945 44.286h12.95v15.028h-12.95z"/>
  </clipPath>
  <clipPath id="clipEmfPath7-71">
   <path d="m51.96 34.374h12.95v14.869h-12.95z"/>
  </clipPath>
  <clipPath id="clipEmfPath8-06">
   <path d="m31.016 73.224h16.627v15.028h-16.627z"/>
  </clipPath>
  <clipPath id="clipEmfPath9-25">
   <path d="m67.948 74.343h11.032v14.869h-11.032z"/>
  </clipPath>
  <clipPath id="clipEmfPath10-04">
   <path d="m47.963 89.212h16.947v15.028h-16.947z"/>
  </clipPath>
 </defs>
 <metadata>
  <rdf:RDF>
   <cc:Work rdf:about="">
    <dc:format>image/svg+xml</dc:format>
    <dc:type rdf:resource="http://purl.org/dc/dcmitype/StillImage"/>
    <dc:title/>
   </cc:Work>
  </rdf:RDF>
 </metadata>
 <g transform="matrix(3.7795 0 0 3.7795 630.62 735.33)">
  <text x="-167.05212" y="-192.17488" fill="#000000" font-family="Calibri" font-size="3.8861px" font-weight="400" letter-spacing="0px" stroke-width=".26458" word-spacing="0px" style="line-height:125%" xml:space="preserve"><tspan x="0" y="0" stroke-width=".26458"><tspan dx="0" dy="0" fill="#000000" font-family="Calibri" font-size="3.8861px" font-weight="400" stroke-width=".26458"/></tspan></text>
  <g fill="none" stroke-linejoin="round">
   <path d="m-152.41-177.8v-14.541" stroke="#f00" stroke-width=".79314px"/>
   <g stroke="#000" stroke-width=".26438px">
    <path d="m-152.14-191.69-11.897 20.886"/>
    <path d="m-163.78-170.52h22.472"/>
    <path d="m-152.14-192.2 10.311 21.415"/>
    <path d="m-164.04-170.26 11.633-7.4027"/>
    <path d="m-152.41-177.66 10.575 7.1383"/>
   </g>
  </g>
  <path d="m-152.2-193.36c-0.69532 0-1.2611 0.56313-1.2611 1.2584 0 0.69796 0.56577 1.2611 1.2611 1.2611s1.2584-0.56314 1.2584-1.2611c0-0.69532-0.56313-1.2584-1.2584-1.2584z" fill="#fff" fill-rule="evenodd"/>
  <path d="m-152.2-193.36c-0.69532 0-1.2611 0.56313-1.2611 1.2584 0 0.69796 0.56577 1.2611 1.2611 1.2611s1.2584-0.56314 1.2584-1.2611c0-0.69532-0.56313-1.2584-1.2584-1.2584" fill="none" stroke="#000" stroke-linecap="round" stroke-linejoin="round" stroke-width=".26438px"/>
  <path d="m-163.84-171.58c-0.69532 0-1.2611 0.56313-1.2611 1.2584 0 0.69796 0.56578 1.2611 1.2611 1.2611s1.2584-0.56313 1.2584-1.2611c0-0.69532-0.56313-1.2584-1.2584-1.2584z" fill="#fff" fill-rule="evenodd"/>
  <path d="m-163.84-171.58c-0.69532 0-1.2611 0.56313-1.2611 1.2584 0 0.69796 0.56578 1.2611 1.2611 1.2611s1.2584-0.56313 1.2584-1.2611c0-0.69532-0.56313-1.2584-1.2584-1.2584" fill="none" stroke="#000" stroke-linecap="round" stroke-linejoin="round" stroke-width=".26438px"/>
  <path d="m-141.89-171.83c-0.69532 0-1.2611 0.56577-1.2611 1.2611s0.56577 1.2611 1.2611 1.2611 1.2584-0.56578 1.2584-1.2611-0.56313-1.2611-1.2584-1.2611z" fill="#fff" fill-rule="evenodd"/>
  <path d="m-141.89-171.83c-0.69532 0-1.2611 0.56577-1.2611 1.2611s0.56577 1.2611 1.2611 1.2611 1.2584-0.56578 1.2584-1.2611-0.56313-1.2611-1.2584-1.2611" fill="none" stroke="#000" stroke-linecap="round" stroke-linejoin="round" stroke-width=".26438px"/>
  <path d="m-152.47-178.72c-0.69532 0-1.2611 0.56313-1.2611 1.2584 0 0.69797 0.56577 1.2611 1.2611 1.2611s1.2584-0.56313 1.2584-1.2611c0-0.69532-0.56313-1.2584-1.2584-1.2584z" fill="#fff" fill-rule="evenodd"/>
  <path d="m-152.47-178.72c-0.69532 0-1.2611 0.56313-1.2611 1.2584 0 0.69797 0.56577 1.2611 1.2611 1.2611s1.2584-0.56313 1.2584-1.2611c0-0.69532-0.56313-1.2584-1.2584-1.2584" fill="none" stroke="#000" stroke-linecap="round" stroke-linejoin="round" stroke-width=".26438px"/>
  <g transform="matrix(.26458 0 0 .26458 -167.18 -195.81)" clip-path="url(#clipEmfPath1-77)">
   <text transform="translate(37.891 14.069)" fill="#000000" font-family="Calibri" font-size="14.688px" font-weight="400" letter-spacing="0px" word-spacing="0px" style="line-height:125%" xml:space="preserve"><tspan x="0" y="0" fill="#000000" font-family="Calibri" font-size="14.688px" font-weight="400"><tspan dx="0" dy="0">A</tspan><tspan dx="0" dy="0"/></tspan></text>
  </g>
  <g transform="matrix(.26458 0 0 .26458 -167.18 -195.81)" clip-path="url(#clipEmfPath2-422)">
   <text transform="translate(0 87.453)" fill="#000000" font-family="Calibri" font-size="14.688px" font-weight="400" letter-spacing="0px" word-spacing="0px" style="line-height:125%" xml:space="preserve"><tspan x="0" y="0" fill="#000000" font-family="Calibri" font-size="14.688px" font-weight="400"><tspan dx="0" dy="0">B</tspan><tspan dx="0" dy="0"/></tspan></text>
  </g>
  <g transform="matrix(.26458 0 0 .26458 -167.18 -195.81)" clip-path="url(#clipEmfPath3-76)">
   <text transform="translate(97.845 87.453)" fill="#000000" font-family="Calibri" font-size="14.688px" font-weight="400" letter-spacing="0px" word-spacing="0px" style="line-height:125%" xml:space="preserve"><tspan x="0" y="0" fill="#000000" font-family="Calibri" font-size="14.688px" font-weight="400"><tspan dx="0" dy="0">C</tspan><tspan dx="0" dy="0"/></tspan></text>
  </g>
  <g transform="matrix(.26458 0 0 .26458 -167.18 -195.81)" clip-path="url(#clipEmfPath4-48)">
   <text transform="translate(58.995 65.55)" fill="#000000" font-family="Calibri" font-size="14.688px" font-weight="400" letter-spacing="0px" word-spacing="0px" style="line-height:125%" xml:space="preserve"><tspan x="0" y="0" fill="#000000" font-family="Calibri" font-size="14.688px" font-weight="400"><tspan dx="0" dy="0">D</tspan><tspan dx="0" dy="0"/></tspan></text>
  </g>
  <path d="m-160.6-183.32v3.9657h4.7588v-3.9657z" fill="#fff" fill-rule="evenodd"/>
  <g transform="matrix(.26458 0 0 .26458 -167.18 -195.81)" clip-path="url(#clipEmfPath5-48)">
   <text transform="translate(26.859 59.954)" fill="#000000" font-family="Calibri" font-size="13.25px" font-weight="400" letter-spacing="0px" word-spacing="0px" style="line-height:125%" xml:space="preserve"><tspan x="0" y="0" fill="#000000" font-family="Calibri" font-size="13.25px" font-weight="400"><tspan dx="0" dy="0">4</tspan><tspan dx="0" dy="0"/></tspan></text>
  </g>
  <path d="m-148.18-184.11v3.9657h3.437v-3.9657z" fill="#fff" fill-rule="evenodd"/>
  <g transform="matrix(.26458 0 0 .26458 -167.18 -195.81)" clip-path="url(#clipEmfPath6-250)">
   <text transform="translate(73.863 56.916)" fill="#000000" font-family="Calibri" font-size="13.25px" font-weight="400" letter-spacing="0px" word-spacing="0px" style="line-height:125%" xml:space="preserve"><tspan x="0" y="0" fill="#000000" font-family="Calibri" font-size="13.25px" font-weight="400"><tspan dx="0" dy="0">2</tspan><tspan dx="0" dy="0"/></tspan></text>
  </g>
  <path d="m-153.47-186.76v3.9657h3.4369v-3.9657z" fill="#fff" fill-rule="evenodd"/>
  <g transform="matrix(.26458 0 0 .26458 -167.18 -195.81)" clip-path="url(#clipEmfPath7-71)">
   <text transform="translate(53.879 47.004)" fill="#000000" font-family="Calibri" font-size="13.25px" font-weight="400" letter-spacing="0px" word-spacing="0px" style="line-height:125%" xml:space="preserve"><tspan x="0" y="0" fill="#000000" font-family="Calibri" font-size="13.25px" font-weight="400"><tspan dx="0" dy="0">1</tspan><tspan dx="0" dy="0"/></tspan></text>
  </g>
  <path d="m-159.02-176.44v3.9657h4.4072v-3.9657z" fill="#fff" fill-rule="evenodd"/>
  <g transform="matrix(.26458 0 0 .26458 -167.18 -195.81)" clip-path="url(#clipEmfPath8-06)">
   <text transform="translate(32.935 85.854)" fill="#000000" font-family="Calibri" font-size="13.25px" font-weight="400" letter-spacing="0px" word-spacing="0px" style="line-height:125%" xml:space="preserve"><tspan x="0" y="0" fill="#000000" font-family="Calibri" font-size="13.25px" font-weight="400"><tspan dx="0" dy="0">9</tspan><tspan dx="0" dy="0"/></tspan></text>
  </g>
  <path d="m-149.24-176.18v3.9657h2.9082v-3.9657z" fill="#fff" fill-rule="evenodd"/>
  <g transform="matrix(.26458 0 0 .26458 -167.18 -195.81)" clip-path="url(#clipEmfPath9-25)">
   <text transform="translate(69.866 86.973)" fill="#000000" font-family="Calibri" font-size="13.25px" font-weight="400" letter-spacing="0px" word-spacing="0px" style="line-height:125%" xml:space="preserve"><tspan x="0" y="0" fill="#000000" font-family="Calibri" font-size="13.25px" font-weight="400"><tspan dx="0" dy="0">8</tspan><tspan dx="0" dy="0"/></tspan></text>
  </g>
  <path d="m-154.52-172.21v3.9657h4.4945v-3.9657z" fill="#fff" fill-rule="evenodd"/>
  <g transform="matrix(.26458 0 0 .26458 -167.18 -195.81)" clip-path="url(#clipEmfPath10-04)">
   <text transform="translate(49.882 101.84)" fill="#000000" font-family="Calibri" font-size="13.25px" font-weight="400" letter-spacing="0px" word-spacing="0px" style="line-height:125%" xml:space="preserve"><tspan x="0" y="0" fill="#000000" font-family="Calibri" font-size="13.25px" font-weight="400"><tspan dx="0" dy="0">13</tspan><tspan dx="0" dy="0"/></tspan></text>
  </g>
 </g>
</svg>
