<?xml version="1.0" encoding="UTF-8"?>
<!-- Created with Inkscape (http://www.inkscape.org/) -->
<svg width="104.04" height="99.354" version="1.1" viewBox="0 0 104.04124 99.354094" xmlns="http://www.w3.org/2000/svg" xmlns:cc="http://creativecommons.org/ns#" xmlns:dc="http://purl.org/dc/elements/1.1/" xmlns:rdf="http://www.w3.org/1999/02/22-rdf-syntax-ns#">
 <defs>
  <clipPath id="clipEmfPath1-95">
   <path d="m38.051 0h15.028v20.944h-15.028z"/>
  </clipPath>
  <clipPath id="clipEmfPath2-503">
   <path d="m0.15988 73.224h15.028v21.104h-15.028z"/>
  </clipPath>
  <clipPath id="clipEmfPath3-25">
   <path d="m98.005 73.384h15.028v20.944h-15.028z"/>
  </clipPath>
  <clipPath id="clipEmfPath4-94">
   <path d="m59.155 51.321h14.869v21.104h-14.869z"/>
  </clipPath>
  <clipPath id="clipEmfPath5-30">
   <path d="m25.101 46.844h18.066v15.028h-18.066z"/>
  </clipPath>
  <clipPath id="clipEmfPath6-24">
   <path d="m72.105 43.966h12.95v14.869h-12.95z"/>
  </clipPath>
  <clipPath id="clipEmfPath7-99">
   <path d="m52.12 33.894h12.95v15.028h-12.95z"/>
  </clipPath>
  <clipPath id="clipEmfPath8-07">
   <path d="m31.176 72.904h16.627v15.028h-16.627z"/>
  </clipPath>
  <clipPath id="clipEmfPath9-450">
   <path d="m68.108 73.863h11.032v15.028h-11.032z"/>
  </clipPath>
  <clipPath id="clipEmfPath10-52">
   <path d="m48.123 88.892h16.947v15.028h-16.947z"/>
  </clipPath>
 </defs>
 <metadata>
  <rdf:RDF>
   <cc:Work rdf:about="">
    <dc:format>image/svg+xml</dc:format>
    <dc:type rdf:resource="http://purl.org/dc/dcmitype/StillImage"/>
    <dc:title/>
   </cc:Work>
  </rdf:RDF>
 </metadata>
 <g transform="matrix(3.7795 0 0 3.7795 607.22 677.86)">
  <text x="-161.03024" y="-176.88338" fill="#000000" font-family="Calibri" font-size="3.8861px" font-weight="400" letter-spacing="0px" stroke-width=".26458" word-spacing="0px" style="line-height:125%" xml:space="preserve"><tspan x="0" y="0" stroke-width=".26458"><tspan dx="0" dy="0" fill="#000000" font-family="Calibri" font-size="3.8861px" font-weight="400" stroke-width=".26458"/></tspan></text>
  <g fill="none" stroke-linejoin="round">
   <path d="m-146.21-162.62v-14.541" stroke="#f00" stroke-width=".79314px"/>
   <path d="m-145.94-176.51-11.897 20.886" stroke="#000" stroke-width=".26438px"/>
   <path d="m-157.58-155.34h22.472" stroke="#000" stroke-width=".26438px"/>
   <path d="m-145.94-177.02 10.311 21.415" stroke="#f00" stroke-width=".79314px"/>
   <path d="m-157.84-155.07 11.633-7.4026" stroke="#000" stroke-width=".26438px"/>
   <path d="m-146.21-162.47 10.575 7.1383" stroke="#f00" stroke-width=".79314px"/>
  </g>
  <path d="m-146.01-178.18c-0.69532 0-1.2584 0.56313-1.2584 1.2584 0 0.69796 0.56313 1.2611 1.2584 1.2611 0.69797 0 1.2611-0.56313 1.2611-1.2611 0-0.69532-0.56313-1.2584-1.2611-1.2584z" fill="#fff" fill-rule="evenodd"/>
  <path d="m-146.01-178.18c-0.69532 0-1.2584 0.56313-1.2584 1.2584 0 0.69796 0.56313 1.2611 1.2584 1.2611 0.69797 0 1.2611-0.56313 1.2611-1.2611 0-0.69532-0.56313-1.2584-1.2611-1.2584" fill="none" stroke="#000" stroke-linecap="round" stroke-linejoin="round" stroke-width=".26438px"/>
  <path d="m-157.64-156.39c-0.69532 0-1.2584 0.56313-1.2584 1.2584 0 0.69797 0.56313 1.2611 1.2584 1.2611 0.69797 0 1.2611-0.56313 1.2611-1.2611 0-0.69532-0.56313-1.2584-1.2611-1.2584z" fill="#fff" fill-rule="evenodd"/>
  <path d="m-157.64-156.39c-0.69532 0-1.2584 0.56313-1.2584 1.2584 0 0.69797 0.56313 1.2611 1.2584 1.2611 0.69797 0 1.2611-0.56313 1.2611-1.2611 0-0.69532-0.56313-1.2584-1.2611-1.2584" fill="none" stroke="#000" stroke-linecap="round" stroke-linejoin="round" stroke-width=".26438px"/>
  <path d="m-135.7-156.64c-0.69532 0-1.2584 0.56578-1.2584 1.2611s0.56313 1.2611 1.2584 1.2611c0.69797 0 1.2611-0.56577 1.2611-1.2611s-0.56313-1.2611-1.2611-1.2611z" fill="#fff" fill-rule="evenodd"/>
  <path d="m-135.7-156.64c-0.69532 0-1.2584 0.56578-1.2584 1.2611s0.56313 1.2611 1.2584 1.2611c0.69797 0 1.2611-0.56577 1.2611-1.2611s-0.56313-1.2611-1.2611-1.2611" fill="none" stroke="#000" stroke-linecap="round" stroke-linejoin="round" stroke-width=".26438px"/>
  <path d="m-146.27-163.53c-0.69532 0-1.2584 0.56313-1.2584 1.2584 0 0.69796 0.56313 1.2611 1.2584 1.2611 0.69797 0 1.2611-0.56313 1.2611-1.2611 0-0.69532-0.56313-1.2584-1.2611-1.2584z" fill="#fff" fill-rule="evenodd"/>
  <path d="m-146.27-163.53c-0.69532 0-1.2584 0.56313-1.2584 1.2584 0 0.69796 0.56313 1.2611 1.2584 1.2611 0.69797 0 1.2611-0.56313 1.2611-1.2611 0-0.69532-0.56313-1.2584-1.2611-1.2584" fill="none" stroke="#000" stroke-linecap="round" stroke-linejoin="round" stroke-width=".26438px"/>
  <g transform="matrix(.26458 0 0 .26458 -161.03 -180.52)" clip-path="url(#clipEmfPath1-95)">
   <text transform="translate(38.051 13.749)" fill="#000000" font-family="Calibri" font-size="14.688px" font-weight="400" letter-spacing="0px" word-spacing="0px" style="line-height:125%" xml:space="preserve"><tspan x="0" y="0" fill="#000000" font-family="Calibri" font-size="14.688px" font-weight="400"><tspan dx="0" dy="0">A</tspan><tspan dx="0" dy="0"/></tspan></text>
  </g>
  <g transform="matrix(.26458 0 0 .26458 -161.03 -180.52)" clip-path="url(#clipEmfPath2-503)">
   <text transform="translate(.15988 86.973)" fill="#000000" font-family="Calibri" font-size="14.688px" font-weight="400" letter-spacing="0px" word-spacing="0px" style="line-height:125%" xml:space="preserve"><tspan x="0" y="0" fill="#000000" font-family="Calibri" font-size="14.688px" font-weight="400"><tspan dx="0" dy="0">B</tspan><tspan dx="0" dy="0"/></tspan></text>
  </g>
  <g transform="matrix(.26458 0 0 .26458 -161.03 -180.52)" clip-path="url(#clipEmfPath3-25)">
   <text transform="translate(98.005 87.133)" fill="#000000" font-family="Calibri" font-size="14.688px" font-weight="400" letter-spacing="0px" word-spacing="0px" style="line-height:125%" xml:space="preserve"><tspan x="0" y="0" fill="#000000" font-family="Calibri" font-size="14.688px" font-weight="400"><tspan dx="0" dy="0">C</tspan><tspan dx="0" dy="0"/></tspan></text>
  </g>
  <g transform="matrix(.26458 0 0 .26458 -161.03 -180.52)" clip-path="url(#clipEmfPath4-94)">
   <text transform="translate(59.155 65.07)" fill="#000000" font-family="Calibri" font-size="14.688px" font-weight="400" letter-spacing="0px" word-spacing="0px" style="line-height:125%" xml:space="preserve"><tspan x="0" y="0" fill="#000000" font-family="Calibri" font-size="14.688px" font-weight="400"><tspan dx="0" dy="0">D</tspan><tspan dx="0" dy="0"/></tspan></text>
  </g>
  <path d="m-154.4-168.13v3.9657h4.7588v-3.9657z" fill="#fff" fill-rule="evenodd"/>
  <g transform="matrix(.26458 0 0 .26458 -161.03 -180.52)" clip-path="url(#clipEmfPath5-30)">
   <text transform="translate(27.019 59.474)" fill="#000000" font-family="Calibri" font-size="13.25px" font-weight="400" letter-spacing="0px" word-spacing="0px" style="line-height:125%" xml:space="preserve"><tspan x="0" y="0" fill="#000000" font-family="Calibri" font-size="13.25px" font-weight="400"><tspan dx="0" dy="0">4</tspan><tspan dx="0" dy="0"/></tspan></text>
  </g>
  <path d="m-141.98-168.93v3.9657h3.437v-3.9657z" fill="#fff" fill-rule="evenodd"/>
  <g transform="matrix(.26458 0 0 .26458 -161.03 -180.52)" clip-path="url(#clipEmfPath6-24)">
   <text transform="translate(74.023 56.597)" fill="#000000" font-family="Calibri" font-size="13.25px" font-weight="400" letter-spacing="0px" word-spacing="0px" style="line-height:125%" xml:space="preserve"><tspan x="0" y="0" fill="#000000" font-family="Calibri" font-size="13.25px" font-weight="400"><tspan dx="0" dy="0">2</tspan><tspan dx="0" dy="0"/></tspan></text>
  </g>
  <path d="m-147.27-171.57v3.9657h3.437v-3.9657z" fill="#fff" fill-rule="evenodd"/>
  <g transform="matrix(.26458 0 0 .26458 -161.03 -180.52)" clip-path="url(#clipEmfPath7-99)">
   <text transform="translate(54.039 46.524)" fill="#000000" font-family="Calibri" font-size="13.25px" font-weight="400" letter-spacing="0px" word-spacing="0px" style="line-height:125%" xml:space="preserve"><tspan x="0" y="0" fill="#000000" font-family="Calibri" font-size="13.25px" font-weight="400"><tspan dx="0" dy="0">1</tspan><tspan dx="0" dy="0"/></tspan></text>
  </g>
  <path d="m-152.82-161.26v3.9657h4.4046v-3.9657z" fill="#fff" fill-rule="evenodd"/>
  <g transform="matrix(.26458 0 0 .26458 -161.03 -180.52)" clip-path="url(#clipEmfPath8-07)">
   <text transform="translate(33.095 85.534)" fill="#000000" font-family="Calibri" font-size="13.25px" font-weight="400" letter-spacing="0px" word-spacing="0px" style="line-height:125%" xml:space="preserve"><tspan x="0" y="0" fill="#000000" font-family="Calibri" font-size="13.25px" font-weight="400"><tspan dx="0" dy="0">9</tspan><tspan dx="0" dy="0"/></tspan></text>
  </g>
  <path d="m-143.04-160.99v3.9657h2.9082v-3.9657z" fill="#fff" fill-rule="evenodd"/>
  <g transform="matrix(.26458 0 0 .26458 -161.03 -180.52)" clip-path="url(#clipEmfPath9-450)">
   <text transform="translate(70.026 86.494)" fill="#000000" font-family="Calibri" font-size="13.25px" font-weight="400" letter-spacing="0px" word-spacing="0px" style="line-height:125%" xml:space="preserve"><tspan x="0" y="0" fill="#000000" font-family="Calibri" font-size="13.25px" font-weight="400"><tspan dx="0" dy="0">8</tspan><tspan dx="0" dy="0"/></tspan></text>
  </g>
  <path d="m-148.32-157.03v3.9657h4.4945v-3.9657z" fill="#fff" fill-rule="evenodd"/>
  <g transform="matrix(.26458 0 0 .26458 -161.03 -180.52)" clip-path="url(#clipEmfPath10-52)">
   <text transform="translate(50.042 101.52)" fill="#000000" font-family="Calibri" font-size="13.25px" font-weight="400" letter-spacing="0px" word-spacing="0px" style="line-height:125%" xml:space="preserve"><tspan x="0" y="0" fill="#000000" font-family="Calibri" font-size="13.25px" font-weight="400"><tspan dx="0" dy="0">13</tspan><tspan dx="0" dy="0"/></tspan></text>
  </g>
 </g>
</svg>
