<?xml version="1.0" encoding="UTF-8"?>
<!-- Created with Inkscape (http://www.inkscape.org/) -->
<svg width="104.04" height="99.354" version="1.1" viewBox="0 0 104.04124 99.354094" xmlns="http://www.w3.org/2000/svg" xmlns:cc="http://creativecommons.org/ns#" xmlns:dc="http://purl.org/dc/elements/1.1/" xmlns:rdf="http://www.w3.org/1999/02/22-rdf-syntax-ns#">
 <defs>
  <clipPath id="clipEmfPath1-58">
   <path d="m37.891 0h15.028v20.944h-15.028z"/>
  </clipPath>
  <clipPath id="clipEmfPath2-60">
   <path d="m0 73.224h15.028v21.104h-15.028z"/>
  </clipPath>
  <clipPath id="clipEmfPath3-86">
   <path d="m97.845 73.384h15.028v20.944h-15.028z"/>
  </clipPath>
  <clipPath id="clipEmfPath4-05">
   <path d="m58.995 51.321h14.869v21.104h-14.869z"/>
  </clipPath>
  <clipPath id="clipEmfPath5-34">
   <path d="m24.941 46.844h18.066v15.028h-18.066z"/>
  </clipPath>
  <clipPath id="clipEmfPath6-06">
   <path d="m71.945 43.966h12.95v14.869h-12.95z"/>
  </clipPath>
  <clipPath id="clipEmfPath7-753">
   <path d="m51.96 33.894h12.95v15.028h-12.95z"/>
  </clipPath>
  <clipPath id="clipEmfPath8-29">
   <path d="m31.016 72.904h16.627v15.028h-16.627z"/>
  </clipPath>
  <clipPath id="clipEmfPath9-40">
   <path d="m67.948 73.863h11.032v15.028h-11.032z"/>
  </clipPath>
  <clipPath id="clipEmfPath10-75">
   <path d="m47.963 88.892h16.947v15.028h-16.947z"/>
  </clipPath>
 </defs>
 <metadata>
  <rdf:RDF>
   <cc:Work rdf:about="">
    <dc:format>image/svg+xml</dc:format>
    <dc:type rdf:resource="http://purl.org/dc/dcmitype/StillImage"/>
    <dc:title/>
   </cc:Work>
  </rdf:RDF>
 </metadata>
 <g transform="matrix(3.7795 0 0 3.7795 415.78 684.24)">
  <text x="-110.29123" y="-178.57185" fill="#000000" font-family="Calibri" font-size="3.8861px" font-weight="400" letter-spacing="0px" stroke-width=".26458" word-spacing="0px" style="line-height:125%" xml:space="preserve"><tspan x="0" y="0" stroke-width=".26458"><tspan dx="0" dy="0" fill="#000000" font-family="Calibri" font-size="3.8861px" font-weight="400" stroke-width=".26458"/></tspan></text>
  <g fill="none" stroke-linejoin="round">
   <path d="m-95.56-164.31v-14.541" stroke="#f00" stroke-width=".79314px"/>
   <path d="m-95.296-178.19-11.897 20.886" stroke="#000" stroke-width=".26438px"/>
   <path d="m-106.93-157.02h22.472" stroke="#000" stroke-width=".26438px"/>
   <path d="m-95.296-178.7 10.311 21.415" stroke="#f00" stroke-width=".79314px"/>
   <path d="m-107.19-156.76 11.633-7.4026" stroke="#f00" stroke-width=".79314px"/>
   <path d="m-95.56-164.16 10.575 7.1383" stroke="#000" stroke-width=".26438px"/>
  </g>
  <path d="m-95.356-179.87c-0.69532 0-1.2611 0.56313-1.2611 1.2584 0 0.69796 0.56577 1.2611 1.2611 1.2611s1.2611-0.56313 1.2611-1.2611c0-0.69532-0.56577-1.2584-1.2611-1.2584z" fill="#fff" fill-rule="evenodd"/>
  <path d="m-95.356-179.87c-0.69532 0-1.2611 0.56313-1.2611 1.2584 0 0.69796 0.56577 1.2611 1.2611 1.2611s1.2611-0.56313 1.2611-1.2611c0-0.69532-0.56577-1.2584-1.2611-1.2584" fill="none" stroke="#000" stroke-linecap="round" stroke-linejoin="round" stroke-width=".26438px"/>
  <path d="m-106.99-158.08c-0.69532 0-1.2611 0.56313-1.2611 1.2584 0 0.69797 0.56577 1.2611 1.2611 1.2611s1.2611-0.56313 1.2611-1.2611c0-0.69532-0.56578-1.2584-1.2611-1.2584z" fill="#fff" fill-rule="evenodd"/>
  <path d="m-106.99-158.08c-0.69532 0-1.2611 0.56313-1.2611 1.2584 0 0.69797 0.56577 1.2611 1.2611 1.2611s1.2611-0.56313 1.2611-1.2611c0-0.69532-0.56578-1.2584-1.2611-1.2584" fill="none" stroke="#000" stroke-linecap="round" stroke-linejoin="round" stroke-width=".26438px"/>
  <path d="m-85.046-158.33c-0.69532 0-1.2611 0.56578-1.2611 1.2611s0.56577 1.2611 1.2611 1.2611 1.2611-0.56577 1.2611-1.2611-0.56577-1.2611-1.2611-1.2611z" fill="#fff" fill-rule="evenodd"/>
  <path d="m-85.046-158.33c-0.69532 0-1.2611 0.56578-1.2611 1.2611s0.56577 1.2611 1.2611 1.2611 1.2611-0.56577 1.2611-1.2611-0.56577-1.2611-1.2611-1.2611" fill="none" stroke="#000" stroke-linecap="round" stroke-linejoin="round" stroke-width=".26438px"/>
  <path d="m-95.621-165.22c-0.69532 0-1.2611 0.56313-1.2611 1.2584 0 0.69796 0.56577 1.2611 1.2611 1.2611 0.69532 0 1.2611-0.56313 1.2611-1.2611 0-0.69532-0.56578-1.2584-1.2611-1.2584z" fill="#fff" fill-rule="evenodd"/>
  <path d="m-95.621-165.22c-0.69532 0-1.2611 0.56313-1.2611 1.2584 0 0.69796 0.56577 1.2611 1.2611 1.2611 0.69532 0 1.2611-0.56313 1.2611-1.2611 0-0.69532-0.56578-1.2584-1.2611-1.2584" fill="none" stroke="#000" stroke-linecap="round" stroke-linejoin="round" stroke-width=".26438px"/>
  <g transform="matrix(.26458 0 0 .26458 -110.33 -182.21)" clip-path="url(#clipEmfPath1-58)">
   <text transform="translate(37.891 13.749)" fill="#000000" font-family="Calibri" font-size="14.688px" font-weight="400" letter-spacing="0px" word-spacing="0px" style="line-height:125%" xml:space="preserve"><tspan x="0" y="0" fill="#000000" font-family="Calibri" font-size="14.688px" font-weight="400"><tspan dx="0" dy="0">A</tspan><tspan dx="0" dy="0"/></tspan></text>
  </g>
  <g transform="matrix(.26458 0 0 .26458 -110.33 -182.21)" clip-path="url(#clipEmfPath2-60)">
   <text transform="translate(0 86.973)" fill="#000000" font-family="Calibri" font-size="14.688px" font-weight="400" letter-spacing="0px" word-spacing="0px" style="line-height:125%" xml:space="preserve"><tspan x="0" y="0" fill="#000000" font-family="Calibri" font-size="14.688px" font-weight="400"><tspan dx="0" dy="0">B</tspan><tspan dx="0" dy="0"/></tspan></text>
  </g>
  <g transform="matrix(.26458 0 0 .26458 -110.33 -182.21)" clip-path="url(#clipEmfPath3-86)">
   <text transform="translate(97.845 87.133)" fill="#000000" font-family="Calibri" font-size="14.688px" font-weight="400" letter-spacing="0px" word-spacing="0px" style="line-height:125%" xml:space="preserve"><tspan x="0" y="0" fill="#000000" font-family="Calibri" font-size="14.688px" font-weight="400"><tspan dx="0" dy="0">C</tspan><tspan dx="0" dy="0"/></tspan></text>
  </g>
  <g transform="matrix(.26458 0 0 .26458 -110.33 -182.21)" clip-path="url(#clipEmfPath4-05)">
   <text transform="translate(58.995 65.07)" fill="#000000" font-family="Calibri" font-size="14.688px" font-weight="400" letter-spacing="0px" word-spacing="0px" style="line-height:125%" xml:space="preserve"><tspan x="0" y="0" fill="#000000" font-family="Calibri" font-size="14.688px" font-weight="400"><tspan dx="0" dy="0">D</tspan><tspan dx="0" dy="0"/></tspan></text>
  </g>
  <path d="m-103.76-169.82v3.9657h4.7588v-3.9657z" fill="#fff" fill-rule="evenodd"/>
  <g transform="matrix(.26458 0 0 .26458 -110.33 -182.21)" clip-path="url(#clipEmfPath5-34)">
   <text transform="translate(26.859 59.474)" fill="#000000" font-family="Calibri" font-size="13.25px" font-weight="400" letter-spacing="0px" word-spacing="0px" style="line-height:125%" xml:space="preserve"><tspan x="0" y="0" fill="#000000" font-family="Calibri" font-size="13.25px" font-weight="400"><tspan dx="0" dy="0">4</tspan><tspan dx="0" dy="0"/></tspan></text>
  </g>
  <path d="m-91.33-170.61v3.9657h3.4369v-3.9657z" fill="#fff" fill-rule="evenodd"/>
  <g transform="matrix(.26458 0 0 .26458 -110.33 -182.21)" clip-path="url(#clipEmfPath6-06)">
   <text transform="translate(73.863 56.597)" fill="#000000" font-family="Calibri" font-size="13.25px" font-weight="400" letter-spacing="0px" word-spacing="0px" style="line-height:125%" xml:space="preserve"><tspan x="0" y="0" fill="#000000" font-family="Calibri" font-size="13.25px" font-weight="400"><tspan dx="0" dy="0">2</tspan><tspan dx="0" dy="0"/></tspan></text>
  </g>
  <path d="m-96.617-173.26v3.9657h3.4369v-3.9657z" fill="#fff" fill-rule="evenodd"/>
  <g transform="matrix(.26458 0 0 .26458 -110.33 -182.21)" clip-path="url(#clipEmfPath7-753)">
   <text transform="translate(53.879 46.524)" fill="#000000" font-family="Calibri" font-size="13.25px" font-weight="400" letter-spacing="0px" word-spacing="0px" style="line-height:125%" xml:space="preserve"><tspan x="0" y="0" fill="#000000" font-family="Calibri" font-size="13.25px" font-weight="400"><tspan dx="0" dy="0">1</tspan><tspan dx="0" dy="0"/></tspan></text>
  </g>
  <path d="m-102.17-162.95v3.9657h4.4072v-3.9657z" fill="#fff" fill-rule="evenodd"/>
  <g transform="matrix(.26458 0 0 .26458 -110.33 -182.21)" clip-path="url(#clipEmfPath8-29)">
   <text transform="translate(32.935 85.534)" fill="#000000" font-family="Calibri" font-size="13.25px" font-weight="400" letter-spacing="0px" word-spacing="0px" style="line-height:125%" xml:space="preserve"><tspan x="0" y="0" fill="#000000" font-family="Calibri" font-size="13.25px" font-weight="400"><tspan dx="0" dy="0">9</tspan><tspan dx="0" dy="0"/></tspan></text>
  </g>
  <path d="m-92.387-162.68v3.9657h2.9082v-3.9657z" fill="#fff" fill-rule="evenodd"/>
  <g transform="matrix(.26458 0 0 .26458 -110.33 -182.21)" clip-path="url(#clipEmfPath9-40)">
   <text transform="translate(69.866 86.494)" fill="#000000" font-family="Calibri" font-size="13.25px" font-weight="400" letter-spacing="0px" word-spacing="0px" style="line-height:125%" xml:space="preserve"><tspan x="0" y="0" fill="#000000" font-family="Calibri" font-size="13.25px" font-weight="400"><tspan dx="0" dy="0">8</tspan><tspan dx="0" dy="0"/></tspan></text>
  </g>
  <path d="m-97.675-158.72v3.9657h4.4945v-3.9657z" fill="#fff" fill-rule="evenodd"/>
  <g transform="matrix(.26458 0 0 .26458 -110.33 -182.21)" clip-path="url(#clipEmfPath10-75)">
   <text transform="translate(49.882 101.52)" fill="#000000" font-family="Calibri" font-size="13.25px" font-weight="400" letter-spacing="0px" word-spacing="0px" style="line-height:125%" xml:space="preserve"><tspan x="0" y="0" fill="#000000" font-family="Calibri" font-size="13.25px" font-weight="400"><tspan dx="0" dy="0">13</tspan><tspan dx="0" dy="0"/></tspan></text>
  </g>
 </g>
</svg>
