<?xml version="1.0" encoding="UTF-8"?>
<!-- Created with Inkscape (http://www.inkscape.org/) -->
<svg width="104.04" height="99.414" version="1.1" viewBox="0 0 104.04124 99.414023" xmlns="http://www.w3.org/2000/svg" xmlns:cc="http://creativecommons.org/ns#" xmlns:dc="http://purl.org/dc/elements/1.1/" xmlns:rdf="http://www.w3.org/1999/02/22-rdf-syntax-ns#">
 <defs>
  <clipPath id="clipEmfPath1-167">
   <path d="m38.371 0h15.028v20.944h-15.028z"/>
  </clipPath>
  <clipPath id="clipEmfPath2-91">
   <path d="m0.47963 73.384h14.869v20.944h-14.869z"/>
  </clipPath>
  <clipPath id="clipEmfPath3-225">
   <path d="m98.325 73.384h15.028v20.944h-15.028z"/>
  </clipPath>
  <clipPath id="clipEmfPath4-66">
   <path d="m59.315 51.481h15.028v20.944h-15.028z"/>
  </clipPath>
  <clipPath id="clipEmfPath5-20">
   <path d="m25.42 47.004h17.906v15.028h-17.906z"/>
  </clipPath>
  <clipPath id="clipEmfPath6-586">
   <path d="m72.424 43.966h12.95v15.028h-12.95z"/>
  </clipPath>
  <clipPath id="clipEmfPath7-74">
   <path d="m52.44 34.054h12.95v14.869h-12.95z"/>
  </clipPath>
  <clipPath id="clipEmfPath8-475">
   <path d="m31.336 72.904h16.627v15.028h-16.627z"/>
  </clipPath>
  <clipPath id="clipEmfPath9-42">
   <path d="m68.428 74.023h10.872v14.869h-10.872z"/>
  </clipPath>
  <clipPath id="clipEmfPath10-35">
   <path d="m48.443 88.892h16.947v15.028h-16.947z"/>
  </clipPath>
 </defs>
 <metadata>
  <rdf:RDF>
   <cc:Work rdf:about="">
    <dc:format>image/svg+xml</dc:format>
    <dc:type rdf:resource="http://purl.org/dc/dcmitype/StillImage"/>
    <dc:title/>
   </cc:Work>
  </rdf:RDF>
 </metadata>
 <g transform="matrix(3.7795 0 0 3.7795 637.01 356.68)">
  <text x="-168.99442" y="-91.904472" fill="#000000" font-family="Calibri" font-size="3.8861px" font-weight="400" letter-spacing="0px" stroke-width=".26458" word-spacing="0px" style="line-height:125%" xml:space="preserve"><tspan x="0" y="0" stroke-width=".26458"><tspan dx="0" dy="0" fill="#000000" font-family="Calibri" font-size="3.8861px" font-weight="400" stroke-width=".26458"/></tspan></text>
  <g fill="none" stroke-linejoin="round">
   <path d="m-154.1-77.62v-14.541" stroke="#f00" stroke-width=".79314px"/>
   <path d="m-153.84-91.508-11.897 20.886" stroke="#000" stroke-width=".26438px"/>
   <g stroke="#f00" stroke-width=".79314px">
    <path d="m-165.47-70.342h22.472"/>
    <path d="m-153.84-92.021 10.311 21.415"/>
    <path d="m-165.74-70.077 11.633-7.4027"/>
   </g>
   <path d="m-154.1-77.48 10.575 7.1383" stroke="#000" stroke-width=".26438px"/>
  </g>
  <path d="m-153.9-93.184c-0.69532 0-1.2611 0.56577-1.2611 1.2611s0.56577 1.2611 1.2611 1.2611 1.2611-0.56577 1.2611-1.2611-0.56578-1.2611-1.2611-1.2611z" fill="#fff" fill-rule="evenodd"/>
  <path d="m-153.9-93.184c-0.69532 0-1.2611 0.56577-1.2611 1.2611s0.56577 1.2611 1.2611 1.2611 1.2611-0.56577 1.2611-1.2611-0.56578-1.2611-1.2611-1.2611" fill="none" stroke="#000" stroke-linecap="round" stroke-linejoin="round" stroke-width=".26438px"/>
  <path d="m-165.53-71.399c-0.69532 0-1.2611 0.56577-1.2611 1.2611s0.56578 1.2611 1.2611 1.2611 1.2611-0.56577 1.2611-1.2611-0.56577-1.2611-1.2611-1.2611z" fill="#fff" fill-rule="evenodd"/>
  <path d="m-165.53-71.399c-0.69532 0-1.2611 0.56577-1.2611 1.2611s0.56578 1.2611 1.2611 1.2611 1.2611-0.56577 1.2611-1.2611-0.56577-1.2611-1.2611-1.2611" fill="none" stroke="#000" stroke-linecap="round" stroke-linejoin="round" stroke-width=".26438px"/>
  <path d="m-143.59-71.645c-0.69532 0-1.2611 0.56578-1.2611 1.2611 0 0.69532 0.56577 1.2585 1.2611 1.2585s1.2611-0.56313 1.2611-1.2585c0-0.69532-0.56578-1.2611-1.2611-1.2611z" fill="#fff" fill-rule="evenodd"/>
  <path d="m-143.59-71.645c-0.69532 0-1.2611 0.56578-1.2611 1.2611 0 0.69532 0.56577 1.2585 1.2611 1.2585s1.2611-0.56313 1.2611-1.2585c0-0.69532-0.56578-1.2611-1.2611-1.2611" fill="none" stroke="#000" stroke-linecap="round" stroke-linejoin="round" stroke-width=".26438px"/>
  <path d="m-154.17-78.537c-0.69532 0-1.2611 0.56577-1.2611 1.2611s0.56577 1.2611 1.2611 1.2611 1.2611-0.56577 1.2611-1.2611-0.56578-1.2611-1.2611-1.2611z" fill="#fff" fill-rule="evenodd"/>
  <path d="m-154.17-78.537c-0.69532 0-1.2611 0.56577-1.2611 1.2611s0.56577 1.2611 1.2611 1.2611 1.2611-0.56577 1.2611-1.2611-0.56578-1.2611-1.2611-1.2611" fill="none" stroke="#000" stroke-linecap="round" stroke-linejoin="round" stroke-width=".26438px"/>
  <g transform="matrix(.26458 0 0 .26458 -168.99 -95.542)" clip-path="url(#clipEmfPath1-167)">
   <text transform="translate(38.371 13.749)" fill="#000000" font-family="Calibri" font-size="14.688px" font-weight="400" letter-spacing="0px" word-spacing="0px" style="line-height:125%" xml:space="preserve"><tspan x="0" y="0" fill="#000000" font-family="Calibri" font-size="14.688px" font-weight="400"><tspan dx="0" dy="0">A</tspan><tspan dx="0" dy="0"/></tspan></text>
  </g>
  <g transform="matrix(.26458 0 0 .26458 -168.99 -95.542)" clip-path="url(#clipEmfPath2-91)">
   <text transform="translate(.47963 87.133)" fill="#000000" font-family="Calibri" font-size="14.688px" font-weight="400" letter-spacing="0px" word-spacing="0px" style="line-height:125%" xml:space="preserve"><tspan x="0" y="0" fill="#000000" font-family="Calibri" font-size="14.688px" font-weight="400"><tspan dx="0" dy="0">B</tspan><tspan dx="0" dy="0"/></tspan></text>
  </g>
  <g transform="matrix(.26458 0 0 .26458 -168.99 -95.542)" clip-path="url(#clipEmfPath3-225)">
   <text transform="translate(98.325 87.133)" fill="#000000" font-family="Calibri" font-size="14.688px" font-weight="400" letter-spacing="0px" word-spacing="0px" style="line-height:125%" xml:space="preserve"><tspan x="0" y="0" fill="#000000" font-family="Calibri" font-size="14.688px" font-weight="400"><tspan dx="0" dy="0">C</tspan><tspan dx="0" dy="0"/></tspan></text>
  </g>
  <g transform="matrix(.26458 0 0 .26458 -168.99 -95.542)" clip-path="url(#clipEmfPath4-66)">
   <text transform="translate(59.315 65.23)" fill="#000000" font-family="Calibri" font-size="14.688px" font-weight="400" letter-spacing="0px" word-spacing="0px" style="line-height:125%" xml:space="preserve"><tspan x="0" y="0" fill="#000000" font-family="Calibri" font-size="14.688px" font-weight="400"><tspan dx="0" dy="0">D</tspan><tspan dx="0" dy="0"/></tspan></text>
  </g>
  <path d="m-162.3-83.138v3.9657h4.7588v-3.9657z" fill="#fff" fill-rule="evenodd"/>
  <g transform="matrix(.26458 0 0 .26458 -168.99 -95.542)" clip-path="url(#clipEmfPath5-20)">
   <text transform="translate(27.339 59.634)" fill="#000000" font-family="Calibri" font-size="13.25px" font-weight="400" letter-spacing="0px" word-spacing="0px" style="line-height:125%" xml:space="preserve"><tspan x="0" y="0" fill="#000000" font-family="Calibri" font-size="13.25px" font-weight="400"><tspan dx="0" dy="0">4</tspan><tspan dx="0" dy="0"/></tspan></text>
  </g>
  <path d="m-149.87-83.931v3.9657h3.4369v-3.9657z" fill="#fff" fill-rule="evenodd"/>
  <g transform="matrix(.26458 0 0 .26458 -168.99 -95.542)" clip-path="url(#clipEmfPath6-586)">
   <text transform="translate(74.343 56.597)" fill="#000000" font-family="Calibri" font-size="13.25px" font-weight="400" letter-spacing="0px" word-spacing="0px" style="line-height:125%" xml:space="preserve"><tspan x="0" y="0" fill="#000000" font-family="Calibri" font-size="13.25px" font-weight="400"><tspan dx="0" dy="0">2</tspan><tspan dx="0" dy="0"/></tspan></text>
  </g>
  <path d="m-155.16-86.575v3.9657h3.4369v-3.9657z" fill="#fff" fill-rule="evenodd"/>
  <g transform="matrix(.26458 0 0 .26458 -168.99 -95.542)" clip-path="url(#clipEmfPath7-74)">
   <text transform="translate(54.358 46.684)" fill="#000000" font-family="Calibri" font-size="13.25px" font-weight="400" letter-spacing="0px" word-spacing="0px" style="line-height:125%" xml:space="preserve"><tspan x="0" y="0" fill="#000000" font-family="Calibri" font-size="13.25px" font-weight="400"><tspan dx="0" dy="0">1</tspan><tspan dx="0" dy="0"/></tspan></text>
  </g>
  <path d="m-160.71-76.264v3.9657h4.4072v-3.9657z" fill="#fff" fill-rule="evenodd"/>
  <g transform="matrix(.26458 0 0 .26458 -168.99 -95.542)" clip-path="url(#clipEmfPath8-475)">
   <text transform="translate(33.254 85.534)" fill="#000000" font-family="Calibri" font-size="13.25px" font-weight="400" letter-spacing="0px" word-spacing="0px" style="line-height:125%" xml:space="preserve"><tspan x="0" y="0" fill="#000000" font-family="Calibri" font-size="13.25px" font-weight="400"><tspan dx="0" dy="0">9</tspan><tspan dx="0" dy="0"/></tspan></text>
  </g>
  <path d="m-150.93-75.999v3.9657h2.9082v-3.9657z" fill="#fff" fill-rule="evenodd"/>
  <g transform="matrix(.26458 0 0 .26458 -168.99 -95.542)" clip-path="url(#clipEmfPath9-42)">
   <text transform="translate(70.346 86.654)" fill="#000000" font-family="Calibri" font-size="13.25px" font-weight="400" letter-spacing="0px" word-spacing="0px" style="line-height:125%" xml:space="preserve"><tspan x="0" y="0" fill="#000000" font-family="Calibri" font-size="13.25px" font-weight="400"><tspan dx="0" dy="0">8</tspan><tspan dx="0" dy="0"/></tspan></text>
  </g>
  <path d="m-156.22-72.034v3.9657h4.4945v-3.9657z" fill="#fff" fill-rule="evenodd"/>
  <g transform="matrix(.26458 0 0 .26458 -168.99 -95.542)" clip-path="url(#clipEmfPath10-35)">
   <text transform="translate(50.361 101.52)" fill="#000000" font-family="Calibri" font-size="13.25px" font-weight="400" letter-spacing="0px" word-spacing="0px" style="line-height:125%" xml:space="preserve"><tspan x="0" y="0" fill="#000000" font-family="Calibri" font-size="13.25px" font-weight="400"><tspan dx="0" dy="0">13</tspan><tspan dx="0" dy="0"/></tspan></text>
  </g>
 </g>
</svg>
