<?xml version="1.0" encoding="UTF-8"?>
<!-- Created with Inkscape (http://www.inkscape.org/) -->
<svg width="234.07" height="181.85" version="1.1" viewBox="0 0 234.07264 181.84922" xmlns="http://www.w3.org/2000/svg" xmlns:cc="http://creativecommons.org/ns#" xmlns:dc="http://purl.org/dc/elements/1.1/" xmlns:rdf="http://www.w3.org/1999/02/22-rdf-syntax-ns#">
 <defs>
  <clipPath id="clipEmfPath1-67">
   <path d="m82.976 2.0784h63.951v23.022h-63.951z"/>
  </clipPath>
  <clipPath id="clipEmfPath2-40">
   <path d="m140.05 0.15988h63.951v23.022h-63.951z"/>
  </clipPath>
  <clipPath id="clipEmfPath3-709">
   <path d="m180.98 20.145h63.951v23.022h-63.951z"/>
  </clipPath>
  <clipPath id="clipEmfPath4-73">
   <path d="m206.88 75.142h63.951v22.862h-63.951z"/>
  </clipPath>
  <clipPath id="clipEmfPath5-91">
   <path d="m190.89 144.05h63.951v23.022h-63.951z"/>
  </clipPath>
  <clipPath id="clipEmfPath6-94">
   <path d="m157.96 168.99h63.951v23.022h-63.951z"/>
  </clipPath>
  <clipPath id="clipEmfPath7-20">
   <path d="m73.064 171.07h63.951v22.862h-63.951z"/>
  </clipPath>
  <clipPath id="clipEmfPath8-19">
   <path d="m21.104 145.01h63.951v23.022h-63.951z"/>
  </clipPath>
  <clipPath id="clipEmfPath9-255">
   <path d="m17.107 78.02h63.951v23.022h-63.951z"/>
  </clipPath>
  <clipPath id="clipEmfPath10-16">
   <path d="m24.141 32.135h63.951v23.022h-63.951z"/>
  </clipPath>
 </defs>
 <metadata>
  <rdf:RDF>
   <cc:Work rdf:about="">
    <dc:format>image/svg+xml</dc:format>
    <dc:type rdf:resource="http://purl.org/dc/dcmitype/StillImage"/>
    <dc:title/>
   </cc:Work>
  </rdf:RDF>
 </metadata>
 <g transform="matrix(3.7795 0 0 3.7795 385.07 263.88)">
  <text x="-106.52976" y="-67.293282" fill="#000000" font-family="Calibri" font-size="3.8861px" font-weight="400" letter-spacing="0px" stroke-width=".26458" word-spacing="0px" style="line-height:125%" xml:space="preserve"><tspan x="0" y="0" stroke-width=".26458"><tspan dx="0" dy="0" fill="#000000" font-family="Calibri" font-size="3.8861px" font-weight="400" stroke-width=".26458"/></tspan></text>
  <path d="m-77.495-66.051c-0.69532 0-1.2585 0.56313-1.2585 1.2585 0 0.69796 0.56313 1.2611 1.2585 1.2611 0.69797 0 1.2611-0.56313 1.2611-1.2611 0-0.69532-0.56313-1.2585-1.2611-1.2585z" fill="#fff" fill-rule="evenodd"/>
  <path d="m-77.495-66.051c-0.69532 0-1.2585 0.56313-1.2585 1.2585 0 0.69796 0.56313 1.2611 1.2585 1.2611 0.69797 0 1.2611-0.56313 1.2611-1.2611 0-0.69532-0.56313-1.2585-1.2611-1.2585" fill="none" stroke="#000" stroke-linecap="round" stroke-linejoin="round" stroke-width=".26438px"/>
  <path d="m-65.863-66.315c-0.69532 0-1.2585 0.56313-1.2585 1.2585 0 0.69796 0.56313 1.2611 1.2585 1.2611 0.69796 0 1.2611-0.56313 1.2611-1.2611 0-0.69532-0.56313-1.2585-1.2611-1.2585z" fill="#fff" fill-rule="evenodd"/>
  <path d="m-65.863-66.315c-0.69532 0-1.2585 0.56313-1.2585 1.2585 0 0.69796 0.56313 1.2611 1.2585 1.2611 0.69796 0 1.2611-0.56313 1.2611-1.2611 0-0.69532-0.56313-1.2585-1.2611-1.2585" fill="none" stroke="#000" stroke-linecap="round" stroke-linejoin="round" stroke-width=".26438px"/>
  <path d="m-55.552-59.441c-0.69532 0-1.2585 0.56313-1.2585 1.2585 0 0.69796 0.56313 1.2611 1.2585 1.2611 0.69796 0 1.2611-0.56313 1.2611-1.2611 0-0.69532-0.56313-1.2585-1.2611-1.2585z" fill="#fff" fill-rule="evenodd"/>
  <path d="m-55.552-59.441c-0.69532 0-1.2585 0.56313-1.2585 1.2585 0 0.69796 0.56313 1.2611 1.2585 1.2611 0.69796 0 1.2611-0.56313 1.2611-1.2611 0-0.69532-0.56313-1.2585-1.2611-1.2585" fill="none" stroke="#000" stroke-linecap="round" stroke-linejoin="round" stroke-width=".26438px"/>
  <path d="m-88.335-58.648c-0.69532 0-1.2585 0.56313-1.2585 1.2585 0 0.69796 0.56313 1.2611 1.2585 1.2611 0.69796 0 1.2611-0.56313 1.2611-1.2611 0-0.69532-0.56313-1.2585-1.2611-1.2585z" fill="#fff" fill-rule="evenodd"/>
  <path d="m-88.335-58.648c-0.69532 0-1.2585 0.56313-1.2585 1.2585 0 0.69796 0.56313 1.2611 1.2585 1.2611 0.69796 0 1.2611-0.56313 1.2611-1.2611 0-0.69532-0.56313-1.2585-1.2611-1.2585" fill="none" stroke="#000" stroke-linecap="round" stroke-linejoin="round" stroke-width=".26438px"/>
  <path d="m-51.586-47.28c-0.69532 0-1.2585 0.56313-1.2585 1.2585 0 0.69796 0.56313 1.2611 1.2585 1.2611 0.69796 0 1.2611-0.56313 1.2611-1.2611 0-0.69532-0.56313-1.2585-1.2611-1.2585z" fill="#fff" fill-rule="evenodd"/>
  <path d="m-51.586-47.28c-0.69532 0-1.2585 0.56313-1.2585 1.2585 0 0.69796 0.56313 1.2611 1.2585 1.2611 0.69796 0 1.2611-0.56313 1.2611-1.2611 0-0.69532-0.56313-1.2585-1.2611-1.2585" fill="none" stroke="#000" stroke-linecap="round" stroke-linejoin="round" stroke-width=".26438px"/>
  <path d="m-91.508-47.28c-0.69532 0-1.2585 0.56313-1.2585 1.2585 0 0.69796 0.56313 1.2611 1.2585 1.2611 0.69796 0 1.2611-0.56313 1.2611-1.2611 0-0.69532-0.56313-1.2585-1.2611-1.2585z" fill="#fff" fill-rule="evenodd"/>
  <path d="m-91.508-47.28c-0.69532 0-1.2585 0.56313-1.2585 1.2585 0 0.69796 0.56313 1.2611 1.2585 1.2611 0.69796 0 1.2611-0.56313 1.2611-1.2611 0-0.69532-0.56313-1.2585-1.2611-1.2585" fill="none" stroke="#000" stroke-linecap="round" stroke-linejoin="round" stroke-width=".26438px"/>
  <path d="m-88.071-34.854c-0.69532 0-1.2585 0.56313-1.2585 1.2585 0 0.69796 0.56313 1.2611 1.2585 1.2611 0.69796 0 1.2611-0.56313 1.2611-1.2611 0-0.69532-0.56313-1.2585-1.2611-1.2585z" fill="#fff" fill-rule="evenodd"/>
  <path d="m-88.071-34.854c-0.69532 0-1.2585 0.56313-1.2585 1.2585 0 0.69796 0.56313 1.2611 1.2585 1.2611 0.69796 0 1.2611-0.56313 1.2611-1.2611 0-0.69532-0.56313-1.2585-1.2611-1.2585" fill="none" stroke="#000" stroke-linecap="round" stroke-linejoin="round" stroke-width=".26438px"/>
  <path d="m-77.495-27.98c-0.69532 0-1.2585 0.56313-1.2585 1.2585 0 0.69796 0.56313 1.2611 1.2585 1.2611 0.69797 0 1.2611-0.56313 1.2611-1.2611 0-0.69532-0.56313-1.2585-1.2611-1.2585z" fill="#fff" fill-rule="evenodd"/>
  <path d="m-77.495-27.98c-0.69532 0-1.2585 0.56313-1.2585 1.2585 0 0.69796 0.56313 1.2611 1.2585 1.2611 0.69797 0 1.2611-0.56313 1.2611-1.2611 0-0.69532-0.56313-1.2585-1.2611-1.2585" fill="none" stroke="#000" stroke-linecap="round" stroke-linejoin="round" stroke-width=".26438px"/>
  <path d="m-65.334-28.244c-0.69532 0-1.2585 0.56313-1.2585 1.2585 0 0.69797 0.56313 1.2611 1.2585 1.2611 0.69797 0 1.2611-0.56313 1.2611-1.2611 0-0.69532-0.56313-1.2585-1.2611-1.2585z" fill="#fff" fill-rule="evenodd"/>
  <path d="m-65.334-28.244c-0.69532 0-1.2585 0.56313-1.2585 1.2585 0 0.69797 0.56313 1.2611 1.2585 1.2611 0.69797 0 1.2611-0.56313 1.2611-1.2611 0-0.69532-0.56313-1.2585-1.2611-1.2585" fill="none" stroke="#000" stroke-linecap="round" stroke-linejoin="round" stroke-width=".26438px"/>
  <path d="m-55.023-35.118c-0.69532 0-1.2585 0.56313-1.2585 1.2585 0 0.69796 0.56313 1.2611 1.2585 1.2611 0.69796 0 1.2611-0.56313 1.2611-1.2611 0-0.69532-0.56313-1.2585-1.2611-1.2585z" fill="#fff" fill-rule="evenodd"/>
  <path d="m-55.023-35.118c-0.69532 0-1.2585 0.56313-1.2585 1.2585 0 0.69796 0.56313 1.2611 1.2585 1.2611 0.69796 0 1.2611-0.56313 1.2611-1.2611 0-0.69532-0.56313-1.2585-1.2611-1.2585" fill="none" stroke="#000" stroke-linecap="round" stroke-linejoin="round" stroke-width=".26438px"/>
  <g transform="matrix(.26458 0 0 .26458 -106.53 -70.931)" clip-path="url(#clipEmfPath1-67)">
   <text transform="translate(82.976 14.709)" fill="#000000" font-family="Calibri" font-size="13.25px" font-weight="400" letter-spacing="0px" word-spacing="0px" style="line-height:125%" xml:space="preserve"><tspan x="0" y="0" fill="#000000" font-family="Calibri" font-size="13.25px" font-weight="400"><tspan dx="0" dy="0">Ashland</tspan><tspan dx="0" dy="0"/></tspan></text>
  </g>
  <g transform="matrix(.26458 0 0 .26458 -106.53 -70.931)" clip-path="url(#clipEmfPath2-40)">
   <text transform="translate(140.05 12.79)" fill="#000000" font-family="Calibri" font-size="13.25px" font-weight="400" letter-spacing="0px" word-spacing="0px" style="line-height:125%" xml:space="preserve"><tspan x="0" y="0" fill="#000000" font-family="Calibri" font-size="13.25px" font-weight="400"><tspan dx="0" dy="0">As</tspan><tspan dx="0" dy="0">toria</tspan><tspan dx="0" dy="0"/></tspan></text>
  </g>
  <g transform="matrix(.26458 0 0 .26458 -106.53 -70.931)" clip-path="url(#clipEmfPath3-709)">
   <text transform="translate(180.98 32.775)" fill="#000000" font-family="Calibri" font-size="13.25px" font-weight="400" letter-spacing="0px" word-spacing="0px" style="line-height:125%" xml:space="preserve"><tspan x="0" y="0" fill="#000000" font-family="Calibri" font-size="13.25px" font-weight="400"><tspan dx="0" dy="0">Bend</tspan><tspan dx="0" dy="0"/></tspan></text>
  </g>
  <g transform="matrix(.26458 0 0 .26458 -106.53 -70.931)" clip-path="url(#clipEmfPath4-73)">
   <text transform="translate(206.88 87.773)" fill="#000000" font-family="Calibri" font-size="13.25px" font-weight="400" letter-spacing="0px" word-spacing="0px" style="line-height:125%" xml:space="preserve"><tspan x="0" y="0" fill="#000000" font-family="Calibri" font-size="13.25px" font-weight="400"><tspan dx="0" dy="0">Corvallis</tspan><tspan dx="0" dy="0"/></tspan></text>
  </g>
  <g transform="matrix(.26458 0 0 .26458 -106.53 -70.931)" clip-path="url(#clipEmfPath5-91)">
   <text transform="translate(190.89 156.68)" fill="#000000" font-family="Calibri" font-size="13.25px" font-weight="400" letter-spacing="0px" word-spacing="0px" style="line-height:125%" xml:space="preserve"><tspan x="0" y="0" fill="#000000" font-family="Calibri" font-size="13.25px" font-weight="400"><tspan dx="0" dy="0">Crater Lk</tspan><tspan dx="0" dy="0"/></tspan></text>
  </g>
  <g transform="matrix(.26458 0 0 .26458 -106.53 -70.931)" clip-path="url(#clipEmfPath6-94)">
   <text transform="translate(157.96 181.62)" fill="#000000" font-family="Calibri" font-size="13.25px" font-weight="400" letter-spacing="0px" word-spacing="0px" style="line-height:125%" xml:space="preserve"><tspan x="0" y="0" fill="#000000" font-family="Calibri" font-size="13.25px" font-weight="400"><tspan dx="0" dy="0">Eugene</tspan><tspan dx="0" dy="0"/></tspan></text>
  </g>
  <g transform="matrix(.26458 0 0 .26458 -106.53 -70.931)" clip-path="url(#clipEmfPath7-20)">
   <text transform="translate(73.064 183.7)" fill="#000000" font-family="Calibri" font-size="13.25px" font-weight="400" letter-spacing="0px" word-spacing="0px" style="line-height:125%" xml:space="preserve"><tspan x="0" y="0" fill="#000000" font-family="Calibri" font-size="13.25px" font-weight="400"><tspan dx="0" dy="0">Newport</tspan><tspan dx="0" dy="0"/></tspan></text>
  </g>
  <g transform="matrix(.26458 0 0 .26458 -106.53 -70.931)" clip-path="url(#clipEmfPath8-19)">
   <text transform="translate(21.104 157.64)" fill="#000000" font-family="Calibri" font-size="13.25px" font-weight="400" letter-spacing="0px" word-spacing="0px" style="line-height:125%" xml:space="preserve"><tspan x="0" y="0" fill="#000000" font-family="Calibri" font-size="13.25px" font-weight="400"><tspan dx="0" dy="0">Portland</tspan><tspan dx="0" dy="0"/></tspan></text>
  </g>
  <g transform="matrix(.26458 0 0 .26458 -106.53 -70.931)" clip-path="url(#clipEmfPath9-255)">
   <text transform="translate(17.107 90.65)" fill="#000000" font-family="Calibri" font-size="13.25px" font-weight="400" letter-spacing="0px" word-spacing="0px" style="line-height:125%" xml:space="preserve"><tspan x="0" y="0" fill="#000000" font-family="Calibri" font-size="13.25px" font-weight="400"><tspan dx="0" dy="0">Salem</tspan><tspan dx="0" dy="0"/></tspan></text>
  </g>
  <g transform="matrix(.26458 0 0 .26458 -106.53 -70.931)" clip-path="url(#clipEmfPath10-16)">
   <text transform="translate(24.141 44.766)" fill="#000000" font-family="Calibri" font-size="13.25px" font-weight="400" letter-spacing="0px" word-spacing="0px" style="line-height:125%" xml:space="preserve"><tspan x="0" y="0" fill="#000000" font-family="Calibri" font-size="13.25px" font-weight="400"><tspan dx="0" dy="0">Seaside</tspan><tspan dx="0" dy="0"/></tspan></text>
  </g>
 </g>
</svg>
