<?xml version="1.0" encoding="UTF-8"?>
<!-- Created with Inkscape (http://www.inkscape.org/) -->
<svg width="234.23" height="181.85" version="1.1" viewBox="0 0 234.23252 181.84922" xmlns="http://www.w3.org/2000/svg" xmlns:cc="http://creativecommons.org/ns#" xmlns:dc="http://purl.org/dc/elements/1.1/" xmlns:rdf="http://www.w3.org/1999/02/22-rdf-syntax-ns#">
 <defs>
  <clipPath id="clipEmfPath1-25">
   <path d="m66.189 1.9185h63.951v23.022h-63.951z"/>
  </clipPath>
  <clipPath id="clipEmfPath2-509">
   <path d="m123.11 0h63.951v23.022h-63.951z"/>
  </clipPath>
  <clipPath id="clipEmfPath3-60">
   <path d="m164.03 19.985h63.951v23.022h-63.951z"/>
  </clipPath>
  <clipPath id="clipEmfPath4-13">
   <path d="m190.09 74.982h63.951v22.862h-63.951z"/>
  </clipPath>
  <clipPath id="clipEmfPath5-596">
   <path d="m174.11 143.89h63.951v23.022h-63.951z"/>
  </clipPath>
  <clipPath id="clipEmfPath6-946">
   <path d="m141.17 168.83h63.951v23.022h-63.951z"/>
  </clipPath>
  <clipPath id="clipEmfPath7-15">
   <path d="m56.117 170.91h63.951v22.862h-63.951z"/>
  </clipPath>
  <clipPath id="clipEmfPath8-00">
   <path d="m4.1568 144.85h63.951v23.022h-63.951z"/>
  </clipPath>
  <clipPath id="clipEmfPath9-53">
   <path d="m0.15988 77.86h63.951v23.022h-63.951z"/>
  </clipPath>
  <clipPath id="clipEmfPath10-48">
   <path d="m7.1945 31.975h63.951v23.022h-63.951z"/>
  </clipPath>
 </defs>
 <metadata>
  <rdf:RDF>
   <cc:Work rdf:about="">
    <dc:format>image/svg+xml</dc:format>
    <dc:type rdf:resource="http://purl.org/dc/dcmitype/StillImage"/>
    <dc:title/>
   </cc:Work>
  </rdf:RDF>
 </metadata>
 <g transform="matrix(3.7795 0 0 3.7795 527.67 -359.39)">
  <text x="-139.77641" y="97.657257" fill="#000000" font-family="Calibri" font-size="3.8861px" font-weight="400" letter-spacing="0px" stroke-width=".26458" word-spacing="0px" style="line-height:125%" xml:space="preserve"><tspan x="0" y="0" stroke-width=".26458"><tspan dx="0" dy="0" fill="#000000" font-family="Calibri" font-size="3.8861px" font-weight="400" stroke-width=".26458"/></tspan></text>
  <g fill="none" stroke="#000" stroke-linejoin="round" stroke-width=".26438px">
   <path d="m-125.8 131.17v-23.617"/>
   <path d="m-102.89 138.01h-12.336"/>
   <path d="m-115.23 100.08 22.56 31.022"/>
   <path d="m-103.51 99.727-22.472 7.4027"/>
   <path d="m-125.98 131.19-3.1726-12.426"/>
   <path d="m-89.229 118.5-13.748 19.829"/>
   <path d="m-129.33 118.83h39.483"/>
  </g>
  <path d="m-115.2 98.847c-0.69533 0-1.2611 0.56313-1.2611 1.2585 0 0.69796 0.56577 1.2611 1.2611 1.2611 0.69532 0 1.2584-0.56314 1.2584-1.2611 0-0.69532-0.56313-1.2585-1.2584-1.2585z" fill="#fff" fill-rule="evenodd"/>
  <path d="m-115.2 98.847c-0.69533 0-1.2611 0.56313-1.2611 1.2585 0 0.69796 0.56577 1.2611 1.2611 1.2611 0.69532 0 1.2584-0.56314 1.2584-1.2611 0-0.69532-0.56313-1.2585-1.2584-1.2585" fill="none" stroke="#000" stroke-linecap="round" stroke-linejoin="round" stroke-width=".26438px"/>
  <path d="m-103.57 98.583c-0.69532 0-1.2611 0.56313-1.2611 1.2585 0 0.69796 0.56578 1.2611 1.2611 1.2611s1.2584-0.56313 1.2584-1.2611c0-0.69532-0.56313-1.2585-1.2584-1.2585z" fill="#fff" fill-rule="evenodd"/>
  <path d="m-103.57 98.583c-0.69532 0-1.2611 0.56313-1.2611 1.2585 0 0.69796 0.56578 1.2611 1.2611 1.2611s1.2584-0.56313 1.2584-1.2611c0-0.69532-0.56313-1.2585-1.2584-1.2585" fill="none" stroke="#000" stroke-linecap="round" stroke-linejoin="round" stroke-width=".26438px"/>
  <path d="m-93.256 105.46c-0.69532 0-1.2611 0.56313-1.2611 1.2584 0 0.69797 0.56578 1.2611 1.2611 1.2611 0.69532 0 1.2585-0.56313 1.2585-1.2611 0-0.69532-0.56313-1.2584-1.2585-1.2584z" fill="#fff" fill-rule="evenodd"/>
  <path d="m-93.256 105.46c-0.69532 0-1.2611 0.56313-1.2611 1.2584 0 0.69797 0.56578 1.2611 1.2611 1.2611 0.69532 0 1.2585-0.56313 1.2585-1.2611 0-0.69532-0.56313-1.2584-1.2585-1.2584" fill="none" stroke="#000" stroke-linecap="round" stroke-linejoin="round" stroke-width=".26438px"/>
  <path d="m-126.04 106.25c-0.69532 0-1.2611 0.56313-1.2611 1.2585 0 0.69796 0.56577 1.2611 1.2611 1.2611s1.2585-0.56313 1.2585-1.2611c0-0.69533-0.56314-1.2585-1.2585-1.2585z" fill="#fff" fill-rule="evenodd"/>
  <path d="m-126.04 106.25c-0.69532 0-1.2611 0.56313-1.2611 1.2585 0 0.69796 0.56577 1.2611 1.2611 1.2611s1.2585-0.56313 1.2585-1.2611c0-0.69533-0.56314-1.2585-1.2585-1.2585" fill="none" stroke="#000" stroke-linecap="round" stroke-linejoin="round" stroke-width=".26438px"/>
  <path d="m-89.29 117.62c-0.69532 0-1.2611 0.56313-1.2611 1.2584 0 0.69796 0.56578 1.2611 1.2611 1.2611 0.69532 0 1.2585-0.56313 1.2585-1.2611 0-0.69532-0.56313-1.2584-1.2585-1.2584z" fill="#fff" fill-rule="evenodd"/>
  <path d="m-89.29 117.62c-0.69532 0-1.2611 0.56313-1.2611 1.2584 0 0.69796 0.56578 1.2611 1.2611 1.2611 0.69532 0 1.2585-0.56313 1.2585-1.2611 0-0.69532-0.56313-1.2584-1.2585-1.2584" fill="none" stroke="#000" stroke-linecap="round" stroke-linejoin="round" stroke-width=".26438px"/>
  <path d="m-129.21 117.62c-0.69532 0-1.2611 0.56313-1.2611 1.2584 0 0.69796 0.56578 1.2611 1.2611 1.2611s1.2584-0.56313 1.2584-1.2611c0-0.69532-0.56313-1.2584-1.2584-1.2584z" fill="#fff" fill-rule="evenodd"/>
  <path d="m-129.21 117.62c-0.69532 0-1.2611 0.56313-1.2611 1.2584 0 0.69796 0.56578 1.2611 1.2611 1.2611s1.2584-0.56313 1.2584-1.2611c0-0.69532-0.56313-1.2584-1.2584-1.2584" fill="none" stroke="#000" stroke-linecap="round" stroke-linejoin="round" stroke-width=".26438px"/>
  <path d="m-125.77 130.04c-0.69532 0-1.2611 0.56313-1.2611 1.2584 0 0.69797 0.56577 1.2611 1.2611 1.2611 0.69533 0 1.2585-0.56313 1.2585-1.2611 0-0.69532-0.56313-1.2584-1.2585-1.2584z" fill="#fff" fill-rule="evenodd"/>
  <path d="m-125.77 130.04c-0.69532 0-1.2611 0.56313-1.2611 1.2584 0 0.69797 0.56577 1.2611 1.2611 1.2611 0.69533 0 1.2585-0.56313 1.2585-1.2611 0-0.69532-0.56313-1.2584-1.2585-1.2584" fill="none" stroke="#000" stroke-linecap="round" stroke-linejoin="round" stroke-width=".26438px"/>
  <path d="m-115.2 136.92c-0.69533 0-1.2611 0.56313-1.2611 1.2584 0 0.69796 0.56577 1.2611 1.2611 1.2611 0.69532 0 1.2584-0.56313 1.2584-1.2611 0-0.69532-0.56313-1.2584-1.2584-1.2584z" fill="#fff" fill-rule="evenodd"/>
  <path d="m-115.2 136.92c-0.69533 0-1.2611 0.56313-1.2611 1.2584 0 0.69796 0.56577 1.2611 1.2611 1.2611 0.69532 0 1.2584-0.56313 1.2584-1.2611 0-0.69532-0.56313-1.2584-1.2584-1.2584" fill="none" stroke="#000" stroke-linecap="round" stroke-linejoin="round" stroke-width=".26438px"/>
  <path d="m-103.04 136.65c-0.69532 0-1.2611 0.56313-1.2611 1.2585 0 0.69796 0.56578 1.2611 1.2611 1.2611s1.2584-0.56313 1.2584-1.2611c0-0.69533-0.56313-1.2585-1.2584-1.2585z" fill="#fff" fill-rule="evenodd"/>
  <path d="m-103.04 136.65c-0.69532 0-1.2611 0.56313-1.2611 1.2585 0 0.69796 0.56578 1.2611 1.2611 1.2611s1.2584-0.56313 1.2584-1.2611c0-0.69533-0.56313-1.2585-1.2584-1.2585" fill="none" stroke="#000" stroke-linecap="round" stroke-linejoin="round" stroke-width=".26438px"/>
  <path d="m-92.727 129.78c-0.69532 0-1.2611 0.56313-1.2611 1.2584 0 0.69797 0.56577 1.2611 1.2611 1.2611 0.69532 0 1.2585-0.56313 1.2585-1.2611 0-0.69532-0.56313-1.2584-1.2585-1.2584z" fill="#fff" fill-rule="evenodd"/>
  <path d="m-92.727 129.78c-0.69532 0-1.2611 0.56313-1.2611 1.2584 0 0.69797 0.56577 1.2611 1.2611 1.2611 0.69532 0 1.2585-0.56313 1.2585-1.2611 0-0.69532-0.56313-1.2584-1.2585-1.2584" fill="none" stroke="#000" stroke-linecap="round" stroke-linejoin="round" stroke-width=".26438px"/>
  <g transform="matrix(.26458 0 0 .26458 -139.78 94.019)" clip-path="url(#clipEmfPath1-25)">
   <text transform="translate(66.189 14.549)" fill="#000000" font-family="Calibri" font-size="13.25px" font-weight="400" letter-spacing="0px" word-spacing="0px" style="line-height:125%" xml:space="preserve"><tspan x="0" y="0" fill="#000000" font-family="Calibri" font-size="13.25px" font-weight="400"><tspan dx="0" dy="0">Ashland</tspan><tspan dx="0" dy="0"/></tspan></text>
  </g>
  <g transform="matrix(.26458 0 0 .26458 -139.78 94.019)" clip-path="url(#clipEmfPath2-509)">
   <text transform="translate(123.11 12.63)" fill="#000000" font-family="Calibri" font-size="13.25px" font-weight="400" letter-spacing="0px" word-spacing="0px" style="line-height:125%" xml:space="preserve"><tspan x="0" y="0" fill="#000000" font-family="Calibri" font-size="13.25px" font-weight="400"><tspan dx="0" dy="0">As</tspan><tspan dx="0" dy="0">toria</tspan><tspan dx="0" dy="0"/></tspan></text>
  </g>
  <g transform="matrix(.26458 0 0 .26458 -139.78 94.019)" clip-path="url(#clipEmfPath3-60)">
   <text transform="translate(164.03 32.615)" fill="#000000" font-family="Calibri" font-size="13.25px" font-weight="400" letter-spacing="0px" word-spacing="0px" style="line-height:125%" xml:space="preserve"><tspan x="0" y="0" fill="#000000" font-family="Calibri" font-size="13.25px" font-weight="400"><tspan dx="0" dy="0">Bend</tspan><tspan dx="0" dy="0"/></tspan></text>
  </g>
  <g transform="matrix(.26458 0 0 .26458 -139.78 94.019)" clip-path="url(#clipEmfPath4-13)">
   <text transform="translate(190.09 87.613)" fill="#000000" font-family="Calibri" font-size="13.25px" font-weight="400" letter-spacing="0px" word-spacing="0px" style="line-height:125%" xml:space="preserve"><tspan x="0" y="0" fill="#000000" font-family="Calibri" font-size="13.25px" font-weight="400"><tspan dx="0" dy="0">Corvallis</tspan><tspan dx="0" dy="0"/></tspan></text>
  </g>
  <g transform="matrix(.26458 0 0 .26458 -139.78 94.019)" clip-path="url(#clipEmfPath5-596)">
   <text transform="translate(174.11 156.52)" fill="#000000" font-family="Calibri" font-size="13.25px" font-weight="400" letter-spacing="0px" word-spacing="0px" style="line-height:125%" xml:space="preserve"><tspan x="0" y="0" fill="#000000" font-family="Calibri" font-size="13.25px" font-weight="400"><tspan dx="0" dy="0">Crater Lk</tspan><tspan dx="0" dy="0"/></tspan></text>
  </g>
  <g transform="matrix(.26458 0 0 .26458 -139.78 94.019)" clip-path="url(#clipEmfPath6-946)">
   <text transform="translate(141.17 181.46)" fill="#000000" font-family="Calibri" font-size="13.25px" font-weight="400" letter-spacing="0px" word-spacing="0px" style="line-height:125%" xml:space="preserve"><tspan x="0" y="0" fill="#000000" font-family="Calibri" font-size="13.25px" font-weight="400"><tspan dx="0" dy="0">Eugene</tspan><tspan dx="0" dy="0"/></tspan></text>
  </g>
  <g transform="matrix(.26458 0 0 .26458 -139.78 94.019)" clip-path="url(#clipEmfPath7-15)">
   <text transform="translate(56.117 183.54)" fill="#000000" font-family="Calibri" font-size="13.25px" font-weight="400" letter-spacing="0px" word-spacing="0px" style="line-height:125%" xml:space="preserve"><tspan x="0" y="0" fill="#000000" font-family="Calibri" font-size="13.25px" font-weight="400"><tspan dx="0" dy="0">Newport</tspan><tspan dx="0" dy="0"/></tspan></text>
  </g>
  <g transform="matrix(.26458 0 0 .26458 -139.78 94.019)" clip-path="url(#clipEmfPath8-00)">
   <text transform="translate(4.1568 157.48)" fill="#000000" font-family="Calibri" font-size="13.25px" font-weight="400" letter-spacing="0px" word-spacing="0px" style="line-height:125%" xml:space="preserve"><tspan x="0" y="0" fill="#000000" font-family="Calibri" font-size="13.25px" font-weight="400"><tspan dx="0" dy="0">Portland</tspan><tspan dx="0" dy="0"/></tspan></text>
  </g>
  <g transform="matrix(.26458 0 0 .26458 -139.78 94.019)" clip-path="url(#clipEmfPath9-53)">
   <text transform="translate(.15988 90.491)" fill="#000000" font-family="Calibri" font-size="13.25px" font-weight="400" letter-spacing="0px" word-spacing="0px" style="line-height:125%" xml:space="preserve"><tspan x="0" y="0" fill="#000000" font-family="Calibri" font-size="13.25px" font-weight="400"><tspan dx="0" dy="0">Salem</tspan><tspan dx="0" dy="0"/></tspan></text>
  </g>
  <g transform="matrix(.26458 0 0 .26458 -139.78 94.019)" clip-path="url(#clipEmfPath10-48)">
   <text transform="translate(7.1945 44.606)" fill="#000000" font-family="Calibri" font-size="13.25px" font-weight="400" letter-spacing="0px" word-spacing="0px" style="line-height:125%" xml:space="preserve"><tspan x="0" y="0" fill="#000000" font-family="Calibri" font-size="13.25px" font-weight="400"><tspan dx="0" dy="0">Seaside</tspan><tspan dx="0" dy="0"/></tspan></text>
  </g>
 </g>
</svg>
