<?xml version="1.0" encoding="UTF-8"?>
<!-- Created with Inkscape (http://www.inkscape.org/) -->
<svg width="234.23" height="181.85" version="1.1" viewBox="0 0 234.23252 181.8492" xmlns="http://www.w3.org/2000/svg" xmlns:cc="http://creativecommons.org/ns#" xmlns:dc="http://purl.org/dc/elements/1.1/" xmlns:rdf="http://www.w3.org/1999/02/22-rdf-syntax-ns#">
 <defs>
  <clipPath id="clipEmfPath1-665">
   <path d="m66.189 2.3982h63.951v23.022h-63.951z"/>
  </clipPath>
  <clipPath id="clipEmfPath2-199">
   <path d="m123.11 0.31975h63.951v23.022h-63.951z"/>
  </clipPath>
  <clipPath id="clipEmfPath3-31">
   <path d="m164.03 20.304h63.951v23.022h-63.951z"/>
  </clipPath>
  <clipPath id="clipEmfPath4-062">
   <path d="m190.09 75.302h63.951v23.022h-63.951z"/>
  </clipPath>
  <clipPath id="clipEmfPath5-301">
   <path d="m174.11 144.21h63.951v23.022h-63.951z"/>
  </clipPath>
  <clipPath id="clipEmfPath6-09">
   <path d="m141.17 169.31h63.951v22.862h-63.951z"/>
  </clipPath>
  <clipPath id="clipEmfPath7-992">
   <path d="m56.117 171.23h63.951v23.022h-63.951z"/>
  </clipPath>
  <clipPath id="clipEmfPath8-068">
   <path d="m4.1568 145.33h63.951v22.862h-63.951z"/>
  </clipPath>
  <clipPath id="clipEmfPath9-69">
   <path d="m0.15988 78.34h63.951v23.022h-63.951z"/>
  </clipPath>
  <clipPath id="clipEmfPath10-07">
   <path d="m7.1945 32.295h63.951v23.022h-63.951z"/>
  </clipPath>
 </defs>
 <metadata>
  <rdf:RDF>
   <cc:Work rdf:about="">
    <dc:format>image/svg+xml</dc:format>
    <dc:type rdf:resource="http://purl.org/dc/dcmitype/StillImage"/>
    <dc:title/>
   </cc:Work>
  </rdf:RDF>
 </metadata>
 <g transform="matrix(3.7795 0 0 3.7795 414.93 -406.19)">
  <text x="-109.94659" y="109.95484" fill="#000000" font-family="Calibri" font-size="3.8861px" font-weight="400" letter-spacing="0px" stroke-width=".26458" word-spacing="0px" style="line-height:125%" xml:space="preserve"><tspan x="0" y="0" stroke-width=".26458"><tspan dx="0" dy="0" fill="#000000" font-family="Calibri" font-size="3.8861px" font-weight="400" stroke-width=".26458"/></tspan></text>
  <g fill="none" stroke="#000" stroke-linejoin="round" stroke-width=".26438px">
   <path d="m-85.75 150.62 22.208-31.726"/>
   <path d="m-85.75 112.55 21.856 6.6968"/>
   <path d="m-73.763 112.2 10.927 31.02"/>
   <path d="m-95.971 143.57v-23.617"/>
   <path d="m-73.06 150.41h-12.336"/>
   <path d="m-85.396 112.48 22.56 31.022"/>
   <path d="m-73.676 112.13-22.472 7.4026"/>
   <path d="m-96.149 143.59-3.1726-12.426"/>
   <path d="m-59.4 130.9-13.748 19.829"/>
   <path d="m-99.498 131.24h39.483"/>
  </g>
  <path d="m-85.37 111.25c-0.69532 0-1.2611 0.56313-1.2611 1.2584 0 0.69796 0.56577 1.2611 1.2611 1.2611s1.2585-0.56313 1.2585-1.2611c0-0.69532-0.56313-1.2584-1.2585-1.2584z" fill="#fff" fill-rule="evenodd"/>
  <path d="m-85.37 111.25c-0.69532 0-1.2611 0.56313-1.2611 1.2584 0 0.69796 0.56577 1.2611 1.2611 1.2611s1.2585-0.56313 1.2585-1.2611c0-0.69532-0.56313-1.2584-1.2585-1.2584" fill="none" stroke="#000" stroke-linecap="round" stroke-linejoin="round" stroke-width=".26438px"/>
  <path d="m-73.737 110.99c-0.69532 0-1.2611 0.56313-1.2611 1.2584 0 0.69796 0.56578 1.2611 1.2611 1.2611 0.69532 0 1.2585-0.56313 1.2585-1.2611 0-0.69532-0.56313-1.2584-1.2585-1.2584z" fill="#fff" fill-rule="evenodd"/>
  <path d="m-73.737 110.99c-0.69532 0-1.2611 0.56313-1.2611 1.2584 0 0.69796 0.56578 1.2611 1.2611 1.2611 0.69532 0 1.2585-0.56313 1.2585-1.2611 0-0.69532-0.56313-1.2584-1.2585-1.2584" fill="none" stroke="#000" stroke-linecap="round" stroke-linejoin="round" stroke-width=".26438px"/>
  <path d="m-63.426 117.86c-0.69532 0-1.2611 0.56313-1.2611 1.2584 0 0.69797 0.56578 1.2611 1.2611 1.2611 0.69532 0 1.2585-0.56313 1.2585-1.2611 0-0.69532-0.56313-1.2584-1.2585-1.2584z" fill="#fff" fill-rule="evenodd"/>
  <path d="m-63.426 117.86c-0.69532 0-1.2611 0.56313-1.2611 1.2584 0 0.69797 0.56578 1.2611 1.2611 1.2611 0.69532 0 1.2585-0.56313 1.2585-1.2611 0-0.69532-0.56313-1.2584-1.2585-1.2584" fill="none" stroke="#000" stroke-linecap="round" stroke-linejoin="round" stroke-width=".26438px"/>
  <path d="m-96.209 118.65c-0.69532 0-1.2611 0.56313-1.2611 1.2584 0 0.69797 0.56578 1.2611 1.2611 1.2611 0.69532 0 1.2585-0.56313 1.2585-1.2611 0-0.69532-0.56313-1.2584-1.2585-1.2584z" fill="#fff" fill-rule="evenodd"/>
  <path d="m-96.209 118.65c-0.69532 0-1.2611 0.56313-1.2611 1.2584 0 0.69797 0.56578 1.2611 1.2611 1.2611 0.69532 0 1.2585-0.56313 1.2585-1.2611 0-0.69532-0.56313-1.2584-1.2585-1.2584" fill="none" stroke="#000" stroke-linecap="round" stroke-linejoin="round" stroke-width=".26438px"/>
  <path d="m-59.46 130.02c-0.69532 0-1.2611 0.56313-1.2611 1.2584 0 0.69796 0.56578 1.2611 1.2611 1.2611 0.69532 0 1.2585-0.56313 1.2585-1.2611 0-0.69532-0.56313-1.2584-1.2585-1.2584z" fill="#fff" fill-rule="evenodd"/>
  <path d="m-59.46 130.02c-0.69532 0-1.2611 0.56313-1.2611 1.2584 0 0.69796 0.56578 1.2611 1.2611 1.2611 0.69532 0 1.2585-0.56313 1.2585-1.2611 0-0.69532-0.56313-1.2584-1.2585-1.2584" fill="none" stroke="#000" stroke-linecap="round" stroke-linejoin="round" stroke-width=".26438px"/>
  <path d="m-99.382 130.02c-0.69532 0-1.2611 0.56313-1.2611 1.2584 0 0.69796 0.56577 1.2611 1.2611 1.2611 0.69532 0 1.2585-0.56313 1.2585-1.2611 0-0.69532-0.56313-1.2584-1.2585-1.2584z" fill="#fff" fill-rule="evenodd"/>
  <path d="m-99.382 130.02c-0.69532 0-1.2611 0.56313-1.2611 1.2584 0 0.69796 0.56577 1.2611 1.2611 1.2611 0.69532 0 1.2585-0.56313 1.2585-1.2611 0-0.69532-0.56313-1.2584-1.2585-1.2584" fill="none" stroke="#000" stroke-linecap="round" stroke-linejoin="round" stroke-width=".26438px"/>
  <path d="m-95.945 142.45c-0.69532 0-1.2611 0.56313-1.2611 1.2584 0 0.69797 0.56577 1.2611 1.2611 1.2611s1.2585-0.56313 1.2585-1.2611c0-0.69532-0.56313-1.2584-1.2585-1.2584z" fill="#fff" fill-rule="evenodd"/>
  <path d="m-95.945 142.45c-0.69532 0-1.2611 0.56313-1.2611 1.2584 0 0.69797 0.56577 1.2611 1.2611 1.2611s1.2585-0.56313 1.2585-1.2611c0-0.69532-0.56313-1.2584-1.2585-1.2584" fill="none" stroke="#000" stroke-linecap="round" stroke-linejoin="round" stroke-width=".26438px"/>
  <path d="m-85.37 149.32c-0.69532 0-1.2611 0.56314-1.2611 1.2585 0 0.69796 0.56577 1.2611 1.2611 1.2611s1.2585-0.56313 1.2585-1.2611c0-0.69532-0.56313-1.2585-1.2585-1.2585z" fill="#fff" fill-rule="evenodd"/>
  <path d="m-85.37 149.32c-0.69532 0-1.2611 0.56314-1.2611 1.2585 0 0.69796 0.56577 1.2611 1.2611 1.2611s1.2585-0.56313 1.2585-1.2611c0-0.69532-0.56313-1.2585-1.2585-1.2585" fill="none" stroke="#000" stroke-linecap="round" stroke-linejoin="round" stroke-width=".26438px"/>
  <path d="m-73.208 149.06c-0.69532 0-1.2611 0.56314-1.2611 1.2585 0 0.69796 0.56578 1.2611 1.2611 1.2611 0.69532 0 1.2585-0.56313 1.2585-1.2611 0-0.69532-0.56313-1.2585-1.2585-1.2585z" fill="#fff" fill-rule="evenodd"/>
  <path d="m-73.208 149.06c-0.69532 0-1.2611 0.56314-1.2611 1.2585 0 0.69796 0.56578 1.2611 1.2611 1.2611 0.69532 0 1.2585-0.56313 1.2585-1.2611 0-0.69532-0.56313-1.2585-1.2585-1.2585" fill="none" stroke="#000" stroke-linecap="round" stroke-linejoin="round" stroke-width=".26438px"/>
  <path d="m-62.897 142.18c-0.69532 0-1.2611 0.56313-1.2611 1.2584 0 0.69796 0.56577 1.2611 1.2611 1.2611 0.69532 0 1.2585-0.56314 1.2585-1.2611 0-0.69532-0.56313-1.2584-1.2585-1.2584z" fill="#fff" fill-rule="evenodd"/>
  <path d="m-62.897 142.18c-0.69532 0-1.2611 0.56313-1.2611 1.2584 0 0.69796 0.56577 1.2611 1.2611 1.2611 0.69532 0 1.2585-0.56314 1.2585-1.2611 0-0.69532-0.56313-1.2584-1.2585-1.2584" fill="none" stroke="#000" stroke-linecap="round" stroke-linejoin="round" stroke-width=".26438px"/>
  <g transform="matrix(.26458 0 0 .26458 -109.95 106.32)" clip-path="url(#clipEmfPath1-665)">
   <text transform="translate(66.189 15.028)" fill="#000000" font-family="Calibri" font-size="13.25px" font-weight="400" letter-spacing="0px" word-spacing="0px" style="line-height:125%" xml:space="preserve"><tspan x="0" y="0" fill="#000000" font-family="Calibri" font-size="13.25px" font-weight="400"><tspan dx="0" dy="0">Ashland</tspan><tspan dx="0" dy="0"/></tspan></text>
  </g>
  <g transform="matrix(.26458 0 0 .26458 -109.95 106.32)" clip-path="url(#clipEmfPath2-199)">
   <text transform="translate(123.11 12.95)" fill="#000000" font-family="Calibri" font-size="13.25px" font-weight="400" letter-spacing="0px" word-spacing="0px" style="line-height:125%" xml:space="preserve"><tspan x="0" y="0" fill="#000000" font-family="Calibri" font-size="13.25px" font-weight="400"><tspan dx="0" dy="0">As</tspan><tspan dx="0" dy="0">toria</tspan><tspan dx="0" dy="0"/></tspan></text>
  </g>
  <g transform="matrix(.26458 0 0 .26458 -109.95 106.32)" clip-path="url(#clipEmfPath3-31)">
   <text transform="translate(164.03 32.935)" fill="#000000" font-family="Calibri" font-size="13.25px" font-weight="400" letter-spacing="0px" word-spacing="0px" style="line-height:125%" xml:space="preserve"><tspan x="0" y="0" fill="#000000" font-family="Calibri" font-size="13.25px" font-weight="400"><tspan dx="0" dy="0">Bend</tspan><tspan dx="0" dy="0"/></tspan></text>
  </g>
  <g transform="matrix(.26458 0 0 .26458 -109.95 106.32)" clip-path="url(#clipEmfPath4-062)">
   <text transform="translate(190.09 87.933)" fill="#000000" font-family="Calibri" font-size="13.25px" font-weight="400" letter-spacing="0px" word-spacing="0px" style="line-height:125%" xml:space="preserve"><tspan x="0" y="0" fill="#000000" font-family="Calibri" font-size="13.25px" font-weight="400"><tspan dx="0" dy="0">Corvallis</tspan><tspan dx="0" dy="0"/></tspan></text>
  </g>
  <g transform="matrix(.26458 0 0 .26458 -109.95 106.32)" clip-path="url(#clipEmfPath5-301)">
   <text transform="translate(174.11 156.84)" fill="#000000" font-family="Calibri" font-size="13.25px" font-weight="400" letter-spacing="0px" word-spacing="0px" style="line-height:125%" xml:space="preserve"><tspan x="0" y="0" fill="#000000" font-family="Calibri" font-size="13.25px" font-weight="400"><tspan dx="0" dy="0">Crater Lk</tspan><tspan dx="0" dy="0"/></tspan></text>
  </g>
  <g transform="matrix(.26458 0 0 .26458 -109.95 106.32)" clip-path="url(#clipEmfPath6-09)">
   <text transform="translate(141.17 181.94)" fill="#000000" font-family="Calibri" font-size="13.25px" font-weight="400" letter-spacing="0px" word-spacing="0px" style="line-height:125%" xml:space="preserve"><tspan x="0" y="0" fill="#000000" font-family="Calibri" font-size="13.25px" font-weight="400"><tspan dx="0" dy="0">Eugene</tspan><tspan dx="0" dy="0"/></tspan></text>
  </g>
  <g transform="matrix(.26458 0 0 .26458 -109.95 106.32)" clip-path="url(#clipEmfPath7-992)">
   <text transform="translate(56.117 183.86)" fill="#000000" font-family="Calibri" font-size="13.25px" font-weight="400" letter-spacing="0px" word-spacing="0px" style="line-height:125%" xml:space="preserve"><tspan x="0" y="0" fill="#000000" font-family="Calibri" font-size="13.25px" font-weight="400"><tspan dx="0" dy="0">Newport</tspan><tspan dx="0" dy="0"/></tspan></text>
  </g>
  <g transform="matrix(.26458 0 0 .26458 -109.95 106.32)" clip-path="url(#clipEmfPath8-068)">
   <text transform="translate(4.1568 157.96)" fill="#000000" font-family="Calibri" font-size="13.25px" font-weight="400" letter-spacing="0px" word-spacing="0px" style="line-height:125%" xml:space="preserve"><tspan x="0" y="0" fill="#000000" font-family="Calibri" font-size="13.25px" font-weight="400"><tspan dx="0" dy="0">Portland</tspan><tspan dx="0" dy="0"/></tspan></text>
  </g>
  <g transform="matrix(.26458 0 0 .26458 -109.95 106.32)" clip-path="url(#clipEmfPath9-69)">
   <text transform="translate(.15988 90.97)" fill="#000000" font-family="Calibri" font-size="13.25px" font-weight="400" letter-spacing="0px" word-spacing="0px" style="line-height:125%" xml:space="preserve"><tspan x="0" y="0" fill="#000000" font-family="Calibri" font-size="13.25px" font-weight="400"><tspan dx="0" dy="0">Salem</tspan><tspan dx="0" dy="0"/></tspan></text>
  </g>
  <g transform="matrix(.26458 0 0 .26458 -109.95 106.32)" clip-path="url(#clipEmfPath10-07)">
   <text transform="translate(7.1945 44.926)" fill="#000000" font-family="Calibri" font-size="13.25px" font-weight="400" letter-spacing="0px" word-spacing="0px" style="line-height:125%" xml:space="preserve"><tspan x="0" y="0" fill="#000000" font-family="Calibri" font-size="13.25px" font-weight="400"><tspan dx="0" dy="0">Seaside</tspan><tspan dx="0" dy="0"/></tspan></text>
  </g>
 </g>
</svg>
