<?xml version="1.0" encoding="UTF-8"?>
<!-- Created with Inkscape (http://www.inkscape.org/) -->
<svg width="233.62" height="136.43" version="1.1" viewBox="0 0 233.62288 136.42563" xmlns="http://www.w3.org/2000/svg" xmlns:cc="http://creativecommons.org/ns#" xmlns:dc="http://purl.org/dc/elements/1.1/" xmlns:rdf="http://www.w3.org/1999/02/22-rdf-syntax-ns#">
 <defs>
  <clipPath id="clipEmfPath1-155">
   <path d="m123.27 0.31975h16.627v19.025h-16.627z"/>
  </clipPath>
  <clipPath id="clipEmfPath2-356">
   <path d="m0 42.687h12.63v21.104h-12.63z"/>
  </clipPath>
  <clipPath id="clipEmfPath3-19">
   <path d="m29.577 127.42h14.709v19.025h-14.709z"/>
  </clipPath>
  <clipPath id="clipEmfPath4-14">
   <path d="m227.51 36.772h14.229v18.386h-14.229z"/>
  </clipPath>
  <clipPath id="clipEmfPath5-800">
   <path d="m169.47 124.7h14.389v17.746h-14.389z"/>
  </clipPath>
  <clipPath id="clipEmfPath6-266">
   <path d="m170.27 65.55h22.223v15.988h-22.223z"/>
  </clipPath>
  <clipPath id="clipEmfPath7-23">
   <path d="m112.87 49.882h18.386v15.988h-18.386z"/>
  </clipPath>
  <clipPath id="clipEmfPath8-76">
   <path d="m159.88 31.176h16.947v15.988h-16.947z"/>
  </clipPath>
  <clipPath id="clipEmfPath9-15">
   <path d="m177.46 94.488h29.098v15.988h-29.098z"/>
  </clipPath>
  <clipPath id="clipEmfPath10-214">
   <path d="m94.647 111.43h16.947v15.988h-16.947z"/>
  </clipPath>
  <clipPath id="clipEmfPath11-59">
   <path d="m20.624 78.5h22.383v15.988h-22.383z"/>
  </clipPath>
  <clipPath id="clipEmfPath12-20">
   <path d="m59.634 32.455h18.226v15.988h-18.226z"/>
  </clipPath>
  <clipPath id="clipEmfPath13-06">
   <path d="m56.597 91.77h15.668v14.709h-15.668z"/>
  </clipPath>
  <clipPath id="clipEmfPath14-5">
   <path d="m139.57 63.471h15.668v14.709h-15.668z"/>
  </clipPath>
  <clipPath id="clipEmfPath15-56">
   <path d="m89.212 77.541h22.383v14.549h-22.383z"/>
  </clipPath>
 </defs>
 <metadata>
  <rdf:RDF>
   <cc:Work rdf:about="">
    <dc:format>image/svg+xml</dc:format>
    <dc:type rdf:resource="http://purl.org/dc/dcmitype/StillImage"/>
    <dc:title/>
   </cc:Work>
  </rdf:RDF>
 </metadata>
 <g transform="matrix(3.7795 0 0 3.7795 508.22 -954.33)">
  <text x="-134.66594" y="254.88132" fill="#000000" font-family="Calibri" font-size="3.8861px" font-weight="400" letter-spacing="0px" stroke-width=".26458" word-spacing="0px" style="line-height:125%" xml:space="preserve"><tspan x="0" y="0" stroke-width=".26458"><tspan dx="0" dy="0" fill="#000000" font-family="Calibri" font-size="3.8861px" font-weight="400" stroke-width=".26458"/></tspan></text>
  <path d="m-75.164 266.73h-53.934" fill="none" stroke="#000" stroke-linejoin="round" stroke-width=".26438px"/>
  <path d="m-99.223 257.76 24.059 9.2533" fill="none" stroke="#000" stroke-linejoin="round" stroke-width=".26438px"/>
  <g transform="matrix(.26458 0 0 .26458 -134.79 251.24)" clip-path="url(#clipEmfPath1-155)">
   <text transform="translate(123.27 14.069)" fill="#000000" font-family="Calibri" font-size="14.688px" font-weight="400" letter-spacing="0px" word-spacing="0px" style="line-height:125%" xml:space="preserve"><tspan x="0" y="0" fill="#000000" font-family="Calibri" font-size="14.688px" font-weight="400"><tspan dx="0" dy="0">A</tspan><tspan dx="0" dy="0"/></tspan></text>
  </g>
  <g transform="matrix(.26458 0 0 .26458 -134.79 251.24)" clip-path="url(#clipEmfPath2-356)">
   <text transform="translate(0 56.437)" fill="#000000" font-family="Calibri" font-size="14.688px" font-weight="400" letter-spacing="0px" word-spacing="0px" style="line-height:125%" xml:space="preserve"><tspan x="0" y="0" fill="#000000" font-family="Calibri" font-size="14.688px" font-weight="400"><tspan dx="0" dy="0">E</tspan><tspan dx="0" dy="0"/></tspan></text>
  </g>
  <g transform="matrix(.26458 0 0 .26458 -134.79 251.24)" clip-path="url(#clipEmfPath3-19)">
   <text transform="translate(29.577 141.17)" fill="#000000" font-family="Calibri" font-size="14.688px" font-weight="400" letter-spacing="0px" word-spacing="0px" style="line-height:125%" xml:space="preserve"><tspan x="0" y="0" fill="#000000" font-family="Calibri" font-size="14.688px" font-weight="400"><tspan dx="0" dy="0">D</tspan><tspan dx="0" dy="0"/></tspan></text>
  </g>
  <g transform="matrix(.26458 0 0 .26458 -134.79 251.24)" clip-path="url(#clipEmfPath4-14)">
   <text transform="translate(227.51 50.521)" fill="#000000" font-family="Calibri" font-size="14.688px" font-weight="400" letter-spacing="0px" word-spacing="0px" style="line-height:125%" xml:space="preserve"><tspan x="0" y="0" fill="#000000" font-family="Calibri" font-size="14.688px" font-weight="400"><tspan dx="0" dy="0">B</tspan><tspan dx="0" dy="0"/></tspan></text>
  </g>
  <g transform="matrix(.26458 0 0 .26458 -134.79 251.24)" clip-path="url(#clipEmfPath5-800)">
   <text transform="translate(169.47 138.45)" fill="#000000" font-family="Calibri" font-size="14.688px" font-weight="400" letter-spacing="0px" word-spacing="0px" style="line-height:125%" xml:space="preserve"><tspan x="0" y="0" fill="#000000" font-family="Calibri" font-size="14.688px" font-weight="400"><tspan dx="0" dy="0">C</tspan><tspan dx="0" dy="0"/></tspan></text>
  </g>
  <g fill="none" stroke="#000" stroke-linejoin="round" stroke-width=".26438px">
   <path d="m-75.429 267-47.588 15.863"/>
   <path d="m-99.487 257.23-22.737 25.381"/>
   <path d="m-91.027 282.35h-31.461"/>
   <path d="m-75.693 267.81-15.07 15.07"/>
   <path d="m-122.22 282.35-5.8164-15.598"/>
   <path d="m-99.487 257.5 8.7246 26.702"/>
   <path d="m-100.02 257.76-28.289 8.4602"/>
   <path d="m-128.57 266.75 38.071 15.863"/>
  </g>
  <path d="m-99.551 256.07c-0.69533 0-1.2585 0.56313-1.2585 1.2584 0 0.69797 0.56313 1.2611 1.2585 1.2611 0.69796 0 1.2611-0.56313 1.2611-1.2611 0-0.69532-0.56313-1.2584-1.2611-1.2584z" fill="#fff" fill-rule="evenodd"/>
  <path d="m-99.551 256.07c-0.69533 0-1.2585 0.56313-1.2585 1.2584 0 0.69797 0.56313 1.2611 1.2585 1.2611 0.69796 0 1.2611-0.56313 1.2611-1.2611 0-0.69532-0.56313-1.2584-1.2611-1.2584" fill="none" stroke="#000" stroke-linecap="round" stroke-linejoin="round" stroke-width=".26438px"/>
  <path d="m-122.02 281.29c-0.69532 0-1.2584 0.56313-1.2584 1.2584 0 0.69796 0.56313 1.2611 1.2584 1.2611 0.69796 0 1.2611-0.56313 1.2611-1.2611 0-0.69532-0.56314-1.2584-1.2611-1.2584z" fill="#fff" fill-rule="evenodd"/>
  <path d="m-122.02 281.29c-0.69532 0-1.2584 0.56313-1.2584 1.2584 0 0.69796 0.56313 1.2611 1.2584 1.2611 0.69796 0 1.2611-0.56313 1.2611-1.2611 0-0.69532-0.56314-1.2584-1.2611-1.2584" fill="none" stroke="#000" stroke-linecap="round" stroke-linejoin="round" stroke-width=".26438px"/>
  <path d="m-90.826 281.57c-0.69532 0-1.2585 0.56577-1.2585 1.2611 0 0.69533 0.56313 1.2611 1.2585 1.2611 0.69796 0 1.2611-0.56577 1.2611-1.2611 0-0.69532-0.56313-1.2611-1.2611-1.2611z" fill="#fff" fill-rule="evenodd"/>
  <path d="m-90.826 281.57c-0.69532 0-1.2585 0.56577-1.2585 1.2611 0 0.69533 0.56313 1.2611 1.2585 1.2611 0.69796 0 1.2611-0.56577 1.2611-1.2611 0-0.69532-0.56313-1.2611-1.2611-1.2611" fill="none" stroke="#000" stroke-linecap="round" stroke-linejoin="round" stroke-width=".26438px"/>
  <path d="m-128.37 265.69c-0.69532 0-1.2584 0.56313-1.2584 1.2585 0 0.69796 0.56313 1.2611 1.2584 1.2611 0.69796 0 1.2611-0.56313 1.2611-1.2611 0-0.69533-0.56313-1.2585-1.2611-1.2585z" fill="#fff" fill-rule="evenodd"/>
  <path d="m-128.37 265.69c-0.69532 0-1.2584 0.56313-1.2584 1.2585 0 0.69796 0.56313 1.2611 1.2584 1.2611 0.69796 0 1.2611-0.56313 1.2611-1.2611 0-0.69533-0.56313-1.2585-1.2611-1.2585" fill="none" stroke="#000" stroke-linecap="round" stroke-linejoin="round" stroke-width=".26438px"/>
  <path d="m-75.228 265.69c-0.69532 0-1.2585 0.56313-1.2585 1.2585 0 0.69796 0.56313 1.2611 1.2585 1.2611 0.69796 0 1.2611-0.56313 1.2611-1.2611 0-0.69533-0.56313-1.2585-1.2611-1.2585z" fill="#fff" fill-rule="evenodd"/>
  <path d="m-75.228 265.69c-0.69532 0-1.2585 0.56313-1.2585 1.2585 0 0.69796 0.56313 1.2611 1.2585 1.2611 0.69796 0 1.2611-0.56313 1.2611-1.2611 0-0.69533-0.56313-1.2585-1.2611-1.2585" fill="none" stroke="#000" stroke-linecap="round" stroke-linejoin="round" stroke-width=".26438px"/>
  <path d="m-89.795 268.55v4.2301h5.9063v-4.2301z" fill="#fff" fill-rule="evenodd"/>
  <g transform="matrix(.26458 0 0 .26458 -134.79 251.24)" clip-path="url(#clipEmfPath6-266)">
   <text transform="translate(172.19 78.18)" fill="#000000" font-family="Calibri" font-size="13.25px" font-weight="400" letter-spacing="0px" word-spacing="0px" style="line-height:125%" xml:space="preserve"><tspan x="0" y="0" fill="#000000" font-family="Calibri" font-size="13.25px" font-weight="400"><tspan dx="0" dy="0">$14</tspan><tspan dx="0" dy="0"/></tspan></text>
  </g>
  <path d="m-104.95 264.41v4.2301h4.8461v-4.2301z" fill="#fff" fill-rule="evenodd"/>
  <g transform="matrix(.26458 0 0 .26458 -134.79 251.24)" clip-path="url(#clipEmfPath7-23)">
   <text transform="translate(114.79 62.512)" fill="#000000" font-family="Calibri" font-size="13.25px" font-weight="400" letter-spacing="0px" word-spacing="0px" style="line-height:125%" xml:space="preserve"><tspan x="0" y="0" fill="#000000" font-family="Calibri" font-size="13.25px" font-weight="400"><tspan dx="0" dy="0">$6</tspan><tspan dx="0" dy="0"/></tspan></text>
  </g>
  <path d="m-92.526 259.47v4.2301h4.4945v-4.2301z" fill="#fff" fill-rule="evenodd"/>
  <g transform="matrix(.26458 0 0 .26458 -134.79 251.24)" clip-path="url(#clipEmfPath8-76)">
   <text transform="translate(161.8 43.806)" fill="#000000" font-family="Calibri" font-size="13.25px" font-weight="400" letter-spacing="0px" word-spacing="0px" style="line-height:125%" xml:space="preserve"><tspan x="0" y="0" fill="#000000" font-family="Calibri" font-size="13.25px" font-weight="400"><tspan dx="0" dy="0">$4</tspan><tspan dx="0" dy="0"/></tspan></text>
  </g>
  <path d="m-87.855 276.22v4.2301h7.667v-4.2301z" fill="#fff" fill-rule="evenodd"/>
  <g transform="matrix(.26458 0 0 .26458 -134.79 251.24)" clip-path="url(#clipEmfPath9-15)">
   <text transform="translate(179.38 107.12)" fill="#000000" font-family="Calibri" font-size="13.25px" font-weight="400" letter-spacing="0px" word-spacing="0px" style="line-height:125%" xml:space="preserve"><tspan x="0" y="0" fill="#000000" font-family="Calibri" font-size="13.25px" font-weight="400"><tspan dx="0" dy="0">$10</tspan><tspan dx="0" dy="0"/></tspan></text>
  </g>
  <path d="m-109.8 280.71v4.2301h4.4945v-4.2301z" fill="#fff" fill-rule="evenodd"/>
  <g transform="matrix(.26458 0 0 .26458 -134.79 251.24)" clip-path="url(#clipEmfPath10-214)">
   <text transform="translate(96.566 124.06)" fill="#000000" font-family="Calibri" font-size="13.25px" font-weight="400" letter-spacing="0px" word-spacing="0px" style="line-height:125%" xml:space="preserve"><tspan x="0" y="0" fill="#000000" font-family="Calibri" font-size="13.25px" font-weight="400"><tspan dx="0" dy="0">$7</tspan><tspan dx="0" dy="0"/></tspan></text>
  </g>
  <path d="m-129.36 271.99v4.2301h5.9036v-4.2301z" fill="#fff" fill-rule="evenodd"/>
  <g transform="matrix(.26458 0 0 .26458 -134.79 251.24)" clip-path="url(#clipEmfPath11-59)">
   <text transform="translate(22.543 91.13)" fill="#000000" font-family="Calibri" font-size="13.25px" font-weight="400" letter-spacing="0px" word-spacing="0px" style="line-height:125%" xml:space="preserve"><tspan x="0" y="0" fill="#000000" font-family="Calibri" font-size="13.25px" font-weight="400"><tspan dx="0" dy="0">$13</tspan><tspan dx="0" dy="0"/></tspan></text>
  </g>
  <path d="m-119.05 259.83v4.2301h4.8461v-4.2301z" fill="#fff" fill-rule="evenodd"/>
  <g transform="matrix(.26458 0 0 .26458 -134.79 251.24)" clip-path="url(#clipEmfPath12-20)">
   <text transform="translate(61.553 45.085)" fill="#000000" font-family="Calibri" font-size="13.25px" font-weight="400" letter-spacing="0px" word-spacing="0px" style="line-height:125%" xml:space="preserve"><tspan x="0" y="0" fill="#000000" font-family="Calibri" font-size="13.25px" font-weight="400"><tspan dx="0" dy="0">$5</tspan><tspan dx="0" dy="0"/></tspan></text>
  </g>
  <path d="m-119.84 275.51v3.8785h4.1402v-3.8785z" fill="#fff" fill-rule="evenodd"/>
  <g transform="matrix(.26458 0 0 .26458 -134.79 251.24)" clip-path="url(#clipEmfPath13-06)">
   <text transform="translate(58.515 104.4)" fill="#000000" font-family="Calibri" font-size="13.25px" font-weight="400" letter-spacing="0px" word-spacing="0px" style="line-height:125%" xml:space="preserve"><tspan x="0" y="0" fill="#000000" font-family="Calibri" font-size="13.25px" font-weight="400"><tspan dx="0" dy="0">$9</tspan><tspan dx="0" dy="0"/></tspan></text>
  </g>
  <path d="m-97.901 268.02v3.8758h4.1402v-3.8758z" fill="#fff" fill-rule="evenodd"/>
  <g transform="matrix(.26458 0 0 .26458 -134.79 251.24)" clip-path="url(#clipEmfPath14-5)">
   <text transform="translate(141.49 76.102)" fill="#000000" font-family="Calibri" font-size="13.25px" font-weight="400" letter-spacing="0px" word-spacing="0px" style="line-height:125%" xml:space="preserve"><tspan x="0" y="0" fill="#000000" font-family="Calibri" font-size="13.25px" font-weight="400"><tspan dx="0" dy="0">$8</tspan><tspan dx="0" dy="0"/></tspan></text>
  </g>
  <path d="m-111.21 271.72v3.8758h5.9063v-3.8758z" fill="#fff" fill-rule="evenodd"/>
  <g transform="matrix(.26458 0 0 .26458 -134.79 251.24)" clip-path="url(#clipEmfPath15-56)">
   <text transform="translate(91.13 90.171)" fill="#000000" font-family="Calibri" font-size="13.25px" font-weight="400" letter-spacing="0px" word-spacing="0px" style="line-height:125%" xml:space="preserve"><tspan x="0" y="0" fill="#000000" font-family="Calibri" font-size="13.25px" font-weight="400"><tspan dx="0" dy="0">$11</tspan><tspan dx="0" dy="0"/></tspan></text>
  </g>
 </g>
</svg>
