<?xml version="1.0" encoding="UTF-8"?>
<!-- Created with Inkscape (http://www.inkscape.org/) -->
<svg width="469.18" height="69.467" version="1.1" viewBox="0 0 469.18009 69.46679" xmlns="http://www.w3.org/2000/svg" xmlns:cc="http://creativecommons.org/ns#" xmlns:dc="http://purl.org/dc/elements/1.1/" xmlns:rdf="http://www.w3.org/1999/02/22-rdf-syntax-ns#">
 <metadata>
  <rdf:RDF>
   <cc:Work rdf:about="">
    <dc:format>image/svg+xml</dc:format>
    <dc:type rdf:resource="http://purl.org/dc/dcmitype/StillImage"/>
    <dc:title/>
   </cc:Work>
  </rdf:RDF>
 </metadata>
 <g transform="matrix(3.7795 0 0 3.7795 594.09 -1104.8)">
  <text x="-157.19162" y="295.76556" fill="#000000" font-family="Calibri" font-size="3.8861px" font-weight="400" letter-spacing="0px" stroke-width=".26458" word-spacing="0px" style="line-height:125%" xml:space="preserve"><tspan x="0" y="0" stroke-width=".26458"><tspan dx="0" dy="0" fill="#000000" font-family="Calibri" font-size="3.8861px" font-weight="400" stroke-width=".26458"/></tspan></text>
  <g fill="none" stroke="#000" stroke-linejoin="round" stroke-width=".26438px">
   <path d="m-148.33 295.53-7.667 13.483"/>
   <path d="m-148.33 295.01 6.7866 14.012"/>
   <path d="m-155.64 308.96 7.0484-3.8785"/>
  </g>
  <path d="m-148.39 293.85c-0.69532 0-1.2611 0.56577-1.2611 1.2611s0.56578 1.2611 1.2611 1.2611 1.2611-0.56578 1.2611-1.2611-0.56577-1.2611-1.2611-1.2611z" fill="#fff" fill-rule="evenodd"/>
  <path d="m-148.39 293.85c-0.69532 0-1.2611 0.56577-1.2611 1.2611s0.56578 1.2611 1.2611 1.2611 1.2611-0.56578 1.2611-1.2611-0.56577-1.2611-1.2611-1.2611" fill="none" stroke="#000" stroke-linecap="round" stroke-linejoin="round" stroke-width=".26438px"/>
  <path d="m-155.79 308.04c-0.69532 0-1.2611 0.56577-1.2611 1.2611 0 0.69532 0.56577 1.2584 1.2611 1.2584s1.2611-0.56313 1.2611-1.2584c0-0.69533-0.56578-1.2611-1.2611-1.2611z" fill="#fff" fill-rule="evenodd"/>
  <path d="m-155.79 308.04c-0.69532 0-1.2611 0.56577-1.2611 1.2611 0 0.69532 0.56577 1.2584 1.2611 1.2584s1.2611-0.56313 1.2611-1.2584c0-0.69533-0.56578-1.2611-1.2611-1.2611" fill="none" stroke="#000" stroke-linecap="round" stroke-linejoin="round" stroke-width=".26438px"/>
  <path d="m-141.6 307.79c-0.69532 0-1.2611 0.56313-1.2611 1.2584 0 0.69796 0.56577 1.2611 1.2611 1.2611 0.69533 0 1.2585-0.56313 1.2585-1.2611 0-0.69532-0.56313-1.2584-1.2585-1.2584z" fill="#fff" fill-rule="evenodd"/>
  <path d="m-141.6 307.79c-0.69532 0-1.2611 0.56313-1.2611 1.2584 0 0.69796 0.56577 1.2611 1.2611 1.2611 0.69533 0 1.2585-0.56313 1.2585-1.2611 0-0.69532-0.56313-1.2584-1.2585-1.2584" fill="none" stroke="#000" stroke-linecap="round" stroke-linejoin="round" stroke-width=".26438px"/>
  <path d="m-148.65 303.67c-0.69533 0-1.2611 0.56313-1.2611 1.2584 0 0.69797 0.56577 1.2611 1.2611 1.2611 0.69532 0 1.2611-0.56313 1.2611-1.2611 0-0.69532-0.56577-1.2584-1.2611-1.2584z" fill="#fff" fill-rule="evenodd"/>
  <g fill="none" stroke="#000" stroke-linejoin="round" stroke-width=".26438px">
   <path d="m-148.65 303.67c-0.69533 0-1.2611 0.56313-1.2611 1.2584 0 0.69797 0.56577 1.2611 1.2611 1.2611 0.69532 0 1.2611-0.56313 1.2611-1.2611 0-0.69532-0.56577-1.2584-1.2611-1.2584" stroke-linecap="round"/>
   <g>
    <path d="m-121.54 295.17-7.667 13.483"/>
    <path d="m-121.54 294.66 6.784 14.012"/>
    <path d="m-114.75 308.96-7.0484-4.2301"/>
   </g>
  </g>
  <path d="m-121.6 293.5c-0.69533 0-1.2585 0.56578-1.2585 1.2611s0.56313 1.2584 1.2585 1.2584c0.69796 0 1.2611-0.56313 1.2611-1.2584s-0.56313-1.2611-1.2611-1.2611z" fill="#fff" fill-rule="evenodd"/>
  <path d="m-121.6 293.5c-0.69533 0-1.2585 0.56578-1.2585 1.2611s0.56313 1.2584 1.2585 1.2584c0.69796 0 1.2611-0.56313 1.2611-1.2584s-0.56313-1.2611-1.2611-1.2611" fill="none" stroke="#000" stroke-linecap="round" stroke-linejoin="round" stroke-width=".26438px"/>
  <path d="m-129 307.53c-0.69532 0-1.2584 0.56313-1.2584 1.2584 0 0.69796 0.56313 1.2611 1.2584 1.2611 0.69796 0 1.2611-0.56313 1.2611-1.2611 0-0.69532-0.56313-1.2584-1.2611-1.2584z" fill="#fff" fill-rule="evenodd"/>
  <path d="m-129 307.53c-0.69532 0-1.2584 0.56313-1.2584 1.2584 0 0.69796 0.56313 1.2611 1.2584 1.2611 0.69796 0 1.2611-0.56313 1.2611-1.2611 0-0.69532-0.56313-1.2584-1.2611-1.2584" fill="none" stroke="#000" stroke-linecap="round" stroke-linejoin="round" stroke-width=".26438px"/>
  <path d="m-114.81 307.28c-0.69532 0-1.2611 0.56577-1.2611 1.2611s0.56577 1.2611 1.2611 1.2611 1.2611-0.56578 1.2611-1.2611-0.56578-1.2611-1.2611-1.2611z" fill="#fff" fill-rule="evenodd"/>
  <path d="m-114.81 307.28c-0.69532 0-1.2611 0.56577-1.2611 1.2611s0.56577 1.2611 1.2611 1.2611 1.2611-0.56578 1.2611-1.2611-0.56578-1.2611-1.2611-1.2611" fill="none" stroke="#000" stroke-linecap="round" stroke-linejoin="round" stroke-width=".26438px"/>
  <path d="m-121.87 303.21c-0.69532 0-1.2584 0.56577-1.2584 1.2611s0.56313 1.2611 1.2584 1.2611c0.69797 0 1.2611-0.56578 1.2611-1.2611s-0.56313-1.2611-1.2611-1.2611z" fill="#fff" fill-rule="evenodd"/>
  <g fill="none" stroke="#000" stroke-linejoin="round" stroke-width=".26438px">
   <path d="m-121.87 303.21c-0.69532 0-1.2584 0.56577-1.2584 1.2611s0.56313 1.2611 1.2584 1.2611c0.69797 0 1.2611-0.56578 1.2611-1.2611s-0.56313-1.2611-1.2611-1.2611" stroke-linecap="round"/>
   <g>
    <path d="m-94.748 294.82-7.667 13.483"/>
    <path d="m-102.15 308.57 14.189-0.0872"/>
    <path d="m-102.06 308.15 7.051-3.8785"/>
   </g>
  </g>
  <path d="m-94.808 293.15c-0.69532 0-1.2611 0.56313-1.2611 1.2584 0 0.69796 0.56577 1.2611 1.2611 1.2611s1.2585-0.56313 1.2585-1.2611c0-0.69532-0.56313-1.2584-1.2585-1.2584z" fill="#fff" fill-rule="evenodd"/>
  <path d="m-94.808 293.15c-0.69532 0-1.2611 0.56313-1.2611 1.2584 0 0.69796 0.56577 1.2611 1.2611 1.2611s1.2585-0.56313 1.2585-1.2611c0-0.69532-0.56313-1.2584-1.2585-1.2584" fill="none" stroke="#000" stroke-linecap="round" stroke-linejoin="round" stroke-width=".26438px"/>
  <path d="m-102.21 307.18c-0.69532 0-1.2611 0.56577-1.2611 1.2611s0.56577 1.2611 1.2611 1.2611c0.69533 0 1.2584-0.56578 1.2584-1.2611s-0.56312-1.2611-1.2584-1.2611z" fill="#fff" fill-rule="evenodd"/>
  <path d="m-102.21 307.18c-0.69532 0-1.2611 0.56577-1.2611 1.2611s0.56577 1.2611 1.2611 1.2611c0.69533 0 1.2584-0.56578 1.2584-1.2611s-0.56312-1.2611-1.2584-1.2611" fill="none" stroke="#000" stroke-linecap="round" stroke-linejoin="round" stroke-width=".26438px"/>
  <path d="m-88.024 306.93c-0.69532 0-1.2585 0.56578-1.2585 1.2611s0.56313 1.2584 1.2585 1.2584c0.69796 0 1.2611-0.56313 1.2611-1.2584s-0.56313-1.2611-1.2611-1.2611z" fill="#fff" fill-rule="evenodd"/>
  <path d="m-88.024 306.93c-0.69532 0-1.2585 0.56578-1.2585 1.2611s0.56313 1.2584 1.2585 1.2584c0.69796 0 1.2611-0.56313 1.2611-1.2584s-0.56313-1.2611-1.2611-1.2611" fill="none" stroke="#000" stroke-linecap="round" stroke-linejoin="round" stroke-width=".26438px"/>
  <path d="m-95.073 302.86c-0.69532 0-1.2611 0.56578-1.2611 1.2611s0.56577 1.2584 1.2611 1.2584c0.69532 0 1.2585-0.56313 1.2585-1.2584s-0.56313-1.2611-1.2585-1.2611z" fill="#fff" fill-rule="evenodd"/>
  <g fill="none" stroke="#000" stroke-linejoin="round" stroke-width=".26438px">
   <path d="m-95.073 302.86c-0.69532 0-1.2611 0.56578-1.2611 1.2611s0.56577 1.2584 1.2611 1.2584c0.69532 0 1.2585-0.56313 1.2585-1.2584s-0.56313-1.2611-1.2585-1.2611" stroke-linecap="round"/>
   <g>
    <path d="m-67.958 294.47-7.667 13.483"/>
    <path d="m-67.958 293.96 6.7893 14.012"/>
    <path d="m-68.222 294.75v9.1687"/>
   </g>
  </g>
  <path d="m-68.016 292.79c-0.69796 0-1.2637 0.56577-1.2637 1.2637 0 0.69268 0.56577 1.2585 1.2637 1.2585 0.69268 0 1.2585-0.56578 1.2585-1.2585 0-0.69796-0.56577-1.2637-1.2585-1.2637z" fill="#fff" fill-rule="evenodd"/>
  <path d="m-68.016 292.79c-0.69796 0-1.2637 0.56577-1.2637 1.2637 0 0.69268 0.56577 1.2585 1.2637 1.2585 0.69268 0 1.2585-0.56578 1.2585-1.2585 0-0.69796-0.56577-1.2637-1.2585-1.2637" fill="none" stroke="#000" stroke-linecap="round" stroke-linejoin="round" stroke-width=".26438px"/>
  <path d="m-75.421 306.82c-0.69532 0-1.2611 0.56577-1.2611 1.2611 0 0.69532 0.56578 1.2584 1.2611 1.2584 0.69532 0 1.2611-0.56313 1.2611-1.2584 0-0.69533-0.56577-1.2611-1.2611-1.2611z" fill="#fff" fill-rule="evenodd"/>
  <path d="m-75.421 306.82c-0.69532 0-1.2611 0.56577-1.2611 1.2611 0 0.69532 0.56578 1.2584 1.2611 1.2584 0.69532 0 1.2611-0.56313 1.2611-1.2584 0-0.69533-0.56577-1.2611-1.2611-1.2611" fill="none" stroke="#000" stroke-linecap="round" stroke-linejoin="round" stroke-width=".26438px"/>
  <path d="m-61.232 306.58c-0.69268 0-1.2585 0.56577-1.2585 1.2584 0 0.69796 0.56578 1.2637 1.2585 1.2637 0.69797 0 1.2585-0.56578 1.2585-1.2637 0-0.69268-0.56049-1.2584-1.2585-1.2584z" fill="#fff" fill-rule="evenodd"/>
  <path d="m-61.232 306.58c-0.69268 0-1.2585 0.56577-1.2585 1.2584 0 0.69796 0.56578 1.2637 1.2585 1.2637 0.69797 0 1.2585-0.56578 1.2585-1.2637 0-0.69268-0.56049-1.2584-1.2585-1.2584" fill="none" stroke="#000" stroke-linecap="round" stroke-linejoin="round" stroke-width=".26438px"/>
  <path d="m-68.28 302.51c-0.69796 0-1.2637 0.56577-1.2637 1.2584 0 0.69796 0.56578 1.2637 1.2637 1.2637 0.69268 0 1.2585-0.56578 1.2585-1.2637 0-0.69268-0.56577-1.2584-1.2585-1.2584z" fill="#fff" fill-rule="evenodd"/>
  <g fill="none" stroke="#000" stroke-linejoin="round" stroke-width=".26438px">
   <path d="m-68.28 302.51c-0.69796 0-1.2637 0.56577-1.2637 1.2584 0 0.69796 0.56578 1.2637 1.2637 1.2637 0.69268 0 1.2585-0.56578 1.2585-1.2637 0-0.69268-0.56577-1.2584-1.2585-1.2584" stroke-linecap="round"/>
   <g>
    <path d="m-34.466 308.02-14.366-0.26438"/>
    <path d="m-41.166 293.61 6.784 14.012"/>
    <path d="m-41.43 294.75v8.8144"/>
   </g>
  </g>
  <path d="m-41.229 292.44c-0.69268 0-1.2584 0.56578-1.2584 1.2584 0 0.69797 0.56577 1.2585 1.2584 1.2585 0.69797 0 1.2637-0.56049 1.2637-1.2585 0-0.69267-0.56577-1.2584-1.2637-1.2584z" fill="#fff" fill-rule="evenodd"/>
  <path d="m-41.229 292.44c-0.69268 0-1.2584 0.56578-1.2584 1.2584 0 0.69797 0.56577 1.2585 1.2584 1.2585 0.69797 0 1.2637-0.56049 1.2637-1.2585 0-0.69267-0.56577-1.2584-1.2637-1.2584" fill="none" stroke="#000" stroke-linecap="round" stroke-linejoin="round" stroke-width=".26438px"/>
  <path d="m-48.632 306.47c-0.69268 0-1.2585 0.56578-1.2585 1.2585 0 0.69796 0.56578 1.2637 1.2585 1.2637 0.69796 0 1.2637-0.56577 1.2637-1.2637 0-0.69268-0.56578-1.2585-1.2637-1.2585z" fill="#fff" fill-rule="evenodd"/>
  <path d="m-48.632 306.47c-0.69268 0-1.2585 0.56578-1.2585 1.2585 0 0.69796 0.56578 1.2637 1.2585 1.2637 0.69796 0 1.2637-0.56577 1.2637-1.2637 0-0.69268-0.56578-1.2585-1.2637-1.2585" fill="none" stroke="#000" stroke-linecap="round" stroke-linejoin="round" stroke-width=".26438px"/>
  <path d="m-34.44 306.22c-0.69796 0-1.2637 0.56577-1.2637 1.2637 0 0.69267 0.56578 1.2584 1.2637 1.2584 0.69268 0 1.2584-0.56578 1.2584-1.2584 0-0.69797-0.56577-1.2637-1.2584-1.2637z" fill="#fff" fill-rule="evenodd"/>
  <path d="m-34.44 306.22c-0.69796 0-1.2637 0.56577-1.2637 1.2637 0 0.69267 0.56578 1.2584 1.2637 1.2584 0.69268 0 1.2584-0.56578 1.2584-1.2584 0-0.69797-0.56577-1.2637-1.2584-1.2637" fill="none" stroke="#000" stroke-linecap="round" stroke-linejoin="round" stroke-width=".26438px"/>
  <path d="m-41.493 302.15c-0.69268 0-1.2584 0.56577-1.2584 1.2637 0 0.69267 0.56577 1.2584 1.2584 1.2584 0.69796 0 1.2637-0.56578 1.2637-1.2584 0-0.69797-0.56578-1.2637-1.2637-1.2637z" fill="#fff" fill-rule="evenodd"/>
  <path d="m-41.493 302.15c-0.69268 0-1.2584 0.56577-1.2584 1.2637 0 0.69267 0.56577 1.2584 1.2584 1.2584 0.69796 0 1.2637-0.56578 1.2637-1.2584 0-0.69797-0.56578-1.2637-1.2637-1.2637" fill="none" stroke="#000" stroke-linecap="round" stroke-linejoin="round" stroke-width=".26438px"/>
 </g>
</svg>
