<?xml version="1.0" encoding="UTF-8"?>
<!-- Created with Inkscape (http://www.inkscape.org/) -->
<svg width="233.62" height="136.27" version="1.1" viewBox="0 0 233.62288 136.26575" xmlns="http://www.w3.org/2000/svg" xmlns:cc="http://creativecommons.org/ns#" xmlns:dc="http://purl.org/dc/elements/1.1/" xmlns:rdf="http://www.w3.org/1999/02/22-rdf-syntax-ns#">
 <defs>
  <clipPath id="clipEmfPath1-017">
   <path d="m123.27 0.15988h16.627v18.866h-16.627z"/>
  </clipPath>
  <clipPath id="clipEmfPath2-32">
   <path d="m0 42.527h12.63v20.944h-12.63z"/>
  </clipPath>
  <clipPath id="clipEmfPath3-517">
   <path d="m29.577 127.1h14.709v19.025h-14.709z"/>
  </clipPath>
  <clipPath id="clipEmfPath4-29">
   <path d="m227.51 36.452h14.229v18.386h-14.229z"/>
  </clipPath>
  <clipPath id="clipEmfPath5-22">
   <path d="m169.47 124.38h14.389v17.746h-14.389z"/>
  </clipPath>
  <clipPath id="clipEmfPath6-41">
   <path d="m170.27 65.23h22.223v15.988h-22.223z"/>
  </clipPath>
  <clipPath id="clipEmfPath7-66">
   <path d="m112.87 49.562h18.386v15.988h-18.386z"/>
  </clipPath>
  <clipPath id="clipEmfPath8-031">
   <path d="m159.88 31.016h16.947v15.988h-16.947z"/>
  </clipPath>
  <clipPath id="clipEmfPath9-57">
   <path d="m177.46 94.168h29.098v15.988h-29.098z"/>
  </clipPath>
  <clipPath id="clipEmfPath10-97">
   <path d="m94.647 111.27h16.947v15.988h-16.947z"/>
  </clipPath>
  <clipPath id="clipEmfPath11-621">
   <path d="m20.624 78.18h22.383v15.988h-22.383z"/>
  </clipPath>
  <clipPath id="clipEmfPath12-213">
   <path d="m59.634 32.295h18.226v15.988h-18.226z"/>
  </clipPath>
  <clipPath id="clipEmfPath13-7">
   <path d="m56.597 91.61h15.668v14.549h-15.668z"/>
  </clipPath>
  <clipPath id="clipEmfPath14-8">
   <path d="m139.57 63.311h15.668v14.549h-15.668z"/>
  </clipPath>
  <clipPath id="clipEmfPath15-59">
   <path d="m89.212 77.221h22.383v14.709h-22.383z"/>
  </clipPath>
 </defs>
 <metadata>
  <rdf:RDF>
   <cc:Work rdf:about="">
    <dc:format>image/svg+xml</dc:format>
    <dc:type rdf:resource="http://purl.org/dc/dcmitype/StillImage"/>
    <dc:title/>
   </cc:Work>
  </rdf:RDF>
 </metadata>
 <g transform="matrix(3.7795 0 0 3.7795 582.67 -1148)">
  <text x="-154.36488" y="306.16199" fill="#000000" font-family="Calibri" font-size="3.8861px" font-weight="400" letter-spacing="0px" stroke-width=".26458" word-spacing="0px" style="line-height:125%" xml:space="preserve"><tspan x="0" y="0" stroke-width=".26458"><tspan dx="0" dy="0" fill="#000000" font-family="Calibri" font-size="3.8861px" font-weight="400" stroke-width=".26458"/></tspan></text>
  <path d="m-94.863 317.94h-53.934" fill="none" stroke="#000" stroke-linejoin="round" stroke-width=".26438px"/>
  <path d="m-118.92 308.97 24.059 9.2533" fill="none" stroke="#f00" stroke-linejoin="round" stroke-width=".79314px"/>
  <g transform="matrix(.26458 0 0 .26458 -154.49 302.52)" clip-path="url(#clipEmfPath1-017)">
   <text transform="translate(123.27 13.909)" fill="#000000" font-family="Calibri" font-size="14.688px" font-weight="400" letter-spacing="0px" word-spacing="0px" style="line-height:125%" xml:space="preserve"><tspan x="0" y="0" fill="#000000" font-family="Calibri" font-size="14.688px" font-weight="400"><tspan dx="0" dy="0">A</tspan><tspan dx="0" dy="0"/></tspan></text>
  </g>
  <g transform="matrix(.26458 0 0 .26458 -154.49 302.52)" clip-path="url(#clipEmfPath2-32)">
   <text transform="translate(0 56.277)" fill="#000000" font-family="Calibri" font-size="14.688px" font-weight="400" letter-spacing="0px" word-spacing="0px" style="line-height:125%" xml:space="preserve"><tspan x="0" y="0" fill="#000000" font-family="Calibri" font-size="14.688px" font-weight="400"><tspan dx="0" dy="0">E</tspan><tspan dx="0" dy="0"/></tspan></text>
  </g>
  <g transform="matrix(.26458 0 0 .26458 -154.49 302.52)" clip-path="url(#clipEmfPath3-517)">
   <text transform="translate(29.577 140.85)" fill="#000000" font-family="Calibri" font-size="14.688px" font-weight="400" letter-spacing="0px" word-spacing="0px" style="line-height:125%" xml:space="preserve"><tspan x="0" y="0" fill="#000000" font-family="Calibri" font-size="14.688px" font-weight="400"><tspan dx="0" dy="0">D</tspan><tspan dx="0" dy="0"/></tspan></text>
  </g>
  <g transform="matrix(.26458 0 0 .26458 -154.49 302.52)" clip-path="url(#clipEmfPath4-29)">
   <text transform="translate(227.51 50.201)" fill="#000000" font-family="Calibri" font-size="14.688px" font-weight="400" letter-spacing="0px" word-spacing="0px" style="line-height:125%" xml:space="preserve"><tspan x="0" y="0" fill="#000000" font-family="Calibri" font-size="14.688px" font-weight="400"><tspan dx="0" dy="0">B</tspan><tspan dx="0" dy="0"/></tspan></text>
  </g>
  <g transform="matrix(.26458 0 0 .26458 -154.49 302.52)" clip-path="url(#clipEmfPath5-22)">
   <text transform="translate(169.47 138.13)" fill="#000000" font-family="Calibri" font-size="14.688px" font-weight="400" letter-spacing="0px" word-spacing="0px" style="line-height:125%" xml:space="preserve"><tspan x="0" y="0" fill="#000000" font-family="Calibri" font-size="14.688px" font-weight="400"><tspan dx="0" dy="0">C</tspan><tspan dx="0" dy="0"/></tspan></text>
  </g>
  <g fill="none" stroke-linejoin="round">
   <path d="m-95.128 318.21-47.588 15.863" stroke="#000" stroke-width=".26438px"/>
   <path d="m-119.19 308.44-22.737 25.381" stroke="#000" stroke-width=".26438px"/>
   <path d="m-110.73 333.56h-31.461" stroke="#f00" stroke-width=".79314px"/>
   <path d="m-95.392 319.02-15.07 15.07" stroke="#000" stroke-width=".26438px"/>
   <path d="m-141.92 333.56-5.8164-15.598" stroke="#000" stroke-width=".26438px"/>
   <path d="m-119.19 308.71 8.7246 26.702" stroke="#f00" stroke-width=".79314px"/>
   <path d="m-119.72 308.97-28.289 8.4602" stroke="#f00" stroke-width=".79314px"/>
   <path d="m-148.27 317.96 38.071 15.863" stroke="#000" stroke-width=".26438px"/>
  </g>
  <path d="m-119.25 307.28c-0.69532 0-1.2584 0.56577-1.2584 1.2611s0.56313 1.2584 1.2584 1.2584c0.69796 0 1.2611-0.56313 1.2611-1.2584s-0.56313-1.2611-1.2611-1.2611z" fill="#fff" fill-rule="evenodd"/>
  <path d="m-119.25 307.28c-0.69532 0-1.2584 0.56577-1.2584 1.2611s0.56313 1.2584 1.2584 1.2584c0.69796 0 1.2611-0.56313 1.2611-1.2584s-0.56313-1.2611-1.2611-1.2611" fill="none" stroke="#000" stroke-linecap="round" stroke-linejoin="round" stroke-width=".26438px"/>
  <path d="m-141.72 332.5c-0.69532 0-1.2584 0.56577-1.2584 1.2611s0.56313 1.2584 1.2584 1.2584c0.69797 0 1.2611-0.56313 1.2611-1.2584s-0.56313-1.2611-1.2611-1.2611z" fill="#fff" fill-rule="evenodd"/>
  <path d="m-141.72 332.5c-0.69532 0-1.2584 0.56577-1.2584 1.2611s0.56313 1.2584 1.2584 1.2584c0.69797 0 1.2611-0.56313 1.2611-1.2584s-0.56313-1.2611-1.2611-1.2611" fill="none" stroke="#000" stroke-linecap="round" stroke-linejoin="round" stroke-width=".26438px"/>
  <path d="m-110.53 332.79c-0.69532 0-1.2584 0.56313-1.2584 1.2584 0 0.69796 0.56313 1.2611 1.2584 1.2611 0.69796 0 1.2611-0.56313 1.2611-1.2611 0-0.69532-0.56313-1.2584-1.2611-1.2584z" fill="#fff" fill-rule="evenodd"/>
  <path d="m-110.53 332.79c-0.69532 0-1.2584 0.56313-1.2584 1.2584 0 0.69796 0.56313 1.2611 1.2584 1.2611 0.69796 0 1.2611-0.56313 1.2611-1.2611 0-0.69532-0.56313-1.2584-1.2611-1.2584" fill="none" stroke="#000" stroke-linecap="round" stroke-linejoin="round" stroke-width=".26438px"/>
  <path d="m-148.07 316.9c-0.69532 0-1.2584 0.56577-1.2584 1.2611s0.56313 1.2584 1.2584 1.2584c0.69797 0 1.2611-0.56313 1.2611-1.2584s-0.56313-1.2611-1.2611-1.2611z" fill="#fff" fill-rule="evenodd"/>
  <path d="m-148.07 316.9c-0.69532 0-1.2584 0.56577-1.2584 1.2611s0.56313 1.2584 1.2584 1.2584c0.69797 0 1.2611-0.56313 1.2611-1.2584s-0.56313-1.2611-1.2611-1.2611" fill="none" stroke="#000" stroke-linecap="round" stroke-linejoin="round" stroke-width=".26438px"/>
  <path d="m-94.927 316.9c-0.69532 0-1.2585 0.56577-1.2585 1.2611s0.56313 1.2584 1.2585 1.2584c0.69796 0 1.2611-0.56313 1.2611-1.2584s-0.56313-1.2611-1.2611-1.2611z" fill="#fff" fill-rule="evenodd"/>
  <path d="m-94.927 316.9c-0.69532 0-1.2585 0.56577-1.2585 1.2611s0.56313 1.2584 1.2585 1.2584c0.69796 0 1.2611-0.56313 1.2611-1.2584s-0.56313-1.2611-1.2611-1.2611" fill="none" stroke="#000" stroke-linecap="round" stroke-linejoin="round" stroke-width=".26438px"/>
  <path d="m-109.49 319.76v4.2301h5.9063v-4.2301z" fill="#fff" fill-rule="evenodd"/>
  <g transform="matrix(.26458 0 0 .26458 -154.49 302.52)" clip-path="url(#clipEmfPath6-41)">
   <text transform="translate(172.19 77.86)" fill="#000000" font-family="Calibri" font-size="13.25px" font-weight="400" letter-spacing="0px" word-spacing="0px" style="line-height:125%" xml:space="preserve"><tspan x="0" y="0" fill="#000000" font-family="Calibri" font-size="13.25px" font-weight="400"><tspan dx="0" dy="0">$14</tspan><tspan dx="0" dy="0"/></tspan></text>
  </g>
  <path d="m-124.65 315.62v4.2301h4.8461v-4.2301z" fill="#fff" fill-rule="evenodd"/>
  <g transform="matrix(.26458 0 0 .26458 -154.49 302.52)" clip-path="url(#clipEmfPath7-66)">
   <text transform="translate(114.79 62.192)" fill="#000000" font-family="Calibri" font-size="13.25px" font-weight="400" letter-spacing="0px" word-spacing="0px" style="line-height:125%" xml:space="preserve"><tspan x="0" y="0" fill="#000000" font-family="Calibri" font-size="13.25px" font-weight="400"><tspan dx="0" dy="0">$6</tspan><tspan dx="0" dy="0"/></tspan></text>
  </g>
  <path d="m-112.23 310.68v4.2301h4.4945v-4.2301z" fill="#fff" fill-rule="evenodd"/>
  <g transform="matrix(.26458 0 0 .26458 -154.49 302.52)" clip-path="url(#clipEmfPath8-031)">
   <text transform="translate(161.8 43.647)" fill="#000000" font-family="Calibri" font-size="13.25px" font-weight="400" letter-spacing="0px" word-spacing="0px" style="line-height:125%" xml:space="preserve"><tspan x="0" y="0" fill="#000000" font-family="Calibri" font-size="13.25px" font-weight="400"><tspan dx="0" dy="0">$4</tspan><tspan dx="0" dy="0"/></tspan></text>
  </g>
  <path d="m-107.55 327.43v4.2301h7.667v-4.2301z" fill="#fff" fill-rule="evenodd"/>
  <g transform="matrix(.26458 0 0 .26458 -154.49 302.52)" clip-path="url(#clipEmfPath9-57)">
   <text transform="translate(179.38 106.8)" fill="#000000" font-family="Calibri" font-size="13.25px" font-weight="400" letter-spacing="0px" word-spacing="0px" style="line-height:125%" xml:space="preserve"><tspan x="0" y="0" fill="#000000" font-family="Calibri" font-size="13.25px" font-weight="400"><tspan dx="0" dy="0">$10</tspan><tspan dx="0" dy="0"/></tspan></text>
  </g>
  <path d="m-129.5 331.92v4.2301h4.4945v-4.2301z" fill="#fff" fill-rule="evenodd"/>
  <g transform="matrix(.26458 0 0 .26458 -154.49 302.52)" clip-path="url(#clipEmfPath10-97)">
   <text transform="translate(96.566 123.9)" fill="#000000" font-family="Calibri" font-size="13.25px" font-weight="400" letter-spacing="0px" word-spacing="0px" style="line-height:125%" xml:space="preserve"><tspan x="0" y="0" fill="#000000" font-family="Calibri" font-size="13.25px" font-weight="400"><tspan dx="0" dy="0">$7</tspan><tspan dx="0" dy="0"/></tspan></text>
  </g>
  <path d="m-149.06 323.2v4.2301h5.9036v-4.2301z" fill="#fff" fill-rule="evenodd"/>
  <g transform="matrix(.26458 0 0 .26458 -154.49 302.52)" clip-path="url(#clipEmfPath11-621)">
   <text transform="translate(22.543 90.81)" fill="#000000" font-family="Calibri" font-size="13.25px" font-weight="400" letter-spacing="0px" word-spacing="0px" style="line-height:125%" xml:space="preserve"><tspan x="0" y="0" fill="#000000" font-family="Calibri" font-size="13.25px" font-weight="400"><tspan dx="0" dy="0">$13</tspan><tspan dx="0" dy="0"/></tspan></text>
  </g>
  <path d="m-138.75 311.03v4.2301h4.8461v-4.2301z" fill="#fff" fill-rule="evenodd"/>
  <g transform="matrix(.26458 0 0 .26458 -154.49 302.52)" clip-path="url(#clipEmfPath12-213)">
   <text transform="translate(61.553 44.926)" fill="#000000" font-family="Calibri" font-size="13.25px" font-weight="400" letter-spacing="0px" word-spacing="0px" style="line-height:125%" xml:space="preserve"><tspan x="0" y="0" fill="#000000" font-family="Calibri" font-size="13.25px" font-weight="400"><tspan dx="0" dy="0">$5</tspan><tspan dx="0" dy="0"/></tspan></text>
  </g>
  <path d="m-139.54 326.72v3.8785h4.1402v-3.8785z" fill="#fff" fill-rule="evenodd"/>
  <g transform="matrix(.26458 0 0 .26458 -154.49 302.52)" clip-path="url(#clipEmfPath13-7)">
   <text transform="translate(58.515 104.24)" fill="#000000" font-family="Calibri" font-size="13.25px" font-weight="400" letter-spacing="0px" word-spacing="0px" style="line-height:125%" xml:space="preserve"><tspan x="0" y="0" fill="#000000" font-family="Calibri" font-size="13.25px" font-weight="400"><tspan dx="0" dy="0">$9</tspan><tspan dx="0" dy="0"/></tspan></text>
  </g>
  <path d="m-117.6 319.23v3.8785h4.1402v-3.8785z" fill="#fff" fill-rule="evenodd"/>
  <g transform="matrix(.26458 0 0 .26458 -154.49 302.52)" clip-path="url(#clipEmfPath14-8)">
   <text transform="translate(141.49 75.942)" fill="#000000" font-family="Calibri" font-size="13.25px" font-weight="400" letter-spacing="0px" word-spacing="0px" style="line-height:125%" xml:space="preserve"><tspan x="0" y="0" fill="#000000" font-family="Calibri" font-size="13.25px" font-weight="400"><tspan dx="0" dy="0">$8</tspan><tspan dx="0" dy="0"/></tspan></text>
  </g>
  <path d="m-130.91 322.93v3.8785h5.9063v-3.8785z" fill="#fff" fill-rule="evenodd"/>
  <g transform="matrix(.26458 0 0 .26458 -154.49 302.52)" clip-path="url(#clipEmfPath15-59)">
   <text transform="translate(91.13 89.851)" fill="#000000" font-family="Calibri" font-size="13.25px" font-weight="400" letter-spacing="0px" word-spacing="0px" style="line-height:125%" xml:space="preserve"><tspan x="0" y="0" fill="#000000" font-family="Calibri" font-size="13.25px" font-weight="400"><tspan dx="0" dy="0">$11</tspan><tspan dx="0" dy="0"/></tspan></text>
  </g>
 </g>
</svg>
