<?xml version="1.0" encoding="UTF-8"?>
<!-- Created with Inkscape (http://www.inkscape.org/) -->
<svg width="234.23" height="181.85" version="1.1" viewBox="0 0 234.23251 181.84922" xmlns="http://www.w3.org/2000/svg" xmlns:cc="http://creativecommons.org/ns#" xmlns:dc="http://purl.org/dc/elements/1.1/" xmlns:rdf="http://www.w3.org/1999/02/22-rdf-syntax-ns#">
 <defs>
  <clipPath id="clipEmfPath1-03">
   <path d="m66.189 2.2383h63.951v23.022h-63.951z"/>
  </clipPath>
  <clipPath id="clipEmfPath2-07">
   <path d="m123.11 0.15988h63.951v23.022h-63.951z"/>
  </clipPath>
  <clipPath id="clipEmfPath3-257">
   <path d="m164.03 20.145h63.951v23.022h-63.951z"/>
  </clipPath>
  <clipPath id="clipEmfPath4-89">
   <path d="m190.09 75.142h63.951v23.022h-63.951z"/>
  </clipPath>
  <clipPath id="clipEmfPath5-39">
   <path d="m174.11 144.05h63.951v23.022h-63.951z"/>
  </clipPath>
  <clipPath id="clipEmfPath6-60">
   <path d="m141.01 169.15h63.951v22.862h-63.951z"/>
  </clipPath>
  <clipPath id="clipEmfPath7-93">
   <path d="m56.117 171.07h63.951v23.022h-63.951z"/>
  </clipPath>
  <clipPath id="clipEmfPath8-46">
   <path d="m4.1568 145.17h63.951v22.862h-63.951z"/>
  </clipPath>
  <clipPath id="clipEmfPath9-35">
   <path d="m0.15988 78.18h63.951v23.022h-63.951z"/>
  </clipPath>
  <clipPath id="clipEmfPath10-93">
   <path d="m7.1945 32.135h63.951v23.022h-63.951z"/>
  </clipPath>
 </defs>
 <metadata>
  <rdf:RDF>
   <cc:Work rdf:about="">
    <dc:format>image/svg+xml</dc:format>
    <dc:type rdf:resource="http://purl.org/dc/dcmitype/StillImage"/>
    <dc:title/>
   </cc:Work>
  </rdf:RDF>
 </metadata>
 <g transform="matrix(3.7795 0 0 3.7795 619.14 -1457)">
  <text x="-163.97795" y="388.03354" fill="#000000" font-family="Calibri" font-size="3.8861px" font-weight="400" letter-spacing="0px" stroke-width=".26458" word-spacing="0px" style="line-height:125%" xml:space="preserve"><tspan x="0" y="0" stroke-width=".26458"><tspan dx="0" dy="0" fill="#000000" font-family="Calibri" font-size="3.8861px" font-weight="400" stroke-width=".26458"/></tspan></text>
  <g fill="none" stroke="#000" stroke-linejoin="round" stroke-width=".26438px">
   <path d="m-113.36 409.24-26.086 19.387"/>
   <path d="m-150.37 421.58v-23.971"/>
   <path d="m-127.73 390.18-22.472 7.4026"/>
   <path d="m-150.2 421.64-3.1726-12.426"/>
   <path d="m-113.45 408.95-13.748 19.829"/>
   <path d="m-153.55 409.28h39.48"/>
  </g>
  <path d="m-139.42 389.29c-0.69532 0-1.2611 0.56578-1.2611 1.2611s0.56578 1.2611 1.2611 1.2611 1.2611-0.56577 1.2611-1.2611-0.56577-1.2611-1.2611-1.2611z" fill="#fff" fill-rule="evenodd"/>
  <path d="m-139.42 389.29c-0.69532 0-1.2611 0.56578-1.2611 1.2611s0.56578 1.2611 1.2611 1.2611 1.2611-0.56577 1.2611-1.2611-0.56577-1.2611-1.2611-1.2611" fill="none" stroke="#000" stroke-linecap="round" stroke-linejoin="round" stroke-width=".26438px"/>
  <path d="m-127.79 389.03c-0.69532 0-1.2611 0.56578-1.2611 1.2611s0.56577 1.2611 1.2611 1.2611 1.2611-0.56577 1.2611-1.2611-0.56578-1.2611-1.2611-1.2611z" fill="#fff" fill-rule="evenodd"/>
  <path d="m-127.79 389.03c-0.69532 0-1.2611 0.56578-1.2611 1.2611s0.56577 1.2611 1.2611 1.2611 1.2611-0.56577 1.2611-1.2611-0.56578-1.2611-1.2611-1.2611" fill="none" stroke="#000" stroke-linecap="round" stroke-linejoin="round" stroke-width=".26438px"/>
  <path d="m-117.48 395.9c-0.69532 0-1.2611 0.56577-1.2611 1.2611s0.56577 1.2611 1.2611 1.2611 1.2611-0.56578 1.2611-1.2611-0.56578-1.2611-1.2611-1.2611z" fill="#fff" fill-rule="evenodd"/>
  <path d="m-117.48 395.9c-0.69532 0-1.2611 0.56577-1.2611 1.2611s0.56577 1.2611 1.2611 1.2611 1.2611-0.56578 1.2611-1.2611-0.56578-1.2611-1.2611-1.2611" fill="none" stroke="#000" stroke-linecap="round" stroke-linejoin="round" stroke-width=".26438px"/>
  <path d="m-150.26 396.69c-0.69532 0-1.2611 0.56577-1.2611 1.2611 0 0.69533 0.56578 1.2611 1.2611 1.2611s1.2611-0.56577 1.2611-1.2611c0-0.69532-0.56577-1.2611-1.2611-1.2611z" fill="#fff" fill-rule="evenodd"/>
  <path d="m-150.26 396.69c-0.69532 0-1.2611 0.56577-1.2611 1.2611 0 0.69533 0.56578 1.2611 1.2611 1.2611s1.2611-0.56577 1.2611-1.2611c0-0.69532-0.56577-1.2611-1.2611-1.2611" fill="none" stroke="#000" stroke-linecap="round" stroke-linejoin="round" stroke-width=".26438px"/>
  <path d="m-113.51 408.06c-0.69532 0-1.2611 0.56578-1.2611 1.2611s0.56577 1.2611 1.2611 1.2611 1.2611-0.56577 1.2611-1.2611-0.56578-1.2611-1.2611-1.2611z" fill="#fff" fill-rule="evenodd"/>
  <path d="m-113.51 408.06c-0.69532 0-1.2611 0.56578-1.2611 1.2611s0.56577 1.2611 1.2611 1.2611 1.2611-0.56577 1.2611-1.2611-0.56578-1.2611-1.2611-1.2611" fill="none" stroke="#000" stroke-linecap="round" stroke-linejoin="round" stroke-width=".26438px"/>
  <path d="m-153.43 408.06c-0.69532 0-1.2611 0.56578-1.2611 1.2611s0.56577 1.2611 1.2611 1.2611 1.2611-0.56577 1.2611-1.2611-0.56578-1.2611-1.2611-1.2611z" fill="#fff" fill-rule="evenodd"/>
  <path d="m-153.43 408.06c-0.69532 0-1.2611 0.56578-1.2611 1.2611s0.56577 1.2611 1.2611 1.2611 1.2611-0.56577 1.2611-1.2611-0.56578-1.2611-1.2611-1.2611" fill="none" stroke="#000" stroke-linecap="round" stroke-linejoin="round" stroke-width=".26438px"/>
  <path d="m-149.99 420.49c-0.69532 0-1.2611 0.56577-1.2611 1.2611s0.56578 1.2611 1.2611 1.2611 1.2611-0.56578 1.2611-1.2611-0.56577-1.2611-1.2611-1.2611z" fill="#fff" fill-rule="evenodd"/>
  <path d="m-149.99 420.49c-0.69532 0-1.2611 0.56577-1.2611 1.2611s0.56578 1.2611 1.2611 1.2611 1.2611-0.56578 1.2611-1.2611-0.56577-1.2611-1.2611-1.2611" fill="none" stroke="#000" stroke-linecap="round" stroke-linejoin="round" stroke-width=".26438px"/>
  <path d="m-139.42 427.36c-0.69532 0-1.2611 0.56578-1.2611 1.2611s0.56578 1.2611 1.2611 1.2611 1.2611-0.56577 1.2611-1.2611-0.56577-1.2611-1.2611-1.2611z" fill="#fff" fill-rule="evenodd"/>
  <path d="m-139.42 427.36c-0.69532 0-1.2611 0.56578-1.2611 1.2611s0.56578 1.2611 1.2611 1.2611 1.2611-0.56577 1.2611-1.2611-0.56577-1.2611-1.2611-1.2611" fill="none" stroke="#000" stroke-linecap="round" stroke-linejoin="round" stroke-width=".26438px"/>
  <path d="m-127.26 427.1c-0.69532 0-1.2611 0.56578-1.2611 1.2611s0.56577 1.2611 1.2611 1.2611c0.69533 0 1.2611-0.56577 1.2611-1.2611s-0.56577-1.2611-1.2611-1.2611z" fill="#fff" fill-rule="evenodd"/>
  <path d="m-127.26 427.1c-0.69532 0-1.2611 0.56578-1.2611 1.2611s0.56577 1.2611 1.2611 1.2611c0.69533 0 1.2611-0.56577 1.2611-1.2611s-0.56577-1.2611-1.2611-1.2611" fill="none" stroke="#000" stroke-linecap="round" stroke-linejoin="round" stroke-width=".26438px"/>
  <path d="m-116.95 420.22c-0.69532 0-1.2611 0.56577-1.2611 1.2611s0.56577 1.2611 1.2611 1.2611 1.2611-0.56578 1.2611-1.2611-0.56578-1.2611-1.2611-1.2611z" fill="#fff" fill-rule="evenodd"/>
  <path d="m-116.95 420.22c-0.69532 0-1.2611 0.56577-1.2611 1.2611s0.56577 1.2611 1.2611 1.2611 1.2611-0.56578 1.2611-1.2611-0.56578-1.2611-1.2611-1.2611" fill="none" stroke="#000" stroke-linecap="round" stroke-linejoin="round" stroke-width=".26438px"/>
  <g transform="matrix(.26458 0 0 .26458 -163.98 384.4)" clip-path="url(#clipEmfPath1-03)">
   <text transform="translate(66.189 14.869)" fill="#000000" font-family="Calibri" font-size="13.25px" font-weight="400" letter-spacing="0px" word-spacing="0px" style="line-height:125%" xml:space="preserve"><tspan x="0" y="0" fill="#000000" font-family="Calibri" font-size="13.25px" font-weight="400"><tspan dx="0" dy="0">Ashland</tspan><tspan dx="0" dy="0"/></tspan></text>
  </g>
  <g transform="matrix(.26458 0 0 .26458 -163.98 384.4)" clip-path="url(#clipEmfPath2-07)">
   <text transform="translate(123.11 12.79)" fill="#000000" font-family="Calibri" font-size="13.25px" font-weight="400" letter-spacing="0px" word-spacing="0px" style="line-height:125%" xml:space="preserve"><tspan x="0" y="0" fill="#000000" font-family="Calibri" font-size="13.25px" font-weight="400"><tspan dx="0" dy="0">As</tspan><tspan dx="0" dy="0">toria</tspan><tspan dx="0" dy="0"/></tspan></text>
  </g>
  <g transform="matrix(.26458 0 0 .26458 -163.98 384.4)" clip-path="url(#clipEmfPath3-257)">
   <text transform="translate(164.03 32.775)" fill="#000000" font-family="Calibri" font-size="13.25px" font-weight="400" letter-spacing="0px" word-spacing="0px" style="line-height:125%" xml:space="preserve"><tspan x="0" y="0" fill="#000000" font-family="Calibri" font-size="13.25px" font-weight="400"><tspan dx="0" dy="0">Bend</tspan><tspan dx="0" dy="0"/></tspan></text>
  </g>
  <g transform="matrix(.26458 0 0 .26458 -163.98 384.4)" clip-path="url(#clipEmfPath4-89)">
   <text transform="translate(190.09 87.773)" fill="#000000" font-family="Calibri" font-size="13.25px" font-weight="400" letter-spacing="0px" word-spacing="0px" style="line-height:125%" xml:space="preserve"><tspan x="0" y="0" fill="#000000" font-family="Calibri" font-size="13.25px" font-weight="400"><tspan dx="0" dy="0">Corvallis</tspan><tspan dx="0" dy="0"/></tspan></text>
  </g>
  <g transform="matrix(.26458 0 0 .26458 -163.98 384.4)" clip-path="url(#clipEmfPath5-39)">
   <text transform="translate(174.11 156.68)" fill="#000000" font-family="Calibri" font-size="13.25px" font-weight="400" letter-spacing="0px" word-spacing="0px" style="line-height:125%" xml:space="preserve"><tspan x="0" y="0" fill="#000000" font-family="Calibri" font-size="13.25px" font-weight="400"><tspan dx="0" dy="0">Crater Lk</tspan><tspan dx="0" dy="0"/></tspan></text>
  </g>
  <g transform="matrix(.26458 0 0 .26458 -163.98 384.4)" clip-path="url(#clipEmfPath6-60)">
   <text transform="translate(141.01 181.78)" fill="#000000" font-family="Calibri" font-size="13.25px" font-weight="400" letter-spacing="0px" word-spacing="0px" style="line-height:125%" xml:space="preserve"><tspan x="0" y="0" fill="#000000" font-family="Calibri" font-size="13.25px" font-weight="400"><tspan dx="0" dy="0">Eugene</tspan><tspan dx="0" dy="0"/></tspan></text>
  </g>
  <g transform="matrix(.26458 0 0 .26458 -163.98 384.4)" clip-path="url(#clipEmfPath7-93)">
   <text transform="translate(56.117 183.7)" fill="#000000" font-family="Calibri" font-size="13.25px" font-weight="400" letter-spacing="0px" word-spacing="0px" style="line-height:125%" xml:space="preserve"><tspan x="0" y="0" fill="#000000" font-family="Calibri" font-size="13.25px" font-weight="400"><tspan dx="0" dy="0">Newport</tspan><tspan dx="0" dy="0"/></tspan></text>
  </g>
  <g transform="matrix(.26458 0 0 .26458 -163.98 384.4)" clip-path="url(#clipEmfPath8-46)">
   <text transform="translate(4.1568 157.8)" fill="#000000" font-family="Calibri" font-size="13.25px" font-weight="400" letter-spacing="0px" word-spacing="0px" style="line-height:125%" xml:space="preserve"><tspan x="0" y="0" fill="#000000" font-family="Calibri" font-size="13.25px" font-weight="400"><tspan dx="0" dy="0">Portland</tspan><tspan dx="0" dy="0"/></tspan></text>
  </g>
  <g transform="matrix(.26458 0 0 .26458 -163.98 384.4)" clip-path="url(#clipEmfPath9-35)">
   <text transform="translate(.15988 90.81)" fill="#000000" font-family="Calibri" font-size="13.25px" font-weight="400" letter-spacing="0px" word-spacing="0px" style="line-height:125%" xml:space="preserve"><tspan x="0" y="0" fill="#000000" font-family="Calibri" font-size="13.25px" font-weight="400"><tspan dx="0" dy="0">Salem</tspan><tspan dx="0" dy="0"/></tspan></text>
  </g>
  <g transform="matrix(.26458 0 0 .26458 -163.98 384.4)" clip-path="url(#clipEmfPath10-93)">
   <text transform="translate(7.1945 44.766)" fill="#000000" font-family="Calibri" font-size="13.25px" font-weight="400" letter-spacing="0px" word-spacing="0px" style="line-height:125%" xml:space="preserve"><tspan x="0" y="0" fill="#000000" font-family="Calibri" font-size="13.25px" font-weight="400"><tspan dx="0" dy="0">Seaside</tspan><tspan dx="0" dy="0"/></tspan></text>
  </g>
 </g>
</svg>
