<?xml version="1.0" encoding="UTF-8"?>
<!-- Created with Inkscape (http://www.inkscape.org/) -->
<svg width="234.23" height="181.85" version="1.1" viewBox="0 0 234.23251 181.84922" xmlns="http://www.w3.org/2000/svg" xmlns:cc="http://creativecommons.org/ns#" xmlns:dc="http://purl.org/dc/elements/1.1/" xmlns:rdf="http://www.w3.org/1999/02/22-rdf-syntax-ns#">
 <defs>
  <clipPath id="clipEmfPath1-230">
   <path d="m66.189 1.9185h63.951v23.022h-63.951z"/>
  </clipPath>
  <clipPath id="clipEmfPath2-63">
   <path d="m123.11 0h63.951v23.022h-63.951z"/>
  </clipPath>
  <clipPath id="clipEmfPath3-18">
   <path d="m164.03 19.985h63.951v23.022h-63.951z"/>
  </clipPath>
  <clipPath id="clipEmfPath4-362">
   <path d="m190.09 74.982h63.951v22.862h-63.951z"/>
  </clipPath>
  <clipPath id="clipEmfPath5-75">
   <path d="m174.11 143.89h63.951v23.022h-63.951z"/>
  </clipPath>
  <clipPath id="clipEmfPath6-79">
   <path d="m141.17 168.83h63.951v23.022h-63.951z"/>
  </clipPath>
  <clipPath id="clipEmfPath7-08">
   <path d="m56.117 170.91h63.951v22.862h-63.951z"/>
  </clipPath>
  <clipPath id="clipEmfPath8-63">
   <path d="m4.1568 144.85h63.951v23.022h-63.951z"/>
  </clipPath>
  <clipPath id="clipEmfPath9-22">
   <path d="m0.15988 77.86h63.951v23.022h-63.951z"/>
  </clipPath>
  <clipPath id="clipEmfPath10-19">
   <path d="m7.1945 31.975h63.951v23.022h-63.951z"/>
  </clipPath>
 </defs>
 <metadata>
  <rdf:RDF>
   <cc:Work rdf:about="">
    <dc:format>image/svg+xml</dc:format>
    <dc:type rdf:resource="http://purl.org/dc/dcmitype/StillImage"/>
    <dc:title/>
   </cc:Work>
  </rdf:RDF>
 </metadata>
 <g transform="matrix(3.7795 0 0 3.7795 619.14 -1818.7)">
  <text x="-163.97795" y="535.02509" fill="#000000" font-family="Calibri" font-size="3.8861px" font-weight="400" letter-spacing="0px" stroke-width=".26458" word-spacing="0px" style="line-height:125%" xml:space="preserve"><tspan x="0" y="0" stroke-width=".26458"><tspan dx="0" dy="0" fill="#000000" font-family="Calibri" font-size="3.8861px" font-weight="400" stroke-width=".26458"/></tspan></text>
  <g fill="none" stroke="#000" stroke-linejoin="round" stroke-width=".26438px">
   <path d="m-113.34 504.88-26.084 19.387"/>
   <path d="m-150.36 517.22v-23.969"/>
   <path d="m-139.43 486.2 22.56 31.374"/>
   <path d="m-117.57 492.89-9.8693 31.022"/>
   <path d="m-139.78 486.2 12.339 37.719"/>
   <path d="m-127.71 485.83-22.472 7.4026"/>
   <path d="m-150.18 517.29-3.1726-12.426"/>
   <path d="m-113.43 504.6-13.748 19.829"/>
   <path d="m-153.53 504.93h39.483"/>
  </g>
  <path d="m-139.4 484.95c-0.69533 0-1.2611 0.56313-1.2611 1.2584 0 0.69797 0.56577 1.2611 1.2611 1.2611 0.69532 0 1.2584-0.56313 1.2584-1.2611 0-0.69532-0.56313-1.2584-1.2584-1.2584z" fill="#fff" fill-rule="evenodd"/>
  <path d="m-139.4 484.95c-0.69533 0-1.2611 0.56313-1.2611 1.2584 0 0.69797 0.56577 1.2611 1.2611 1.2611 0.69532 0 1.2584-0.56313 1.2584-1.2611 0-0.69532-0.56313-1.2584-1.2584-1.2584" fill="none" stroke="#000" stroke-linecap="round" stroke-linejoin="round" stroke-width=".26438px"/>
  <path d="m-127.77 484.68c-0.69532 0-1.2611 0.56313-1.2611 1.2584 0 0.69797 0.56578 1.2611 1.2611 1.2611s1.2584-0.56313 1.2584-1.2611c0-0.69532-0.56313-1.2584-1.2584-1.2584z" fill="#fff" fill-rule="evenodd"/>
  <path d="m-127.77 484.68c-0.69532 0-1.2611 0.56313-1.2611 1.2584 0 0.69797 0.56578 1.2611 1.2611 1.2611s1.2584-0.56313 1.2584-1.2611c0-0.69532-0.56313-1.2584-1.2584-1.2584" fill="none" stroke="#000" stroke-linecap="round" stroke-linejoin="round" stroke-width=".26438px"/>
  <path d="m-117.46 491.56c-0.69532 0-1.2611 0.56313-1.2611 1.2584 0 0.69796 0.56578 1.2611 1.2611 1.2611s1.2584-0.56313 1.2584-1.2611c0-0.69532-0.56313-1.2584-1.2584-1.2584z" fill="#fff" fill-rule="evenodd"/>
  <path d="m-117.46 491.56c-0.69532 0-1.2611 0.56313-1.2611 1.2584 0 0.69796 0.56578 1.2611 1.2611 1.2611s1.2584-0.56313 1.2584-1.2611c0-0.69532-0.56313-1.2584-1.2584-1.2584" fill="none" stroke="#000" stroke-linecap="round" stroke-linejoin="round" stroke-width=".26438px"/>
  <path d="m-150.24 492.35c-0.69532 0-1.2611 0.56313-1.2611 1.2584 0 0.69796 0.56577 1.2611 1.2611 1.2611s1.2585-0.56313 1.2585-1.2611c0-0.69532-0.56314-1.2584-1.2585-1.2584z" fill="#fff" fill-rule="evenodd"/>
  <path d="m-150.24 492.35c-0.69532 0-1.2611 0.56313-1.2611 1.2584 0 0.69796 0.56577 1.2611 1.2611 1.2611s1.2585-0.56313 1.2585-1.2611c0-0.69532-0.56314-1.2584-1.2585-1.2584" fill="none" stroke="#000" stroke-linecap="round" stroke-linejoin="round" stroke-width=".26438px"/>
  <path d="m-113.49 503.72c-0.69532 0-1.2611 0.56313-1.2611 1.2584 0 0.69797 0.56578 1.2611 1.2611 1.2611s1.2584-0.56313 1.2584-1.2611c0-0.69532-0.56313-1.2584-1.2584-1.2584z" fill="#fff" fill-rule="evenodd"/>
  <path d="m-113.49 503.72c-0.69532 0-1.2611 0.56313-1.2611 1.2584 0 0.69797 0.56578 1.2611 1.2611 1.2611s1.2584-0.56313 1.2584-1.2611c0-0.69532-0.56313-1.2584-1.2584-1.2584" fill="none" stroke="#000" stroke-linecap="round" stroke-linejoin="round" stroke-width=".26438px"/>
  <path d="m-153.41 503.72c-0.69532 0-1.2611 0.56313-1.2611 1.2584 0 0.69797 0.56578 1.2611 1.2611 1.2611s1.2584-0.56313 1.2584-1.2611c0-0.69532-0.56313-1.2584-1.2584-1.2584z" fill="#fff" fill-rule="evenodd"/>
  <path d="m-153.41 503.72c-0.69532 0-1.2611 0.56313-1.2611 1.2584 0 0.69797 0.56578 1.2611 1.2611 1.2611s1.2584-0.56313 1.2584-1.2611c0-0.69532-0.56313-1.2584-1.2584-1.2584" fill="none" stroke="#000" stroke-linecap="round" stroke-linejoin="round" stroke-width=".26438px"/>
  <path d="m-149.98 516.14c-0.69532 0-1.2611 0.56312-1.2611 1.2584 0 0.69796 0.56577 1.2611 1.2611 1.2611 0.69533 0 1.2585-0.56313 1.2585-1.2611 0-0.69533-0.56313-1.2584-1.2585-1.2584z" fill="#fff" fill-rule="evenodd"/>
  <path d="m-149.98 516.14c-0.69532 0-1.2611 0.56312-1.2611 1.2584 0 0.69796 0.56577 1.2611 1.2611 1.2611 0.69533 0 1.2585-0.56313 1.2585-1.2611 0-0.69533-0.56313-1.2584-1.2585-1.2584" fill="none" stroke="#000" stroke-linecap="round" stroke-linejoin="round" stroke-width=".26438px"/>
  <path d="m-139.4 523.02c-0.69533 0-1.2611 0.56313-1.2611 1.2584 0 0.69797 0.56577 1.2611 1.2611 1.2611 0.69532 0 1.2584-0.56312 1.2584-1.2611 0-0.69532-0.56313-1.2584-1.2584-1.2584z" fill="#fff" fill-rule="evenodd"/>
  <path d="m-139.4 523.02c-0.69533 0-1.2611 0.56313-1.2611 1.2584 0 0.69797 0.56577 1.2611 1.2611 1.2611 0.69532 0 1.2584-0.56312 1.2584-1.2611 0-0.69532-0.56313-1.2584-1.2584-1.2584" fill="none" stroke="#000" stroke-linecap="round" stroke-linejoin="round" stroke-width=".26438px"/>
  <path d="m-127.24 522.75c-0.69532 0-1.2611 0.56313-1.2611 1.2584 0 0.69796 0.56578 1.2611 1.2611 1.2611s1.2584-0.56314 1.2584-1.2611c0-0.69532-0.56313-1.2584-1.2584-1.2584z" fill="#fff" fill-rule="evenodd"/>
  <path d="m-127.24 522.75c-0.69532 0-1.2611 0.56313-1.2611 1.2584 0 0.69796 0.56578 1.2611 1.2611 1.2611s1.2584-0.56314 1.2584-1.2611c0-0.69532-0.56313-1.2584-1.2584-1.2584" fill="none" stroke="#000" stroke-linecap="round" stroke-linejoin="round" stroke-width=".26438px"/>
  <path d="m-116.93 515.88c-0.69532 0-1.2611 0.56314-1.2611 1.2585 0 0.69796 0.56577 1.2611 1.2611 1.2611s1.2584-0.56313 1.2584-1.2611c0-0.69532-0.56313-1.2585-1.2584-1.2585z" fill="#fff" fill-rule="evenodd"/>
  <path d="m-116.93 515.88c-0.69532 0-1.2611 0.56314-1.2611 1.2585 0 0.69796 0.56577 1.2611 1.2611 1.2611s1.2584-0.56313 1.2584-1.2611c0-0.69532-0.56313-1.2585-1.2584-1.2585" fill="none" stroke="#000" stroke-linecap="round" stroke-linejoin="round" stroke-width=".26438px"/>
  <g transform="matrix(.26458 0 0 .26458 -163.98 480.12)" clip-path="url(#clipEmfPath1-230)">
   <text transform="translate(66.189 14.549)" fill="#000000" font-family="Calibri" font-size="13.25px" font-weight="400" letter-spacing="0px" word-spacing="0px" style="line-height:125%" xml:space="preserve"><tspan x="0" y="0" fill="#000000" font-family="Calibri" font-size="13.25px" font-weight="400"><tspan dx="0" dy="0">Ashland</tspan><tspan dx="0" dy="0"/></tspan></text>
  </g>
  <g transform="matrix(.26458 0 0 .26458 -163.98 480.12)" clip-path="url(#clipEmfPath2-63)">
   <text transform="translate(123.11 12.63)" fill="#000000" font-family="Calibri" font-size="13.25px" font-weight="400" letter-spacing="0px" word-spacing="0px" style="line-height:125%" xml:space="preserve"><tspan x="0" y="0" fill="#000000" font-family="Calibri" font-size="13.25px" font-weight="400"><tspan dx="0" dy="0">As</tspan><tspan dx="0" dy="0">toria</tspan><tspan dx="0" dy="0"/></tspan></text>
  </g>
  <g transform="matrix(.26458 0 0 .26458 -163.98 480.12)" clip-path="url(#clipEmfPath3-18)">
   <text transform="translate(164.03 32.615)" fill="#000000" font-family="Calibri" font-size="13.25px" font-weight="400" letter-spacing="0px" word-spacing="0px" style="line-height:125%" xml:space="preserve"><tspan x="0" y="0" fill="#000000" font-family="Calibri" font-size="13.25px" font-weight="400"><tspan dx="0" dy="0">Bend</tspan><tspan dx="0" dy="0"/></tspan></text>
  </g>
  <g transform="matrix(.26458 0 0 .26458 -163.98 480.12)" clip-path="url(#clipEmfPath4-362)">
   <text transform="translate(190.09 87.613)" fill="#000000" font-family="Calibri" font-size="13.25px" font-weight="400" letter-spacing="0px" word-spacing="0px" style="line-height:125%" xml:space="preserve"><tspan x="0" y="0" fill="#000000" font-family="Calibri" font-size="13.25px" font-weight="400"><tspan dx="0" dy="0">Corvallis</tspan><tspan dx="0" dy="0"/></tspan></text>
  </g>
  <g transform="matrix(.26458 0 0 .26458 -163.98 480.12)" clip-path="url(#clipEmfPath5-75)">
   <text transform="translate(174.11 156.52)" fill="#000000" font-family="Calibri" font-size="13.25px" font-weight="400" letter-spacing="0px" word-spacing="0px" style="line-height:125%" xml:space="preserve"><tspan x="0" y="0" fill="#000000" font-family="Calibri" font-size="13.25px" font-weight="400"><tspan dx="0" dy="0">Crater Lk</tspan><tspan dx="0" dy="0"/></tspan></text>
  </g>
  <g transform="matrix(.26458 0 0 .26458 -163.98 480.12)" clip-path="url(#clipEmfPath6-79)">
   <text transform="translate(141.17 181.46)" fill="#000000" font-family="Calibri" font-size="13.25px" font-weight="400" letter-spacing="0px" word-spacing="0px" style="line-height:125%" xml:space="preserve"><tspan x="0" y="0" fill="#000000" font-family="Calibri" font-size="13.25px" font-weight="400"><tspan dx="0" dy="0">Eugene</tspan><tspan dx="0" dy="0"/></tspan></text>
  </g>
  <g transform="matrix(.26458 0 0 .26458 -163.98 480.12)" clip-path="url(#clipEmfPath7-08)">
   <text transform="translate(56.117 183.54)" fill="#000000" font-family="Calibri" font-size="13.25px" font-weight="400" letter-spacing="0px" word-spacing="0px" style="line-height:125%" xml:space="preserve"><tspan x="0" y="0" fill="#000000" font-family="Calibri" font-size="13.25px" font-weight="400"><tspan dx="0" dy="0">Newport</tspan><tspan dx="0" dy="0"/></tspan></text>
  </g>
  <g transform="matrix(.26458 0 0 .26458 -163.98 480.12)" clip-path="url(#clipEmfPath8-63)">
   <text transform="translate(4.1568 157.48)" fill="#000000" font-family="Calibri" font-size="13.25px" font-weight="400" letter-spacing="0px" word-spacing="0px" style="line-height:125%" xml:space="preserve"><tspan x="0" y="0" fill="#000000" font-family="Calibri" font-size="13.25px" font-weight="400"><tspan dx="0" dy="0">Portland</tspan><tspan dx="0" dy="0"/></tspan></text>
  </g>
  <g transform="matrix(.26458 0 0 .26458 -163.98 480.12)" clip-path="url(#clipEmfPath9-22)">
   <text transform="translate(.15988 90.491)" fill="#000000" font-family="Calibri" font-size="13.25px" font-weight="400" letter-spacing="0px" word-spacing="0px" style="line-height:125%" xml:space="preserve"><tspan x="0" y="0" fill="#000000" font-family="Calibri" font-size="13.25px" font-weight="400"><tspan dx="0" dy="0">Salem</tspan><tspan dx="0" dy="0"/></tspan></text>
  </g>
  <g transform="matrix(.26458 0 0 .26458 -163.98 480.12)" clip-path="url(#clipEmfPath10-19)">
   <text transform="translate(7.1945 44.606)" fill="#000000" font-family="Calibri" font-size="13.25px" font-weight="400" letter-spacing="0px" word-spacing="0px" style="line-height:125%" xml:space="preserve"><tspan x="0" y="0" fill="#000000" font-family="Calibri" font-size="13.25px" font-weight="400"><tspan dx="0" dy="0">Seaside</tspan><tspan dx="0" dy="0"/></tspan></text>
  </g>
 </g>
</svg>
