<?xml version="1.0" encoding="UTF-8"?>
<!-- Created with Inkscape (http://www.inkscape.org/) -->
<svg width="267.81" height="161.76" version="1.1" viewBox="0 0 267.80627 161.76017" xmlns="http://www.w3.org/2000/svg" xmlns:cc="http://creativecommons.org/ns#" xmlns:dc="http://purl.org/dc/elements/1.1/" xmlns:rdf="http://www.w3.org/1999/02/22-rdf-syntax-ns#">
 <defs>
  <clipPath id="clipEmfPath2-11">
   <path d="m-9.5926 57.876h44.926v16.467h-44.926z"/>
  </clipPath>
  <clipPath id="clipEmfPath3-13">
   <path d="m54.998 1.4389h26.859v16.307h-26.859z"/>
  </clipPath>
  <clipPath id="clipEmfPath4-81">
   <path d="m247.01 65.869h44.926v16.307h-44.926z"/>
  </clipPath>
  <clipPath id="clipEmfPath5-41">
   <path d="m179.7 149.33h44.926v16.467h-44.926z"/>
  </clipPath>
  <clipPath id="clipEmfPath6-87">
   <path d="m56.756 150.76h44.926v16.467h-44.926z"/>
  </clipPath>
  <clipPath id="clipEmfPath7-92">
   <path d="m173.31-0.15988h44.926v16.467h-44.926z"/>
  </clipPath>
  <clipPath id="clipEmfPath8-28">
   <path d="m123.9 17.587h15.028v16.947h-15.028z"/>
  </clipPath>
  <clipPath id="clipEmfPath9-75">
   <path d="m206.88 42.527h14.869v16.947h-14.869z"/>
  </clipPath>
  <clipPath id="clipEmfPath10-482">
   <path d="m210.08 106.48h14.869v16.947h-14.869z"/>
  </clipPath>
  <clipPath id="clipEmfPath11-1">
   <path d="m181.14 40.129h15.028v16.947h-15.028z"/>
  </clipPath>
  <clipPath id="clipEmfPath12-67">
   <path d="m149.49 28.458h15.028v16.947h-15.028z"/>
  </clipPath>
  <clipPath id="clipEmfPath13-38">
   <path d="m96.726 28.778h14.869v16.787h-14.869z"/>
  </clipPath>
  <clipPath id="clipEmfPath14-76">
   <path d="m65.869 39.01h15.028v16.787h-15.028z"/>
  </clipPath>
  <clipPath id="clipEmfPath15-437">
   <path d="m38.211 45.245h14.869v16.947h-14.869z"/>
  </clipPath>
  <clipPath id="clipEmfPath16-7">
   <path d="m40.289 108.56h15.028v16.787h-15.028z"/>
  </clipPath>
  <clipPath id="clipEmfPath17-3">
   <path d="m100.56 120.07h14.869v16.947h-14.869z"/>
  </clipPath>
  <clipPath id="clipEmfPath18-1">
   <path d="m149.65 120.87h15.028v16.787h-15.028z"/>
  </clipPath>
  <clipPath id="clipEmfPath19-7">
   <path d="m124.54 136.06h14.869v16.947h-14.869z"/>
  </clipPath>
  <clipPath id="clipEmfPath20-4">
   <path d="m85.534 77.221h15.028v16.787h-15.028z"/>
  </clipPath>
  <clipPath id="clipEmfPath21-52">
   <path d="m107.44 59.155h15.028v16.947h-15.028z"/>
  </clipPath>
  <clipPath id="clipEmfPath22-5">
   <path d="m139.41 60.114h15.028v16.947h-15.028z"/>
  </clipPath>
 </defs>
 <metadata>
  <rdf:RDF>
   <cc:Work rdf:about="">
    <dc:format>image/svg+xml</dc:format>
    <dc:type rdf:resource="http://purl.org/dc/dcmitype/StillImage"/>
    <dc:title/>
   </cc:Work>
  </rdf:RDF>
 </metadata>
 <g transform="matrix(3.7795 0 0 3.7795 663.58 -1969.1)">
  <text x="-98.321754" y="565.50452" fill="#000000" font-family="'Times New Roman'" font-size="4.2333px" font-weight="400" letter-spacing="0px" stroke-width=".26458" word-spacing="0px" style="line-height:125%" xml:space="preserve"><tspan x="0" y="0" stroke-width=".26458"><tspan dx="0" dy="0" fill="#000000" font-family="'Times New Roman'" font-size="4.2333px" font-weight="400" stroke-width=".26458"/></tspan></text>
  <g fill="none" stroke="#000" stroke-linejoin="round" stroke-width=".26438px">
   <path d="m-155.95 526.9 44.892 14.842"/>
   <path d="m-156.28 557.08 45.685-15.035"/>
   <path d="m-171.55 541.97 45.685-15.033"/>
   <path d="m-170.49 542.24 44.892 14.842"/>
   <path d="m-171.48 542.36 61.125 0.0185"/>
   <path d="m-156.34 527.1 0.0185 30.457"/>
   <path d="m-125.67 527.63 0.0185 30.457"/>
   <path d="m-156.14 526.76 30.457 0.0185"/>
   <path d="m-171.71 542.19 16.109-15.561"/>
   <path d="m-156.5 556.82 30.774-29.489"/>
   <path d="m-125.16 527.52 14.98 14.821"/>
   <path d="m-156.21 526.9 30.351 29.912"/>
   <path d="m-126.06 557.43 15.07-14.805"/>
   <path d="m-171.34 542.17 15.157 15.07"/>
  </g>
  <g transform="matrix(.26458 0 0 .26458 -175.61 519.99)" clip-path="url(#clipEmfPath2-11)">
   <text transform="translate(0 72.265)" fill="#000000" font-family="'Times New Roman'" font-size="16px" font-weight="400" letter-spacing="0px" word-spacing="0px" style="line-height:125%" xml:space="preserve"><tspan x="0" y="0" fill="#000000" font-family="'Times New Roman'" font-size="16px" font-weight="400"><tspan dx="0" dy="0">A</tspan><tspan dx="0" dy="0"/></tspan></text>
  </g>
  <path d="m-156.11 557.49 30.457 0.0185" fill="none" stroke="#000" stroke-linejoin="round" stroke-width=".26438px"/>
  <path d="m-110.71 540.76c-0.69532 0-1.2611 0.56578-1.2611 1.2611s0.56577 1.2611 1.2611 1.2611 1.2611-0.56577 1.2611-1.2611-0.56578-1.2611-1.2611-1.2611z" fill="#fff" fill-rule="evenodd"/>
  <path d="m-110.71 540.76c-0.69532 0-1.2611 0.56578-1.2611 1.2611s0.56577 1.2611 1.2611 1.2611 1.2611-0.56577 1.2611-1.2611-0.56578-1.2611-1.2611-1.2611" fill="none" stroke="#000" stroke-linecap="round" stroke-linejoin="round" stroke-width=".26438px"/>
  <path d="m-125.95 555.99c-0.69268 0-1.2532 0.56049-1.2532 1.2532 0 0.69004 0.56048 1.2505 1.2532 1.2505 0.69004 0 1.2505-0.56049 1.2505-1.2505 0-0.69267-0.56048-1.2532-1.2505-1.2532z" fill="#fff" fill-rule="evenodd"/>
  <path d="m-125.95 555.99c-0.69268 0-1.2532 0.56049-1.2532 1.2532 0 0.69004 0.56048 1.2505 1.2532 1.2505 0.69004 0 1.2505-0.56049 1.2505-1.2505 0-0.69267-0.56048-1.2532-1.2505-1.2532" fill="none" stroke="#000" stroke-linecap="round" stroke-linejoin="round" stroke-width=".26438px"/>
  <path d="m-156.4 555.99c-0.69533 0-1.2611 0.56049-1.2611 1.2532 0 0.69004 0.56577 1.2505 1.2611 1.2505 0.69532 0 1.2611-0.56049 1.2611-1.2505 0-0.69267-0.56577-1.2532-1.2611-1.2532z" fill="#fff" fill-rule="evenodd"/>
  <path d="m-156.4 555.99c-0.69533 0-1.2611 0.56049-1.2611 1.2532 0 0.69004 0.56577 1.2505 1.2611 1.2505 0.69532 0 1.2611-0.56049 1.2611-1.2505 0-0.69267-0.56577-1.2532-1.2611-1.2532" fill="none" stroke="#000" stroke-linecap="round" stroke-linejoin="round" stroke-width=".26438px"/>
  <path d="m-171.63 540.76c-0.69532 0-1.2611 0.56578-1.2611 1.2611s0.56578 1.2611 1.2611 1.2611 1.2611-0.56577 1.2611-1.2611-0.56577-1.2611-1.2611-1.2611z" fill="#fff" fill-rule="evenodd"/>
  <path d="m-171.63 540.76c-0.69532 0-1.2611 0.56578-1.2611 1.2611s0.56578 1.2611 1.2611 1.2611 1.2611-0.56577 1.2611-1.2611-0.56577-1.2611-1.2611-1.2611" fill="none" stroke="#000" stroke-linecap="round" stroke-linejoin="round" stroke-width=".26438px"/>
  <path d="m-156.39 525.53c-0.70061 0-1.269 0.56578-1.269 1.2611s0.56842 1.2611 1.269 1.2611c0.70325 0 1.269-0.56577 1.269-1.2611s-0.56577-1.2611-1.269-1.2611z" fill="#fff" fill-rule="evenodd"/>
  <path d="m-156.39 525.53c-0.70061 0-1.269 0.56578-1.269 1.2611s0.56842 1.2611 1.269 1.2611c0.70325 0 1.269-0.56577 1.269-1.2611s-0.56577-1.2611-1.269-1.2611" fill="none" stroke="#000" stroke-linecap="round" stroke-linejoin="round" stroke-width=".26438px"/>
  <path d="m-125.95 525.53c-0.69268 0-1.2532 0.57371-1.2532 1.2796 0 0.7059 0.56048 1.277 1.2532 1.277 0.69004 0 1.2505-0.57106 1.2505-1.277 0-0.70589-0.56048-1.2796-1.2505-1.2796z" fill="#fff" fill-rule="evenodd"/>
  <path d="m-125.95 525.53c-0.69268 0-1.2532 0.57371-1.2532 1.2796 0 0.7059 0.56048 1.277 1.2532 1.277 0.69004 0 1.2505-0.57106 1.2505-1.277 0-0.70589-0.56048-1.2796-1.2505-1.2796" fill="none" stroke="#000" stroke-linecap="round" stroke-linejoin="round" stroke-width=".26438px"/>
  <g transform="matrix(.26458 0 0 .26458 -175.61 519.99)" clip-path="url(#clipEmfPath3-13)">
   <text transform="translate(64.59 15.988)" fill="#000000" font-family="'Times New Roman'" font-size="16px" font-weight="400" letter-spacing="0px" word-spacing="0px" style="line-height:125%" xml:space="preserve"><tspan x="0" y="0" fill="#000000" font-family="'Times New Roman'" font-size="16px" font-weight="400"><tspan dx="0" dy="0">B</tspan><tspan dx="0" dy="0"/></tspan></text>
  </g>
  <g transform="matrix(.26458 0 0 .26458 -175.61 519.99)" clip-path="url(#clipEmfPath4-81)">
   <text transform="translate(256.6 80.258)" fill="#000000" font-family="'Times New Roman'" font-size="16px" font-weight="400" letter-spacing="0px" word-spacing="0px" style="line-height:125%" xml:space="preserve"><tspan x="0" y="0" fill="#000000" font-family="'Times New Roman'" font-size="16px" font-weight="400"><tspan dx="0" dy="0">G</tspan><tspan dx="0" dy="0"/></tspan></text>
  </g>
  <g transform="matrix(.26458 0 0 .26458 -175.61 519.99)" clip-path="url(#clipEmfPath5-41)">
   <text transform="translate(189.29 163.87)" fill="#000000" font-family="'Times New Roman'" font-size="16px" font-weight="400" letter-spacing="0px" word-spacing="0px" style="line-height:125%" xml:space="preserve"><tspan x="0" y="0" fill="#000000" font-family="'Times New Roman'" font-size="16px" font-weight="400"><tspan dx="0" dy="0">F</tspan><tspan dx="0" dy="0"/></tspan></text>
  </g>
  <g transform="matrix(.26458 0 0 .26458 -175.61 519.99)" clip-path="url(#clipEmfPath6-87)">
   <text transform="translate(66.349 165.31)" fill="#000000" font-family="'Times New Roman'" font-size="16px" font-weight="400" letter-spacing="0px" word-spacing="0px" style="line-height:125%" xml:space="preserve"><tspan x="0" y="0" fill="#000000" font-family="'Times New Roman'" font-size="16px" font-weight="400"><tspan dx="0" dy="0">C</tspan><tspan dx="0" dy="0"/></tspan></text>
  </g>
  <g transform="matrix(.26458 0 0 .26458 -175.61 519.99)" clip-path="url(#clipEmfPath7-92)">
   <text transform="translate(182.9 14.389)" fill="#000000" font-family="'Times New Roman'" font-size="16px" font-weight="400" letter-spacing="0px" word-spacing="0px" style="line-height:125%" xml:space="preserve"><tspan x="0" y="0" fill="#000000" font-family="'Times New Roman'" font-size="16px" font-weight="400"><tspan dx="0" dy="0">E</tspan><tspan dx="0" dy="0"/></tspan></text>
  </g>
  <path d="m-142.85 524.63v4.4601h3.9657v-4.4601z" fill="#fff" fill-rule="evenodd"/>
  <g transform="matrix(.26458 0 0 .26458 -175.61 519.99)" clip-path="url(#clipEmfPath8-28)">
   <text transform="translate(123.9 29.897)" fill="#000000" font-family="'Times New Roman'" font-size="13.25px" font-weight="400" letter-spacing="0px" word-spacing="0px" style="line-height:125%" xml:space="preserve"><tspan x="0" y="0" fill="#000000" font-family="'Times New Roman'" font-size="13.25px" font-weight="400"><tspan dx="0" dy="0">43</tspan><tspan dx="0" dy="0"/></tspan></text>
  </g>
  <path d="m-120.91 531.24v4.4601h3.9657v-4.4601z" fill="#fff" fill-rule="evenodd"/>
  <g transform="matrix(.26458 0 0 .26458 -175.61 519.99)" clip-path="url(#clipEmfPath9-75)">
   <text transform="translate(206.88 54.838)" fill="#000000" font-family="'Times New Roman'" font-size="13.25px" font-weight="400" letter-spacing="0px" word-spacing="0px" style="line-height:125%" xml:space="preserve"><tspan x="0" y="0" fill="#000000" font-family="'Times New Roman'" font-size="13.25px" font-weight="400"><tspan dx="0" dy="0">45</tspan><tspan dx="0" dy="0"/></tspan></text>
  </g>
  <path d="m-120.06 548.16v4.4601h3.9657v-4.4601z" fill="#fff" fill-rule="evenodd"/>
  <g transform="matrix(.26458 0 0 .26458 -175.61 519.99)" clip-path="url(#clipEmfPath10-482)">
   <text transform="translate(210.08 118.79)" fill="#000000" font-family="'Times New Roman'" font-size="13.25px" font-weight="400" letter-spacing="0px" word-spacing="0px" style="line-height:125%" xml:space="preserve"><tspan x="0" y="0" fill="#000000" font-family="'Times New Roman'" font-size="13.25px" font-weight="400"><tspan dx="0" dy="0">19</tspan><tspan dx="0" dy="0"/></tspan></text>
  </g>
  <path d="m-127.68 530.61v4.4601h3.9657v-4.4601z" fill="#fff" fill-rule="evenodd"/>
  <g transform="matrix(.26458 0 0 .26458 -175.61 519.99)" clip-path="url(#clipEmfPath11-1)">
   <text transform="translate(181.14 52.44)" fill="#000000" font-family="'Times New Roman'" font-size="13.25px" font-weight="400" letter-spacing="0px" word-spacing="0px" style="line-height:125%" xml:space="preserve"><tspan x="0" y="0" fill="#000000" font-family="'Times New Roman'" font-size="13.25px" font-weight="400"><tspan dx="0" dy="0">16</tspan><tspan dx="0" dy="0"/></tspan></text>
  </g>
  <path d="m-136.09 527.51v4.4601h3.9657v-4.4601z" fill="#fff" fill-rule="evenodd"/>
  <g transform="matrix(.26458 0 0 .26458 -175.61 519.99)" clip-path="url(#clipEmfPath12-67)">
   <text transform="translate(149.49 40.769)" fill="#000000" font-family="'Times New Roman'" font-size="13.25px" font-weight="400" letter-spacing="0px" word-spacing="0px" style="line-height:125%" xml:space="preserve"><tspan x="0" y="0" fill="#000000" font-family="'Times New Roman'" font-size="13.25px" font-weight="400"><tspan dx="0" dy="0">1</tspan><tspan dx="0" dy="0">4</tspan><tspan dx="0" dy="0"/></tspan></text>
  </g>
  <path d="m-150.05 527.58v4.4574h3.9657v-4.4574z" fill="#fff" fill-rule="evenodd"/>
  <g transform="matrix(.26458 0 0 .26458 -175.61 519.99)" clip-path="url(#clipEmfPath13-38)">
   <text transform="translate(96.726 41.248)" fill="#000000" font-family="'Times New Roman'" font-size="13.25px" font-weight="400" letter-spacing="0px" word-spacing="0px" style="line-height:125%" xml:space="preserve"><tspan x="0" y="0" fill="#000000" font-family="'Times New Roman'" font-size="13.25px" font-weight="400"><tspan dx="0" dy="0">1</tspan><tspan dx="0" dy="0">3</tspan><tspan dx="0" dy="0"/></tspan></text>
  </g>
  <path d="m-158.19 530.29v4.4601h3.9657v-4.4601z" fill="#fff" fill-rule="evenodd"/>
  <g transform="matrix(.26458 0 0 .26458 -175.61 519.99)" clip-path="url(#clipEmfPath14-76)">
   <text transform="translate(65.869 51.481)" fill="#000000" font-family="'Times New Roman'" font-size="13.25px" font-weight="400" letter-spacing="0px" word-spacing="0px" style="line-height:125%" xml:space="preserve"><tspan x="0" y="0" fill="#000000" font-family="'Times New Roman'" font-size="13.25px" font-weight="400"><tspan dx="0" dy="0">25</tspan><tspan dx="0" dy="0"/></tspan></text>
  </g>
  <path d="m-165.54 531.95v4.4601h3.9657v-4.4601z" fill="#fff" fill-rule="evenodd"/>
  <g transform="matrix(.26458 0 0 .26458 -175.61 519.99)" clip-path="url(#clipEmfPath15-437)">
   <text transform="translate(38.211 57.556)" fill="#000000" font-family="'Times New Roman'" font-size="13.25px" font-weight="400" letter-spacing="0px" word-spacing="0px" style="line-height:125%" xml:space="preserve"><tspan x="0" y="0" fill="#000000" font-family="'Times New Roman'" font-size="13.25px" font-weight="400"><tspan dx="0" dy="0">11</tspan><tspan dx="0.51152003" dy="0"/></tspan></text>
  </g>
  <path d="m-164.96 548.67v4.4574h3.9657v-4.4574z" fill="#fff" fill-rule="evenodd"/>
  <g transform="matrix(.26458 0 0 .26458 -175.61 519.99)" clip-path="url(#clipEmfPath16-7)">
   <text transform="translate(40.289 121.03)" fill="#000000" font-family="'Times New Roman'" font-size="13.25px" font-weight="400" letter-spacing="0px" word-spacing="0px" style="line-height:125%" xml:space="preserve"><tspan x="0" y="0" fill="#000000" font-family="'Times New Roman'" font-size="13.25px" font-weight="400"><tspan dx="0" dy="0">33</tspan><tspan dx="0" dy="0"/></tspan></text>
  </g>
  <path d="m-149.04 551.76v4.4601h3.9657v-4.4601z" fill="#fff" fill-rule="evenodd"/>
  <g transform="matrix(.26458 0 0 .26458 -175.61 519.99)" clip-path="url(#clipEmfPath17-3)">
   <text transform="translate(100.56 132.38)" fill="#000000" font-family="'Times New Roman'" font-size="13.25px" font-weight="400" letter-spacing="0px" word-spacing="0px" style="line-height:125%" xml:space="preserve"><tspan x="0" y="0" fill="#000000" font-family="'Times New Roman'" font-size="13.25px" font-weight="400"><tspan dx="0" dy="0">36</tspan><tspan dx="0" dy="0"/></tspan></text>
  </g>
  <path d="m-136.03 551.93v4.4601h3.9657v-4.4601z" fill="#fff" fill-rule="evenodd"/>
  <g transform="matrix(.26458 0 0 .26458 -175.61 519.99)" clip-path="url(#clipEmfPath18-1)">
   <text transform="translate(149.65 133.34)" fill="#000000" font-family="'Times New Roman'" font-size="13.25px" font-weight="400" letter-spacing="0px" word-spacing="0px" style="line-height:125%" xml:space="preserve"><tspan x="0" y="0" fill="#000000" font-family="'Times New Roman'" font-size="13.25px" font-weight="400"><tspan dx="0" dy="0">41</tspan><tspan dx="0" dy="0"/></tspan></text>
  </g>
  <path d="m-142.7 555.99v4.4601h3.9657v-4.4601z" fill="#fff" fill-rule="evenodd"/>
  <g transform="matrix(.26458 0 0 .26458 -175.61 519.99)" clip-path="url(#clipEmfPath19-7)">
   <text transform="translate(124.54 148.37)" fill="#000000" font-family="'Times New Roman'" font-size="13.25px" font-weight="400" letter-spacing="0px" word-spacing="0px" style="line-height:125%" xml:space="preserve"><tspan x="0" y="0" fill="#000000" font-family="'Times New Roman'" font-size="13.25px" font-weight="400"><tspan dx="0" dy="0">37</tspan><tspan dx="0" dy="0"/></tspan></text>
  </g>
  <path d="m-153.01 540.39v4.4601h3.9657v-4.4601z" fill="#fff" fill-rule="evenodd"/>
  <g transform="matrix(.26458 0 0 .26458 -175.61 519.99)" clip-path="url(#clipEmfPath20-4)">
   <text transform="translate(85.534 89.691)" fill="#000000" font-family="'Times New Roman'" font-size="13.25px" font-weight="400" letter-spacing="0px" word-spacing="0px" style="line-height:125%" xml:space="preserve"><tspan x="0" y="0" fill="#000000" font-family="'Times New Roman'" font-size="13.25px" font-weight="400"><tspan dx="0" dy="0">15</tspan><tspan dx="0" dy="0"/></tspan></text>
  </g>
  <path d="m-147.19 535.63v4.4601h3.9657v-4.4601z" fill="#fff" fill-rule="evenodd"/>
  <g transform="matrix(.26458 0 0 .26458 -175.61 519.99)" clip-path="url(#clipEmfPath21-52)">
   <text transform="translate(107.44 71.465)" fill="#000000" font-family="'Times New Roman'" font-size="13.25px" font-weight="400" letter-spacing="0px" word-spacing="0px" style="line-height:125%" xml:space="preserve"><tspan x="0" y="0" fill="#000000" font-family="'Times New Roman'" font-size="13.25px" font-weight="400"><tspan dx="0" dy="0">23</tspan><tspan dx="0" dy="0"/></tspan></text>
  </g>
  <path d="m-138.73 535.89v4.4601h3.9657v-4.4601z" fill="#fff" fill-rule="evenodd"/>
  <g transform="matrix(.26458 0 0 .26458 -175.61 519.99)" clip-path="url(#clipEmfPath22-5)">
   <text transform="translate(139.41 72.424)" fill="#000000" font-family="'Times New Roman'" font-size="13.25px" font-weight="400" letter-spacing="0px" word-spacing="0px" style="line-height:125%" xml:space="preserve"><tspan x="0" y="0" fill="#000000" font-family="'Times New Roman'" font-size="13.25px" font-weight="400"><tspan dx="0" dy="0">17</tspan><tspan dx="0" dy="0"/></tspan></text>
  </g>
 </g>
</svg>
