<?xml version="1.0" encoding="UTF-8"?>
<!-- Created with Inkscape (http://www.inkscape.org/) -->
<svg width="104.04" height="106.2" version="1.1" viewBox="0 0 104.04124 106.20257" xmlns="http://www.w3.org/2000/svg" xmlns:cc="http://creativecommons.org/ns#" xmlns:dc="http://purl.org/dc/elements/1.1/" xmlns:rdf="http://www.w3.org/1999/02/22-rdf-syntax-ns#">
 <defs>
  <clipPath id="clipEmfPath1-98">
   <path d="m51.161 0.31975h15.028v21.104h-15.028z"/>
  </clipPath>
  <clipPath id="clipEmfPath2-52">
   <path d="m13.27 73.703h14.869v20.944h-14.869z"/>
  </clipPath>
  <clipPath id="clipEmfPath3-14">
   <path d="m111.11 73.863h15.028v20.944h-15.028z"/>
  </clipPath>
  <clipPath id="clipEmfPath4-142">
   <path d="m63.152 45.885h15.028v20.944h-15.028z"/>
  </clipPath>
 </defs>
 <metadata>
  <rdf:RDF>
   <cc:Work rdf:about="">
    <dc:format>image/svg+xml</dc:format>
    <dc:type rdf:resource="http://purl.org/dc/dcmitype/StillImage"/>
    <dc:title/>
   </cc:Work>
  </rdf:RDF>
 </metadata>
 <g transform="matrix(3.7795 0 0 3.7795 477.46 -2130.9)">
  <text x="-130.16647" y="566.18298" fill="#000000" font-family="Calibri" font-size="3.8861px" font-weight="400" letter-spacing="0px" stroke-width=".26458" word-spacing="0px" style="line-height:125%" xml:space="preserve"><tspan x="0" y="0" stroke-width=".26458"><tspan dx="0" dy="0" fill="#000000" font-family="Calibri" font-size="3.8861px" font-weight="400" stroke-width=".26458"/></tspan></text>
  <g fill="none" stroke-linejoin="round" stroke-width=".26438px">
   <path d="m-123.26 588.08c4.2301 1.8586 8.4602 3.7357 12.162 3.6855 3.7013-0.0529 7.0854-2.5116 10.046-3.9498" stroke="#f00"/>
   <g stroke="#000">
    <path d="m-111.63 566.69-11.897 20.886"/>
    <path d="m-123.26 587.85h22.472"/>
    <path d="m-111.63 566.17 10.311 21.415"/>
    <path d="m-123.53 588.12 11.633-7.4027"/>
    <path d="m-111.89 580.71 10.575 7.1383"/>
   </g>
  </g>
  <path d="m-111.69 565.01c-0.69533 0-1.2611 0.56578-1.2611 1.2611s0.56577 1.2611 1.2611 1.2611c0.69532 0 1.2611-0.56577 1.2611-1.2611s-0.56577-1.2611-1.2611-1.2611z" fill="#fff" fill-rule="evenodd"/>
  <path d="m-111.69 565.01c-0.69533 0-1.2611 0.56578-1.2611 1.2611s0.56577 1.2611 1.2611 1.2611c0.69532 0 1.2611-0.56577 1.2611-1.2611s-0.56577-1.2611-1.2611-1.2611" fill="none" stroke="#000" stroke-linecap="round" stroke-linejoin="round" stroke-width=".26438px"/>
  <path d="m-123.32 586.79c-0.69532 0-1.2611 0.56577-1.2611 1.2611s0.56577 1.2611 1.2611 1.2611 1.2611-0.56578 1.2611-1.2611-0.56578-1.2611-1.2611-1.2611z" fill="#fff" fill-rule="evenodd"/>
  <path d="m-123.32 586.79c-0.69532 0-1.2611 0.56577-1.2611 1.2611s0.56577 1.2611 1.2611 1.2611 1.2611-0.56578 1.2611-1.2611-0.56578-1.2611-1.2611-1.2611" fill="none" stroke="#000" stroke-linecap="round" stroke-linejoin="round" stroke-width=".26438px"/>
  <path d="m-101.38 586.55c-0.69532 0-1.2611 0.56578-1.2611 1.2611s0.56578 1.2584 1.2611 1.2584 1.2611-0.56313 1.2611-1.2584-0.56577-1.2611-1.2611-1.2611z" fill="#fff" fill-rule="evenodd"/>
  <path d="m-101.38 586.55c-0.69532 0-1.2611 0.56578-1.2611 1.2611s0.56578 1.2584 1.2611 1.2584 1.2611-0.56313 1.2611-1.2584-0.56577-1.2611-1.2611-1.2611" fill="none" stroke="#000" stroke-linecap="round" stroke-linejoin="round" stroke-width=".26438px"/>
  <path d="m-111.95 579.66c-0.69533 0-1.2611 0.56578-1.2611 1.2611s0.56577 1.2611 1.2611 1.2611c0.69532 0 1.2611-0.56577 1.2611-1.2611s-0.56577-1.2611-1.2611-1.2611z" fill="#fff" fill-rule="evenodd"/>
  <path d="m-111.95 579.66c-0.69533 0-1.2611 0.56578-1.2611 1.2611s0.56577 1.2611 1.2611 1.2611c0.69532 0 1.2611-0.56577 1.2611-1.2611s-0.56577-1.2611-1.2611-1.2611" fill="none" stroke="#000" stroke-linecap="round" stroke-linejoin="round" stroke-width=".26438px"/>
  <g transform="matrix(.26458 0 0 .26458 -130.17 562.55)" clip-path="url(#clipEmfPath1-98)">
   <text transform="translate(51.161 14.069)" fill="#000000" font-family="Calibri" font-size="14.688px" font-weight="400" letter-spacing="0px" word-spacing="0px" style="line-height:125%" xml:space="preserve"><tspan x="0" y="0" fill="#000000" font-family="Calibri" font-size="14.688px" font-weight="400"><tspan dx="0" dy="0">A</tspan><tspan dx="0" dy="0"/></tspan></text>
  </g>
  <g transform="matrix(.26458 0 0 .26458 -130.17 562.55)" clip-path="url(#clipEmfPath2-52)">
   <text transform="translate(13.27 87.453)" fill="#000000" font-family="Calibri" font-size="14.688px" font-weight="400" letter-spacing="0px" word-spacing="0px" style="line-height:125%" xml:space="preserve"><tspan x="0" y="0" fill="#000000" font-family="Calibri" font-size="14.688px" font-weight="400"><tspan dx="0" dy="0">B</tspan><tspan dx="0" dy="0"/></tspan></text>
  </g>
  <g transform="matrix(.26458 0 0 .26458 -130.17 562.55)" clip-path="url(#clipEmfPath3-14)">
   <text transform="translate(111.11 87.613)" fill="#000000" font-family="Calibri" font-size="14.688px" font-weight="400" letter-spacing="0px" word-spacing="0px" style="line-height:125%" xml:space="preserve"><tspan x="0" y="0" fill="#000000" font-family="Calibri" font-size="14.688px" font-weight="400"><tspan dx="0" dy="0">C</tspan><tspan dx="0" dy="0"/></tspan></text>
  </g>
  <g transform="matrix(.26458 0 0 .26458 -130.17 562.55)" clip-path="url(#clipEmfPath4-142)">
   <text transform="translate(63.152 59.634)" fill="#000000" font-family="Calibri" font-size="14.688px" font-weight="400" letter-spacing="0px" word-spacing="0px" style="line-height:125%" xml:space="preserve"><tspan x="0" y="0" fill="#000000" font-family="Calibri" font-size="14.688px" font-weight="400"><tspan dx="0" dy="0">D</tspan><tspan dx="0" dy="0"/></tspan></text>
  </g>
 </g>
</svg>
