<?xml version="1.0" encoding="UTF-8"?>
<!-- Created with Inkscape (http://www.inkscape.org/) -->
<svg width="264.56" height="160.32" version="1.1" viewBox="0 0 264.5565 160.31908" xmlns="http://www.w3.org/2000/svg" xmlns:cc="http://creativecommons.org/ns#" xmlns:dc="http://purl.org/dc/elements/1.1/" xmlns:rdf="http://www.w3.org/1999/02/22-rdf-syntax-ns#">
 <defs>
  <clipPath id="clipEmfPath1-79">
   <path d="m6.3951 62.672h44.926v16.467h-44.926z"/>
  </clipPath>
  <clipPath id="clipEmfPath2-676">
   <path d="m70.826 6.3951h27.019v16.148h-27.019z"/>
  </clipPath>
  <clipPath id="clipEmfPath3-27">
   <path d="m263 70.666h44.926v16.467h-44.926z"/>
  </clipPath>
  <clipPath id="clipEmfPath4-33">
   <path d="m195.69 154.28h44.926v16.467h-44.926z"/>
  </clipPath>
  <clipPath id="clipEmfPath5-05">
   <path d="m72.744 155.72h44.926v16.307h-44.926z"/>
  </clipPath>
  <clipPath id="clipEmfPath6-73">
   <path d="m189.29 4.7963h44.926v16.467h-44.926z"/>
  </clipPath>
  <clipPath id="clipEmfPath7-580">
   <path d="m139.89 22.543h14.869v16.787h-14.869z"/>
  </clipPath>
  <clipPath id="clipEmfPath8-77">
   <path d="m222.71 47.484h15.028v16.947h-15.028z"/>
  </clipPath>
  <clipPath id="clipEmfPath9-41">
   <path d="m225.91 111.43h15.028v16.947h-15.028z"/>
  </clipPath>
  <clipPath id="clipEmfPath10-229">
   <path d="m197.13 45.085h15.028v16.947h-15.028z"/>
  </clipPath>
  <clipPath id="clipEmfPath11-35">
   <path d="m165.31 33.414h15.028v16.787h-15.028z"/>
  </clipPath>
  <clipPath id="clipEmfPath12-89">
   <path d="m112.71 33.574h14.869v16.947h-14.869z"/>
  </clipPath>
  <clipPath id="clipEmfPath13-22">
   <path d="m81.857 43.966h15.028v16.787h-15.028z"/>
  </clipPath>
  <clipPath id="clipEmfPath14-91">
   <path d="m54.039 50.201h15.028v16.787h-15.028z"/>
  </clipPath>
  <clipPath id="clipEmfPath15-63">
   <path d="m56.277 113.35h15.028v16.947h-15.028z"/>
  </clipPath>
  <clipPath id="clipEmfPath16-40">
   <path d="m116.39 125.02h15.028v16.947h-15.028z"/>
  </clipPath>
  <clipPath id="clipEmfPath17-9">
   <path d="m165.63 125.66h15.028v16.947h-15.028z"/>
  </clipPath>
  <clipPath id="clipEmfPath18-5">
   <path d="m140.37 141.01h15.028v16.947h-15.028z"/>
  </clipPath>
  <clipPath id="clipEmfPath19-70">
   <path d="m101.36 82.017h15.028v16.947h-15.028z"/>
  </clipPath>
  <clipPath id="clipEmfPath20-72">
   <path d="m123.43 64.111h15.028v16.787h-15.028z"/>
  </clipPath>
  <clipPath id="clipEmfPath21-44">
   <path d="m155.4 65.07h15.028v16.947h-15.028z"/>
  </clipPath>
 </defs>
 <metadata>
  <rdf:RDF>
   <cc:Work rdf:about="">
    <dc:format>image/svg+xml</dc:format>
    <dc:type rdf:resource="http://purl.org/dc/dcmitype/StillImage"/>
    <dc:title/>
   </cc:Work>
  </rdf:RDF>
 </metadata>
 <g transform="matrix(3.7795 0 0 3.7795 387.54 -2348.5)">
  <text x="-106.83433" y="622.5531" fill="#000000" font-family="Calibri" font-size="3.8861px" font-weight="400" letter-spacing="0px" stroke-width=".26458" word-spacing="0px" style="line-height:125%" xml:space="preserve"><tspan x="0" y="0" stroke-width=".26458"><tspan dx="0" dy="0" fill="#000000" font-family="Calibri" font-size="3.8861px" font-weight="400" stroke-width=".26458"/></tspan></text>
  <g fill="none" stroke-linejoin="round">
   <g stroke="#f00" stroke-width=".79314px">
    <path d="m-82.955 627.13 44.892 14.84"/>
    <path d="m-83.289 657.3 45.685-15.035"/>
    <path d="m-98.554 642.2 45.685-15.035"/>
   </g>
   <g stroke="#000" stroke-width=".26438px">
    <path d="m-97.496 642.46 44.892 14.84"/>
    <path d="m-98.483 642.58 61.125 0.0185"/>
    <path d="m-83.341 627.32 0.01586 30.457"/>
   </g>
   <path d="m-52.673 627.85 0.01586 30.457" stroke="#f00" stroke-width=".79314px"/>
   <path d="m-83.148 626.98 30.457 0.0185" stroke="#000" stroke-width=".26438px"/>
   <path d="m-98.713 642.41 16.111-15.564" stroke="#f00" stroke-width=".79314px"/>
   <g stroke="#000" stroke-width=".26438px">
    <path d="m-83.5 657.04 30.774-29.486"/>
    <path d="m-52.163 627.74 14.982 14.824"/>
    <path d="m-83.22 627.13 30.351 29.909"/>
    <path d="m-53.062 657.65 15.07-14.805"/>
    <path d="m-98.342 642.39 15.16 15.07"/>
   </g>
  </g>
  <g transform="matrix(.26458 0 0 .26458 -106.83 618.92)" clip-path="url(#clipEmfPath1-79)">
   <text transform="translate(15.988 76.421)" fill="#000000" font-family="Calibri" font-size="14.688px" font-weight="400" letter-spacing="0px" word-spacing="0px" style="line-height:125%" xml:space="preserve"><tspan x="0" y="0" fill="#000000" font-family="Calibri" font-size="14.688px" font-weight="400"><tspan dx="0" dy="0">A</tspan><tspan dx="0" dy="0"/></tspan></text>
  </g>
  <path d="m-83.114 657.71 30.457 0.0185" fill="none" stroke="#f00" stroke-linejoin="round" stroke-width=".79314px"/>
  <path d="m-37.72 640.98c-0.69532 0-1.2585 0.56313-1.2585 1.2584 0 0.69796 0.56313 1.2611 1.2585 1.2611 0.69796 0 1.2611-0.56313 1.2611-1.2611 0-0.69532-0.56313-1.2584-1.2611-1.2584z" fill="#fff" fill-rule="evenodd"/>
  <path d="m-37.72 640.98c-0.69532 0-1.2585 0.56313-1.2585 1.2584 0 0.69796 0.56313 1.2611 1.2585 1.2611 0.69796 0 1.2611-0.56313 1.2611-1.2611 0-0.69532-0.56313-1.2584-1.2611-1.2584" fill="none" stroke="#000" stroke-linecap="round" stroke-linejoin="round" stroke-width=".26438px"/>
  <path d="m-52.956 656.21c-0.69003 0-1.2505 0.56048-1.2505 1.2505 0 0.69268 0.56049 1.2505 1.2505 1.2505 0.69268 0 1.2505-0.55785 1.2505-1.2505 0-0.69003-0.55784-1.2505-1.2505-1.2505z" fill="#fff" fill-rule="evenodd"/>
  <path d="m-52.956 656.21c-0.69003 0-1.2505 0.56048-1.2505 1.2505 0 0.69268 0.56049 1.2505 1.2505 1.2505 0.69268 0 1.2505-0.55785 1.2505-1.2505 0-0.69003-0.55784-1.2505-1.2505-1.2505" fill="none" stroke="#000" stroke-linecap="round" stroke-linejoin="round" stroke-width=".26438px"/>
  <path d="m-83.405 656.21c-0.69532 0-1.2585 0.56048-1.2585 1.2505 0 0.69268 0.56313 1.2505 1.2585 1.2505 0.69796 0 1.2611-0.55785 1.2611-1.2505 0-0.69003-0.56313-1.2505-1.2611-1.2505z" fill="#fff" fill-rule="evenodd"/>
  <path d="m-83.405 656.21c-0.69532 0-1.2585 0.56048-1.2585 1.2505 0 0.69268 0.56313 1.2505 1.2585 1.2505 0.69796 0 1.2611-0.55785 1.2611-1.2505 0-0.69003-0.56313-1.2505-1.2611-1.2505" fill="none" stroke="#000" stroke-linecap="round" stroke-linejoin="round" stroke-width=".26438px"/>
  <path d="m-98.633 640.98c-0.69532 0-1.2585 0.56313-1.2585 1.2584 0 0.69796 0.56313 1.2611 1.2585 1.2611 0.69796 0 1.2611-0.56313 1.2611-1.2611 0-0.69532-0.56313-1.2584-1.2611-1.2584z" fill="#fff" fill-rule="evenodd"/>
  <path d="m-98.633 640.98c-0.69532 0-1.2585 0.56313-1.2585 1.2584 0 0.69796 0.56313 1.2611 1.2585 1.2611 0.69796 0 1.2611-0.56313 1.2611-1.2611 0-0.69532-0.56313-1.2584-1.2611-1.2584" fill="none" stroke="#000" stroke-linecap="round" stroke-linejoin="round" stroke-width=".26438px"/>
  <path d="m-83.394 625.75c-0.70061 0-1.269 0.56313-1.269 1.2584 0 0.69796 0.56842 1.2611 1.269 1.2611s1.269-0.56313 1.269-1.2611c0-0.69532-0.56842-1.2584-1.269-1.2584z" fill="#fff" fill-rule="evenodd"/>
  <path d="m-83.394 625.75c-0.70061 0-1.269 0.56313-1.269 1.2584 0 0.69796 0.56842 1.2611 1.269 1.2611s1.269-0.56313 1.269-1.2611c0-0.69532-0.56842-1.2584-1.269-1.2584" fill="none" stroke="#000" stroke-linecap="round" stroke-linejoin="round" stroke-width=".26438px"/>
  <path d="m-52.956 625.75c-0.69003 0-1.2505 0.57106-1.2505 1.277 0 0.70589 0.56049 1.277 1.2505 1.277 0.69268 0 1.2505-0.57106 1.2505-1.277 0-0.7059-0.55784-1.277-1.2505-1.277z" fill="#fff" fill-rule="evenodd"/>
  <path d="m-52.956 625.75c-0.69003 0-1.2505 0.57106-1.2505 1.277 0 0.70589 0.56049 1.277 1.2505 1.277 0.69268 0 1.2505-0.57106 1.2505-1.277 0-0.7059-0.55784-1.277-1.2505-1.277" fill="none" stroke="#000" stroke-linecap="round" stroke-linejoin="round" stroke-width=".26438px"/>
  <g transform="matrix(.26458 0 0 .26458 -106.83 618.92)" clip-path="url(#clipEmfPath2-676)">
   <text transform="translate(80.418 20.145)" fill="#000000" font-family="Calibri" font-size="14.688px" font-weight="400" letter-spacing="0px" word-spacing="0px" style="line-height:125%" xml:space="preserve"><tspan x="0" y="0" fill="#000000" font-family="Calibri" font-size="14.688px" font-weight="400"><tspan dx="0" dy="0">B</tspan><tspan dx="0" dy="0"/></tspan></text>
  </g>
  <g transform="matrix(.26458 0 0 .26458 -106.83 618.92)" clip-path="url(#clipEmfPath3-27)">
   <text transform="translate(272.59 84.415)" fill="#000000" font-family="Calibri" font-size="14.688px" font-weight="400" letter-spacing="0px" word-spacing="0px" style="line-height:125%" xml:space="preserve"><tspan x="0" y="0" fill="#000000" font-family="Calibri" font-size="14.688px" font-weight="400"><tspan dx="0" dy="0">G</tspan><tspan dx="0" dy="0"/></tspan></text>
  </g>
  <g transform="matrix(.26458 0 0 .26458 -106.83 618.92)" clip-path="url(#clipEmfPath4-33)">
   <text transform="translate(205.28 168.03)" fill="#000000" font-family="Calibri" font-size="14.688px" font-weight="400" letter-spacing="0px" word-spacing="0px" style="line-height:125%" xml:space="preserve"><tspan x="0" y="0" fill="#000000" font-family="Calibri" font-size="14.688px" font-weight="400"><tspan dx="0" dy="0">F</tspan><tspan dx="0" dy="0"/></tspan></text>
  </g>
  <g transform="matrix(.26458 0 0 .26458 -106.83 618.92)" clip-path="url(#clipEmfPath5-05)">
   <text transform="translate(82.337 169.47)" fill="#000000" font-family="Calibri" font-size="14.688px" font-weight="400" letter-spacing="0px" word-spacing="0px" style="line-height:125%" xml:space="preserve"><tspan x="0" y="0" fill="#000000" font-family="Calibri" font-size="14.688px" font-weight="400"><tspan dx="0" dy="0">C</tspan><tspan dx="0" dy="0"/></tspan></text>
  </g>
  <g transform="matrix(.26458 0 0 .26458 -106.83 618.92)" clip-path="url(#clipEmfPath6-73)">
   <text transform="translate(198.89 18.546)" fill="#000000" font-family="Calibri" font-size="14.688px" font-weight="400" letter-spacing="0px" word-spacing="0px" style="line-height:125%" xml:space="preserve"><tspan x="0" y="0" fill="#000000" font-family="Calibri" font-size="14.688px" font-weight="400"><tspan dx="0" dy="0">E</tspan><tspan dx="0" dy="0"/></tspan></text>
  </g>
  <path d="m-69.858 624.85v4.4575h3.9657v-4.4575z" fill="#fff" fill-rule="evenodd"/>
  <g transform="matrix(.26458 0 0 .26458 -106.83 618.92)" clip-path="url(#clipEmfPath7-580)">
   <text transform="translate(139.89 35.173)" fill="#000000" font-family="Calibri" font-size="13.25px" font-weight="400" letter-spacing="0px" word-spacing="0px" style="line-height:125%" xml:space="preserve"><tspan x="0" y="0" fill="#000000" font-family="Calibri" font-size="13.25px" font-weight="400"><tspan dx="0" dy="0">43</tspan><tspan dx="0" dy="0"/></tspan></text>
  </g>
  <path d="m-47.914 631.46v4.4574h3.9657v-4.4574z" fill="#fff" fill-rule="evenodd"/>
  <g transform="matrix(.26458 0 0 .26458 -106.83 618.92)" clip-path="url(#clipEmfPath8-77)">
   <text transform="translate(222.71 60.114)" fill="#000000" font-family="Calibri" font-size="13.25px" font-weight="400" letter-spacing="0px" word-spacing="0px" style="line-height:125%" xml:space="preserve"><tspan x="0" y="0" fill="#000000" font-family="Calibri" font-size="13.25px" font-weight="400"><tspan dx="0" dy="0">45</tspan><tspan dx="0" dy="0"/></tspan></text>
  </g>
  <path d="m-47.068 648.38v4.4575h3.9657v-4.4575z" fill="#fff" fill-rule="evenodd"/>
  <g transform="matrix(.26458 0 0 .26458 -106.83 618.92)" clip-path="url(#clipEmfPath9-41)">
   <text transform="translate(225.91 124.06)" fill="#000000" font-family="Calibri" font-size="13.25px" font-weight="400" letter-spacing="0px" word-spacing="0px" style="line-height:125%" xml:space="preserve"><tspan x="0" y="0" fill="#000000" font-family="Calibri" font-size="13.25px" font-weight="400"><tspan dx="0" dy="0">19</tspan><tspan dx="0" dy="0"/></tspan></text>
  </g>
  <path d="m-54.683 630.83v4.4575h3.9657v-4.4575z" fill="#fff" fill-rule="evenodd"/>
  <g transform="matrix(.26458 0 0 .26458 -106.83 618.92)" clip-path="url(#clipEmfPath10-229)">
   <text transform="translate(197.13 57.716)" fill="#000000" font-family="Calibri" font-size="13.25px" font-weight="400" letter-spacing="0px" word-spacing="0px" style="line-height:125%" xml:space="preserve"><tspan x="0" y="0" fill="#000000" font-family="Calibri" font-size="13.25px" font-weight="400"><tspan dx="0" dy="0">15</tspan><tspan dx="0" dy="0"/></tspan></text>
  </g>
  <path d="m-63.09 627.72v4.4601h3.9657v-4.4601z" fill="#fff" fill-rule="evenodd"/>
  <g transform="matrix(.26458 0 0 .26458 -106.83 618.92)" clip-path="url(#clipEmfPath11-35)">
   <text transform="translate(165.31 46.045)" fill="#000000" font-family="Calibri" font-size="13.25px" font-weight="400" letter-spacing="0px" word-spacing="0px" style="line-height:125%" xml:space="preserve"><tspan x="0" y="0" fill="#000000" font-family="Calibri" font-size="13.25px" font-weight="400"><tspan dx="0" dy="0">1</tspan><tspan dx="0" dy="0">4</tspan><tspan dx="0" dy="0"/></tspan></text>
  </g>
  <path d="m-77.049 627.8v4.4601h3.9657v-4.4601z" fill="#fff" fill-rule="evenodd"/>
  <g transform="matrix(.26458 0 0 .26458 -106.83 618.92)" clip-path="url(#clipEmfPath12-89)">
   <text transform="translate(112.71 46.205)" fill="#000000" font-family="Calibri" font-size="13.25px" font-weight="400" letter-spacing="0px" word-spacing="0px" style="line-height:125%" xml:space="preserve"><tspan x="0" y="0" fill="#000000" font-family="Calibri" font-size="13.25px" font-weight="400"><tspan dx="0" dy="0">1</tspan><tspan dx="0" dy="0">3</tspan><tspan dx="0" dy="0"/></tspan></text>
  </g>
  <path d="m-85.192 630.51v4.4574h3.9657v-4.4574z" fill="#fff" fill-rule="evenodd"/>
  <g transform="matrix(.26458 0 0 .26458 -106.83 618.92)" clip-path="url(#clipEmfPath13-22)">
   <text transform="translate(81.857 56.597)" fill="#000000" font-family="Calibri" font-size="13.25px" font-weight="400" letter-spacing="0px" word-spacing="0px" style="line-height:125%" xml:space="preserve"><tspan x="0" y="0" fill="#000000" font-family="Calibri" font-size="13.25px" font-weight="400"><tspan dx="0" dy="0">25</tspan><tspan dx="0" dy="0"/></tspan></text>
  </g>
  <path d="m-92.542 632.17v4.4601h3.9657v-4.4601z" fill="#fff" fill-rule="evenodd"/>
  <g transform="matrix(.26458 0 0 .26458 -106.83 618.92)" clip-path="url(#clipEmfPath14-91)">
   <text transform="translate(54.039 62.832)" fill="#000000" font-family="Calibri" font-size="13.25px" font-weight="400" letter-spacing="0px" word-spacing="0px" style="line-height:125%" xml:space="preserve"><tspan x="0" y="0" fill="#000000" font-family="Calibri" font-size="13.25px" font-weight="400"><tspan dx="0" dy="0">11</tspan><tspan dx="0" dy="0"/></tspan></text>
  </g>
  <path d="m-91.96 648.89v4.4601h3.9657v-4.4601z" fill="#fff" fill-rule="evenodd"/>
  <g transform="matrix(.26458 0 0 .26458 -106.83 618.92)" clip-path="url(#clipEmfPath15-63)">
   <text transform="translate(56.277 125.98)" fill="#000000" font-family="Calibri" font-size="13.25px" font-weight="400" letter-spacing="0px" word-spacing="0px" style="line-height:125%" xml:space="preserve"><tspan x="0" y="0" fill="#000000" font-family="Calibri" font-size="13.25px" font-weight="400"><tspan dx="0" dy="0">33</tspan><tspan dx="0" dy="0"/></tspan></text>
  </g>
  <path d="m-76.045 651.98v4.4574h3.9657v-4.4574z" fill="#fff" fill-rule="evenodd"/>
  <g transform="matrix(.26458 0 0 .26458 -106.83 618.92)" clip-path="url(#clipEmfPath16-40)">
   <text transform="translate(116.39 137.65)" fill="#000000" font-family="Calibri" font-size="13.25px" font-weight="400" letter-spacing="0px" word-spacing="0px" style="line-height:125%" xml:space="preserve"><tspan x="0" y="0" fill="#000000" font-family="Calibri" font-size="13.25px" font-weight="400"><tspan dx="0" dy="0">36</tspan><tspan dx="0" dy="0"/></tspan></text>
  </g>
  <path d="m-63.037 652.15v4.4601h3.9657v-4.4601z" fill="#fff" fill-rule="evenodd"/>
  <g transform="matrix(.26458 0 0 .26458 -106.83 618.92)" clip-path="url(#clipEmfPath17-9)">
   <text transform="translate(165.63 138.29)" fill="#000000" font-family="Calibri" font-size="13.25px" font-weight="400" letter-spacing="0px" word-spacing="0px" style="line-height:125%" xml:space="preserve"><tspan x="0" y="0" fill="#000000" font-family="Calibri" font-size="13.25px" font-weight="400"><tspan dx="0" dy="0">41</tspan><tspan dx="0" dy="0"/></tspan></text>
  </g>
  <path d="m-69.699 656.21v4.4574h3.9657v-4.4574z" fill="#fff" fill-rule="evenodd"/>
  <g transform="matrix(.26458 0 0 .26458 -106.83 618.92)" clip-path="url(#clipEmfPath18-5)">
   <text transform="translate(140.37 153.64)" fill="#000000" font-family="Calibri" font-size="13.25px" font-weight="400" letter-spacing="0px" word-spacing="0px" style="line-height:125%" xml:space="preserve"><tspan x="0" y="0" fill="#000000" font-family="Calibri" font-size="13.25px" font-weight="400"><tspan dx="0" dy="0">37</tspan><tspan dx="0" dy="0"/></tspan></text>
  </g>
  <path d="m-80.01 640.61v4.4575h3.9657v-4.4575z" fill="#fff" fill-rule="evenodd"/>
  <g transform="matrix(.26458 0 0 .26458 -106.83 618.92)" clip-path="url(#clipEmfPath19-70)">
   <text transform="translate(101.36 94.647)" fill="#000000" font-family="Calibri" font-size="13.25px" font-weight="400" letter-spacing="0px" word-spacing="0px" style="line-height:125%" xml:space="preserve"><tspan x="0" y="0" fill="#000000" font-family="Calibri" font-size="13.25px" font-weight="400"><tspan dx="0" dy="0">27</tspan><tspan dx="0" dy="0"/></tspan></text>
  </g>
  <path d="m-74.194 635.85v4.4575h3.9657v-4.4575z" fill="#fff" fill-rule="evenodd"/>
  <g transform="matrix(.26458 0 0 .26458 -106.83 618.92)" clip-path="url(#clipEmfPath20-72)">
   <text transform="translate(123.43 76.741)" fill="#000000" font-family="Calibri" font-size="13.25px" font-weight="400" letter-spacing="0px" word-spacing="0px" style="line-height:125%" xml:space="preserve"><tspan x="0" y="0" fill="#000000" font-family="Calibri" font-size="13.25px" font-weight="400"><tspan dx="0" dy="0">23</tspan><tspan dx="0" dy="0"/></tspan></text>
  </g>
  <path d="m-65.734 636.12v4.4575h3.9657v-4.4575z" fill="#fff" fill-rule="evenodd"/>
  <g transform="matrix(.26458 0 0 .26458 -106.83 618.92)" clip-path="url(#clipEmfPath21-44)">
   <text transform="translate(155.4 77.7)" fill="#000000" font-family="Calibri" font-size="13.25px" font-weight="400" letter-spacing="0px" word-spacing="0px" style="line-height:125%" xml:space="preserve"><tspan x="0" y="0" fill="#000000" font-family="Calibri" font-size="13.25px" font-weight="400"><tspan dx="0" dy="0">17</tspan><tspan dx="0" dy="0"/></tspan></text>
  </g>
 </g>
</svg>
