<?xml version="1.0" encoding="UTF-8"?>
<!-- Created with Inkscape (http://www.inkscape.org/) -->
<svg width="140.89" height="81.737" version="1.1" viewBox="0 0 140.89191 81.737322" xmlns="http://www.w3.org/2000/svg" xmlns:cc="http://creativecommons.org/ns#" xmlns:dc="http://purl.org/dc/elements/1.1/" xmlns:rdf="http://www.w3.org/1999/02/22-rdf-syntax-ns#">
 <metadata>
  <rdf:RDF>
   <cc:Work rdf:about="">
    <dc:format>image/svg+xml</dc:format>
    <dc:type rdf:resource="http://purl.org/dc/dcmitype/StillImage"/>
    <dc:title/>
   </cc:Work>
  </rdf:RDF>
 </metadata>
 <g transform="matrix(3.7795 0 0 3.7795 -512.41 1037.1)">
  <text x="135.39328" y="-270.86176" fill="#000000" font-family="Calibri" font-size="3.8861px" font-weight="400" letter-spacing="0px" stroke-width=".26458" word-spacing="0px" style="line-height:125%" xml:space="preserve"><tspan x="0" y="0" stroke-width=".26458"><tspan dx="0" dy="0" fill="#000000" font-family="Calibri" font-size="3.8861px" font-weight="400" stroke-width=".26458"/></tspan></text>
  <path d="m135.71-274.26v8.9889h10.575v-8.9889z" fill="#fff" fill-rule="evenodd"/>
  <path d="m135.71-274.26v8.9889h10.575v-8.9889z" fill="none" stroke="#000" stroke-linecap="round" stroke-miterlimit="8" stroke-width=".26438px"/>
  <path d="m148.93-274.26v8.9889h10.575v-8.9889z" fill="#fff" fill-rule="evenodd"/>
  <path d="m148.93-274.26v8.9889h10.575v-8.9889z" fill="none" stroke="#000" stroke-linecap="round" stroke-miterlimit="8" stroke-width=".26438px"/>
  <path d="m162.15-274.26v8.9889h10.575v-8.9889z" fill="#fff" fill-rule="evenodd"/>
  <path d="m162.15-274.26v8.9889h10.575v-8.9889z" fill="none" stroke="#000" stroke-linecap="round" stroke-miterlimit="8" stroke-width=".26438px"/>
  <path d="m135.71-261.88v8.9889h10.575v-8.9889z" fill="#fff" fill-rule="evenodd"/>
  <path d="m135.71-261.88v8.9889h10.575v-8.9889z" fill="none" stroke="#000" stroke-linecap="round" stroke-miterlimit="8" stroke-width=".26438px"/>
  <path d="m148.93-261.88v8.9889h10.575v-8.9889z" fill="#fff" fill-rule="evenodd"/>
  <path d="m148.93-261.88v8.9889h10.575v-8.9889z" fill="none" stroke="#000" stroke-linecap="round" stroke-miterlimit="8" stroke-width=".26438px"/>
  <path d="m162.15-261.88v8.9889h10.575v-8.9889z" fill="#fff" fill-rule="evenodd"/>
  <path d="m162.15-261.88v8.9889h10.575v-8.9889z" fill="none" stroke="#000" stroke-linecap="round" stroke-miterlimit="8" stroke-width=".26438px"/>
  <path d="m136.87-267.28v1.4805h1.4805v-1.4805z" fill-rule="evenodd"/>
  <path d="m136.87-267.28v1.4805h1.4805v-1.4805z" fill="none" stroke="#000" stroke-linecap="round" stroke-miterlimit="8" stroke-width=".26438px"/>
  <path d="m140.31-267.28v1.4805h1.4805v-1.4805z" fill-rule="evenodd"/>
  <path d="m140.31-267.28v1.4805h1.4805v-1.4805z" fill="none" stroke="#000" stroke-linecap="round" stroke-miterlimit="8" stroke-width=".26438px"/>
  <path d="m143.75-267.28v1.4805h1.4805v-1.4805z" fill-rule="evenodd"/>
  <path d="m143.75-267.28v1.4805h1.4805v-1.4805z" fill="none" stroke="#000" stroke-linecap="round" stroke-miterlimit="8" stroke-width=".26438px"/>
  <path d="m136.89-261.05v1.4805h1.4805v-1.4805z" fill-rule="evenodd"/>
  <path d="m136.89-261.05v1.4805h1.4805v-1.4805z" fill="none" stroke="#000" stroke-linecap="round" stroke-miterlimit="8" stroke-width=".26438px"/>
  <path d="m140.33-261.05v1.4805h1.4805v-1.4805z" fill-rule="evenodd"/>
  <path d="m140.33-261.05v1.4805h1.4805v-1.4805z" fill="none" stroke="#000" stroke-linecap="round" stroke-miterlimit="8" stroke-width=".26438px"/>
  <path d="m143.76-261.05v1.4805h1.4805v-1.4805z" fill-rule="evenodd"/>
  <path d="m143.76-261.05v1.4805h1.4805v-1.4805z" fill="none" stroke="#000" stroke-linecap="round" stroke-miterlimit="8" stroke-width=".26438px"/>
  <path d="m136.73-254.83v1.4805h1.4805v-1.4805z" fill-rule="evenodd"/>
  <path d="m136.73-254.83v1.4805h1.4805v-1.4805z" fill="none" stroke="#000" stroke-linecap="round" stroke-miterlimit="8" stroke-width=".26438px"/>
  <path d="m140.17-254.83v1.4805h1.4805v-1.4805z" fill-rule="evenodd"/>
  <path d="m140.17-254.83v1.4805h1.4805v-1.4805z" fill="none" stroke="#000" stroke-linecap="round" stroke-miterlimit="8" stroke-width=".26438px"/>
  <path d="m143.6-254.83v1.4805h1.4805v-1.4805z" fill-rule="evenodd"/>
  <path d="m143.6-254.83v1.4805h1.4805v-1.4805z" fill="none" stroke="#000" stroke-linecap="round" stroke-miterlimit="8" stroke-width=".26438px"/>
  <path d="m149.83-261.18v1.4805h1.4805v-1.4805z" fill-rule="evenodd"/>
  <path d="m149.83-261.18v1.4805h1.4805v-1.4805z" fill="none" stroke="#000" stroke-linecap="round" stroke-miterlimit="8" stroke-width=".26438px"/>
  <path d="m153.26-261.18v1.4805h1.4805v-1.4805z" fill-rule="evenodd"/>
  <path d="m153.26-261.18v1.4805h1.4805v-1.4805z" fill="none" stroke="#000" stroke-linecap="round" stroke-miterlimit="8" stroke-width=".26438px"/>
  <path d="m156.7-261.18v1.4805h1.4805v-1.4805z" fill-rule="evenodd"/>
  <path d="m156.7-261.18v1.4805h1.4805v-1.4805z" fill="none" stroke="#000" stroke-linecap="round" stroke-miterlimit="8" stroke-width=".26438px"/>
  <path d="m163.29-267.26v1.4805h1.4805v-1.4805z" fill-rule="evenodd"/>
  <path d="m163.29-267.26v1.4805h1.4805v-1.4805z" fill="none" stroke="#000" stroke-linecap="round" stroke-miterlimit="8" stroke-width=".26438px"/>
  <path d="m166.73-267.26v1.4805h1.4805v-1.4805z" fill-rule="evenodd"/>
  <path d="m166.73-267.26v1.4805h1.4805v-1.4805z" fill="none" stroke="#000" stroke-linecap="round" stroke-miterlimit="8" stroke-width=".26438px"/>
  <path d="m170.16-267.26v1.4805h1.4805v-1.4805z" fill-rule="evenodd"/>
  <path d="m170.16-267.26v1.4805h1.4805v-1.4805z" fill="none" stroke="#000" stroke-linecap="round" stroke-miterlimit="8" stroke-width=".26438px"/>
  <path d="m163.13-261.3v1.4805h1.4805v-1.4805z" fill-rule="evenodd"/>
  <path d="m163.13-261.3v1.4805h1.4805v-1.4805z" fill="none" stroke="#000" stroke-linecap="round" stroke-miterlimit="8" stroke-width=".26438px"/>
  <path d="m166.57-261.3v1.4805h1.4805v-1.4805z" fill-rule="evenodd"/>
  <path d="m166.57-261.3v1.4805h1.4805v-1.4805z" fill="none" stroke="#000" stroke-linecap="round" stroke-miterlimit="8" stroke-width=".26438px"/>
  <path d="m170.01-261.3v1.4805h1.4805v-1.4805z" fill-rule="evenodd"/>
  <path d="m170.01-261.3v1.4805h1.4805v-1.4805z" fill="none" stroke="#000" stroke-linecap="round" stroke-miterlimit="8" stroke-width=".26438px"/>
  <path d="m143.75-257.74v1.4805h1.4805v-1.4805z" fill-rule="evenodd"/>
  <path d="m143.75-257.74v1.4805h1.4805v-1.4805z" fill="none" stroke="#000" stroke-linecap="round" stroke-miterlimit="8" stroke-width=".26438px"/>
  <path d="m143.89-270.43v1.4805h1.4805v-1.4805z" fill-rule="evenodd"/>
  <path d="m143.89-270.43v1.4805h1.4805v-1.4805z" fill="none" stroke="#000" stroke-linecap="round" stroke-miterlimit="8" stroke-width=".26438px"/>
  <path d="m143.89-273.48v1.4805h1.4805v-1.4805z" fill-rule="evenodd"/>
  <path d="m143.89-273.48v1.4805h1.4805v-1.4805z" fill="none" stroke="#000" stroke-linecap="round" stroke-miterlimit="8" stroke-width=".26438px"/>
  <path d="m163.31-270.17v1.4805h1.4805v-1.4805z" fill-rule="evenodd"/>
  <path d="m163.31-270.17v1.4805h1.4805v-1.4805z" fill="none" stroke="#000" stroke-linecap="round" stroke-miterlimit="8" stroke-width=".26438px"/>
  <path d="m163.31-273.21v1.4805h1.4805v-1.4805z" fill-rule="evenodd"/>
  <path d="m163.31-273.21v1.4805h1.4805v-1.4805z" fill="none" stroke="#000" stroke-linecap="round" stroke-miterlimit="8" stroke-width=".26438px"/>
  <path d="m170.04-270.03v1.4805h1.4805v-1.4805z" fill-rule="evenodd"/>
  <path d="m170.04-270.03v1.4805h1.4805v-1.4805z" fill="none" stroke="#000" stroke-linecap="round" stroke-miterlimit="8" stroke-width=".26438px"/>
  <path d="m170.04-273.07v1.4805h1.4805v-1.4805z" fill-rule="evenodd"/>
  <path d="m170.04-273.07v1.4805h1.4805v-1.4805z" fill="none" stroke="#000" stroke-linecap="round" stroke-miterlimit="8" stroke-width=".26438px"/>
  <path d="m166.73-273.09v1.4805h1.4805v-1.4805z" fill-rule="evenodd"/>
  <path d="m166.73-273.09v1.4805h1.4805v-1.4805z" fill="none" stroke="#000" stroke-linecap="round" stroke-miterlimit="8" stroke-width=".26438px"/>
 </g>
</svg>
