<?xml version="1.0" encoding="UTF-8"?>
<!-- Created with Inkscape (http://www.inkscape.org/) -->
<svg width="129.43" height="113.58" version="1.1" viewBox="0 0 129.43071 113.57789" xmlns="http://www.w3.org/2000/svg" xmlns:cc="http://creativecommons.org/ns#" xmlns:dc="http://purl.org/dc/elements/1.1/" xmlns:rdf="http://www.w3.org/1999/02/22-rdf-syntax-ns#">
 <metadata>
  <rdf:RDF>
   <cc:Work rdf:about="">
    <dc:format>image/svg+xml</dc:format>
    <dc:type rdf:resource="http://purl.org/dc/dcmitype/StillImage"/>
    <dc:title/>
   </cc:Work>
  </rdf:RDF>
 </metadata>
 <g transform="matrix(3.7795 0 0 3.7795 -184.17 901.95)">
  <text x="48.712261" y="-235.0168" fill="#000000" font-family="Calibri" font-size="3.8861px" font-weight="400" letter-spacing="0px" stroke-width=".26458" word-spacing="0px" style="line-height:125%" xml:space="preserve"><tspan x="0" y="0" stroke-width=".26458"><tspan dx="0" dy="0" fill="#000000" font-family="Calibri" font-size="3.8861px" font-weight="400" stroke-width=".26458"/></tspan></text>
  <path d="m49.257-236.08c0.31726 0.0529 0.65566 0.0185 0.93855 0.14276 0.14012 0.0687 0.15863 0.28025 0.26438 0.386 0.33576 0.33576 0.74291 0.65302 1.1844 0.79314 0.17714 0.26438 0.23001 0.68739 0.5314 0.79314 0.84866 0.28289 1.5757 0.63451 2.3874 0.93591 1.2928 1.2849 0.39128 0.37013 1.5942 1.0575 0.63451 0.37013 1.0258 0.70325 1.7317 0.91476 0.8328 0.83015 1.6101 1.7449 2.7786 2.115 0.88303-0.0344 1.7687-0.0159 2.6517-0.12161 0.19564-0.0185 0.35427-0.19565 0.5314-0.26438 0.26702-0.10576 0.79579-0.26438 0.79579-0.26438 0.17713-0.26439 0.35427-0.52877 0.5314-0.79315 0.10575-0.15862 0.12426-0.38864 0.26438-0.52876 0.08989-0.0899 0.88568-0.24851 0.93855-0.26438 3.9816 0.10575 8.439 0.63452 12.331-0.26438 0.58428-0.30139 1.3087-0.79314 1.7317-1.3219 0.19564-0.24852 0.5314-0.79314 0.5314-0.79314 0.05288-0.19564 0.40715-1.076 0.5314-1.2003 0.08725-0.0872 0.26438-0.0872 0.38864-0.12162 0.3014-0.46002 0.14277-0.30139 0.40715-0.52876l0.5314 5.0232c-1.2029 1.4805-0.05288 0.386-3.4502 0.79315-1.2902 0.15862 0.40714 0.56313-1.3272 0.79314-0.31726 0.0344-0.61865 0.0872-0.9359 0.12161-1.1871 1.2347-2.4244 1.4462-4.1058 1.5863-0.44152 0.15862-0.76142 0.38863-1.2029 0.52876-0.74291 0.51289-0.7244 0.0714-0.92004 1.0575 0.05288 0.49439-0.08725 1.1104 0.26702 1.4647 0.69003 0.68739 1.4673 0.66888 2.3874 0.79314 0.38864 0.26438 0.74291 0.37013 1.1844 0.52876 0.61865 0.91476 0.35427 0.52876 0.79578 1.1791 0.08989 0.14276 0.28289 0.15862 0.40715 0.26438 0.42565 0.35427 0.92004 0.68739 1.3272 1.0575 0.95441 0.83015 1.7528 1.7819 2.6544 2.6438 0.31726 1.076 1.0787 1.6392 1.7158 2.5222 0.2115 0.59751 0.42301 0.37014 0.79578 0.91476 0.14012 0.7059-0.08989 0.67153 0.26438 0.67153v3.5586c-0.35427-0.29875-0.7244-0.58164-1.0602-0.91476-0.5129-0.5129-0.92004-1.2532-1.4514-1.729-0.84866-0.75612-0.88303-0.28024-1.5916-1.3219-0.38864-0.56313-1.2743-1.462-1.8586-1.8507-0.54727-0.80901 0.10575 0.0185-0.93591-0.65038-0.16127-0.10575-0.23001-0.30139-0.38864-0.40714-1.0813-0.79315-0.03701 0.2115-0.93855-0.52877-0.5129-0.4045-0.67153-0.616-1.3272-0.79314-1.2373 0.10576-2.5116-0.0159-3.7145 0.26438-0.05288 0.0185-0.97292 0.65302-1.1844 0.79315-0.14277 0.0899-0.40715 0.26438-0.40715 0.26438-0.42565 0.65302-1.2558 0.74026-1.9829 0.9359-1.4673-0.0529-2.9346 0.0687-4.3861-0.14276-0.3199-0.0529-1.7528-1.2849-2.123-1.5863-0.38864-0.31725-0.92004-1.1791-0.92004-1.1791-0.19564-0.74027-0.08725-1.5519-0.40715-2.2578-0.23001-0.51026-0.79578-0.79314-1.1844-1.1791-1.5043 0.0872-1.9643 0.15863-3.1858 0.386-0.5129 0.51289-1.0787 0.95177-1.5916 1.4647-0.77728 0.77464-0.31726 0.82752-1.4673 1.1791-0.44152 0.30139-0.61865 0.65302-1.0628 0.93591-0.28289 0.42301-0.10575 0.38599-0.38864 0.38599l0.12426-2.6438c0.30139-0.75613 0.61865-1.7079 1.4673-1.9723 0.17713-0.26438 0.23001-0.68739 0.5314-0.79314 0.12426-0.0529 0.26438-0.0714 0.38864-0.14277 0.14276-0.0687 0.26702-0.193 0.40715-0.26438 1.2029-0.49175 3.6458-0.35162 4.6346-0.38599 1.5043-0.23001 0.49704 0.12161 1.3272-0.52876 0.24852-0.19565 0.79578-0.52877 0.79578-0.52877 0.23001-0.67152 0.26702-0.56577 0-1.5863-0.08724-0.33576-1.0443-1.1818-1.0602-1.2003-0.84866-0.84601-1.5572-1.8507-2.7786-2.2367-0.61865-0.9359 0.12426 0-0.67153-0.52876-0.99143-0.67152 0.17714-0.23001-0.79578-0.52876-0.90154-0.60014-1.6286-0.74026-2.6544-1.0575-0.5129-0.68739-0.79578-0.79314-1.5916-0.79314z" fill="#3cc" fill-rule="evenodd"/>
  <path d="m56.131-233.69-2.2393 4.09" fill="none" stroke="#000" stroke-linejoin="round" stroke-width="1.0575px"/>
  <path d="m49.257-237.79v28.675h33.188v-28.675z" fill="none" stroke="#fff" stroke-linecap="round" stroke-miterlimit="8" stroke-width="1.0575px"/>
  <path d="m62.212-225.77c-0.10575 0.44151-0.03701 0.93591-0.26438 1.3219-0.07138 0.12426-0.26438 0.0714-0.38864 0.14277-0.14012 0.0687-0.26438 0.17449-0.4045 0.26438-0.44152 0.58163-0.54727 0.56313-1.1818 0.79314-0.29875 0.82751-0.38864 2.2208 0.52876 2.501 0.93326 0.61865 1.7264 1.0945 2.7681 1.4647 6.2209-0.33577 4.1058 0.98614 5.6921-1.4647 0.35163-1.0575 0.28289-1.7978-0.52876-2.6438-0.14012-0.49175-0.38864-0.82751-0.52876-1.3219-0.193-3.2413 0.24587-2.6782-3.0483-2.501-0.68739 0.0872-1.306 0.22737-1.9749 0.386-0.95177 0.63451-0.86452 0.2115-0.66888 1.0575z" fill="#fff" fill-rule="evenodd"/>
  <g fill="none" stroke="#000">
   <g stroke-linejoin="round" stroke-width="1.0575px">
    <path d="m54.156-225.37 1.0575 4.476"/>
    <path d="m63.285-230.13 1.0575 4.476"/>
    <path d="m77.969-232.51 1.0575 4.476"/>
    <path d="m79.819-219.69-3.3153 4.8831"/>
    <path d="m66.193-221.28 3.1726 5.0232"/>
    <path d="m57.204-218.9 3.3153-3.0483"/>
   </g>
   <path d="m49.643-238.46v28.149h32.273v-28.149z" stroke-linecap="round" stroke-miterlimit="8" stroke-width=".35163px"/>
  </g>
 </g>
</svg>
