<?xml version="1.0" encoding="UTF-8"?>
<!-- Created with Inkscape (http://www.inkscape.org/) -->
<svg width="413.48" height="72.944" version="1.1" viewBox="0 0 413.48285 72.944052" xmlns="http://www.w3.org/2000/svg" xmlns:cc="http://creativecommons.org/ns#" xmlns:dc="http://purl.org/dc/elements/1.1/" xmlns:rdf="http://www.w3.org/1999/02/22-rdf-syntax-ns#">
 <metadata>
  <rdf:RDF>
   <cc:Work rdf:about="">
    <dc:format>image/svg+xml</dc:format>
    <dc:type rdf:resource="http://purl.org/dc/dcmitype/StillImage"/>
    <dc:title/>
   </cc:Work>
  </rdf:RDF>
 </metadata>
 <g transform="matrix(3.7795 0 0 3.7795 228.01 356.21)">
  <text x="-60.545391" y="-90.74073" fill="#000000" font-family="Calibri" font-size="3.8861px" font-weight="400" letter-spacing="0px" stroke-width=".26458" word-spacing="0px" style="line-height:125%" xml:space="preserve"><tspan x="0" y="0" stroke-width=".26458"><tspan dx="0" dy="0" fill="#000000" font-family="Calibri" font-size="3.8861px" font-weight="400" stroke-width=".26458"/></tspan></text>
  <g fill="none" stroke="#000" stroke-width=".26438px">
   <g stroke-linejoin="round">
    <path d="m21.021-89.041v9.7821"/>
    <path d="m31.174-89.038h10.152"/>
    <path d="m-6.8973-89.041v9.7821"/>
    <path d="m-6.8973-89.041h10.152"/>
   </g>
   <path d="m-60.196-94.114v19.035h109.14v-19.035z" stroke-linecap="round" stroke-miterlimit="8"/>
   <g stroke-linejoin="round">
    <path d="m-53.851-89.041h10.152"/>
    <path d="m-25.933-94.117v19.035"/>
    <path d="m12.138-94.117v19.035"/>
    <path d="m-43.699-89.041v9.7821"/>
    <path d="m-43.699-78.889 10.152-10.152"/>
    <path d="m-53.851-78.889h10.152"/>
   </g>
  </g>
  <path d="m-53.859-80.158c-0.69532 0-1.2611 0.56577-1.2611 1.2611s0.56577 1.2585 1.2611 1.2585 1.2611-0.56313 1.2611-1.2585-0.56577-1.2611-1.2611-1.2611z" fill="#fff" fill-rule="evenodd"/>
  <path d="m-53.859-80.158c-0.69532 0-1.2611 0.56577-1.2611 1.2611s0.56577 1.2585 1.2611 1.2585 1.2611-0.56313 1.2611-1.2585-0.56577-1.2611-1.2611-1.2611" fill="none" stroke="#000" stroke-linecap="round" stroke-linejoin="round" stroke-width=".26438px"/>
  <path d="m-33.536-90.31c-0.69532 0-1.2611 0.56577-1.2611 1.2611 0 0.69532 0.56577 1.2585 1.2611 1.2585 0.69532 0 1.2584-0.56313 1.2584-1.2585 0-0.69532-0.56313-1.2611-1.2584-1.2611z" fill="#fff" fill-rule="evenodd"/>
  <path d="m-33.536-90.31c-0.69532 0-1.2611 0.56577-1.2611 1.2611 0 0.69532 0.56577 1.2585 1.2611 1.2585 0.69532 0 1.2584-0.56313 1.2584-1.2585 0-0.69532-0.56313-1.2611-1.2584-1.2611" fill="none" stroke="#000" stroke-linecap="round" stroke-linejoin="round" stroke-width=".26438px"/>
  <path d="m-43.707-90.31c-0.69532 0-1.2611 0.56577-1.2611 1.2611 0 0.69532 0.56577 1.2585 1.2611 1.2585s1.2611-0.56313 1.2611-1.2585c0-0.69532-0.56577-1.2611-1.2611-1.2611z" fill="#fff" fill-rule="evenodd"/>
  <path d="m-43.707-90.31c-0.69532 0-1.2611 0.56577-1.2611 1.2611 0 0.69532 0.56577 1.2585 1.2611 1.2585s1.2611-0.56313 1.2611-1.2585c0-0.69532-0.56577-1.2611-1.2611-1.2611" fill="none" stroke="#000" stroke-linecap="round" stroke-linejoin="round" stroke-width=".26438px"/>
  <path d="m-43.707-80.158c-0.69532 0-1.2611 0.56577-1.2611 1.2611s0.56577 1.2585 1.2611 1.2585 1.2611-0.56313 1.2611-1.2585-0.56577-1.2611-1.2611-1.2611z" fill="#fff" fill-rule="evenodd"/>
  <path d="m-43.707-80.158c-0.69532 0-1.2611 0.56577-1.2611 1.2611s0.56577 1.2585 1.2611 1.2585 1.2611-0.56313 1.2611-1.2585-0.56577-1.2611-1.2611-1.2611" fill="none" stroke="#000" stroke-linecap="round" stroke-linejoin="round" stroke-width=".26438px"/>
  <path d="m-53.859-90.31c-0.69532 0-1.2611 0.56577-1.2611 1.2611 0 0.69532 0.56577 1.2585 1.2611 1.2585s1.2611-0.56313 1.2611-1.2585c0-0.69532-0.56577-1.2611-1.2611-1.2611z" fill="#fff" fill-rule="evenodd"/>
  <g fill="none" stroke="#000" stroke-linejoin="round" stroke-width=".26438px">
   <path d="m-53.859-90.31c-0.69532 0-1.2611 0.56577-1.2611 1.2611 0 0.69532 0.56577 1.2585 1.2611 1.2585s1.2611-0.56313 1.2611-1.2585c0-0.69532-0.56577-1.2611-1.2611-1.2611" stroke-linecap="round"/>
   <path d="m-17.05-89.041v9.7821"/>
   <path d="m-6.8973-78.889 10.152-10.152"/>
  </g>
  <path d="m-17.057-80.158c-0.69532 0-1.2611 0.56577-1.2611 1.2611s0.56577 1.2585 1.2611 1.2585c0.69532 0 1.2611-0.56313 1.2611-1.2585s-0.56578-1.2611-1.2611-1.2611z" fill="#fff" fill-rule="evenodd"/>
  <path d="m-17.057-80.158c-0.69532 0-1.2611 0.56577-1.2611 1.2611s0.56577 1.2585 1.2611 1.2585c0.69532 0 1.2611-0.56313 1.2611-1.2585s-0.56578-1.2611-1.2611-1.2611" fill="none" stroke="#000" stroke-linecap="round" stroke-linejoin="round" stroke-width=".26438px"/>
  <path d="m3.2655-90.31c-0.69532 0-1.2611 0.56577-1.2611 1.2611 0 0.69532 0.56578 1.2585 1.2611 1.2585 0.69532 0 1.2585-0.56313 1.2585-1.2585 0-0.69532-0.56313-1.2611-1.2585-1.2611z" fill="#fff" fill-rule="evenodd"/>
  <path d="m3.2655-90.31c-0.69532 0-1.2611 0.56577-1.2611 1.2611 0 0.69532 0.56578 1.2585 1.2611 1.2585 0.69532 0 1.2585-0.56313 1.2585-1.2585 0-0.69532-0.56313-1.2611-1.2585-1.2611" fill="none" stroke="#000" stroke-linecap="round" stroke-linejoin="round" stroke-width=".26438px"/>
  <path d="m-6.9052-90.31c-0.69532 0-1.2611 0.56577-1.2611 1.2611 0 0.69532 0.56577 1.2585 1.2611 1.2585s1.2611-0.56313 1.2611-1.2585c0-0.69532-0.56577-1.2611-1.2611-1.2611z" fill="#fff" fill-rule="evenodd"/>
  <path d="m-6.9052-90.31c-0.69532 0-1.2611 0.56577-1.2611 1.2611 0 0.69532 0.56577 1.2585 1.2611 1.2585s1.2611-0.56313 1.2611-1.2585c0-0.69532-0.56577-1.2611-1.2611-1.2611" fill="none" stroke="#000" stroke-linecap="round" stroke-linejoin="round" stroke-width=".26438px"/>
  <path d="m-6.9052-80.158c-0.69532 0-1.2611 0.56577-1.2611 1.2611s0.56577 1.2585 1.2611 1.2585 1.2611-0.56313 1.2611-1.2585-0.56577-1.2611-1.2611-1.2611z" fill="#fff" fill-rule="evenodd"/>
  <path d="m-6.9052-80.158c-0.69532 0-1.2611 0.56577-1.2611 1.2611s0.56577 1.2585 1.2611 1.2585 1.2611-0.56313 1.2611-1.2585-0.56577-1.2611-1.2611-1.2611" fill="none" stroke="#000" stroke-linecap="round" stroke-linejoin="round" stroke-width=".26438px"/>
  <path d="m-17.057-90.31c-0.69532 0-1.2611 0.56577-1.2611 1.2611 0 0.69532 0.56577 1.2585 1.2611 1.2585 0.69532 0 1.2611-0.56313 1.2611-1.2585 0-0.69532-0.56578-1.2611-1.2611-1.2611z" fill="#fff" fill-rule="evenodd"/>
  <g fill="none" stroke="#000" stroke-linejoin="round" stroke-width=".26438px">
   <path d="m-17.057-90.31c-0.69532 0-1.2611 0.56577-1.2611 1.2611 0 0.69532 0.56577 1.2585 1.2611 1.2585 0.69532 0 1.2611-0.56313 1.2611-1.2585 0-0.69532-0.56578-1.2611-1.2611-1.2611" stroke-linecap="round"/>
   <g>
    <path d="m21.021-89.038h10.152"/>
    <path d="m31.174-89.038v9.7821"/>
    <path d="m31.174-78.886 10.152-10.152"/>
    <path d="m21.021-78.886h10.152"/>
   </g>
  </g>
  <path d="m21.013-80.158c-0.69532 0-1.2611 0.56577-1.2611 1.2611s0.56577 1.2585 1.2611 1.2585c0.69532 0 1.2611-0.56313 1.2611-1.2585s-0.56577-1.2611-1.2611-1.2611z" fill="#fff" fill-rule="evenodd"/>
  <path d="m21.013-80.158c-0.69532 0-1.2611 0.56577-1.2611 1.2611s0.56577 1.2585 1.2611 1.2585c0.69532 0 1.2611-0.56313 1.2611-1.2585s-0.56577-1.2611-1.2611-1.2611" fill="none" stroke="#000" stroke-linecap="round" stroke-linejoin="round" stroke-width=".26438px"/>
  <path d="m41.336-90.307c-0.69267 0-1.2584 0.56577-1.2584 1.2585 0 0.69796 0.56578 1.2585 1.2584 1.2585 0.69797 0 1.2585-0.56049 1.2585-1.2585 0-0.69268-0.56049-1.2585-1.2585-1.2585z" fill="#fff" fill-rule="evenodd"/>
  <path d="m41.336-90.307c-0.69267 0-1.2584 0.56577-1.2584 1.2585 0 0.69796 0.56578 1.2585 1.2584 1.2585 0.69797 0 1.2585-0.56049 1.2585-1.2585 0-0.69268-0.56049-1.2585-1.2585-1.2585" fill="none" stroke="#000" stroke-linecap="round" stroke-linejoin="round" stroke-width=".26438px"/>
  <path d="m31.168-90.307c-0.69796 0-1.2637 0.56577-1.2637 1.2585 0 0.69796 0.56578 1.2585 1.2637 1.2585 0.69268 0 1.2585-0.56049 1.2585-1.2585 0-0.69268-0.56577-1.2585-1.2585-1.2585z" fill="#fff" fill-rule="evenodd"/>
  <path d="m31.168-90.307c-0.69796 0-1.2637 0.56577-1.2637 1.2585 0 0.69796 0.56578 1.2585 1.2637 1.2585 0.69268 0 1.2585-0.56049 1.2585-1.2585 0-0.69268-0.56577-1.2585-1.2585-1.2585" fill="none" stroke="#000" stroke-linecap="round" stroke-linejoin="round" stroke-width=".26438px"/>
  <path d="m31.168-80.155c-0.69796 0-1.2637 0.56578-1.2637 1.2585 0 0.69796 0.56578 1.2585 1.2637 1.2585 0.69268 0 1.2585-0.56049 1.2585-1.2585 0-0.69268-0.56577-1.2585-1.2585-1.2585z" fill="#fff" fill-rule="evenodd"/>
  <path d="m31.168-80.155c-0.69796 0-1.2637 0.56578-1.2637 1.2585 0 0.69796 0.56578 1.2585 1.2637 1.2585 0.69268 0 1.2585-0.56049 1.2585-1.2585 0-0.69268-0.56577-1.2585-1.2585-1.2585" fill="none" stroke="#000" stroke-linecap="round" stroke-linejoin="round" stroke-width=".26438px"/>
  <path d="m21.013-90.31c-0.69532 0-1.2611 0.56577-1.2611 1.2611 0 0.69532 0.56577 1.2585 1.2611 1.2585 0.69532 0 1.2611-0.56313 1.2611-1.2585 0-0.69532-0.56577-1.2611-1.2611-1.2611z" fill="#fff" fill-rule="evenodd"/>
  <path d="m21.013-90.31c-0.69532 0-1.2611 0.56577-1.2611 1.2611 0 0.69532 0.56577 1.2585 1.2611 1.2585 0.69532 0 1.2611-0.56313 1.2611-1.2585 0-0.69532-0.56577-1.2611-1.2611-1.2611" fill="none" stroke="#000" stroke-linecap="round" stroke-linejoin="round" stroke-width=".26438px"/>
 </g>
</svg>
