<?xml version="1.0" encoding="UTF-8"?>
<!-- Created with Inkscape (http://www.inkscape.org/) -->
<svg width="413.48" height="72.944" version="1.1" viewBox="0 0 413.48285 72.944052" xmlns="http://www.w3.org/2000/svg" xmlns:cc="http://creativecommons.org/ns#" xmlns:dc="http://purl.org/dc/elements/1.1/" xmlns:rdf="http://www.w3.org/1999/02/22-rdf-syntax-ns#">
 <metadata>
  <rdf:RDF>
   <cc:Work rdf:about="">
    <dc:format>image/svg+xml</dc:format>
    <dc:type rdf:resource="http://purl.org/dc/dcmitype/StillImage"/>
    <dc:title/>
   </cc:Work>
  </rdf:RDF>
 </metadata>
 <g transform="matrix(3.7795 0 0 3.7795 527.95 162.63)">
  <text x="-139.90396" y="-39.576378" fill="#000000" font-family="Calibri" font-size="3.8861px" font-weight="400" letter-spacing="0px" stroke-width=".26458" word-spacing="0px" style="line-height:125%" xml:space="preserve"><tspan x="0" y="0" stroke-width=".26458"><tspan dx="0" dy="0" fill="#000000" font-family="Calibri" font-size="3.8861px" font-weight="400" stroke-width=".26458"/></tspan></text>
  <g fill="none" stroke="#000" stroke-width=".26438px">
   <g stroke-linejoin="round">
    <path d="m-59.606-37.824 5.0761 5.0761"/>
    <path d="m-44.378-32.745-5.0761 5.0761"/>
    <path d="m-77.373-27.671-5.0761-5.0761"/>
    <path d="m-82.449-32.747 5.0761-5.0761"/>
    <path d="m-123.06-37.824h10.152"/>
    <path d="m-123.06-27.671h10.152"/>
    <path d="m-128.13-32.747h10.152"/>
   </g>
   <path d="m-139.55-42.897v19.035h109.14v-19.035z" stroke-linecap="round" stroke-miterlimit="8"/>
   <g stroke-linejoin="round">
    <path d="m-133.21-37.824h10.152"/>
    <path d="m-105.29-42.9v19.035"/>
    <path d="m-67.22-42.9v19.035"/>
    <path d="m-133.21-27.671h10.152"/>
   </g>
  </g>
  <path d="m-133.22-28.94c-0.69532 0-1.2611 0.56577-1.2611 1.2611s0.56577 1.2585 1.2611 1.2585 1.2611-0.56313 1.2611-1.2585-0.56578-1.2611-1.2611-1.2611z" fill="#fff" fill-rule="evenodd"/>
  <path d="m-133.22-28.94c-0.69532 0-1.2611 0.56577-1.2611 1.2611s0.56577 1.2585 1.2611 1.2585 1.2611-0.56313 1.2611-1.2585-0.56578-1.2611-1.2611-1.2611" fill="none" stroke="#000" stroke-linecap="round" stroke-linejoin="round" stroke-width=".26438px"/>
  <path d="m-123.07-39.093c-0.69532 0-1.2611 0.56577-1.2611 1.2611s0.56577 1.2585 1.2611 1.2585 1.2611-0.56313 1.2611-1.2585-0.56578-1.2611-1.2611-1.2611z" fill="#fff" fill-rule="evenodd"/>
  <path d="m-123.07-39.093c-0.69532 0-1.2611 0.56577-1.2611 1.2611s0.56577 1.2585 1.2611 1.2585 1.2611-0.56313 1.2611-1.2585-0.56578-1.2611-1.2611-1.2611" fill="none" stroke="#000" stroke-linecap="round" stroke-linejoin="round" stroke-width=".26438px"/>
  <path d="m-123.07-28.94c-0.69532 0-1.2611 0.56577-1.2611 1.2611s0.56577 1.2585 1.2611 1.2585 1.2611-0.56313 1.2611-1.2585-0.56578-1.2611-1.2611-1.2611z" fill="#fff" fill-rule="evenodd"/>
  <path d="m-123.07-28.94c-0.69532 0-1.2611 0.56577-1.2611 1.2611s0.56577 1.2585 1.2611 1.2585 1.2611-0.56313 1.2611-1.2585-0.56578-1.2611-1.2611-1.2611" fill="none" stroke="#000" stroke-linecap="round" stroke-linejoin="round" stroke-width=".26438px"/>
  <path d="m-133.22-39.093c-0.69532 0-1.2611 0.56577-1.2611 1.2611s0.56577 1.2585 1.2611 1.2585 1.2611-0.56313 1.2611-1.2585-0.56578-1.2611-1.2611-1.2611z" fill="#fff" fill-rule="evenodd"/>
  <path d="m-133.22-39.093c-0.69532 0-1.2611 0.56577-1.2611 1.2611s0.56577 1.2585 1.2611 1.2585 1.2611-0.56313 1.2611-1.2585-0.56578-1.2611-1.2611-1.2611" fill="none" stroke="#000" stroke-linecap="round" stroke-linejoin="round" stroke-width=".26438px"/>
  <path d="m-128.14-34.016c-0.69532 0-1.2611 0.56577-1.2611 1.2611s0.56578 1.2585 1.2611 1.2585 1.2611-0.56313 1.2611-1.2585-0.56577-1.2611-1.2611-1.2611z" fill="#fff" fill-rule="evenodd"/>
  <path d="m-128.14-34.016c-0.69532 0-1.2611 0.56577-1.2611 1.2611s0.56578 1.2585 1.2611 1.2585 1.2611-0.56313 1.2611-1.2585-0.56577-1.2611-1.2611-1.2611" fill="none" stroke="#000" stroke-linecap="round" stroke-linejoin="round" stroke-width=".26438px"/>
  <path d="m-112.89-39.093c-0.69532 0-1.2611 0.56577-1.2611 1.2611s0.56577 1.2585 1.2611 1.2585 1.2584-0.56313 1.2584-1.2585-0.56313-1.2611-1.2584-1.2611z" fill="#fff" fill-rule="evenodd"/>
  <path d="m-112.89-39.093c-0.69532 0-1.2611 0.56577-1.2611 1.2611s0.56577 1.2585 1.2611 1.2585 1.2584-0.56313 1.2584-1.2585-0.56313-1.2611-1.2584-1.2611" fill="none" stroke="#000" stroke-linecap="round" stroke-linejoin="round" stroke-width=".26438px"/>
  <path d="m-112.89-28.94c-0.69532 0-1.2611 0.56577-1.2611 1.2611s0.56577 1.2585 1.2611 1.2585 1.2584-0.56313 1.2584-1.2585-0.56313-1.2611-1.2584-1.2611z" fill="#fff" fill-rule="evenodd"/>
  <path d="m-112.89-28.94c-0.69532 0-1.2611 0.56577-1.2611 1.2611s0.56577 1.2585 1.2611 1.2585 1.2584-0.56313 1.2584-1.2585-0.56313-1.2611-1.2584-1.2611" fill="none" stroke="#000" stroke-linecap="round" stroke-linejoin="round" stroke-width=".26438px"/>
  <path d="m-117.97-34.016c-0.69532 0-1.2611 0.56577-1.2611 1.2611s0.56578 1.2585 1.2611 1.2585 1.2584-0.56313 1.2584-1.2585-0.56313-1.2611-1.2584-1.2611z" fill="#fff" fill-rule="evenodd"/>
  <g fill="none" stroke="#000" stroke-linejoin="round" stroke-width=".26438px">
   <path d="m-117.97-34.016c-0.69532 0-1.2611 0.56577-1.2611 1.2611s0.56578 1.2585 1.2611 1.2585 1.2584-0.56313 1.2584-1.2585-0.56313-1.2611-1.2584-1.2611" stroke-linecap="round"/>
   <g>
    <path d="m-87.525-37.824h10.152"/>
    <path d="m-87.525-27.671 5.0761-5.0761"/>
    <path d="m-92.601-32.747h10.152"/>
    <path d="m-97.677-37.824 5.0761 5.0761"/>
    <path d="m-97.677-27.671h10.152"/>
   </g>
  </g>
  <path d="m-97.685-28.94c-0.69532 0-1.2611 0.56577-1.2611 1.2611s0.56578 1.2585 1.2611 1.2585c0.69532 0 1.2611-0.56313 1.2611-1.2585s-0.56577-1.2611-1.2611-1.2611z" fill="#fff" fill-rule="evenodd"/>
  <path d="m-97.685-28.94c-0.69532 0-1.2611 0.56577-1.2611 1.2611s0.56578 1.2585 1.2611 1.2585c0.69532 0 1.2611-0.56313 1.2611-1.2585s-0.56577-1.2611-1.2611-1.2611" fill="none" stroke="#000" stroke-linecap="round" stroke-linejoin="round" stroke-width=".26438px"/>
  <path d="m-87.533-39.093c-0.69532 0-1.2611 0.56577-1.2611 1.2611s0.56578 1.2585 1.2611 1.2585c0.69532 0 1.2611-0.56313 1.2611-1.2585s-0.56577-1.2611-1.2611-1.2611z" fill="#fff" fill-rule="evenodd"/>
  <path d="m-87.533-39.093c-0.69532 0-1.2611 0.56577-1.2611 1.2611s0.56578 1.2585 1.2611 1.2585c0.69532 0 1.2611-0.56313 1.2611-1.2585s-0.56577-1.2611-1.2611-1.2611" fill="none" stroke="#000" stroke-linecap="round" stroke-linejoin="round" stroke-width=".26438px"/>
  <path d="m-87.533-28.94c-0.69532 0-1.2611 0.56577-1.2611 1.2611s0.56578 1.2585 1.2611 1.2585c0.69532 0 1.2611-0.56313 1.2611-1.2585s-0.56577-1.2611-1.2611-1.2611z" fill="#fff" fill-rule="evenodd"/>
  <path d="m-87.533-28.94c-0.69532 0-1.2611 0.56577-1.2611 1.2611s0.56578 1.2585 1.2611 1.2585c0.69532 0 1.2611-0.56313 1.2611-1.2585s-0.56577-1.2611-1.2611-1.2611" fill="none" stroke="#000" stroke-linecap="round" stroke-linejoin="round" stroke-width=".26438px"/>
  <path d="m-97.685-39.093c-0.69532 0-1.2611 0.56577-1.2611 1.2611s0.56578 1.2585 1.2611 1.2585c0.69532 0 1.2611-0.56313 1.2611-1.2585s-0.56577-1.2611-1.2611-1.2611z" fill="#fff" fill-rule="evenodd"/>
  <path d="m-97.685-39.093c-0.69532 0-1.2611 0.56577-1.2611 1.2611s0.56578 1.2585 1.2611 1.2585c0.69532 0 1.2611-0.56313 1.2611-1.2585s-0.56577-1.2611-1.2611-1.2611" fill="none" stroke="#000" stroke-linecap="round" stroke-linejoin="round" stroke-width=".26438px"/>
  <path d="m-92.609-34.016c-0.69532 0-1.2611 0.56577-1.2611 1.2611s0.56577 1.2585 1.2611 1.2585c0.69532 0 1.2611-0.56313 1.2611-1.2585s-0.56578-1.2611-1.2611-1.2611z" fill="#fff" fill-rule="evenodd"/>
  <path d="m-92.609-34.016c-0.69532 0-1.2611 0.56577-1.2611 1.2611s0.56577 1.2585 1.2611 1.2585c0.69532 0 1.2611-0.56313 1.2611-1.2585s-0.56578-1.2611-1.2611-1.2611" fill="none" stroke="#000" stroke-linecap="round" stroke-linejoin="round" stroke-width=".26438px"/>
  <path d="m-77.362-39.093c-0.69532 0-1.2611 0.56577-1.2611 1.2611s0.56577 1.2585 1.2611 1.2585c0.69532 0 1.2585-0.56313 1.2585-1.2585s-0.56313-1.2611-1.2585-1.2611z" fill="#fff" fill-rule="evenodd"/>
  <path d="m-77.362-39.093c-0.69532 0-1.2611 0.56577-1.2611 1.2611s0.56577 1.2585 1.2611 1.2585c0.69532 0 1.2585-0.56313 1.2585-1.2585s-0.56313-1.2611-1.2585-1.2611" fill="none" stroke="#000" stroke-linecap="round" stroke-linejoin="round" stroke-width=".26438px"/>
  <path d="m-77.362-28.94c-0.69532 0-1.2611 0.56577-1.2611 1.2611s0.56577 1.2585 1.2611 1.2585c0.69532 0 1.2585-0.56313 1.2585-1.2585s-0.56313-1.2611-1.2585-1.2611z" fill="#fff" fill-rule="evenodd"/>
  <path d="m-77.362-28.94c-0.69532 0-1.2611 0.56577-1.2611 1.2611s0.56577 1.2585 1.2611 1.2585c0.69532 0 1.2585-0.56313 1.2585-1.2585s-0.56313-1.2611-1.2585-1.2611" fill="none" stroke="#000" stroke-linecap="round" stroke-linejoin="round" stroke-width=".26438px"/>
  <path d="m-82.438-34.016c-0.69532 0-1.2611 0.56577-1.2611 1.2611s0.56577 1.2585 1.2611 1.2585c0.69532 0 1.2585-0.56313 1.2585-1.2585s-0.56313-1.2611-1.2585-1.2611z" fill="#fff" fill-rule="evenodd"/>
  <g fill="none" stroke="#000" stroke-linejoin="round" stroke-width=".26438px">
   <path d="m-82.438-34.016c-0.69532 0-1.2611 0.56577-1.2611 1.2611s0.56577 1.2585 1.2611 1.2585c0.69532 0 1.2585-0.56313 1.2585-1.2585s-0.56313-1.2611-1.2585-1.2611" stroke-linecap="round"/>
   <g>
    <path d="m-49.454-37.821h10.152"/>
    <path d="m-39.302-37.821v10.152"/>
    <path d="m-54.53-32.745h10.152"/>
    <path d="m-59.606-37.824v10.152"/>
    <path d="m-59.606-27.669h10.152"/>
   </g>
  </g>
  <path d="m-59.614-28.94c-0.69532 0-1.2611 0.56577-1.2611 1.2611s0.56577 1.2585 1.2611 1.2585c0.69532 0 1.2611-0.56313 1.2611-1.2585s-0.56578-1.2611-1.2611-1.2611z" fill="#fff" fill-rule="evenodd"/>
  <path d="m-59.614-28.94c-0.69532 0-1.2611 0.56577-1.2611 1.2611s0.56577 1.2585 1.2611 1.2585c0.69532 0 1.2611-0.56313 1.2611-1.2585s-0.56578-1.2611-1.2611-1.2611" fill="none" stroke="#000" stroke-linecap="round" stroke-linejoin="round" stroke-width=".26438px"/>
  <path d="m-49.459-39.09c-0.69797 0-1.2637 0.56577-1.2637 1.2585 0 0.69796 0.56577 1.2585 1.2637 1.2585 0.69268 0 1.2585-0.56049 1.2585-1.2585 0-0.69268-0.56577-1.2585-1.2585-1.2585z" fill="#fff" fill-rule="evenodd"/>
  <path d="m-49.459-39.09c-0.69797 0-1.2637 0.56577-1.2637 1.2585 0 0.69796 0.56577 1.2585 1.2637 1.2585 0.69268 0 1.2585-0.56049 1.2585-1.2585 0-0.69268-0.56577-1.2585-1.2585-1.2585" fill="none" stroke="#000" stroke-linecap="round" stroke-linejoin="round" stroke-width=".26438px"/>
  <path d="m-49.459-28.938c-0.69797 0-1.2637 0.56577-1.2637 1.2585 0 0.69796 0.56577 1.2585 1.2637 1.2585 0.69268 0 1.2585-0.56049 1.2585-1.2585 0-0.69268-0.56577-1.2585-1.2585-1.2585z" fill="#fff" fill-rule="evenodd"/>
  <path d="m-49.459-28.938c-0.69797 0-1.2637 0.56577-1.2637 1.2585 0 0.69796 0.56577 1.2585 1.2637 1.2585 0.69268 0 1.2585-0.56049 1.2585-1.2585 0-0.69268-0.56577-1.2585-1.2585-1.2585" fill="none" stroke="#000" stroke-linecap="round" stroke-linejoin="round" stroke-width=".26438px"/>
  <path d="m-59.614-39.093c-0.69532 0-1.2611 0.56577-1.2611 1.2611s0.56577 1.2585 1.2611 1.2585c0.69532 0 1.2611-0.56313 1.2611-1.2585s-0.56578-1.2611-1.2611-1.2611z" fill="#fff" fill-rule="evenodd"/>
  <path d="m-59.614-39.093c-0.69532 0-1.2611 0.56577-1.2611 1.2611s0.56577 1.2585 1.2611 1.2585c0.69532 0 1.2611-0.56313 1.2611-1.2585s-0.56578-1.2611-1.2611-1.2611" fill="none" stroke="#000" stroke-linecap="round" stroke-linejoin="round" stroke-width=".26438px"/>
  <path d="m-54.538-34.016c-0.69532 0-1.2611 0.56577-1.2611 1.2611s0.56577 1.2585 1.2611 1.2585 1.2611-0.56313 1.2611-1.2585-0.56577-1.2611-1.2611-1.2611z" fill="#fff" fill-rule="evenodd"/>
  <path d="m-54.535-34.014c-0.69796 0-1.2637 0.56578-1.2637 1.2585 0 0.69796 0.56577 1.2585 1.2637 1.2585 0.69268 0 1.2585-0.56049 1.2585-1.2585 0-0.69268-0.56577-1.2585-1.2585-1.2585" fill="none" stroke="#000" stroke-linecap="round" stroke-linejoin="round" stroke-width=".26438px"/>
  <path d="m-39.291-39.09c-0.69268 0-1.2585 0.56577-1.2585 1.2585 0 0.69796 0.56578 1.2585 1.2585 1.2585 0.69796 0 1.2584-0.56049 1.2584-1.2585 0-0.69268-0.56049-1.2585-1.2584-1.2585z" fill="#fff" fill-rule="evenodd"/>
  <path d="m-39.291-39.09c-0.69268 0-1.2585 0.56577-1.2585 1.2585 0 0.69796 0.56578 1.2585 1.2585 1.2585 0.69796 0 1.2584-0.56049 1.2584-1.2585 0-0.69268-0.56049-1.2585-1.2584-1.2585" fill="none" stroke="#000" stroke-linecap="round" stroke-linejoin="round" stroke-width=".26438px"/>
  <path d="m-39.291-28.938c-0.69268 0-1.2585 0.56577-1.2585 1.2585 0 0.69796 0.56578 1.2585 1.2585 1.2585 0.69796 0 1.2584-0.56049 1.2584-1.2585 0-0.69268-0.56049-1.2585-1.2584-1.2585z" fill="#fff" fill-rule="evenodd"/>
  <path d="m-39.291-28.938c-0.69268 0-1.2585 0.56577-1.2585 1.2585 0 0.69796 0.56578 1.2585 1.2585 1.2585 0.69796 0 1.2584-0.56049 1.2584-1.2585 0-0.69268-0.56049-1.2585-1.2584-1.2585" fill="none" stroke="#000" stroke-linecap="round" stroke-linejoin="round" stroke-width=".26438px"/>
  <path d="m-44.367-34.014c-0.69268 0-1.2585 0.56578-1.2585 1.2585 0 0.69796 0.56578 1.2585 1.2585 1.2585 0.69797 0 1.2585-0.56049 1.2585-1.2585 0-0.69268-0.56048-1.2585-1.2585-1.2585z" fill="#fff" fill-rule="evenodd"/>
  <path d="m-44.367-34.014c-0.69268 0-1.2585 0.56578-1.2585 1.2585 0 0.69796 0.56578 1.2585 1.2585 1.2585 0.69797 0 1.2585-0.56049 1.2585-1.2585 0-0.69268-0.56048-1.2585-1.2585-1.2585" fill="none" stroke="#000" stroke-linecap="round" stroke-linejoin="round" stroke-width=".26438px"/>
 </g>
</svg>
