<?xml version="1.0" encoding="UTF-8"?>
<!-- Created with Inkscape (http://www.inkscape.org/) -->
<svg width="227.95" height="152.88" version="1.1" viewBox="0 0 227.94992 152.8835" xmlns="http://www.w3.org/2000/svg" xmlns:cc="http://creativecommons.org/ns#" xmlns:dc="http://purl.org/dc/elements/1.1/" xmlns:rdf="http://www.w3.org/1999/02/22-rdf-syntax-ns#">
 <defs>
  <clipPath id="clipEmfPath1-81">
   <path d="m10.072 139.41h62.352v19.185h-62.352z"/>
  </clipPath>
  <clipPath id="clipEmfPath2-066">
   <path d="m0.47963 48.283h62.352v19.185h-62.352z"/>
  </clipPath>
  <clipPath id="clipEmfPath3-91">
   <path d="m72.424 0.31975h76.741v19.185h-76.741z"/>
  </clipPath>
  <clipPath id="clipEmfPath4-12">
   <path d="m187.54 0.31975h76.741v19.185h-76.741z"/>
  </clipPath>
  <clipPath id="clipEmfPath5-132">
   <path d="m77.221 86.654h76.741v19.185h-76.741z"/>
  </clipPath>
  <clipPath id="clipEmfPath6-90">
   <path d="m173.15 125.02h76.741v19.185h-76.741z"/>
  </clipPath>
  <clipPath id="clipEmfPath7-68">
   <path d="m14.869 105.84h62.352v19.185h-62.352z"/>
  </clipPath>
  <clipPath id="clipEmfPath8-43">
   <path d="m48.443 33.894h62.352v19.185h-62.352z"/>
  </clipPath>
  <clipPath id="clipEmfPath9-30">
   <path d="m144.37 24.301h62.352v19.185h-62.352z"/>
  </clipPath>
  <clipPath id="clipEmfPath10-353">
   <path d="m96.406 53.079h62.352v19.185h-62.352z"/>
  </clipPath>
  <clipPath id="clipEmfPath11-52">
   <path d="m206.72 57.876h62.352v19.185h-62.352z"/>
  </clipPath>
  <clipPath id="clipEmfPath12-78">
   <path d="m158.76 91.45h62.352v19.185h-62.352z"/>
  </clipPath>
  <clipPath id="clipEmfPath13-62">
   <path d="m91.61 110.64h62.352v19.185h-62.352z"/>
  </clipPath>
  <clipPath id="clipEmfPath14-2">
   <path d="m115.59 129.82h62.352v19.185h-62.352z"/>
  </clipPath>
  <clipPath id="clipEmfPath15-638">
   <path d="m72.424 144.21h62.352v19.185h-62.352z"/>
  </clipPath>
 </defs>
 <metadata>
  <rdf:RDF>
   <cc:Work rdf:about="">
    <dc:format>image/svg+xml</dc:format>
    <dc:type rdf:resource="http://purl.org/dc/dcmitype/StillImage"/>
    <dc:title/>
   </cc:Work>
  </rdf:RDF>
 </metadata>
 <g transform="matrix(3.7795 0 0 3.7795 -264.67 198.35)">
  <text x="69.574013" y="-49.920246" fill="#000000" font-family="Calibri" font-size="3.8861px" font-weight="400" letter-spacing="0px" stroke-width=".26458" word-spacing="0px" style="line-height:125%" xml:space="preserve"><tspan x="0" y="0" stroke-width=".26458"><tspan dx="0" dy="0" fill="#000000" font-family="Calibri" font-size="3.8861px" font-weight="400" stroke-width=".26458"/></tspan></text>
  <g fill="none" stroke="#000" stroke-linejoin="round" stroke-width=".26438px">
   <path d="m84.887-14.134 12.69-3.8071"/>
   <path d="m84.887-14.134-6.3451-20.304"/>
   <path d="m100.12-47.128-21.573 12.69"/>
   <path d="m124.23-47.128h-24.112"/>
   <path d="m120.42-21.748-12.69-5.0761"/>
   <path d="m120.42-21.748 3.8071-25.381"/>
   <path d="m107.73-26.824-7.6142-20.304"/>
  </g>
  <g transform="matrix(.26458 0 0 .26458 69.574 -53.558)" clip-path="url(#clipEmfPath1-81)">
   <text transform="translate(10.072 153.16)" fill="#000000" font-family="Calibri" font-size="14.688px" font-weight="400" letter-spacing="0px" word-spacing="0px" style="line-height:125%" xml:space="preserve"><tspan x="0" y="0" fill="#000000" font-family="Calibri" font-size="14.688px" font-weight="400"><tspan dx="0" dy="0">Lyon</tspan><tspan dx="0.57994002" dy="0"/></tspan></text>
  </g>
  <g transform="matrix(.26458 0 0 .26458 69.574 -53.558)" clip-path="url(#clipEmfPath2-066)">
   <text transform="translate(.47963 62.032)" fill="#000000" font-family="Calibri" font-size="14.688px" font-weight="400" letter-spacing="0px" word-spacing="0px" style="line-height:125%" xml:space="preserve"><tspan x="0" y="0" fill="#000000" font-family="Calibri" font-size="14.688px" font-weight="400"><tspan dx="0" dy="0">Paris</tspan><tspan dx="0" dy="0"/></tspan></text>
  </g>
  <g transform="matrix(.26458 0 0 .26458 69.574 -53.558)" clip-path="url(#clipEmfPath3-91)">
   <text transform="translate(72.424 14.069)" fill="#000000" font-family="Calibri" font-size="14.688px" font-weight="400" letter-spacing="0px" word-spacing="0px" style="line-height:125%" xml:space="preserve"><tspan x="0" y="0" fill="#000000" font-family="Calibri" font-size="14.688px" font-weight="400"><tspan dx="0" dy="0">Amsterdam</tspan><tspan dx="0" dy="0"/></tspan></text>
  </g>
  <g transform="matrix(.26458 0 0 .26458 69.574 -53.558)" clip-path="url(#clipEmfPath4-12)">
   <text transform="translate(187.54 14.069)" fill="#000000" font-family="Calibri" font-size="14.688px" font-weight="400" letter-spacing="0px" word-spacing="0px" style="line-height:125%" xml:space="preserve"><tspan x="0" y="0" fill="#000000" font-family="Calibri" font-size="14.688px" font-weight="400"><tspan dx="0" dy="0">Berlin</tspan><tspan dx="0" dy="0"/></tspan></text>
  </g>
  <g transform="matrix(.26458 0 0 .26458 69.574 -53.558)" clip-path="url(#clipEmfPath5-132)">
   <text transform="translate(77.221 100.4)" fill="#000000" font-family="Calibri" font-size="14.688px" font-weight="400" letter-spacing="0px" word-spacing="0px" style="line-height:125%" xml:space="preserve"><tspan x="0" y="0" fill="#000000" font-family="Calibri" font-size="14.688px" font-weight="400"><tspan dx="0" dy="0">Frankfurt</tspan><tspan dx="0" dy="0"/></tspan></text>
  </g>
  <g transform="matrix(.26458 0 0 .26458 69.574 -53.558)" clip-path="url(#clipEmfPath6-90)">
   <text transform="translate(173.15 138.77)" fill="#000000" font-family="Calibri" font-size="14.688px" font-weight="400" letter-spacing="0px" word-spacing="0px" style="line-height:125%" xml:space="preserve"><tspan x="0" y="0" fill="#000000" font-family="Calibri" font-size="14.688px" font-weight="400"><tspan dx="0" dy="0">München</tspan><tspan dx="0" dy="0"/></tspan></text>
  </g>
  <path d="m78.534-35.707c-0.69532 0-1.2611 0.56578-1.2611 1.2611 0 0.69532 0.56577 1.2611 1.2611 1.2611s1.2611-0.56578 1.2611-1.2611c0-0.69532-0.56577-1.2611-1.2611-1.2611z" fill="#fff" fill-rule="evenodd"/>
  <path d="m78.534-35.707c-0.69532 0-1.2611 0.56578-1.2611 1.2611 0 0.69532 0.56577 1.2611 1.2611 1.2611s1.2611-0.56578 1.2611-1.2611c0-0.69532-0.56577-1.2611-1.2611-1.2611" fill="none" stroke="#000" stroke-linecap="round" stroke-linejoin="round" stroke-width=".26438px"/>
  <path d="m100.11-48.397c-0.69532 0-1.2611 0.56577-1.2611 1.2611s0.56578 1.2611 1.2611 1.2611c0.69532 0 1.2611-0.56577 1.2611-1.2611s-0.56577-1.2611-1.2611-1.2611z" fill="#fff" fill-rule="evenodd"/>
  <path d="m100.11-48.397c-0.69532 0-1.2611 0.56577-1.2611 1.2611s0.56578 1.2611 1.2611 1.2611c0.69532 0 1.2611-0.56577 1.2611-1.2611s-0.56577-1.2611-1.2611-1.2611" fill="none" stroke="#000" stroke-linecap="round" stroke-linejoin="round" stroke-width=".26438px"/>
  <path d="m120.41-23.017c-0.69531 0-1.2611 0.56577-1.2611 1.2611 0 0.69532 0.56578 1.2611 1.2611 1.2611 0.69532 0 1.2611-0.56578 1.2611-1.2611 0-0.69532-0.56578-1.2611-1.2611-1.2611z" fill="#fff" fill-rule="evenodd"/>
  <path d="m120.41-23.017c-0.69531 0-1.2611 0.56577-1.2611 1.2611 0 0.69532 0.56578 1.2611 1.2611 1.2611 0.69532 0 1.2611-0.56578 1.2611-1.2611 0-0.69532-0.56578-1.2611-1.2611-1.2611" fill="none" stroke="#000" stroke-linecap="round" stroke-linejoin="round" stroke-width=".26438px"/>
  <path d="m124.22-48.397c-0.69532 0-1.2611 0.56577-1.2611 1.2611s0.56577 1.2611 1.2611 1.2611c0.69533 0 1.2611-0.56577 1.2611-1.2611s-0.56577-1.2611-1.2611-1.2611z" fill="#fff" fill-rule="evenodd"/>
  <path d="m124.22-48.397c-0.69532 0-1.2611 0.56577-1.2611 1.2611s0.56577 1.2611 1.2611 1.2611c0.69533 0 1.2611-0.56577 1.2611-1.2611s-0.56577-1.2611-1.2611-1.2611" fill="none" stroke="#000" stroke-linecap="round" stroke-linejoin="round" stroke-width=".26438px"/>
  <path d="m107.73-26.824-10.152 8.8832" fill="none" stroke="#000" stroke-linejoin="round" stroke-width=".26438px"/>
  <path d="m84.879-15.403c-0.69532 0-1.2611 0.56578-1.2611 1.2611 0 0.69532 0.56577 1.2611 1.2611 1.2611s1.2611-0.56577 1.2611-1.2611c0-0.69532-0.56577-1.2611-1.2611-1.2611z" fill="#fff" fill-rule="evenodd"/>
  <path d="m84.879-15.403c-0.69532 0-1.2611 0.56578-1.2611 1.2611 0 0.69532 0.56577 1.2611 1.2611 1.2611s1.2611-0.56577 1.2611-1.2611c0-0.69532-0.56577-1.2611-1.2611-1.2611" fill="none" stroke="#000" stroke-linecap="round" stroke-linejoin="round" stroke-width=".26438px"/>
  <path d="m107.72-28.093c-0.69532 0-1.2611 0.56577-1.2611 1.2611 0 0.69532 0.56578 1.2611 1.2611 1.2611s1.2611-0.56577 1.2611-1.2611c0-0.69532-0.56578-1.2611-1.2611-1.2611z" fill="#fff" fill-rule="evenodd"/>
  <path d="m107.72-28.093c-0.69532 0-1.2611 0.56577-1.2611 1.2611 0 0.69532 0.56578 1.2611 1.2611 1.2611s1.2611-0.56577 1.2611-1.2611c0-0.69532-0.56578-1.2611-1.2611-1.2611" fill="none" stroke="#000" stroke-linecap="round" stroke-linejoin="round" stroke-width=".26438px"/>
  <g transform="matrix(.26458 0 0 .26458 69.574 -53.558)" clip-path="url(#clipEmfPath7-68)">
   <text transform="translate(14.869 118.47)" fill="#000000" font-family="Calibri" font-size="13.25px" font-weight="400" letter-spacing="0px" word-spacing="0px" style="line-height:125%" xml:space="preserve"><tspan x="0" y="0" fill="#000000" font-family="Calibri" font-size="13.25px" font-weight="400"><tspan dx="0" dy="0">1:55</tspan><tspan dx="0" dy="0"/></tspan></text>
  </g>
  <g transform="matrix(.26458 0 0 .26458 69.574 -53.558)" clip-path="url(#clipEmfPath8-43)">
   <text transform="translate(48.443 46.524)" fill="#000000" font-family="Calibri" font-size="13.25px" font-weight="400" letter-spacing="0px" word-spacing="0px" style="line-height:125%" xml:space="preserve"><tspan x="0" y="0" fill="#000000" font-family="Calibri" font-size="13.25px" font-weight="400"><tspan dx="0" dy="0">1:25</tspan><tspan dx="0" dy="0"/></tspan></text>
  </g>
  <g transform="matrix(.26458 0 0 .26458 69.574 -53.558)" clip-path="url(#clipEmfPath9-30)">
   <text transform="translate(144.37 36.932)" fill="#000000" font-family="Calibri" font-size="13.25px" font-weight="400" letter-spacing="0px" word-spacing="0px" style="line-height:125%" xml:space="preserve"><tspan x="0" y="0" fill="#000000" font-family="Calibri" font-size="13.25px" font-weight="400"><tspan dx="0" dy="0">6:10</tspan><tspan dx="0" dy="0"/></tspan></text>
  </g>
  <g transform="matrix(.26458 0 0 .26458 69.574 -53.558)" clip-path="url(#clipEmfPath10-353)">
   <text transform="translate(96.406 65.71)" fill="#000000" font-family="Calibri" font-size="13.25px" font-weight="400" letter-spacing="0px" word-spacing="0px" style="line-height:125%" xml:space="preserve"><tspan x="0" y="0" fill="#000000" font-family="Calibri" font-size="13.25px" font-weight="400"><tspan dx="0" dy="0">4:00</tspan><tspan dx="0" dy="0"/></tspan></text>
  </g>
  <g transform="matrix(.26458 0 0 .26458 69.574 -53.558)" clip-path="url(#clipEmfPath11-52)">
   <text transform="translate(206.72 70.506)" fill="#000000" font-family="Calibri" font-size="13.25px" font-weight="400" letter-spacing="0px" word-spacing="0px" style="line-height:125%" xml:space="preserve"><tspan x="0" y="0" fill="#000000" font-family="Calibri" font-size="13.25px" font-weight="400"><tspan dx="0" dy="0">5:45</tspan><tspan dx="0" dy="0"/></tspan></text>
  </g>
  <g transform="matrix(.26458 0 0 .26458 69.574 -53.558)" clip-path="url(#clipEmfPath12-78)">
   <text transform="translate(158.76 104.08)" fill="#000000" font-family="Calibri" font-size="13.25px" font-weight="400" letter-spacing="0px" word-spacing="0px" style="line-height:125%" xml:space="preserve"><tspan x="0" y="0" fill="#000000" font-family="Calibri" font-size="13.25px" font-weight="400"><tspan dx="0" dy="0">3:10</tspan><tspan dx="0" dy="0"/></tspan></text>
  </g>
  <g transform="matrix(.26458 0 0 .26458 69.574 -53.558)" clip-path="url(#clipEmfPath13-62)">
   <text transform="translate(91.61 123.27)" fill="#000000" font-family="Calibri" font-size="13.25px" font-weight="400" letter-spacing="0px" word-spacing="0px" style="line-height:125%" xml:space="preserve"><tspan x="0" y="0" fill="#000000" font-family="Calibri" font-size="13.25px" font-weight="400"><tspan dx="0" dy="0">3:55</tspan><tspan dx="0" dy="0"/></tspan></text>
  </g>
  <g transform="matrix(.26458 0 0 .26458 69.574 -53.558)" clip-path="url(#clipEmfPath14-2)">
   <text transform="translate(115.59 143.57)" fill="#000000" font-family="Calibri" font-size="14.688px" font-weight="400" letter-spacing="0px" word-spacing="0px" style="line-height:125%" xml:space="preserve"><tspan x="0" y="0" fill="#000000" font-family="Calibri" font-size="14.688px" font-weight="400"><tspan dx="0" dy="0">Bern</tspan><tspan dx="0" dy="0"/></tspan></text>
  </g>
  <path d="m97.569-19.21c-0.69532 0-1.2611 0.56578-1.2611 1.2611 0 0.69532 0.56577 1.2611 1.2611 1.2611 0.69532 0 1.2611-0.56578 1.2611-1.2611 0-0.69532-0.56578-1.2611-1.2611-1.2611z" fill="#fff" fill-rule="evenodd"/>
  <path d="m97.569-19.21c-0.69532 0-1.2611 0.56578-1.2611 1.2611 0 0.69532 0.56577 1.2611 1.2611 1.2611 0.69532 0 1.2611-0.56578 1.2611-1.2611 0-0.69532-0.56578-1.2611-1.2611-1.2611" fill="none" stroke="#000" stroke-linecap="round" stroke-linejoin="round" stroke-width=".26438px"/>
  <g transform="matrix(.26458 0 0 .26458 69.574 -53.558)" clip-path="url(#clipEmfPath15-638)">
   <text transform="translate(72.424 156.84)" fill="#000000" font-family="Calibri" font-size="13.25px" font-weight="400" letter-spacing="0px" word-spacing="0px" style="line-height:125%" xml:space="preserve"><tspan x="0" y="0" fill="#000000" font-family="Calibri" font-size="13.25px" font-weight="400"><tspan dx="0" dy="0">3:50</tspan><tspan dx="0" dy="0"/></tspan></text>
  </g>
 </g>
</svg>
