<?xml version="1.0" encoding="UTF-8"?>
<!-- Created with Inkscape (http://www.inkscape.org/) -->
<svg width="413.48" height="106.52" version="1.1" viewBox="0 0 413.48285 106.5183" xmlns="http://www.w3.org/2000/svg" xmlns:cc="http://creativecommons.org/ns#" xmlns:dc="http://purl.org/dc/elements/1.1/" xmlns:rdf="http://www.w3.org/1999/02/22-rdf-syntax-ns#">
 <metadata>
  <rdf:RDF>
   <cc:Work rdf:about="">
    <dc:format>image/svg+xml</dc:format>
    <dc:type rdf:resource="http://purl.org/dc/dcmitype/StillImage"/>
    <dc:title/>
   </cc:Work>
  </rdf:RDF>
 </metadata>
 <g transform="matrix(3.7795 0 0 3.7795 325.87 -56.704)">
  <text x="-86.245071" y="18.424074" fill="#000000" font-family="Calibri" font-size="3.8861px" font-weight="400" letter-spacing="0px" stroke-width=".26458" word-spacing="0px" style="line-height:125%" xml:space="preserve"><tspan x="0" y="0" stroke-width=".26458"><tspan dx="0" dy="0" fill="#000000" font-family="Calibri" font-size="3.8861px" font-weight="400" stroke-width=".26458"/></tspan></text>
  <g fill="none" stroke="#000" stroke-width=".26438px">
   <g stroke-linejoin="round">
    <path d="m-60.709 20.211-8.8832 8.5131"/>
    <path d="m-78.475 20.211h17.766"/>
    <path d="m2.7454 29.094c-1.3748 3.5956-2.7496 7.1912-8.8832 8.8832"/>
    <path d="m-6.1378 37.978c1.3748-3.5956 2.7496-7.1912 8.8832-8.8832"/>
    <path d="m-34.059 29.094v9.7821"/>
    <path d="m-44.211 29.113h20.304"/>
    <path d="m-44.211 29.113 10.152 10.152"/>
    <path d="m-44.211 29.094 10.152-10.152"/>
    <path d="m-34.059 18.942 10.152 10.152"/>
   </g>
   <path d="m-86.086 15.135v27.919h109.14v-27.919z" stroke-linecap="round" stroke-miterlimit="8"/>
   <g stroke-linejoin="round">
    <path d="m-53.094 15.135v27.919"/>
    <path d="m-13.755 15.135v27.919"/>
    <path d="m-23.907 29.094v9.7821"/>
    <path d="m-34.059 39.265 10.152-10.152"/>
   </g>
  </g>
  <path d="m-23.899 27.844c-0.69532 0-1.2585 0.56577-1.2585 1.2611s0.56313 1.2585 1.2585 1.2585c0.69796 0 1.2611-0.56313 1.2611-1.2585s-0.56313-1.2611-1.2611-1.2611z" fill="#fff" fill-rule="evenodd"/>
  <g fill="none" stroke="#000" stroke-linejoin="round" stroke-width=".26438px">
   <path d="m-23.899 27.844c-0.69532 0-1.2585 0.56577-1.2585 1.2611s0.56313 1.2585 1.2585 1.2585c0.69796 0 1.2611-0.56313 1.2611-1.2585s-0.56313-1.2611-1.2611-1.2611" stroke-linecap="round"/>
   <path d="m-34.059 39.247h10.152"/>
   <path d="m-34.059 18.942v9.7821"/>
  </g>
  <path d="m-34.067 27.825c-0.69532 0-1.2611 0.56577-1.2611 1.2611s0.56577 1.2611 1.2611 1.2611c0.69532 0 1.2585-0.56577 1.2585-1.2611s-0.56313-1.2611-1.2585-1.2611z" fill="#fff" fill-rule="evenodd"/>
  <path d="m-34.067 27.825c-0.69532 0-1.2611 0.56577-1.2611 1.2611s0.56577 1.2611 1.2611 1.2611c0.69532 0 1.2585-0.56577 1.2585-1.2611s-0.56313-1.2611-1.2585-1.2611" fill="none" stroke="#000" stroke-linecap="round" stroke-linejoin="round" stroke-width=".26438px"/>
  <path d="m-23.915 37.996c-0.69532 0-1.2611 0.56577-1.2611 1.2611s0.56577 1.2585 1.2611 1.2585c0.69532 0 1.2585-0.56313 1.2585-1.2585s-0.56313-1.2611-1.2585-1.2611z" fill="#fff" fill-rule="evenodd"/>
  <path d="m-23.915 37.996c-0.69532 0-1.2611 0.56577-1.2611 1.2611s0.56577 1.2585 1.2611 1.2585c0.69532 0 1.2585-0.56313 1.2585-1.2585s-0.56313-1.2611-1.2585-1.2611" fill="none" stroke="#000" stroke-linecap="round" stroke-linejoin="round" stroke-width=".26438px"/>
  <path d="m-44.219 27.844c-0.69532 0-1.2611 0.56577-1.2611 1.2611s0.56578 1.2585 1.2611 1.2585c0.69532 0 1.2585-0.56313 1.2585-1.2585s-0.56313-1.2611-1.2585-1.2611z" fill="#fff" fill-rule="evenodd"/>
  <path d="m-44.219 27.844c-0.69532 0-1.2611 0.56577-1.2611 1.2611s0.56578 1.2585 1.2611 1.2585c0.69532 0 1.2585-0.56313 1.2585-1.2585s-0.56313-1.2611-1.2585-1.2611" fill="none" stroke="#000" stroke-linecap="round" stroke-linejoin="round" stroke-width=".26438px"/>
  <path d="m-34.067 17.673c-0.69532 0-1.2611 0.56577-1.2611 1.2611s0.56577 1.2611 1.2611 1.2611c0.69532 0 1.2585-0.56577 1.2585-1.2611s-0.56313-1.2611-1.2585-1.2611z" fill="#fff" fill-rule="evenodd"/>
  <path d="m-34.067 17.673c-0.69532 0-1.2611 0.56577-1.2611 1.2611s0.56577 1.2611 1.2611 1.2611c0.69532 0 1.2585-0.56577 1.2585-1.2611s-0.56313-1.2611-1.2585-1.2611" fill="none" stroke="#000" stroke-linecap="round" stroke-linejoin="round" stroke-width=".26438px"/>
  <path d="m-34.067 37.996c-0.69532 0-1.2611 0.56577-1.2611 1.2611s0.56577 1.2585 1.2611 1.2585c0.69532 0 1.2585-0.56313 1.2585-1.2585s-0.56313-1.2611-1.2585-1.2611z" fill="#fff" fill-rule="evenodd"/>
  <g fill="none" stroke="#000" stroke-linejoin="round" stroke-width=".26438px">
   <path d="m-34.067 37.996c-0.69532 0-1.2611 0.56577-1.2611 1.2611s0.56577 1.2585 1.2611 1.2585c0.69532 0 1.2585-0.56313 1.2585-1.2585s-0.56313-1.2611-1.2585-1.2611" stroke-linecap="round"/>
   <g>
    <path d="m-6.1378 20.211h17.766"/>
    <path d="m-6.1378 20.211 8.8832 8.8832"/>
    <path d="m-6.1404 20.211v17.396"/>
   </g>
  </g>
  <path d="m-6.1483 18.942c-0.69532 0-1.2611 0.56577-1.2611 1.2611s0.56578 1.2611 1.2611 1.2611c0.69532 0 1.2585-0.56577 1.2585-1.2611s-0.56313-1.2611-1.2585-1.2611z" fill="#fff" fill-rule="evenodd"/>
  <g fill="none" stroke="#000" stroke-linejoin="round" stroke-width=".26438px">
   <path d="m-6.1483 18.942c-0.69532 0-1.2611 0.56577-1.2611 1.2611s0.56578 1.2611 1.2611 1.2611c0.69532 0 1.2585-0.56577 1.2585-1.2611s-0.56313-1.2611-1.2585-1.2611" stroke-linecap="round"/>
   <g>
    <path d="m2.7454 29.094 8.8832 8.8832"/>
    <path d="m-6.1378 37.978h17.766"/>
    <path d="m11.629 20.211v17.396"/>
   </g>
  </g>
  <path d="m11.634 18.942c-0.69268 0-1.2585 0.56577-1.2585 1.2637 0 0.69268 0.56578 1.2585 1.2585 1.2585 0.69796 0 1.2637-0.56577 1.2637-1.2585 0-0.69796-0.56577-1.2637-1.2637-1.2637z" fill="#fff" fill-rule="evenodd"/>
  <path d="m11.634 18.942c-0.69268 0-1.2585 0.56577-1.2585 1.2637 0 0.69268 0.56578 1.2585 1.2585 1.2585 0.69796 0 1.2637-0.56577 1.2637-1.2585 0-0.69796-0.56577-1.2637-1.2637-1.2637" fill="none" stroke="#000" stroke-linecap="round" stroke-linejoin="round" stroke-width=".26438px"/>
  <path d="m2.7507 27.847c-0.69268 0-1.2585 0.56578-1.2585 1.2585 0 0.69796 0.56578 1.2585 1.2585 1.2585 0.69797 0 1.2637-0.56049 1.2637-1.2585 0-0.69268-0.56577-1.2585-1.2637-1.2585z" fill="#fff" fill-rule="evenodd"/>
  <path d="m2.7507 27.847c-0.69268 0-1.2585 0.56578-1.2585 1.2585 0 0.69796 0.56578 1.2585 1.2585 1.2585 0.69797 0 1.2637-0.56049 1.2637-1.2585 0-0.69268-0.56577-1.2585-1.2637-1.2585" fill="none" stroke="#000" stroke-linecap="round" stroke-linejoin="round" stroke-width=".26438px"/>
  <path d="m-6.1483 36.709c-0.69532 0-1.2611 0.56577-1.2611 1.2611s0.56578 1.2611 1.2611 1.2611c0.69532 0 1.2585-0.56577 1.2585-1.2611s-0.56313-1.2611-1.2585-1.2611z" fill="#fff" fill-rule="evenodd"/>
  <path d="m-6.1483 36.709c-0.69532 0-1.2611 0.56577-1.2611 1.2611s0.56578 1.2611 1.2611 1.2611c0.69532 0 1.2585-0.56577 1.2585-1.2611s-0.56313-1.2611-1.2585-1.2611" fill="none" stroke="#000" stroke-linecap="round" stroke-linejoin="round" stroke-width=".26438px"/>
  <path d="m11.618 36.709c-0.69268 0-1.2585 0.56577-1.2585 1.2637 0 0.69268 0.56577 1.2585 1.2585 1.2585 0.69796 0 1.2585-0.56577 1.2585-1.2585 0-0.69796-0.56049-1.2637-1.2585-1.2637z" fill="#fff" fill-rule="evenodd"/>
  <g fill="none" stroke="#000" stroke-linejoin="round" stroke-width=".26438px">
   <path d="m11.618 36.709c-0.69268 0-1.2585 0.56577-1.2585 1.2637 0 0.69268 0.56577 1.2585 1.2585 1.2585 0.69796 0 1.2585-0.56577 1.2585-1.2585 0-0.69796-0.56049-1.2637-1.2585-1.2637" stroke-linecap="round"/>
   <path d="m-78.475 20.211 8.8832 8.8832"/>
   <path d="m-69.592 29.094-8.8832 8.5131"/>
  </g>
  <path d="m-78.483 18.942c-0.69532 0-1.2611 0.56577-1.2611 1.2611s0.56577 1.2611 1.2611 1.2611 1.2585-0.56577 1.2585-1.2611-0.56313-1.2611-1.2585-1.2611z" fill="#fff" fill-rule="evenodd"/>
  <g fill="none" stroke="#000" stroke-linejoin="round" stroke-width=".26438px">
   <path d="m-78.483 18.942c-0.69532 0-1.2611 0.56577-1.2611 1.2611s0.56577 1.2611 1.2611 1.2611 1.2585-0.56577 1.2585-1.2611-0.56313-1.2611-1.2585-1.2611" stroke-linecap="round"/>
   <path d="m-69.592 29.094 8.8832 8.8832"/>
   <path d="m-78.475 37.978h17.766"/>
  </g>
  <path d="m-69.584 27.844c-0.69532 0-1.2585 0.56577-1.2585 1.2611s0.56313 1.2585 1.2585 1.2585c0.69796 0 1.2611-0.56313 1.2611-1.2585s-0.56313-1.2611-1.2611-1.2611z" fill="#fff" fill-rule="evenodd"/>
  <path d="m-69.584 27.844c-0.69532 0-1.2585 0.56577-1.2585 1.2611s0.56313 1.2585 1.2585 1.2585c0.69796 0 1.2611-0.56313 1.2611-1.2585s-0.56313-1.2611-1.2611-1.2611" fill="none" stroke="#000" stroke-linecap="round" stroke-linejoin="round" stroke-width=".26438px"/>
  <path d="m-78.483 36.709c-0.69532 0-1.2611 0.56577-1.2611 1.2611s0.56577 1.2611 1.2611 1.2611 1.2585-0.56577 1.2585-1.2611-0.56313-1.2611-1.2585-1.2611z" fill="#fff" fill-rule="evenodd"/>
  <path d="m-78.483 36.709c-0.69532 0-1.2611 0.56577-1.2611 1.2611s0.56577 1.2611 1.2611 1.2611 1.2585-0.56577 1.2585-1.2611-0.56313-1.2611-1.2585-1.2611" fill="none" stroke="#000" stroke-linecap="round" stroke-linejoin="round" stroke-width=".26438px"/>
  <path d="m-60.716 36.709c-0.69532 0-1.2611 0.56577-1.2611 1.2611s0.56578 1.2611 1.2611 1.2611c0.69532 0 1.2585-0.56577 1.2585-1.2611s-0.56313-1.2611-1.2585-1.2611z" fill="#fff" fill-rule="evenodd"/>
  <path d="m-60.716 36.709c-0.69532 0-1.2611 0.56577-1.2611 1.2611s0.56578 1.2611 1.2611 1.2611c0.69532 0 1.2585-0.56577 1.2585-1.2611s-0.56313-1.2611-1.2585-1.2611" fill="none" stroke="#000" stroke-linecap="round" stroke-linejoin="round" stroke-width=".26438px"/>
  <path d="m-60.716 18.942c-0.69532 0-1.2611 0.56577-1.2611 1.2611s0.56578 1.2611 1.2611 1.2611c0.69532 0 1.2585-0.56577 1.2585-1.2611s-0.56313-1.2611-1.2585-1.2611z" fill="#fff" fill-rule="evenodd"/>
  <path d="m-60.716 18.942c-0.69532 0-1.2611 0.56577-1.2611 1.2611s0.56578 1.2611 1.2611 1.2611c0.69532 0 1.2585-0.56577 1.2585-1.2611s-0.56313-1.2611-1.2585-1.2611" fill="none" stroke="#000" stroke-linecap="round" stroke-linejoin="round" stroke-width=".26438px"/>
 </g>
</svg>
