<?xml version="1.0" encoding="UTF-8"?>
<!-- Created with Inkscape (http://www.inkscape.org/) -->
<svg width="413.48" height="106.52" version="1.1" viewBox="0 0 413.48285 106.51832" xmlns="http://www.w3.org/2000/svg" xmlns:cc="http://creativecommons.org/ns#" xmlns:dc="http://purl.org/dc/elements/1.1/" xmlns:rdf="http://www.w3.org/1999/02/22-rdf-syntax-ns#">
 <metadata>
  <rdf:RDF>
   <cc:Work rdf:about="">
    <dc:format>image/svg+xml</dc:format>
    <dc:type rdf:resource="http://purl.org/dc/dcmitype/StillImage"/>
    <dc:title/>
   </cc:Work>
  </rdf:RDF>
 </metadata>
 <g transform="matrix(3.7795 0 0 3.7795 121.65 -275.81)">
  <text x="-32.213699" y="76.569717" fill="#000000" font-family="Calibri" font-size="3.8861px" font-weight="400" letter-spacing="0px" stroke-width=".26458" word-spacing="0px" style="line-height:125%" xml:space="preserve"><tspan x="0" y="0" stroke-width=".26458"><tspan dx="0" dy="0" fill="#000000" font-family="Calibri" font-size="3.8861px" font-weight="400" stroke-width=".26458"/></tspan></text>
  <g fill="none" stroke="#000" stroke-linejoin="round" stroke-width=".26438px">
   <path d="m47.894 78.182h20.304"/>
   <path d="m68.198 78.182v17.396"/>
   <path d="m58.046 88.335 10.152-10.152"/>
   <path d="m47.894 78.182 10.152 10.152"/>
  </g>
  <path d="m68.203 76.913c-0.69268 0-1.2584 0.56577-1.2584 1.2585 0 0.69796 0.56577 1.2637 1.2584 1.2637 0.69797 0 1.2637-0.56577 1.2637-1.2637 0-0.69268-0.56577-1.2585-1.2637-1.2585z" fill="#fff" fill-rule="evenodd"/>
  <path d="m68.203 76.913c-0.69268 0-1.2584 0.56577-1.2584 1.2585 0 0.69796 0.56577 1.2637 1.2584 1.2637 0.69797 0 1.2637-0.56577 1.2637-1.2637 0-0.69268-0.56577-1.2585-1.2637-1.2585" fill="none" stroke="#000" stroke-linecap="round" stroke-linejoin="round" stroke-width=".26438px"/>
  <path d="m58.035 87.066c-0.69268 0-1.2585 0.56577-1.2585 1.2585 0 0.69796 0.56577 1.2637 1.2585 1.2637 0.69796 0 1.2585-0.56577 1.2585-1.2637 0-0.69268-0.56049-1.2585-1.2585-1.2585z" fill="#fff" fill-rule="evenodd"/>
  <g fill="none" stroke="#000" stroke-linejoin="round" stroke-width=".26438px">
   <path d="m58.035 87.066c-0.69268 0-1.2585 0.56577-1.2585 1.2585 0 0.69796 0.56577 1.2637 1.2585 1.2637 0.69796 0 1.2585-0.56577 1.2585-1.2637 0-0.69268-0.56049-1.2585-1.2585-1.2585" stroke-linecap="round"/>
   <path d="m47.894 95.949h20.304"/>
   <path d="m47.891 78.182v17.396"/>
  </g>
  <path d="m47.883 94.68c-0.69532 0-1.2611 0.56313-1.2611 1.2585 0 0.69796 0.56578 1.2611 1.2611 1.2611 0.69532 0 1.2585-0.56313 1.2585-1.2611 0-0.69532-0.56313-1.2585-1.2585-1.2585z" fill="#fff" fill-rule="evenodd"/>
  <path d="m47.883 94.68c-0.69532 0-1.2611 0.56313-1.2611 1.2585 0 0.69796 0.56578 1.2611 1.2611 1.2611 0.69532 0 1.2585-0.56313 1.2585-1.2611 0-0.69532-0.56313-1.2585-1.2585-1.2585" fill="none" stroke="#000" stroke-linecap="round" stroke-linejoin="round" stroke-width=".26438px"/>
  <path d="m68.187 94.696c-0.69268 0-1.2585 0.56577-1.2585 1.2637 0 0.69268 0.56578 1.2585 1.2585 1.2585 0.69796 0 1.2584-0.56577 1.2584-1.2585 0-0.69796-0.56049-1.2637-1.2584-1.2637z" fill="#fff" fill-rule="evenodd"/>
  <path d="m68.187 94.696c-0.69268 0-1.2585 0.56577-1.2585 1.2637 0 0.69268 0.56578 1.2585 1.2585 1.2585 0.69796 0 1.2584-0.56577 1.2584-1.2585 0-0.69796-0.56049-1.2637-1.2584-1.2637" fill="none" stroke="#000" stroke-linecap="round" stroke-linejoin="round" stroke-width=".26438px"/>
  <path d="m47.883 76.913c-0.69532 0-1.2611 0.56313-1.2611 1.2585 0 0.69796 0.56578 1.2611 1.2611 1.2611 0.69532 0 1.2585-0.56313 1.2585-1.2611 0-0.69532-0.56313-1.2585-1.2585-1.2585z" fill="#fff" fill-rule="evenodd"/>
  <g fill="none" stroke="#000" stroke-width=".26438px">
   <path d="m47.883 76.913c-0.69532 0-1.2611 0.56313-1.2611 1.2585 0 0.69796 0.56578 1.2611 1.2611 1.2611 0.69532 0 1.2585-0.56313 1.2585-1.2611 0-0.69532-0.56313-1.2585-1.2585-1.2585" stroke-linecap="round" stroke-linejoin="round"/>
   <path d="m-32.055 73.106v27.919h109.14v-27.919z" stroke-linecap="round" stroke-miterlimit="8"/>
   <g stroke-linejoin="round">
    <path d="m-15.56 78.182-6.3451 17.766"/>
    <path d="m2.206 73.106v27.919"/>
    <path d="m40.277 73.106v27.919"/>
    <path d="m-5.4082 84.528-5.0761 11.421"/>
    <path d="m-15.56 78.182 10.152 6.3451"/>
    <path d="m-15.56 78.182-10.152 6.3451"/>
    <path d="m-20.636 95.949h10.152"/>
    <path d="m-25.713 84.528 3.8071 11.421"/>
    <path d="m11.108 97.218h10.152"/>
    <path d="m16.184 87.066h10.152"/>
    <path d="m16.184 87.066 5.0761 10.168"/>
    <path d="m16.184 87.066 5.0761-10.152"/>
    <path d="m21.26 76.913 5.0761 10.152"/>
    <path d="m26.336 87.066 5.0761 9.7821"/>
    <path d="m21.26 97.234 5.0761-10.168"/>
   </g>
  </g>
  <path d="m26.325 85.812c-0.69532 0-1.2585 0.56577-1.2585 1.2611s0.56313 1.2611 1.2585 1.2611c0.69796 0 1.2611-0.56577 1.2611-1.2611s-0.56313-1.2611-1.2611-1.2611z" fill="#fff" fill-rule="evenodd"/>
  <g fill="none" stroke="#000" stroke-linejoin="round" stroke-width=".26438px">
   <path d="m26.325 85.812c-0.69532 0-1.2585 0.56577-1.2585 1.2611s0.56313 1.2611 1.2585 1.2611c0.69796 0 1.2611-0.56577 1.2611-1.2611s-0.56313-1.2611-1.2611-1.2611" stroke-linecap="round"/>
   <path d="m21.26 97.218h10.152"/>
   <path d="m11.108 97.218 5.0761-10.152"/>
  </g>
  <path d="m16.173 85.797c-0.69532 0-1.2585 0.56313-1.2585 1.2585 0 0.69796 0.56313 1.2611 1.2585 1.2611 0.69796 0 1.2611-0.56313 1.2611-1.2611 0-0.69532-0.56313-1.2585-1.2611-1.2585z" fill="#fff" fill-rule="evenodd"/>
  <path d="m16.173 85.797c-0.69532 0-1.2585 0.56313-1.2585 1.2585 0 0.69796 0.56313 1.2611 1.2585 1.2611 0.69796 0 1.2611-0.56313 1.2611-1.2611 0-0.69532-0.56313-1.2585-1.2611-1.2585" fill="none" stroke="#000" stroke-linecap="round" stroke-linejoin="round" stroke-width=".26438px"/>
  <path d="m31.402 95.965c-0.69532 0-1.2585 0.56578-1.2585 1.2611 0 0.69532 0.56313 1.2611 1.2585 1.2611 0.69796 0 1.2611-0.56577 1.2611-1.2611 0-0.69532-0.56313-1.2611-1.2611-1.2611z" fill="#fff" fill-rule="evenodd"/>
  <path d="m31.402 95.965c-0.69532 0-1.2585 0.56578-1.2585 1.2611 0 0.69532 0.56313 1.2611 1.2585 1.2611 0.69796 0 1.2611-0.56577 1.2611-1.2611 0-0.69532-0.56313-1.2611-1.2611-1.2611" fill="none" stroke="#000" stroke-linecap="round" stroke-linejoin="round" stroke-width=".26438px"/>
  <path d="m11.097 95.965c-0.69532 0-1.2585 0.56578-1.2585 1.2611 0 0.69532 0.56313 1.2611 1.2585 1.2611 0.69797 0 1.2611-0.56577 1.2611-1.2611 0-0.69532-0.56313-1.2611-1.2611-1.2611z" fill="#fff" fill-rule="evenodd"/>
  <path d="m11.097 95.965c-0.69532 0-1.2585 0.56578-1.2585 1.2611 0 0.69532 0.56313 1.2611 1.2585 1.2611 0.69797 0 1.2611-0.56577 1.2611-1.2611 0-0.69532-0.56313-1.2611-1.2611-1.2611" fill="none" stroke="#000" stroke-linecap="round" stroke-linejoin="round" stroke-width=".26438px"/>
  <path d="m21.249 75.644c-0.69532 0-1.2585 0.56313-1.2585 1.2585 0 0.69796 0.56313 1.2611 1.2585 1.2611 0.69796 0 1.2611-0.56313 1.2611-1.2611 0-0.69532-0.56313-1.2585-1.2611-1.2585z" fill="#fff" fill-rule="evenodd"/>
  <path d="m21.249 75.644c-0.69532 0-1.2585 0.56313-1.2585 1.2585 0 0.69796 0.56313 1.2611 1.2585 1.2611 0.69796 0 1.2611-0.56313 1.2611-1.2611 0-0.69532-0.56313-1.2585-1.2611-1.2585" fill="none" stroke="#000" stroke-linecap="round" stroke-linejoin="round" stroke-width=".26438px"/>
  <path d="m21.249 95.965c-0.69532 0-1.2585 0.56578-1.2585 1.2611 0 0.69532 0.56313 1.2611 1.2585 1.2611 0.69796 0 1.2611-0.56577 1.2611-1.2611 0-0.69532-0.56313-1.2611-1.2611-1.2611z" fill="#fff" fill-rule="evenodd"/>
  <g fill="none" stroke="#000" stroke-linejoin="round" stroke-width=".26438px">
   <path d="m21.249 95.965c-0.69532 0-1.2585 0.56578-1.2585 1.2611 0 0.69532 0.56313 1.2611 1.2585 1.2611 0.69796 0 1.2611-0.56577 1.2611-1.2611 0-0.69532-0.56313-1.2611-1.2611-1.2611" stroke-linecap="round"/>
   <g>
    <path d="m-15.56 78.182 5.0761 17.766"/>
    <path d="m-25.713 84.528h20.304"/>
    <path d="m-21.906 95.949 16.497-11.421"/>
    <path d="m-25.713 84.528 15.228 11.421"/>
   </g>
  </g>
  <path d="m-5.4161 83.259c-0.69532 0-1.2611 0.56313-1.2611 1.2585 0 0.69796 0.56577 1.2611 1.2611 1.2611 0.69532 0 1.2584-0.56313 1.2584-1.2611 0-0.69532-0.56313-1.2585-1.2584-1.2585z" fill="#fff" fill-rule="evenodd"/>
  <path d="m-5.4161 83.259c-0.69532 0-1.2611 0.56313-1.2611 1.2585 0 0.69796 0.56577 1.2611 1.2611 1.2611 0.69532 0 1.2584-0.56313 1.2584-1.2611 0-0.69532-0.56313-1.2585-1.2584-1.2585" fill="none" stroke="#000" stroke-linecap="round" stroke-linejoin="round" stroke-width=".26438px"/>
  <path d="m-15.568 76.913c-0.69532 0-1.2611 0.56313-1.2611 1.2585 0 0.69796 0.56577 1.2611 1.2611 1.2611s1.2585-0.56313 1.2585-1.2611c0-0.69532-0.56313-1.2585-1.2585-1.2585z" fill="#fff" fill-rule="evenodd"/>
  <path d="m-15.568 76.913c-0.69532 0-1.2611 0.56313-1.2611 1.2585 0 0.69796 0.56577 1.2611 1.2611 1.2611s1.2585-0.56313 1.2585-1.2611c0-0.69532-0.56313-1.2585-1.2585-1.2585" fill="none" stroke="#000" stroke-linecap="round" stroke-linejoin="round" stroke-width=".26438px"/>
  <path d="m-21.913 94.68c-0.69532 0-1.2611 0.56313-1.2611 1.2585 0 0.69796 0.56577 1.2611 1.2611 1.2611s1.2585-0.56313 1.2585-1.2611c0-0.69532-0.56313-1.2585-1.2585-1.2585z" fill="#fff" fill-rule="evenodd"/>
  <path d="m-21.913 94.68c-0.69532 0-1.2611 0.56313-1.2611 1.2585 0 0.69796 0.56577 1.2611 1.2611 1.2611s1.2585-0.56313 1.2585-1.2611c0-0.69532-0.56313-1.2585-1.2585-1.2585" fill="none" stroke="#000" stroke-linecap="round" stroke-linejoin="round" stroke-width=".26438px"/>
  <path d="m-10.492 94.68c-0.69532 0-1.2611 0.56313-1.2611 1.2585 0 0.69796 0.56577 1.2611 1.2611 1.2611 0.69532 0 1.2585-0.56313 1.2585-1.2611 0-0.69532-0.56313-1.2585-1.2585-1.2585z" fill="#fff" fill-rule="evenodd"/>
  <path d="m-10.492 94.68c-0.69532 0-1.2611 0.56313-1.2611 1.2585 0 0.69796 0.56577 1.2611 1.2611 1.2611 0.69532 0 1.2585-0.56313 1.2585-1.2611 0-0.69532-0.56313-1.2585-1.2585-1.2585" fill="none" stroke="#000" stroke-linecap="round" stroke-linejoin="round" stroke-width=".26438px"/>
  <path d="m-25.721 83.259c-0.69532 0-1.2611 0.56313-1.2611 1.2585 0 0.69796 0.56578 1.2611 1.2611 1.2611 0.69532 0 1.2585-0.56313 1.2585-1.2611 0-0.69532-0.56313-1.2585-1.2585-1.2585z" fill="#fff" fill-rule="evenodd"/>
  <path d="m-25.721 83.259c-0.69532 0-1.2611 0.56313-1.2611 1.2585 0 0.69796 0.56578 1.2611 1.2611 1.2611 0.69532 0 1.2585-0.56313 1.2585-1.2611 0-0.69532-0.56313-1.2585-1.2585-1.2585" fill="none" stroke="#000" stroke-linecap="round" stroke-linejoin="round" stroke-width=".26438px"/>
 </g>
</svg>
