<?xml version="1.0" encoding="UTF-8"?>
<!-- Created with Inkscape (http://www.inkscape.org/) -->
<svg width="164.07" height="111.31" version="1.1" viewBox="0 0 164.07414 111.31468" xmlns="http://www.w3.org/2000/svg" xmlns:cc="http://creativecommons.org/ns#" xmlns:dc="http://purl.org/dc/elements/1.1/" xmlns:rdf="http://www.w3.org/1999/02/22-rdf-syntax-ns#">
 <metadata>
  <rdf:RDF>
   <cc:Work rdf:about="">
    <dc:format>image/svg+xml</dc:format>
    <dc:type rdf:resource="http://purl.org/dc/dcmitype/StillImage"/>
    <dc:title/>
   </cc:Work>
  </rdf:RDF>
 </metadata>
 <g transform="matrix(3.7795 0 0 3.7795 128.84 -598.87)">
  <text x="-34.323128" y="161.87321" fill="#000000" font-family="Calibri" font-size="3.8861px" font-weight="400" letter-spacing="0px" stroke-width=".26458" word-spacing="0px" style="line-height:125%" xml:space="preserve"><tspan x="0" y="0" stroke-width=".26458"><tspan dx="0" dy="0" fill="#000000" font-family="Calibri" font-size="3.8861px" font-weight="400" stroke-width=".26458"/></tspan></text>
  <g fill="none" stroke="#000" stroke-linejoin="round" stroke-width=".26438px">
   <path d="m-32.687 168.74v8.8832"/>
   <path d="m7.9222 168.74v8.8832"/>
   <path d="m-12.382 168.74v8.8832"/>
   <path d="m-32.687 159.85h20.304"/>
   <path d="m-32.687 168.74h20.304"/>
   <path d="m-32.687 159.85v8.8832"/>
  </g>
  <path d="m-32.695 167.47c-0.69532 0-1.2611 0.56578-1.2611 1.2611s0.56577 1.2611 1.2611 1.2611 1.2585-0.56577 1.2585-1.2611-0.56313-1.2611-1.2585-1.2611z" fill="#fff" fill-rule="evenodd"/>
  <path d="m-32.695 167.47c-0.69532 0-1.2611 0.56578-1.2611 1.2611s0.56577 1.2611 1.2611 1.2611 1.2585-0.56577 1.2585-1.2611-0.56313-1.2611-1.2585-1.2611" fill="none" stroke="#000" stroke-linecap="round" stroke-linejoin="round" stroke-width=".26438px"/>
  <path d="m-32.695 158.58c-0.69532 0-1.2611 0.56577-1.2611 1.2611s0.56577 1.2611 1.2611 1.2611 1.2585-0.56578 1.2585-1.2611-0.56313-1.2611-1.2585-1.2611z" fill="#fff" fill-rule="evenodd"/>
  <g fill="none" stroke="#000" stroke-linejoin="round" stroke-width=".26438px">
   <path d="m-32.695 158.58c-0.69532 0-1.2611 0.56577-1.2611 1.2611s0.56577 1.2611 1.2611 1.2611 1.2585-0.56578 1.2585-1.2611-0.56313-1.2611-1.2585-1.2611" stroke-linecap="round"/>
   <path d="m-12.382 159.85h20.304"/>
   <path d="m7.9222 159.85v8.8832"/>
  </g>
  <path d="m7.9302 158.58c-0.69532 0-1.2585 0.56577-1.2585 1.2611s0.56313 1.2611 1.2585 1.2611c0.69796 0 1.2611-0.56578 1.2611-1.2611s-0.56313-1.2611-1.2611-1.2611z" fill="#fff" fill-rule="evenodd"/>
  <path d="m7.9302 158.58c-0.69532 0-1.2585 0.56577-1.2585 1.2611s0.56313 1.2611 1.2585 1.2611c0.69796 0 1.2611-0.56578 1.2611-1.2611s-0.56313-1.2611-1.2611-1.2611" fill="none" stroke="#000" stroke-linecap="round" stroke-linejoin="round" stroke-width=".26438px"/>
  <path d="m-12.382 168.74h20.304" fill="none" stroke="#000" stroke-linejoin="round" stroke-width=".26438px"/>
  <path d="m7.9143 167.49c-0.69532 0-1.2611 0.56577-1.2611 1.2611 0 0.69532 0.56578 1.2584 1.2611 1.2584 0.69532 0 1.2585-0.56313 1.2585-1.2584 0-0.69533-0.56313-1.2611-1.2585-1.2611z" fill="#fff" fill-rule="evenodd"/>
  <path d="m7.9143 167.49c-0.69532 0-1.2611 0.56577-1.2611 1.2611 0 0.69532 0.56578 1.2584 1.2611 1.2584 0.69532 0 1.2585-0.56313 1.2585-1.2584 0-0.69533-0.56313-1.2611-1.2585-1.2611" fill="none" stroke="#000" stroke-linecap="round" stroke-linejoin="round" stroke-width=".26438px"/>
  <path d="m-12.382 159.85v8.8832" fill="none" stroke="#000" stroke-linejoin="round" stroke-width=".26438px"/>
  <path d="m-12.374 158.58c-0.69532 0-1.2585 0.56577-1.2585 1.2611s0.56313 1.2611 1.2585 1.2611c0.69796 0 1.2611-0.56578 1.2611-1.2611s-0.56313-1.2611-1.2611-1.2611z" fill="#fff" fill-rule="evenodd"/>
  <path d="m-12.374 158.58c-0.69532 0-1.2585 0.56577-1.2585 1.2611s0.56313 1.2611 1.2585 1.2611c0.69796 0 1.2611-0.56578 1.2611-1.2611s-0.56313-1.2611-1.2611-1.2611" fill="none" stroke="#000" stroke-linecap="round" stroke-linejoin="round" stroke-width=".26438px"/>
  <path d="m-12.39 167.49c-0.69532 0-1.2611 0.56577-1.2611 1.2611 0 0.69532 0.56577 1.2584 1.2611 1.2584s1.2585-0.56313 1.2585-1.2584c0-0.69533-0.56313-1.2611-1.2585-1.2611z" fill="#fff" fill-rule="evenodd"/>
  <g fill="none" stroke="#000" stroke-linejoin="round" stroke-width=".26438px">
   <path d="m-12.39 167.49c-0.69532 0-1.2611 0.56577-1.2611 1.2611 0 0.69532 0.56577 1.2584 1.2611 1.2584s1.2585-0.56313 1.2585-1.2584c0-0.69533-0.56313-1.2611-1.2585-1.2611" stroke-linecap="round"/>
   <g>
    <path d="m-32.687 177.62h20.304"/>
    <path d="m-32.687 186.5h20.304"/>
    <path d="m-32.687 177.62v8.8832"/>
   </g>
  </g>
  <path d="m-32.695 185.23c-0.69532 0-1.2611 0.56577-1.2611 1.2611s0.56577 1.2611 1.2611 1.2611 1.2585-0.56577 1.2585-1.2611-0.56313-1.2611-1.2585-1.2611z" fill="#fff" fill-rule="evenodd"/>
  <path d="m-32.695 185.23c-0.69532 0-1.2611 0.56577-1.2611 1.2611s0.56577 1.2611 1.2611 1.2611 1.2585-0.56577 1.2585-1.2611-0.56313-1.2611-1.2585-1.2611" fill="none" stroke="#000" stroke-linecap="round" stroke-linejoin="round" stroke-width=".26438px"/>
  <path d="m-32.695 176.35c-0.69532 0-1.2611 0.56577-1.2611 1.2611 0 0.69533 0.56577 1.2611 1.2611 1.2611s1.2585-0.56577 1.2585-1.2611c0-0.69532-0.56313-1.2611-1.2585-1.2611z" fill="#fff" fill-rule="evenodd"/>
  <g fill="none" stroke="#000" stroke-linejoin="round" stroke-width=".26438px">
   <path d="m-32.695 176.35c-0.69532 0-1.2611 0.56577-1.2611 1.2611 0 0.69533 0.56577 1.2611 1.2611 1.2611s1.2585-0.56577 1.2585-1.2611c0-0.69532-0.56313-1.2611-1.2585-1.2611" stroke-linecap="round"/>
   <path d="m-12.382 177.62h20.304"/>
   <path d="m7.9222 177.62v8.8832"/>
  </g>
  <path d="m7.9302 176.35c-0.69532 0-1.2585 0.56577-1.2585 1.2611 0 0.69533 0.56313 1.2611 1.2585 1.2611 0.69796 0 1.2611-0.56577 1.2611-1.2611 0-0.69532-0.56313-1.2611-1.2611-1.2611z" fill="#fff" fill-rule="evenodd"/>
  <path d="m7.9302 176.35c-0.69532 0-1.2585 0.56577-1.2585 1.2611 0 0.69533 0.56313 1.2611 1.2585 1.2611 0.69796 0 1.2611-0.56577 1.2611-1.2611 0-0.69532-0.56313-1.2611-1.2611-1.2611" fill="none" stroke="#000" stroke-linecap="round" stroke-linejoin="round" stroke-width=".26438px"/>
  <path d="m-12.382 186.5h20.304" fill="none" stroke="#000" stroke-linejoin="round" stroke-width=".26438px"/>
  <path d="m7.9143 185.25c-0.69532 0-1.2611 0.56578-1.2611 1.2611s0.56578 1.2584 1.2611 1.2584c0.69532 0 1.2585-0.56313 1.2585-1.2584s-0.56313-1.2611-1.2585-1.2611z" fill="#fff" fill-rule="evenodd"/>
  <path d="m7.9143 185.25c-0.69532 0-1.2611 0.56578-1.2611 1.2611s0.56578 1.2584 1.2611 1.2584c0.69532 0 1.2585-0.56313 1.2585-1.2584s-0.56313-1.2611-1.2585-1.2611" fill="none" stroke="#000" stroke-linecap="round" stroke-linejoin="round" stroke-width=".26438px"/>
  <path d="m-12.382 177.62v8.8832" fill="none" stroke="#000" stroke-linejoin="round" stroke-width=".26438px"/>
  <path d="m-12.374 176.35c-0.69532 0-1.2585 0.56577-1.2585 1.2611 0 0.69533 0.56313 1.2611 1.2585 1.2611 0.69796 0 1.2611-0.56577 1.2611-1.2611 0-0.69532-0.56313-1.2611-1.2611-1.2611z" fill="#fff" fill-rule="evenodd"/>
  <path d="m-12.374 176.35c-0.69532 0-1.2585 0.56577-1.2585 1.2611 0 0.69533 0.56313 1.2611 1.2585 1.2611 0.69796 0 1.2611-0.56577 1.2611-1.2611 0-0.69532-0.56313-1.2611-1.2611-1.2611" fill="none" stroke="#000" stroke-linecap="round" stroke-linejoin="round" stroke-width=".26438px"/>
  <path d="m-12.39 185.25c-0.69532 0-1.2611 0.56578-1.2611 1.2611s0.56577 1.2584 1.2611 1.2584 1.2585-0.56313 1.2585-1.2584-0.56313-1.2611-1.2585-1.2611z" fill="#fff" fill-rule="evenodd"/>
  <path d="m-12.39 185.25c-0.69532 0-1.2611 0.56578-1.2611 1.2611s0.56577 1.2584 1.2611 1.2584 1.2585-0.56313 1.2585-1.2584-0.56313-1.2611-1.2585-1.2611" fill="none" stroke="#000" stroke-linecap="round" stroke-linejoin="round" stroke-width=".26438px"/>
 </g>
</svg>
