<?xml version="1.0" encoding="UTF-8"?>
<!-- Created with Inkscape (http://www.inkscape.org/) -->
<svg width="278.81" height="180.39" version="1.1" viewBox="0 0 278.80929 180.39456" xmlns="http://www.w3.org/2000/svg" xmlns:cc="http://creativecommons.org/ns#" xmlns:dc="http://purl.org/dc/elements/1.1/" xmlns:rdf="http://www.w3.org/1999/02/22-rdf-syntax-ns#">
 <metadata>
  <rdf:RDF>
   <cc:Work rdf:about="">
    <dc:format>image/svg+xml</dc:format>
    <dc:type rdf:resource="http://purl.org/dc/dcmitype/StillImage"/>
    <dc:title/>
   </cc:Work>
  </rdf:RDF>
 </metadata>
 <g transform="matrix(3.7795 0 0 3.7795 224.49 -689.84)">
  <text x="-59.607883" y="185.79852" fill="#000000" font-family="Calibri" font-size="3.8861px" font-weight="400" letter-spacing="0px" stroke-width=".26458" word-spacing="0px" style="line-height:125%" xml:space="preserve"><tspan x="0" y="0" stroke-width=".26458"><tspan dx="0" dy="0" fill="#000000" font-family="Calibri" font-size="3.8861px" font-weight="400" stroke-width=".26458"/></tspan></text>
  <g fill="none" stroke="#000" stroke-linejoin="round" stroke-width=".26438px">
   <path d="m-12.728 230.24c-0.08724-1.3219-0.26438-2.6438-0.26438-3.9657 0-1.1633 0.15863-3.8256 1.3219-4.7588 0.2115-0.17714 0.54727-0.14277 0.79314-0.26438 1.6233-0.81165 2.9796-1.2875 4.7588-1.5863 1.5704-1.0575 2.3266-0.86452 4.4945-1.0575 1.1289-0.37013 1.3589-1.1289 2.3794-1.5863 0.5129-0.23001 1.0575-0.35427 1.5863-0.52876 0.60014-0.19564 1.0575-0.7059 1.5863-1.0575 0.23001-0.15863 0.54727-0.12426 0.79314-0.26438 0.56577-0.31726 1.0575-0.7059 1.5863-1.0575 0.23001-0.15863 0.54727-0.12426 0.79314-0.26438 2.7337-1.5175 0.58164-0.7244 2.3794-1.3219 0.84602-0.84602 1.269-1.7978 2.115-2.6438 0.46002-1.3589 0.98878-0.8989 1.5863-2.115 0.40715-0.83015 0.75877-1.7634 1.0575-2.6438-0.08725-0.79315-0.08725-1.6048-0.26438-2.3794-0.14012-0.61865-1.3906-2.345-1.5863-2.6438-1.3748-2.0622-2.1838-3.6485-4.2301-5.0232-0.82751-1.2347-1.1976-2.1336-2.3794-2.9082-0.74026-1.1104-1.3563-2.2922-2.3794-3.1726-1.1104-0.95177-2.501-1.5704-3.7013-2.3794-0.29875-0.19564-0.72176-0.14277-1.0575-0.26438-0.75613-0.28289-1.1976-0.61865-1.8507-1.0575-0.35163-0.52877-0.70325-1.0575-1.0575-1.5863-0.35163-0.52876-1.5863-1.0575-1.5863-1.0575-1.5863 0.0873-3.1726 0.10575-4.7589 0.26438-0.28024 0.0159-0.5975 0.0687-0.79314 0.26438-0.84602 0.84602-0.72176 1.7449-1.8507 2.115-0.51025 0.17449-1.0575 0.17449-1.5863 0.26438-0.49175 0.49174-1.0919 0.82751-1.5863 1.3219-0.22737 0.22737-0.31726 0.54462-0.52876 0.79314-0.24588 0.28024-0.54462 0.51025-0.79314 0.79314-0.2115 0.24588-0.26438 0.61601-0.52876 0.79314-0.29875 0.193-0.70325 0.17449-1.0575 0.26438-1.1791 1.1791-1.8322 2.9082-3.7013 2.9082 0.47588 0.24587 1.0232 0.386 1.4277 0.74027 1.9406 1.655-0.89889 0.0529 0.68739 1.6392 0.19564 0.193 0.54727 0.14013 0.79314 0.26439 0.28289 0.14012 0.52876 0.35162 0.79314 0.52876 1.499 2.2552-0.96763-1.2347 2.115 1.8507 2.5566 2.5539 8.4443 2.2552 11.368 2.3794 1.6392 1.0919 2.7681 1.3378 4.7588 1.5863 2.8553-0.17714 3.86 0.24587 5.8164-1.0575 1.8877-2.8394-1.0575 1.462 1.3219-1.5863 0.38864-0.49439 0.7059-1.0575 1.0575-1.5863 0.15863-0.23001 0.08989-0.58164 0.26438-0.79314 0.49439-0.63452 0.7244-0.52876 1.3219-0.52876"/>
   <path d="m-22.774 192.43c-1.1791-1.7819 0.2115-0.037-1.3219-1.0575-0.31726-0.21151-0.52876-0.52876-0.79314-0.79314-4.7588 0.2115-9.5177 0.4045-14.277 0.79314-1.5149 0.51025-0.10575-0.10575-1.5863 1.0575-1.2849 1.0046-2.6597 1.9908-4.2301 2.3794-0.75613 0.75613-1.2162 1.5149-2.115 2.115-0.33312 1.0205-1.1633 1.4092-1.5863 2.3794-1.9564 4.4046-1.3219 8.9519-1.3219 13.748"/>
   <path d="m-12.992 224.16c-3.3312-4.9889-10.205-2.7866-15.598-2.9082-0.193-0.60014-0.95177-0.97028-1.0575-1.5863-0.29875-1.6577 0.23001-3.4211-0.26438-5.0232-0.35163-1.1474-3.7357-1.6048-4.4945-1.8507-0.26438-0.0899-0.51025-0.26438-0.79314-0.26438-7.7543-0.0899-15.509-0.17714-23.265-0.26438-0.26438-0.40715-0.79314-1.0417-0.79314-1.5863 0-1.5863-0.06874-3.2096 0.26438-4.7588 0.05288-0.26438 0.5129-0.24852 0.79314-0.26438 4.4072-0.15863 8.8144-0.17714 13.219-0.26438 0.63451-0.15863 1.3933-0.23002 1.8507-0.79315 0.17714-0.2115 0.12426-0.54726 0.26438-0.79314 0.31726-0.56577 0.7059-1.0575 1.0575-1.5863 0.17714-0.26438 0.52876-0.79314 0.52876-0.79314 4.1085 0.15863 7.2097 0.43887 11.104 0.79314 0.52876 0.35163 1.0575 0.70325 1.5863 1.0575 0.26438 0.17449 0.26438 0.61601 0.52876 0.79314 0.30139 0.193 0.7059 0.17449 1.0575 0.26438 0.35427 0.52877 0.7059 1.0575 1.0575 1.5863 0.15863 0.22736 0.5129 0.2115 0.79314 0.26438 2.0093 0.4045 4.0556 0.68739 6.0808 1.0575 0.35427 0.0687 0.7059 0.15863 1.0575 0.26438 0.52876 0.15863 1.5863 0.52876 1.5863 0.52876 0.54727 0.82751 1.2532 1.8507 2.3794 1.8507"/>
   <path d="m-12.992 224.42c-0.08725-3.1726-0.03437-6.3451-0.26438-9.5177-0.08725-1.2161-0.95177-2.0807-1.3219-3.1726 0.07138-0.74027 0.01851-2.6808 0.52876-3.7013 0.67153-1.3404 1.7449-3.7013 1.8507-5.2876 0.07138-0.97028 0-1.9406 0-2.9082"/>
   <path d="m-2.4171 201.16c0.01851 0.10575 0 3.0483 0.52876 3.9657 0.19564 0.33311 1.1104 1.3906 1.3219 1.8507 0 0 0.65302 1.9723 0.79314 2.3794 0.08989 0.26438 0.26438 0.79315 0.26438 0.79315 0.08989 2.2895 0.26438 4.5817 0.26438 6.8739"/>
   <path d="m-41.281 201.42c0.54727-0.83016 0.81165-1.4118 1.5863-1.9406 0.84602-1.269 0.40715-0.75612 1.2347-1.5863 0.52876-1.5863 0.75877-3.9657-0.7059-4.9333-0.15863-0.49439-0.33312-0.86452-0.70325-1.2347"/>
   <path d="m-43.219 204.6s0.26438 1.1448 0.35163 1.232c0.30139 0.30139 1.0575 0.70589 1.0575 0.70589 0.81165 1.2162 0.30139 0.9174 1.2347 1.2347 0.17714 0.17449 0.4045 0.31726 0.52876 0.52876 0.17713 0.31726 0.35162 1.0575 0.35162 1.0575 0.08989 0.98614 0.35427 2.1679 0.35427 3.1726"/>
   <path d="m-29.823 215.17c0.17449-1.9934 0.05287-2.0278 1.0575-3.5268 0.10575-0.15863 0.06874-0.37013 0.17449-0.52876 0.7059-1.0575 1.6233-0.96763 2.115-2.4667 0.05288-0.65302 0.08989-1.3034 0.17714-1.9379 0.08725-0.58164 0.01851-0.52876 0.35163-0.52876"/>
  </g>
 </g>
</svg>
