<?xml version="1.0" encoding="UTF-8"?>
<!-- Created with Inkscape (http://www.inkscape.org/) -->
<svg width="183.19" height="82.467" version="1.1" viewBox="0 0 183.18948 82.466825" xmlns="http://www.w3.org/2000/svg" xmlns:cc="http://creativecommons.org/ns#" xmlns:dc="http://purl.org/dc/elements/1.1/" xmlns:rdf="http://www.w3.org/1999/02/22-rdf-syntax-ns#">
 <metadata>
  <rdf:RDF>
   <cc:Work rdf:about="">
    <dc:format>image/svg+xml</dc:format>
    <dc:type rdf:resource="http://purl.org/dc/dcmitype/StillImage"/>
    <dc:title/>
   </cc:Work>
  </rdf:RDF>
 </metadata>
 <g transform="matrix(3.7795 0 0 3.7795 36.287 -1147.2)">
  <text x="-9.7489986" y="307.15207" fill="#000000" font-family="Calibri" font-size="3.8861px" font-weight="400" letter-spacing="0px" stroke-width=".26458" word-spacing="0px" style="line-height:125%" xml:space="preserve"><tspan x="0" y="0" stroke-width=".26458"><tspan dx="0" dy="0" fill="#000000" font-family="Calibri" font-size="3.8861px" font-weight="400" stroke-width=".26458"/></tspan></text>
  <g fill="none" stroke="#000" stroke-linejoin="round" stroke-width=".26438px">
   <path d="m7.0286 323.97v-12.69"/>
   <path d="m14.643 311.28h-15.228"/>
   <path d="m37.485 323.97h-38.071"/>
   <path d="m-8.1997 317.63v-13.959"/>
   <path d="m22.257 317.63h6.3451"/>
   <path d="m0.68346 317.63h-8.8832"/>
   <path d="m-0.58557 323.97v-20.304"/>
   <path d="m29.871 323.97-15.228-12.69"/>
   <path d="m29.871 317.28 7.6142 6.6968"/>
   <path d="m-8.1997 304.94h22.842"/>
   <path d="m14.643 311.11v-6.168"/>
  </g>
  <path d="m14.632 310.02c-0.69532 0-1.2585 0.56577-1.2585 1.2611s0.56313 1.2584 1.2585 1.2584c0.69796 0 1.2611-0.56313 1.2611-1.2584s-0.56313-1.2611-1.2611-1.2611z" fill="#fff" fill-rule="evenodd"/>
  <path d="m14.632 310.02c-0.69532 0-1.2585 0.56577-1.2585 1.2611s0.56313 1.2584 1.2585 1.2584c0.69796 0 1.2611-0.56313 1.2611-1.2584s-0.56313-1.2611-1.2611-1.2611" fill="none" stroke="#000" stroke-linecap="round" stroke-linejoin="round" stroke-width=".26438px"/>
  <path d="m14.632 303.67c-0.69532 0-1.2585 0.56578-1.2585 1.2611s0.56313 1.2584 1.2585 1.2584c0.69796 0 1.2611-0.56313 1.2611-1.2584s-0.56313-1.2611-1.2611-1.2611z" fill="#fff" fill-rule="evenodd"/>
  <path d="m14.632 303.67c-0.69532 0-1.2585 0.56578-1.2585 1.2611s0.56313 1.2584 1.2585 1.2584c0.69796 0 1.2611-0.56313 1.2611-1.2584s-0.56313-1.2611-1.2611-1.2611" fill="none" stroke="#000" stroke-linecap="round" stroke-linejoin="round" stroke-width=".26438px"/>
  <path d="m29.879 316.36c-0.69532 0-1.2611 0.56577-1.2611 1.2611s0.56577 1.2584 1.2611 1.2584 1.2611-0.56313 1.2611-1.2584-0.56577-1.2611-1.2611-1.2611z" fill="#fff" fill-rule="evenodd"/>
  <path d="m29.879 316.36c-0.69532 0-1.2611 0.56577-1.2611 1.2611s0.56577 1.2584 1.2611 1.2584 1.2611-0.56313 1.2611-1.2584-0.56577-1.2611-1.2611-1.2611" fill="none" stroke="#000" stroke-linecap="round" stroke-linejoin="round" stroke-width=".26438px"/>
  <path d="m37.475 322.71c-0.69532 0-1.2585 0.56578-1.2585 1.2611s0.56313 1.2584 1.2585 1.2584c0.69796 0 1.2611-0.56313 1.2611-1.2584s-0.56313-1.2611-1.2611-1.2611z" fill="#fff" fill-rule="evenodd"/>
  <path d="m37.475 322.71c-0.69532 0-1.2585 0.56578-1.2585 1.2611s0.56313 1.2584 1.2585 1.2584c0.69796 0 1.2611-0.56313 1.2611-1.2584s-0.56313-1.2611-1.2611-1.2611" fill="none" stroke="#000" stroke-linecap="round" stroke-linejoin="round" stroke-width=".26438px"/>
  <path d="m7.018 310.02c-0.69532 0-1.2585 0.56577-1.2585 1.2611s0.56313 1.2584 1.2585 1.2584c0.69796 0 1.2611-0.56313 1.2611-1.2584s-0.56313-1.2611-1.2611-1.2611z" fill="#fff" fill-rule="evenodd"/>
  <path d="m7.018 310.02c-0.69532 0-1.2585 0.56577-1.2585 1.2611s0.56313 1.2584 1.2585 1.2584c0.69796 0 1.2611-0.56313 1.2611-1.2584s-0.56313-1.2611-1.2611-1.2611" fill="none" stroke="#000" stroke-linecap="round" stroke-linejoin="round" stroke-width=".26438px"/>
  <path d="m-0.59614 303.67c-0.69532 0-1.2585 0.56578-1.2585 1.2611s0.56313 1.2584 1.2585 1.2584c0.69796 0 1.2611-0.56313 1.2611-1.2584s-0.56313-1.2611-1.2611-1.2611z" fill="#fff" fill-rule="evenodd"/>
  <path d="m-0.59614 303.67c-0.69532 0-1.2585 0.56578-1.2585 1.2611s0.56313 1.2584 1.2585 1.2584c0.69796 0 1.2611-0.56313 1.2611-1.2584s-0.56313-1.2611-1.2611-1.2611" fill="none" stroke="#000" stroke-linecap="round" stroke-linejoin="round" stroke-width=".26438px"/>
  <path d="m-0.59614 322.71c-0.69532 0-1.2585 0.56578-1.2585 1.2611s0.56313 1.2584 1.2585 1.2584c0.69796 0 1.2611-0.56313 1.2611-1.2584s-0.56313-1.2611-1.2611-1.2611z" fill="#fff" fill-rule="evenodd"/>
  <path d="m-0.59614 322.71c-0.69532 0-1.2585 0.56578-1.2585 1.2611s0.56313 1.2584 1.2585 1.2584c0.69796 0 1.2611-0.56313 1.2611-1.2584s-0.56313-1.2611-1.2611-1.2611" fill="none" stroke="#000" stroke-linecap="round" stroke-linejoin="round" stroke-width=".26438px"/>
  <path d="m22.246 316.36c-0.69532 0-1.2585 0.56577-1.2585 1.2611s0.56313 1.2584 1.2585 1.2584c0.69796 0 1.2611-0.56313 1.2611-1.2584s-0.56313-1.2611-1.2611-1.2611z" fill="#fff" fill-rule="evenodd"/>
  <path d="m22.246 316.36c-0.69532 0-1.2585 0.56577-1.2585 1.2611s0.56313 1.2584 1.2585 1.2584c0.69796 0 1.2611-0.56313 1.2611-1.2584s-0.56313-1.2611-1.2611-1.2611" fill="none" stroke="#000" stroke-linecap="round" stroke-linejoin="round" stroke-width=".26438px"/>
  <path d="m7.018 322.71c-0.69532 0-1.2585 0.56578-1.2585 1.2611s0.56313 1.2584 1.2585 1.2584c0.69796 0 1.2611-0.56313 1.2611-1.2584s-0.56313-1.2611-1.2611-1.2611z" fill="#fff" fill-rule="evenodd"/>
  <path d="m7.018 322.71c-0.69532 0-1.2585 0.56578-1.2585 1.2611s0.56313 1.2584 1.2585 1.2584c0.69796 0 1.2611-0.56313 1.2611-1.2584s-0.56313-1.2611-1.2611-1.2611" fill="none" stroke="#000" stroke-linecap="round" stroke-linejoin="round" stroke-width=".26438px"/>
  <path d="m14.632 322.71c-0.69532 0-1.2585 0.56578-1.2585 1.2611s0.56313 1.2584 1.2585 1.2584c0.69796 0 1.2611-0.56313 1.2611-1.2584s-0.56313-1.2611-1.2611-1.2611z" fill="#fff" fill-rule="evenodd"/>
  <path d="m14.632 322.71c-0.69532 0-1.2585 0.56578-1.2585 1.2611s0.56313 1.2584 1.2585 1.2584c0.69796 0 1.2611-0.56313 1.2611-1.2584s-0.56313-1.2611-1.2611-1.2611" fill="none" stroke="#000" stroke-linecap="round" stroke-linejoin="round" stroke-width=".26438px"/>
  <path d="m-8.2103 316.36c-0.69532 0-1.2585 0.56577-1.2585 1.2611s0.56313 1.2584 1.2585 1.2584c0.69796 0 1.2611-0.56313 1.2611-1.2584s-0.56313-1.2611-1.2611-1.2611z" fill="#fff" fill-rule="evenodd"/>
  <path d="m-8.2103 316.36c-0.69532 0-1.2585 0.56577-1.2585 1.2611s0.56313 1.2584 1.2585 1.2584c0.69796 0 1.2611-0.56313 1.2611-1.2584s-0.56313-1.2611-1.2611-1.2611" fill="none" stroke="#000" stroke-linecap="round" stroke-linejoin="round" stroke-width=".26438px"/>
  <path d="m-0.59614 316.36c-0.69532 0-1.2585 0.56577-1.2585 1.2611s0.56313 1.2584 1.2585 1.2584c0.69796 0 1.2611-0.56313 1.2611-1.2584s-0.56313-1.2611-1.2611-1.2611z" fill="#fff" fill-rule="evenodd"/>
  <path d="m-0.59614 316.36c-0.69532 0-1.2585 0.56577-1.2585 1.2611s0.56313 1.2584 1.2585 1.2584c0.69796 0 1.2611-0.56313 1.2611-1.2584s-0.56313-1.2611-1.2611-1.2611" fill="none" stroke="#000" stroke-linecap="round" stroke-linejoin="round" stroke-width=".26438px"/>
  <path d="m22.246 322.71c-0.69532 0-1.2585 0.56578-1.2585 1.2611s0.56313 1.2584 1.2585 1.2584c0.69796 0 1.2611-0.56313 1.2611-1.2584s-0.56313-1.2611-1.2611-1.2611z" fill="#fff" fill-rule="evenodd"/>
  <path d="m22.246 322.71c-0.69532 0-1.2585 0.56578-1.2585 1.2611s0.56313 1.2584 1.2585 1.2584c0.69796 0 1.2611-0.56313 1.2611-1.2584s-0.56313-1.2611-1.2611-1.2611" fill="none" stroke="#000" stroke-linecap="round" stroke-linejoin="round" stroke-width=".26438px"/>
  <path d="m-8.2103 310.02c-0.69532 0-1.2585 0.56577-1.2585 1.2611s0.56313 1.2584 1.2585 1.2584c0.69796 0 1.2611-0.56313 1.2611-1.2584s-0.56313-1.2611-1.2611-1.2611z" fill="#fff" fill-rule="evenodd"/>
  <path d="m-8.2103 310.02c-0.69532 0-1.2585 0.56577-1.2585 1.2611s0.56313 1.2584 1.2585 1.2584c0.69796 0 1.2611-0.56313 1.2611-1.2584s-0.56313-1.2611-1.2611-1.2611" fill="none" stroke="#000" stroke-linecap="round" stroke-linejoin="round" stroke-width=".26438px"/>
  <path d="m-0.59614 310.02c-0.69532 0-1.2585 0.56577-1.2585 1.2611s0.56313 1.2584 1.2585 1.2584c0.69796 0 1.2611-0.56313 1.2611-1.2584s-0.56313-1.2611-1.2611-1.2611z" fill="#fff" fill-rule="evenodd"/>
  <path d="m-0.59614 310.02c-0.69532 0-1.2585 0.56577-1.2585 1.2611s0.56313 1.2584 1.2585 1.2584c0.69796 0 1.2611-0.56313 1.2611-1.2584s-0.56313-1.2611-1.2611-1.2611" fill="none" stroke="#000" stroke-linecap="round" stroke-linejoin="round" stroke-width=".26438px"/>
  <path d="m7.0365 303.67c-0.69532 0-1.2611 0.56578-1.2611 1.2611s0.56577 1.2584 1.2611 1.2584 1.2611-0.56313 1.2611-1.2584-0.56577-1.2611-1.2611-1.2611z" fill="#fff" fill-rule="evenodd"/>
  <path d="m7.0365 303.67c-0.69532 0-1.2611 0.56578-1.2611 1.2611s0.56577 1.2584 1.2611 1.2584 1.2611-0.56313 1.2611-1.2584-0.56577-1.2611-1.2611-1.2611" fill="none" stroke="#000" stroke-linecap="round" stroke-linejoin="round" stroke-width=".26438px"/>
  <path d="m-8.1918 303.67c-0.69532 0-1.2611 0.56578-1.2611 1.2611s0.56577 1.2584 1.2611 1.2584 1.2611-0.56313 1.2611-1.2584-0.56577-1.2611-1.2611-1.2611z" fill="#fff" fill-rule="evenodd"/>
  <path d="m-8.1918 303.67c-0.69532 0-1.2611 0.56578-1.2611 1.2611s0.56577 1.2584 1.2611 1.2584 1.2611-0.56313 1.2611-1.2584-0.56577-1.2611-1.2611-1.2611" fill="none" stroke="#000" stroke-linecap="round" stroke-linejoin="round" stroke-width=".26438px"/>
  <path d="m29.86 322.71c-0.69532 0-1.2585 0.56578-1.2585 1.2611s0.56313 1.2584 1.2585 1.2584c0.69797 0 1.2611-0.56313 1.2611-1.2584s-0.56313-1.2611-1.2611-1.2611z" fill="#fff" fill-rule="evenodd"/>
  <path d="m29.86 322.71c-0.69532 0-1.2585 0.56578-1.2585 1.2611s0.56313 1.2584 1.2585 1.2584c0.69797 0 1.2611-0.56313 1.2611-1.2584s-0.56313-1.2611-1.2611-1.2611" fill="none" stroke="#000" stroke-linecap="round" stroke-linejoin="round" stroke-width=".26438px"/>
 </g>
</svg>
