<?xml version="1.0" encoding="UTF-8"?>
<!-- Created with Inkscape (http://www.inkscape.org/) -->
<svg width="413.48" height="107.02" version="1.1" viewBox="0 0 413.48284 107.01795" xmlns="http://www.w3.org/2000/svg" xmlns:cc="http://creativecommons.org/ns#" xmlns:dc="http://purl.org/dc/elements/1.1/" xmlns:rdf="http://www.w3.org/1999/02/22-rdf-syntax-ns#">
 <metadata>
  <rdf:RDF>
   <cc:Work rdf:about="">
    <dc:format>image/svg+xml</dc:format>
    <dc:type rdf:resource="http://purl.org/dc/dcmitype/StillImage"/>
    <dc:title/>
   </cc:Work>
  </rdf:RDF>
 </metadata>
 <g transform="matrix(3.7795 0 0 3.7795 -57.034 -1526.4)">
  <text x="14.873391" y="407.20779" fill="#000000" font-family="Calibri" font-size="3.8861px" font-weight="400" letter-spacing="0px" stroke-width=".26458" word-spacing="0px" style="line-height:125%" xml:space="preserve"><tspan x="0" y="0" stroke-width=".26458"><tspan dx="0" dy="0" fill="#000000" font-family="Calibri" font-size="3.8861px" font-weight="400" stroke-width=".26458"/></tspan></text>
  <g fill="none" stroke="#000" stroke-width=".26438px">
   <g stroke-linejoin="round">
    <path d="m95.435 417.83 8.8832-8.8832"/>
    <path d="m104.32 408.94 8.8832 8.8832"/>
    <path d="m40.867 408.94-8.8832 8.513"/>
    <path d="m23.101 408.94h17.766"/>
   </g>
   <path d="m15.222 404.11v27.919h109.14v-27.919z" stroke-linecap="round" stroke-miterlimit="8"/>
   <g stroke-linejoin="round">
    <path d="m48.481 403.85v27.919"/>
    <path d="m87.821 403.85v27.919"/>
    <path d="m95.435 417.83h17.766"/>
    <path d="m95.435 417.83 8.8832 8.8832"/>
    <path d="m95.435 417.83v8.513"/>
   </g>
  </g>
  <path d="m104.31 407.67c-0.69796 0-1.2637 0.56578-1.2637 1.2637 0 0.69268 0.56578 1.2584 1.2637 1.2584 0.69268 0 1.2585-0.56577 1.2585-1.2584 0-0.69796-0.56578-1.2637-1.2585-1.2637z" fill="#fff" fill-rule="evenodd"/>
  <g fill="none" stroke="#000" stroke-linejoin="round" stroke-width=".26438px">
   <path d="m104.31 407.67c-0.69796 0-1.2637 0.56578-1.2637 1.2637 0 0.69268 0.56578 1.2584 1.2637 1.2584 0.69268 0 1.2585-0.56577 1.2585-1.2584 0-0.69796-0.56578-1.2637-1.2585-1.2637" stroke-linecap="round"/>
   <g>
    <path d="m104.32 426.71 8.8832-8.8832"/>
    <path d="m95.435 426.71h17.766"/>
    <path d="m113.2 419.09v7.244"/>
   </g>
  </g>
  <path d="m104.31 425.44c-0.69796 0-1.2637 0.56577-1.2637 1.2637 0 0.69267 0.56578 1.2584 1.2637 1.2584 0.69268 0 1.2585-0.56578 1.2585-1.2584 0-0.69797-0.56578-1.2637-1.2585-1.2637z" fill="#fff" fill-rule="evenodd"/>
  <path d="m104.31 425.44c-0.69796 0-1.2637 0.56577-1.2637 1.2637 0 0.69267 0.56578 1.2584 1.2637 1.2584 0.69268 0 1.2585-0.56578 1.2585-1.2584 0-0.69797-0.56578-1.2637-1.2585-1.2637" fill="none" stroke="#000" stroke-linecap="round" stroke-linejoin="round" stroke-width=".26438px"/>
  <path d="m95.427 425.44c-0.69532 0-1.2611 0.56577-1.2611 1.2611s0.56577 1.2611 1.2611 1.2611 1.2611-0.56578 1.2611-1.2611-0.56577-1.2611-1.2611-1.2611z" fill="#fff" fill-rule="evenodd"/>
  <path d="m95.427 425.44c-0.69532 0-1.2611 0.56577-1.2611 1.2611s0.56577 1.2611 1.2611 1.2611 1.2611-0.56578 1.2611-1.2611-0.56577-1.2611-1.2611-1.2611" fill="none" stroke="#000" stroke-linecap="round" stroke-linejoin="round" stroke-width=".26438px"/>
  <path d="m113.2 425.44c-0.69796 0-1.2637 0.56577-1.2637 1.2637 0 0.69267 0.56578 1.2584 1.2637 1.2584 0.69268 0 1.2584-0.56578 1.2584-1.2584 0-0.69797-0.56577-1.2637-1.2584-1.2637z" fill="#fff" fill-rule="evenodd"/>
  <g fill="none" stroke="#000" stroke-linejoin="round" stroke-width=".26438px">
   <path d="m113.2 425.44c-0.69796 0-1.2637 0.56577-1.2637 1.2637 0 0.69267 0.56578 1.2584 1.2637 1.2584 0.69268 0 1.2584-0.56578 1.2584-1.2584 0-0.69797-0.56577-1.2637-1.2584-1.2637" stroke-linecap="round"/>
   <path d="m23.101 408.94 8.8832 8.8832"/>
   <path d="m31.984 417.83-8.8832 8.513"/>
  </g>
  <path d="m23.093 407.67c-0.69532 0-1.2611 0.56578-1.2611 1.2611s0.56578 1.2611 1.2611 1.2611c0.69532 0 1.2611-0.56577 1.2611-1.2611s-0.56578-1.2611-1.2611-1.2611z" fill="#fff" fill-rule="evenodd"/>
  <g fill="none" stroke="#000" stroke-linejoin="round" stroke-width=".26438px">
   <path d="m23.093 407.67c-0.69532 0-1.2611 0.56578-1.2611 1.2611s0.56578 1.2611 1.2611 1.2611c0.69532 0 1.2611-0.56577 1.2611-1.2611s-0.56578-1.2611-1.2611-1.2611" stroke-linecap="round"/>
   <path d="m31.984 417.83 8.8832 8.8832"/>
   <path d="m23.101 426.71h17.766"/>
  </g>
  <path d="m31.995 416.57c-0.69532 0-1.2611 0.56577-1.2611 1.2611s0.56578 1.2584 1.2611 1.2584c0.69532 0 1.2585-0.56313 1.2585-1.2584s-0.56313-1.2611-1.2585-1.2611z" fill="#fff" fill-rule="evenodd"/>
  <path d="m31.995 416.57c-0.69532 0-1.2611 0.56577-1.2611 1.2611s0.56578 1.2584 1.2611 1.2584c0.69532 0 1.2585-0.56313 1.2585-1.2584s-0.56313-1.2611-1.2585-1.2611" fill="none" stroke="#000" stroke-linecap="round" stroke-linejoin="round" stroke-width=".26438px"/>
  <path d="m23.093 425.44c-0.69532 0-1.2611 0.56577-1.2611 1.2611s0.56578 1.2611 1.2611 1.2611c0.69532 0 1.2611-0.56578 1.2611-1.2611s-0.56578-1.2611-1.2611-1.2611z" fill="#fff" fill-rule="evenodd"/>
  <path d="m23.093 425.44c-0.69532 0-1.2611 0.56577-1.2611 1.2611s0.56578 1.2611 1.2611 1.2611c0.69532 0 1.2611-0.56578 1.2611-1.2611s-0.56578-1.2611-1.2611-1.2611" fill="none" stroke="#000" stroke-linecap="round" stroke-linejoin="round" stroke-width=".26438px"/>
  <path d="m40.859 425.44c-0.69532 0-1.2611 0.56577-1.2611 1.2611s0.56578 1.2611 1.2611 1.2611c0.69532 0 1.2611-0.56578 1.2611-1.2611s-0.56577-1.2611-1.2611-1.2611z" fill="#fff" fill-rule="evenodd"/>
  <path d="m40.859 425.44c-0.69532 0-1.2611 0.56577-1.2611 1.2611s0.56578 1.2611 1.2611 1.2611c0.69532 0 1.2611-0.56578 1.2611-1.2611s-0.56577-1.2611-1.2611-1.2611" fill="none" stroke="#000" stroke-linecap="round" stroke-linejoin="round" stroke-width=".26438px"/>
  <path d="m40.859 407.67c-0.69532 0-1.2611 0.56578-1.2611 1.2611s0.56578 1.2611 1.2611 1.2611c0.69532 0 1.2611-0.56577 1.2611-1.2611s-0.56577-1.2611-1.2611-1.2611z" fill="#fff" fill-rule="evenodd"/>
  <g fill="none" stroke="#000" stroke-linejoin="round" stroke-width=".26438px">
   <path d="m40.859 407.67c-0.69532 0-1.2611 0.56578-1.2611 1.2611s0.56578 1.2611 1.2611 1.2611c0.69532 0 1.2611-0.56577 1.2611-1.2611s-0.56577-1.2611-1.2611-1.2611" stroke-linecap="round"/>
   <g>
    <path d="m54.827 410.21 12.69 14.858"/>
    <path d="m67.517 410.21 12.69 15.228"/>
    <path d="m54.827 425.44 12.69-15.228"/>
    <path d="m54.827 425.44v-13.959"/>
    <path d="m80.207 410.21v15.228"/>
    <path d="m54.827 410.21 25.381 15.228"/>
    <path d="m54.827 425.44 24.112-15.228"/>
    <path d="m67.517 425.42 12.69-15.212"/>
    <path d="m67.517 410.21v15.228"/>
   </g>
  </g>
  <path d="m54.837 424.17c-0.69532 0-1.2611 0.56577-1.2611 1.2611 0 0.69532 0.56577 1.2611 1.2611 1.2611s1.2585-0.56577 1.2585-1.2611c0-0.69533-0.56313-1.2611-1.2585-1.2611z" fill="#fff" fill-rule="evenodd"/>
  <path d="m54.837 424.17c-0.69532 0-1.2611 0.56577-1.2611 1.2611 0 0.69532 0.56577 1.2611 1.2611 1.2611s1.2585-0.56577 1.2585-1.2611c0-0.69533-0.56313-1.2611-1.2585-1.2611" fill="none" stroke="#000" stroke-linecap="round" stroke-linejoin="round" stroke-width=".26438px"/>
  <path d="m80.218 424.17c-0.69532 0-1.2611 0.56577-1.2611 1.2611 0 0.69532 0.56578 1.2611 1.2611 1.2611 0.69532 0 1.2585-0.56577 1.2585-1.2611 0-0.69533-0.56313-1.2611-1.2585-1.2611z" fill="#fff" fill-rule="evenodd"/>
  <path d="m80.218 424.17c-0.69532 0-1.2611 0.56577-1.2611 1.2611 0 0.69532 0.56578 1.2611 1.2611 1.2611 0.69532 0 1.2585-0.56577 1.2585-1.2611 0-0.69533-0.56313-1.2611-1.2585-1.2611" fill="none" stroke="#000" stroke-linecap="round" stroke-linejoin="round" stroke-width=".26438px"/>
  <path d="m54.819 408.96c-0.69532 0-1.2611 0.56577-1.2611 1.2611s0.56578 1.2584 1.2611 1.2584c0.69532 0 1.2611-0.56313 1.2611-1.2584s-0.56577-1.2611-1.2611-1.2611z" fill="#fff" fill-rule="evenodd"/>
  <path d="m54.819 408.96c-0.69532 0-1.2611 0.56577-1.2611 1.2611s0.56578 1.2584 1.2611 1.2584c0.69532 0 1.2611-0.56313 1.2611-1.2584s-0.56577-1.2611-1.2611-1.2611" fill="none" stroke="#000" stroke-linecap="round" stroke-linejoin="round" stroke-width=".26438px"/>
  <path d="m67.509 408.96c-0.69532 0-1.2611 0.56577-1.2611 1.2611s0.56578 1.2584 1.2611 1.2584c0.69532 0 1.2611-0.56313 1.2611-1.2584s-0.56577-1.2611-1.2611-1.2611z" fill="#fff" fill-rule="evenodd"/>
  <path d="m67.509 408.96c-0.69532 0-1.2611 0.56577-1.2611 1.2611s0.56578 1.2584 1.2611 1.2584c0.69532 0 1.2611-0.56313 1.2611-1.2584s-0.56577-1.2611-1.2611-1.2611" fill="none" stroke="#000" stroke-linecap="round" stroke-linejoin="round" stroke-width=".26438px"/>
  <path d="m67.509 424.17c-0.69532 0-1.2611 0.56577-1.2611 1.2611 0 0.69532 0.56578 1.2611 1.2611 1.2611 0.69532 0 1.2611-0.56577 1.2611-1.2611 0-0.69533-0.56577-1.2611-1.2611-1.2611z" fill="#fff" fill-rule="evenodd"/>
  <path d="m67.509 424.17c-0.69532 0-1.2611 0.56577-1.2611 1.2611 0 0.69532 0.56578 1.2611 1.2611 1.2611 0.69532 0 1.2611-0.56577 1.2611-1.2611 0-0.69533-0.56577-1.2611-1.2611-1.2611" fill="none" stroke="#000" stroke-linecap="round" stroke-linejoin="round" stroke-width=".26438px"/>
  <path d="m80.218 408.96c-0.69532 0-1.2611 0.56577-1.2611 1.2611s0.56578 1.2584 1.2611 1.2584c0.69532 0 1.2585-0.56313 1.2585-1.2584s-0.56313-1.2611-1.2585-1.2611z" fill="#fff" fill-rule="evenodd"/>
  <path d="m80.218 408.96c-0.69532 0-1.2611 0.56577-1.2611 1.2611s0.56578 1.2584 1.2611 1.2584c0.69532 0 1.2585-0.56313 1.2585-1.2584s-0.56313-1.2611-1.2585-1.2611" fill="none" stroke="#000" stroke-linecap="round" stroke-linejoin="round" stroke-width=".26438px"/>
  <path d="m95.427 416.56c-0.69532 0-1.2611 0.56578-1.2611 1.2611s0.56577 1.2611 1.2611 1.2611 1.2611-0.56577 1.2611-1.2611-0.56577-1.2611-1.2611-1.2611z" fill="#fff" fill-rule="evenodd"/>
  <path d="m95.427 416.56c-0.69532 0-1.2611 0.56578-1.2611 1.2611s0.56577 1.2611 1.2611 1.2611 1.2611-0.56577 1.2611-1.2611-0.56577-1.2611-1.2611-1.2611" fill="none" stroke="#000" stroke-linecap="round" stroke-linejoin="round" stroke-width=".26438px"/>
  <path d="m104.31 416.56c-0.69796 0-1.2637 0.56578-1.2637 1.2637 0 0.69268 0.56578 1.2584 1.2637 1.2584 0.69268 0 1.2585-0.56577 1.2585-1.2584 0-0.69796-0.56578-1.2637-1.2585-1.2637z" fill="#fff" fill-rule="evenodd"/>
  <path d="m104.31 416.56c-0.69796 0-1.2637 0.56578-1.2637 1.2637 0 0.69268 0.56578 1.2584 1.2637 1.2584 0.69268 0 1.2585-0.56577 1.2585-1.2584 0-0.69796-0.56578-1.2637-1.2585-1.2637" fill="none" stroke="#000" stroke-linecap="round" stroke-linejoin="round" stroke-width=".26438px"/>
  <path d="m113.2 416.56c-0.69796 0-1.2637 0.56578-1.2637 1.2637 0 0.69268 0.56578 1.2584 1.2637 1.2584 0.69268 0 1.2584-0.56577 1.2584-1.2584 0-0.69796-0.56577-1.2637-1.2584-1.2637z" fill="#fff" fill-rule="evenodd"/>
  <path d="m113.2 416.56c-0.69796 0-1.2637 0.56578-1.2637 1.2637 0 0.69268 0.56578 1.2584 1.2637 1.2584 0.69268 0 1.2584-0.56577 1.2584-1.2584 0-0.69796-0.56577-1.2637-1.2584-1.2637" fill="none" stroke="#000" stroke-linecap="round" stroke-linejoin="round" stroke-width=".26438px"/>
 </g>
</svg>
