<?xml version="1.0" encoding="UTF-8"?>
<!-- Created with Inkscape (http://www.inkscape.org/) -->
<svg width="413.48" height="106.52" version="1.1" viewBox="0 0 413.48284 106.51834" xmlns="http://www.w3.org/2000/svg" xmlns:cc="http://creativecommons.org/ns#" xmlns:dc="http://purl.org/dc/elements/1.1/" xmlns:rdf="http://www.w3.org/1999/02/22-rdf-syntax-ns#">
 <metadata>
  <rdf:RDF>
   <cc:Work rdf:about="">
    <dc:format>image/svg+xml</dc:format>
    <dc:type rdf:resource="http://purl.org/dc/dcmitype/StillImage"/>
    <dc:title/>
   </cc:Work>
  </rdf:RDF>
 </metadata>
 <g transform="matrix(3.7795 0 0 3.7795 -63.415 -1503.2)">
  <text x="16.752226" y="401.30487" fill="#000000" font-family="Calibri" font-size="3.8861px" font-weight="400" letter-spacing="0px" stroke-width=".26458" word-spacing="0px" style="line-height:125%" xml:space="preserve"><tspan x="0" y="0" stroke-width=".26458"><tspan dx="0" dy="0" fill="#000000" font-family="Calibri" font-size="3.8861px" font-weight="400" stroke-width=".26458"/></tspan></text>
  <g fill="none" stroke="#000" stroke-width=".26438px">
   <g stroke-linejoin="round">
    <path d="m105.74 420.68h8.8832"/>
    <path d="m24.522 402.93v17.766"/>
    <path d="m42.289 402.93v17.766"/>
    <path d="m29.598 407.99v7.6142"/>
    <path d="m37.213 407.99v7.6142"/>
    <path d="m29.598 407.99h7.6142"/>
    <path d="m29.598 415.61h7.6142"/>
    <path d="m96.86 411.82 8.8832-8.8832"/>
    <path d="m105.74 402.93 8.8832 8.8832"/>
    <path d="m42.289 402.93-5.0761 5.0761"/>
    <path d="m24.522 402.93h17.766"/>
    <path d="m62.593 404.2 19.035 15.228"/>
    <path d="m56.248 419.43 6.3451-15.228"/>
    <path d="m75.283 404.2 6.3451 15.228"/>
   </g>
   <path d="m16.911 397.86v27.919h109.14v-27.919z" stroke-linecap="round" stroke-miterlimit="8"/>
   <g stroke-linejoin="round">
    <path d="m49.903 397.86v27.919"/>
    <path d="m89.243 397.86v27.919"/>
    <path d="m56.248 419.43 19.035-15.228"/>
    <path d="m68.938 419.41 6.3451-15.212"/>
    <path d="m62.593 404.2 6.3451 15.228"/>
   </g>
  </g>
  <path d="m56.256 418.16c-0.69532 0-1.2585 0.56577-1.2585 1.2611s0.56313 1.2611 1.2585 1.2611c0.69797 0 1.2611-0.56578 1.2611-1.2611s-0.56313-1.2611-1.2611-1.2611z" fill="#fff" fill-rule="evenodd"/>
  <path d="m56.256 418.16c-0.69532 0-1.2585 0.56577-1.2585 1.2611s0.56313 1.2611 1.2585 1.2611c0.69797 0 1.2611-0.56578 1.2611-1.2611s-0.56313-1.2611-1.2611-1.2611" fill="none" stroke="#000" stroke-linecap="round" stroke-linejoin="round" stroke-width=".26438px"/>
  <path d="m81.636 418.16c-0.69532 0-1.2585 0.56577-1.2585 1.2611s0.56313 1.2611 1.2585 1.2611c0.69796 0 1.2611-0.56578 1.2611-1.2611s-0.56313-1.2611-1.2611-1.2611z" fill="#fff" fill-rule="evenodd"/>
  <path d="m81.636 418.16c-0.69532 0-1.2585 0.56577-1.2585 1.2611s0.56313 1.2611 1.2585 1.2611c0.69796 0 1.2611-0.56578 1.2611-1.2611s-0.56313-1.2611-1.2611-1.2611" fill="none" stroke="#000" stroke-linecap="round" stroke-linejoin="round" stroke-width=".26438px"/>
  <path d="m62.585 402.95c-0.69532 0-1.2611 0.56577-1.2611 1.2611s0.56577 1.2584 1.2611 1.2584 1.2585-0.56313 1.2585-1.2584-0.56313-1.2611-1.2585-1.2611z" fill="#fff" fill-rule="evenodd"/>
  <path d="m62.585 402.95c-0.69532 0-1.2611 0.56577-1.2611 1.2611s0.56577 1.2584 1.2611 1.2584 1.2585-0.56313 1.2585-1.2584-0.56313-1.2611-1.2585-1.2611" fill="none" stroke="#000" stroke-linecap="round" stroke-linejoin="round" stroke-width=".26438px"/>
  <path d="m68.93 418.16c-0.69532 0-1.2611 0.56577-1.2611 1.2611s0.56577 1.2611 1.2611 1.2611c0.69532 0 1.2585-0.56578 1.2585-1.2611s-0.56313-1.2611-1.2585-1.2611z" fill="#fff" fill-rule="evenodd"/>
  <g fill="none" stroke="#000" stroke-linejoin="round" stroke-width=".26438px">
   <path d="m68.93 418.16c-0.69532 0-1.2611 0.56577-1.2611 1.2611s0.56577 1.2611 1.2611 1.2611c0.69532 0 1.2585-0.56578 1.2585-1.2611s-0.56313-1.2611-1.2585-1.2611" stroke-linecap="round"/>
   <g>
    <path d="m96.86 411.82h17.766"/>
    <path d="m96.86 411.82 8.8832 8.8832"/>
    <path d="m105.74 411.8v8.8832"/>
   </g>
  </g>
  <path d="m105.73 401.66c-0.69268 0-1.2584 0.56578-1.2584 1.2637 0 0.69268 0.56577 1.2584 1.2584 1.2584 0.69796 0 1.2584-0.56577 1.2584-1.2584 0-0.69796-0.56049-1.2637-1.2584-1.2637z" fill="#fff" fill-rule="evenodd"/>
  <g fill="none" stroke="#000" stroke-linejoin="round" stroke-width=".26438px">
   <path d="m105.73 401.66c-0.69268 0-1.2584 0.56578-1.2584 1.2637 0 0.69268 0.56577 1.2584 1.2584 1.2584 0.69796 0 1.2584-0.56577 1.2584-1.2584 0-0.69796-0.56049-1.2637-1.2584-1.2637" stroke-linecap="round"/>
   <path d="m105.74 420.7 8.8832-8.8832"/>
   <path d="m114.63 413.09v7.244"/>
  </g>
  <path d="m105.73 419.43c-0.69268 0-1.2584 0.56578-1.2584 1.2637 0 0.69268 0.56577 1.2584 1.2584 1.2584 0.69796 0 1.2584-0.56577 1.2584-1.2584 0-0.69796-0.56049-1.2637-1.2584-1.2637z" fill="#fff" fill-rule="evenodd"/>
  <path d="m105.73 419.43c-0.69268 0-1.2584 0.56578-1.2584 1.2637 0 0.69268 0.56577 1.2584 1.2584 1.2584 0.69796 0 1.2584-0.56577 1.2584-1.2584 0-0.69796-0.56049-1.2637-1.2584-1.2637" fill="none" stroke="#000" stroke-linecap="round" stroke-linejoin="round" stroke-width=".26438px"/>
  <path d="m105.73 410.53c-0.69268 0-1.2584 0.56577-1.2584 1.2584 0 0.69796 0.56577 1.2637 1.2584 1.2637 0.69796 0 1.2584-0.56578 1.2584-1.2637 0-0.69268-0.56049-1.2584-1.2584-1.2584z" fill="#fff" fill-rule="evenodd"/>
  <path d="m105.73 410.53c-0.69268 0-1.2584 0.56577-1.2584 1.2584 0 0.69796 0.56577 1.2637 1.2584 1.2637 0.69796 0 1.2584-0.56578 1.2584-1.2637 0-0.69268-0.56049-1.2584-1.2584-1.2584" fill="none" stroke="#000" stroke-linecap="round" stroke-linejoin="round" stroke-width=".26438px"/>
  <path d="m114.62 419.43c-0.69268 0-1.2584 0.56578-1.2584 1.2637 0 0.69268 0.56577 1.2584 1.2584 1.2584 0.69797 0 1.2585-0.56577 1.2585-1.2584 0-0.69796-0.56049-1.2637-1.2585-1.2637z" fill="#fff" fill-rule="evenodd"/>
  <g fill="none" stroke="#000" stroke-linejoin="round" stroke-width=".26438px">
   <path d="m114.62 419.43c-0.69268 0-1.2584 0.56578-1.2584 1.2637 0 0.69268 0.56577 1.2584 1.2584 1.2584 0.69797 0 1.2585-0.56577 1.2585-1.2584 0-0.69796-0.56049-1.2637-1.2585-1.2637" stroke-linecap="round"/>
   <path d="m24.522 402.93 5.0761 5.0761"/>
   <path d="m29.598 415.61-5.0761 4.706"/>
  </g>
  <path d="m24.514 401.66c-0.69532 0-1.2611 0.56578-1.2611 1.2611s0.56578 1.2611 1.2611 1.2611c0.69532 0 1.2585-0.56577 1.2585-1.2611s-0.56313-1.2611-1.2585-1.2611z" fill="#fff" fill-rule="evenodd"/>
  <g fill="none" stroke="#000" stroke-linejoin="round" stroke-width=".26438px">
   <path d="m24.514 401.66c-0.69532 0-1.2611 0.56578-1.2611 1.2611s0.56578 1.2611 1.2611 1.2611c0.69532 0 1.2585-0.56577 1.2585-1.2611s-0.56313-1.2611-1.2585-1.2611" stroke-linecap="round"/>
   <path d="m37.213 415.61 5.0761 5.0761"/>
   <path d="m24.522 420.7h17.766"/>
  </g>
  <path d="m24.514 419.43c-0.69532 0-1.2611 0.56578-1.2611 1.2611s0.56578 1.2611 1.2611 1.2611c0.69532 0 1.2585-0.56577 1.2585-1.2611s-0.56313-1.2611-1.2585-1.2611z" fill="#fff" fill-rule="evenodd"/>
  <path d="m24.514 419.43c-0.69532 0-1.2611 0.56578-1.2611 1.2611s0.56578 1.2611 1.2611 1.2611c0.69532 0 1.2585-0.56577 1.2585-1.2611s-0.56313-1.2611-1.2585-1.2611" fill="none" stroke="#000" stroke-linecap="round" stroke-linejoin="round" stroke-width=".26438px"/>
  <path d="m42.281 419.43c-0.69532 0-1.2611 0.56578-1.2611 1.2611s0.56578 1.2611 1.2611 1.2611c0.69532 0 1.2585-0.56577 1.2585-1.2611s-0.56313-1.2611-1.2585-1.2611z" fill="#fff" fill-rule="evenodd"/>
  <path d="m42.281 419.43c-0.69532 0-1.2611 0.56578-1.2611 1.2611s0.56578 1.2611 1.2611 1.2611c0.69532 0 1.2585-0.56577 1.2585-1.2611s-0.56313-1.2611-1.2585-1.2611" fill="none" stroke="#000" stroke-linecap="round" stroke-linejoin="round" stroke-width=".26438px"/>
  <path d="m42.281 401.66c-0.69532 0-1.2611 0.56578-1.2611 1.2611s0.56578 1.2611 1.2611 1.2611c0.69532 0 1.2585-0.56577 1.2585-1.2611s-0.56313-1.2611-1.2585-1.2611z" fill="#fff" fill-rule="evenodd"/>
  <path d="m42.281 401.66c-0.69532 0-1.2611 0.56578-1.2611 1.2611s0.56578 1.2611 1.2611 1.2611c0.69532 0 1.2585-0.56577 1.2585-1.2611s-0.56313-1.2611-1.2585-1.2611" fill="none" stroke="#000" stroke-linecap="round" stroke-linejoin="round" stroke-width=".26438px"/>
  <path d="m75.291 402.95c-0.69532 0-1.2585 0.56577-1.2585 1.2611s0.56313 1.2584 1.2585 1.2584c0.69796 0 1.2611-0.56313 1.2611-1.2584s-0.56313-1.2611-1.2611-1.2611z" fill="#fff" fill-rule="evenodd"/>
  <path d="m75.291 402.95c-0.69532 0-1.2585 0.56577-1.2585 1.2611s0.56313 1.2584 1.2585 1.2584c0.69796 0 1.2611-0.56313 1.2611-1.2584s-0.56313-1.2611-1.2611-1.2611" fill="none" stroke="#000" stroke-linecap="round" stroke-linejoin="round" stroke-width=".26438px"/>
  <path d="m96.849 410.55c-0.69532 0-1.2611 0.56577-1.2611 1.2611s0.56578 1.2611 1.2611 1.2611c0.69532 0 1.2585-0.56578 1.2585-1.2611s-0.56313-1.2611-1.2585-1.2611z" fill="#fff" fill-rule="evenodd"/>
  <path d="m96.849 410.55c-0.69532 0-1.2611 0.56577-1.2611 1.2611s0.56578 1.2611 1.2611 1.2611c0.69532 0 1.2585-0.56578 1.2585-1.2611s-0.56313-1.2611-1.2585-1.2611" fill="none" stroke="#000" stroke-linecap="round" stroke-linejoin="round" stroke-width=".26438px"/>
  <path d="m114.62 410.55c-0.69268 0-1.2584 0.56577-1.2584 1.2637 0 0.69267 0.56577 1.2584 1.2584 1.2584 0.69797 0 1.2585-0.56578 1.2585-1.2584 0-0.69797-0.56049-1.2637-1.2585-1.2637z" fill="#fff" fill-rule="evenodd"/>
  <path d="m114.62 410.55c-0.69268 0-1.2584 0.56577-1.2584 1.2637 0 0.69267 0.56577 1.2584 1.2584 1.2584 0.69797 0 1.2585-0.56578 1.2585-1.2584 0-0.69797-0.56049-1.2637-1.2585-1.2637" fill="none" stroke="#000" stroke-linecap="round" stroke-linejoin="round" stroke-width=".26438px"/>
  <path d="m29.591 406.74c-0.69532 0-1.2611 0.56577-1.2611 1.2611s0.56577 1.2611 1.2611 1.2611 1.2585-0.56578 1.2585-1.2611-0.56313-1.2611-1.2585-1.2611z" fill="#fff" fill-rule="evenodd"/>
  <path d="m29.591 406.74c-0.69532 0-1.2611 0.56577-1.2611 1.2611s0.56577 1.2611 1.2611 1.2611 1.2585-0.56578 1.2585-1.2611-0.56313-1.2611-1.2585-1.2611" fill="none" stroke="#000" stroke-linecap="round" stroke-linejoin="round" stroke-width=".26438px"/>
  <path d="m37.221 406.74c-0.69532 0-1.2585 0.56577-1.2585 1.2611s0.56313 1.2611 1.2585 1.2611c0.69796 0 1.2611-0.56578 1.2611-1.2611s-0.56313-1.2611-1.2611-1.2611z" fill="#fff" fill-rule="evenodd"/>
  <path d="m37.221 406.74c-0.69532 0-1.2585 0.56577-1.2585 1.2611s0.56313 1.2611 1.2585 1.2611c0.69796 0 1.2611-0.56578 1.2611-1.2611s-0.56313-1.2611-1.2611-1.2611" fill="none" stroke="#000" stroke-linecap="round" stroke-linejoin="round" stroke-width=".26438px"/>
  <path d="m29.591 414.35c-0.69532 0-1.2611 0.56577-1.2611 1.2611s0.56577 1.2611 1.2611 1.2611 1.2585-0.56578 1.2585-1.2611-0.56313-1.2611-1.2585-1.2611z" fill="#fff" fill-rule="evenodd"/>
  <path d="m29.591 414.35c-0.69532 0-1.2611 0.56577-1.2611 1.2611s0.56577 1.2611 1.2611 1.2611 1.2585-0.56578 1.2585-1.2611-0.56313-1.2611-1.2585-1.2611" fill="none" stroke="#000" stroke-linecap="round" stroke-linejoin="round" stroke-width=".26438px"/>
  <path d="m37.221 414.35c-0.69532 0-1.2585 0.56577-1.2585 1.2611s0.56313 1.2611 1.2585 1.2611c0.69796 0 1.2611-0.56578 1.2611-1.2611s-0.56313-1.2611-1.2611-1.2611z" fill="#fff" fill-rule="evenodd"/>
  <path d="m37.221 414.35c-0.69532 0-1.2585 0.56577-1.2585 1.2611s0.56313 1.2611 1.2585 1.2611c0.69796 0 1.2611-0.56578 1.2611-1.2611s-0.56313-1.2611-1.2611-1.2611" fill="none" stroke="#000" stroke-linecap="round" stroke-linejoin="round" stroke-width=".26438px"/>
 </g>
</svg>
