<?xml version="1.0" encoding="UTF-8"?>
<!-- Created with Inkscape (http://www.inkscape.org/) -->
<svg width="227.55" height="133.82" version="1.1" viewBox="0 0 227.55297 133.82248" xmlns="http://www.w3.org/2000/svg" xmlns:cc="http://creativecommons.org/ns#" xmlns:dc="http://purl.org/dc/elements/1.1/" xmlns:rdf="http://www.w3.org/1999/02/22-rdf-syntax-ns#">
 <defs>
  <clipPath id="clipEmfPath1-24">
   <path d="m121.51 0h101.84v18.866h-101.84z"/>
  </clipPath>
  <clipPath id="clipEmfPath2-68">
   <path d="m0 42.368h21.903v20.944h-21.903z"/>
  </clipPath>
  <clipPath id="clipEmfPath3-85">
   <path d="m28.618 124.38h59.954v19.025h-59.954z"/>
  </clipPath>
  <clipPath id="clipEmfPath4-156">
   <path d="m187.22 124.38h89.052v23.022h-89.052z"/>
  </clipPath>
  <clipPath id="clipEmfPath5-35">
   <path d="m169.95 64.91h26.859v14.869h-26.859z"/>
  </clipPath>
  <clipPath id="clipEmfPath6-928">
   <path d="m107.12 50.521h28.938v15.988h-28.938z"/>
  </clipPath>
  <clipPath id="clipEmfPath7-80">
   <path d="m157.16 30.217h26.38v17.427h-26.38z"/>
  </clipPath>
  <clipPath id="clipEmfPath8-89">
   <path d="m189.61 84.095h29.098v15.988h-29.098z"/>
  </clipPath>
  <clipPath id="clipEmfPath9-05">
   <path d="m89.531 111.11h28.458v16.148h-28.458z"/>
  </clipPath>
  <clipPath id="clipEmfPath10-51">
   <path d="m11.671 82.177h28.938v15.988h-28.938z"/>
  </clipPath>
  <clipPath id="clipEmfPath11-30">
   <path d="m54.518 32.135h29.098v15.988h-29.098z"/>
  </clipPath>
  <clipPath id="clipEmfPath12-05">
   <path d="m47.643 90.171h28.938v15.988h-28.938z"/>
  </clipPath>
  <clipPath id="clipEmfPath13-061">
   <path d="m154.28 88.892h28.458v15.988h-28.458z"/>
  </clipPath>
  <clipPath id="clipEmfPath14-77">
   <path d="m81.537 77.221h28.938v15.988h-28.938z"/>
  </clipPath>
  <clipPath id="clipEmfPath15-469">
   <path d="m222.39 34.534h19.985v23.982h-19.985z"/>
  </clipPath>
 </defs>
 <metadata>
  <rdf:RDF>
   <cc:Work rdf:about="">
    <dc:format>image/svg+xml</dc:format>
    <dc:type rdf:resource="http://purl.org/dc/dcmitype/StillImage"/>
    <dc:title/>
   </cc:Work>
  </rdf:RDF>
 </metadata>
 <g transform="matrix(3.7795 0 0 3.7795 -377.61 -1236.4)">
  <text x="99.710144" y="329.64572" fill="#000000" font-family="Calibri" font-size="3.8861px" font-weight="400" letter-spacing="0px" stroke-width=".26458" word-spacing="0px" style="line-height:125%" xml:space="preserve"><tspan x="0" y="0" stroke-width=".26458"><tspan dx="0" dy="0" fill="#000000" font-family="Calibri" font-size="3.8861px" font-weight="400" stroke-width=".26458"/></tspan></text>
  <path d="m157.89 341.37h-53.934" fill="none" stroke="#000" stroke-linejoin="round" stroke-width=".26438px"/>
  <path d="m130.76 331.89 27.125 9.7451" fill="none" stroke="#000" stroke-linejoin="round" stroke-width=".26438px"/>
  <g transform="matrix(.26458 0 0 .26458 99.583 325.97)" clip-path="url(#clipEmfPath1-24)">
   <text transform="translate(121.51 13.749)" fill="#000000" font-family="Calibri" font-size="14.688px" font-weight="400" letter-spacing="0px" word-spacing="0px" style="line-height:125%" xml:space="preserve"><tspan x="0" y="0" fill="#000000" font-family="Calibri" font-size="14.688px" font-weight="400"><tspan dx="0" dy="0">A</tspan><tspan dx="0" dy="0"/></tspan></text>
  </g>
  <g transform="matrix(.26458 0 0 .26458 99.583 325.97)" clip-path="url(#clipEmfPath2-68)">
   <text transform="translate(0 56.117)" fill="#000000" font-family="Calibri" font-size="14.688px" font-weight="400" letter-spacing="0px" word-spacing="0px" style="line-height:125%" xml:space="preserve"><tspan x="0" y="0" fill="#000000" font-family="Calibri" font-size="14.688px" font-weight="400"><tspan dx="0" dy="0">B</tspan><tspan dx="0" dy="0"/></tspan></text>
  </g>
  <g transform="matrix(.26458 0 0 .26458 99.583 325.97)" clip-path="url(#clipEmfPath3-85)">
   <text transform="translate(28.618 138.13)" fill="#000000" font-family="Calibri" font-size="14.688px" font-weight="400" letter-spacing="0px" word-spacing="0px" style="line-height:125%" xml:space="preserve"><tspan x="0" y="0" fill="#000000" font-family="Calibri" font-size="14.688px" font-weight="400"><tspan dx="0" dy="0">C</tspan><tspan dx="0" dy="0"/></tspan></text>
  </g>
  <g transform="matrix(.26458 0 0 .26458 99.583 325.97)" clip-path="url(#clipEmfPath4-156)">
   <text transform="translate(187.22 138.13)" fill="#000000" font-family="Calibri" font-size="14.688px" font-weight="400" letter-spacing="0px" word-spacing="0px" style="line-height:125%" xml:space="preserve"><tspan x="0" y="0" fill="#000000" font-family="Calibri" font-size="14.688px" font-weight="400"><tspan dx="0" dy="0">D</tspan><tspan dx="0" dy="0"/></tspan></text>
  </g>
  <g fill="none" stroke="#000" stroke-linejoin="round" stroke-width=".26438px">
   <path d="m157.63 341.64-47.588 15.863"/>
   <path d="m130.76 331.89-19.934 25.344"/>
   <path d="m148.53 357.06h-38.071"/>
   <path d="m157.36 342.45-8.8303 14.612"/>
   <path d="m110.83 356.99-5.8164-15.598"/>
   <path d="m130.76 331.89 17.766 25.151"/>
   <path d="m130.76 331.89-26.015 8.9519"/>
   <path d="m104.48 341.39 44.046 15.67"/>
  </g>
  <path d="m130.75 330.62c-0.69532 0-1.2584 0.56313-1.2584 1.2584 0 0.69796 0.56313 1.2611 1.2584 1.2611 0.69796 0 1.2611-0.56314 1.2611-1.2611 0-0.69532-0.56313-1.2584-1.2611-1.2584z" fill="#fff" fill-rule="evenodd"/>
  <path d="m130.75 330.62c-0.69532 0-1.2584 0.56313-1.2584 1.2584 0 0.69796 0.56313 1.2611 1.2584 1.2611 0.69796 0 1.2611-0.56314 1.2611-1.2611 0-0.69532-0.56313-1.2584-1.2611-1.2584" fill="none" stroke="#000" stroke-linecap="round" stroke-linejoin="round" stroke-width=".26438px"/>
  <path d="m111.03 355.93c-0.69532 0-1.2584 0.56577-1.2584 1.2611s0.56313 1.2584 1.2584 1.2584c0.69797 0 1.2611-0.56313 1.2611-1.2584s-0.56313-1.2611-1.2611-1.2611z" fill="#fff" fill-rule="evenodd"/>
  <path d="m111.03 355.93c-0.69532 0-1.2584 0.56577-1.2584 1.2611s0.56313 1.2584 1.2584 1.2584c0.69797 0 1.2611-0.56313 1.2611-1.2584s-0.56313-1.2611-1.2611-1.2611" fill="none" stroke="#000" stroke-linecap="round" stroke-linejoin="round" stroke-width=".26438px"/>
  <path d="m148.52 355.79c-0.69532 0-1.2584 0.56314-1.2584 1.2585 0 0.69796 0.56313 1.2611 1.2584 1.2611 0.69797 0 1.2611-0.56313 1.2611-1.2611 0-0.69532-0.56313-1.2585-1.2611-1.2585z" fill="#fff" fill-rule="evenodd"/>
  <path d="m148.52 355.79c-0.69532 0-1.2584 0.56314-1.2584 1.2585 0 0.69796 0.56313 1.2611 1.2584 1.2611 0.69797 0 1.2611-0.56313 1.2611-1.2611 0-0.69532-0.56313-1.2585-1.2611-1.2585" fill="none" stroke="#000" stroke-linecap="round" stroke-linejoin="round" stroke-width=".26438px"/>
  <path d="m104.69 340.33c-0.69532 0-1.2584 0.56577-1.2584 1.2611s0.56313 1.2584 1.2584 1.2584c0.69796 0 1.2611-0.56313 1.2611-1.2584s-0.56313-1.2611-1.2611-1.2611z" fill="#fff" fill-rule="evenodd"/>
  <path d="m104.69 340.33c-0.69532 0-1.2584 0.56577-1.2584 1.2611s0.56313 1.2584 1.2584 1.2584c0.69796 0 1.2611-0.56313 1.2611-1.2584s-0.56313-1.2611-1.2611-1.2611" fill="none" stroke="#000" stroke-linecap="round" stroke-linejoin="round" stroke-width=".26438px"/>
  <path d="m157.83 340.33c-0.69532 0-1.2585 0.56577-1.2585 1.2611s0.56314 1.2584 1.2585 1.2584c0.69796 0 1.2611-0.56313 1.2611-1.2584s-0.56313-1.2611-1.2611-1.2611z" fill="#fff" fill-rule="evenodd"/>
  <path d="m157.83 340.33c-0.69532 0-1.2585 0.56577-1.2585 1.2611s0.56314 1.2584 1.2585 1.2584c0.69796 0 1.2611-0.56313 1.2611-1.2584s-0.56313-1.2611-1.2611-1.2611" fill="none" stroke="#000" stroke-linecap="round" stroke-linejoin="round" stroke-width=".26438px"/>
  <path d="m144.51 343.1v3.9287h7.1383v-3.9287z" fill="#fff" fill-rule="evenodd"/>
  <g transform="matrix(.26458 0 0 .26458 99.583 325.97)" clip-path="url(#clipEmfPath5-35)">
   <text transform="translate(171.87 77.541)" fill="#000000" font-family="Calibri" font-size="13.25px" font-weight="400" letter-spacing="0px" word-spacing="0px" style="line-height:125%" xml:space="preserve"><tspan x="0" y="0" fill="#000000" font-family="Calibri" font-size="13.25px" font-weight="400"><tspan dx="0" dy="0">$4.0</tspan><tspan dx="0" dy="0"/></tspan></text>
  </g>
  <path d="m127.91 339.3v4.2301h7.667v-4.2301z" fill="#fff" fill-rule="evenodd"/>
  <g transform="matrix(.26458 0 0 .26458 99.583 325.97)" clip-path="url(#clipEmfPath6-928)">
   <text transform="translate(109.04 63.152)" fill="#000000" font-family="Calibri" font-size="13.25px" font-weight="400" letter-spacing="0px" word-spacing="0px" style="line-height:125%" xml:space="preserve"><tspan x="0" y="0" fill="#000000" font-family="Calibri" font-size="13.25px" font-weight="400"><tspan dx="0" dy="0">$5.2</tspan><tspan dx="0" dy="0"/></tspan></text>
  </g>
  <path d="m141.13 333.94v4.6187h6.9796v-4.6187z" fill="#fff" fill-rule="evenodd"/>
  <g transform="matrix(.26458 0 0 .26458 99.583 325.97)" clip-path="url(#clipEmfPath7-80)">
   <text transform="translate(159.08 42.847)" fill="#000000" font-family="Calibri" font-size="13.25px" font-weight="400" letter-spacing="0px" word-spacing="0px" style="line-height:125%" xml:space="preserve"><tspan x="0" y="0" fill="#000000" font-family="Calibri" font-size="13.25px" font-weight="400"><tspan dx="0" dy="0">$4.4</tspan><tspan dx="0" dy="0"/></tspan></text>
  </g>
  <path d="m149.75 348.18v4.2301h7.667v-4.2301z" fill="#fff" fill-rule="evenodd"/>
  <g transform="matrix(.26458 0 0 .26458 99.583 325.97)" clip-path="url(#clipEmfPath8-89)">
   <text transform="translate(191.53 96.726)" fill="#000000" font-family="Calibri" font-size="13.25px" font-weight="400" letter-spacing="0px" word-spacing="0px" style="line-height:125%" xml:space="preserve"><tspan x="0" y="0" fill="#000000" font-family="Calibri" font-size="13.25px" font-weight="400"><tspan dx="0" dy="0">$5.8</tspan><tspan dx="0" dy="0"/></tspan></text>
  </g>
  <path d="m123.26 355.35v4.2486h7.5084v-4.2486z" fill="#fff" fill-rule="evenodd"/>
  <g transform="matrix(.26458 0 0 .26458 99.583 325.97)" clip-path="url(#clipEmfPath9-05)">
   <text transform="translate(91.45 123.75)" fill="#000000" font-family="Calibri" font-size="13.25px" font-weight="400" letter-spacing="0px" word-spacing="0px" style="line-height:125%" xml:space="preserve"><tspan x="0" y="0" fill="#000000" font-family="Calibri" font-size="13.25px" font-weight="400"><tspan dx="0" dy="0">$5.6</tspan><tspan dx="0" dy="0"/></tspan></text>
  </g>
  <path d="m102.63 347.68v4.2301h7.667v-4.2301z" fill="#fff" fill-rule="evenodd"/>
  <g transform="matrix(.26458 0 0 .26458 99.583 325.97)" clip-path="url(#clipEmfPath10-51)">
   <text transform="translate(13.59 94.807)" fill="#000000" font-family="Calibri" font-size="13.25px" font-weight="400" letter-spacing="0px" word-spacing="0px" style="line-height:125%" xml:space="preserve"><tspan x="0" y="0" fill="#000000" font-family="Calibri" font-size="13.25px" font-weight="400"><tspan dx="0" dy="0">$6.0</tspan><tspan dx="0" dy="0"/></tspan></text>
  </g>
  <path d="m114 334.47v4.2301h7.667v-4.2301z" fill="#fff" fill-rule="evenodd"/>
  <g transform="matrix(.26458 0 0 .26458 99.583 325.97)" clip-path="url(#clipEmfPath11-30)">
   <text transform="translate(56.437 44.766)" fill="#000000" font-family="Calibri" font-size="13.25px" font-weight="400" letter-spacing="0px" word-spacing="0px" style="line-height:125%" xml:space="preserve"><tspan x="0" y="0" fill="#000000" font-family="Calibri" font-size="13.25px" font-weight="400"><tspan dx="0" dy="0">$5.9</tspan><tspan dx="0" dy="0"/></tspan></text>
  </g>
  <path d="m112.15 349.8v4.2301h7.667v-4.2301z" fill="#fff" fill-rule="evenodd"/>
  <g transform="matrix(.26458 0 0 .26458 99.583 325.97)" clip-path="url(#clipEmfPath12-05)">
   <text transform="translate(49.562 102.8)" fill="#000000" font-family="Calibri" font-size="13.25px" font-weight="400" letter-spacing="0px" word-spacing="0px" style="line-height:125%" xml:space="preserve"><tspan x="0" y="0" fill="#000000" font-family="Calibri" font-size="13.25px" font-weight="400"><tspan dx="0" dy="0">$5.1</tspan><tspan dx="0" dy="0"/></tspan></text>
  </g>
  <path d="m140.39 349.45v4.246h7.5084v-4.246z" fill="#fff" fill-rule="evenodd"/>
  <g transform="matrix(.26458 0 0 .26458 99.583 325.97)" clip-path="url(#clipEmfPath13-061)">
   <text transform="translate(156.2 101.52)" fill="#000000" font-family="Calibri" font-size="13.25px" font-weight="400" letter-spacing="0px" word-spacing="0px" style="line-height:125%" xml:space="preserve"><tspan x="0" y="0" fill="#000000" font-family="Calibri" font-size="13.25px" font-weight="400"><tspan dx="0" dy="0">$4.7</tspan><tspan dx="0" dy="0"/></tspan></text>
  </g>
  <path d="m121.14 346.36v4.2301h7.667v-4.2301z" fill="#fff" fill-rule="evenodd"/>
  <g transform="matrix(.26458 0 0 .26458 99.583 325.97)" clip-path="url(#clipEmfPath14-77)">
   <text transform="translate(83.456 89.851)" fill="#000000" font-family="Calibri" font-size="13.25px" font-weight="400" letter-spacing="0px" word-spacing="0px" style="line-height:125%" xml:space="preserve"><tspan x="0" y="0" fill="#000000" font-family="Calibri" font-size="13.25px" font-weight="400"><tspan dx="0" dy="0">$4.3</tspan><tspan dx="0" dy="0"/></tspan></text>
  </g>
  <g transform="matrix(.26458 0 0 .26458 99.583 325.97)" clip-path="url(#clipEmfPath15-469)">
   <text transform="translate(222.39 48.283)" fill="#000000" font-family="Calibri" font-size="14.688px" font-weight="400" letter-spacing="0px" word-spacing="0px" style="line-height:125%" xml:space="preserve"><tspan x="0" y="0" fill="#000000" font-family="Calibri" font-size="14.688px" font-weight="400"><tspan dx="0" dy="0">E</tspan><tspan dx="0" dy="0"/></tspan></text>
  </g>
 </g>
</svg>
