<?xml version="1.0" encoding="UTF-8"?>
<!-- Created with Inkscape (http://www.inkscape.org/) -->
<svg width="106.52" height="68.008" version="1.1" viewBox="0 0 106.51828 68.007905" xmlns="http://www.w3.org/2000/svg" xmlns:cc="http://creativecommons.org/ns#" xmlns:dc="http://purl.org/dc/elements/1.1/" xmlns:rdf="http://www.w3.org/1999/02/22-rdf-syntax-ns#">
 <metadata>
  <rdf:RDF>
   <cc:Work rdf:about="">
    <dc:format>image/svg+xml</dc:format>
    <dc:type rdf:resource="http://purl.org/dc/dcmitype/StillImage"/>
    <dc:title/>
   </cc:Work>
  </rdf:RDF>
 </metadata>
 <g transform="matrix(3.7795 0 0 3.7795 157.49 -1754.3)">
  <g fill="none" stroke="#000" stroke-linejoin="round" stroke-width=".26438px">
   <path d="m-40.269 465.55 12.69 14.858"/>
   <path d="m-27.579 465.55 12.69 15.228"/>
   <path d="m-40.269 480.78 12.69-15.228"/>
   <path d="m-40.269 480.78v-13.959"/>
   <path d="m-14.888 465.55v15.228"/>
   <path d="m-40.269 465.55 25.381 15.228"/>
   <path d="m-40.269 480.78 24.112-15.228"/>
   <path d="m-27.579 480.76 12.69-15.21"/>
   <path d="m-27.579 465.55v15.228"/>
  </g>
  <path d="m-40.261 479.51c-0.69532 0-1.2611 0.56577-1.2611 1.2611s0.56577 1.2585 1.2611 1.2585 1.2611-0.56314 1.2611-1.2585-0.56577-1.2611-1.2611-1.2611z" fill="#fff" fill-rule="evenodd"/>
  <path d="m-40.261 479.51c-0.69532 0-1.2611 0.56577-1.2611 1.2611s0.56577 1.2585 1.2611 1.2585 1.2611-0.56314 1.2611-1.2585-0.56577-1.2611-1.2611-1.2611" fill="none" stroke="#000" stroke-linecap="round" stroke-linejoin="round" stroke-width=".26438px"/>
  <path d="m-14.88 479.51c-0.69532 0-1.2611 0.56577-1.2611 1.2611s0.56578 1.2585 1.2611 1.2585c0.69532 0 1.2611-0.56314 1.2611-1.2585s-0.56577-1.2611-1.2611-1.2611z" fill="#fff" fill-rule="evenodd"/>
  <path d="m-14.88 479.51c-0.69532 0-1.2611 0.56577-1.2611 1.2611s0.56578 1.2585 1.2611 1.2585c0.69532 0 1.2611-0.56314 1.2611-1.2585s-0.56577-1.2611-1.2611-1.2611" fill="none" stroke="#000" stroke-linecap="round" stroke-linejoin="round" stroke-width=".26438px"/>
  <path d="m-40.279 464.3c-0.69532 0-1.2585 0.56313-1.2585 1.2584 0 0.69796 0.56313 1.2611 1.2585 1.2611 0.69796 0 1.2611-0.56313 1.2611-1.2611 0-0.69532-0.56313-1.2584-1.2611-1.2584z" fill="#fff" fill-rule="evenodd"/>
  <path d="m-40.279 464.3c-0.69532 0-1.2585 0.56313-1.2585 1.2584 0 0.69796 0.56313 1.2611 1.2585 1.2611 0.69796 0 1.2611-0.56313 1.2611-1.2611 0-0.69532-0.56313-1.2584-1.2611-1.2584" fill="none" stroke="#000" stroke-linecap="round" stroke-linejoin="round" stroke-width=".26438px"/>
  <path d="m-27.589 464.3c-0.69532 0-1.2585 0.56313-1.2585 1.2584 0 0.69796 0.56313 1.2611 1.2585 1.2611 0.69796 0 1.2611-0.56313 1.2611-1.2611 0-0.69532-0.56313-1.2584-1.2611-1.2584z" fill="#fff" fill-rule="evenodd"/>
  <path d="m-27.589 464.3c-0.69532 0-1.2585 0.56313-1.2585 1.2584 0 0.69796 0.56313 1.2611 1.2585 1.2611 0.69796 0 1.2611-0.56313 1.2611-1.2611 0-0.69532-0.56313-1.2584-1.2611-1.2584" fill="none" stroke="#000" stroke-linecap="round" stroke-linejoin="round" stroke-width=".26438px"/>
  <path d="m-27.589 479.51c-0.69532 0-1.2585 0.56577-1.2585 1.2611s0.56313 1.2585 1.2585 1.2585c0.69796 0 1.2611-0.56314 1.2611-1.2585s-0.56313-1.2611-1.2611-1.2611z" fill="#fff" fill-rule="evenodd"/>
  <path d="m-27.589 479.51c-0.69532 0-1.2585 0.56577-1.2585 1.2611s0.56313 1.2585 1.2585 1.2585c0.69796 0 1.2611-0.56314 1.2611-1.2585s-0.56313-1.2611-1.2611-1.2611" fill="none" stroke="#000" stroke-linecap="round" stroke-linejoin="round" stroke-width=".26438px"/>
  <path d="m-14.88 464.3c-0.69532 0-1.2611 0.56313-1.2611 1.2584 0 0.69796 0.56578 1.2611 1.2611 1.2611 0.69532 0 1.2611-0.56313 1.2611-1.2611 0-0.69532-0.56577-1.2584-1.2611-1.2584z" fill="#fff" fill-rule="evenodd"/>
  <path d="m-14.88 464.3c-0.69532 0-1.2611 0.56313-1.2611 1.2584 0 0.69796 0.56578 1.2611 1.2611 1.2611 0.69532 0 1.2611-0.56313 1.2611-1.2611 0-0.69532-0.56577-1.2584-1.2611-1.2584" fill="none" stroke="#000" stroke-linecap="round" stroke-linejoin="round" stroke-width=".26438px"/>
 </g>
</svg>
