<?xml version="1.0" encoding="UTF-8"?>
<!-- Created with Inkscape (http://www.inkscape.org/) -->
<svg width="329.94" height="82.538" version="1.1" viewBox="0 0 329.93891 82.537984" xmlns="http://www.w3.org/2000/svg" xmlns:cc="http://creativecommons.org/ns#" xmlns:dc="http://purl.org/dc/elements/1.1/" xmlns:rdf="http://www.w3.org/1999/02/22-rdf-syntax-ns#">
 <defs>
  <clipPath id="clipEmfPath1-09">
   <path d="m5.9155 24.141h16.307v17.427h-16.307z"/>
  </clipPath>
  <clipPath id="clipEmfPath2-99">
   <path d="m5.9155 57.716h16.307v17.427h-16.307z"/>
  </clipPath>
  <clipPath id="clipEmfPath3-021">
   <path d="m34.693 0.15988h16.307v17.427h-16.307z"/>
  </clipPath>
  <clipPath id="clipEmfPath4-340">
   <path d="m34.693 33.734h16.307v17.427h-16.307z"/>
  </clipPath>
  <clipPath id="clipEmfPath5-07">
   <path d="m34.693 67.308h16.307v17.427h-16.307z"/>
  </clipPath>
  <clipPath id="clipEmfPath6-85">
   <path d="m82.657 24.141h16.307v17.427h-16.307z"/>
  </clipPath>
  <clipPath id="clipEmfPath7-604">
   <path d="m82.657 57.716h16.307v17.427h-16.307z"/>
  </clipPath>
  <clipPath id="clipEmfPath8-51">
   <path d="m248.45 24.141h16.307v17.427h-16.307z"/>
  </clipPath>
  <clipPath id="clipEmfPath9-04">
   <path d="m248.45 57.716h16.307v17.427h-16.307z"/>
  </clipPath>
  <clipPath id="clipEmfPath10-68">
   <path d="m322.47 24.141h16.307v17.427h-16.307z"/>
  </clipPath>
  <clipPath id="clipEmfPath11-15">
   <path d="m322.47 57.716h16.307v17.427h-16.307z"/>
  </clipPath>
  <clipPath id="clipEmfPath12-38">
   <path d="m277.23 0.15988h16.307v17.427h-16.307z"/>
  </clipPath>
  <clipPath id="clipEmfPath13-07">
   <path d="m277.23 33.734h16.307v17.427h-16.307z"/>
  </clipPath>
  <clipPath id="clipEmfPath14-38">
   <path d="m277.23 67.308h16.307v17.427h-16.307z"/>
  </clipPath>
  <clipPath id="clipEmfPath15-70">
   <path d="m157.32 0.15988h16.307v17.427h-16.307z"/>
  </clipPath>
  <clipPath id="clipEmfPath16-00">
   <path d="m157.32 33.734h16.307v17.427h-16.307z"/>
  </clipPath>
  <clipPath id="clipEmfPath17-22">
   <path d="m157.32 67.308h16.307v17.427h-16.307z"/>
  </clipPath>
 </defs>
 <metadata>
  <rdf:RDF>
   <cc:Work rdf:about="">
    <dc:format>image/svg+xml</dc:format>
    <dc:type rdf:resource="http://purl.org/dc/dcmitype/StillImage"/>
    <dc:title/>
   </cc:Work>
  </rdf:RDF>
 </metadata>
 <g transform="matrix(3.7795 0 0 3.7795 33.082 -1985.3)">
  <text x="-8.8295841" y="527.78363" fill="#000000" font-family="Calibri" font-size="3.8861px" font-weight="400" letter-spacing="0px" stroke-width=".26458" word-spacing="0px" style="line-height:125%" xml:space="preserve"><tspan x="0" y="0" stroke-width=".26458"><tspan dx="0" dy="0" fill="#000000" font-family="Calibri" font-size="3.8861px" font-weight="400" stroke-width=".26458"/></tspan></text>
  <g fill="none" stroke="#000" stroke-linejoin="round" stroke-width=".26438px">
   <path d="m76.404 536.85v8.8832"/>
   <path d="m56.1 527.97h20.304"/>
   <path d="m76.404 527.97v8.8832"/>
  </g>
  <path d="m76.412 526.7c-0.69532 0-1.2585 0.56313-1.2585 1.2584 0 0.69796 0.56313 1.2611 1.2585 1.2611 0.69796 0 1.2611-0.56313 1.2611-1.2611 0-0.69532-0.56313-1.2584-1.2611-1.2584z" fill="#fff" fill-rule="evenodd"/>
  <path d="m76.412 526.7c-0.69268 0-1.2585 0.56577-1.2585 1.2584 0 0.69796 0.56577 1.2637 1.2585 1.2637 0.69796 0 1.2637-0.56578 1.2637-1.2637 0-0.69268-0.56578-1.2584-1.2637-1.2584" fill="none" stroke="#000" stroke-linecap="round" stroke-linejoin="round" stroke-width=".26438px"/>
  <path d="m56.1 536.85h20.304" fill="none" stroke="#000" stroke-linejoin="round" stroke-width=".26438px"/>
  <path d="m76.396 535.6c-0.69532 0-1.2611 0.56578-1.2611 1.2611s0.56577 1.2611 1.2611 1.2611 1.2585-0.56577 1.2585-1.2611-0.56313-1.2611-1.2585-1.2611z" fill="#fff" fill-rule="evenodd"/>
  <path d="m76.396 535.6c-0.69268 0-1.2585 0.56578-1.2585 1.2637 0 0.69268 0.56577 1.2584 1.2585 1.2584 0.69797 0 1.2585-0.56577 1.2585-1.2584 0-0.69796-0.56048-1.2637-1.2585-1.2637" fill="none" stroke="#000" stroke-linecap="round" stroke-linejoin="round" stroke-width=".26438px"/>
  <path d="m56.1 545.74h20.304" fill="none" stroke="#000" stroke-linejoin="round" stroke-width=".26438px"/>
  <path d="m76.412 544.47c-0.69532 0-1.2585 0.56313-1.2585 1.2584 0 0.69796 0.56313 1.2611 1.2585 1.2611 0.69796 0 1.2611-0.56313 1.2611-1.2611 0-0.69532-0.56313-1.2584-1.2611-1.2584z" fill="#fff" fill-rule="evenodd"/>
  <g fill="none" stroke="#000" stroke-linejoin="round" stroke-width=".26438px">
   <path d="m76.412 544.47c-0.69268 0-1.2585 0.56577-1.2585 1.2584 0 0.69796 0.56577 1.2637 1.2585 1.2637 0.69796 0 1.2637-0.56578 1.2637-1.2637 0-0.69268-0.56578-1.2584-1.2637-1.2584" stroke-linecap="round"/>
   <g>
    <path d="m-7.3517 536.85v8.8832"/>
    <path d="m56.1 536.85v8.8832"/>
    <path d="m12.953 536.85v8.8832"/>
    <path d="m-7.3517 527.97h20.304"/>
    <path d="m-7.3517 536.85h20.304"/>
    <path d="m-7.3517 527.97v8.8832"/>
   </g>
  </g>
  <path d="m-7.3596 535.58c-0.69532 0-1.2611 0.56313-1.2611 1.2584 0 0.69797 0.56577 1.2611 1.2611 1.2611 0.69532 0 1.2585-0.56313 1.2585-1.2611 0-0.69532-0.56313-1.2584-1.2585-1.2584z" fill="#fff" fill-rule="evenodd"/>
  <path d="m-7.3596 535.58c-0.69532 0-1.2611 0.56313-1.2611 1.2584 0 0.69797 0.56577 1.2611 1.2611 1.2611 0.69532 0 1.2585-0.56313 1.2585-1.2611 0-0.69532-0.56313-1.2584-1.2585-1.2584" fill="none" stroke="#000" stroke-linecap="round" stroke-linejoin="round" stroke-width=".26438px"/>
  <path d="m-7.3596 526.7c-0.69532 0-1.2611 0.56313-1.2611 1.2584 0 0.69796 0.56577 1.2611 1.2611 1.2611 0.69532 0 1.2585-0.56313 1.2585-1.2611 0-0.69532-0.56313-1.2584-1.2585-1.2584z" fill="#fff" fill-rule="evenodd"/>
  <g fill="none" stroke="#000" stroke-linejoin="round" stroke-width=".26438px">
   <path d="m-7.3596 526.7c-0.69532 0-1.2611 0.56313-1.2611 1.2584 0 0.69796 0.56577 1.2611 1.2611 1.2611 0.69532 0 1.2585-0.56313 1.2585-1.2611 0-0.69532-0.56313-1.2584-1.2585-1.2584" stroke-linecap="round"/>
   <path d="m12.953 527.97h43.147"/>
   <path d="m56.1 527.97v8.8832"/>
  </g>
  <path d="m56.108 526.7c-0.69532 0-1.2585 0.56313-1.2585 1.2584 0 0.69796 0.56313 1.2611 1.2585 1.2611 0.69796 0 1.2611-0.56313 1.2611-1.2611 0-0.69532-0.56313-1.2584-1.2611-1.2584z" fill="#fff" fill-rule="evenodd"/>
  <path d="m56.108 526.7c-0.69532 0-1.2585 0.56313-1.2585 1.2584 0 0.69796 0.56313 1.2611 1.2585 1.2611 0.69796 0 1.2611-0.56313 1.2611-1.2611 0-0.69532-0.56313-1.2584-1.2611-1.2584" fill="none" stroke="#000" stroke-linecap="round" stroke-linejoin="round" stroke-width=".26438px"/>
  <path d="m12.953 536.85h41.878" fill="none" stroke="#000" stroke-linejoin="round" stroke-width=".26438px"/>
  <path d="m56.092 535.6c-0.69532 0-1.2611 0.56578-1.2611 1.2611s0.56578 1.2611 1.2611 1.2611c0.69532 0 1.2585-0.56577 1.2585-1.2611s-0.56313-1.2611-1.2585-1.2611z" fill="#fff" fill-rule="evenodd"/>
  <path d="m56.092 535.6c-0.69532 0-1.2611 0.56578-1.2611 1.2611s0.56578 1.2611 1.2611 1.2611c0.69532 0 1.2585-0.56577 1.2585-1.2611s-0.56313-1.2611-1.2585-1.2611" fill="none" stroke="#000" stroke-linecap="round" stroke-linejoin="round" stroke-width=".26438px"/>
  <path d="m12.953 527.97v8.8832" fill="none" stroke="#000" stroke-linejoin="round" stroke-width=".26438px"/>
  <path d="m12.961 526.7c-0.69532 0-1.2585 0.56313-1.2585 1.2584 0 0.69796 0.56313 1.2611 1.2585 1.2611 0.69796 0 1.2611-0.56313 1.2611-1.2611 0-0.69532-0.56313-1.2584-1.2611-1.2584z" fill="#fff" fill-rule="evenodd"/>
  <path d="m12.961 526.7c-0.69532 0-1.2585 0.56313-1.2585 1.2584 0 0.69796 0.56313 1.2611 1.2585 1.2611 0.69796 0 1.2611-0.56313 1.2611-1.2611 0-0.69532-0.56313-1.2584-1.2611-1.2584" fill="none" stroke="#000" stroke-linecap="round" stroke-linejoin="round" stroke-width=".26438px"/>
  <path d="m12.945 535.6c-0.69532 0-1.2611 0.56578-1.2611 1.2611s0.56578 1.2611 1.2611 1.2611c0.69532 0 1.2585-0.56577 1.2585-1.2611s-0.56313-1.2611-1.2585-1.2611z" fill="#fff" fill-rule="evenodd"/>
  <path d="m12.945 535.6c-0.69532 0-1.2611 0.56578-1.2611 1.2611s0.56578 1.2611 1.2611 1.2611c0.69532 0 1.2585-0.56577 1.2585-1.2611s-0.56313-1.2611-1.2585-1.2611" fill="none" stroke="#000" stroke-linecap="round" stroke-linejoin="round" stroke-width=".26438px"/>
  <path d="m-7.3517 545.74h20.304" fill="none" stroke="#000" stroke-linejoin="round" stroke-width=".26438px"/>
  <path d="m-7.3596 544.47c-0.69532 0-1.2611 0.56313-1.2611 1.2584 0 0.69796 0.56577 1.2611 1.2611 1.2611 0.69532 0 1.2585-0.56313 1.2585-1.2611 0-0.69532-0.56313-1.2584-1.2585-1.2584z" fill="#fff" fill-rule="evenodd"/>
  <path d="m-7.3596 544.47c-0.69532 0-1.2611 0.56313-1.2611 1.2584 0 0.69796 0.56577 1.2611 1.2611 1.2611 0.69532 0 1.2585-0.56313 1.2585-1.2611 0-0.69532-0.56313-1.2584-1.2585-1.2584" fill="none" stroke="#000" stroke-linecap="round" stroke-linejoin="round" stroke-width=".26438px"/>
  <path d="m12.953 545.74h43.147" fill="none" stroke="#000" stroke-linejoin="round" stroke-width=".26438px"/>
  <path d="m56.108 544.47c-0.69532 0-1.2585 0.56313-1.2585 1.2584 0 0.69796 0.56313 1.2611 1.2585 1.2611 0.69796 0 1.2611-0.56313 1.2611-1.2611 0-0.69532-0.56313-1.2584-1.2611-1.2584z" fill="#fff" fill-rule="evenodd"/>
  <path d="m56.108 544.47c-0.69532 0-1.2585 0.56313-1.2585 1.2584 0 0.69796 0.56313 1.2611 1.2585 1.2611 0.69796 0 1.2611-0.56313 1.2611-1.2611 0-0.69532-0.56313-1.2584-1.2611-1.2584" fill="none" stroke="#000" stroke-linecap="round" stroke-linejoin="round" stroke-width=".26438px"/>
  <path d="m12.961 544.47c-0.69532 0-1.2585 0.56313-1.2585 1.2584 0 0.69796 0.56313 1.2611 1.2585 1.2611 0.69796 0 1.2611-0.56313 1.2611-1.2611 0-0.69532-0.56313-1.2584-1.2611-1.2584z" fill="#fff" fill-rule="evenodd"/>
  <path d="m12.961 544.47c-0.69532 0-1.2585 0.56313-1.2585 1.2584 0 0.69796 0.56313 1.2611 1.2585 1.2611 0.69796 0 1.2611-0.56313 1.2611-1.2611 0-0.69532-0.56313-1.2584-1.2611-1.2584" fill="none" stroke="#000" stroke-linecap="round" stroke-linejoin="round" stroke-width=".26438px"/>
  <g transform="matrix(.26458 0 0 .26458 -8.8719 524.15)" clip-path="url(#clipEmfPath1-09)">
   <text transform="translate(7.834 36.772)" fill="#000000" font-family="Calibri" font-size="13.25px" font-weight="400" letter-spacing="0px" word-spacing="0px" style="line-height:125%" xml:space="preserve"><tspan x="0" y="0" fill="#000000" font-family="Calibri" font-size="13.25px" font-weight="400"><tspan dx="0" dy="0">1</tspan><tspan dx="0" dy="0"/></tspan></text>
  </g>
  <g transform="matrix(.26458 0 0 .26458 -8.8719 524.15)" clip-path="url(#clipEmfPath2-99)">
   <text transform="translate(7.834 70.346)" fill="#000000" font-family="Calibri" font-size="13.25px" font-weight="400" letter-spacing="0px" word-spacing="0px" style="line-height:125%" xml:space="preserve"><tspan x="0" y="0" fill="#000000" font-family="Calibri" font-size="13.25px" font-weight="400"><tspan dx="0" dy="0">1</tspan><tspan dx="0" dy="0"/></tspan></text>
  </g>
  <g transform="matrix(.26458 0 0 .26458 -8.8719 524.15)" clip-path="url(#clipEmfPath3-021)">
   <text transform="translate(36.612 12.79)" fill="#000000" font-family="Calibri" font-size="13.25px" font-weight="400" letter-spacing="0px" word-spacing="0px" style="line-height:125%" xml:space="preserve"><tspan x="0" y="0" fill="#000000" font-family="Calibri" font-size="13.25px" font-weight="400"><tspan dx="0" dy="0">2</tspan><tspan dx="0" dy="0"/></tspan></text>
  </g>
  <g transform="matrix(.26458 0 0 .26458 -8.8719 524.15)" clip-path="url(#clipEmfPath4-340)">
   <text transform="translate(36.612 46.364)" fill="#000000" font-family="Calibri" font-size="13.25px" font-weight="400" letter-spacing="0px" word-spacing="0px" style="line-height:125%" xml:space="preserve"><tspan x="0" y="0" fill="#000000" font-family="Calibri" font-size="13.25px" font-weight="400"><tspan dx="0" dy="0">2</tspan><tspan dx="0" dy="0"/></tspan></text>
  </g>
  <g transform="matrix(.26458 0 0 .26458 -8.8719 524.15)" clip-path="url(#clipEmfPath5-07)">
   <text transform="translate(36.612 79.939)" fill="#000000" font-family="Calibri" font-size="13.25px" font-weight="400" letter-spacing="0px" word-spacing="0px" style="line-height:125%" xml:space="preserve"><tspan x="0" y="0" fill="#000000" font-family="Calibri" font-size="13.25px" font-weight="400"><tspan dx="0" dy="0">2</tspan><tspan dx="0" dy="0"/></tspan></text>
  </g>
  <g transform="matrix(.26458 0 0 .26458 -8.8719 524.15)" clip-path="url(#clipEmfPath6-85)">
   <text transform="translate(84.575 36.772)" fill="#000000" font-family="Calibri" font-size="13.25px" font-weight="400" letter-spacing="0px" word-spacing="0px" style="line-height:125%" xml:space="preserve"><tspan x="0" y="0" fill="#000000" font-family="Calibri" font-size="13.25px" font-weight="400"><tspan dx="0" dy="0">1</tspan><tspan dx="0" dy="0"/></tspan></text>
  </g>
  <g transform="matrix(.26458 0 0 .26458 -8.8719 524.15)" clip-path="url(#clipEmfPath7-604)">
   <text transform="translate(84.575 70.346)" fill="#000000" font-family="Calibri" font-size="13.25px" font-weight="400" letter-spacing="0px" word-spacing="0px" style="line-height:125%" xml:space="preserve"><tspan x="0" y="0" fill="#000000" font-family="Calibri" font-size="13.25px" font-weight="400"><tspan dx="0" dy="0">1</tspan><tspan dx="0" dy="0"/></tspan></text>
  </g>
  <g transform="matrix(.26458 0 0 .26458 -8.8719 524.15)" clip-path="url(#clipEmfPath8-51)">
   <text transform="translate(250.37 36.772)" fill="#000000" font-family="Calibri" font-size="13.25px" font-weight="400" letter-spacing="0px" word-spacing="0px" style="line-height:125%" xml:space="preserve"><tspan x="0" y="0" fill="#000000" font-family="Calibri" font-size="13.25px" font-weight="400"><tspan dx="0" dy="0">1</tspan><tspan dx="0" dy="0"/></tspan></text>
  </g>
  <g transform="matrix(.26458 0 0 .26458 -8.8719 524.15)" clip-path="url(#clipEmfPath9-04)">
   <text transform="translate(250.37 70.346)" fill="#000000" font-family="Calibri" font-size="13.25px" font-weight="400" letter-spacing="0px" word-spacing="0px" style="line-height:125%" xml:space="preserve"><tspan x="0" y="0" fill="#000000" font-family="Calibri" font-size="13.25px" font-weight="400"><tspan dx="0" dy="0">1</tspan><tspan dx="0" dy="0"/></tspan></text>
  </g>
  <g transform="matrix(.26458 0 0 .26458 -8.8719 524.15)" clip-path="url(#clipEmfPath10-68)">
   <text transform="translate(324.39 36.772)" fill="#000000" font-family="Calibri" font-size="13.25px" font-weight="400" letter-spacing="0px" word-spacing="0px" style="line-height:125%" xml:space="preserve"><tspan x="0" y="0" fill="#000000" font-family="Calibri" font-size="13.25px" font-weight="400"><tspan dx="0" dy="0">1</tspan><tspan dx="0" dy="0"/></tspan></text>
  </g>
  <g transform="matrix(.26458 0 0 .26458 -8.8719 524.15)" clip-path="url(#clipEmfPath11-15)">
   <text transform="translate(324.39 70.346)" fill="#000000" font-family="Calibri" font-size="13.25px" font-weight="400" letter-spacing="0px" word-spacing="0px" style="line-height:125%" xml:space="preserve"><tspan x="0" y="0" fill="#000000" font-family="Calibri" font-size="13.25px" font-weight="400"><tspan dx="0" dy="0">1</tspan><tspan dx="0" dy="0"/></tspan></text>
  </g>
  <g transform="matrix(.26458 0 0 .26458 -8.8719 524.15)" clip-path="url(#clipEmfPath12-38)">
   <text transform="translate(279.15 12.79)" fill="#000000" font-family="Calibri" font-size="13.25px" font-weight="400" letter-spacing="0px" word-spacing="0px" style="line-height:125%" xml:space="preserve"><tspan x="0" y="0" fill="#000000" font-family="Calibri" font-size="13.25px" font-weight="400"><tspan dx="0" dy="0">2</tspan><tspan dx="0" dy="0"/></tspan></text>
  </g>
  <g transform="matrix(.26458 0 0 .26458 -8.8719 524.15)" clip-path="url(#clipEmfPath13-07)">
   <text transform="translate(279.15 46.364)" fill="#000000" font-family="Calibri" font-size="13.25px" font-weight="400" letter-spacing="0px" word-spacing="0px" style="line-height:125%" xml:space="preserve"><tspan x="0" y="0" fill="#000000" font-family="Calibri" font-size="13.25px" font-weight="400"><tspan dx="0" dy="0">2</tspan><tspan dx="0" dy="0"/></tspan></text>
  </g>
  <g transform="matrix(.26458 0 0 .26458 -8.8719 524.15)" clip-path="url(#clipEmfPath14-38)">
   <text transform="translate(279.15 79.939)" fill="#000000" font-family="Calibri" font-size="13.25px" font-weight="400" letter-spacing="0px" word-spacing="0px" style="line-height:125%" xml:space="preserve"><tspan x="0" y="0" fill="#000000" font-family="Calibri" font-size="13.25px" font-weight="400"><tspan dx="0" dy="0">2</tspan><tspan dx="0" dy="0"/></tspan></text>
  </g>
  <g transform="matrix(.26458 0 0 .26458 -8.8719 524.15)" clip-path="url(#clipEmfPath15-70)">
   <text transform="translate(159.24 12.79)" fill="#000000" font-family="Calibri" font-size="13.25px" font-weight="400" letter-spacing="0px" word-spacing="0px" style="line-height:125%" xml:space="preserve"><tspan x="0" y="0" fill="#000000" font-family="Calibri" font-size="13.25px" font-weight="400"><tspan dx="0" dy="0">3</tspan><tspan dx="0" dy="0"/></tspan></text>
  </g>
  <g transform="matrix(.26458 0 0 .26458 -8.8719 524.15)" clip-path="url(#clipEmfPath16-00)">
   <text transform="translate(159.24 46.364)" fill="#000000" font-family="Calibri" font-size="13.25px" font-weight="400" letter-spacing="0px" word-spacing="0px" style="line-height:125%" xml:space="preserve"><tspan x="0" y="0" fill="#000000" font-family="Calibri" font-size="13.25px" font-weight="400"><tspan dx="0" dy="0">3</tspan><tspan dx="0" dy="0"/></tspan></text>
  </g>
  <g transform="matrix(.26458 0 0 .26458 -8.8719 524.15)" clip-path="url(#clipEmfPath17-22)">
   <text transform="translate(159.24 79.939)" fill="#000000" font-family="Calibri" font-size="13.25px" font-weight="400" letter-spacing="0px" word-spacing="0px" style="line-height:125%" xml:space="preserve"><tspan x="0" y="0" fill="#000000" font-family="Calibri" font-size="13.25px" font-weight="400"><tspan dx="0" dy="0">3</tspan><tspan dx="0" dy="0"/></tspan></text>
  </g>
 </g>
</svg>
