<?xml version="1.0" encoding="UTF-8"?>
<!-- Created with Inkscape (http://www.inkscape.org/) -->
<svg width="380.62" height="116.15" version="1.1" viewBox="0 0 380.62003 116.1522" xmlns="http://www.w3.org/2000/svg" xmlns:cc="http://creativecommons.org/ns#" xmlns:dc="http://purl.org/dc/elements/1.1/" xmlns:rdf="http://www.w3.org/1999/02/22-rdf-syntax-ns#">
 <defs>
  <clipPath id="clipEmfPath1-17">
   <path d="m5.7556 23.982h16.467v17.427h-16.467z"/>
  </clipPath>
  <clipPath id="clipEmfPath2-71">
   <path d="m5.7556 57.556h16.467v17.427h-16.467z"/>
  </clipPath>
  <clipPath id="clipEmfPath3-54">
   <path d="m34.534 0h16.467v17.427h-16.467z"/>
  </clipPath>
  <clipPath id="clipEmfPath4-97">
   <path d="m34.534 33.574h16.467v17.427h-16.467z"/>
  </clipPath>
  <clipPath id="clipEmfPath5-43">
   <path d="m34.534 67.148h16.467v17.427h-16.467z"/>
  </clipPath>
  <clipPath id="clipEmfPath6-10">
   <path d="m82.497 23.982h16.467v17.427h-16.467z"/>
  </clipPath>
  <clipPath id="clipEmfPath7-82">
   <path d="m82.497 57.556h16.467v17.427h-16.467z"/>
  </clipPath>
  <clipPath id="clipEmfPath8-42">
   <path d="m299.13 23.982h16.467v17.427h-16.467z"/>
  </clipPath>
  <clipPath id="clipEmfPath9-62">
   <path d="m299.13 57.556h16.467v17.427h-16.467z"/>
  </clipPath>
  <clipPath id="clipEmfPath10-14">
   <path d="m373.15 23.982h16.307v17.427h-16.307z"/>
  </clipPath>
  <clipPath id="clipEmfPath11-866">
   <path d="m373.15 57.556h16.307v17.427h-16.307z"/>
  </clipPath>
  <clipPath id="clipEmfPath12-48">
   <path d="m327.91 0h16.467v17.427h-16.467z"/>
  </clipPath>
  <clipPath id="clipEmfPath13-55">
   <path d="m327.91 33.574h16.467v17.427h-16.467z"/>
  </clipPath>
  <clipPath id="clipEmfPath14-93">
   <path d="m327.91 67.148h16.467v17.427h-16.467z"/>
  </clipPath>
  <clipPath id="clipEmfPath15-71">
   <path d="m181.3 0h16.307v17.427h-16.307z"/>
  </clipPath>
  <clipPath id="clipEmfPath16-24">
   <path d="m181.3 33.574h16.307v17.427h-16.307z"/>
  </clipPath>
  <clipPath id="clipEmfPath17-6">
   <path d="m181.3 67.148h16.307v17.427h-16.307z"/>
  </clipPath>
  <clipPath id="clipEmfPath18-3">
   <path d="m5.7556 91.13h16.467v17.427h-16.467z"/>
  </clipPath>
  <clipPath id="clipEmfPath19-9">
   <path d="m34.534 100.72h16.467v17.427h-16.467z"/>
  </clipPath>
  <clipPath id="clipEmfPath20-5">
   <path d="m82.497 91.13h16.467v17.427h-16.467z"/>
  </clipPath>
  <clipPath id="clipEmfPath21-7">
   <path d="m299.13 91.13h16.467v17.427h-16.467z"/>
  </clipPath>
  <clipPath id="clipEmfPath22-8">
   <path d="m373.15 91.13h16.307v17.427h-16.307z"/>
  </clipPath>
  <clipPath id="clipEmfPath23-6">
   <path d="m327.91 100.72h16.467v17.427h-16.467z"/>
  </clipPath>
  <clipPath id="clipEmfPath24-1">
   <path d="m181.3 100.72h16.307v17.427h-16.307z"/>
  </clipPath>
 </defs>
 <metadata>
  <rdf:RDF>
   <cc:Work rdf:about="">
    <dc:format>image/svg+xml</dc:format>
    <dc:type rdf:resource="http://purl.org/dc/dcmitype/StillImage"/>
    <dc:title/>
   </cc:Work>
  </rdf:RDF>
 </metadata>
 <g transform="matrix(3.7795 0 0 3.7795 15.878 -2119.5)">
  <text x="-4.277741" y="563.46667" fill="#000000" font-family="Calibri" font-size="3.8861px" font-weight="400" letter-spacing="0px" stroke-width=".26458" word-spacing="0px" style="line-height:125%" xml:space="preserve"><tspan x="0" y="0" stroke-width=".26458"><tspan dx="0" dy="0" fill="#000000" font-family="Calibri" font-size="3.8861px" font-weight="400" stroke-width=".26458"/></tspan></text>
  <g fill="none" stroke="#000" stroke-linejoin="round" stroke-width=".26438px">
   <path d="m94.389 581.24v8.8832"/>
   <path d="m-2.7999 581.24v8.8832"/>
   <path d="m74.082 581.24v8.8832"/>
   <path d="m17.505 581.24v8.8832"/>
   <path d="m94.389 572.36v8.8832"/>
   <path d="m74.085 563.48h20.304"/>
   <path d="m94.389 563.48v8.8832"/>
  </g>
  <path d="m94.394 562.21c-0.69268 0-1.2585 0.56577-1.2585 1.2584 0 0.69796 0.56578 1.2584 1.2585 1.2584 0.69796 0 1.2637-0.56049 1.2637-1.2584 0-0.69268-0.56577-1.2584-1.2637-1.2584z" fill="#fff" fill-rule="evenodd"/>
  <path d="m94.394 562.21c-0.69268 0-1.2585 0.56577-1.2585 1.2584 0 0.69796 0.56578 1.2584 1.2585 1.2584 0.69796 0 1.2637-0.56049 1.2637-1.2584 0-0.69268-0.56577-1.2584-1.2637-1.2584" fill="none" stroke="#000" stroke-linecap="round" stroke-linejoin="round" stroke-width=".26438px"/>
  <path d="m74.085 572.36h20.304" fill="none" stroke="#000" stroke-linejoin="round" stroke-width=".26438px"/>
  <path d="m94.378 571.11c-0.69268 0-1.2584 0.56577-1.2584 1.2584 0 0.69796 0.56577 1.2637 1.2584 1.2637 0.69797 0 1.2585-0.56578 1.2585-1.2637 0-0.69268-0.56048-1.2584-1.2585-1.2584z" fill="#fff" fill-rule="evenodd"/>
  <path d="m94.378 571.11c-0.69268 0-1.2584 0.56577-1.2584 1.2584 0 0.69796 0.56577 1.2637 1.2584 1.2637 0.69797 0 1.2585-0.56578 1.2585-1.2637 0-0.69268-0.56048-1.2584-1.2585-1.2584" fill="none" stroke="#000" stroke-linecap="round" stroke-linejoin="round" stroke-width=".26438px"/>
  <path d="m74.085 581.24h20.304" fill="none" stroke="#000" stroke-linejoin="round" stroke-width=".26438px"/>
  <path d="m94.394 579.97c-0.69268 0-1.2585 0.56577-1.2585 1.2584 0 0.69796 0.56578 1.2584 1.2585 1.2584 0.69796 0 1.2637-0.56049 1.2637-1.2584 0-0.69268-0.56577-1.2584-1.2637-1.2584z" fill="#fff" fill-rule="evenodd"/>
  <g fill="none" stroke="#000" stroke-linejoin="round" stroke-width=".26438px">
   <path d="m94.394 579.97c-0.69268 0-1.2585 0.56577-1.2585 1.2584 0 0.69796 0.56578 1.2584 1.2585 1.2584 0.69796 0 1.2637-0.56049 1.2637-1.2584 0-0.69268-0.56577-1.2584-1.2637-1.2584" stroke-linecap="round"/>
   <g>
    <path d="m-2.7999 572.36v8.8832"/>
    <path d="m74.082 572.36v8.8832"/>
    <path d="m17.505 572.36v8.8832"/>
    <path d="m-2.7999 563.47h20.304"/>
    <path d="m-2.7999 572.36h20.304"/>
    <path d="m-2.7999 563.47v8.8832"/>
   </g>
  </g>
  <path d="m-2.8078 571.09c-0.69532 0-1.2611 0.56577-1.2611 1.2611s0.56577 1.2585 1.2611 1.2585 1.2585-0.56314 1.2585-1.2585-0.56313-1.2611-1.2585-1.2611z" fill="#fff" fill-rule="evenodd"/>
  <path d="m-2.8078 571.09c-0.69532 0-1.2611 0.56577-1.2611 1.2611s0.56577 1.2585 1.2611 1.2585 1.2585-0.56314 1.2585-1.2585-0.56313-1.2611-1.2585-1.2611" fill="none" stroke="#000" stroke-linecap="round" stroke-linejoin="round" stroke-width=".26438px"/>
  <path d="m-2.8078 562.21c-0.69532 0-1.2611 0.56578-1.2611 1.2611s0.56577 1.2584 1.2611 1.2584 1.2585-0.56313 1.2585-1.2584-0.56313-1.2611-1.2585-1.2611z" fill="#fff" fill-rule="evenodd"/>
  <g fill="none" stroke="#000" stroke-linejoin="round" stroke-width=".26438px">
   <path d="m-2.8078 562.21c-0.69532 0-1.2611 0.56578-1.2611 1.2611s0.56577 1.2584 1.2611 1.2584 1.2585-0.56313 1.2585-1.2584-0.56313-1.2611-1.2585-1.2611" stroke-linecap="round"/>
   <path d="m17.505 563.47h57.106"/>
   <path d="m74.082 563.47v8.8832"/>
  </g>
  <path d="m74.09 562.21c-0.69532 0-1.2585 0.56578-1.2585 1.2611s0.56313 1.2584 1.2585 1.2584c0.69797 0 1.2611-0.56313 1.2611-1.2584s-0.56313-1.2611-1.2611-1.2611z" fill="#fff" fill-rule="evenodd"/>
  <path d="m74.09 562.21c-0.69532 0-1.2585 0.56578-1.2585 1.2611s0.56313 1.2584 1.2585 1.2584c0.69797 0 1.2611-0.56313 1.2611-1.2584s-0.56313-1.2611-1.2611-1.2611" fill="none" stroke="#000" stroke-linecap="round" stroke-linejoin="round" stroke-width=".26438px"/>
  <path d="m17.505 572.36h57.106" fill="none" stroke="#000" stroke-linejoin="round" stroke-width=".26438px"/>
  <path d="m74.074 571.11c-0.69532 0-1.2611 0.56313-1.2611 1.2584 0 0.69796 0.56577 1.2611 1.2611 1.2611 0.69532 0 1.2585-0.56313 1.2585-1.2611 0-0.69532-0.56313-1.2584-1.2585-1.2584z" fill="#fff" fill-rule="evenodd"/>
  <path d="m74.074 571.11c-0.69532 0-1.2611 0.56313-1.2611 1.2584 0 0.69796 0.56577 1.2611 1.2611 1.2611 0.69532 0 1.2585-0.56313 1.2585-1.2611 0-0.69532-0.56313-1.2584-1.2585-1.2584" fill="none" stroke="#000" stroke-linecap="round" stroke-linejoin="round" stroke-width=".26438px"/>
  <path d="m17.505 563.47v8.8832" fill="none" stroke="#000" stroke-linejoin="round" stroke-width=".26438px"/>
  <path d="m17.513 562.21c-0.69532 0-1.2585 0.56578-1.2585 1.2611s0.56313 1.2584 1.2585 1.2584c0.69796 0 1.2611-0.56313 1.2611-1.2584s-0.56313-1.2611-1.2611-1.2611z" fill="#fff" fill-rule="evenodd"/>
  <path d="m17.513 562.21c-0.69532 0-1.2585 0.56578-1.2585 1.2611s0.56313 1.2584 1.2585 1.2584c0.69796 0 1.2611-0.56313 1.2611-1.2584s-0.56313-1.2611-1.2611-1.2611" fill="none" stroke="#000" stroke-linecap="round" stroke-linejoin="round" stroke-width=".26438px"/>
  <path d="m17.497 571.11c-0.69532 0-1.2611 0.56313-1.2611 1.2584 0 0.69796 0.56578 1.2611 1.2611 1.2611 0.69532 0 1.2585-0.56313 1.2585-1.2611 0-0.69532-0.56313-1.2584-1.2585-1.2584z" fill="#fff" fill-rule="evenodd"/>
  <path d="m17.497 571.11c-0.69532 0-1.2611 0.56313-1.2611 1.2584 0 0.69796 0.56578 1.2611 1.2611 1.2611 0.69532 0 1.2585-0.56313 1.2585-1.2611 0-0.69532-0.56313-1.2584-1.2585-1.2584" fill="none" stroke="#000" stroke-linecap="round" stroke-linejoin="round" stroke-width=".26438px"/>
  <path d="m-2.7999 581.24h20.304" fill="none" stroke="#000" stroke-linejoin="round" stroke-width=".26438px"/>
  <path d="m-2.8078 579.97c-0.69532 0-1.2611 0.56578-1.2611 1.2611s0.56577 1.2584 1.2611 1.2584 1.2585-0.56313 1.2585-1.2584-0.56313-1.2611-1.2585-1.2611z" fill="#fff" fill-rule="evenodd"/>
  <path d="m-2.8078 579.97c-0.69532 0-1.2611 0.56578-1.2611 1.2611s0.56577 1.2584 1.2611 1.2584 1.2585-0.56313 1.2585-1.2584-0.56313-1.2611-1.2585-1.2611" fill="none" stroke="#000" stroke-linecap="round" stroke-linejoin="round" stroke-width=".26438px"/>
  <path d="m17.505 581.24h57.106" fill="none" stroke="#000" stroke-linejoin="round" stroke-width=".26438px"/>
  <path d="m74.09 579.97c-0.69532 0-1.2585 0.56578-1.2585 1.2611s0.56313 1.2584 1.2585 1.2584c0.69797 0 1.2611-0.56313 1.2611-1.2584s-0.56313-1.2611-1.2611-1.2611z" fill="#fff" fill-rule="evenodd"/>
  <path d="m74.09 579.97c-0.69532 0-1.2585 0.56578-1.2585 1.2611s0.56313 1.2584 1.2585 1.2584c0.69797 0 1.2611-0.56313 1.2611-1.2584s-0.56313-1.2611-1.2611-1.2611" fill="none" stroke="#000" stroke-linecap="round" stroke-linejoin="round" stroke-width=".26438px"/>
  <path d="m17.513 579.97c-0.69532 0-1.2585 0.56578-1.2585 1.2611s0.56313 1.2584 1.2585 1.2584c0.69796 0 1.2611-0.56313 1.2611-1.2584s-0.56313-1.2611-1.2611-1.2611z" fill="#fff" fill-rule="evenodd"/>
  <path d="m17.513 579.97c-0.69532 0-1.2585 0.56578-1.2585 1.2611s0.56313 1.2584 1.2585 1.2584c0.69796 0 1.2611-0.56313 1.2611-1.2584s-0.56313-1.2611-1.2611-1.2611" fill="none" stroke="#000" stroke-linecap="round" stroke-linejoin="round" stroke-width=".26438px"/>
  <g transform="matrix(.26458 0 0 .26458 -4.32 559.7)" clip-path="url(#clipEmfPath1-17)">
   <text transform="translate(7.6741 36.612)" fill="#000000" font-family="Calibri" font-size="13.25px" font-weight="400" letter-spacing="0px" word-spacing="0px" style="line-height:125%" xml:space="preserve"><tspan x="0" y="0" fill="#000000" font-family="Calibri" font-size="13.25px" font-weight="400"><tspan dx="0" dy="0">1</tspan><tspan dx="0" dy="0"/></tspan></text>
  </g>
  <g transform="matrix(.26458 0 0 .26458 -4.32 559.7)" clip-path="url(#clipEmfPath2-71)">
   <text transform="translate(7.6741 70.186)" fill="#000000" font-family="Calibri" font-size="13.25px" font-weight="400" letter-spacing="0px" word-spacing="0px" style="line-height:125%" xml:space="preserve"><tspan x="0" y="0" fill="#000000" font-family="Calibri" font-size="13.25px" font-weight="400"><tspan dx="0" dy="0">1</tspan><tspan dx="0" dy="0"/></tspan></text>
  </g>
  <g transform="matrix(.26458 0 0 .26458 -4.32 559.7)" clip-path="url(#clipEmfPath3-54)">
   <text transform="translate(36.452 12.63)" fill="#000000" font-family="Calibri" font-size="13.25px" font-weight="400" letter-spacing="0px" word-spacing="0px" style="line-height:125%" xml:space="preserve"><tspan x="0" y="0" fill="#000000" font-family="Calibri" font-size="13.25px" font-weight="400"><tspan dx="0" dy="0">2</tspan><tspan dx="0" dy="0"/></tspan></text>
  </g>
  <g transform="matrix(.26458 0 0 .26458 -4.32 559.7)" clip-path="url(#clipEmfPath4-97)">
   <text transform="translate(36.452 46.205)" fill="#000000" font-family="Calibri" font-size="13.25px" font-weight="400" letter-spacing="0px" word-spacing="0px" style="line-height:125%" xml:space="preserve"><tspan x="0" y="0" fill="#000000" font-family="Calibri" font-size="13.25px" font-weight="400"><tspan dx="0" dy="0">2</tspan><tspan dx="0" dy="0"/></tspan></text>
  </g>
  <g transform="matrix(.26458 0 0 .26458 -4.32 559.7)" clip-path="url(#clipEmfPath5-43)">
   <text transform="translate(36.452 79.779)" fill="#000000" font-family="Calibri" font-size="13.25px" font-weight="400" letter-spacing="0px" word-spacing="0px" style="line-height:125%" xml:space="preserve"><tspan x="0" y="0" fill="#000000" font-family="Calibri" font-size="13.25px" font-weight="400"><tspan dx="0" dy="0">2</tspan><tspan dx="0" dy="0"/></tspan></text>
  </g>
  <g transform="matrix(.26458 0 0 .26458 -4.32 559.7)" clip-path="url(#clipEmfPath6-10)">
   <text transform="translate(84.415 36.612)" fill="#000000" font-family="Calibri" font-size="13.25px" font-weight="400" letter-spacing="0px" word-spacing="0px" style="line-height:125%" xml:space="preserve"><tspan x="0" y="0" fill="#000000" font-family="Calibri" font-size="13.25px" font-weight="400"><tspan dx="0" dy="0">1</tspan><tspan dx="0" dy="0"/></tspan></text>
  </g>
  <g transform="matrix(.26458 0 0 .26458 -4.32 559.7)" clip-path="url(#clipEmfPath7-82)">
   <text transform="translate(84.415 70.186)" fill="#000000" font-family="Calibri" font-size="13.25px" font-weight="400" letter-spacing="0px" word-spacing="0px" style="line-height:125%" xml:space="preserve"><tspan x="0" y="0" fill="#000000" font-family="Calibri" font-size="13.25px" font-weight="400"><tspan dx="0" dy="0">1</tspan><tspan dx="0" dy="0"/></tspan></text>
  </g>
  <g transform="matrix(.26458 0 0 .26458 -4.32 559.7)" clip-path="url(#clipEmfPath8-42)">
   <text transform="translate(301.05 36.612)" fill="#000000" font-family="Calibri" font-size="13.25px" font-weight="400" letter-spacing="0px" word-spacing="0px" style="line-height:125%" xml:space="preserve"><tspan x="0" y="0" fill="#000000" font-family="Calibri" font-size="13.25px" font-weight="400"><tspan dx="0" dy="0">1</tspan><tspan dx="0" dy="0"/></tspan></text>
  </g>
  <g transform="matrix(.26458 0 0 .26458 -4.32 559.7)" clip-path="url(#clipEmfPath9-62)">
   <text transform="translate(301.05 70.186)" fill="#000000" font-family="Calibri" font-size="13.25px" font-weight="400" letter-spacing="0px" word-spacing="0px" style="line-height:125%" xml:space="preserve"><tspan x="0" y="0" fill="#000000" font-family="Calibri" font-size="13.25px" font-weight="400"><tspan dx="0" dy="0">1</tspan><tspan dx="0" dy="0"/></tspan></text>
  </g>
  <g transform="matrix(.26458 0 0 .26458 -4.32 559.7)" clip-path="url(#clipEmfPath10-14)">
   <text transform="translate(375.07 36.612)" fill="#000000" font-family="Calibri" font-size="13.25px" font-weight="400" letter-spacing="0px" word-spacing="0px" style="line-height:125%" xml:space="preserve"><tspan x="0" y="0" fill="#000000" font-family="Calibri" font-size="13.25px" font-weight="400"><tspan dx="0" dy="0">1</tspan><tspan dx="0" dy="0"/></tspan></text>
  </g>
  <g transform="matrix(.26458 0 0 .26458 -4.32 559.7)" clip-path="url(#clipEmfPath11-866)">
   <text transform="translate(375.07 70.186)" fill="#000000" font-family="Calibri" font-size="13.25px" font-weight="400" letter-spacing="0px" word-spacing="0px" style="line-height:125%" xml:space="preserve"><tspan x="0" y="0" fill="#000000" font-family="Calibri" font-size="13.25px" font-weight="400"><tspan dx="0" dy="0">1</tspan><tspan dx="0" dy="0"/></tspan></text>
  </g>
  <g transform="matrix(.26458 0 0 .26458 -4.32 559.7)" clip-path="url(#clipEmfPath12-48)">
   <text transform="translate(329.83 12.63)" fill="#000000" font-family="Calibri" font-size="13.25px" font-weight="400" letter-spacing="0px" word-spacing="0px" style="line-height:125%" xml:space="preserve"><tspan x="0" y="0" fill="#000000" font-family="Calibri" font-size="13.25px" font-weight="400"><tspan dx="0" dy="0">2</tspan><tspan dx="0" dy="0"/></tspan></text>
  </g>
  <g transform="matrix(.26458 0 0 .26458 -4.32 559.7)" clip-path="url(#clipEmfPath13-55)">
   <text transform="translate(329.83 46.205)" fill="#000000" font-family="Calibri" font-size="13.25px" font-weight="400" letter-spacing="0px" word-spacing="0px" style="line-height:125%" xml:space="preserve"><tspan x="0" y="0" fill="#000000" font-family="Calibri" font-size="13.25px" font-weight="400"><tspan dx="0" dy="0">2</tspan><tspan dx="0" dy="0"/></tspan></text>
  </g>
  <g transform="matrix(.26458 0 0 .26458 -4.32 559.7)" clip-path="url(#clipEmfPath14-93)">
   <text transform="translate(329.83 79.779)" fill="#000000" font-family="Calibri" font-size="13.25px" font-weight="400" letter-spacing="0px" word-spacing="0px" style="line-height:125%" xml:space="preserve"><tspan x="0" y="0" fill="#000000" font-family="Calibri" font-size="13.25px" font-weight="400"><tspan dx="0" dy="0">2</tspan><tspan dx="0" dy="0"/></tspan></text>
  </g>
  <g transform="matrix(.26458 0 0 .26458 -4.32 559.7)" clip-path="url(#clipEmfPath15-71)">
   <text transform="translate(183.22 12.63)" fill="#000000" font-family="Calibri" font-size="13.25px" font-weight="400" letter-spacing="0px" word-spacing="0px" style="line-height:125%" xml:space="preserve"><tspan x="0" y="0" fill="#000000" font-family="Calibri" font-size="13.25px" font-weight="400"><tspan dx="0" dy="0">4</tspan><tspan dx="0" dy="0"/></tspan></text>
  </g>
  <g transform="matrix(.26458 0 0 .26458 -4.32 559.7)" clip-path="url(#clipEmfPath16-24)">
   <text transform="translate(183.22 46.205)" fill="#000000" font-family="Calibri" font-size="13.25px" font-weight="400" letter-spacing="0px" word-spacing="0px" style="line-height:125%" xml:space="preserve"><tspan x="0" y="0" fill="#000000" font-family="Calibri" font-size="13.25px" font-weight="400"><tspan dx="0" dy="0">4</tspan><tspan dx="0" dy="0"/></tspan></text>
  </g>
  <g transform="matrix(.26458 0 0 .26458 -4.32 559.7)" clip-path="url(#clipEmfPath17-6)">
   <text transform="translate(183.22 79.779)" fill="#000000" font-family="Calibri" font-size="13.25px" font-weight="400" letter-spacing="0px" word-spacing="0px" style="line-height:125%" xml:space="preserve"><tspan x="0" y="0" fill="#000000" font-family="Calibri" font-size="13.25px" font-weight="400"><tspan dx="0" dy="0">4</tspan><tspan dx="0" dy="0"/></tspan></text>
  </g>
  <path d="m74.085 590.14h20.304" fill="none" stroke="#000" stroke-linejoin="round" stroke-width=".26438px"/>
  <path d="m94.394 588.87c-0.69268 0-1.2585 0.56577-1.2585 1.2584 0 0.69796 0.56578 1.2637 1.2585 1.2637 0.69796 0 1.2637-0.56578 1.2637-1.2637 0-0.69268-0.56577-1.2584-1.2637-1.2584z" fill="#fff" fill-rule="evenodd"/>
  <path d="m94.394 588.87c-0.69268 0-1.2585 0.56577-1.2585 1.2584 0 0.69796 0.56578 1.2637 1.2585 1.2637 0.69796 0 1.2637-0.56578 1.2637-1.2637 0-0.69268-0.56577-1.2584-1.2637-1.2584" fill="none" stroke="#000" stroke-linecap="round" stroke-linejoin="round" stroke-width=".26438px"/>
  <path d="m-2.7999 590.14h20.304" fill="none" stroke="#000" stroke-linejoin="round" stroke-width=".26438px"/>
  <path d="m-2.8078 588.87c-0.69532 0-1.2611 0.56313-1.2611 1.2584 0 0.69796 0.56577 1.2611 1.2611 1.2611s1.2585-0.56313 1.2585-1.2611c0-0.69532-0.56313-1.2584-1.2585-1.2584z" fill="#fff" fill-rule="evenodd"/>
  <path d="m-2.8078 588.87c-0.69532 0-1.2611 0.56313-1.2611 1.2584 0 0.69796 0.56577 1.2611 1.2611 1.2611s1.2585-0.56313 1.2585-1.2611c0-0.69532-0.56313-1.2584-1.2585-1.2584" fill="none" stroke="#000" stroke-linecap="round" stroke-linejoin="round" stroke-width=".26438px"/>
  <path d="m17.505 590.14 55.837-0.0185" fill="none" stroke="#000" stroke-linejoin="round" stroke-width=".26438px"/>
  <path d="m74.09 588.87c-0.69532 0-1.2585 0.56313-1.2585 1.2584 0 0.69796 0.56313 1.2611 1.2585 1.2611 0.69797 0 1.2611-0.56313 1.2611-1.2611 0-0.69532-0.56313-1.2584-1.2611-1.2584z" fill="#fff" fill-rule="evenodd"/>
  <path d="m74.09 588.87c-0.69532 0-1.2585 0.56313-1.2585 1.2584 0 0.69796 0.56313 1.2611 1.2585 1.2611 0.69797 0 1.2611-0.56313 1.2611-1.2611 0-0.69532-0.56313-1.2584-1.2611-1.2584" fill="none" stroke="#000" stroke-linecap="round" stroke-linejoin="round" stroke-width=".26438px"/>
  <path d="m17.513 588.87c-0.69532 0-1.2585 0.56313-1.2585 1.2584 0 0.69796 0.56313 1.2611 1.2585 1.2611 0.69796 0 1.2611-0.56313 1.2611-1.2611 0-0.69532-0.56313-1.2584-1.2611-1.2584z" fill="#fff" fill-rule="evenodd"/>
  <path d="m17.513 588.87c-0.69532 0-1.2585 0.56313-1.2585 1.2584 0 0.69796 0.56313 1.2611 1.2585 1.2611 0.69796 0 1.2611-0.56313 1.2611-1.2611 0-0.69532-0.56313-1.2584-1.2611-1.2584" fill="none" stroke="#000" stroke-linecap="round" stroke-linejoin="round" stroke-width=".26438px"/>
  <g transform="matrix(.26458 0 0 .26458 -4.32 559.7)" clip-path="url(#clipEmfPath18-3)">
   <text transform="translate(7.6741 103.76)" fill="#000000" font-family="Calibri" font-size="13.25px" font-weight="400" letter-spacing="0px" word-spacing="0px" style="line-height:125%" xml:space="preserve"><tspan x="0" y="0" fill="#000000" font-family="Calibri" font-size="13.25px" font-weight="400"><tspan dx="0" dy="0">1</tspan><tspan dx="0" dy="0"/></tspan></text>
  </g>
  <g transform="matrix(.26458 0 0 .26458 -4.32 559.7)" clip-path="url(#clipEmfPath19-9)">
   <text transform="translate(36.452 113.35)" fill="#000000" font-family="Calibri" font-size="13.25px" font-weight="400" letter-spacing="0px" word-spacing="0px" style="line-height:125%" xml:space="preserve"><tspan x="0" y="0" fill="#000000" font-family="Calibri" font-size="13.25px" font-weight="400"><tspan dx="0" dy="0">2</tspan><tspan dx="0" dy="0"/></tspan></text>
  </g>
  <g transform="matrix(.26458 0 0 .26458 -4.32 559.7)" clip-path="url(#clipEmfPath20-5)">
   <text transform="translate(84.415 103.76)" fill="#000000" font-family="Calibri" font-size="13.25px" font-weight="400" letter-spacing="0px" word-spacing="0px" style="line-height:125%" xml:space="preserve"><tspan x="0" y="0" fill="#000000" font-family="Calibri" font-size="13.25px" font-weight="400"><tspan dx="0" dy="0">1</tspan><tspan dx="0" dy="0"/></tspan></text>
  </g>
  <g transform="matrix(.26458 0 0 .26458 -4.32 559.7)" clip-path="url(#clipEmfPath21-7)">
   <text transform="translate(301.05 103.76)" fill="#000000" font-family="Calibri" font-size="13.25px" font-weight="400" letter-spacing="0px" word-spacing="0px" style="line-height:125%" xml:space="preserve"><tspan x="0" y="0" fill="#000000" font-family="Calibri" font-size="13.25px" font-weight="400"><tspan dx="0" dy="0">1</tspan><tspan dx="0" dy="0"/></tspan></text>
  </g>
  <g transform="matrix(.26458 0 0 .26458 -4.32 559.7)" clip-path="url(#clipEmfPath22-8)">
   <text transform="translate(375.07 103.76)" fill="#000000" font-family="Calibri" font-size="13.25px" font-weight="400" letter-spacing="0px" word-spacing="0px" style="line-height:125%" xml:space="preserve"><tspan x="0" y="0" fill="#000000" font-family="Calibri" font-size="13.25px" font-weight="400"><tspan dx="0" dy="0">1</tspan><tspan dx="0" dy="0"/></tspan></text>
  </g>
  <g transform="matrix(.26458 0 0 .26458 -4.32 559.7)" clip-path="url(#clipEmfPath23-6)">
   <text transform="translate(329.83 113.35)" fill="#000000" font-family="Calibri" font-size="13.25px" font-weight="400" letter-spacing="0px" word-spacing="0px" style="line-height:125%" xml:space="preserve"><tspan x="0" y="0" fill="#000000" font-family="Calibri" font-size="13.25px" font-weight="400"><tspan dx="0" dy="0">2</tspan><tspan dx="0" dy="0"/></tspan></text>
  </g>
  <g transform="matrix(.26458 0 0 .26458 -4.32 559.7)" clip-path="url(#clipEmfPath24-1)">
   <text transform="translate(183.22 113.35)" fill="#000000" font-family="Calibri" font-size="13.25px" font-weight="400" letter-spacing="0px" word-spacing="0px" style="line-height:125%" xml:space="preserve"><tspan x="0" y="0" fill="#000000" font-family="Calibri" font-size="13.25px" font-weight="400"><tspan dx="0" dy="0">4</tspan><tspan dx="0" dy="0"/></tspan></text>
  </g>
 </g>
</svg>
