<?xml version="1.0" encoding="UTF-8"?>
<!-- Created with Inkscape (http://www.inkscape.org/) -->
<svg width="304.34" height="179.5" version="1.1" viewBox="0 0 304.33885 179.50384" xmlns="http://www.w3.org/2000/svg" xmlns:cc="http://creativecommons.org/ns#" xmlns:dc="http://purl.org/dc/elements/1.1/" xmlns:rdf="http://www.w3.org/1999/02/22-rdf-syntax-ns#">
 <defs>
  <clipPath id="clipEmfPath1-42">
   <path d="m162.65 0h135.99v25.331h-135.99z"/>
  </clipPath>
  <clipPath id="clipEmfPath2-28">
   <path d="m0 57.328h29.331v27.998h-29.331z"/>
  </clipPath>
  <clipPath id="clipEmfPath3-87">
   <path d="m38.663 166.65h79.993v25.331h-79.993z"/>
  </clipPath>
  <clipPath id="clipEmfPath4-107">
   <path d="m297.31 49.329h139.99v27.998h-139.99z"/>
  </clipPath>
  <clipPath id="clipEmfPath5-76">
   <path d="m250.64 166.65h118.66v30.664h-118.66z"/>
  </clipPath>
  <clipPath id="clipEmfPath6-96">
   <path d="m151.99 67.994h21.331v21.331h-21.331z"/>
  </clipPath>
  <clipPath id="clipEmfPath7-96">
   <path d="m213.31 37.33h21.331v23.998h-21.331z"/>
  </clipPath>
  <clipPath id="clipEmfPath8-766">
   <path d="m253.31 111.99h38.663v21.331h-38.663z"/>
  </clipPath>
  <clipPath id="clipEmfPath9-97">
   <path d="m119.99 147.99h27.998v18.665h-27.998z"/>
  </clipPath>
  <clipPath id="clipEmfPath10-89">
   <path d="m29.331 109.32h22.665v18.665h-22.665z"/>
  </clipPath>
  <clipPath id="clipEmfPath11-79">
   <path d="m73.327 42.663h22.665v21.331h-22.665z"/>
  </clipPath>
  <clipPath id="clipEmfPath12-60">
   <path d="m63.994 119.99h26.664v21.331h-26.664z"/>
  </clipPath>
  <clipPath id="clipEmfPath13-804">
   <path d="m209.32 118.66h25.331v21.331h-25.331z"/>
  </clipPath>
  <clipPath id="clipEmfPath14-61">
   <path d="m109.32 102.66h25.331v25.331h-25.331z"/>
  </clipPath>
 </defs>
 <metadata>
  <rdf:RDF>
   <cc:Work rdf:about="">
    <dc:format>image/svg+xml</dc:format>
    <dc:type rdf:resource="http://purl.org/dc/dcmitype/StillImage"/>
    <dc:title/>
   </cc:Work>
  </rdf:RDF>
 </metadata>
 <g transform="matrix(3.7795 0 0 3.7795 -324.33 -1764.5)">
  <text x="85.367279" y="470.22452" fill="#000000" font-family="Calibri" font-size="5.2917px" font-weight="400" letter-spacing="0px" stroke-width=".26458" word-spacing="0px" style="line-height:125%" xml:space="preserve"><tspan x="0" y="0" stroke-width=".26458"><tspan dx="0" dy="0" fill="#000000" font-family="Calibri" font-size="5.2917px" font-weight="400" stroke-width=".26458"/></tspan></text>
  <path d="m163.15 485.75h-71.96" fill="none" stroke="#000" stroke-linejoin="round" stroke-width=".35275px"/>
  <path d="m126.97 473.07 36.179 13.008" fill="none" stroke="#000" stroke-linejoin="round" stroke-width=".35275px"/>
  <g transform="matrix(.26458 0 0 .26458 85.367 465.29)" clip-path="url(#clipEmfPath1-42)">
   <text transform="translate(162.65 18.665)" fill="#000000" font-family="Calibri" font-size="20px" font-weight="400" letter-spacing="0px" word-spacing="0px" style="line-height:125%" xml:space="preserve"><tspan x="0" y="0" fill="#000000" font-family="Calibri" font-size="20px" font-weight="400"><tspan dx="0" dy="0">A</tspan><tspan dx="0" dy="0"/></tspan></text>
  </g>
  <g transform="matrix(.26458 0 0 .26458 85.367 465.29)" clip-path="url(#clipEmfPath2-28)">
   <text transform="translate(0 75.993)" fill="#000000" font-family="Calibri" font-size="20px" font-weight="400" letter-spacing="0px" word-spacing="0px" style="line-height:125%" xml:space="preserve"><tspan x="0" y="0" fill="#000000" font-family="Calibri" font-size="20px" font-weight="400"><tspan dx="0" dy="0">B</tspan><tspan dx="0" dy="0"/></tspan></text>
  </g>
  <g transform="matrix(.26458 0 0 .26458 85.367 465.29)" clip-path="url(#clipEmfPath3-87)">
   <text transform="translate(38.663 185.32)" fill="#000000" font-family="Calibri" font-size="20px" font-weight="400" letter-spacing="0px" word-spacing="0px" style="line-height:125%" xml:space="preserve"><tspan x="0" y="0" fill="#000000" font-family="Calibri" font-size="20px" font-weight="400"><tspan dx="0" dy="0">C</tspan><tspan dx="0" dy="0"/></tspan></text>
  </g>
  <g transform="matrix(.26458 0 0 .26458 85.367 465.29)" clip-path="url(#clipEmfPath4-107)">
   <text transform="translate(297.31 67.994)" fill="#000000" font-family="Calibri" font-size="20px" font-weight="400" letter-spacing="0px" word-spacing="0px" style="line-height:125%" xml:space="preserve"><tspan x="0" y="0" fill="#000000" font-family="Calibri" font-size="20px" font-weight="400"><tspan dx="0" dy="0">E</tspan><tspan dx="0" dy="0"/></tspan></text>
  </g>
  <g transform="matrix(.26458 0 0 .26458 85.367 465.29)" clip-path="url(#clipEmfPath5-76)">
   <text transform="translate(250.64 185.32)" fill="#000000" font-family="Calibri" font-size="20px" font-weight="400" letter-spacing="0px" word-spacing="0px" style="line-height:125%" xml:space="preserve"><tspan x="0" y="0" fill="#000000" font-family="Calibri" font-size="20px" font-weight="400"><tspan dx="0" dy="0">D</tspan><tspan dx="0" dy="0"/></tspan></text>
  </g>
  <g fill="none" stroke="#000" stroke-linejoin="round" stroke-width=".35275px">
   <path d="m126.97 473.07-26.61 33.82"/>
   <path d="m150.67 506.67h-50.796"/>
   <path d="m162.44 487.18-11.773 19.489"/>
   <path d="m100.36 506.58-7.7604-20.812"/>
   <path d="m126.97 473.07 23.7 33.555"/>
   <path d="m126.97 473.07-34.724 11.949"/>
   <path d="m91.893 485.77 58.777 20.9"/>
  </g>
  <path d="m126.95 471.37c-0.92596 0-1.6756 0.74959-1.6756 1.6756 0 0.948 0.74959 1.6976 1.6756 1.6976s1.6976-0.74959 1.6976-1.6976c0-0.92596-0.77164-1.6756-1.6976-1.6756z" fill="#fff" fill-rule="evenodd"/>
  <path d="m126.95 471.37c-0.92596 0-1.6756 0.74959-1.6756 1.6756 0 0.948 0.74959 1.6976 1.6756 1.6976s1.6976-0.74959 1.6976-1.6976c0-0.92596-0.77164-1.6756-1.6976-1.6756" fill="none" stroke="#000" stroke-linecap="round" stroke-linejoin="round" stroke-width=".35275px"/>
  <path d="m100.65 505.17c-0.92596 0-1.6976 0.74959-1.6976 1.6756 0 0.92597 0.77164 1.6976 1.6976 1.6976 0.92597 0 1.6756-0.77163 1.6756-1.6976 0-0.92596-0.74958-1.6756-1.6756-1.6756z" fill="#fff" fill-rule="evenodd"/>
  <path d="m100.65 505.17c-0.92596 0-1.6976 0.74959-1.6976 1.6756 0 0.92597 0.77164 1.6976 1.6976 1.6976 0.92597 0 1.6756-0.77163 1.6756-1.6976 0-0.92596-0.74958-1.6756-1.6756-1.6756" fill="none" stroke="#000" stroke-linecap="round" stroke-linejoin="round" stroke-width=".35275px"/>
  <path d="m150.67 504.97c-0.94801 0-1.6976 0.77164-1.6976 1.6976s0.74958 1.6756 1.6976 1.6756c0.92596 0 1.6756-0.74959 1.6756-1.6756s-0.74959-1.6976-1.6756-1.6976z" fill="#fff" fill-rule="evenodd"/>
  <path d="m150.67 504.97c-0.94801 0-1.6976 0.77164-1.6976 1.6976s0.74958 1.6756 1.6976 1.6756c0.92596 0 1.6756-0.74959 1.6756-1.6756s-0.74959-1.6976-1.6756-1.6976" fill="none" stroke="#000" stroke-linecap="round" stroke-linejoin="round" stroke-width=".35275px"/>
  <path d="m92.18 484.36c-0.92596 0-1.6976 0.74958-1.6976 1.6756 0 0.92596 0.77164 1.6976 1.6976 1.6976 0.92596 0 1.6756-0.77163 1.6756-1.6976 0-0.92597-0.74959-1.6756-1.6756-1.6756z" fill="#fff" fill-rule="evenodd"/>
  <path d="m92.18 484.36c-0.92596 0-1.6976 0.74958-1.6976 1.6756 0 0.92596 0.77164 1.6976 1.6976 1.6976 0.92596 0 1.6756-0.77163 1.6756-1.6976 0-0.92597-0.74959-1.6756-1.6756-1.6756" fill="none" stroke="#000" stroke-linecap="round" stroke-linejoin="round" stroke-width=".35275px"/>
  <path d="m163.08 484.36c-0.92596 0-1.6976 0.74958-1.6976 1.6756 0 0.92596 0.77164 1.6976 1.6976 1.6976s1.6756-0.77163 1.6756-1.6976c0-0.92597-0.74959-1.6756-1.6756-1.6756z" fill="#fff" fill-rule="evenodd"/>
  <path d="m163.08 484.36c-0.92596 0-1.6976 0.74958-1.6976 1.6756 0 0.92596 0.77164 1.6976 1.6976 1.6976s1.6756-0.77163 1.6756-1.6976c0-0.92597-0.74959-1.6756-1.6756-1.6756" fill="none" stroke="#000" stroke-linecap="round" stroke-linejoin="round" stroke-width=".35275px"/>
  <path d="m125.27 482.97v5.8865h5.7762v-5.8865z" fill="#fff" fill-rule="evenodd"/>
  <g transform="matrix(.26458 0 0 .26458 85.367 465.29)" clip-path="url(#clipEmfPath6-96)">
   <text transform="translate(154.65 85.326)" fill="#000000" font-family="Calibri" font-size="17.312px" font-weight="400" letter-spacing="0px" word-spacing="0px" style="line-height:125%" xml:space="preserve"><tspan x="0" y="0" fill="#000000" font-family="Calibri" font-size="17.312px" font-weight="400"><tspan dx="0" dy="0">26</tspan><tspan dx="0" dy="0"/></tspan></text>
  </g>
  <path d="m141.5 475.1v6.151h5.7762v-6.151z" fill="#fff" fill-rule="evenodd"/>
  <g transform="matrix(.26458 0 0 .26458 85.367 465.29)" clip-path="url(#clipEmfPath7-96)">
   <text transform="translate(215.98 54.662)" fill="#000000" font-family="Calibri" font-size="17.312px" font-weight="400" letter-spacing="0px" word-spacing="0px" style="line-height:125%" xml:space="preserve"><tspan x="0" y="0" fill="#000000" font-family="Calibri" font-size="17.312px" font-weight="400"><tspan dx="0" dy="0">30</tspan><tspan dx="0" dy="0"/></tspan></text>
  </g>
  <path d="m152.3 494.83v5.644h10.23v-5.644z" fill="#fff" fill-rule="evenodd"/>
  <g transform="matrix(.26458 0 0 .26458 85.367 465.29)" clip-path="url(#clipEmfPath8-766)">
   <text transform="translate(255.98 129.32)" fill="#000000" font-family="Calibri" font-size="17.312px" font-weight="400" letter-spacing="0px" word-spacing="0px" style="line-height:125%" xml:space="preserve"><tspan x="0" y="0" fill="#000000" font-family="Calibri" font-size="17.312px" font-weight="400"><tspan dx="0" dy="0">28</tspan><tspan dx="0" dy="0"/></tspan></text>
  </g>
  <path d="m116.94 504.4v4.7621h7.3416v-4.7621z" fill="#fff" fill-rule="evenodd"/>
  <g transform="matrix(.26458 0 0 .26458 85.367 465.29)" clip-path="url(#clipEmfPath9-97)">
   <text transform="translate(122.66 165.32)" fill="#000000" font-family="Calibri" font-size="17.312px" font-weight="400" letter-spacing="0px" word-spacing="0px" style="line-height:125%" xml:space="preserve"><tspan x="0" y="0" fill="#000000" font-family="Calibri" font-size="17.312px" font-weight="400"><tspan dx="0" dy="0">26</tspan><tspan dx="0" dy="0"/></tspan></text>
  </g>
  <path d="m92.819 494.17v4.8503h6.0628v-4.8503z" fill="#fff" fill-rule="evenodd"/>
  <g transform="matrix(.26458 0 0 .26458 85.367 465.29)" clip-path="url(#clipEmfPath10-89)">
   <text transform="translate(31.997 126.66)" fill="#000000" font-family="Calibri" font-size="17.312px" font-weight="400" letter-spacing="0px" word-spacing="0px" style="line-height:125%" xml:space="preserve"><tspan x="0" y="0" fill="#000000" font-family="Calibri" font-size="17.312px" font-weight="400"><tspan dx="0" dy="0">44</tspan><tspan dx="0" dy="0"/></tspan></text>
  </g>
  <path d="m104.59 476.51v5.5337h6.151v-5.5337z" fill="#fff" fill-rule="evenodd"/>
  <g transform="matrix(.26458 0 0 .26458 85.367 465.29)" clip-path="url(#clipEmfPath11-79)">
   <text transform="translate(75.993 59.995)" fill="#000000" font-family="Calibri" font-size="17.312px" font-weight="400" letter-spacing="0px" word-spacing="0px" style="line-height:125%" xml:space="preserve"><tspan x="0" y="0" fill="#000000" font-family="Calibri" font-size="17.312px" font-weight="400"><tspan dx="0" dy="0">22</tspan><tspan dx="0" dy="0"/></tspan></text>
  </g>
  <path d="m102.12 496.99v5.4014h6.9227v-5.4014z" fill="#fff" fill-rule="evenodd"/>
  <g transform="matrix(.26458 0 0 .26458 85.367 465.29)" clip-path="url(#clipEmfPath12-60)">
   <text transform="translate(66.661 137.32)" fill="#000000" font-family="Calibri" font-size="17.312px" font-weight="400" letter-spacing="0px" word-spacing="0px" style="line-height:125%" xml:space="preserve"><tspan x="0" y="0" fill="#000000" font-family="Calibri" font-size="17.312px" font-weight="400"><tspan dx="0" dy="0">24</tspan><tspan dx="0" dy="0"/></tspan></text>
  </g>
  <path d="m140.51 496.5v5.688h6.8565v-5.688z" fill="#fff" fill-rule="evenodd"/>
  <g transform="matrix(.26458 0 0 .26458 85.367 465.29)" clip-path="url(#clipEmfPath13-804)">
   <text transform="translate(211.98 135.99)" fill="#000000" font-family="Calibri" font-size="17.312px" font-weight="400" letter-spacing="0px" word-spacing="0px" style="line-height:125%" xml:space="preserve"><tspan x="0" y="0" fill="#000000" font-family="Calibri" font-size="17.312px" font-weight="400"><tspan dx="0" dy="0">60</tspan><tspan dx="0" dy="0"/></tspan></text>
  </g>
  <path d="m114.12 492.4v6.614h6.7904v-6.614z" fill="#fff" fill-rule="evenodd"/>
  <g transform="matrix(.26458 0 0 .26458 85.367 465.29)" clip-path="url(#clipEmfPath14-61)">
   <text transform="translate(111.99 119.99)" fill="#000000" font-family="Calibri" font-size="17.312px" font-weight="400" letter-spacing="0px" word-spacing="0px" style="line-height:125%" xml:space="preserve"><tspan x="0" y="0" fill="#000000" font-family="Calibri" font-size="17.312px" font-weight="400"><tspan dx="0" dy="0">46</tspan><tspan dx="0" dy="0"/></tspan></text>
  </g>
 </g>
</svg>
