<?xml version="1.0" encoding="UTF-8"?>
<!-- Created with Inkscape (http://www.inkscape.org/) -->
<svg width="312.3" height="182.01" version="1.1" viewBox="0 0 312.30375 182.01402" xmlns="http://www.w3.org/2000/svg" xmlns:cc="http://creativecommons.org/ns#" xmlns:dc="http://purl.org/dc/elements/1.1/" xmlns:rdf="http://www.w3.org/1999/02/22-rdf-syntax-ns#">
 <defs>
  <clipPath id="clipEmfPath1-420">
   <path d="m163.99 1.3332h22.665v25.331h-22.665z"/>
  </clipPath>
  <clipPath id="clipEmfPath2-136">
   <path d="m0 57.328h17.332v27.998h-17.332z"/>
  </clipPath>
  <clipPath id="clipEmfPath3-223">
   <path d="m39.997 170.65h18.665v25.331h-18.665z"/>
  </clipPath>
  <clipPath id="clipEmfPath4-694">
   <path d="m303.97 49.329h18.665v25.331h-18.665z"/>
  </clipPath>
  <clipPath id="clipEmfPath5-86">
   <path d="m226.65 166.65h18.665v23.998h-18.665z"/>
  </clipPath>
  <clipPath id="clipEmfPath6-16">
   <path d="m233.31 87.992h15.999v21.331h-15.999z"/>
  </clipPath>
  <clipPath id="clipEmfPath7-209">
   <path d="m150.65 66.661h23.998v21.331h-23.998z"/>
  </clipPath>
  <clipPath id="clipEmfPath8-24">
   <path d="m213.31 42.663h22.665v21.331h-22.665z"/>
  </clipPath>
  <clipPath id="clipEmfPath9-71">
   <path d="m126.66 149.32h22.665v21.331h-22.665z"/>
  </clipPath>
  <clipPath id="clipEmfPath10-80">
   <path d="m27.998 105.32h29.331v21.331h-29.331z"/>
  </clipPath>
  <clipPath id="clipEmfPath11-32">
   <path d="m79.993 43.996h15.999v21.331h-15.999z"/>
  </clipPath>
  <clipPath id="clipEmfPath12-590">
   <path d="m75.993 122.66h19.998v19.998h-19.998z"/>
  </clipPath>
  <clipPath id="clipEmfPath13-72">
   <path d="m186.65 85.326h19.998v19.998h-19.998z"/>
  </clipPath>
  <clipPath id="clipEmfPath14-90">
   <path d="m118.66 103.99h30.664v19.998h-30.664z"/>
  </clipPath>
 </defs>
 <metadata>
  <rdf:RDF>
   <cc:Work rdf:about="">
    <dc:format>image/svg+xml</dc:format>
    <dc:type rdf:resource="http://purl.org/dc/dcmitype/StillImage"/>
    <dc:title/>
   </cc:Work>
  </rdf:RDF>
 </metadata>
 <g transform="matrix(3.7795 0 0 3.7795 126.37 -2358.9)">
  <text x="-33.880032" y="627.13116" fill="#000000" font-family="Calibri" font-size="5.2917px" font-weight="400" letter-spacing="0px" stroke-width=".26458" word-spacing="0px" style="line-height:125%" xml:space="preserve"><tspan x="0" y="0" stroke-width=".26458"><tspan dx="0" dy="0" fill="#000000" font-family="Calibri" font-size="5.2917px" font-weight="400" stroke-width=".26458"/></tspan></text>
  <path d="m45.532 642.92h-71.96" fill="none" stroke="#000" stroke-linejoin="round" stroke-width=".35275px"/>
  <path d="m13.432 630.95 32.1 12.346" fill="none" stroke="#000" stroke-linejoin="round" stroke-width=".35275px"/>
  <g transform="matrix(.26458 0 0 .26458 -33.88 622.19)" clip-path="url(#clipEmfPath1-420)">
   <text transform="translate(163.99 19.998)" fill="#000000" font-family="Calibri" font-size="20px" font-weight="400" letter-spacing="0px" word-spacing="0px" style="line-height:125%" xml:space="preserve"><tspan x="0" y="0" fill="#000000" font-family="Calibri" font-size="20px" font-weight="400"><tspan dx="0" dy="0">A</tspan><tspan dx="0" dy="0"/></tspan></text>
  </g>
  <g transform="matrix(.26458 0 0 .26458 -33.88 622.19)" clip-path="url(#clipEmfPath2-136)">
   <text transform="translate(0 75.993)" fill="#000000" font-family="Calibri" font-size="20px" font-weight="400" letter-spacing="0px" word-spacing="0px" style="line-height:125%" xml:space="preserve"><tspan x="0" y="0" fill="#000000" font-family="Calibri" font-size="20px" font-weight="400"><tspan dx="0" dy="0">E</tspan><tspan dx="0" dy="0"/></tspan></text>
  </g>
  <g transform="matrix(.26458 0 0 .26458 -33.88 622.19)" clip-path="url(#clipEmfPath3-223)">
   <text transform="translate(39.997 189.32)" fill="#000000" font-family="Calibri" font-size="20px" font-weight="400" letter-spacing="0px" word-spacing="0px" style="line-height:125%" xml:space="preserve"><tspan x="0" y="0" fill="#000000" font-family="Calibri" font-size="20px" font-weight="400"><tspan dx="0" dy="0">D</tspan><tspan dx="0" dy="0"/></tspan></text>
  </g>
  <g transform="matrix(.26458 0 0 .26458 -33.88 622.19)" clip-path="url(#clipEmfPath4-694)">
   <text transform="translate(303.97 67.994)" fill="#000000" font-family="Calibri" font-size="20px" font-weight="400" letter-spacing="0px" word-spacing="0px" style="line-height:125%" xml:space="preserve"><tspan x="0" y="0" fill="#000000" font-family="Calibri" font-size="20px" font-weight="400"><tspan dx="0" dy="0">B</tspan><tspan dx="0" dy="0"/></tspan></text>
  </g>
  <g transform="matrix(.26458 0 0 .26458 -33.88 622.19)" clip-path="url(#clipEmfPath5-86)">
   <text transform="translate(226.65 185.32)" fill="#000000" font-family="Calibri" font-size="20px" font-weight="400" letter-spacing="0px" word-spacing="0px" style="line-height:125%" xml:space="preserve"><tspan x="0" y="0" fill="#000000" font-family="Calibri" font-size="20px" font-weight="400"><tspan dx="0" dy="0">C</tspan><tspan dx="0" dy="0"/></tspan></text>
  </g>
  <g fill="none" stroke="#000" stroke-linejoin="round" stroke-width=".35275px">
   <path d="m45.179 643.27-63.495 21.165"/>
   <path d="m13.079 630.24-30.336 33.864"/>
   <path d="m24.367 663.75h-41.977"/>
   <path d="m-17.257 663.75-7.7604-20.812"/>
   <path d="m13.079 630.59 11.641 35.627"/>
   <path d="m12.374 630.95-37.744 11.288"/>
   <path d="m-25.723 642.94 50.796 21.165"/>
  </g>
  <path d="m12.991 628.67c-0.92596 0-1.6756 0.74959-1.6756 1.6976 0 0.92596 0.74959 1.6756 1.6756 1.6756 0.92596 0 1.6976-0.74959 1.6976-1.6756 0-0.94801-0.77164-1.6976-1.6976-1.6976z" fill="#fff" fill-rule="evenodd"/>
  <path d="m12.991 628.67c-0.92596 0-1.6756 0.74959-1.6756 1.6976 0 0.92596 0.74959 1.6756 1.6756 1.6756 0.92596 0 1.6976-0.74959 1.6976-1.6756 0-0.94801-0.77164-1.6976-1.6976-1.6976" fill="none" stroke="#000" stroke-linecap="round" stroke-linejoin="round" stroke-width=".35275px"/>
  <path d="m-16.992 662.34c-0.92596 0-1.6756 0.74959-1.6756 1.6756s0.74959 1.6756 1.6756 1.6756c0.92596 0 1.6976-0.74959 1.6976-1.6756s-0.77164-1.6756-1.6976-1.6756z" fill="#fff" fill-rule="evenodd"/>
  <path d="m-16.992 662.34c-0.92596 0-1.6756 0.74959-1.6756 1.6756s0.74959 1.6756 1.6756 1.6756c0.92596 0 1.6976-0.74959 1.6976-1.6756s-0.77164-1.6756-1.6976-1.6756" fill="none" stroke="#000" stroke-linecap="round" stroke-linejoin="round" stroke-width=".35275px"/>
  <path d="m24.632 662.71c-0.92596 0-1.6756 0.74959-1.6756 1.6756s0.74959 1.6756 1.6756 1.6756c0.92596 0 1.6976-0.74959 1.6976-1.6756s-0.77163-1.6756-1.6976-1.6756z" fill="#fff" fill-rule="evenodd"/>
  <path d="m24.632 662.71c-0.92596 0-1.6756 0.74959-1.6756 1.6756s0.74959 1.6756 1.6756 1.6756c0.92596 0 1.6976-0.74959 1.6976-1.6756s-0.77163-1.6756-1.6976-1.6756" fill="none" stroke="#000" stroke-linecap="round" stroke-linejoin="round" stroke-width=".35275px"/>
  <path d="m-25.458 641.53c-0.92596 0-1.6755 0.74959-1.6755 1.6756s0.74959 1.6756 1.6755 1.6756c0.92596 0 1.6976-0.74959 1.6976-1.6756s-0.77164-1.6756-1.6976-1.6756z" fill="#fff" fill-rule="evenodd"/>
  <path d="m-25.458 641.53c-0.92596 0-1.6755 0.74959-1.6755 1.6756s0.74959 1.6756 1.6755 1.6756c0.92596 0 1.6976-0.74959 1.6976-1.6756s-0.77164-1.6756-1.6976-1.6756" fill="none" stroke="#000" stroke-linecap="round" stroke-linejoin="round" stroke-width=".35275px"/>
  <path d="m45.444 641.53c-0.92596 0-1.6756 0.74959-1.6756 1.6756s0.74959 1.6756 1.6756 1.6756c0.92596 0 1.6976-0.74959 1.6976-1.6756s-0.77163-1.6756-1.6976-1.6756z" fill="#fff" fill-rule="evenodd"/>
  <path d="m45.444 641.53c-0.92596 0-1.6756 0.74959-1.6756 1.6756s0.74959 1.6756 1.6756 1.6756c0.92596 0 1.6976-0.74959 1.6976-1.6756s-0.77163-1.6756-1.6976-1.6756" fill="none" stroke="#000" stroke-linecap="round" stroke-linejoin="round" stroke-width=".35275px"/>
  <path d="m27.718 645.34v5.7762h4.255v-5.7762z" fill="#fff" fill-rule="evenodd"/>
  <g transform="matrix(.26458 0 0 .26458 -33.88 622.19)" clip-path="url(#clipEmfPath6-16)">
   <text transform="translate(235.98 105.32)" fill="#000000" font-family="Calibri" font-size="17.312px" font-weight="400" letter-spacing="0px" word-spacing="0px" style="line-height:125%" xml:space="preserve"><tspan x="0" y="0" fill="#000000" font-family="Calibri" font-size="17.312px" font-weight="400"><tspan dx="0" dy="0">4</tspan><tspan dx="0" dy="0"/></tspan></text>
  </g>
  <path d="m5.782 639.81v5.644h6.4817v-5.644z" fill="#fff" fill-rule="evenodd"/>
  <g transform="matrix(.26458 0 0 .26458 -33.88 622.19)" clip-path="url(#clipEmfPath7-209)">
   <text transform="translate(153.32 83.993)" fill="#000000" font-family="Calibri" font-size="17.312px" font-weight="400" letter-spacing="0px" word-spacing="0px" style="line-height:125%" xml:space="preserve"><tspan x="0" y="0" fill="#000000" font-family="Calibri" font-size="17.312px" font-weight="400"><tspan dx="0" dy="0">6</tspan><tspan dx="0" dy="0"/></tspan></text>
  </g>
  <path d="m22.361 633.22v5.644h5.9967v-5.644z" fill="#fff" fill-rule="evenodd"/>
  <g transform="matrix(.26458 0 0 .26458 -33.88 622.19)" clip-path="url(#clipEmfPath8-24)">
   <text transform="translate(215.98 59.995)" fill="#000000" font-family="Calibri" font-size="17.312px" font-weight="400" letter-spacing="0px" word-spacing="0px" style="line-height:125%" xml:space="preserve"><tspan x="0" y="0" fill="#000000" font-family="Calibri" font-size="17.312px" font-weight="400"><tspan dx="0" dy="0">10</tspan><tspan dx="0" dy="0"/></tspan></text>
  </g>
  <path d="m-0.67769 661.57v5.644h5.9967v-5.644z" fill="#fff" fill-rule="evenodd"/>
  <g transform="matrix(.26458 0 0 .26458 -33.88 622.19)" clip-path="url(#clipEmfPath9-71)">
   <text transform="translate(129.32 166.65)" fill="#000000" font-family="Calibri" font-size="17.312px" font-weight="400" letter-spacing="0px" word-spacing="0px" style="line-height:125%" xml:space="preserve"><tspan x="0" y="0" fill="#000000" font-family="Calibri" font-size="17.312px" font-weight="400"><tspan dx="0" dy="0">12</tspan><tspan dx="0" dy="0"/></tspan></text>
  </g>
  <path d="m-26.781 649.93v5.644h7.8707v-5.644z" fill="#fff" fill-rule="evenodd"/>
  <g transform="matrix(.26458 0 0 .26458 -33.88 622.19)" clip-path="url(#clipEmfPath10-80)">
   <text transform="translate(30.664 122.66)" fill="#000000" font-family="Calibri" font-size="17.312px" font-weight="400" letter-spacing="0px" word-spacing="0px" style="line-height:125%" xml:space="preserve"><tspan x="0" y="0" fill="#000000" font-family="Calibri" font-size="17.312px" font-weight="400"><tspan dx="0" dy="0">13</tspan><tspan dx="0" dy="0"/></tspan></text>
  </g>
  <path d="m-13.024 633.7v5.5558h4.3432v-5.5558z" fill="#fff" fill-rule="evenodd"/>
  <g transform="matrix(.26458 0 0 .26458 -33.88 622.19)" clip-path="url(#clipEmfPath11-32)">
   <text transform="translate(82.66 61.328)" fill="#000000" font-family="Calibri" font-size="17.312px" font-weight="400" letter-spacing="0px" word-spacing="0px" style="line-height:125%" xml:space="preserve"><tspan x="0" y="0" fill="#000000" font-family="Calibri" font-size="17.312px" font-weight="400"><tspan dx="0" dy="0">5</tspan><tspan dx="0" dy="0"/></tspan></text>
  </g>
  <path d="m-14.082 654.62v5.181h5.5337v-5.181z" fill="#fff" fill-rule="evenodd"/>
  <g transform="matrix(.26458 0 0 .26458 -33.88 622.19)" clip-path="url(#clipEmfPath12-590)">
   <text transform="translate(78.66 139.99)" fill="#000000" font-family="Calibri" font-size="17.312px" font-weight="400" letter-spacing="0px" word-spacing="0px" style="line-height:125%" xml:space="preserve"><tspan x="0" y="0" fill="#000000" font-family="Calibri" font-size="17.312px" font-weight="400"><tspan dx="0" dy="0">9</tspan><tspan dx="0" dy="0"/></tspan></text>
  </g>
  <path d="m15.196 644.64v5.1589h5.5337v-5.1589z" fill="#fff" fill-rule="evenodd"/>
  <g transform="matrix(.26458 0 0 .26458 -33.88 622.19)" clip-path="url(#clipEmfPath13-72)">
   <text transform="translate(189.32 102.66)" fill="#000000" font-family="Calibri" font-size="17.312px" font-weight="400" letter-spacing="0px" word-spacing="0px" style="line-height:125%" xml:space="preserve"><tspan x="0" y="0" fill="#000000" font-family="Calibri" font-size="17.312px" font-weight="400"><tspan dx="0" dy="0">8</tspan><tspan dx="0" dy="0"/></tspan></text>
  </g>
  <path d="m-2.5517 649.57v5.1589h7.8707v-5.1589z" fill="#fff" fill-rule="evenodd"/>
  <g transform="matrix(.26458 0 0 .26458 -33.88 622.19)" clip-path="url(#clipEmfPath14-90)">
   <text transform="translate(121.32 121.32)" fill="#000000" font-family="Calibri" font-size="17.312px" font-weight="400" letter-spacing="0px" word-spacing="0px" style="line-height:125%" xml:space="preserve"><tspan x="0" y="0" fill="#000000" font-family="Calibri" font-size="17.312px" font-weight="400"><tspan dx="0" dy="0">11</tspan><tspan dx="0" dy="0"/></tspan></text>
  </g>
 </g>
</svg>
