<?xml version="1.0" encoding="UTF-8"?>
<!-- Created with Inkscape (http://www.inkscape.org/) -->
<svg width="439.97" height="109.15" version="1.1" viewBox="0 0 439.96551 109.14758" xmlns="http://www.w3.org/2000/svg" xmlns:cc="http://creativecommons.org/ns#" xmlns:dc="http://purl.org/dc/elements/1.1/" xmlns:rdf="http://www.w3.org/1999/02/22-rdf-syntax-ns#">
 <defs>
  <clipPath id="clipEmfPath1-50">
   <path d="m10.666 31.997h21.331v23.998h-21.331z"/>
  </clipPath>
  <clipPath id="clipEmfPath2-81">
   <path d="m10.666 77.327h21.331v22.665h-21.331z"/>
  </clipPath>
  <clipPath id="clipEmfPath3-879">
   <path d="m47.996 0h22.665v23.998h-22.665z"/>
  </clipPath>
  <clipPath id="clipEmfPath4-57">
   <path d="m47.996 45.329h22.665v22.665h-22.665z"/>
  </clipPath>
  <clipPath id="clipEmfPath5-1324">
   <path d="m47.996 89.326h22.665v23.998h-22.665z"/>
  </clipPath>
  <clipPath id="clipEmfPath6-101">
   <path d="m111.99 31.997h22.665v23.998h-22.665z"/>
  </clipPath>
  <clipPath id="clipEmfPath7-78">
   <path d="m111.99 77.327h22.665v22.665h-22.665z"/>
  </clipPath>
  <clipPath id="clipEmfPath8-62">
   <path d="m333.3 31.997h22.665v23.998h-22.665z"/>
  </clipPath>
  <clipPath id="clipEmfPath9-81">
   <path d="m333.3 77.327h22.665v22.665h-22.665z"/>
  </clipPath>
  <clipPath id="clipEmfPath10-81">
   <path d="m431.96 31.997h22.665v23.998h-22.665z"/>
  </clipPath>
  <clipPath id="clipEmfPath11-55">
   <path d="m431.96 77.327h22.665v22.665h-22.665z"/>
  </clipPath>
  <clipPath id="clipEmfPath12-82">
   <path d="m371.97 0h22.665v23.998h-22.665z"/>
  </clipPath>
  <clipPath id="clipEmfPath13-21">
   <path d="m371.97 45.329h22.665v22.665h-22.665z"/>
  </clipPath>
  <clipPath id="clipEmfPath14-23">
   <path d="m371.97 89.326h22.665v23.998h-22.665z"/>
  </clipPath>
  <clipPath id="clipEmfPath15-45">
   <path d="m219.98 0h22.665v23.998h-22.665z"/>
  </clipPath>
  <clipPath id="clipEmfPath16-04">
   <path d="m291.97 45.329h22.665v22.665h-22.665z"/>
  </clipPath>
  <clipPath id="clipEmfPath17-09">
   <path d="m221.31 89.326h22.665v23.998h-22.665z"/>
  </clipPath>
  <clipPath id="clipEmfPath18-19">
   <path d="m177.32 29.331h22.665v22.665h-22.665z"/>
  </clipPath>
  <clipPath id="clipEmfPath19-96">
   <path d="m177.32 78.66h22.665v23.998h-22.665z"/>
  </clipPath>
 </defs>
 <metadata>
  <rdf:RDF>
   <cc:Work rdf:about="">
    <dc:format>image/svg+xml</dc:format>
    <dc:type rdf:resource="http://purl.org/dc/dcmitype/StillImage"/>
    <dc:title/>
   </cc:Work>
  </rdf:RDF>
 </metadata>
 <g transform="matrix(3.7795 0 0 3.7795 -367.13 -2548.5)">
  <text x="96.827751" y="677.54846" fill="#000000" font-family="Calibri" font-size="5.2917px" font-weight="400" letter-spacing="0px" stroke-width=".26458" word-spacing="0px" style="line-height:125%" xml:space="preserve"><tspan x="0" y="0" stroke-width=".26458"><tspan dx="0" dy="0" fill="#000000" font-family="Calibri" font-size="5.2917px" font-weight="400" stroke-width=".26458"/></tspan></text>
  <g fill="none" stroke="#000" stroke-linejoin="round" stroke-width=".35275px">
   <path d="m126.04 701.05 57.851-23.634"/>
   <path d="m126.04 677.42 57.498 23.634"/>
   <path d="m210.77 689.48v11.839"/>
   <path d="m183.67 677.61h27.095"/>
   <path d="m210.77 677.61v11.861"/>
  </g>
  <path d="m210.77 675.92c-0.92596 0-1.6756 0.74959-1.6756 1.6976 0 0.92596 0.74959 1.6756 1.6756 1.6756 0.94801 0 1.6976-0.74959 1.6976-1.6756 0-0.948-0.74959-1.6976-1.6976-1.6976z" fill="#fff" fill-rule="evenodd"/>
  <path d="m210.77 675.92c-0.92596 0-1.6756 0.74959-1.6756 1.6976 0 0.92596 0.74959 1.6756 1.6756 1.6756 0.94801 0 1.6976-0.74959 1.6976-1.6756 0-0.948-0.74959-1.6976-1.6976-1.6976" fill="none" stroke="#000" stroke-linecap="round" stroke-linejoin="round" stroke-width=".35275px"/>
  <path d="m183.67 689.48h27.095" fill="none" stroke="#000" stroke-linejoin="round" stroke-width=".35275px"/>
  <path d="m210.74 687.8c-0.92596 0-1.6756 0.74959-1.6756 1.6756s0.74959 1.6976 1.6756 1.6976c0.94801 0 1.6976-0.77164 1.6976-1.6976s-0.74959-1.6756-1.6976-1.6756z" fill="#fff" fill-rule="evenodd"/>
  <path d="m210.74 687.8c-0.92596 0-1.6756 0.74959-1.6756 1.6756s0.74959 1.6976 1.6756 1.6976c0.94801 0 1.6976-0.77164 1.6976-1.6976s-0.74959-1.6756-1.6976-1.6756" fill="none" stroke="#000" stroke-linecap="round" stroke-linejoin="round" stroke-width=".35275px"/>
  <path d="m183.67 701.31h27.095" fill="none" stroke="#000" stroke-linejoin="round" stroke-width=".35275px"/>
  <path d="m210.77 699.64c-0.92596 0-1.6756 0.74959-1.6756 1.6756s0.74959 1.6756 1.6756 1.6756c0.94801 0 1.6976-0.74959 1.6976-1.6756s-0.74959-1.6756-1.6976-1.6756z" fill="#fff" fill-rule="evenodd"/>
  <g fill="none" stroke="#000" stroke-linejoin="round" stroke-width=".35275px">
   <path d="m210.77 699.64c-0.92596 0-1.6756 0.74959-1.6756 1.6756s0.74959 1.6756 1.6756 1.6756c0.94801 0 1.6976-0.74959 1.6976-1.6756s-0.74959-1.6756-1.6976-1.6756" stroke-linecap="round"/>
   <g>
    <path d="m99.01 689.48v11.839"/>
    <path d="m183.67 689.48v11.839"/>
    <path d="m126.11 689.48v11.839"/>
    <path d="m99.01 677.61h27.095"/>
    <path d="m99.01 689.48h27.095"/>
    <path d="m99.01 677.61v11.861"/>
   </g>
  </g>
  <path d="m99.01 687.78c-0.94801 0-1.6976 0.74959-1.6976 1.6756s0.74959 1.6756 1.6976 1.6756c0.92596 0 1.6755-0.74959 1.6755-1.6756s-0.74958-1.6756-1.6755-1.6756z" fill="#fff" fill-rule="evenodd"/>
  <path d="m99.01 687.78c-0.94801 0-1.6976 0.74959-1.6976 1.6756s0.74959 1.6756 1.6976 1.6756c0.92596 0 1.6755-0.74959 1.6755-1.6756s-0.74958-1.6756-1.6755-1.6756" fill="none" stroke="#000" stroke-linecap="round" stroke-linejoin="round" stroke-width=".35275px"/>
  <path d="m99.01 675.92c-0.94801 0-1.6976 0.74959-1.6976 1.6976 0 0.92596 0.74959 1.6756 1.6976 1.6756 0.92596 0 1.6755-0.74959 1.6755-1.6756 0-0.948-0.74958-1.6976-1.6755-1.6976z" fill="#fff" fill-rule="evenodd"/>
  <g fill="none" stroke="#000" stroke-linejoin="round" stroke-width=".35275px">
   <path d="m99.01 675.92c-0.94801 0-1.6976 0.74959-1.6976 1.6976 0 0.92596 0.74959 1.6756 1.6976 1.6756 0.92596 0 1.6755-0.74959 1.6755-1.6756 0-0.948-0.74958-1.6976-1.6755-1.6976" stroke-linecap="round"/>
   <path d="m126.11 677.61h57.564"/>
   <path d="m183.67 677.61v11.861"/>
  </g>
  <path d="m183.69 675.92c-0.92596 0-1.6976 0.74959-1.6976 1.6976 0 0.92596 0.77163 1.6756 1.6976 1.6756s1.6756-0.74959 1.6756-1.6756c0-0.948-0.74959-1.6976-1.6756-1.6976z" fill="#fff" fill-rule="evenodd"/>
  <path d="m183.69 675.92c-0.92596 0-1.6976 0.74959-1.6976 1.6976 0 0.92596 0.77163 1.6756 1.6976 1.6756s1.6756-0.74959 1.6756-1.6756c0-0.948-0.74959-1.6976-1.6756-1.6976" fill="none" stroke="#000" stroke-linecap="round" stroke-linejoin="round" stroke-width=".35275px"/>
  <path d="m126.11 689.48h55.866" fill="none" stroke="#000" stroke-linejoin="round" stroke-width=".35275px"/>
  <path d="m183.67 687.8c-0.94801 0-1.6976 0.74959-1.6976 1.6756s0.74959 1.6976 1.6976 1.6976c0.92596 0 1.6756-0.77164 1.6756-1.6976s-0.74959-1.6756-1.6756-1.6756z" fill="#fff" fill-rule="evenodd"/>
  <path d="m183.67 687.8c-0.94801 0-1.6976 0.74959-1.6976 1.6756s0.74959 1.6976 1.6976 1.6976c0.92596 0 1.6756-0.77164 1.6756-1.6976s-0.74959-1.6756-1.6756-1.6756" fill="none" stroke="#000" stroke-linecap="round" stroke-linejoin="round" stroke-width=".35275px"/>
  <path d="m126.11 677.61v11.861" fill="none" stroke="#000" stroke-linejoin="round" stroke-width=".35275px"/>
  <path d="m126.11 675.92c-0.92596 0-1.6756 0.74959-1.6756 1.6976 0 0.92596 0.74959 1.6756 1.6756 1.6756 0.94801 0 1.6976-0.74959 1.6976-1.6756 0-0.948-0.74959-1.6976-1.6976-1.6976z" fill="#fff" fill-rule="evenodd"/>
  <path d="m126.11 675.92c-0.92596 0-1.6756 0.74959-1.6756 1.6976 0 0.92596 0.74959 1.6756 1.6756 1.6756 0.94801 0 1.6976-0.74959 1.6976-1.6756 0-0.948-0.74959-1.6976-1.6976-1.6976" fill="none" stroke="#000" stroke-linecap="round" stroke-linejoin="round" stroke-width=".35275px"/>
  <path d="m126.08 687.8c-0.92596 0-1.6756 0.74959-1.6756 1.6756s0.74959 1.6976 1.6756 1.6976c0.94801 0 1.6976-0.77164 1.6976-1.6976s-0.74958-1.6756-1.6976-1.6756z" fill="#fff" fill-rule="evenodd"/>
  <path d="m126.08 687.8c-0.92596 0-1.6756 0.74959-1.6756 1.6756s0.74959 1.6976 1.6756 1.6976c0.94801 0 1.6976-0.77164 1.6976-1.6976s-0.74958-1.6756-1.6976-1.6756" fill="none" stroke="#000" stroke-linecap="round" stroke-linejoin="round" stroke-width=".35275px"/>
  <path d="m99.01 701.31h27.095" fill="none" stroke="#000" stroke-linejoin="round" stroke-width=".35275px"/>
  <path d="m99.01 699.64c-0.94801 0-1.6976 0.74959-1.6976 1.6756s0.74959 1.6756 1.6976 1.6756c0.92596 0 1.6755-0.74959 1.6755-1.6756s-0.74958-1.6756-1.6755-1.6756z" fill="#fff" fill-rule="evenodd"/>
  <path d="m99.01 699.64c-0.94801 0-1.6976 0.74959-1.6976 1.6756s0.74959 1.6756 1.6976 1.6756c0.92596 0 1.6755-0.74959 1.6755-1.6756s-0.74958-1.6756-1.6755-1.6756" fill="none" stroke="#000" stroke-linecap="round" stroke-linejoin="round" stroke-width=".35275px"/>
  <path d="m126.11 701.31h57.564" fill="none" stroke="#000" stroke-linejoin="round" stroke-width=".35275px"/>
  <path d="m183.69 699.64c-0.92596 0-1.6976 0.74959-1.6976 1.6756s0.77163 1.6756 1.6976 1.6756 1.6756-0.74959 1.6756-1.6756-0.74959-1.6756-1.6756-1.6756z" fill="#fff" fill-rule="evenodd"/>
  <path d="m183.69 699.64c-0.92596 0-1.6976 0.74959-1.6976 1.6756s0.77163 1.6756 1.6976 1.6756 1.6756-0.74959 1.6756-1.6756-0.74959-1.6756-1.6756-1.6756" fill="none" stroke="#000" stroke-linecap="round" stroke-linejoin="round" stroke-width=".35275px"/>
  <path d="m126.11 699.64c-0.92596 0-1.6756 0.74959-1.6756 1.6756s0.74959 1.6756 1.6756 1.6756c0.94801 0 1.6976-0.74959 1.6976-1.6756s-0.74959-1.6756-1.6976-1.6756z" fill="#fff" fill-rule="evenodd"/>
  <path d="m126.11 699.64c-0.92596 0-1.6756 0.74959-1.6756 1.6756s0.74959 1.6756 1.6756 1.6756c0.94801 0 1.6976-0.74959 1.6976-1.6756s-0.74959-1.6756-1.6976-1.6756" fill="none" stroke="#000" stroke-linecap="round" stroke-linejoin="round" stroke-width=".35275px"/>
  <g transform="matrix(.26458 0 0 .26458 96.475 672.61)" clip-path="url(#clipEmfPath1-50)">
   <text transform="translate(13.332 49.329)" fill="#000000" font-family="Calibri" font-size="17.312px" font-weight="400" letter-spacing="0px" word-spacing="0px" style="line-height:125%" xml:space="preserve"><tspan x="0" y="0" fill="#000000" font-family="Calibri" font-size="17.312px" font-weight="400"><tspan dx="0" dy="0">2</tspan><tspan dx="0" dy="0"/></tspan></text>
  </g>
  <g transform="matrix(.26458 0 0 .26458 96.475 672.61)" clip-path="url(#clipEmfPath2-81)">
   <text transform="translate(13.332 94.658)" fill="#000000" font-family="Calibri" font-size="17.312px" font-weight="400" letter-spacing="0px" word-spacing="0px" style="line-height:125%" xml:space="preserve"><tspan x="0" y="0" fill="#000000" font-family="Calibri" font-size="17.312px" font-weight="400"><tspan dx="0" dy="0">3</tspan><tspan dx="0" dy="0"/></tspan></text>
  </g>
  <g transform="matrix(.26458 0 0 .26458 96.475 672.61)" clip-path="url(#clipEmfPath3-879)">
   <text transform="translate(50.662 17.332)" fill="#000000" font-family="Calibri" font-size="17.312px" font-weight="400" letter-spacing="0px" word-spacing="0px" style="line-height:125%" xml:space="preserve"><tspan x="0" y="0" fill="#000000" font-family="Calibri" font-size="17.312px" font-weight="400"><tspan dx="0" dy="0">4</tspan><tspan dx="0" dy="0"/></tspan></text>
  </g>
  <g transform="matrix(.26458 0 0 .26458 96.475 672.61)" clip-path="url(#clipEmfPath4-57)">
   <text transform="translate(50.662 62.661)" fill="#000000" font-family="Calibri" font-size="17.312px" font-weight="400" letter-spacing="0px" word-spacing="0px" style="line-height:125%" xml:space="preserve"><tspan x="0" y="0" fill="#000000" font-family="Calibri" font-size="17.312px" font-weight="400"><tspan dx="0" dy="0">7</tspan><tspan dx="0" dy="0"/></tspan></text>
  </g>
  <g transform="matrix(.26458 0 0 .26458 96.475 672.61)" clip-path="url(#clipEmfPath5-1324)">
   <text transform="translate(50.662 106.66)" fill="#000000" font-family="Calibri" font-size="17.312px" font-weight="400" letter-spacing="0px" word-spacing="0px" style="line-height:125%" xml:space="preserve"><tspan x="0" y="0" fill="#000000" font-family="Calibri" font-size="17.312px" font-weight="400"><tspan dx="0" dy="0">5</tspan><tspan dx="0" dy="0"/></tspan></text>
  </g>
  <g transform="matrix(.26458 0 0 .26458 96.475 672.61)" clip-path="url(#clipEmfPath6-101)">
   <text transform="translate(114.66 49.329)" fill="#000000" font-family="Calibri" font-size="17.312px" font-weight="400" letter-spacing="0px" word-spacing="0px" style="line-height:125%" xml:space="preserve"><tspan x="0" y="0" fill="#000000" font-family="Calibri" font-size="17.312px" font-weight="400"><tspan dx="0" dy="0">1</tspan><tspan dx="0" dy="0"/></tspan></text>
  </g>
  <g transform="matrix(.26458 0 0 .26458 96.475 672.61)" clip-path="url(#clipEmfPath7-78)">
   <text transform="translate(114.66 94.658)" fill="#000000" font-family="Calibri" font-size="17.312px" font-weight="400" letter-spacing="0px" word-spacing="0px" style="line-height:125%" xml:space="preserve"><tspan x="0" y="0" fill="#000000" font-family="Calibri" font-size="17.312px" font-weight="400"><tspan dx="0" dy="0">1</tspan><tspan dx="0" dy="0"/></tspan></text>
  </g>
  <g transform="matrix(.26458 0 0 .26458 96.475 672.61)" clip-path="url(#clipEmfPath8-62)">
   <text transform="translate(335.97 49.329)" fill="#000000" font-family="Calibri" font-size="17.312px" font-weight="400" letter-spacing="0px" word-spacing="0px" style="line-height:125%" xml:space="preserve"><tspan x="0" y="0" fill="#000000" font-family="Calibri" font-size="17.312px" font-weight="400"><tspan dx="0" dy="0">3</tspan><tspan dx="0" dy="0"/></tspan></text>
  </g>
  <g transform="matrix(.26458 0 0 .26458 96.475 672.61)" clip-path="url(#clipEmfPath9-81)">
   <text transform="translate(335.97 94.658)" fill="#000000" font-family="Calibri" font-size="17.312px" font-weight="400" letter-spacing="0px" word-spacing="0px" style="line-height:125%" xml:space="preserve"><tspan x="0" y="0" fill="#000000" font-family="Calibri" font-size="17.312px" font-weight="400"><tspan dx="0" dy="0">2</tspan><tspan dx="0" dy="0"/></tspan></text>
  </g>
  <g transform="matrix(.26458 0 0 .26458 96.475 672.61)" clip-path="url(#clipEmfPath10-81)">
   <text transform="translate(434.63 49.329)" fill="#000000" font-family="Calibri" font-size="17.312px" font-weight="400" letter-spacing="0px" word-spacing="0px" style="line-height:125%" xml:space="preserve"><tspan x="0" y="0" fill="#000000" font-family="Calibri" font-size="17.312px" font-weight="400"><tspan dx="0" dy="0">3</tspan><tspan dx="0" dy="0"/></tspan></text>
  </g>
  <g transform="matrix(.26458 0 0 .26458 96.475 672.61)" clip-path="url(#clipEmfPath11-55)">
   <text transform="translate(434.63 94.658)" fill="#000000" font-family="Calibri" font-size="17.312px" font-weight="400" letter-spacing="0px" word-spacing="0px" style="line-height:125%" xml:space="preserve"><tspan x="0" y="0" fill="#000000" font-family="Calibri" font-size="17.312px" font-weight="400"><tspan dx="0" dy="0">1</tspan><tspan dx="0" dy="0"/></tspan></text>
  </g>
  <g transform="matrix(.26458 0 0 .26458 96.475 672.61)" clip-path="url(#clipEmfPath12-82)">
   <text transform="translate(374.63 17.332)" fill="#000000" font-family="Calibri" font-size="17.312px" font-weight="400" letter-spacing="0px" word-spacing="0px" style="line-height:125%" xml:space="preserve"><tspan x="0" y="0" fill="#000000" font-family="Calibri" font-size="17.312px" font-weight="400"><tspan dx="0" dy="0">5</tspan><tspan dx="0" dy="0"/></tspan></text>
  </g>
  <g transform="matrix(.26458 0 0 .26458 96.475 672.61)" clip-path="url(#clipEmfPath13-21)">
   <text transform="translate(374.63 62.661)" fill="#000000" font-family="Calibri" font-size="17.312px" font-weight="400" letter-spacing="0px" word-spacing="0px" style="line-height:125%" xml:space="preserve"><tspan x="0" y="0" fill="#000000" font-family="Calibri" font-size="17.312px" font-weight="400"><tspan dx="0" dy="0">2</tspan><tspan dx="0" dy="0"/></tspan></text>
  </g>
  <g transform="matrix(.26458 0 0 .26458 96.475 672.61)" clip-path="url(#clipEmfPath14-23)">
   <text transform="translate(374.63 106.66)" fill="#000000" font-family="Calibri" font-size="17.312px" font-weight="400" letter-spacing="0px" word-spacing="0px" style="line-height:125%" xml:space="preserve"><tspan x="0" y="0" fill="#000000" font-family="Calibri" font-size="17.312px" font-weight="400"><tspan dx="0" dy="0">7</tspan><tspan dx="0" dy="0"/></tspan></text>
  </g>
  <g transform="matrix(.26458 0 0 .26458 96.475 672.61)" clip-path="url(#clipEmfPath15-45)">
   <text transform="translate(222.65 17.332)" fill="#000000" font-family="Calibri" font-size="17.312px" font-weight="400" letter-spacing="0px" word-spacing="0px" style="line-height:125%" xml:space="preserve"><tspan x="0" y="0" fill="#000000" font-family="Calibri" font-size="17.312px" font-weight="400"><tspan dx="0" dy="0">7</tspan><tspan dx="0" dy="0"/></tspan></text>
  </g>
  <g transform="matrix(.26458 0 0 .26458 96.475 672.61)" clip-path="url(#clipEmfPath16-04)">
   <text transform="translate(294.64 62.661)" fill="#000000" font-family="Calibri" font-size="17.312px" font-weight="400" letter-spacing="0px" word-spacing="0px" style="line-height:125%" xml:space="preserve"><tspan x="0" y="0" fill="#000000" font-family="Calibri" font-size="17.312px" font-weight="400"><tspan dx="0" dy="0">5</tspan><tspan dx="0" dy="0"/></tspan></text>
  </g>
  <g transform="matrix(.26458 0 0 .26458 96.475 672.61)" clip-path="url(#clipEmfPath17-09)">
   <text transform="translate(223.98 106.66)" fill="#000000" font-family="Calibri" font-size="17.312px" font-weight="400" letter-spacing="0px" word-spacing="0px" style="line-height:125%" xml:space="preserve"><tspan x="0" y="0" fill="#000000" font-family="Calibri" font-size="17.312px" font-weight="400"><tspan dx="0" dy="0">6</tspan><tspan dx="0" dy="0"/></tspan></text>
  </g>
  <g transform="matrix(.26458 0 0 .26458 96.475 672.61)" clip-path="url(#clipEmfPath18-19)">
   <text transform="translate(179.98 46.663)" fill="#000000" font-family="Calibri" font-size="17.312px" font-weight="400" letter-spacing="0px" word-spacing="0px" style="line-height:125%" xml:space="preserve"><tspan x="0" y="0" fill="#000000" font-family="Calibri" font-size="17.312px" font-weight="400"><tspan dx="0" dy="0">2</tspan><tspan dx="0" dy="0"/></tspan></text>
  </g>
  <g transform="matrix(.26458 0 0 .26458 96.475 672.61)" clip-path="url(#clipEmfPath19-96)">
   <text transform="translate(179.98 95.992)" fill="#000000" font-family="Calibri" font-size="17.312px" font-weight="400" letter-spacing="0px" word-spacing="0px" style="line-height:125%" xml:space="preserve"><tspan x="0" y="0" fill="#000000" font-family="Calibri" font-size="17.312px" font-weight="400"><tspan dx="0" dy="0">3</tspan><tspan dx="0" dy="0"/></tspan></text>
  </g>
 </g>
</svg>
