<?xml version="1.0" encoding="UTF-8"?>
<!-- Created with Inkscape (http://www.inkscape.org/) -->
<svg width="61.191mm" height="47.6mm" version="1.1" viewBox="0 0 61.19108 47.600457" xmlns="http://www.w3.org/2000/svg" xmlns:cc="http://creativecommons.org/ns#" xmlns:dc="http://purl.org/dc/elements/1.1/" xmlns:rdf="http://www.w3.org/1999/02/22-rdf-syntax-ns#">
 <defs>
  <clipPath id="clipEmfPath1-45">
   <path d="m0.15988 0.15988h266.68v221.59h-266.68z"/>
  </clipPath>
  <clipPath id="clipEmfPath4-91">
   <path d="m64.082 22.119h190.77v121.77h-190.77z"/>
  </clipPath>
  <clipPath id="clipEmfPath5-39">
   <path d="m-0.83891-0.83828h268.67v223.59h-268.67z"/>
  </clipPath>
  <clipPath id="clipEmfPath6-58">
   <path d="m64.082 168.85h187.77v37.93h-187.77z"/>
  </clipPath>
  <clipPath id="clipEmfPath7-65">
   <path d="m15.142 42.082h22.972v83.845h-22.972z"/>
  </clipPath>
 </defs>
 <metadata>
  <rdf:RDF>
   <cc:Work rdf:about="">
    <dc:format>image/svg+xml</dc:format>
    <dc:type rdf:resource="http://purl.org/dc/dcmitype/StillImage"/>
    <dc:title/>
   </cc:Work>
  </rdf:RDF>
 </metadata>
 <g transform="translate(-624.04 -120.77)">
  <text x="618.46014" y="119.06457" fill="#000000" font-family="Calibri" font-size="3.8861px" font-weight="400" letter-spacing="0px" stroke-width=".26458" word-spacing="0px" style="line-height:125%" xml:space="preserve"><tspan x="0" y="0" stroke-width=".26458"><tspan dx="0" dy="0" fill="#000000" font-family="Calibri" font-size="3.8861px" font-weight="400" stroke-width=".26458"/></tspan></text>
  <path transform="matrix(.26458 0 0 .26458 618.46 115.43)" d="m65.081 25.114h186.77v117.78h-186.77z" clip-path="url(#clipEmfPath1-45)" fill="none"/>
  <path transform="matrix(.26458 0 0 .26458 618.46 115.43)" d="m65.081 25.114h186.77v117.78h-186.77v-117.78" clip-path="url(#clipEmfPath1-45)" fill="none" stroke="#808080" stroke-linecap="round" stroke-linejoin="round" stroke-miterlimit="10" stroke-width=".99847px"/>
  <g stroke="#000" stroke-linecap="round" stroke-linejoin="round" stroke-miterlimit="10" stroke-width=".99847px">
   <path transform="matrix(.26458 0 0 .26458 618.46 115.43)" d="m93.047 90.992h37.954v51.904h-37.954z" clip-path="url(#clipEmfPath4-91)" fill="#99f" fill-rule="evenodd"/>
   <path transform="matrix(.26458 0 0 .26458 618.46 115.43)" d="m186.93 78.016h36.955v64.88h-36.955z" clip-path="url(#clipEmfPath4-91)" fill="#99f" fill-rule="evenodd"/>
   <path transform="matrix(.26458 0 0 .26458 618.46 115.43)" d="m65.081 25.114v117.78m-2.9964 0h2.9964m-2.9964-11.978h2.9964m-2.9964-11.978h2.9964m-2.9964-10.98h2.9964m-2.9964-11.978h2.9964m-2.9964-11.978h2.9964m-2.9964-11.978h2.9964m-2.9964-11.978h2.9964m-2.9964-10.98h2.9964m-2.9964-11.978h2.9964m-2.9964-11.978h2.9964m0 117.78h186.77m-186.77 2.9945v-2.9945m93.886 2.9945v-2.9945m92.887 2.9945v-2.9945" clip-path="url(#clipEmfPath1-45)" fill="none"/>
  </g>
  <g transform="matrix(.26458 0 0 .26458 618.46 115.43)" clip-path="url(#clipEmfPath5-39)" fill="#000000" font-family="Arial" font-size="11px" font-weight="700" letter-spacing="0px" word-spacing="0px">
   <text transform="translate(51.098 135.91)" y="9.9580078" style="line-height:125%" xml:space="preserve"><tspan x="0" y="9.9580078"><tspan dx="0" dy="0" fill="#000000" font-family="Arial" font-size="11px" font-weight="700">0</tspan></tspan></text>
   <text transform="translate(51.098 135.91)" x="-5.9927058" y="-2.01983" style="line-height:125%" xml:space="preserve"><tspan x="-5.9927058" y="-2.01983"><tspan dx="0" dy="0" fill="#000000" font-family="Arial" font-size="11px" font-weight="700">10</tspan></tspan></text>
   <text transform="translate(51.098 135.91)" x="-5.9927058" y="-13.997668" style="line-height:125%" xml:space="preserve"><tspan x="-5.9927058" y="-13.997668"><tspan dx="0" dy="0" fill="#000000" font-family="Arial" font-size="11px" font-weight="700">20</tspan></tspan></text>
   <text transform="translate(51.098 135.91)" x="-5.9927058" y="-24.977352" style="line-height:125%" xml:space="preserve"><tspan x="-5.9927058" y="-24.977352"><tspan dx="0" dy="0" fill="#000000" font-family="Arial" font-size="11px" font-weight="700">30</tspan></tspan></text>
   <text transform="translate(51.098 135.91)" x="-5.9927058" y="-36.955193" style="line-height:125%" xml:space="preserve"><tspan x="-5.9927058" y="-36.955193"><tspan dx="0" dy="0" fill="#000000" font-family="Arial" font-size="11px" font-weight="700">40</tspan></tspan></text>
   <text transform="translate(51.098 135.91)" x="-5.9927058" y="-48.933029" style="line-height:125%" xml:space="preserve"><tspan x="-5.9927058" y="-48.933029"><tspan dx="0" dy="0" fill="#000000" font-family="Arial" font-size="11px" font-weight="700">50</tspan></tspan></text>
   <text transform="translate(51.098 135.91)" x="-5.9927058" y="-60.910866" style="line-height:125%" xml:space="preserve"><tspan x="-5.9927058" y="-60.910866"><tspan dx="0" dy="0" fill="#000000" font-family="Arial" font-size="11px" font-weight="700">60</tspan></tspan></text>
   <text transform="translate(51.098 135.91)" x="-5.9927058" y="-72.888702" style="line-height:125%" xml:space="preserve"><tspan x="-5.9927058" y="-72.888702"><tspan dx="0" dy="0" fill="#000000" font-family="Arial" font-size="11px" font-weight="700">70</tspan></tspan></text>
   <text transform="translate(51.098 135.91)" x="-5.9927058" y="-83.868393" style="line-height:125%" xml:space="preserve"><tspan x="-5.9927058" y="-83.868393"><tspan dx="0" dy="0" fill="#000000" font-family="Arial" font-size="11px" font-weight="700">80</tspan></tspan></text>
   <text transform="translate(51.098 135.91)" x="-5.9927058" y="-95.84623" style="line-height:125%" xml:space="preserve"><tspan x="-5.9927058" y="-95.84623"><tspan dx="0" dy="0" fill="#000000" font-family="Arial" font-size="11px" font-weight="700">90</tspan></tspan></text>
   <text transform="translate(51.098 135.91)" x="-11.985412" y="-107.82407" style="line-height:125%" xml:space="preserve"><tspan x="-11.985412" y="-107.82407"><tspan dx="0" dy="0" fill="#000000" font-family="Arial" font-size="11px" font-weight="700">100</tspan></tspan></text>
  </g>
  <g transform="matrix(.26458 0 0 .26458 618.46 115.43)" clip-path="url(#clipEmfPath5-39)" fill="#000000" font-family="Arial" font-size="11px" font-weight="700" letter-spacing="0px" word-spacing="0px">
   <text transform="translate(90.05 151.88)" y="9.9580078" style="line-height:125%" xml:space="preserve"><tspan x="0" y="9.9580078"><tspan dx="0" dy="0" fill="#000000" font-family="Arial" font-size="11px" font-weight="700">Support</tspan></tspan></text>
   <text transform="translate(90.05 151.88)" x="93.885727" y="9.9580078" style="line-height:125%" xml:space="preserve"><tspan x="93.885727" y="9.9580078"><tspan dx="0" dy="0" fill="#000000" font-family="Arial" font-size="11px" font-weight="700">Oppose</tspan></tspan></text>
  </g>
  <g transform="matrix(.26458 0 0 .26458 618.46 115.43)" clip-path="url(#clipEmfPath6-58)" fill="#000000" font-family="Arial" font-size="11px" font-weight="700" letter-spacing="0px" word-spacing="0px">
   <text transform="translate(67.078 172.84)" y="9.9580078" style="line-height:125%" xml:space="preserve"><tspan x="0" y="9.9580078"><tspan dx="0" dy="0" fill="#000000" font-family="Arial" font-size="11px" font-weight="700">Do you support or oppose same-</tspan></tspan></text>
   <text transform="translate(67.078 172.84)" x="50.938" y="24.930305" style="line-height:125%" xml:space="preserve"><tspan x="50.938" y="24.930305"><tspan dx="0" dy="0" fill="#000000" font-family="Arial" font-size="11px" font-weight="700">sex marriage?</tspan></tspan></text>
  </g>
  <g transform="matrix(.26458 0 0 .26458 618.46 115.43)" clip-path="url(#clipEmfPath7-65)">
   <text transform="rotate(-90 71.035 51.898)" y="9.9580078" fill="#000000" font-family="Arial" font-size="11px" font-weight="700" letter-spacing="0px" word-spacing="0px" style="line-height:125%" xml:space="preserve"><tspan x="0" y="9.9580078"><tspan dx="0" dy="0" fill="#000000" font-family="Arial" font-size="11px" font-weight="700">Frequency (%)</tspan></tspan></text>
  </g>
 </g>
</svg>
