<?xml version="1.0" encoding="UTF-8"?>
<!-- Created with Inkscape (http://www.inkscape.org/) -->
<svg width="88.052mm" height="46.954mm" version="1.1" viewBox="0 0 88.051914 46.954343" xmlns="http://www.w3.org/2000/svg" xmlns:cc="http://creativecommons.org/ns#" xmlns:dc="http://purl.org/dc/elements/1.1/" xmlns:rdf="http://www.w3.org/1999/02/22-rdf-syntax-ns#">
 <defs>
  <clipPath id="clipEmfPath1-755">
   <path d="m0 0.15988h368.52v221.59h-368.52z"/>
  </clipPath>
  <clipPath id="clipEmfPath4-21">
   <path d="m55.927 23.117h300.61v131.76h-300.61z"/>
  </clipPath>
  <clipPath id="clipEmfPath5-00">
   <path d="m-0.99869-0.83828h370.51v223.59h-370.51z"/>
  </clipPath>
  <clipPath id="clipEmfPath6-96">
   <path d="m184.76 182.82h39.948v23.956h-39.948z"/>
  </clipPath>
  <clipPath id="clipEmfPath7-90">
   <path d="m14.98 58.053h23.969v64.88h-23.969z"/>
  </clipPath>
 </defs>
 <metadata>
  <rdf:RDF>
   <cc:Work rdf:about="">
    <dc:format>image/svg+xml</dc:format>
    <dc:type rdf:resource="http://purl.org/dc/dcmitype/StillImage"/>
    <dc:title/>
   </cc:Work>
  </rdf:RDF>
 </metadata>
 <g transform="translate(-596.07 -113)">
  <text x="590.4469" y="111.24545" fill="#000000" font-family="Calibri" font-size="3.8861px" font-weight="400" letter-spacing="0px" stroke-width=".26458" word-spacing="0px" style="line-height:125%" xml:space="preserve"><tspan x="0" y="0" stroke-width=".26458"><tspan dx="0" dy="0" fill="#000000" font-family="Calibri" font-size="3.8861px" font-weight="400" stroke-width=".26458"/></tspan></text>
  <path transform="matrix(.26458 0 0 .26458 590.45 107.61)" d="m56.925 26.112h296.61v127.76h-296.61z" clip-path="url(#clipEmfPath1-755)" fill="none"/>
  <path transform="matrix(.26458 0 0 .26458 590.45 107.61)" d="m56.925 26.112h296.61v127.76h-296.61v-127.76" clip-path="url(#clipEmfPath1-755)" fill="none" stroke="#808080" stroke-linecap="round" stroke-linejoin="round" stroke-miterlimit="10" stroke-width=".99842px"/>
  <g fill="#99f" fill-rule="evenodd" stroke="#000" stroke-linecap="round" stroke-linejoin="round" stroke-miterlimit="10" stroke-width=".99842px">
   <path transform="matrix(.26458 0 0 .26458 590.45 107.61)" d="m66.912 121.93h12.983v31.941h-12.983z" clip-path="url(#clipEmfPath4-21)"/>
   <path transform="matrix(.26458 0 0 .26458 590.45 107.61)" d="m99.869 137.91h12.983v15.97h-12.983z" clip-path="url(#clipEmfPath4-21)"/>
   <path transform="matrix(.26458 0 0 .26458 590.45 107.61)" d="m132.83 137.91h12.983v15.97h-12.983z" clip-path="url(#clipEmfPath4-21)"/>
   <path transform="matrix(.26458 0 0 .26458 590.45 107.61)" d="m165.78 121.93h12.983v31.941h-12.983z" clip-path="url(#clipEmfPath4-21)"/>
   <path transform="matrix(.26458 0 0 .26458 590.45 107.61)" d="m198.74 121.93h12.983v31.941h-12.983z" clip-path="url(#clipEmfPath4-21)"/>
   <path transform="matrix(.26458 0 0 .26458 590.45 107.61)" d="m231.7 89.994h12.983v63.882h-12.983z" clip-path="url(#clipEmfPath4-21)"/>
   <path transform="matrix(.26458 0 0 .26458 590.45 107.61)" d="m264.65 26.112h12.983v127.76h-12.983z" clip-path="url(#clipEmfPath4-21)"/>
   <path transform="matrix(.26458 0 0 .26458 590.45 107.61)" d="m297.61 89.994h12.983v63.882h-12.983z" clip-path="url(#clipEmfPath4-21)"/>
   <path transform="matrix(.26458 0 0 .26458 590.45 107.61)" d="m330.57 58.053h12.983v95.823h-12.983z" clip-path="url(#clipEmfPath4-21)"/>
  </g>
  <path transform="matrix(.26458 0 0 .26458 590.45 107.61)" d="m56.925 26.112v127.76m-3.9948 0h3.9948m-3.9948-15.97h3.9948m-3.9948-15.97h3.9948m-3.9948-15.97h3.9948m-3.9948-15.97h3.9948m-3.9948-15.97h3.9948m-3.9948-15.97h3.9948m-3.9948-15.97h3.9948m-3.9948-15.97h3.9948m0 127.76h296.61m-296.61 3.9926v-3.9926m32.957 3.9926v-3.9926m32.957 3.9926v-3.9926m32.957 3.9926v-3.9926m32.957 3.9926v-3.9926m32.957 3.9926v-3.9926m32.957 3.9926v-3.9926m32.957 3.9926v-3.9926m32.957 3.9926v-3.9926m32.957 3.9926v-3.9926" clip-path="url(#clipEmfPath1-755)" fill="none" stroke="#000" stroke-linecap="round" stroke-linejoin="round" stroke-miterlimit="10" stroke-width=".99842px"/>
  <g transform="matrix(.26458 0 0 .26458 590.45 107.61)" clip-path="url(#clipEmfPath5-00)" fill="#000000" font-family="Arial" font-size="12px" font-weight="700" letter-spacing="0px" word-spacing="0px">
   <text transform="translate(39.948 145.89)" y="10.863281" style="line-height:125%" xml:space="preserve"><tspan x="0" y="10.863281"><tspan dx="0" dy="0" fill="#000000" font-family="Arial" font-size="12px" font-weight="700">0</tspan></tspan></text>
   <text transform="translate(39.948 145.89)" y="-5.1071692" style="line-height:125%" xml:space="preserve"><tspan x="0" y="-5.1071692"><tspan dx="0" dy="0" fill="#000000" font-family="Arial" font-size="12px" font-weight="700">1</tspan></tspan></text>
   <text transform="translate(39.948 145.89)" y="-21.07762" style="line-height:125%" xml:space="preserve"><tspan x="0" y="-21.07762"><tspan dx="0" dy="0" fill="#000000" font-family="Arial" font-size="12px" font-weight="700">2</tspan></tspan></text>
   <text transform="translate(39.948 145.89)" y="-37.048073" style="line-height:125%" xml:space="preserve"><tspan x="0" y="-37.048073"><tspan dx="0" dy="0" fill="#000000" font-family="Arial" font-size="12px" font-weight="700">3</tspan></tspan></text>
   <text transform="translate(39.948 145.89)" y="-53.01852" style="line-height:125%" xml:space="preserve"><tspan x="0" y="-53.01852"><tspan dx="0" dy="0" fill="#000000" font-family="Arial" font-size="12px" font-weight="700">4</tspan></tspan></text>
   <text transform="translate(39.948 145.89)" y="-68.988976" style="line-height:125%" xml:space="preserve"><tspan x="0" y="-68.988976"><tspan dx="0" dy="0" fill="#000000" font-family="Arial" font-size="12px" font-weight="700">5</tspan></tspan></text>
   <text transform="translate(39.948 145.89)" y="-84.959419" style="line-height:125%" xml:space="preserve"><tspan x="0" y="-84.959419"><tspan dx="0" dy="0" fill="#000000" font-family="Arial" font-size="12px" font-weight="700">6</tspan></tspan></text>
   <text transform="translate(39.948 145.89)" y="-100.92987" style="line-height:125%" xml:space="preserve"><tspan x="0" y="-100.92987"><tspan dx="0" dy="0" fill="#000000" font-family="Arial" font-size="12px" font-weight="700">7</tspan></tspan></text>
   <text transform="translate(39.948 145.89)" y="-116.90032" style="line-height:125%" xml:space="preserve"><tspan x="0" y="-116.90032"><tspan dx="0" dy="0" fill="#000000" font-family="Arial" font-size="12px" font-weight="700">8</tspan></tspan></text>
  </g>
  <g transform="matrix(.26458 0 0 .26458 590.45 107.61)" clip-path="url(#clipEmfPath5-00)" fill="#000000" font-family="Arial" font-size="12px" font-weight="700" letter-spacing="0px" word-spacing="0px">
   <text transform="translate(70.907 164.86)" y="10.863281" style="line-height:125%" xml:space="preserve"><tspan x="0" y="10.863281"><tspan dx="0" dy="0" fill="#000000" font-family="Arial" font-size="12px" font-weight="700">0</tspan></tspan></text>
   <text transform="translate(70.907 164.86)" x="32.956833" y="10.863281" style="line-height:125%" xml:space="preserve"><tspan x="32.956833" y="10.863281"><tspan dx="0" dy="0" fill="#000000" font-family="Arial" font-size="12px" font-weight="700">5</tspan></tspan></text>
   <text transform="translate(70.907 164.86)" x="61.918896" y="10.863281" style="line-height:125%" xml:space="preserve"><tspan x="61.918896" y="10.863281"><tspan dx="0" dy="0" fill="#000000" font-family="Arial" font-size="12px" font-weight="700">12</tspan></tspan></text>
   <text transform="translate(70.907 164.86)" x="94.875725" y="10.863281" style="line-height:125%" xml:space="preserve"><tspan x="94.875725" y="10.863281"><tspan dx="0" dy="0" fill="#000000" font-family="Arial" font-size="12px" font-weight="700">15</tspan></tspan></text>
   <text transform="translate(70.907 164.86)" x="127.83256" y="10.863281" style="line-height:125%" xml:space="preserve"><tspan x="127.83256" y="10.863281"><tspan dx="0" dy="0" fill="#000000" font-family="Arial" font-size="12px" font-weight="700">16</tspan></tspan></text>
   <text transform="translate(70.907 164.86)" x="160.78938" y="10.863281" style="line-height:125%" xml:space="preserve"><tspan x="160.78938" y="10.863281"><tspan dx="0" dy="0" fill="#000000" font-family="Arial" font-size="12px" font-weight="700">17</tspan></tspan></text>
   <text transform="translate(70.907 164.86)" x="193.74622" y="10.863281" style="line-height:125%" xml:space="preserve"><tspan x="193.74622" y="10.863281"><tspan dx="0" dy="0" fill="#000000" font-family="Arial" font-size="12px" font-weight="700">18</tspan></tspan></text>
   <text transform="translate(70.907 164.86)" x="226.70305" y="10.863281" style="line-height:125%" xml:space="preserve"><tspan x="226.70305" y="10.863281"><tspan dx="0" dy="0" fill="#000000" font-family="Arial" font-size="12px" font-weight="700">19</tspan></tspan></text>
   <text transform="translate(70.907 164.86)" x="259.65988" y="10.863281" style="line-height:125%" xml:space="preserve"><tspan x="259.65988" y="10.863281"><tspan dx="0" dy="0" fill="#000000" font-family="Arial" font-size="12px" font-weight="700">20</tspan></tspan></text>
  </g>
  <g transform="matrix(.26458 0 0 .26458 590.45 107.61)" clip-path="url(#clipEmfPath6-96)">
   <text transform="translate(187.75 186.81)" y="10.863281" fill="#000000" font-family="Arial" font-size="12px" font-weight="700" letter-spacing="0px" word-spacing="0px" style="line-height:125%" xml:space="preserve"><tspan x="0" y="10.863281"><tspan dx="0" dy="0" fill="#000000" font-family="Arial" font-size="12px" font-weight="700">Score</tspan></tspan></text>
  </g>
  <g transform="matrix(.26458 0 0 .26458 590.45 107.61)" clip-path="url(#clipEmfPath7-90)">
   <text transform="rotate(-90 69.457 50.482)" y="10.863281" fill="#000000" font-family="Arial" font-size="12px" font-weight="700" letter-spacing="0px" word-spacing="0px" style="line-height:125%" xml:space="preserve"><tspan x="0" y="10.863281"><tspan dx="0" dy="0" fill="#000000" font-family="Arial" font-size="12px" font-weight="700">Frequency</tspan></tspan></text>
  </g>
 </g>
</svg>
