<?xml version="1.0" encoding="UTF-8"?>
<!-- Created with Inkscape (http://www.inkscape.org/) -->
<svg width="116.01mm" height="78.755mm" version="1.1" viewBox="0 0 116.01134 78.754594" xmlns="http://www.w3.org/2000/svg" xmlns:cc="http://creativecommons.org/ns#" xmlns:dc="http://purl.org/dc/elements/1.1/" xmlns:rdf="http://www.w3.org/1999/02/22-rdf-syntax-ns#">
 <defs>
  <clipPath id="clipEmfPath1-19">
   <path d="m-5.1161-5.1161h448.46v306.64h-448.46z"/>
  </clipPath>
  <clipPath id="clipEmfPath4-53">
   <path d="m55.81 17.857h363.56v217.75h-363.56z"/>
  </clipPath>
  <clipPath id="clipEmfPath6-7">
   <path d="m183.65 262.57h105.87v22.973h-105.87z"/>
  </clipPath>
  <clipPath id="clipEmfPath7-61">
   <path d="m10.865 95.767h22.972v64.925h-22.972z"/>
  </clipPath>
 </defs>
 <metadata>
  <rdf:RDF>
   <cc:Work rdf:about="">
    <dc:format>image/svg+xml</dc:format>
    <dc:type rdf:resource="http://purl.org/dc/dcmitype/StillImage"/>
    <dc:title/>
   </cc:Work>
  </rdf:RDF>
 </metadata>
 <g transform="translate(-727.64 -130.03)">
  <text x="729.62299" y="135.10213" fill="#000000" font-family="Calibri" font-size="3.8861px" font-weight="400" letter-spacing="0px" stroke-width=".26458" word-spacing="0px" style="line-height:125%" xml:space="preserve"><tspan x="0" y="0" stroke-width=".26458"><tspan dx="0" dy="0" fill="#000000" font-family="Calibri" font-size="3.8861px" font-weight="400" stroke-width=".26458"/></tspan></text>
  <path transform="matrix(.26458 0 0 .26458 727.8 130.2)" d="m-0.12213-0.12186h437.47v296.66h-437.47z" clip-path="url(#clipEmfPath1-19)" fill="#fff" fill-rule="evenodd" stroke="#000" stroke-linecap="round" stroke-linejoin="round" stroke-miterlimit="10" stroke-width=".99882px"/>
  <g fill="#36f" fill-rule="evenodd" stroke="#000" stroke-linecap="round" stroke-linejoin="round" stroke-miterlimit="10" stroke-width=".99882px">
   <path transform="matrix(.26458 0 0 .26458 727.8 130.2)" d="m55.81 206.64h35.956v28.966h-35.956z" clip-path="url(#clipEmfPath4-53)"/>
   <path transform="matrix(.26458 0 0 .26458 727.8 130.2)" d="m91.766 134.72h35.956v100.88h-35.956z" clip-path="url(#clipEmfPath4-53)"/>
   <path transform="matrix(.26458 0 0 .26458 727.8 130.2)" d="m127.72 120.74h36.955v114.87h-36.955z" clip-path="url(#clipEmfPath4-53)"/>
   <path transform="matrix(.26458 0 0 .26458 727.8 130.2)" d="m164.68 33.839h35.956v201.77h-35.956z" clip-path="url(#clipEmfPath4-53)"/>
   <path transform="matrix(.26458 0 0 .26458 727.8 130.2)" d="m200.63 149.7h35.956v85.9h-35.956z" clip-path="url(#clipEmfPath4-53)"/>
   <path transform="matrix(.26458 0 0 .26458 727.8 130.2)" d="m236.59 177.67h35.956v57.933h-35.956z" clip-path="url(#clipEmfPath4-53)"/>
   <path transform="matrix(.26458 0 0 .26458 727.8 130.2)" d="m272.55 185.66h35.956v49.942h-35.956z" clip-path="url(#clipEmfPath4-53)"/>
   <path transform="matrix(.26458 0 0 .26458 727.8 130.2)" d="m308.5 192.65h36.955v42.95h-36.955z" clip-path="url(#clipEmfPath4-53)"/>
   <path transform="matrix(.26458 0 0 .26458 727.8 130.2)" d="m345.46 221.62h35.956v13.984h-35.956z" clip-path="url(#clipEmfPath4-53)"/>
   <path transform="matrix(.26458 0 0 .26458 727.8 130.2)" d="m381.41 213.63h35.956v21.975h-35.956z" clip-path="url(#clipEmfPath4-53)"/>
  </g>
  <path transform="matrix(.26458 0 0 .26458 727.8 130.2)" d="m55.81 19.855v215.75" clip-path="url(#clipEmfPath1-19)" fill="none" stroke="#000" stroke-linecap="round" stroke-linejoin="round" stroke-miterlimit="10" stroke-width=".99882px"/>
  <path transform="matrix(.26458 0 0 .26458 727.8 130.2)" d="m52.814 235.61h5.9927m-5.9927-35.958h5.9927m-5.9927-35.958h5.9927m-5.9927-35.958h5.9927m-5.9927-35.958h5.9927m-5.9927-35.958h5.9927m-5.9927-35.958h5.9927m-2.9964 215.75h361.56m-361.56 2.9965v-5.9931m35.956 5.9931v-5.9931m35.956 5.9931v-5.9931m36.955 5.9931v-5.9931m35.956 5.9931v-5.9931m35.956 5.9931v-5.9931m35.956 5.9931v-5.9931m35.956 5.9931v-5.9931m36.955 5.9931v-5.9931m35.956 5.9931v-5.9931m35.956 5.9931v-5.9931" clip-path="url(#clipEmfPath1-19)" fill="none" stroke="#000" stroke-linecap="round" stroke-linejoin="round" stroke-miterlimit="10" stroke-width=".99882px"/>
  <g transform="matrix(.26458 0 0 .26458 727.8 130.2)" clip-path="url(#clipEmfPath1-19)" fill="#000000" font-family="Arial" font-size="11px" font-weight="400" letter-spacing="0px" word-spacing="0px">
   <text transform="translate(41.827 228.61)" y="9.9580078" style="line-height:125%" xml:space="preserve"><tspan x="0" y="9.9580078"><tspan dx="0" dy="0" fill="#000000" font-family="Arial" font-size="11px" font-weight="400">0</tspan></tspan></text>
   <text transform="translate(41.827 228.61)" y="-26.000336" style="line-height:125%" xml:space="preserve"><tspan x="0" y="-26.000336"><tspan dx="0" dy="0" fill="#000000" font-family="Arial" font-size="11px" font-weight="400">5</tspan></tspan></text>
   <text transform="translate(41.827 228.61)" x="-5.9927301" y="-61.958679" style="line-height:125%" xml:space="preserve"><tspan x="-5.9927301" y="-61.958679"><tspan dx="0" dy="0" fill="#000000" font-family="Arial" font-size="11px" font-weight="400">10</tspan></tspan></text>
   <text transform="translate(41.827 228.61)" x="-5.9927301" y="-97.917023" style="line-height:125%" xml:space="preserve"><tspan x="-5.9927301" y="-97.917023"><tspan dx="0" dy="0" fill="#000000" font-family="Arial" font-size="11px" font-weight="400">15</tspan></tspan></text>
   <text transform="translate(41.827 228.61)" x="-5.9927301" y="-133.87537" style="line-height:125%" xml:space="preserve"><tspan x="-5.9927301" y="-133.87537"><tspan dx="0" dy="0" fill="#000000" font-family="Arial" font-size="11px" font-weight="400">20</tspan></tspan></text>
   <text transform="translate(41.827 228.61)" x="-5.9927301" y="-169.83371" style="line-height:125%" xml:space="preserve"><tspan x="-5.9927301" y="-169.83371"><tspan dx="0" dy="0" fill="#000000" font-family="Arial" font-size="11px" font-weight="400">25</tspan></tspan></text>
   <text transform="translate(41.827 228.61)" x="-5.9927301" y="-205.79205" style="line-height:125%" xml:space="preserve"><tspan x="-5.9927301" y="-205.79205"><tspan dx="0" dy="0" fill="#000000" font-family="Arial" font-size="11px" font-weight="400">30</tspan></tspan></text>
  </g>
  <g transform="matrix(.26458 0 0 .26458 727.8 130.2)" clip-path="url(#clipEmfPath1-19)" fill="#000000" font-family="Arial" font-size="11px" font-weight="400" letter-spacing="0px" word-spacing="0px">
   <text transform="translate(46.821 244.59)" y="9.9580078" style="line-height:125%" xml:space="preserve"><tspan x="0" y="9.9580078"><tspan dx="0" dy="0" fill="#000000" font-family="Arial" font-size="11px" font-weight="400">120</tspan></tspan></text>
   <text transform="translate(46.821 244.59)" x="35.956379" y="9.9580078" style="line-height:125%" xml:space="preserve"><tspan x="35.956379" y="9.9580078"><tspan dx="0" dy="0" fill="#000000" font-family="Arial" font-size="11px" font-weight="400">135</tspan></tspan></text>
   <text transform="translate(46.821 244.59)" x="71.912758" y="9.9580078" style="line-height:125%" xml:space="preserve"><tspan x="71.912758" y="9.9580078"><tspan dx="0" dy="0" fill="#000000" font-family="Arial" font-size="11px" font-weight="400">150</tspan></tspan></text>
   <text transform="translate(46.821 244.59)" x="108.86792" y="9.9580078" style="line-height:125%" xml:space="preserve"><tspan x="108.86792" y="9.9580078"><tspan dx="0" dy="0" fill="#000000" font-family="Arial" font-size="11px" font-weight="400">165</tspan></tspan></text>
   <text transform="translate(46.821 244.59)" x="144.8243" y="9.9580078" style="line-height:125%" xml:space="preserve"><tspan x="144.8243" y="9.9580078"><tspan dx="0" dy="0" fill="#000000" font-family="Arial" font-size="11px" font-weight="400">180</tspan></tspan></text>
   <text transform="translate(46.821 244.59)" x="180.78069" y="9.9580078" style="line-height:125%" xml:space="preserve"><tspan x="180.78069" y="9.9580078"><tspan dx="0" dy="0" fill="#000000" font-family="Arial" font-size="11px" font-weight="400">195</tspan></tspan></text>
   <text transform="translate(46.821 244.59)" x="216.73706" y="9.9580078" style="line-height:125%" xml:space="preserve"><tspan x="216.73706" y="9.9580078"><tspan dx="0" dy="0" fill="#000000" font-family="Arial" font-size="11px" font-weight="400">210</tspan></tspan></text>
   <text transform="translate(46.821 244.59)" x="252.69344" y="9.9580078" style="line-height:125%" xml:space="preserve"><tspan x="252.69344" y="9.9580078"><tspan dx="0" dy="0" fill="#000000" font-family="Arial" font-size="11px" font-weight="400">225</tspan></tspan></text>
   <text transform="translate(46.821 244.59)" x="289.64859" y="9.9580078" style="line-height:125%" xml:space="preserve"><tspan x="289.64859" y="9.9580078"><tspan dx="0" dy="0" fill="#000000" font-family="Arial" font-size="11px" font-weight="400">240</tspan></tspan></text>
   <text transform="translate(46.821 244.59)" x="325.60498" y="9.9580078" style="line-height:125%" xml:space="preserve"><tspan x="325.60498" y="9.9580078"><tspan dx="0" dy="0" fill="#000000" font-family="Arial" font-size="11px" font-weight="400">255</tspan></tspan></text>
   <text transform="translate(46.821 244.59)" x="361.56137" y="9.9580078" style="line-height:125%" xml:space="preserve"><tspan x="361.56137" y="9.9580078"><tspan dx="0" dy="0" fill="#000000" font-family="Arial" font-size="11px" font-weight="400">270</tspan></tspan></text>
  </g>
  <g transform="matrix(.26458 0 0 .26458 727.8 130.2)" clip-path="url(#clipEmfPath6-7)">
   <text transform="translate(185.65 265.57)" y="11.768555" fill="#000000" font-family="Arial" font-size="13px" font-weight="400" letter-spacing="0px" word-spacing="0px" style="line-height:125%" xml:space="preserve"><tspan x="0" y="11.768555"><tspan dx="0" dy="0" fill="#000000" font-family="Arial" font-size="13px" font-weight="400">Weights (pounds)</tspan></tspan></text>
  </g>
  <g transform="matrix(.26458 0 0 .26458 727.8 130.2)" clip-path="url(#clipEmfPath7-61)">
   <text transform="rotate(-90 86.278 72.417)" y="11.768555" fill="#000000" font-family="Arial" font-size="13px" font-weight="400" letter-spacing="0px" word-spacing="0px" style="line-height:125%" xml:space="preserve"><tspan x="0" y="11.768555"><tspan dx="0" dy="0" fill="#000000" font-family="Arial" font-size="13px" font-weight="400">Frequency</tspan></tspan></text>
  </g>
  <path transform="matrix(.26458 0 0 .26458 727.8 130.2)" d="m-0.12213-0.12186h437.47v296.66h-437.47z" clip-path="url(#clipEmfPath1-19)" fill="none" stroke="#000" stroke-linecap="round" stroke-linejoin="round" stroke-miterlimit="10" stroke-width=".99882px"/>
 </g>
</svg>
