<?xml version="1.0" encoding="UTF-8"?>
<!-- Created with Inkscape (http://www.inkscape.org/) -->
<svg width="66.438mm" height="56.675mm" version="1.1" viewBox="0 0 66.43787 56.67529" xmlns="http://www.w3.org/2000/svg" xmlns:cc="http://creativecommons.org/ns#" xmlns:dc="http://purl.org/dc/elements/1.1/" xmlns:rdf="http://www.w3.org/1999/02/22-rdf-syntax-ns#">
 <defs>
  <clipPath id="clipEmfPath1-72">
   <path d="m0 0h299.93v236.3h-299.93z"/>
  </clipPath>
  <clipPath id="clipEmfPath2-96">
   <path d="m3.9858 3.9881h291.96v228.32h-291.96z"/>
  </clipPath>
  <clipPath id="clipEmfPath3-47">
   <path d="m84.697 8.9733h129.54v29.911h-129.54z"/>
  </clipPath>
  <clipPath id="clipEmfPath4-94">
   <path d="m225.2 21.935h65.765v209.38h-65.765z"/>
  </clipPath>
 </defs>
 <metadata>
  <rdf:RDF>
   <cc:Work rdf:about="">
    <dc:format>image/svg+xml</dc:format>
    <dc:type rdf:resource="http://purl.org/dc/dcmitype/StillImage"/>
    <dc:title/>
   </cc:Work>
  </rdf:RDF>
 </metadata>
 <g transform="translate(-750.44 -97.722)">
  <g fill-rule="evenodd" stroke="#000" stroke-linecap="round" stroke-linejoin="round" stroke-miterlimit="10" stroke-width=".99673px">
   <path transform="matrix(.26458 0 0 .26458 740.03 93.064)" d="m114.09 136.09 17.418-72.205a74.257 74.257 0 0 0 -17.917 -2.072z" clip-path="url(#clipEmfPath2-96)" fill="#99f"/>
   <path transform="matrix(.26458 0 0 .26458 740.03 93.064)" d="m114.09 136.09 67.089-31.798a74.257 74.257 0 0 0 -49.67 -40.407z" clip-path="url(#clipEmfPath2-96)" fill="#936"/>
   <path transform="matrix(.26458 0 0 .26458 740.03 93.064)" d="m114.09 136.09 63.205 38.957a74.257 74.257 0 0 0 3.8835 -70.755z" clip-path="url(#clipEmfPath2-96)" fill="#ffc"/>
   <path transform="matrix(.26458 0 0 .26458 740.03 93.064)" d="m114.09 136.09-50.956 54.016a74.257 74.257 0 0 0 114.16 -15.058z" clip-path="url(#clipEmfPath2-96)" fill="#cff"/>
   <path transform="matrix(.26458 0 0 .26458 740.03 93.064)" d="m114.09 136.09-74.1 4.4785a74.257 74.257 0 0 0 23.143 49.537z" clip-path="url(#clipEmfPath2-96)" fill="#606"/>
   <path transform="matrix(.26458 0 0 .26458 740.03 93.064)" d="m114.09 136.09-67.27-31.411a74.257 74.257 0 0 0 -6.8294 35.89z" clip-path="url(#clipEmfPath2-96)" fill="#ff8080"/>
   <path transform="matrix(.26458 0 0 .26458 740.03 93.064)" d="m114.09 136.09-47.863-56.778a74.257 74.257 0 0 0 -19.407 25.367z" clip-path="url(#clipEmfPath2-96)" fill="#06c"/>
   <path transform="matrix(.26458 0 0 .26458 740.03 93.064)" d="m114.09 136.09-23.475-70.467a74.257 74.257 0 0 0 -24.388 13.689z" clip-path="url(#clipEmfPath2-96)" fill="#ccf"/>
   <path transform="matrix(.26458 0 0 .26458 740.03 93.064)" d="m114.09 136.09-14.368-72.874a74.257 74.257 0 0 0 -9.1071 2.4072z" clip-path="url(#clipEmfPath2-96)" fill="#000080"/>
   <path transform="matrix(.26458 0 0 .26458 740.03 93.064)" d="m114.09 136.09-0.49821-74.277a74.257 74.257 0 0 0 -13.87 1.4029z" clip-path="url(#clipEmfPath2-96)" fill="#f0f"/>
  </g>
  <g transform="matrix(.26458 0 0 .26458 740.03 93.064)" clip-path="url(#clipEmfPath3-47)">
   <text transform="translate(87.687 14.955)" y="13.522522" fill="#000000" font-family="Arial" font-size="14.938px" font-weight="700" letter-spacing="0px" word-spacing="0px" style="line-height:125%" xml:space="preserve"><tspan x="0" y="13.522522"><tspan dx="0" dy="0" fill="#000000" font-family="Arial" font-size="14.938px" font-weight="700">Weights (pounds)</tspan></tspan></text>
  </g>
  <path transform="matrix(.26458 0 0 .26458 740.03 93.064)" d="m225.2 21.935h64.769v209.38h-64.769z" clip-path="url(#clipEmfPath1-72)" fill="#fff" fill-rule="evenodd" stroke="#000" stroke-linecap="round" stroke-linejoin="round" stroke-miterlimit="10" stroke-width=".99673px"/>
  <path transform="matrix(.26458 0 0 .26458 740.03 93.064)" d="m230.18 29.911h6.9751v6.9792h-6.9751z" clip-path="url(#clipEmfPath4-94)" fill="#99f" fill-rule="evenodd" stroke="#000" stroke-linecap="round" stroke-linejoin="round" stroke-miterlimit="10" stroke-width=".99673px"/>
  <g transform="matrix(.26458 0 0 .26458 740.03 93.064)" clip-path="url(#clipEmfPath4-94)">
   <text transform="translate(241.14 37.887)" fill="#000000" font-family="Arial" font-size="12.938px" font-weight="700" letter-spacing="0px" word-spacing="0px" style="line-height:125%" xml:space="preserve"><tspan x="0" y="0"><tspan dx="0" dy="0" fill="#000000" font-family="Arial" font-size="12.938px" font-weight="700">120-134</tspan></tspan></text>
  </g>
  <path transform="matrix(.26458 0 0 .26458 740.03 93.064)" d="m230.18 50.848h6.9751v6.9792h-6.9751z" clip-path="url(#clipEmfPath4-94)" fill="#936" fill-rule="evenodd" stroke="#000" stroke-linecap="round" stroke-linejoin="round" stroke-miterlimit="10" stroke-width=".99673px"/>
  <g transform="matrix(.26458 0 0 .26458 740.03 93.064)" clip-path="url(#clipEmfPath4-94)">
   <text transform="translate(241.14 58.825)" fill="#000000" font-family="Arial" font-size="12.938px" font-weight="700" letter-spacing="0px" word-spacing="0px" style="line-height:125%" xml:space="preserve"><tspan x="0" y="0"><tspan dx="0" dy="0" fill="#000000" font-family="Arial" font-size="12.938px" font-weight="700">135-149</tspan></tspan></text>
  </g>
  <path transform="matrix(.26458 0 0 .26458 740.03 93.064)" d="m230.18 71.786h6.9751v6.9792h-6.9751z" clip-path="url(#clipEmfPath4-94)" fill="#ffc" fill-rule="evenodd" stroke="#000" stroke-linecap="round" stroke-linejoin="round" stroke-miterlimit="10" stroke-width=".99673px"/>
  <g transform="matrix(.26458 0 0 .26458 740.03 93.064)" clip-path="url(#clipEmfPath4-94)">
   <text transform="translate(241.14 79.762)" fill="#000000" font-family="Arial" font-size="12.938px" font-weight="700" letter-spacing="0px" word-spacing="0px" style="line-height:125%" xml:space="preserve"><tspan x="0" y="0"><tspan dx="0" dy="0" fill="#000000" font-family="Arial" font-size="12.938px" font-weight="700">150-164</tspan></tspan></text>
  </g>
  <path transform="matrix(.26458 0 0 .26458 740.03 93.064)" d="m230.18 92.724h6.9751v6.9792h-6.9751z" clip-path="url(#clipEmfPath4-94)" fill="#cff" fill-rule="evenodd" stroke="#000" stroke-linecap="round" stroke-linejoin="round" stroke-miterlimit="10" stroke-width=".99673px"/>
  <g transform="matrix(.26458 0 0 .26458 740.03 93.064)" clip-path="url(#clipEmfPath4-94)">
   <text transform="translate(241.14 100.7)" fill="#000000" font-family="Arial" font-size="12.938px" font-weight="700" letter-spacing="0px" word-spacing="0px" style="line-height:125%" xml:space="preserve"><tspan x="0" y="0"><tspan dx="0" dy="0" fill="#000000" font-family="Arial" font-size="12.938px" font-weight="700">165-179</tspan></tspan></text>
  </g>
  <path transform="matrix(.26458 0 0 .26458 740.03 93.064)" d="m230.18 113.66h6.9751v6.9792h-6.9751z" clip-path="url(#clipEmfPath4-94)" fill="#606" fill-rule="evenodd" stroke="#000" stroke-linecap="round" stroke-linejoin="round" stroke-miterlimit="10" stroke-width=".99673px"/>
  <g transform="matrix(.26458 0 0 .26458 740.03 93.064)" clip-path="url(#clipEmfPath4-94)">
   <text transform="translate(241.14 121.64)" fill="#000000" font-family="Arial" font-size="12.938px" font-weight="700" letter-spacing="0px" word-spacing="0px" style="line-height:125%" xml:space="preserve"><tspan x="0" y="0"><tspan dx="0" dy="0" fill="#000000" font-family="Arial" font-size="12.938px" font-weight="700">180-194</tspan></tspan></text>
  </g>
  <path transform="matrix(.26458 0 0 .26458 740.03 93.064)" d="m230.18 134.6h6.9751v6.9792h-6.9751z" clip-path="url(#clipEmfPath4-94)" fill="#ff8080" fill-rule="evenodd" stroke="#000" stroke-linecap="round" stroke-linejoin="round" stroke-miterlimit="10" stroke-width=".99673px"/>
  <g transform="matrix(.26458 0 0 .26458 740.03 93.064)" clip-path="url(#clipEmfPath4-94)">
   <text transform="translate(241.14 142.57)" fill="#000000" font-family="Arial" font-size="12.938px" font-weight="700" letter-spacing="0px" word-spacing="0px" style="line-height:125%" xml:space="preserve"><tspan x="0" y="0"><tspan dx="0" dy="0" fill="#000000" font-family="Arial" font-size="12.938px" font-weight="700">195-209</tspan></tspan></text>
  </g>
  <path transform="matrix(.26458 0 0 .26458 740.03 93.064)" d="m230.18 155.54h6.9751v6.9792h-6.9751z" clip-path="url(#clipEmfPath4-94)" fill="#06c" fill-rule="evenodd" stroke="#000" stroke-linecap="round" stroke-linejoin="round" stroke-miterlimit="10" stroke-width=".99673px"/>
  <g transform="matrix(.26458 0 0 .26458 740.03 93.064)" clip-path="url(#clipEmfPath4-94)">
   <text transform="translate(241.14 163.51)" fill="#000000" font-family="Arial" font-size="12.938px" font-weight="700" letter-spacing="0px" word-spacing="0px" style="line-height:125%" xml:space="preserve"><tspan x="0" y="0"><tspan dx="0" dy="0" fill="#000000" font-family="Arial" font-size="12.938px" font-weight="700">210-224</tspan></tspan></text>
  </g>
  <path transform="matrix(.26458 0 0 .26458 740.03 93.064)" d="m230.18 176.47h6.9751v6.9792h-6.9751z" clip-path="url(#clipEmfPath4-94)" fill="#ccf" fill-rule="evenodd" stroke="#000" stroke-linecap="round" stroke-linejoin="round" stroke-miterlimit="10" stroke-width=".99673px"/>
  <g transform="matrix(.26458 0 0 .26458 740.03 93.064)" clip-path="url(#clipEmfPath4-94)">
   <text transform="translate(241.14 184.45)" fill="#000000" font-family="Arial" font-size="12.938px" font-weight="700" letter-spacing="0px" word-spacing="0px" style="line-height:125%" xml:space="preserve"><tspan x="0" y="0"><tspan dx="0" dy="0" fill="#000000" font-family="Arial" font-size="12.938px" font-weight="700">225-239</tspan></tspan></text>
  </g>
  <path transform="matrix(.26458 0 0 .26458 740.03 93.064)" d="m230.18 197.41h6.9751v6.9792h-6.9751z" clip-path="url(#clipEmfPath4-94)" fill="#000080" fill-rule="evenodd" stroke="#000" stroke-linecap="round" stroke-linejoin="round" stroke-miterlimit="10" stroke-width=".99673px"/>
  <g transform="matrix(.26458 0 0 .26458 740.03 93.064)" clip-path="url(#clipEmfPath4-94)">
   <text transform="translate(241.14 205.39)" fill="#000000" font-family="Arial" font-size="12.938px" font-weight="700" letter-spacing="0px" word-spacing="0px" style="line-height:125%" xml:space="preserve"><tspan x="0" y="0"><tspan dx="0" dy="0" fill="#000000" font-family="Arial" font-size="12.938px" font-weight="700">240-254</tspan></tspan></text>
  </g>
  <path transform="matrix(.26458 0 0 .26458 740.03 93.064)" d="m230.18 218.35h6.9751v6.9792h-6.9751z" clip-path="url(#clipEmfPath4-94)" fill="#f0f" fill-rule="evenodd" stroke="#000" stroke-linecap="round" stroke-linejoin="round" stroke-miterlimit="10" stroke-width=".99673px"/>
  <g transform="matrix(.26458 0 0 .26458 740.03 93.064)" clip-path="url(#clipEmfPath4-94)">
   <text transform="translate(241.14 226.33)" fill="#000000" font-family="Arial" font-size="12.938px" font-weight="700" letter-spacing="0px" word-spacing="0px" style="line-height:125%" xml:space="preserve"><tspan x="0" y="0"><tspan dx="0" dy="0" fill="#000000" font-family="Arial" font-size="12.938px" font-weight="700">255-269</tspan></tspan></text>
  </g>
 </g>
</svg>
