<?xml version="1.0" encoding="UTF-8"?>
<!-- Created with Inkscape (http://www.inkscape.org/) -->
<svg width="57.972mm" height="53.783mm" version="1.1" viewBox="0 0 57.971863 53.782793" xmlns="http://www.w3.org/2000/svg" xmlns:cc="http://creativecommons.org/ns#" xmlns:dc="http://purl.org/dc/elements/1.1/" xmlns:rdf="http://www.w3.org/1999/02/22-rdf-syntax-ns#">
 <defs>
  <clipPath id="clipEmfPath1-67">
   <path d="m0 0h302.63v225.74h-302.63z"/>
  </clipPath>
  <clipPath id="clipEmfPath2-28">
   <path d="m3.9952 3.9954h294.64v217.75h-294.64z"/>
  </clipPath>
  <clipPath id="clipEmfPath3-457">
   <path d="m126.85 3.9954h117.86v24.971h-117.86z"/>
  </clipPath>
  <clipPath id="clipEmfPath4-912">
   <path d="m169.79 184.79h25.969v37.956h-25.969z"/>
  </clipPath>
  <clipPath id="clipEmfPath5-25">
   <path d="m17.978 130.85h25.969v37.956h-25.969z"/>
  </clipPath>
  <clipPath id="clipEmfPath6-856">
   <path d="m41.949 27.968h19.976v37.956h-19.976z"/>
  </clipPath>
  <clipPath id="clipEmfPath7-14">
   <path d="m78.905 3.9954h19.976v37.956h-19.976z"/>
  </clipPath>
  <clipPath id="clipEmfPath8-73">
   <path d="m183.78 32.962h25.969v37.956h-25.969z"/>
  </clipPath>
 </defs>
 <metadata>
  <rdf:RDF>
   <cc:Work rdf:about="">
    <dc:format>image/svg+xml</dc:format>
    <dc:type rdf:resource="http://purl.org/dc/dcmitype/StillImage"/>
    <dc:title/>
   </cc:Work>
  </rdf:RDF>
 </metadata>
 <g transform="translate(-850.04 -87.039)">
  <g>
   <text x="844.27863" y="88.051308" fill="#000000" font-family="Calibri" font-size="3.8861px" font-weight="400" letter-spacing="0px" stroke-width=".26458" word-spacing="0px" style="line-height:125%" xml:space="preserve"><tspan x="0" y="0" stroke-width=".26458"><tspan dx="0" dy="0" fill="#000000" font-family="Calibri" font-size="3.8861px" font-weight="400" stroke-width=".26458"/></tspan></text>
   <g fill-rule="evenodd" stroke="#000" stroke-linecap="round" stroke-linejoin="round" stroke-miterlimit="10" stroke-width=".99882px">
    <path transform="matrix(.26458 0 0 .26458 844.28 84.413)" d="m121.85 119.86 80.704-13.95a81.903 81.903 0 0 0 -80.704 -67.956z" clip-path="url(#clipEmfPath2-28)" fill="#99f"/>
    <path transform="matrix(.26458 0 0 .26458 844.28 84.413)" d="m121.85 119.86-37.027 73.057a81.903 81.903 0 0 0 117.73 -87.007z" clip-path="url(#clipEmfPath2-28)" fill="#936"/>
    <path transform="matrix(.26458 0 0 .26458 844.28 84.413)" d="m121.85 119.86-70.925-40.959a81.903 81.903 0 0 0 33.898 114.02z" clip-path="url(#clipEmfPath2-28)" fill="#ffc"/>
    <path transform="matrix(.26458 0 0 .26458 844.28 84.413)" d="m121.85 119.86-44.74-68.605a81.903 81.903 0 0 0 -26.185 27.646z" clip-path="url(#clipEmfPath2-28)" fill="#cff"/>
    <path transform="matrix(.26458 0 0 .26458 844.28 84.413)" d="m121.85 119.86v-81.905a81.903 81.903 0 0 0 -44.74 13.301z" clip-path="url(#clipEmfPath2-28)" fill="#606"/>
   </g>
  </g>
  <g transform="matrix(.26458 0 0 .26458 844.28 84.413)" clip-path="url(#clipEmfPath3-457)">
   <text transform="translate(129.84 8.9896)" y="9.75" fill="#000000" font-family="Calibri" font-size="13px" font-weight="700" letter-spacing="0px" word-spacing="0px" style="line-height:125%" xml:space="preserve"><tspan x="0" y="9.75"><tspan dx="0" dy="0" fill="#000000" font-family="Calibri" font-size="13px" font-weight="700">History Exam Grades</tspan></tspan></text>
  </g>
  <path transform="matrix(.26458 0 0 .26458 844.28 84.413)" d="m184.78 51.94h-4.994l-4.994 4.9942" clip-path="url(#clipEmfPath1-67)" fill="none" stroke="#000" stroke-linecap="round" stroke-linejoin="round" stroke-miterlimit="10" stroke-width=".99882px"/>
  <g transform="matrix(.26458 0 0 .26458 844.28 84.413)" clip-path="url(#clipEmfPath4-912)">
   <text transform="translate(179.78 189.78)" x="3.0830081" y="8.25" fill="#000000" font-family="Calibri" font-size="11px" font-weight="700" letter-spacing="0px" text-align="center" text-anchor="middle" word-spacing="0px" style="line-height:136.20642424%" xml:space="preserve"><tspan x="3.0830081" y="8.25"><tspan dx="0" dy="0" fill="#000000" font-family="Calibri" font-size="11px" font-weight="700">B</tspan></tspan><tspan x="3.0830081" y="23.232706"><tspan dx="0" dy="0" fill="#000000" font-family="Calibri" font-size="11px" font-weight="700">36%</tspan></tspan></text>
  </g>
  <g transform="matrix(.26458 0 0 .26458 844.28 84.413)" clip-path="url(#clipEmfPath5-25)">
   <text transform="translate(27.966 135.84)" x="2.9111331" y="8.25" fill="#000000" font-family="Calibri" font-size="11px" font-weight="700" letter-spacing="0px" text-align="center" text-anchor="middle" word-spacing="0px" style="line-height:136.20642424%" xml:space="preserve"><tspan x="2.9111331" y="8.25"><tspan dx="0" dy="0" fill="#000000" font-family="Calibri" font-size="11px" font-weight="700">C</tspan></tspan><tspan x="2.9111331" y="23.232706"><tspan dx="0" dy="0" fill="#000000" font-family="Calibri" font-size="11px" font-weight="700">26%</tspan></tspan></text>
  </g>
  <g transform="matrix(.26458 0 0 .26458 844.28 84.413)" clip-path="url(#clipEmfPath6-856)" fill="#000000" font-family="Calibri" font-size="11px" font-weight="700" letter-spacing="0px" word-spacing="0px">
   <text transform="translate(48.941 32.962)" y="8.25" style="line-height:125%" xml:space="preserve"><tspan x="0" y="8.25"><tspan dx="0" dy="0" fill="#000000" font-family="Calibri" font-size="11px" font-weight="700">D</tspan></tspan></text>
   <text transform="translate(48.941 32.962)" x="-3.995167" y="23.232706" style="line-height:125%" xml:space="preserve"><tspan x="-3.995167" y="23.232706"><tspan dx="0" dy="0" fill="#000000" font-family="Calibri" font-size="11px" font-weight="700">7%</tspan></tspan></text>
  </g>
  <g transform="matrix(.26458 0 0 .26458 844.28 84.413)" clip-path="url(#clipEmfPath7-14)" fill="#000000" font-family="Calibri" font-size="11px" font-weight="700" letter-spacing="0px" word-spacing="0px">
   <text transform="translate(86.895 8.9896)" y="8.25" style="line-height:125%" xml:space="preserve"><tspan x="0" y="8.25"><tspan dx="0" dy="0" fill="#000000" font-family="Calibri" font-size="11px" font-weight="700">F</tspan></tspan></text>
   <text transform="translate(86.895 8.9896)" x="-4.993959" y="23.232706" style="line-height:125%" xml:space="preserve"><tspan x="-4.993959" y="23.232706"><tspan dx="0" dy="0" fill="#000000" font-family="Calibri" font-size="11px" font-weight="700">9%</tspan></tspan></text>
  </g>
  <g transform="matrix(.26458 0 0 .26458 844.28 84.413)" clip-path="url(#clipEmfPath8-73)" fill="#000000" font-family="Calibri" font-size="11px" font-weight="700" letter-spacing="0px" word-spacing="0px">
   <text transform="translate(193.77 37.956)" y="8.25" style="line-height:125%" xml:space="preserve"><tspan x="0" y="8.25"><tspan dx="0" dy="0" fill="#000000" font-family="Calibri" font-size="11px" font-weight="700">A</tspan></tspan></text>
   <text transform="translate(193.77 37.956)" x="-6.9915419" y="23.232706" style="line-height:125%" xml:space="preserve"><tspan x="-6.9915419" y="23.232706"><tspan dx="0" dy="0" fill="#000000" font-family="Calibri" font-size="11px" font-weight="700">22%</tspan></tspan></text>
  </g>
 </g>
</svg>
