<?xml version="1.0" encoding="UTF-8"?>
<!-- Created with Inkscape (http://www.inkscape.org/) -->
<svg width="56.943mm" height="46.678mm" version="1.1" viewBox="0 0 56.942661 46.678152" xmlns="http://www.w3.org/2000/svg" xmlns:cc="http://creativecommons.org/ns#" xmlns:dc="http://purl.org/dc/elements/1.1/" xmlns:rdf="http://www.w3.org/1999/02/22-rdf-syntax-ns#">
 <defs>
  <clipPath id="clipEmfPath1-77">
   <path d="m0 0.47963h252.77v221.91h-252.77z"/>
  </clipPath>
  <clipPath id="clipEmfPath2-57">
   <path d="m58.331 22.024h179.31v134.65h-179.31z"/>
  </clipPath>
  <clipPath id="clipEmfPath5-77">
   <path d="m58.331 25.256h181.47v126.04h-181.47z"/>
  </clipPath>
  <clipPath id="clipEmfPath6-60">
   <path d="m84.255 182.53h126.38v23.699h-126.38z"/>
  </clipPath>
  <clipPath id="clipEmfPath7-06">
   <path d="m16.203 54.341h22.684v71.097h-22.684z"/>
  </clipPath>
 </defs>
 <metadata>
  <rdf:RDF>
   <cc:Work rdf:about="">
    <dc:format>image/svg+xml</dc:format>
    <dc:type rdf:resource="http://purl.org/dc/dcmitype/StillImage"/>
    <dc:title/>
   </cc:Work>
  </rdf:RDF>
 </metadata>
 <g transform="translate(-837.8 -136.93)">
  <text x="832.00879" y="134.67174" fill="#000000" font-family="Calibri" font-size="3.8861px" font-weight="400" letter-spacing="0px" stroke-width=".26458" word-spacing="0px" style="line-height:125%" xml:space="preserve"><tspan x="0" y="0" stroke-width=".26458"><tspan dx="0" dy="0" fill="#000000" font-family="Calibri" font-size="3.8861px" font-weight="400" stroke-width=".26458"/></tspan></text>
  <g fill="none">
   <path transform="matrix(.26458 0 0 .26458 832.01 131.03)" d="m58.331 27.41h178.23v123.88h-178.23z" clip-path="url(#clipEmfPath1-77)"/>
   <path transform="matrix(.26458 0 0 .26458 832.01 131.03)" d="m58.331 130.82h178.23m-178.23-20.467h178.23m-178.23-20.467h178.23m-178.23-20.467h178.23m-178.23-21.545h178.23m-178.23-20.467h178.23" clip-path="url(#clipEmfPath2-57)" stroke="#000" stroke-linecap="round" stroke-linejoin="round" stroke-width="1.0802px"/>
   <path transform="matrix(.26458 0 0 .26458 832.01 131.03)" d="m58.331 27.41h178.23v123.88h-178.23v-123.88" clip-path="url(#clipEmfPath1-77)" stroke="#808080" stroke-linecap="round" stroke-linejoin="round" stroke-width="1.0802px"/>
  </g>
  <g fill="#99f" fill-rule="evenodd" stroke="#000" stroke-linecap="round" stroke-linejoin="round" stroke-width="1.0802px">
   <path transform="matrix(.26458 0 0 .26458 832.01 131.03)" d="m66.972 47.878h12.962v103.41h-12.962z" clip-path="url(#clipEmfPath5-77)"/>
   <path transform="matrix(.26458 0 0 .26458 832.01 131.03)" d="m97.218 89.89h11.882v61.402h-11.882z" clip-path="url(#clipEmfPath5-77)"/>
   <path transform="matrix(.26458 0 0 .26458 832.01 131.03)" d="m127.46 69.422h11.882v81.87h-11.882z" clip-path="url(#clipEmfPath5-77)"/>
   <path transform="matrix(.26458 0 0 .26458 832.01 131.03)" d="m156.63 110.36h11.882v40.935h-11.882z" clip-path="url(#clipEmfPath5-77)"/>
   <path transform="matrix(.26458 0 0 .26458 832.01 131.03)" d="m216.04 130.82h11.882v20.467h-11.882z" clip-path="url(#clipEmfPath5-77)"/>
  </g>
  <path transform="matrix(.26458 0 0 .26458 832.01 131.03)" d="m58.331 27.41v123.88m-4.3208 0h4.3208m-4.3208-20.467h4.3208m-4.3208-20.467h4.3208m-4.3208-20.467h4.3208m-4.3208-20.467h4.3208m-4.3208-21.545h4.3208m-4.3208-20.467h4.3208m0 123.88h178.23m-178.23 4.3089v-4.3089m30.246 4.3089v-4.3089m29.165 4.3089v-4.3089m30.246 4.3089v-4.3089m29.165 4.3089v-4.3089m30.246 4.3089v-4.3089m29.165 4.3089v-4.3089" clip-path="url(#clipEmfPath1-77)" fill="none" stroke="#000" stroke-linecap="round" stroke-linejoin="round" stroke-width="1.0802px"/>
  <g transform="matrix(.26458 0 0 .26458 832.01 131.03)" clip-path="url(#clipEmfPath1-77)" fill="#000000" font-family="Arial" font-size="12.938px" font-weight="700" letter-spacing="0px" word-spacing="0px">
   <text transform="translate(41.047 143.75)" y="11.711975" style="line-height:125%" xml:space="preserve"><tspan x="0" y="11.711975"><tspan dx="0" dy="0" fill="#000000" font-family="Arial" font-size="12.938px" font-weight="700">0</tspan></tspan></text>
   <text transform="translate(41.047 143.75)" y="-8.7554312" style="line-height:125%" xml:space="preserve"><tspan x="0" y="-8.7554312"><tspan dx="0" dy="0" fill="#000000" font-family="Arial" font-size="12.938px" font-weight="700">1</tspan></tspan></text>
   <text transform="translate(41.047 143.75)" y="-29.222837" style="line-height:125%" xml:space="preserve"><tspan x="0" y="-29.222837"><tspan dx="0" dy="0" fill="#000000" font-family="Arial" font-size="12.938px" font-weight="700">2</tspan></tspan></text>
   <text transform="translate(41.047 143.75)" y="-50.767475" style="line-height:125%" xml:space="preserve"><tspan x="0" y="-50.767475"><tspan dx="0" dy="0" fill="#000000" font-family="Arial" font-size="12.938px" font-weight="700">3</tspan></tspan></text>
   <text transform="translate(41.047 143.75)" y="-71.234886" style="line-height:125%" xml:space="preserve"><tspan x="0" y="-71.234886"><tspan dx="0" dy="0" fill="#000000" font-family="Arial" font-size="12.938px" font-weight="700">4</tspan></tspan></text>
   <text transform="translate(41.047 143.75)" y="-91.702293" style="line-height:125%" xml:space="preserve"><tspan x="0" y="-91.702293"><tspan dx="0" dy="0" fill="#000000" font-family="Arial" font-size="12.938px" font-weight="700">5</tspan></tspan></text>
   <text transform="translate(41.047 143.75)" y="-112.16969" style="line-height:125%" xml:space="preserve"><tspan x="0" y="-112.16969"><tspan dx="0" dy="0" fill="#000000" font-family="Arial" font-size="12.938px" font-weight="700">6</tspan></tspan></text>
  </g>
  <g transform="matrix(.26458 0 0 .26458 832.01 131.03)" clip-path="url(#clipEmfPath1-77)" fill="#000000" font-family="Arial" font-size="12.938px" font-weight="700" letter-spacing="0px" word-spacing="0px">
   <text transform="translate(70.213 163.14)" y="11.711975" style="line-height:125%" xml:space="preserve"><tspan x="0" y="11.711975"><tspan dx="0" dy="0" fill="#000000" font-family="Arial" font-size="12.938px" font-weight="700">0</tspan></tspan></text>
   <text transform="translate(70.213 163.14)" x="29.165319" y="11.711975" style="line-height:125%" xml:space="preserve"><tspan x="29.165319" y="11.711975"><tspan dx="0" dy="0" fill="#000000" font-family="Arial" font-size="12.938px" font-weight="700">1</tspan></tspan></text>
   <text transform="translate(70.213 163.14)" x="59.410835" y="11.711975" style="line-height:125%" xml:space="preserve"><tspan x="59.410835" y="11.711975"><tspan dx="0" dy="0" fill="#000000" font-family="Arial" font-size="12.938px" font-weight="700">2</tspan></tspan></text>
   <text transform="translate(70.213 163.14)" x="88.576157" y="11.711975" style="line-height:125%" xml:space="preserve"><tspan x="88.576157" y="11.711975"><tspan dx="0" dy="0" fill="#000000" font-family="Arial" font-size="12.938px" font-weight="700">3</tspan></tspan></text>
   <text transform="translate(70.213 163.14)" x="118.82167" y="11.711975" style="line-height:125%" xml:space="preserve"><tspan x="118.82167" y="11.711975"><tspan dx="0" dy="0" fill="#000000" font-family="Arial" font-size="12.938px" font-weight="700">4</tspan></tspan></text>
   <text transform="translate(70.213 163.14)" x="147.987" y="11.711975" style="line-height:125%" xml:space="preserve"><tspan x="147.987" y="11.711975"><tspan dx="0" dy="0" fill="#000000" font-family="Arial" font-size="12.938px" font-weight="700">5</tspan></tspan></text>
  </g>
  <g transform="matrix(.26458 0 0 .26458 832.01 131.03)" clip-path="url(#clipEmfPath6-60)">
   <text transform="translate(86.416 186.84)" y="11.711975" fill="#000000" font-family="Arial" font-size="12.938px" font-weight="700" letter-spacing="0px" word-spacing="0px" style="line-height:125%" xml:space="preserve"><tspan x="0" y="11.711975"><tspan dx="0" dy="0" fill="#000000" font-family="Arial" font-size="12.938px" font-weight="700">Number of children</tspan></tspan></text>
  </g>
  <g transform="matrix(.26458 0 0 .26458 832.01 131.03)" clip-path="url(#clipEmfPath7-06)">
   <text transform="rotate(-90 71.364 51.92)" y="11.711975" fill="#000000" font-family="Arial" font-size="12.938px" font-weight="700" letter-spacing="0px" word-spacing="0px" style="line-height:125%" xml:space="preserve"><tspan x="0" y="11.711975"><tspan dx="0" dy="0" fill="#000000" font-family="Arial" font-size="12.938px" font-weight="700">Frequency</tspan></tspan></text>
  </g>
 </g>
</svg>
