<?xml version="1.0" encoding="UTF-8"?>
<!-- Created with Inkscape (http://www.inkscape.org/) -->
<svg width="75.945mm" height="46.95mm" version="1.1" viewBox="0 0 75.945256 46.950231" xmlns="http://www.w3.org/2000/svg" xmlns:cc="http://creativecommons.org/ns#" xmlns:dc="http://purl.org/dc/elements/1.1/" xmlns:rdf="http://www.w3.org/1999/02/22-rdf-syntax-ns#">
 <defs>
  <clipPath id="clipEmfPath1-584">
   <path d="m0.15988 0.15988h322.62v221.59h-322.62z"/>
  </clipPath>
  <clipPath id="clipEmfPath2-30">
   <path d="m63.085 21.121h245.71v137.74h-245.71z"/>
  </clipPath>
  <clipPath id="clipEmfPath5-29">
   <path d="m63.085 23.117h247.71v131.75h-247.71z"/>
  </clipPath>
  <clipPath id="clipEmfPath6-25">
   <path d="m-0.83894-0.83825h324.62v223.58h-324.62z"/>
  </clipPath>
  <clipPath id="clipEmfPath7-172">
   <path d="m129.01 182.82h113.86v23.955h-113.86z"/>
  </clipPath>
  <clipPath id="clipEmfPath8-30">
   <path d="m15.142 48.07h23.972v84.841h-23.972z"/>
  </clipPath>
 </defs>
 <metadata>
  <rdf:RDF>
   <cc:Work rdf:about="">
    <dc:format>image/svg+xml</dc:format>
    <dc:type rdf:resource="http://purl.org/dc/dcmitype/StillImage"/>
    <dc:title/>
   </cc:Work>
  </rdf:RDF>
 </metadata>
 <g transform="translate(-850.21 -132.82)">
  <text x="844.58038" y="131.06921" fill="#000000" font-family="Calibri" font-size="3.8861px" font-weight="400" letter-spacing="0px" stroke-width=".26458" word-spacing="0px" style="line-height:125%" xml:space="preserve"><tspan x="0" y="0" stroke-width=".26458"><tspan dx="0" dy="0" fill="#000000" font-family="Calibri" font-size="3.8861px" font-weight="400" stroke-width=".26458"/></tspan></text>
  <g fill="none">
   <path transform="matrix(.26458 0 0 .26458 844.58 127.43)" d="m64.084 26.111h243.71v127.76h-243.71z" clip-path="url(#clipEmfPath1-584)"/>
   <path transform="matrix(.26458 0 0 .26458 844.58 127.43)" d="m64.084 121.93h243.71m-243.71-31.94h243.71m-243.71-31.94h243.71m-243.71-31.94h243.71" clip-path="url(#clipEmfPath2-30)" stroke="#000" stroke-linecap="round" stroke-linejoin="round" stroke-miterlimit="10" stroke-width=".99847px"/>
   <path transform="matrix(.26458 0 0 .26458 844.58 127.43)" d="m64.084 26.111h243.71v127.76h-243.71v-127.76" clip-path="url(#clipEmfPath1-584)" stroke="#808080" stroke-linecap="round" stroke-linejoin="round" stroke-miterlimit="10" stroke-width=".99847px"/>
  </g>
  <g fill="#99f" fill-rule="evenodd" stroke="#000" stroke-linecap="round" stroke-linejoin="round" stroke-miterlimit="10" stroke-width=".99847px">
   <path transform="matrix(.26458 0 0 .26458 844.58 127.43)" d="m82.063 74.022h23.972v79.85h-23.972z" clip-path="url(#clipEmfPath5-29)"/>
   <path transform="matrix(.26458 0 0 .26458 844.58 127.43)" d="m142.99 42.081h23.972v111.79h-23.972z" clip-path="url(#clipEmfPath5-29)"/>
   <path transform="matrix(.26458 0 0 .26458 844.58 127.43)" d="m203.92 74.022h23.972v79.85h-23.972z" clip-path="url(#clipEmfPath5-29)"/>
   <path transform="matrix(.26458 0 0 .26458 844.58 127.43)" d="m264.85 105.96h23.972v47.91h-23.972z" clip-path="url(#clipEmfPath5-29)"/>
  </g>
  <path transform="matrix(.26458 0 0 .26458 844.58 127.43)" d="m64.084 26.111v127.76m-3.9953 0h3.9953m-3.9953-31.94h3.9953m-3.9953-31.94h3.9953m-3.9953-31.94h3.9953m-3.9953-31.94h3.9953m0 127.76h243.71m-243.71 3.9925v-3.9925m60.928 3.9925v-3.9925m60.928 3.9925v-3.9925m60.928 3.9925v-3.9925m60.928 3.9925v-3.9925" clip-path="url(#clipEmfPath1-584)" fill="none" stroke="#000" stroke-linecap="round" stroke-linejoin="round" stroke-miterlimit="10" stroke-width=".99847px"/>
  <g transform="matrix(.26458 0 0 .26458 844.58 127.43)" clip-path="url(#clipEmfPath6-25)" fill="#000000" font-family="Arial" font-size="12px" font-weight="700" letter-spacing="0px" word-spacing="0px">
   <text transform="translate(47.104 145.89)" y="10.863281" style="line-height:125%" xml:space="preserve"><tspan x="0" y="10.863281"><tspan dx="0" dy="0" fill="#000000" font-family="Arial" font-size="12px" font-weight="700">0</tspan></tspan></text>
   <text transform="translate(47.104 145.89)" x="-6.9917111" y="-21.0769" style="line-height:125%" xml:space="preserve"><tspan x="-6.9917111" y="-21.0769"><tspan dx="0" dy="0" fill="#000000" font-family="Arial" font-size="12px" font-weight="700">10</tspan></tspan></text>
   <text transform="translate(47.104 145.89)" x="-6.9917111" y="-53.017082" style="line-height:125%" xml:space="preserve"><tspan x="-6.9917111" y="-53.017082"><tspan dx="0" dy="0" fill="#000000" font-family="Arial" font-size="12px" font-weight="700">20</tspan></tspan></text>
   <text transform="translate(47.104 145.89)" x="-6.9917111" y="-84.957268" style="line-height:125%" xml:space="preserve"><tspan x="-6.9917111" y="-84.957268"><tspan dx="0" dy="0" fill="#000000" font-family="Arial" font-size="12px" font-weight="700">30</tspan></tspan></text>
   <text transform="translate(47.104 145.89)" x="-6.9917111" y="-116.89745" style="line-height:125%" xml:space="preserve"><tspan x="-6.9917111" y="-116.89745"><tspan dx="0" dy="0" fill="#000000" font-family="Arial" font-size="12px" font-weight="700">40</tspan></tspan></text>
  </g>
  <g transform="matrix(.26458 0 0 .26458 844.58 127.43)" clip-path="url(#clipEmfPath6-25)" fill="#000000" font-family="Arial" font-size="12px" font-weight="700" letter-spacing="0px" word-spacing="0px">
   <text transform="translate(91.052 164.85)" y="10.863281" style="line-height:125%" xml:space="preserve"><tspan x="0" y="10.863281"><tspan dx="0" dy="0" fill="#000000" font-family="Arial" font-size="12px" font-weight="700">A</tspan></tspan></text>
   <text transform="translate(91.052 164.85)" x="60.927765" y="10.863281" style="line-height:125%" xml:space="preserve"><tspan x="60.927765" y="10.863281"><tspan dx="0" dy="0" fill="#000000" font-family="Arial" font-size="12px" font-weight="700">B</tspan></tspan></text>
   <text transform="translate(91.052 164.85)" x="121.85553" y="10.863281" style="line-height:125%" xml:space="preserve"><tspan x="121.85553" y="10.863281"><tspan dx="0" dy="0" fill="#000000" font-family="Arial" font-size="12px" font-weight="700">C</tspan></tspan></text>
   <text transform="translate(91.052 164.85)" x="182.78329" y="10.863281" style="line-height:125%" xml:space="preserve"><tspan x="182.78329" y="10.863281"><tspan dx="0" dy="0" fill="#000000" font-family="Arial" font-size="12px" font-weight="700">D</tspan></tspan></text>
  </g>
  <g transform="matrix(.26458 0 0 .26458 844.58 127.43)" clip-path="url(#clipEmfPath7-172)">
   <text transform="translate(132 186.81)" y="10.863281" fill="#000000" font-family="Arial" font-size="12px" font-weight="700" letter-spacing="0px" word-spacing="0px" style="line-height:125%" xml:space="preserve"><tspan x="0" y="10.863281"><tspan dx="0" dy="0" fill="#000000" font-family="Arial" font-size="12px" font-weight="700">Number of children</tspan></tspan></text>
  </g>
  <g transform="matrix(.26458 0 0 .26458 844.58 127.43)" clip-path="url(#clipEmfPath8-30)">
   <text transform="rotate(-90 74.527 55.39)" y="10.863281" fill="#000000" font-family="Arial" font-size="12px" font-weight="700" letter-spacing="0px" word-spacing="0px" style="line-height:125%" xml:space="preserve"><tspan x="0" y="10.863281"><tspan dx="0" dy="0" fill="#000000" font-family="Arial" font-size="12px" font-weight="700">Frequency (%)</tspan></tspan></text>
  </g>
 </g>
</svg>
