<?xml version="1.0" encoding="UTF-8"?>
<!-- Created with Inkscape (http://www.inkscape.org/) -->
<svg width="84.053mm" height="52.806mm" version="1.1" viewBox="0 0 84.053115 52.806153" xmlns="http://www.w3.org/2000/svg" xmlns:cc="http://creativecommons.org/ns#" xmlns:dc="http://purl.org/dc/elements/1.1/" xmlns:rdf="http://www.w3.org/1999/02/22-rdf-syntax-ns#">
 <defs>
  <clipPath id="clipEmfPath2-05-6">
   <path d="m4.1558 4.1524h434.55v213.6h-434.55z"/>
  </clipPath>
  <clipPath id="clipEmfPath9-04-9">
   <path d="m124.03 24.115h51.947v23.955h-51.947z"/>
  </clipPath>
  <clipPath id="clipEmfPath3-51-0">
   <path d="m59.099 8.1449h320.67v29.944h-320.67z"/>
  </clipPath>
 </defs>
 <metadata>
  <rdf:RDF>
   <cc:Work rdf:about="">
    <dc:format>image/svg+xml</dc:format>
    <dc:type rdf:resource="http://purl.org/dc/dcmitype/StillImage"/>
    <dc:title/>
   </cc:Work>
  </rdf:RDF>
 </metadata>
 <g transform="translate(-575.99 -124.86)">
  <g fill-rule="evenodd" stroke="#000" stroke-linecap="round" stroke-linejoin="round" stroke-miterlimit="10" stroke-width=".99855px">
   <path transform="matrix(.26458 0 0 .26458 559.56 120.37)" d="m200.95 122.93 77.818-3.9873a77.887 77.887 0 0 0 -77.818 -73.867z" clip-path="url(#clipEmfPath2-05-6)" fill="#0f0"/>
   <path transform="matrix(.26458 0 0 .26458 559.56 120.37)" d="m200.95 122.93 32.842 70.601a77.887 77.887 0 0 0 44.976 -74.588z" clip-path="url(#clipEmfPath2-05-6)" fill="#f00"/>
   <path transform="matrix(.26458 0 0 .26458 559.56 120.37)" d="m200.95 122.93-49.883 59.809a77.887 77.887 0 0 0 82.725 10.792z" clip-path="url(#clipEmfPath2-05-6)"/>
   <path transform="matrix(.26458 0 0 .26458 559.56 120.37)" d="m200.95 122.93-76.663-13.927a77.887 77.887 0 0 0 26.78 73.736z" clip-path="url(#clipEmfPath2-05-6)" fill="#fff"/>
   <path transform="matrix(.26458 0 0 .26458 559.56 120.37)" d="m200.95 122.93-48.185-61.183a77.887 77.887 0 0 0 -28.478 47.256z" clip-path="url(#clipEmfPath2-05-6)" fill="#00f"/>
   <path transform="matrix(.26458 0 0 .26458 559.56 120.37)" d="m200.95 122.93v-77.854a77.887 77.887 0 0 0 -48.185 16.671z" clip-path="url(#clipEmfPath2-05-6)" fill="#c0c0c0"/>
  </g>
  <g transform="matrix(.26458 0 0 .26458 559.56 120.37)" clip-path="url(#clipEmfPath3-51-0)">
   <text transform="translate(62.096 14.134)" y="13.579102" fill="#000000" font-family="Arial" font-size="15px" font-weight="700" letter-spacing="0px" word-spacing="0px" style="line-height:125%" xml:space="preserve"><tspan x="0" y="13.579102"><tspan dx="0" dy="0" fill="#000000" font-family="Arial" font-size="15px" font-weight="700">Vehicle color involved in total-loss collisions</tspan></tspan></text>
  </g>
  <g fill="#000000" font-family="Arial" font-size="3.175px" font-weight="700" letter-spacing="0px" stroke-width=".26458" word-spacing="0px">
   <text x="627.26447" y="135.70091" style="line-height:125%" xml:space="preserve"><tspan x="627.26447" y="135.70091" stroke-width=".26458"><tspan dx="0" dy="0" fill="#000000" font-family="Arial" font-size="3.175px" font-weight="700" stroke-width=".26458">Green, 52%</tspan></tspan></text>
   <text x="631.49347" y="166.07112" style="line-height:125%" xml:space="preserve"><tspan x="631.49347" y="166.07112" stroke-width=".26458"><tspan dx="0" dy="0" fill="#000000" font-family="Arial" font-size="3.175px" font-weight="700" stroke-width=".26458">Red, 41%</tspan></tspan></text>
   <text x="600.56897" y="177.16284" style="line-height:125%" xml:space="preserve"><tspan x="600.56897" y="177.16284" stroke-width=".26458"><tspan dx="0" dy="0" fill="#000000" font-family="Arial" font-size="3.175px" font-weight="700" stroke-width=".26458">Black, 39%</tspan></tspan></text>
   <text x="577.3894" y="163.71672" style="line-height:125%" xml:space="preserve"><tspan x="577.3894" y="163.71672" stroke-width=".26458"><tspan dx="0" dy="0" fill="#000000" font-family="Arial" font-size="3.175px" font-weight="700" stroke-width=".26458">White, 36%</tspan></tspan></text>
   <text x="580.57849" y="141.2468" style="line-height:125%" xml:space="preserve"><tspan x="580.57849" y="141.2468" stroke-width=".26458"><tspan dx="0" dy="0" fill="#000000" font-family="Arial" font-size="3.175px" font-weight="700" stroke-width=".26458">Blue, 25%</tspan></tspan></text>
  </g>
  <g transform="matrix(.26458 0 0 .26458 554.23 120.96)" clip-path="url(#clipEmfPath9-04-9)">
   <text x="108.25732" y="44.216007" fill="#000000" font-family="Arial" font-size="12px" font-weight="700" letter-spacing="0px" word-spacing="0px" style="line-height:125%" xml:space="preserve"><tspan x="0" y="0"><tspan fill="#000000" font-family="Arial" font-size="12px" font-weight="700"/></tspan></text>
  </g>
  <text x="589.34344" y="133.06613" fill="#000000" font-family="Arial" font-size="3.175px" font-weight="700" letter-spacing="0px" stroke-width=".26458" word-spacing="0px" style="line-height:125%" xml:space="preserve"><tspan x="589.34344" y="133.06613" stroke-width=".26458"><tspan fill="#000000" font-family="Arial" font-size="3.175px" font-weight="700" stroke-width=".26458">Grey, 23%</tspan></tspan></text>
 </g>
</svg>
