<?xml version="1.0" encoding="UTF-8"?>
<!-- Created with Inkscape (http://www.inkscape.org/) -->
<svg width="41.624mm" height="50.458mm" version="1.1" viewBox="0 0 41.62403 50.457982" xmlns="http://www.w3.org/2000/svg" xmlns:cc="http://creativecommons.org/ns#" xmlns:dc="http://purl.org/dc/elements/1.1/" xmlns:rdf="http://www.w3.org/1999/02/22-rdf-syntax-ns#">
 <metadata>
  <rdf:RDF>
   <cc:Work rdf:about="">
    <dc:format>image/svg+xml</dc:format>
    <dc:type rdf:resource="http://purl.org/dc/dcmitype/StillImage"/>
    <dc:title/>
   </cc:Work>
  </rdf:RDF>
 </metadata>
 <g transform="translate(-667.75 -143.3)">
  <text x="664.89459" y="156.96808" fill="#000000" font-family="Calibri" font-size="3.8861px" font-weight="400" letter-spacing="0px" stroke-width=".26458" word-spacing="0px" style="line-height:125%" xml:space="preserve"><tspan x="0" y="0" stroke-width=".26458"><tspan dx="0" dy="0" fill="#000000" font-family="Calibri" font-size="3.8861px" font-weight="400" stroke-width=".26458"/></tspan></text>
  <g transform="translate(.38581 12.153)" fill-rule="evenodd">
   <path d="m667.83 166.27h0.10527l0.14739 0.0212h1.2843l0.4632 0.0212h1.4317l0.50532 0.0212h1.158l0.61058 0.0212h0.6527l0.67375 0.0212h0.69481l0.71586 0.0212h0.71586l0.73692 0.0212 0.73691 0.0212 0.73692 0.0212 0.73692 0.0212 0.73691 0.0212 0.71586 0.0212 0.71586 0.0424 0.67375 0.0212 0.67376 0.0424 0.65269 0.0212 0.61059 0.0424 0.56848 0.0424 0.54742 0.0424 0.50532 0.0424 0.4632 0.0424 0.42109 0.0635 0.35794 0.0424 0.31582 0.0635 0.25265 0.0635 0.16844 0.0636 0.12633 0.0635-0.0632 0.0424-0.0842 0.0424-0.12633 0.0635-0.21055 0.0635-0.33688 0.0847-0.37898 0.0847-0.4211 0.0635-0.48425 0.0635-0.50532 0.0424-0.54742 0.0424-0.58953 0.0212-0.61059 0.0212-0.63164 0.0212h-2.6529l-0.67375-0.0212h-0.67375l-0.67376-0.0212-0.88429-0.0212h-1.537l-0.69481-0.0212-0.61058 0.0212h-0.56848l-0.50532 0.0212-0.44215 0.0212-0.40004 0.0212-0.33687 0.0424-0.29477 0.0424-0.25265 0.0636-0.1895 0.0635-0.14738 0.0847-0.0842 0.0847-0.0632 0.10591v0.0636l-0.0211 0.0212v0.0212l0.0421 0.14828 0.10527 0.14827 0.12633 0.1271 0.14739 0.0847 0.29476 0.16946 0.35793 0.14827 0.37899 0.12709 0.44215 0.10592 0.4632 0.0847 0.50532 0.0847 0.52636 0.0635 0.54743 0.0424 0.54742 0.0424 0.58953 0.0424 0.58954 0.0212h0.58953l0.58953 0.0212h3.3898l0.27372 0.0212h0.48426l0.21054 0.0212 0.1895 0.0212h0.18949l0.14738 0.0212 0.14738 0.0212 0.0842 0.0424 0.0842 0.0212-0.0632 0.0424-0.0842 0.0636-0.12633 0.0635-0.16844 0.10591-0.21054 0.0847-0.23161 0.10591-0.25265 0.0635-0.25266 0.0847-0.27371 0.0635-0.27371 0.0424-0.29477 0.0636-0.29477 0.0424-0.29476 0.0424-0.29477 0.0424-0.29477 0.0424-0.31582 0.0212-0.29476 0.0212-0.29477 0.0424-0.29477 0.0212-0.27371 0.0212-0.63164 0.0635-0.54742 0.0424-0.46321 0.0635-0.40004 0.0635-0.33687 0.0847-0.25266 0.10591-0.18949 0.1271-0.10528 0.14827-0.0211 0.0424v0.0635l-0.0211 0.0424v0.1059l0.0211 0.0635 0.0211 0.0635 0.0211 0.0424 0.12633 0.16945 0.2316 0.14828 0.29477 0.12709 0.35793 0.10591 0.44215 0.10591 0.52636 0.10591 0.56848 0.0847 0.6527 0.10591 1.2001 0.19064 0.0632-0.33891-1.2212-0.19064-0.48426-0.0635-0.50531-0.0847-0.46321-0.0847-0.44215-0.0847-0.37898-0.10591-0.31582-0.0847-0.23161-0.1271-0.12632-0.12709-0.0211-0.0212v-0.106l0.0211-0.0212 0.10527-0.10591 0.18949-0.0847 0.27371-0.0636 0.35793-0.0635 0.37899-0.0635 0.44215-0.0424 0.44215-0.0212 0.44215-0.0424 0.29476-0.0212 0.31582-0.0212 0.31583-0.0424 0.29476-0.0212 0.31582-0.0212 0.31582-0.0424 0.29477-0.0424 0.29477-0.0424 0.29476-0.0424 0.29477-0.0636 0.29477-0.0635 0.27371-0.0635 0.25265-0.0847 0.25266-0.0847 0.2316-0.0847 0.23161-0.10592 0.12632-0.0635 0.12633-0.0635 0.12633-0.0636 0.0842-0.0847 0.0842-0.0635 0.0632-0.0847 0.0421-0.0847 0.0211-0.0847v-0.0212h-0.0211v-0.0212l-0.021-0.0635-0.0421-0.0635-0.0842-0.0635-0.0842-0.0424-0.12633-0.0424-0.14738-0.0424-0.16844-0.0212-0.21055-0.0424-0.2316-0.0212h-0.27371l-0.31582-0.0212h-0.33688l-0.37898-0.0212h-3.0529l-0.56848-0.0212h-0.58953l-0.56848-0.0212-0.58953-0.0424-0.54742-0.0212-0.54743-0.0424-0.52637-0.0635-0.50531-0.0847-0.44215-0.0847-0.44215-0.10591-0.37898-0.10591-0.33688-0.14828-0.27371-0.14827-0.12633-0.10591-0.0842-0.0635-0.0421-0.0424v-0.0212l0.0842-0.0635 0.14738-0.0635 0.23161-0.0635 0.27371-0.0212 0.33687-0.0424 0.37899-0.0212 0.44215-0.0212 0.4632-0.0212h3.2214l0.54742 0.0212h0.54742l0.67376 0.0212h0.67375l0.6948 0.0212h2.674l0.63164-0.0212 0.61059-0.0212 0.58953-0.0212 0.54742-0.0424 0.52637-0.0424 0.48426-0.0635 0.44215-0.0635 0.40004-0.0847 0.33687-0.0847 0.14739-0.0635 0.14738-0.0424 0.12633-0.0635 0.10527-0.0635 0.10528-0.0847 0.0632-0.0847 0.0421-0.0847v-0.10591l-0.021-0.0635-0.0421-0.0635-0.0421-0.0424-0.0842-0.0635-0.10528-0.0424-0.12632-0.0635-0.16844-0.0424-0.1895-0.0635-0.21054-0.0424-0.25266-0.0424-0.29477-0.0424-0.31582-0.0424-0.35793-0.0424-0.40004-0.0424-0.44215-0.0424-0.48426-0.0424-0.52636-0.0424-0.58954-0.0424-0.61058-0.0212-0.67376-0.0424-0.71586-0.0212-0.77902-0.0424-0.84219-0.0212-0.8843-0.0212-0.92641-0.0424-1.0106-0.0212-1.0527-0.0212-1.137-0.0212-1.1791-0.0212-1.2633-0.0212h-1.3264l-1.3896-0.0212h-0.48426l-0.44215-0.0212h-0.75797l-0.29477-0.0212h-0.50529z" fill="#2ba52d"/>
   <path d="m682.42 138.22 0.10528-0.0635 0.31582-0.16945 0.42109-0.27537 0.50532-0.3601 0.50531-0.40246 0.44215-0.44483 0.33688-0.44483 0.14738-0.466-0.0211-0.19064-0.0421-0.16946-0.12633-0.14828-0.14739-0.19064-0.14738-0.12709-0.12633-0.0212h-0.2316l-0.14738-0.0424-0.21055-0.14827-0.27371-0.27537-0.35793-0.48719-0.0842-0.10591-0.0632-0.0847-0.0842-0.0636-0.0842-0.0635-0.0842-0.0424-0.0632-0.0424-0.0842-0.0212h-0.0842l-0.33688 0.0847-0.35793 0.21182-0.33688 0.25419-0.35793 0.27537-0.37898 0.21182-0.35793 0.0847-0.37899-0.12709-0.40004-0.38128-0.16844-0.21183-0.14738-0.16945-0.10527-0.0847-0.10528-0.0424-0.14738 0.0635-0.10527 0.233-0.0632 0.31774-0.10527 0.3601-0.14739 0.33891-0.21054 0.23301-0.33688 0.0847-0.48426-0.10591-0.37898-0.16945-0.35793-0.16946-0.31582-0.16946-0.29477-0.14828-0.25266-0.12709-0.25265-0.12709-0.21055-0.10591-0.18949-0.0847-0.1895-0.0636-0.16843-0.0424-0.16844-0.0212h-0.14739l-0.14738 0.0424-0.14738 0.0635-0.14739 0.10591-0.14738 0.12709-0.21055 0.14828-0.18949 0.0635h-0.18949l-0.14738-0.0424-0.12633-0.0212h-0.10528l-0.0632 0.0424-0.0211 0.14828 0.0211 0.0847 0.0421 0.1271 0.0632 0.12709 0.10528 0.14828 0.14738 0.16945 0.18949 0.19064 0.21055 0.21183 0.27371 0.233 0.46321 0.40246 0.48425 0.38128 0.46321 0.38128 0.48426 0.38128 0.44215 0.40246 0.42109 0.40247 0.37899 0.42364 0.35793 0.42365 0.27371 0.466 0.2316 0.50838 0.14738 0.50837 0.0842 0.57192-0.0211 0.61428-0.12633 0.67784-0.2316 0.69901-0.33688 0.78374-0.35793 0.63547-0.42109 0.5931-0.44215 0.52955-0.48426 0.4872-0.50531 0.44482-0.52637 0.44483-0.52637 0.42364-0.54743 0.42365-0.56847 0.42364-0.54743 0.44483-0.52636 0.48719-0.52637 0.52955-0.50532 0.57192-0.48426 0.65665-0.44215 0.69902-0.40004 0.80492-0.12632 0.31773-0.16844 0.3601-0.14739 0.40246-0.16843 0.42365-0.14739 0.42364-0.10527 0.42365-0.10527 0.40246-0.0632 0.38128-0.0632 0.97438v0.9532l0.10527 0.93202 0.21055 0.91083 0.27371 0.88965 0.33688 0.86848 0.44215 0.80492 0.50531 0.78374 0.56848 0.7202 0.65269 0.65665 0.69481 0.5931 0.77903 0.52955 0.82113 0.44483 0.90536 0.3601 0.94746 0.27537 0.98957 0.19064 1.2212 0.10591h1.2001l1.137-0.0847 1.0948-0.16946 1.0527-0.27537 0.98957-0.38128 0.94746-0.44482 0.86325-0.52956 0.77902-0.63547 0.71586-0.67783 0.63164-0.78374 0.54743-0.84729 0.44215-0.91083 0.33687-0.97439 0.25266-1.0591 0.12633-1.1015 0.0211-0.33892v-0.93201l-0.0421-0.9532-0.10527-0.88966-0.16844-0.8261-0.21055-0.78374-0.27371-0.7202-0.33687-0.67783-0.37899-0.61428-0.42109-0.59311-0.46321-0.52955-0.52637-0.46601-0.54742-0.44483-0.56848-0.40246-0.61058-0.3601-0.6527-0.31773-0.67375-0.29655-0.69481-0.25419-0.69481-0.31773-0.58953-0.38128-0.48426-0.48719-0.37898-0.52956-0.27371-0.5931-0.1895-0.63547-0.0842-0.67783v-0.67783l0.0632-0.67783 0.14738-0.69901 0.21055-0.65665 0.29477-0.63547 0.33687-0.5931 0.40004-0.55074 0.44215-0.48719z" fill="#f4bc7f"/>
   <g fill="#2ba52d">
    <path d="m680.74 141.44 0.0421 0.0212 0.10528 0.0635 0.14738 0.0847 0.14738 0.10592 0.12633 0.14827 0.0842 0.12709v0.14828l-0.0842 0.12709-0.0842 0.10591 0.0632 0.0847 0.12633 0.0847 0.14738 0.0847 0.10527 0.0847 0.0211 0.12709-0.12633 0.14828-0.33688 0.19064-0.2316 0.10591-0.27371 0.10591-0.25266 0.10591-0.27371 0.0847-0.29476 0.0847-0.29477 0.0635-0.27371 0.0635-0.29477 0.0424-0.27371 0.0212-0.29477 0.0212-0.25265-0.0212-0.27372-0.0424-0.2316-0.0424-0.2316-0.10591-0.18949-0.10591-0.18949-0.14828-0.25266-0.27537-0.0842-0.21182 0.021-0.12709 0.0842-0.0635 0.10528-0.0212h0.0421-0.0211l-0.18949 0.0212-0.25266-0.0635-0.16844-0.19064-0.0842-0.25419-0.0211-0.27537 0.0842-0.233 0.16844-0.1271h0.29476l0.40004 0.19064 0.23161 0.1271 0.27371 0.0847 0.27371 0.0635 0.27371 0.0212 0.29477-0.0212 0.29476-0.0212 0.29477-0.0635 0.27371-0.0635 0.25266-0.0636 0.25266-0.0847 0.2316-0.0847 0.18949-0.0635 0.14738-0.0635 0.12633-0.0635 0.0842-0.0212z"/>
    <path d="m677.54 149.64 0.10528 0.33892 0.27371 0.9532 0.35793 1.4192 0.37899 1.7581 0.29476 1.9488 0.14739 2.0335-0.0842 1.9488-0.37899 1.7793-0.94746-0.21182 0.0421-0.33892 0.0632-0.91083 0.0842-1.3768 0.0211-1.6946-0.0632-1.864-0.16844-1.9276-0.35793-1.8217-0.56848-1.631z"/>
    <path d="m681.03 149.7-0.0421 0.3601-0.12633 0.99556-0.12632 1.4616-0.10528 1.7793-0.0632 1.9276 0.0632 1.9488 0.21055 1.8005 0.40004 1.5039-1.1791 0.19064-0.0632-0.29655-0.12633-0.84729-0.16844-1.2709-0.16844-1.631-0.0842-1.864v-2.0123l0.16843-2.0758 0.37899-2.0335z"/>
    <path d="m681.79 151.21h-0.0421l-0.14738 0.0424-0.14738 0.0636-0.16844 0.0847-0.12633 0.14827-0.0421 0.16946 0.0842 0.23301 0.25266 0.27536 0.37898 0.25419 0.44215 0.14828 0.44215 0.0212 0.40004-0.12709 0.27371-0.27537 0.10528-0.42365-0.10528-0.5931-0.37898-0.76256-0.48426-0.72019-0.4211-0.44483-0.31582-0.25419-0.25265-0.10591-0.16844-0.0212h-0.10528l-0.0421-0.0635 0.0211-0.19064v-0.25418l-0.0842-0.21183-0.14738-0.16945-0.1895-0.1271-0.21054-0.0424-0.1895 0.0424-0.16843 0.14828-0.10528 0.27537-0.14738 0.233-0.27371 0.0635-0.33688-0.0424-0.42109-0.10591-0.4211-0.10591-0.42109-0.0635-0.40004 0.0424-0.31582 0.19064-0.0632-0.0635-0.16844-0.16946-0.21054-0.21182-0.25266-0.16945-0.21055-0.0636-0.14738 0.0847-0.0632 0.31773 0.10527 0.61428-0.12633 0.16946-0.33688 0.42365-0.44214 0.65665-0.44215 0.78374-0.35794 0.88965-0.14738 0.88965 0.14738 0.86847 0.52637 0.74138 0.37899 0.31774 0.40004 0.29655 0.37898 0.25418 0.35793 0.23301 0.37899 0.21182 0.37899 0.16946 0.35793 0.16945 0.37898 0.1271 0.35793 0.12709 0.33688 0.0847 0.35793 0.0847 0.35793 0.0635 0.33687 0.0424 0.33688 0.0424 0.31582 0.0212 0.33688 0.0212 0.58953 0.21182 0.44215 0.48719 0.29477 0.69901 0.12632 0.78375-0.0632 0.8261-0.29477 0.7202-0.52636 0.57192-0.77903 0.31773-0.4632 0.0636-0.48426 0.0424-0.46321 0.0212-0.48426-0.0212-0.4632-0.0212-0.44215-0.0424-0.4211-0.0635-0.40004-0.0847-0.37898-0.0847-0.33688-0.0847-0.29476-0.12709-0.2316-0.10591-0.1895-0.12709-0.14738-0.1271-0.0632-0.12709v-0.1271l0.12632-0.21182 0.1895-0.12709 0.2316-0.0847 0.27371-0.0424 0.27371-0.0424 0.27371-0.0847 0.23161-0.14827 0.18949-0.23301 0.0842-0.29655-0.0632-0.33891-0.16844-0.29655-0.25265-0.23301-0.31582-0.14827-0.37899-0.0212-0.40004 0.14828-0.42109 0.3601-0.31582 0.50837-0.14739 0.57192v0.61428l0.14739 0.57193 0.25265 0.52955 0.37899 0.44483 0.4632 0.29655 0.52637 0.12709 0.4211 0.0847 0.2316 0.21182 0.0842 0.25419v0.29655l-0.0211 0.27537 0.0211 0.21182 0.14738 0.12709 0.31582-0.0212 0.35793-0.12709 0.25266-0.16946 0.14738-0.19064 0.0842-0.19064 0.0421-0.16946 0.0632-0.14827 0.10528-0.0847 0.18949-0.0212 0.25266 0.10592 0.25265 0.19064 0.27372 0.27537 0.27371 0.25418 0.25265 0.19064 0.23161 0.0847 0.21054-0.0847 0.14739-0.31773 0.10527-0.38128 0.10527-0.25419 0.0842-0.16946 0.10528-0.12709 0.12633-0.0847 0.21054-0.10591 0.27371-0.16946 0.37899-0.233 0.42109-0.40246 0.40004-0.61429 0.29477-0.76256 0.16844-0.86847v-0.86847l-0.25266-0.8261-0.52637-0.74138-0.84219-0.57192-0.61058-0.27537-0.50532-0.21182-0.4632-0.16946-0.37899-0.12709-0.33687-0.10592-0.29477-0.0635-0.25266-0.0635-0.2316-0.0424-0.21055-0.0212-0.18949-0.0212-0.21055-0.0212-0.21054-0.0424-0.23161-0.0424-0.25265-0.0847-0.27371-0.10591-0.33688-0.12709-0.48426-0.29655-0.35793-0.38128-0.2316-0.46601-0.12633-0.48719-0.0421-0.52956 0.0632-0.50837 0.14738-0.46601 0.21055-0.42364 0.25265-0.29655 0.29477-0.23301 0.35793-0.21182 0.40004-0.16946 0.42109-0.10591 0.46321-0.0847 0.4632-0.0424h0.46321l0.44215 0.0424 0.42109 0.0847 0.40004 0.14828 0.35793 0.16945 0.31582 0.21183 0.23161 0.25418 0.16843 0.29655z"/>
   </g>
   <g fill="#040">
    <path d="m673.45 133.71 0.25265 0.21182 0.0842-0.0847 0.18949-0.233 0.29477-0.29655 0.37899-0.33892 0.44215-0.33891 0.50531-0.27537 0.50531-0.16946 0.50532-0.0212 0.18949 0.0424 0.18949 0.0636 0.18949 0.10591 0.16844 0.14827 0.14739 0.16946 0.16843 0.21182 0.12633 0.23301 0.14738 0.27537 0.10528 0.21182 0.12633 0.19064 0.10527 0.19064 0.14738 0.12709 0.12633 0.1271 0.14739 0.10591 0.14738 0.0847 0.16844 0.0424 0.27371 0.0424 0.29476-0.0424 0.29477-0.0636 0.27371-0.12709 0.29477-0.16946 0.29477-0.16946 0.27371-0.21182 0.27371-0.19064 0.21055-0.14827 0.21054-0.14828 0.1895-0.12709 0.21054-0.1271 0.1895-0.0847 0.16843-0.0636 0.14739-0.0424 0.14738 0.0212 0.12633 0.0635 0.10527 0.10591 0.0842 0.16946 0.0842 0.21182 0.0632 0.16946 0.0632 0.14828 0.0842 0.12709 0.0842 0.10591 0.0842 0.10591 0.0842 0.0847 0.10528 0.0635 0.10527 0.0424 0.18949 0.0424h0.1895l0.18949-0.0424 0.21055-0.0635 0.18949-0.0847 0.18949-0.10591 0.21055-0.1271 0.18949-0.12709 0.16844-0.10591 0.14738-0.0847 0.14739-0.0847 0.16843-0.0636 0.12633-0.0635 0.12633-0.0424h0.12633l0.10527 0.0212 0.12633 0.10591 0.10528 0.19064 0.0842 0.27537 0.0632 0.36009v0.46601l-0.10527 0.44483-0.23161 0.44483-0.31582 0.42364-0.40004 0.40246-0.4632 0.42365-0.50532 0.42364-0.54742 0.42364-0.35793 0.27537-0.33688 0.27537-0.35793 0.27537-0.33687 0.29655-0.33688 0.31774-0.31582 0.31773-0.29477 0.31773-0.27371 0.33892-0.25265 0.36009-0.21055 0.3601-0.18949 0.40246-0.14739 0.40247-0.10527 0.42364-0.0632 0.44483v0.48719l0.0421 0.48719 0.33688-0.0424-0.0421-0.46601v-0.44483l0.0632-0.40246 0.10527-0.40246 0.14738-0.40247 0.16844-0.36009 0.21055-0.33892 0.25265-0.33892 0.25266-0.33891 0.29477-0.29655 0.31582-0.31773 0.31582-0.27537 0.31582-0.29655 0.33688-0.27537 0.33687-0.27537 0.33688-0.25419 0.48426-0.38128 0.48426-0.38128 0.44215-0.38128 0.40004-0.38128 0.33687-0.40246 0.27371-0.42364 0.1895-0.42365 0.10527-0.46601v-0.42372l-0.0211-0.0847-0.0842-0.44483-0.12633-0.3601-0.16844-0.233-0.21055-0.14828-0.16844-0.0635h-0.16843l-0.16844 0.0212-0.16844 0.0635-0.18949 0.0847-0.18949 0.10591-0.1895 0.10591-0.18949 0.12709-0.16844 0.10591-0.16844 0.10591-0.16843 0.0847-0.14739 0.0847-0.16843 0.0636-0.14739 0.0424h-0.14738l-0.12633-0.0212-0.14738-0.0847-0.10528-0.12709-0.12633-0.19064-0.0842-0.23301-0.0632-0.14827-0.0632-0.14828-0.0632-0.10591-0.0842-0.10591-0.0842-0.0847-0.0842-0.0847-0.0842-0.0424-0.10528-0.0424-0.18949-0.0424-0.21055 0.0212-0.21054 0.0636-0.23161 0.10591-0.2316 0.12709-0.2316 0.14828-0.2316 0.16946-0.25266 0.16945-0.25266 0.19064-0.25265 0.16946-0.25266 0.16946-0.25266 0.14827-0.25265 0.1271-0.25266 0.0847-0.2316 0.0212-0.2316-0.0212-0.12633-0.0424-0.10528-0.0635-0.12633-0.0847-0.10527-0.10591-0.10527-0.1271-0.10528-0.14827-0.0842-0.14828-0.10527-0.19064-0.14738-0.31773-0.16844-0.25419-0.18949-0.233-0.1895-0.21182-0.18949-0.16946-0.21055-0.10591-0.2316-0.10591-0.25265-0.0424-0.56848 0.0212-0.56848 0.19064-0.52637 0.27537-0.48426 0.3601-0.42109 0.3601-0.31582 0.31773-0.23161 0.25419z"/>
    <path d="m671.07 133.62-0.0632 0.19064 0.0211 0.21182 0.12633 0.23301 0.21055 0.233 0.29476 0.29655 0.37899 0.29655 0.44215 0.3601 0.48426 0.38128 0.33687 0.27537 0.37899 0.27537 0.35793 0.29655 0.35793 0.29655 0.37898 0.31773 0.35793 0.31774 0.35794 0.31773 0.33687 0.33891 0.31582 0.33892 0.29477 0.3601 0.27371 0.33891 0.2316 0.3601 0.18949 0.38128 0.16844 0.3601 0.10528 0.3601 0.0632 0.38128 0.0211 0.27536v0.25419l-0.0421 0.25419-0.0632 0.25418-0.10527 0.25419-0.12633 0.25419-0.14738 0.25418-0.1895 0.23301-0.29476 0.33891-0.31582 0.33892-0.33688 0.3601-0.33688 0.33891-0.37898 0.33892-0.37899 0.3601-0.40004 0.36009-0.40004 0.3601-0.56847 0.50837-0.58954 0.55074-0.56847 0.52956-0.56848 0.57192-0.56848 0.5931-0.54742 0.5931-0.52637 0.63547-0.50532 0.63546-0.44215 0.69902-0.42109 0.69901-0.37899 0.74138-0.31582 0.76256-0.25265 0.80492-0.1895 0.84729-0.12632 0.88965-0.0421 0.91084 0.0211 0.52955 0.0421 0.57193 0.0632 0.57191 0.10528 0.57192 0.12633 0.61429 0.16843 0.61428 0.21055 0.63547 0.2316 0.63546 0.21055 0.50838 0.25266 0.48719 0.29476 0.44483 0.29477 0.44482 0.33688 0.40246 0.35793 0.38128 0.40004 0.3601 0.40004 0.33892 0.44215 0.31773 0.44215 0.29655 0.4632 0.27537 0.48426 0.233 0.50531 0.23301 0.52637 0.19064 0.52637 0.19064 0.54742 0.14828 0.54743 0.12709 0.54742 0.10591 0.56848 0.0847 0.56848 0.0635 0.58953 0.0424 0.56848 0.0212h0.58953l0.58953-0.0424 0.56848-0.0424 0.58953-0.0635 0.56848-0.0847 0.56848-0.1271 0.56848-0.12709 0.54742-0.14828 0.54742-0.19064 0.52637-0.19064 0.67375-0.29655 0.6527-0.31773 0.63164-0.3601 0.63164-0.42364 0.58954-0.44483 0.54742-0.48719 0.52637-0.52955 0.48426-0.59311 0.44215-0.61428 0.40004-0.65665 0.33687-0.69901 0.29477-0.74138 0.2316-0.78374 0.16844-0.84729 0.10527-0.86847 0.0421-0.91084-0.021-0.63546-0.0421-0.63547-0.0842-0.67783-0.12633-0.69901-0.16844-0.69902-0.18949-0.74137-0.25266-0.74138-0.27371-0.78374-0.25266-0.59311-0.29476-0.55073-0.29477-0.50838-0.31582-0.46601-0.35793-0.40246-0.33688-0.38128-0.37898-0.33891-0.37899-0.31774-0.37898-0.27536-0.37899-0.25419-0.40004-0.23301-0.40004-0.21182-0.37898-0.19064-0.40004-0.16946-0.35793-0.16945-0.37899-0.16946-0.48426-0.21182-0.44215-0.21183-0.42109-0.21182-0.35793-0.233-0.31582-0.25419-0.25266-0.27537-0.18949-0.29655-0.12633-0.3601-0.33688 0.0635 0.12633 0.42364 0.2316 0.3601 0.27372 0.31774 0.35793 0.27536 0.37898 0.25419 0.44215 0.23301 0.46321 0.21182 0.50531 0.21182 0.35793 0.14828 0.37899 0.16945 0.35793 0.19064 0.37898 0.16946 0.40004 0.21182 0.37899 0.23301 0.37898 0.233 0.35793 0.27537 0.37899 0.29655 0.33687 0.33892 0.35793 0.36009 0.31582 0.40247 0.31583 0.44482 0.29476 0.48719 0.27371 0.52956 0.25266 0.57192 0.27371 0.76256 0.25266 0.76256 0.18949 0.76256 0.16844 0.72019 0.10527 0.7202 0.0842 0.72019 0.0632 0.67784v0.67783l-0.0421 0.76256-0.0842 0.74137-0.14738 0.69902-0.1895 0.69901-0.25265 0.65665-0.27372 0.63547-0.33687 0.61428-0.40004 0.57192-0.44215 0.57192-0.48426 0.50837-0.52637 0.50837-0.56848 0.44483-0.63164 0.44483-0.67375 0.38128-0.71586 0.38128-0.75797 0.31773-0.52637 0.19064-0.52637 0.16946-0.54742 0.14827-0.54743 0.14828-0.54742 0.10591-0.56848 0.0847-0.54742 0.0636-0.56848 0.0424-0.56848 0.0424h-0.56847l-0.56848-0.0212-0.56848-0.0424-0.54742-0.0635-0.54743-0.0635-0.54742-0.10591-0.54742-0.12709-0.52637-0.14827-0.50532-0.16946-0.50531-0.19064-0.48426-0.21182-0.48426-0.23301-0.44215-0.27537-0.44215-0.27537-0.42109-0.29655-0.40004-0.33891-0.35793-0.33892-0.35793-0.38128-0.31582-0.38128-0.31582-0.42364-0.25266-0.44483-0.25266-0.46601-0.21055-0.48719-0.2316-0.61428-0.18949-0.5931-0.14738-0.59311-0.12633-0.55073-0.10528-0.57192-0.0632-0.52956-0.0421-0.52955-0.0211-0.52956 0.0421-0.91084 0.10527-0.86847 0.18949-0.8261 0.2316-0.78374 0.31583-0.76256 0.35793-0.7202 0.42109-0.69901 0.44215-0.67783 0.48426-0.63547 0.52637-0.61428 0.52637-0.59311 0.56847-0.5931 0.56848-0.55074 0.56848-0.52955 0.56848-0.52956 0.56848-0.50837 0.40004-0.3601 0.40004-0.38128 0.37898-0.3601 0.37899-0.36009 0.35793-0.33892 0.33687-0.3601 0.33688-0.33891 0.29477-0.33892 0.18949-0.27537 0.16844-0.27536 0.14738-0.27537 0.10527-0.29655 0.0842-0.29656 0.0421-0.29655v-0.29655l-0.021-0.29655-0.0632-0.40246-0.12633-0.38128-0.16843-0.40246-0.21055-0.38128-0.2316-0.38128-0.27372-0.3601-0.31582-0.38128-0.31582-0.33892-0.35793-0.36009-0.35793-0.33892-0.35793-0.31773-0.37898-0.33892-0.37899-0.29655-0.37899-0.29655-0.35793-0.29655-0.35793-0.27537-0.33687-0.25419-0.31582-0.25418-0.33688-0.25419-0.29477-0.25419-0.25265-0.233-0.18949-0.21182-0.10528-0.14828v-0.10591l0.25266-0.27537 0.27371-0.16946 0.25266-0.0847h0.27371l0.21055 0.0424 0.18949 0.0424 0.12633 0.0636 0.0632 0.0212 0.16844-0.29655-0.18949-0.0847-0.23161-0.0847-0.27371-0.0424h-0.27371l-0.29477 0.0424-0.29476 0.1271-0.27371 0.19064z"/>
    <path d="m673.96 134.62 0.0421 0.0212 0.12633 0.0424 0.18949 0.10591 0.25266 0.12709 0.29476 0.16946 0.33688 0.19064 0.35793 0.25419 0.37898 0.27537 0.37899 0.33891 0.37899 0.3601 0.35793 0.42364 0.33687 0.44483 0.31582 0.48719 0.25266 0.55074 0.18949 0.57192 0.12633 0.63547 0.33688-0.0424-0.12633-0.65665-0.21055-0.63546-0.27371-0.57192-0.31582-0.50838-0.33688-0.48719-0.37898-0.42364-0.40004-0.40246-0.40004-0.33892-0.40004-0.29655-0.37899-0.25419-0.35793-0.21182-0.31582-0.19064-0.25266-0.12709-0.21054-0.0847-0.14739-0.0635-0.0421-0.0212z"/>
    <path d="m678.55 134.92 0.0421 0.0424 0.0842 0.0847 0.10527 0.19064 0.10528 0.29655 0.0842 0.38128 0.0421 0.52955-0.0421 0.63547-0.12633 0.80492 0.33687 0.0636 0.12633-0.86847 0.0421-0.72019-0.0632-0.57192-0.10528-0.44483-0.12632-0.31773-0.14739-0.21183-0.10527-0.12709-0.0421-0.0424z"/>
    <path d="m680.42 138.03 0.21055 0.25419 0.82114-0.80493 0.63164-0.76256 0.4632-0.72019 0.33688-0.61429 0.21055-0.52955 0.10527-0.40246 0.0632-0.27537 0.0211-0.10591-0.33688-0.0212-0.021 0.0847-0.0421 0.25419-0.12633 0.38128-0.18949 0.48719-0.31582 0.5931-0.44215 0.67783-0.61059 0.74138z"/>
    <path d="m674.57 131.51h-0.1053l-0.14738 0.0424-0.12633 0.0847-0.12633 0.12709-0.12633 0.19064-0.0632 0.0847-0.0632 0.0636-0.0842 0.0635-0.10528 0.0212-0.10527 0.0212h-0.98957l-0.21055 0.0424-0.18949 0.0635-0.1895 0.10591-0.18949 0.14828-0.16844 0.19064 0.27372 0.19064 0.12632-0.14828 0.12633-0.10591 0.14739-0.0635 0.14738-0.0424 0.16844-0.0424h0.98957l0.16844-0.0212 0.14738-0.0424 0.12633-0.0847 0.12633-0.10591 0.10527-0.14828 0.0842-0.12709 0.0632-0.0847 0.0632-0.0635 0.0632-0.0212h0.10528l0.10527 0.0636 0.0842 0.0847 0.10527 0.0847 0.2316-0.25419-0.12632-0.10591-0.14739-0.10591-0.14738-0.0847z"/>
    <path d="m679.09 131.17-0.12633 0.0212-0.10528 0.0424-0.12633 0.0424-0.14738 0.0847-0.12633 0.0847-0.14738 0.12709-0.14738 0.1271-0.14739 0.14827-0.35793 0.3601 0.21055 0.25419 0.40004-0.38128 0.14738-0.14828 0.12633-0.10591 0.12633-0.10591 0.12633-0.0847 0.10527-0.0636 0.10528-0.0424 0.10527-0.0212h0.0842l0.14738 0.0424 0.14739 0.1271 0.12632 0.16945 0.14739 0.19064 0.0842 0.1271 0.0632 0.10591 0.10527 0.12709 0.0842 0.10591 0.10528 0.0847 0.12632 0.0847 0.12633 0.0636 0.12633 0.0212h0.2316l0.12633-0.0212 0.14739-0.0424 0.12632-0.0635 0.12633-0.0847 0.14739-0.0847 0.14738-0.1271 0.16844-0.12709 0.16843-0.10591 0.16844-0.0847 0.1895-0.0635 0.16843-0.0424 0.16844-0.0212h0.16844l0.16844 0.0212 0.35793 0.12709 0.31582 0.21183 0.29476 0.25418 0.23161 0.27537 0.18949 0.25419 0.14738 0.233 0.10528 0.14828 0.0211 0.0635 0.31582-0.14827-0.0421-0.0847-0.10527-0.19064-0.16844-0.233-0.2316-0.29656-0.27371-0.29655-0.31582-0.27537-0.35793-0.233-0.4211-0.14828-0.0842-0.0212h-0.42104l-0.16844 0.0212-0.16844 0.0424-0.14738 0.0635-0.16844 0.0635-0.16844 0.10591-0.16844 0.10591-0.16843 0.1271-0.10528 0.0847-0.12633 0.0847-0.10527 0.0635-0.0842 0.0424-0.10527 0.0424-0.0842 0.0212h-0.1474l-0.16844-0.0635-0.16844-0.1271-0.12633-0.16945-0.14738-0.21183-0.0842-0.12709-0.0842-0.10591-0.0842-0.12709-0.0842-0.0847-0.10527-0.10591-0.10527-0.0635-0.12633-0.0636-0.14739-0.0212h-0.0843z"/>
    <path d="m675.43 151.08-0.25266 0.74137-0.0842 0.69902 0.0632 0.63546 0.21055 0.57192 0.16843 0.27537 0.21055 0.23301 0.25266 0.233 0.25266 0.19064 0.29476 0.16946 0.31582 0.16945 0.31582 0.1271 0.33688 0.12709 0.33688 0.10591 0.35793 0.0847 0.33687 0.0847 0.33688 0.0635 0.33687 0.0635 0.33688 0.0424 0.29477 0.0424 0.29476 0.0424 0.12633 0.0212 0.46321 0.10591 0.44214 0.14828 0.40004 0.19064 0.35794 0.233 0.31582 0.29655 0.27371 0.31773 0.2316 0.3601 0.16844 0.38128 0.10527 0.3601 0.0632 0.38128v0.3601l-0.0421 0.36009-0.10528 0.3601-0.12633 0.33892-0.18949 0.31773-0.2316 0.29655-0.12633 0.1271-0.14738 0.12709-0.16844 0.14827-0.21055 0.1271-0.2316 0.12709-0.25266 0.12709-0.29476 0.10592-0.31582 0.0847-0.33688 0.0847-0.40004 0.0424-0.42109 0.0212h-0.44215l-0.50532-0.0212-0.52637-0.0635-0.58953-0.10591-0.61059-0.14828-0.44215-0.12709-0.40004-0.14827-0.31582-0.16946-0.27371-0.19064-0.18949-0.19064-0.12633-0.21182-0.0632-0.23301v-0.233l0.0842-0.25419 0.14738-0.25419 0.16844-0.21182 0.2316-0.19064 0.21055-0.16946 0.2316-0.10591 0.2316-0.0635 0.18949-0.0212 0.0842 0.0212 0.0842 0.0424 0.0632 0.10591 0.0211 0.14828-0.0211 0.0635-0.0421 0.0636-0.0632 0.0847-0.0632 0.0424-0.10528 0.0212-0.0842-0.0212-0.10527-0.0424-0.10527-0.0424-0.16844 0.27537 0.0842 0.0636 0.10527 0.0424 0.0842 0.0212 0.0842 0.0212 0.0842 0.0212h0.0842l0.0842-0.0212 0.0842-0.0212 0.18949-0.1271 0.12633-0.16945 0.0632-0.1271 0.0211-0.0847 0.021-0.0212v-0.0212l-0.0421-0.27537-0.10527-0.21182-0.1895-0.12709-0.2316-0.0636-0.27371 0.0212-0.27371 0.0847-0.29477 0.12709-0.29476 0.19064-0.25266 0.25419-0.2316 0.25419-0.14739 0.29655-0.10527 0.31773-0.0211 0.19064 0.0211 0.23301 0.0842 0.25418 0.16844 0.27537 0.25265 0.25419 0.37899 0.25418 0.50531 0.23301 0.6527 0.21182 0.6527 0.14827 0.61058 0.10592 0.56848 0.0635 0.52637 0.0424h0.48426l0.44215-0.0424 0.40004-0.0635 0.37898-0.0847 0.33688-0.10591 0.31582-0.10592 0.27371-0.12709 0.23161-0.14827 0.2316-0.14828 0.18949-0.14827 0.14738-0.1271 0.14739-0.14827 0.25265-0.33892 0.21055-0.3601 0.16844-0.38128 0.10527-0.38128 0.0421-0.42364v-0.40246l-0.0632-0.42365-0.12633-0.40246-0.18949-0.44483-0.25266-0.40246-0.29477-0.3601-0.35793-0.31773-0.40004-0.25419-0.44215-0.21182-0.4632-0.16946-0.50532-0.10591-0.14738-0.0212-0.27371-0.0424-0.29477-0.0424-0.31582-0.0424-0.31582-0.0635-0.31582-0.0635-0.33688-0.0635-0.33687-0.0847-0.31582-0.10591-0.31582-0.10591-0.31582-0.1271-0.29477-0.14827-0.27371-0.14828-0.25266-0.19064-0.21055-0.19064-0.18949-0.233-0.16844-0.23301-0.18949-0.48719-0.0421-0.57192 0.0842-0.61428 0.2316-0.67783 0.16844-0.3601 0.18949-0.31773 0.21055-0.29655 0.2316-0.25419 0.2316-0.21182 0.23161-0.19064 0.25265-0.14828 0.27371-0.14827 0.25266-0.0847 0.27371-0.0847 0.25266-0.0424 0.27371-0.0212h0.27371l0.25266 0.0212 0.25266 0.0212 0.25265 0.0635 0.58954 0.19064 0.52637 0.25419 0.44214 0.27537 0.37899 0.25419 0.31582 0.25418 0.21055 0.21182 0.14738 0.14828 0.0421 0.0424 0.0842 0.10592 0.14738 0.233 0.14739 0.31773 0.0211 0.3601-0.0421 0.14828-0.10527 0.12709-0.12633 0.10591-0.16844 0.0847-0.14738 0.0636h-0.14738l-0.12633-0.0212-0.12633-0.0847-0.12633-0.12709-0.0632-0.14827-0.0421-0.14828v-0.10591l0.021-0.0212v-0.0212h0.14738l0.10528 0.0847 0.0632 0.0847 0.0211 0.0636 0.31582-0.0636-0.0211-0.0847-0.0421-0.10591-0.0632-0.0847-0.0842-0.0847-0.0842-0.0847-0.12633-0.0424-0.12633-0.0212h-0.14718l-0.10527 0.0424-0.0842 0.0635-0.0632 0.0847-0.0421 0.10591-0.0211 0.21182 0.0632 0.25419 0.10528 0.233 0.18949 0.19064 0.10527 0.0636 0.10528 0.0635 0.10527 0.0424 0.10528 0.0212h0.12632l0.10528-0.0212 0.12633-0.0212 0.12632-0.0635 0.12633-0.0635 0.10528-0.0847 0.10527-0.0635 0.0842-0.0847 0.0842-0.10591 0.0421-0.0847 0.0632-0.10591 0.0211-0.10591-0.0211-0.46601-0.16844-0.42364-0.18949-0.29655-0.10527-0.1271-0.0632-0.0635-0.14738-0.16946-0.2316-0.21182-0.33688-0.27537-0.40004-0.27537-0.4632-0.27537-0.54743-0.25419-0.63164-0.21182-0.27371-0.0636-0.27371-0.0424-0.29477-0.0212h-0.29476l-0.29477 0.0212-0.29477 0.0636-0.29476 0.0635-0.29477 0.10591-0.27371 0.14828-0.27371 0.16946-0.27371 0.21182-0.25266 0.233-0.25266 0.27537-0.2316 0.31774-0.21055 0.36009z"/>
    <path d="m676.38 147.86 0.12633 0.38128 0.31582 1.0167 0.40004 1.5675 0.4211 2.0123 0.33687 2.3724 0.1895 2.6266-0.0842 2.8172-0.40004 2.8808 0.33687 0.0635 0.4211-2.9231 0.0632-2.8384-0.16844-2.669-0.35793-2.3936-0.42109-2.0335-0.4211-1.5887-0.31582-1.0379-0.12632-0.38127z"/>
    <path d="m680.69 163.17 0.31582-0.10591-0.61059-2.8596-0.27371-2.796-0.0211-2.6266 0.1895-2.3936 0.27371-2.0547 0.29476-1.5887 0.23161-1.0379 0.10527-0.38128-0.31582-0.0847-0.10528 0.40247-0.25265 1.0379-0.29477 1.6098-0.29476 2.0547-0.16844 2.436 0.0211 2.669 0.27371 2.8384z"/>
    <path d="m676.99 141.93 0.0632 0.0212 0.12632 0.0212 0.16844 0.0424 0.2316 0.0635 0.27372 0.0636 0.31582 0.0635 0.33687 0.0635 0.35793 0.0635 0.37899 0.0636 0.40004 0.0635 0.40004 0.0212 0.40004 0.0424h0.75797l0.33688-0.0424 0.31582-0.0635-0.0842-0.33892-0.29477 0.0636-0.33687 0.0212-0.35794 0.0212-0.37898-0.0212-0.37899-0.0212-0.40004-0.0424-0.37898-0.0636-0.37899-0.0424-0.35793-0.0635-0.33687-0.0847-0.29477-0.0635-0.27371-0.0424-0.21055-0.0635-0.16844-0.0424-0.10527-0.0212-0.0421-0.0212z"/>
    <path d="m676.8 143.11 0.4632 0.21182 0.46321 0.14828 0.44215 0.10591 0.42109 0.0636 0.40004 0.0424h0.37899l0.35793-0.0424 0.33687-0.0424 0.29477-0.0635 0.27371-0.0635 0.2316-0.0847 0.21055-0.0635 0.14738-0.0847 0.12633-0.0635 0.0842-0.0424 0.0421-0.0212-0.16844-0.29655-0.0211 0.0212-0.0842 0.0424-0.10527 0.0424-0.14739 0.0635-0.18949 0.0635-0.21055 0.0847-0.25265 0.0635-0.27372 0.0636-0.31582 0.0424-0.33687 0.0212h-0.35793l-0.37899-0.0212-0.40004-0.0635-0.42109-0.0847-0.4211-0.14828-0.44215-0.19064z"/>
    <path d="m676.82 142.39-0.021 0.33891h0.0632l0.12633 0.0212h1.0317l0.35793-0.0212 0.35793-0.0424 0.37899-0.0424 0.40004-0.0635 0.37899-0.0847 0.37898-0.1271 0.35793-0.12709 0.31582-0.16946 0.31582-0.19064 0.25266-0.233-0.25266-0.25419-0.2316 0.21182-0.29476 0.19064-0.31583 0.14828-0.33687 0.12709-0.35793 0.10591-0.35793 0.0636-0.37899 0.0635-0.35793 0.0424-0.35793 0.0424h-0.33688l-0.29476 0.0212h-0.48426l-0.18949-0.0212h-0.10528z"/>
    <path d="m675.7 142.08 0.0211 0.14828 0.0421 0.12709 0.0842 0.1271 0.10527 0.12709 0.10527 0.0847 0.14739 0.0635 0.14738 0.0424 0.16844 0.0212 0.16844-0.0212 0.14738-0.0424 0.12633-0.0635 0.12633-0.0847 0.10527-0.12709 0.0632-0.1271 0.0421-0.12709 0.0211-0.14828-0.0211-0.14827-0.0421-0.14828-0.0632-0.12709-0.10527-0.12709-0.12633-0.0847-0.12633-0.0635-0.14738-0.0424-0.16844-0.0212-0.16844 0.0212-0.14738 0.0424-0.14739 0.0635-0.10527 0.0847-0.10527 0.12709-0.0842 0.12709-0.0421 0.14828z"/>
    <path d="m676.06 142.08 0.0421-0.16945 0.10528-0.1271 0.14738-0.0847 0.16844-0.0424 0.18949 0.0424 0.14738 0.0847 0.0842 0.1271 0.0421 0.16945-0.0421 0.14828-0.0842 0.12709-0.14738 0.0847-0.18949 0.0424-0.16844-0.0424-0.14738-0.0847-0.10528-0.12709z"/>
    <path d="m671.09 140.64 0.0632 0.14828 0.0842 0.12709 0.10527 0.10591 0.12633 0.0424 0.14738 0.0212 0.16844-0.0424 0.16844-0.0635 0.16844-0.10591 0.21054-0.14828 0.1895-0.19064 0.21054-0.21182 0.23161-0.27537 0.14738-0.16946 0.14738-0.14827 0.14739-0.10591 0.14738-0.10591 0.14738-0.0636 0.14739-0.0424 0.14738-0.0212 0.14738 0.0212 0.40004 0.1271 0.35793 0.25418 0.33688 0.33892 0.29476 0.38128 0.25266 0.38128 0.16844 0.31773 0.12633 0.23301 0.0421 0.0847 0.29476-0.1271-0.0421-0.12709-0.12632-0.25419-0.21055-0.33891-0.25266-0.42365-0.33687-0.40246-0.37899-0.3601-0.42109-0.27537-0.46321-0.14827-0.18949-0.0212-0.21055 0.0212-0.18949 0.0636-0.18949 0.0635-0.16844 0.1271-0.18949 0.12709-0.1895 0.19064-0.16844 0.19064-0.25265 0.29655-0.2316 0.233-0.1895 0.16946-0.14738 0.10591-0.12633 0.0636-0.0842 0.0212-0.0632 0.0212h-0.0421l-0.0421-0.0212-0.0421-0.0424-0.021-0.0636-0.0211-0.0635-0.0211-0.14827 0.0211-0.16946 0.0211-0.16946 0.0632-0.19064 0.0842-0.19064 0.10527-0.16945 0.14739-0.16946 0.14738-0.14828-0.21055-0.27537-0.18949 0.19064-0.16844 0.21183-0.14738 0.21182-0.0842 0.233-0.0842 0.25419-0.0421 0.21182v0.21182z"/>
    <path d="m674.46 141.33-0.12633 0.12709-0.0842 0.16946-0.0421 0.233 0.021 0.27537 0.0211 0.27537-0.0211 0.21182-0.0632 0.19064-0.12633 0.12709-0.0842 0.0424-0.0842 0.0424-0.10527 0.0212h-0.10528l-0.12633-0.0212-0.12632-0.0212-0.14739-0.0424-0.14738-0.0636-0.12633-0.0424-0.10527-0.0212h-0.2316l-0.10528 0.0212-0.10527 0.0424-0.10528 0.0636-0.10527 0.0635-0.14738 0.19064-0.0842 0.23301-0.0421 0.233 0.0421 0.25419 0.0632 0.12709 0.0632 0.12709 0.10527 0.10592 0.10527 0.0847 0.12633 0.0847 0.14739 0.0635 0.16843 0.0424 0.16844 0.0212 0.0421-0.33892-0.12633-0.0212-0.12633-0.0212-0.0842-0.0424-0.10528-0.0635-0.0632-0.0424-0.0632-0.0847-0.0632-0.0635-0.0211-0.0847-0.0211-0.14828v-0.14827l0.0632-0.14828 0.0842-0.10591 0.10528-0.0847 0.12632-0.0212h0.12633l0.14739 0.0424 0.18949 0.0847 0.18949 0.0424 0.18949 0.0424h0.31583l0.14738-0.0424 0.12633-0.0424 0.12633-0.0847 0.18949-0.19064 0.10527-0.27537 0.0421-0.31773-0.021-0.3601v-0.27537l0.021-0.10591 0.0632-0.0847 0.10527-0.0424h0.12633l0.14738 0.0212 0.14738 0.0424 0.16844 0.0635 0.16844 0.0636 0.16844 0.0847 0.14738 0.0847 0.16844-0.29655-0.0842-0.0635-0.16844-0.0636-0.18949-0.10591-0.21055-0.0847-0.2316-0.0424-0.2316-0.0424-0.2316 0.0212z"/>
    <path d="m668.52 157.39v0.2753l0.0842 0.44483 0.16843 0.38128 0.21055 0.31773 0.2316 0.23301 0.25266 0.19064 0.25266 0.14827 0.2316 0.0847 0.18949 0.0635-0.0421 0.16946-0.021 0.19064-0.0211 0.21182-0.0211 0.25419 0.0211 0.29655 0.0632 0.27537 0.0842 0.27536 0.16843 0.25419 0.0842 0.10591 0.12633 0.0847 0.10527 0.0635 0.14739 0.0635 0.12633 0.0424 0.16843 0.0212h0.33688l0.0421 0.0847 0.0842 0.10591 0.0842 0.12709 0.10527 0.10591 0.12633 0.1271 0.12633 0.10591 0.16844 0.0636 0.16843 0.0635 0.12633 0.0212h0.12633l0.12633-0.0212 0.12633-0.0212 0.12633-0.0636 0.12632-0.0635 0.14739-0.0847 0.12633-0.10591-0.23161-0.27537-0.0842 0.0847-0.10527 0.0635-0.0842 0.0635-0.10527 0.0424-0.0842 0.0212-0.10527 0.0212h-0.0842l-0.0842-0.0212-0.14739-0.0635-0.14738-0.0847-0.12633-0.10591-0.10527-0.12709-0.0842-0.10591-0.0632-0.10592-0.0211-0.0635-0.0211-0.0424-0.0421-0.10591-0.12633 0.0212h-0.4211l-0.12632-0.0424-0.10528-0.0212-0.10527-0.0636-0.0842-0.0635-0.0842-0.0635-0.21055-0.50837-0.0211-0.59311 0.0632-0.48719 0.0421-0.19064 0.0632-0.19064-0.1895-0.0212-0.0842-0.0212-0.16843-0.0424-0.23161-0.10591-0.25265-0.14827-0.25266-0.19064-0.25266-0.29655-0.16843-0.3601-0.10528-0.46601 0.0211-0.61428 0.14738-0.57192 0.21055-0.52956 0.29476-0.44483 0.27372-0.38128 0.25265-0.27537 0.16844-0.16945 0.0842-0.0635-0.21055-0.27537-0.0842 0.0847-0.18949 0.16946-0.25266 0.29655-0.29476 0.3601-0.27371 0.44482-0.25266 0.52956-0.16844 0.57192z"/>
    <path d="m685.66 162.56-0.021 0.46601-0.0842 0.40246-0.16844 0.31773-0.21054 0.25419-0.21055 0.14827-0.2316 0.0847-0.23161 0.0424h-0.42109l-0.14738-0.0212-0.10528-0.0212h-0.0421l-0.18949-0.0424-0.0211 0.19064-0.0211 0.16945-0.0632 0.14828-0.10528 0.12709-0.10527 0.10592-0.25266 0.12709-0.27371 0.0635-0.29477 0.0212h-0.29476l-0.25266-0.0424-0.21055-0.0212-0.14738-0.0212-0.0632-0.0212-0.0842 0.31773 0.0842 0.0212 0.16843 0.0424 0.23161 0.0424 0.29476 0.0212h0.33688l0.33687-0.0424 0.31582-0.0847 0.29477-0.14828 0.14738-0.12709 0.10528-0.14827 0.0842-0.14828 0.0632-0.19064 0.12633 0.0212h0.54742l0.21055-0.0424 0.21055-0.0635 0.21055-0.10591 0.21054-0.1271 0.14739-0.14827 0.14738-0.16946 0.10527-0.16946 0.0842-0.21182 0.0632-0.233 0.0421-0.25419 0.0211-0.25418v-0.29656z"/>
    <path d="m683.83 148.09v0.3601h0.25266l0.2316 0.0212 0.2316 0.0424 0.1895 0.0424 0.16843 0.0847 0.14739 0.0847 0.10527 0.10591 0.10527 0.12709 0.16844 0.57192-0.0842 0.61429-0.14738 0.48719-0.0842 0.21182-0.0842 0.14828 0.16844 0.0635 0.18949 0.0847 0.16844 0.0636 0.16844 0.0847 0.12633 0.10591 0.10527 0.10591 0.0842 0.10591 0.0632 0.10591 0.0421 0.12709 0.0211 0.25419-0.0421 0.25419-0.0842 0.233-0.10527 0.21182-0.12633 0.19064-0.12633 0.14828-0.0842 0.0847-0.0211 0.0424-0.12633 0.1271 0.10527 0.12709 0.12633 0.14828 0.10527 0.14827 0.0632 0.16946v0.16946l-0.0842 0.14827-0.12633 0.10591-0.12633 0.0635-0.0842 0.0424 0.0842 0.33892 0.0211-0.0212 0.0632-0.0212 0.10527-0.0424 0.10528-0.0635 0.10527-0.0847 0.10527-0.0847 0.0842-0.1271 0.0632-0.14827 0.0211-0.0424v-0.1483l-0.0211-0.16946-0.0421-0.14828-0.10528-0.16945-0.10527-0.16946 0.16844-0.23301 0.18949-0.31773 0.16844-0.40246 0.0632-0.42365v-0.1905l-0.0211-0.0635-0.0421-0.14828-0.0842-0.14827-0.0842-0.1271-0.12633-0.12709-0.12633-0.12709-0.14738-0.10591-0.18949-0.0847-0.18949-0.0847 0.0842-0.21182 0.0842-0.29655 0.0842-0.33892 0.0211-0.38128-0.0211-0.21182-0.0211-0.21182-0.0632-0.21183-0.10527-0.19064-0.12633-0.16945-0.14738-0.1271-0.18949-0.12709-0.1895-0.10591-0.2316-0.0635-0.25266-0.0635-0.29476-0.0212z"/>
   </g>
   <path d="m697.71 166.47h0.0521l0.0729 0.0105h0.63516l0.22908 0.0105h0.70805l0.2499 0.0105h0.57269l0.30197 0.0105h0.32278l0.3332 0.0105h0.34362l0.35402 0.0105h0.35403l0.36444 0.0105 0.36444 0.0105 0.36443 0.0105 0.36444 0.0105 0.36444 0.0105 0.35403 0.0105 0.35402 0.0209 0.33321 0.0105 0.3332 0.0209 0.32278 0.0105 0.30197 0.0209 0.28113 0.0209 0.27073 0.0209 0.2499 0.0209 0.22908 0.0209 0.20825 0.0314 0.17701 0.0209 0.15619 0.0314 0.12495 0.0314 0.0833 0.0314 0.0625 0.0314-0.0312 0.0209-0.0417 0.0209-0.0625 0.0314-0.10413 0.0314-0.1666 0.0419-0.18742 0.0418-0.20825 0.0314-0.23949 0.0314-0.2499 0.0209-0.27073 0.0209-0.29155 0.0105-0.30196 0.0105-0.31237 0.0105h-1.312l-0.3332-0.0105h-0.3332l-0.33321-0.0105-0.43732-0.0105h-0.76012l-0.34361-0.0105-0.30196 0.0105h-0.28114l-0.2499 0.0105-0.21866 0.0105-0.19784 0.0105-0.1666 0.0209-0.14578 0.0209-0.12495 0.0314-0.0937 0.0314-0.0729 0.0419-0.0417 0.0419-0.0312 0.0523v0.0314l-0.0104 0.0105v0.0105l0.0208 0.0733 0.0521 0.0733 0.0625 0.0628 0.0729 0.0419 0.14578 0.0837 0.17701 0.0733 0.18743 0.0628 0.21866 0.0523 0.22907 0.0419 0.24991 0.0419 0.26031 0.0314 0.27072 0.0209 0.27073 0.0209 0.29155 0.0209 0.29155 0.0105h0.29155l0.29155 0.0105h1.6764l0.13536 0.0105h0.23949l0.10412 0.0105 0.0937 0.0105h0.0937l0.0729 0.0105 0.0729 0.0105 0.0417 0.0209 0.0417 0.0105-0.0312 0.0209-0.0417 0.0314-0.0625 0.0314-0.0833 0.0523-0.10412 0.0419-0.11454 0.0523-0.12495 0.0314-0.12495 0.0419-0.13536 0.0314-0.13537 0.0209-0.14577 0.0314-0.14578 0.0209-0.14577 0.0209-0.14578 0.0209-0.14577 0.0209-0.15619 0.0105-0.14578 0.0105-0.14577 0.0209-0.14578 0.0105-0.13536 0.0105-0.31238 0.0314-0.27072 0.0209-0.22908 0.0314-0.19784 0.0314-0.1666 0.0418-0.12495 0.0523-0.0937 0.0628-0.0521 0.0733-0.0104 0.0209v0.0314l-0.0104 0.0209v0.0523l0.0104 0.0314 0.0104 0.0314 0.0104 0.0209 0.0625 0.0837 0.11453 0.0733 0.14578 0.0628 0.17701 0.0523 0.21866 0.0523 0.26032 0.0523 0.28114 0.0419 0.32278 0.0523 0.59352 0.0942 0.0312-0.16742-0.60393-0.0942-0.23949-0.0314-0.2499-0.0418-0.22907-0.0419-0.21867-0.0419-0.18742-0.0523-0.15619-0.0419-0.11454-0.0628-0.0625-0.0628-0.0104-0.0105v-0.0525l0.0104-0.0105 0.0521-0.0523 0.0937-0.0419 0.13536-0.0314 0.17702-0.0314 0.18742-0.0314 0.21867-0.0209 0.21866-0.0105 0.21866-0.0209 0.14578-0.0105 0.15618-0.0105 0.15619-0.0209 0.14578-0.0105 0.15619-0.0105 0.15618-0.0209 0.14578-0.0209 0.14578-0.0209 0.14577-0.0209 0.14578-0.0314 0.14577-0.0314 0.13536-0.0314 0.12496-0.0418 0.12495-0.0419 0.11453-0.0418 0.11454-0.0523 0.0625-0.0314 0.0625-0.0314 0.0625-0.0314 0.0417-0.0419 0.0417-0.0314 0.0312-0.0419 0.0208-0.0419 0.0104-0.0419v-0.0105h-0.0104v-0.0105l-0.0104-0.0314-0.0208-0.0314-0.0416-0.0314-0.0417-0.0209-0.0625-0.0209-0.0729-0.0209-0.0833-0.0105-0.10413-0.0209-0.11453-0.0105h-0.13537l-0.15619-0.0105h-0.1666l-0.18742-0.0105h-1.5098l-0.28114-0.0105h-0.29155l-0.28113-0.0105-0.29156-0.0209-0.27072-0.0105-0.27073-0.0209-0.26031-0.0314-0.2499-0.0419-0.21867-0.0419-0.21866-0.0523-0.18742-0.0523-0.1666-0.0733-0.13537-0.0733-0.0625-0.0523-0.0417-0.0314-0.0208-0.0209v-0.0105l0.0417-0.0314 0.0729-0.0314 0.11454-0.0314 0.13536-0.0105 0.1666-0.0209 0.18743-0.0105 0.21866-0.0105 0.22908-0.0105h1.5931l0.27073 0.0105h0.27072l0.33321 0.0105h0.3332l0.34361 0.0105h1.3224l0.31238-0.0105 0.30196-0.0105 0.29155-0.0105 0.27073-0.0209 0.26031-0.0209 0.23949-0.0314 0.21866-0.0314 0.19784-0.0419 0.1666-0.0419 0.0729-0.0314 0.0729-0.0209 0.0625-0.0314 0.0521-0.0314 0.0521-0.0419 0.0312-0.0419 0.0208-0.0419v-0.0523l-0.0104-0.0314-0.0208-0.0314-0.0208-0.0209-0.0417-0.0314-0.0521-0.0209-0.0625-0.0314-0.0833-0.0209-0.0937-0.0314-0.10412-0.0209-0.12495-0.0209-0.14578-0.0209-0.15619-0.0209-0.17701-0.0209-0.19784-0.0209-0.21866-0.0209-0.23949-0.0209-0.26031-0.0209-0.29155-0.0209-0.30197-0.0105-0.3332-0.0209-0.35402-0.0105-0.38526-0.0209-0.41651-0.0105-0.43732-0.0105-0.45815-0.0209-0.4998-0.0105-0.52063-0.0105-0.56228-0.0105-0.5831-0.0105-0.62475-0.0105h-0.65599l-0.68723-0.0105h-0.23948l-0.21867-0.0105h-0.37485l-0.14577-0.0105h-0.24995z" fill="#2ba52d"/>
   <path d="m704.93 152.62 0.0521-0.0314 0.15619-0.0837 0.20825-0.13603 0.2499-0.17789 0.2499-0.19881 0.21867-0.21975 0.1666-0.21974 0.0729-0.23021-0.0104-0.0942-0.0208-0.0837-0.0625-0.0733-0.0729-0.0942-0.0729-0.0628-0.0625-0.0105h-0.1146l-0.0729-0.0209-0.10413-0.0733-0.13536-0.13603-0.17701-0.24067-0.0417-0.0523-0.0312-0.0419-0.0417-0.0314-0.0417-0.0314-0.0417-0.0209-0.0312-0.0209-0.0417-0.0105h-0.0417l-0.1666 0.0419-0.17701 0.10464-0.1666 0.12557-0.17702 0.13603-0.18742 0.10464-0.17702 0.0419-0.18742-0.0628-0.19784-0.18836-0.0833-0.10464-0.0729-0.0837-0.0521-0.0419-0.0521-0.0209-0.0729 0.0314-0.0521 0.1151-0.0312 0.15696-0.0521 0.17789-0.0729 0.16743-0.10413 0.1151-0.1666 0.0419-0.23948-0.0523-0.18743-0.0837-0.17701-0.0837-0.15619-0.0837-0.14578-0.0733-0.12495-0.0628-0.12495-0.0628-0.10412-0.0523-0.0937-0.0418-0.0937-0.0314-0.0833-0.0209-0.0833-0.0105h-0.0729l-0.0729 0.0209-0.0729 0.0314-0.0729 0.0523-0.0729 0.0628-0.10412 0.0733-0.0937 0.0314h-0.0937l-0.0729-0.0209-0.0625-0.0105h-0.0521l-0.0312 0.0209-0.0104 0.0733 0.0104 0.0419 0.0208 0.0628 0.0312 0.0628 0.0521 0.0732 0.0729 0.0837 0.0937 0.0942 0.10412 0.10464 0.13536 0.11511 0.22908 0.19881 0.23949 0.18836 0.22907 0.18835 0.23949 0.18835 0.21866 0.19882 0.20826 0.19881 0.18742 0.20928 0.17701 0.20928 0.13537 0.23021 0.11453 0.25114 0.0729 0.25113 0.0417 0.28253-0.0104 0.30346-0.0625 0.33485-0.11453 0.34531-0.1666 0.38717-0.17702 0.31392-0.20825 0.29299-0.21866 0.2616-0.23949 0.24067-0.2499 0.21975-0.26031 0.21974-0.26032 0.20928-0.27072 0.20928-0.28114 0.20928-0.27073 0.21975-0.26031 0.24067-0.26031 0.2616-0.2499 0.28253-0.23949 0.32438-0.21866 0.34531-0.19784 0.39764-0.0625 0.15696-0.0833 0.17789-0.0729 0.19881-0.0833 0.20928-0.0729 0.20928-0.0521 0.20928-0.0521 0.19882-0.0312 0.18835-0.0312 0.48135v0.47088l0.0521 0.46041 0.10412 0.44996 0.13537 0.43949 0.1666 0.42902 0.21866 0.39763 0.2499 0.38717 0.28114 0.35578 0.32279 0.32438 0.34361 0.293 0.38527 0.26159 0.40608 0.21975 0.44774 0.17789 0.46857 0.13603 0.48939 0.0942 0.60392 0.0523h0.59352l0.56227-0.0419 0.54145-0.0837 0.52063-0.13603 0.48939-0.18836 0.46856-0.21974 0.42692-0.2616 0.38526-0.31392 0.35402-0.33485 0.31238-0.38717 0.27073-0.41856 0.21866-0.44995 0.1666-0.48135 0.12495-0.5232 0.0625-0.54413 0.0104-0.16742v-0.46042l-0.0208-0.47088-0.0521-0.43949-0.0833-0.40809-0.10413-0.38717-0.13536-0.35578-0.1666-0.33485-0.18742-0.30345-0.20825-0.293-0.22908-0.26159-0.26031-0.23021-0.27073-0.21975-0.28114-0.19881-0.30196-0.17789-0.32279-0.15696-0.3332-0.1465-0.34361-0.12557-0.34362-0.15696-0.29155-0.18835-0.23949-0.24067-0.18742-0.2616-0.13536-0.29299-0.0937-0.31392-0.0417-0.33485v-0.33485l0.0312-0.33485 0.0729-0.34531 0.10412-0.32439 0.14578-0.31392 0.1666-0.29299 0.19784-0.27206 0.21866-0.24068z" fill="#f4bc7f"/>
   <g fill="#2ba52d">
    <path d="m704.1 154.21 0.0208 0.0105 0.0521 0.0314 0.0729 0.0419 0.0729 0.0523 0.0625 0.0733 0.0417 0.0628v0.0733l-0.0417 0.0628-0.0417 0.0523 0.0312 0.0419 0.0625 0.0419 0.0729 0.0419 0.0521 0.0419 0.0104 0.0628-0.0625 0.0733-0.1666 0.0942-0.11454 0.0523-0.13536 0.0523-0.12495 0.0523-0.13537 0.0419-0.14577 0.0419-0.14578 0.0314-0.13536 0.0314-0.14577 0.0209-0.13537 0.0105-0.14577 0.0105-0.12495-0.0105-0.13537-0.0209-0.11453-0.0209-0.11454-0.0523-0.0937-0.0523-0.0937-0.0733-0.12495-0.13603-0.0417-0.10464 0.0104-0.0628 0.0417-0.0314 0.0521-0.0105h0.0208-0.0104l-0.0937 0.0105-0.12495-0.0314-0.0833-0.0942-0.0417-0.12556-0.0104-0.13604 0.0417-0.1151 0.0833-0.0628h0.14578l0.19784 0.0942 0.11453 0.0628 0.13537 0.0418 0.13536 0.0314 0.13536 0.0105 0.14578-0.0105 0.14577-0.0105 0.14578-0.0314 0.13536-0.0314 0.12495-0.0314 0.12495-0.0418 0.11454-0.0419 0.0937-0.0314 0.0729-0.0314 0.0625-0.0314 0.0417-0.0105z"/>
    <path d="m702.51 158.26 0.0521 0.16743 0.13536 0.47087 0.17701 0.7011 0.18743 0.86851 0.14578 0.96269 0.0729 1.0045-0.0417 0.96269-0.18742 0.87898-0.46857-0.10464 0.0208-0.16743 0.0312-0.44995 0.0417-0.68016 0.0104-0.83712-0.0312-0.92083-0.0833-0.95223-0.17701-0.8999-0.28114-0.80573z"/>
    <path d="m704.24 158.29-0.0208 0.17789-0.0625 0.49181-0.0625 0.72202-0.0521 0.87897-0.0312 0.95223 0.0312 0.96269 0.10412 0.88944 0.19784 0.74294-0.5831 0.0942-0.0312-0.14649-0.0625-0.41856-0.0833-0.62785-0.0833-0.80573-0.0416-0.92083v-0.99408l0.0833-1.0255 0.18742-1.0046z"/>
    <path d="m704.62 159.03h-0.0208l-0.0729 0.0209-0.0729 0.0314-0.0833 0.0419-0.0625 0.0733-0.0208 0.0837 0.0416 0.11511 0.12496 0.13603 0.18742 0.12557 0.21866 0.0733 0.21867 0.0105 0.19784-0.0628 0.13536-0.13604 0.0521-0.20928-0.0521-0.29299-0.18743-0.3767-0.23949-0.35578-0.20825-0.21974-0.15618-0.12557-0.12496-0.0523-0.0833-0.0105h-0.0521l-0.0208-0.0314 0.0104-0.0942v-0.12557l-0.0417-0.10464-0.0729-0.0837-0.0937-0.0628-0.10413-0.0209-0.0937 0.0209-0.0833 0.0733-0.0521 0.13603-0.0729 0.11511-0.13536 0.0314-0.1666-0.0209-0.20825-0.0523-0.20825-0.0523-0.20825-0.0314-0.19784 0.0209-0.15619 0.0942-0.0312-0.0314-0.0833-0.0837-0.10412-0.10464-0.12495-0.0837-0.10413-0.0314-0.0729 0.0419-0.0312 0.15696 0.0521 0.30346-0.0625 0.0837-0.1666 0.20928-0.21866 0.32438-0.21866 0.38717-0.17701 0.43949-0.0729 0.43949 0.0729 0.42902 0.26031 0.36624 0.18742 0.15697 0.19784 0.14649 0.18743 0.12557 0.17701 0.1151 0.18742 0.10464 0.18743 0.0837 0.17701 0.0837 0.18743 0.0628 0.17701 0.0628 0.1666 0.0419 0.17702 0.0419 0.17701 0.0314 0.1666 0.0209 0.1666 0.0209 0.15619 0.0105 0.1666 0.0105 0.29155 0.10464 0.21866 0.24068 0.14578 0.34531 0.0625 0.38717-0.0312 0.40809-0.14577 0.35578-0.26032 0.28253-0.38526 0.15696-0.22907 0.0314-0.23949 0.0209-0.22908 0.0105-0.23949-0.0105-0.22907-0.0105-0.21866-0.0209-0.20826-0.0314-0.19783-0.0419-0.18743-0.0419-0.1666-0.0419-0.14577-0.0628-0.11454-0.0523-0.0937-0.0628-0.0729-0.0628-0.0312-0.0628v-0.0628l0.0625-0.10464 0.0937-0.0628 0.11454-0.0418 0.13536-0.0209 0.13536-0.0209 0.13536-0.0419 0.11454-0.0732 0.0937-0.11511 0.0417-0.14649-0.0312-0.16743-0.0833-0.14649-0.12495-0.11511-0.15619-0.0733-0.18743-0.0105-0.19783 0.0733-0.20825 0.17788-0.15619 0.25114-0.0729 0.28253v0.30346l0.0729 0.28252 0.12495 0.26161 0.18742 0.21974 0.22908 0.14649 0.26031 0.0628 0.20825 0.0418 0.11454 0.10464 0.0417 0.12557v0.1465l-0.0104 0.13603 0.0104 0.10464 0.0729 0.0628 0.15619-0.0105 0.17701-0.0628 0.12495-0.0837 0.0729-0.0942 0.0417-0.0942 0.0208-0.0837 0.0312-0.0733 0.0521-0.0419 0.0937-0.0105 0.12496 0.0523 0.12495 0.0942 0.13536 0.13603 0.13536 0.12557 0.12495 0.0942 0.11454 0.0418 0.10412-0.0418 0.0729-0.15696 0.0521-0.18836 0.0521-0.12556 0.0417-0.0837 0.0521-0.0628 0.0625-0.0419 0.10413-0.0523 0.13536-0.0837 0.18743-0.1151 0.20825-0.19882 0.19784-0.30345 0.14577-0.37671 0.0833-0.42902v-0.42903l-0.12495-0.4081-0.26031-0.36624-0.4165-0.28252-0.30196-0.13604-0.24991-0.10464-0.22907-0.0837-0.18743-0.0628-0.1666-0.0523-0.14577-0.0314-0.12495-0.0314-0.11454-0.0209-0.10413-0.0105-0.0937-0.0105-0.10412-0.0105-0.10413-0.0209-0.11454-0.0209-0.12495-0.0419-0.13536-0.0523-0.1666-0.0628-0.23949-0.1465-0.17701-0.18835-0.11454-0.23021-0.0625-0.24067-0.0208-0.2616 0.0312-0.25114 0.0729-0.23021 0.10412-0.20928 0.12495-0.1465 0.14578-0.1151 0.17701-0.10464 0.19784-0.0837 0.20825-0.0523 0.22907-0.0419 0.22908-0.0209h0.22908l0.21866 0.0209 0.20825 0.0419 0.19784 0.0733 0.17701 0.0837 0.15619 0.10464 0.11453 0.12557 0.0833 0.14649z"/>
   </g>
   <g fill="#040">
    <path d="m700.49 150.39 0.12496 0.10464 0.0416-0.0419 0.0937-0.11511 0.14578-0.14649 0.18742-0.16743 0.21866-0.16742 0.2499-0.13604 0.2499-0.0837 0.24991-0.0105 0.0937 0.0209 0.0937 0.0314 0.0937 0.0523 0.0833 0.0733 0.0729 0.0837 0.0833 0.10464 0.0625 0.1151 0.0729 0.13604 0.0521 0.10464 0.0625 0.0942 0.0521 0.0942 0.0729 0.0628 0.0625 0.0628 0.0729 0.0523 0.0729 0.0418 0.0833 0.0209 0.13537 0.0209 0.14577-0.0209 0.14577-0.0314 0.13537-0.0628 0.14577-0.0837 0.14578-0.0837 0.13536-0.10464 0.13537-0.0942 0.10412-0.0732 0.10413-0.0732 0.0937-0.0628 0.10412-0.0628 0.0937-0.0419 0.0833-0.0314 0.0729-0.0209 0.0729 0.0105 0.0625 0.0314 0.0521 0.0523 0.0417 0.0837 0.0417 0.10464 0.0312 0.0837 0.0312 0.0732 0.0417 0.0628 0.0417 0.0523 0.0416 0.0523 0.0417 0.0418 0.0521 0.0314 0.0521 0.0209 0.0937 0.0209h0.0937l0.0937-0.0209 0.10412-0.0314 0.0937-0.0419 0.0937-0.0523 0.10412-0.0628 0.0937-0.0628 0.0833-0.0523 0.0729-0.0419 0.0729-0.0419 0.0833-0.0314 0.0625-0.0314 0.0625-0.0209h0.0625l0.0521 0.0105 0.0625 0.0523 0.0521 0.0942 0.0417 0.13603 0.0312 0.17789v0.23021l-0.0521 0.21974-0.11454 0.21975-0.15619 0.20928-0.19784 0.19882-0.22907 0.20928-0.24991 0.20928-0.27072 0.20928-0.17701 0.13603-0.16661 0.13603-0.17701 0.13603-0.1666 0.1465-0.1666 0.15696-0.15619 0.15696-0.14577 0.15696-0.13536 0.16742-0.12495 0.17789-0.10413 0.17789-0.0937 0.19882-0.0729 0.19881-0.0521 0.20928-0.0312 0.21975v0.24067l0.0208 0.24067 0.16661-0.0209-0.0208-0.2302v-0.21975l0.0312-0.19881 0.0521-0.19882 0.0729-0.19882 0.0833-0.17789 0.10412-0.16742 0.12495-0.16742 0.12495-0.16743 0.14578-0.14649 0.15619-0.15696 0.15618-0.13604 0.15619-0.14649 0.1666-0.13603 0.1666-0.13604 0.1666-0.12557 0.23949-0.18835 0.23949-0.18835 0.21866-0.18835 0.19784-0.18835 0.1666-0.19882 0.13536-0.20928 0.0937-0.20928 0.0521-0.23021v-0.2093l-0.0104-0.0419-0.0417-0.21974-0.0625-0.17789-0.0833-0.1151-0.10412-0.0733-0.0833-0.0314h-0.0833l-0.0833 0.0105-0.0833 0.0314-0.0937 0.0419-0.0937 0.0523-0.0937 0.0523-0.0937 0.0628-0.0833 0.0523-0.0833 0.0523-0.0833 0.0419-0.0729 0.0419-0.0833 0.0314-0.0729 0.0209h-0.0729l-0.0625-0.0105-0.0729-0.0419-0.0521-0.0628-0.0625-0.0942-0.0417-0.11511-0.0312-0.0733-0.0312-0.0732-0.0312-0.0523-0.0417-0.0523-0.0417-0.0419-0.0417-0.0419-0.0417-0.0209-0.0521-0.0209-0.0937-0.0209-0.10412 0.0105-0.10413 0.0314-0.11454 0.0523-0.11453 0.0628-0.11454 0.0732-0.11454 0.0837-0.12495 0.0837-0.12495 0.0942-0.12495 0.0837-0.12495 0.0837-0.12495 0.0733-0.12495 0.0628-0.12495 0.0419-0.11454 0.0105-0.11454-0.0105-0.0625-0.0209-0.0521-0.0314-0.0625-0.0419-0.0521-0.0523-0.0521-0.0628-0.0521-0.0733-0.0417-0.0733-0.0521-0.0942-0.0729-0.15696-0.0833-0.12557-0.0937-0.11511-0.0937-0.10464-0.0937-0.0837-0.10412-0.0523-0.11454-0.0523-0.12495-0.0209-0.28114 0.0105-0.28114 0.0942-0.26031 0.13604-0.23949 0.17789-0.20825 0.17788-0.15619 0.15696-0.11453 0.12557z"/>
    <path d="m699.32 150.35-0.0312 0.0942 0.0104 0.10464 0.0625 0.11511 0.10413 0.1151 0.14577 0.1465 0.18743 0.14649 0.21866 0.17789 0.23949 0.18835 0.1666 0.13604 0.18742 0.13603 0.17702 0.14649 0.17701 0.1465 0.18742 0.15696 0.17702 0.15696 0.17701 0.15696 0.1666 0.16743 0.15619 0.16742 0.14577 0.17789 0.13537 0.16742 0.11454 0.17789 0.0937 0.18835 0.0833 0.17789 0.0521 0.17789 0.0312 0.18835 0.0104 0.13603v0.12557l-0.0208 0.12557-0.0312 0.12557-0.0521 0.12557-0.0625 0.12556-0.0729 0.12557-0.0937 0.11511-0.14578 0.16742-0.15618 0.16742-0.1666 0.17789-0.1666 0.16743-0.18743 0.16742-0.18743 0.17789-0.19783 0.17789-0.19784 0.17789-0.28114 0.25113-0.29155 0.27207-0.28114 0.2616-0.28114 0.28253-0.28114 0.29299-0.27072 0.29299-0.26031 0.31392-0.2499 0.31392-0.21867 0.34531-0.20825 0.34532-0.18742 0.36624-0.15619 0.3767-0.12495 0.39763-0.0937 0.41856-0.0625 0.43949-0.0208 0.44996 0.0104 0.2616 0.0208 0.28253 0.0312 0.28252 0.0521 0.28253 0.0625 0.30346 0.0833 0.30345 0.10412 0.31392 0.11454 0.31392 0.10413 0.25114 0.12495 0.24067 0.14577 0.21975 0.14578 0.21974 0.1666 0.19882 0.17701 0.18835 0.19784 0.17789 0.19784 0.16742 0.21866 0.15696 0.21866 0.1465 0.22908 0.13603 0.23949 0.11511 0.2499 0.1151 0.26031 0.0942 0.26032 0.0942 0.27072 0.0733 0.27073 0.0628 0.27072 0.0523 0.28114 0.0419 0.28114 0.0314 0.29155 0.0209 0.28114 0.0105h0.29155l0.29155-0.0209 0.28114-0.0209 0.29155-0.0314 0.28114-0.0419 0.28113-0.0628 0.28114-0.0628 0.27073-0.0733 0.27072-0.0942 0.26032-0.0942 0.3332-0.14649 0.32278-0.15696 0.31238-0.17789 0.31238-0.20928 0.29155-0.21975 0.27072-0.24067 0.26032-0.2616 0.23948-0.29299 0.21867-0.30346 0.19784-0.32438 0.1666-0.34531 0.14577-0.36625 0.11454-0.38716 0.0833-0.41857 0.0521-0.42902 0.0208-0.44995-0.0104-0.31392-0.0208-0.31392-0.0417-0.33485-0.0625-0.34531-0.0833-0.34532-0.0937-0.36624-0.12495-0.36624-0.13536-0.38717-0.12495-0.29299-0.14578-0.27206-0.14577-0.25114-0.15619-0.23021-0.17702-0.19881-0.1666-0.18836-0.18742-0.16742-0.18743-0.15696-0.18742-0.13603-0.18743-0.12557-0.19783-0.1151-0.19784-0.10465-0.18743-0.0942-0.19784-0.0837-0.17701-0.0837-0.18742-0.0837-0.23949-0.10464-0.21867-0.10464-0.20825-0.10464-0.17701-0.1151-0.15619-0.12557-0.12495-0.13603-0.0937-0.1465-0.0625-0.17789-0.1666 0.0314 0.0625 0.20929 0.11454 0.17788 0.13536 0.15696 0.17701 0.13604 0.18743 0.12556 0.21866 0.11511 0.22908 0.10464 0.2499 0.10464 0.17701 0.0733 0.18743 0.0837 0.17701 0.0942 0.18743 0.0837 0.19783 0.10464 0.18743 0.1151 0.18742 0.11511 0.17702 0.13603 0.18742 0.14649 0.1666 0.16743 0.17702 0.17789 0.15618 0.19881 0.15619 0.21975 0.14578 0.24067 0.13536 0.2616 0.12495 0.28253 0.13536 0.3767 0.12495 0.37671 0.0937 0.3767 0.0833 0.35578 0.0521 0.35578 0.0417 0.35577 0.0312 0.33485v0.33485l-0.0208 0.3767-0.0417 0.36624-0.0729 0.34532-0.0937 0.34531-0.12495 0.32438-0.13536 0.31392-0.1666 0.30346-0.19784 0.28253-0.21866 0.28253-0.23949 0.25113-0.26031 0.25114-0.28114 0.21974-0.31238 0.21975-0.3332 0.18835-0.35403 0.18835-0.37485 0.15696-0.26031 0.0942-0.26031 0.0837-0.27073 0.0733-0.27072 0.0733-0.27073 0.0523-0.28114 0.0419-0.27072 0.0314-0.28114 0.0209-0.28114 0.0209h-0.28114l-0.28114-0.0105-0.28114-0.0209-0.27072-0.0314-0.27073-0.0314-0.27072-0.0523-0.27073-0.0628-0.26031-0.0733-0.2499-0.0837-0.2499-0.0942-0.23949-0.10464-0.23949-0.1151-0.21866-0.13603-0.21866-0.13604-0.20826-0.14649-0.19783-0.16743-0.17702-0.16742-0.17701-0.18835-0.15619-0.18835-0.15619-0.20928-0.12495-0.21975-0.12494-0.23021-0.10413-0.24067-0.11454-0.30345-0.0937-0.293-0.0729-0.29299-0.0625-0.27206-0.0521-0.28253-0.0312-0.2616-0.0208-0.2616-0.0104-0.26161 0.0208-0.44995 0.0521-0.42902 0.0937-0.4081 0.11454-0.38717 0.15619-0.3767 0.17701-0.35578 0.20825-0.34531 0.21866-0.33485 0.23949-0.31392 0.26031-0.30345 0.26032-0.293 0.28114-0.29299 0.28113-0.27206 0.28114-0.2616 0.28114-0.26161 0.28114-0.25113 0.19784-0.17789 0.19783-0.18835 0.18743-0.17789 0.18742-0.17789 0.17702-0.16742 0.1666-0.17789 0.1666-0.16743 0.14577-0.16742 0.0937-0.13603 0.0833-0.13603 0.0729-0.13604 0.0521-0.14649 0.0417-0.1465 0.0208-0.14649v-0.1465l-0.0104-0.1465-0.0312-0.19881-0.0625-0.18836-0.0833-0.19881-0.10412-0.18835-0.11454-0.18836-0.13536-0.17788-0.15619-0.18836-0.15619-0.16742-0.17701-0.17789-0.17701-0.16742-0.17701-0.15696-0.18743-0.16743-0.18742-0.14649-0.18743-0.1465-0.17701-0.1465-0.17702-0.13603-0.1666-0.12557-0.15619-0.12557-0.1666-0.12556-0.14577-0.12557-0.12495-0.11511-0.0937-0.10464-0.0521-0.0732v-0.0523l0.12495-0.13604 0.13537-0.0837 0.12495-0.0418h0.13536l0.10413 0.0209 0.0937 0.0209 0.0625 0.0314 0.0312 0.0105 0.0833-0.1465-0.0937-0.0419-0.11454-0.0419-0.13536-0.0209h-0.13537l-0.14577 0.0209-0.14578 0.0628-0.13536 0.0942z"/>
    <path d="m700.74 150.84 0.0208 0.0105 0.0625 0.0209 0.0937 0.0523 0.12495 0.0628 0.14577 0.0837 0.16661 0.0942 0.17701 0.12557 0.18742 0.13603 0.18743 0.16742 0.18743 0.17789 0.17701 0.20928 0.1666 0.21975 0.15619 0.24067 0.12495 0.27206 0.0937 0.28253 0.0625 0.31392 0.1666-0.0209-0.0625-0.32438-0.10413-0.31392-0.13536-0.28253-0.15619-0.25114-0.1666-0.24067-0.18742-0.20928-0.19784-0.19881-0.19784-0.16743-0.19784-0.1465-0.18742-0.12556-0.17701-0.10464-0.15619-0.0942-0.12495-0.0628-0.10413-0.0419-0.0729-0.0314-0.0208-0.0105z"/>
    <path d="m703.01 150.99 0.0208 0.0209 0.0417 0.0418 0.0521 0.0942 0.0521 0.1465 0.0417 0.18835 0.0208 0.2616-0.0208 0.31392-0.0625 0.39763 0.1666 0.0314 0.0625-0.42902 0.0208-0.35578-0.0312-0.28252-0.0521-0.21975-0.0625-0.15696-0.0729-0.10464-0.0521-0.0628-0.0208-0.0209z"/>
    <path d="m703.94 152.52 0.10413 0.12557 0.40609-0.39763 0.31237-0.37671 0.22908-0.35577 0.1666-0.30346 0.10412-0.2616 0.0521-0.19882 0.0312-0.13603 0.0104-0.0523-0.1666-0.0105-0.0104 0.0418-0.0208 0.12557-0.0625 0.18835-0.0937 0.24067-0.15619 0.293-0.21866 0.33485-0.30197 0.36624z"/>
    <path d="m701.05 149.3h-0.052l-0.0729 0.0209-0.0625 0.0419-0.0625 0.0628-0.0625 0.0942-0.0312 0.0419-0.0312 0.0314-0.0417 0.0314-0.0521 0.0105-0.0521 0.0105h-0.4894l-0.10412 0.0209-0.0937 0.0314-0.0937 0.0523-0.0937 0.0733-0.0833 0.0942 0.13536 0.0942 0.0625-0.0732 0.0625-0.0523 0.0729-0.0314 0.0729-0.0209 0.0833-0.0209h0.4894l0.0833-0.0105 0.0729-0.0209 0.0625-0.0419 0.0625-0.0523 0.0521-0.0733 0.0417-0.0628 0.0312-0.0419 0.0312-0.0314 0.0312-0.0105h0.0521l0.0521 0.0314 0.0417 0.0419 0.0521 0.0419 0.11454-0.12557-0.0625-0.0523-0.0729-0.0523-0.0729-0.0419z"/>
    <path d="m703.28 149.13-0.0625 0.0105-0.0521 0.0209-0.0625 0.0209-0.0729 0.0419-0.0625 0.0419-0.0729 0.0628-0.0729 0.0628-0.0729 0.0733-0.17701 0.17789 0.10413 0.12556 0.19783-0.18835 0.0729-0.0733 0.0625-0.0523 0.0625-0.0523 0.0625-0.0419 0.0521-0.0314 0.0521-0.0209 0.0521-0.0105h0.0417l0.0729 0.0209 0.0729 0.0628 0.0625 0.0837 0.0729 0.0942 0.0417 0.0628 0.0312 0.0523 0.0521 0.0628 0.0417 0.0523 0.0521 0.0419 0.0625 0.0419 0.0625 0.0314 0.0625 0.0105h0.1146l0.0625-0.0105 0.0729-0.0209 0.0625-0.0314 0.0625-0.0419 0.0729-0.0419 0.0729-0.0628 0.0833-0.0628 0.0833-0.0523 0.0833-0.0419 0.0937-0.0314 0.0833-0.0209 0.0833-0.0105h0.0833l0.0833 0.0105 0.17702 0.0628 0.15618 0.10464 0.14578 0.12557 0.11454 0.13604 0.0937 0.12556 0.0729 0.11511 0.0521 0.0732 0.0104 0.0314 0.15619-0.0733-0.0208-0.0419-0.0521-0.0942-0.0833-0.11511-0.11454-0.14649-0.13536-0.1465-0.15619-0.13603-0.17701-0.11511-0.20825-0.0732-0.0417-0.0105h-0.2084l-0.0833 0.0105-0.0833 0.0209-0.0729 0.0314-0.0833 0.0314-0.0833 0.0523-0.0833 0.0523-0.0833 0.0628-0.0521 0.0419-0.0625 0.0419-0.0521 0.0314-0.0417 0.0209-0.0521 0.0209-0.0417 0.0105h-0.0729l-0.0833-0.0314-0.0833-0.0628-0.0625-0.0837-0.0729-0.10464-0.0417-0.0628-0.0417-0.0523-0.0416-0.0628-0.0417-0.0419-0.0521-0.0523-0.0521-0.0314-0.0625-0.0314-0.0729-0.0105h-0.0416z"/>
    <path d="m701.47 158.97-0.12495 0.36624-0.0417 0.34532 0.0312 0.31392 0.10413 0.28253 0.0833 0.13603 0.10412 0.1151 0.12495 0.11511 0.12495 0.0942 0.14578 0.0837 0.15618 0.0837 0.15619 0.0628 0.1666 0.0628 0.1666 0.0523 0.17702 0.0419 0.1666 0.0419 0.1666 0.0314 0.1666 0.0314 0.1666 0.0209 0.14577 0.0209 0.14578 0.0209 0.0625 0.0105 0.22908 0.0523 0.21866 0.0733 0.19784 0.0942 0.17701 0.11511 0.15619 0.14649 0.13536 0.15696 0.11454 0.17789 0.0833 0.18836 0.0521 0.17788 0.0312 0.18835v0.17789l-0.0208 0.17789-0.0521 0.17789-0.0625 0.16742-0.0937 0.15696-0.11454 0.1465-0.0625 0.0628-0.0729 0.0628-0.0833 0.0733-0.10413 0.0628-0.11454 0.0628-0.12495 0.0628-0.14577 0.0523-0.15619 0.0419-0.1666 0.0418-0.19784 0.0209-0.20825 0.0105h-0.21866l-0.2499-0.0105-0.26032-0.0314-0.29155-0.0523-0.30196-0.0733-0.21866-0.0628-0.19784-0.0732-0.15619-0.0837-0.13536-0.0942-0.0937-0.0942-0.0625-0.10464-0.0312-0.1151v-0.11511l0.0417-0.12556 0.0729-0.12557 0.0833-0.10464 0.11454-0.0942 0.10412-0.0837 0.11454-0.0523 0.11454-0.0314 0.0937-0.0105 0.0417 0.0105 0.0417 0.0209 0.0312 0.0523 0.0104 0.0733-0.0104 0.0314-0.0208 0.0314-0.0312 0.0419-0.0312 0.0209-0.0521 0.0105-0.0417-0.0105-0.0521-0.0209-0.0521-0.0209-0.0833 0.13603 0.0417 0.0314 0.0521 0.0209 0.0417 0.0105 0.0417 0.0105 0.0417 0.0105h0.0417l0.0417-0.0105 0.0417-0.0105 0.0937-0.0628 0.0625-0.0837 0.0312-0.0628 0.0104-0.0419 0.0104-0.0105v-0.0105l-0.0208-0.13603-0.0521-0.10464-0.0937-0.0628-0.11453-0.0314-0.13537 0.0105-0.13536 0.0419-0.14577 0.0628-0.14578 0.0942-0.12495 0.12557-0.11454 0.12557-0.0729 0.14649-0.0521 0.15696-0.0104 0.0942 0.0104 0.1151 0.0417 0.12557 0.0833 0.13603 0.12495 0.12557 0.18743 0.12557 0.2499 0.1151 0.32279 0.10464 0.32279 0.0733 0.30196 0.0523 0.28114 0.0314 0.26031 0.0209h0.23949l0.21866-0.0209 0.19784-0.0314 0.18742-0.0419 0.16661-0.0523 0.15618-0.0523 0.13537-0.0628 0.11453-0.0733 0.11454-0.0733 0.0937-0.0732 0.0729-0.0628 0.0729-0.0733 0.12495-0.16742 0.10413-0.17789 0.0833-0.18835 0.0521-0.18835 0.0208-0.20928v-0.19882l-0.0312-0.20928-0.0625-0.19882-0.0937-0.21974-0.12495-0.19882-0.14578-0.17788-0.17701-0.15697-0.19784-0.12556-0.21866-0.10464-0.22908-0.0837-0.2499-0.0523-0.0729-0.0105-0.13536-0.0209-0.14577-0.0209-0.15619-0.0209-0.15619-0.0314-0.15619-0.0314-0.1666-0.0314-0.1666-0.0419-0.15619-0.0523-0.15618-0.0523-0.15619-0.0628-0.14578-0.0733-0.13536-0.0733-0.12495-0.0942-0.10413-0.0942-0.0937-0.1151-0.0833-0.11511-0.0937-0.24067-0.0208-0.28253 0.0417-0.30345 0.11454-0.33485 0.0833-0.17789 0.0937-0.15696 0.10413-0.1465 0.11454-0.12556 0.11453-0.10464 0.11454-0.0942 0.12495-0.0733 0.13536-0.0733 0.12496-0.0419 0.13536-0.0419 0.12495-0.0209 0.13536-0.0105h0.13536l0.12495 0.0105 0.12496 0.0105 0.12495 0.0314 0.29155 0.0942 0.26031 0.12556 0.21866 0.13603 0.18743 0.12557 0.15618 0.12557 0.10413 0.10464 0.0729 0.0733 0.0208 0.0209 0.0417 0.0523 0.0729 0.1151 0.0729 0.15696 0.0104 0.17789-0.0208 0.0733-0.0521 0.0628-0.0625 0.0523-0.0833 0.0419-0.0729 0.0314h-0.0729l-0.0625-0.0105-0.0625-0.0419-0.0625-0.0628-0.0312-0.0733-0.0208-0.0733v-0.0523l0.0104-0.0105v-0.0105h0.0729l0.0521 0.0419 0.0312 0.0418 0.0104 0.0314 0.15619-0.0314-0.0104-0.0418-0.0208-0.0523-0.0312-0.0419-0.0417-0.0419-0.0417-0.0419-0.0625-0.0209-0.0625-0.0105h-0.0729l-0.0521 0.0209-0.0417 0.0314-0.0312 0.0418-0.0208 0.0523-0.0104 0.10464 0.0312 0.12557 0.0521 0.11511 0.0937 0.0942 0.0521 0.0314 0.0521 0.0314 0.0521 0.0209 0.0521 0.0105h0.0625l0.0521-0.0105 0.0625-0.0105 0.0625-0.0314 0.0625-0.0314 0.0521-0.0419 0.0521-0.0314 0.0417-0.0419 0.0417-0.0523 0.0208-0.0419 0.0312-0.0523 0.0104-0.0523-0.0104-0.23021-0.0833-0.20928-0.0937-0.1465-0.0521-0.0628-0.0312-0.0314-0.0729-0.0837-0.11454-0.10464-0.1666-0.13603-0.19784-0.13603-0.22907-0.13603-0.27073-0.12557-0.31237-0.10464-0.13537-0.0314-0.13536-0.0209-0.14578-0.0105h-0.14577l-0.14578 0.0105-0.14577 0.0314-0.14578 0.0314-0.14577 0.0523-0.13537 0.0733-0.13536 0.0837-0.13536 0.10464-0.12495 0.11511-0.12495 0.13603-0.11454 0.15696-0.10412 0.17789z"/>
    <path d="m701.94 157.38 0.0625 0.18836 0.15619 0.50227 0.19784 0.77434 0.20825 0.99408 0.1666 1.172 0.0937 1.2975-0.0417 1.3917-0.19784 1.4231 0.1666 0.0314 0.20825-1.444 0.0312-1.4022-0.0833-1.3185-0.17701-1.1824-0.20825-1.0046-0.20825-0.7848-0.15619-0.51274-0.0625-0.18835z"/>
    <path d="m704.08 164.95 0.15618-0.0523-0.30196-1.4126-0.13536-1.3812-0.0104-1.2975 0.0937-1.1824 0.13536-1.015 0.14577-0.7848 0.11454-0.51273 0.0521-0.18836-0.15618-0.0418-0.0521 0.19881-0.12495 0.51274-0.14577 0.79526-0.14578 1.015-0.0833 1.2034 0.0104 1.3185 0.13536 1.4022z"/>
    <path d="m702.24 154.45 0.0312 0.0105 0.0625 0.0105 0.0833 0.0209 0.11454 0.0314 0.13536 0.0314 0.15619 0.0314 0.1666 0.0314 0.17701 0.0314 0.18743 0.0314 0.19784 0.0314 0.19784 0.0105 0.19783 0.0209h0.37485l0.1666-0.0209 0.15619-0.0314-0.0417-0.16742-0.14577 0.0314-0.1666 0.0105-0.17702 0.0105-0.18742-0.0105-0.18743-0.0105-0.19783-0.0209-0.18743-0.0314-0.18743-0.0209-0.17701-0.0314-0.1666-0.0419-0.14577-0.0314-0.13537-0.0209-0.10412-0.0314-0.0833-0.0209-0.0521-0.0105-0.0208-0.0105z"/>
    <path d="m702.15 155.04 0.22907 0.10464 0.22908 0.0733 0.21866 0.0523 0.20825 0.0314 0.19784 0.0209h0.18743l0.17701-0.0209 0.1666-0.0209 0.14578-0.0314 0.13536-0.0314 0.11453-0.0419 0.10413-0.0314 0.0729-0.0419 0.0625-0.0314 0.0417-0.0209 0.0208-0.0105-0.0833-0.14649-0.0104 0.0105-0.0417 0.0209-0.0521 0.0209-0.0729 0.0314-0.0937 0.0314-0.10412 0.0419-0.12495 0.0314-0.13537 0.0314-0.15618 0.0209-0.1666 0.0105h-0.17702l-0.18742-0.0105-0.19784-0.0314-0.20825-0.0419-0.20825-0.0733-0.21866-0.0942z"/>
    <path d="m702.16 154.68-0.0104 0.16742h0.0312l0.0625 0.0105h0.5102l0.17702-0.0105 0.17701-0.0209 0.18742-0.0209 0.19784-0.0314 0.18743-0.0418 0.18742-0.0628 0.17702-0.0628 0.15618-0.0837 0.15619-0.0942 0.12495-0.1151-0.12495-0.12557-0.11453 0.10464-0.14578 0.0942-0.15619 0.0732-0.1666 0.0628-0.17701 0.0523-0.17701 0.0314-0.18743 0.0314-0.17701 0.0209-0.17702 0.0209h-0.1666l-0.14577 0.0105h-0.23949l-0.0937-0.0105h-0.0521z"/>
    <path d="m701.61 154.52 0.0104 0.0733 0.0208 0.0628 0.0417 0.0628 0.0521 0.0628 0.0521 0.0419 0.0729 0.0314 0.0729 0.0209 0.0833 0.0105 0.0833-0.0105 0.0729-0.0209 0.0625-0.0314 0.0625-0.0419 0.0521-0.0628 0.0312-0.0628 0.0208-0.0628 0.0104-0.0733-0.0104-0.0733-0.0208-0.0733-0.0312-0.0628-0.0521-0.0628-0.0625-0.0418-0.0625-0.0314-0.0729-0.0209-0.0833-0.0105-0.0833 0.0105-0.0729 0.0209-0.0729 0.0314-0.0521 0.0418-0.0521 0.0628-0.0417 0.0628-0.0208 0.0733z"/>
    <path d="m701.79 154.52 0.0208-0.0837 0.0521-0.0628 0.0729-0.0419 0.0833-0.0209 0.0937 0.0209 0.0729 0.0419 0.0417 0.0628 0.0208 0.0837-0.0208 0.0733-0.0417 0.0628-0.0729 0.0419-0.0937 0.0209-0.0833-0.0209-0.0729-0.0419-0.0521-0.0628z"/>
    <path d="m699.33 153.81 0.0312 0.0733 0.0417 0.0628 0.0521 0.0523 0.0625 0.0209 0.0729 0.0105 0.0833-0.0209 0.0833-0.0314 0.0833-0.0523 0.10412-0.0733 0.0937-0.0942 0.10413-0.10464 0.11454-0.13603 0.0729-0.0837 0.0729-0.0733 0.0729-0.0523 0.0729-0.0523 0.0729-0.0314 0.0729-0.0209 0.0729-0.0105 0.0729 0.0105 0.19784 0.0628 0.17701 0.12556 0.1666 0.16743 0.14578 0.18835 0.12495 0.18835 0.0833 0.15696 0.0625 0.11511 0.0208 0.0418 0.14577-0.0628-0.0208-0.0628-0.0625-0.12557-0.10412-0.16743-0.12495-0.20928-0.16661-0.19881-0.18742-0.17789-0.20825-0.13603-0.22908-0.0733-0.0937-0.0105-0.10413 0.0105-0.0937 0.0314-0.0937 0.0314-0.0833 0.0628-0.0937 0.0628-0.0937 0.0942-0.0833 0.0942-0.12495 0.1465-0.11453 0.1151-0.0937 0.0837-0.0729 0.0523-0.0625 0.0314-0.0417 0.0105-0.0312 0.0105h-0.0208l-0.0208-0.0105-0.0208-0.0209-0.0104-0.0314-0.0104-0.0314-0.0104-0.0733 0.0104-0.0837 0.0104-0.0837 0.0312-0.0942 0.0417-0.0942 0.0521-0.0837 0.0729-0.0837 0.0729-0.0733-0.10412-0.13603-0.0937 0.0942-0.0833 0.10464-0.0729 0.10464-0.0417 0.1151-0.0417 0.12557-0.0208 0.10464v0.10464z"/>
    <path d="m700.99 154.16-0.0625 0.0628-0.0417 0.0837-0.0208 0.11511 0.0104 0.13603 0.0104 0.13603-0.0104 0.10464-0.0312 0.0942-0.0625 0.0628-0.0416 0.0209-0.0417 0.0209-0.0521 0.0105h-0.0521l-0.0625-0.0105-0.0625-0.0105-0.0729-0.0209-0.0729-0.0314-0.0625-0.0209-0.0521-0.0105h-0.1146l-0.0521 0.0105-0.0521 0.0209-0.0521 0.0314-0.0521 0.0314-0.0729 0.0942-0.0417 0.11511-0.0208 0.1151 0.0208 0.12557 0.0312 0.0628 0.0312 0.0628 0.0521 0.0523 0.0521 0.0419 0.0625 0.0419 0.0729 0.0314 0.0833 0.0209 0.0833 0.0105 0.0208-0.16743-0.0625-0.0105-0.0625-0.0105-0.0417-0.0209-0.0521-0.0314-0.0312-0.0209-0.0312-0.0419-0.0312-0.0314-0.0104-0.0419-0.0104-0.0733v-0.0733l0.0312-0.0732 0.0417-0.0523 0.0521-0.0419 0.0625-0.0105h0.0625l0.0729 0.0209 0.0937 0.0419 0.0937 0.0209 0.0937 0.0209h0.1562l0.0729-0.0209 0.0625-0.0209 0.0625-0.0419 0.0937-0.0942 0.0521-0.13603 0.0208-0.15696-0.0104-0.17789v-0.136l0.0104-0.0523 0.0312-0.0419 0.0521-0.0209h0.0625l0.0729 0.0105 0.0729 0.0209 0.0833 0.0314 0.0833 0.0314 0.0833 0.0418 0.0729 0.0419 0.0833-0.1465-0.0417-0.0314-0.0833-0.0314-0.0937-0.0523-0.10413-0.0419-0.11454-0.0209-0.11453-0.0209-0.11454 0.0105z"/>
    <path d="m698.06 162.09v0.136l0.0417 0.21975 0.0833 0.18835 0.10413 0.15696 0.11454 0.1151 0.12495 0.0942 0.12495 0.0733 0.11454 0.0418 0.0937 0.0314-0.0208 0.0837-0.0104 0.0942-0.0104 0.10464-0.0104 0.12557 0.0104 0.1465 0.0312 0.13603 0.0417 0.13603 0.0833 0.12557 0.0417 0.0523 0.0625 0.0419 0.0521 0.0314 0.0729 0.0314 0.0625 0.0209 0.0833 0.0105h0.1666l0.0208 0.0419 0.0417 0.0523 0.0417 0.0628 0.0521 0.0523 0.0625 0.0628 0.0625 0.0523 0.0833 0.0314 0.0833 0.0314 0.0625 0.0105h0.0625l0.0625-0.0105 0.0625-0.0105 0.0625-0.0314 0.0625-0.0314 0.0729-0.0419 0.0625-0.0523-0.11454-0.13603-0.0417 0.0418-0.0521 0.0314-0.0417 0.0314-0.0521 0.0209-0.0417 0.0105-0.0521 0.0105h-0.0417l-0.0417-0.0105-0.0729-0.0314-0.0729-0.0419-0.0625-0.0523-0.0521-0.0628-0.0417-0.0523-0.0312-0.0523-0.0104-0.0314-0.0104-0.0209-0.0208-0.0523-0.0625 0.0105h-0.2083l-0.0625-0.0209-0.0521-0.0105-0.0521-0.0314-0.0417-0.0314-0.0417-0.0314-0.10413-0.25113-0.0104-0.293 0.0312-0.24067 0.0208-0.0942 0.0312-0.0942-0.0937-0.0105-0.0417-0.0105-0.0833-0.0209-0.11454-0.0523-0.12495-0.0733-0.12495-0.0942-0.12495-0.1465-0.0833-0.17789-0.0521-0.23021 0.0104-0.30345 0.0729-0.28253 0.10413-0.2616 0.14578-0.21974 0.13536-0.18836 0.12495-0.13603 0.0833-0.0837 0.0417-0.0314-0.10413-0.13604-0.0417 0.0419-0.0937 0.0837-0.12495 0.1465-0.14577 0.17789-0.13537 0.21974-0.12495 0.2616-0.0833 0.28253z"/>
    <path d="m706.53 164.64-0.0104 0.23021-0.0417 0.19881-0.0833 0.15697-0.10413 0.12556-0.10412 0.0733-0.11454 0.0419-0.11454 0.0209h-0.20825l-0.0729-0.0105-0.0521-0.0105h-0.0208l-0.0937-0.0209-0.0104 0.0942-0.0104 0.0837-0.0312 0.0732-0.0521 0.0628-0.0521 0.0523-0.12494 0.0628-0.13537 0.0314-0.14577 0.0105h-0.14578l-0.12495-0.0209-0.10412-0.0105-0.0729-0.0105-0.0312-0.0105-0.0417 0.15696 0.0417 0.0105 0.0833 0.0209 0.11454 0.0209 0.14577 0.0105h0.1666l0.1666-0.0209 0.15619-0.0419 0.14578-0.0732 0.0729-0.0628 0.0521-0.0733 0.0417-0.0733 0.0312-0.0942 0.0625 0.0105h0.27073l0.10412-0.0209 0.10413-0.0314 0.10412-0.0523 0.10413-0.0628 0.0729-0.0732 0.0729-0.0837 0.0521-0.0837 0.0417-0.10464 0.0312-0.1151 0.0208-0.12557 0.0104-0.12557v-0.1465z"/>
    <path d="m705.63 157.49v0.17789h0.12495l0.11454 0.0105 0.11454 0.0209 0.0937 0.0209 0.0833 0.0419 0.0729 0.0419 0.0521 0.0523 0.0521 0.0628 0.0833 0.28253-0.0417 0.30346-0.0729 0.24067-0.0416 0.10464-0.0417 0.0733 0.0833 0.0314 0.0937 0.0419 0.0833 0.0314 0.0833 0.0419 0.0625 0.0523 0.0521 0.0523 0.0417 0.0523 0.0312 0.0523 0.0208 0.0628 0.0104 0.12557-0.0208 0.12557-0.0417 0.1151-0.0521 0.10464-0.0625 0.0942-0.0625 0.0732-0.0417 0.0419-0.0104 0.0209-0.0625 0.0628 0.0521 0.0628 0.0625 0.0732 0.0521 0.0733 0.0312 0.0837v0.0837l-0.0417 0.0732-0.0625 0.0523-0.0625 0.0314-0.0417 0.0209 0.0417 0.16743 0.0104-0.0105 0.0312-0.0105 0.0521-0.0209 0.0521-0.0314 0.0521-0.0419 0.0521-0.0419 0.0417-0.0628 0.0312-0.0732 0.0104-0.0209v-0.0732l-0.0104-0.0837-0.0208-0.0733-0.0521-0.0837-0.0521-0.0837 0.0833-0.11511 0.0937-0.15696 0.0833-0.19882 0.0312-0.20928v-0.0942l-0.0104-0.0314-0.0208-0.0733-0.0417-0.0733-0.0417-0.0628-0.0625-0.0628-0.0625-0.0628-0.0729-0.0523-0.0937-0.0419-0.0937-0.0418 0.0417-0.10464 0.0417-0.1465 0.0417-0.16742 0.0104-0.18836-0.0104-0.10464-0.0104-0.10464-0.0312-0.10464-0.0521-0.0942-0.0625-0.0837-0.0729-0.0628-0.0937-0.0628-0.0937-0.0523-0.11454-0.0314-0.12495-0.0314-0.14577-0.0105z"/>
   </g>
  </g>
  <text x="678.25531" y="188.85585" fill="#000000" font-family="Calibri" font-size="3.8861px" font-weight="700" letter-spacing="0px" stroke-width=".26458" text-align="center" text-anchor="middle" word-spacing="0px" style="line-height:125%" xml:space="preserve"><tspan x="678.25531" y="188.85585" fill="#000000" font-family="Calibri" font-size="3.8861px" font-weight="700" text-align="center"><tspan dx="0" dy="0" text-align="center">Manager</tspan><tspan dx="0" dy="0" text-align="center"/></tspan><tspan x="678.25531" y="193.71344" text-align="center">Salaries</tspan></text>
  <text x="703.12653" y="188.85585" fill="#000000" font-family="Calibri" font-size="3.8861px" font-weight="700" letter-spacing="0px" stroke-width=".26458" text-align="center" text-anchor="middle" word-spacing="0px" style="line-height:125%" xml:space="preserve"><tspan x="703.12653" y="188.85585" text-align="center">Worker</tspan><tspan x="703.12653" y="193.71344" text-align="center">Salaries</tspan></text>
 </g>
</svg>
